<svg width="22" height="22" viewBox="0 0 22 22" fill="none" xmlns="http://www.w3.org/2000/svg">
<g clip-path="url(#clip0_380_3220)">
<path d="M19.9375 4.125C20.1198 4.125 20.2947 4.19743 20.4236 4.32636C20.5526 4.4553 20.625 4.63016 20.625 4.8125V17.1875C20.625 17.3698 20.5526 17.5447 20.4236 17.6736C20.2947 17.8026 20.1198 17.875 19.9375 17.875H2.0625C1.88016 17.875 1.7053 17.8026 1.57636 17.6736C1.44743 17.5447 1.375 17.3698 1.375 17.1875V4.8125C1.375 4.63016 1.44743 4.4553 1.57636 4.32636C1.7053 4.19743 1.88016 4.125 2.0625 4.125H19.9375ZM2.0625 2.75C1.51549 2.75 0.990886 2.9673 0.604092 3.35409C0.217298 3.74089 0 4.26549 0 4.8125L0 17.1875C0 17.7345 0.217298 18.2591 0.604092 18.6459C0.990886 19.0327 1.51549 19.25 2.0625 19.25H19.9375C20.4845 19.25 21.0091 19.0327 21.3959 18.6459C21.7827 18.2591 22 17.7345 22 17.1875V4.8125C22 4.26549 21.7827 3.74089 21.3959 3.35409C21.0091 2.9673 20.4845 2.75 19.9375 2.75H2.0625Z" fill="black" fill-opacity="0.8"/>
<path d="M9.625 7.56226C9.625 7.37993 9.69743 7.20506 9.82637 7.07613C9.9553 6.9472 10.1302 6.87476 10.3125 6.87476H17.1875C17.3698 6.87476 17.5447 6.9472 17.6736 7.07613C17.8026 7.20506 17.875 7.37993 17.875 7.56226C17.875 7.7446 17.8026 7.91947 17.6736 8.0484C17.5447 8.17733 17.3698 8.24976 17.1875 8.24976H10.3125C10.1302 8.24976 9.9553 8.17733 9.82637 8.0484C9.69743 7.91947 9.625 7.7446 9.625 7.56226ZM7.568 6.38801C7.63203 6.45188 7.68282 6.52774 7.71748 6.61127C7.75214 6.69479 7.76998 6.78433 7.76998 6.87476C7.76998 6.96519 7.75214 7.05474 7.71748 7.13826C7.68282 7.22178 7.63203 7.29765 7.568 7.36151L5.5055 9.42401C5.44164 9.48804 5.36577 9.53883 5.28225 9.57349C5.19872 9.60815 5.10918 9.62599 5.01875 9.62599C4.92832 9.62599 4.83878 9.60815 4.75526 9.57349C4.67173 9.53883 4.59586 9.48804 4.532 9.42401L3.8445 8.73651C3.78058 8.67259 3.72988 8.59671 3.69528 8.51319C3.66069 8.42967 3.64288 8.34016 3.64288 8.24976C3.64288 8.0672 3.71541 7.89211 3.8445 7.76301C3.9736 7.63392 4.14869 7.56139 4.33125 7.56139C4.51382 7.56139 4.68891 7.63392 4.818 7.76301L5.01875 7.96514L6.5945 6.38801C6.65836 6.32399 6.73423 6.27319 6.81776 6.23853C6.90128 6.20387 6.99082 6.18604 7.08125 6.18604C7.17168 6.18604 7.26122 6.20387 7.34475 6.23853C7.42827 6.27319 7.50414 6.32399 7.568 6.38801ZM9.625 13.0623C9.625 12.8799 9.69743 12.7051 9.82637 12.5761C9.9553 12.4472 10.1302 12.3748 10.3125 12.3748H17.1875C17.3698 12.3748 17.5447 12.4472 17.6736 12.5761C17.8026 12.7051 17.875 12.8799 17.875 13.0623C17.875 13.2446 17.8026 13.4195 17.6736 13.5484C17.5447 13.6773 17.3698 13.7498 17.1875 13.7498H10.3125C10.1302 13.7498 9.9553 13.6773 9.82637 13.5484C9.69743 13.4195 9.625 13.2446 9.625 13.0623ZM7.568 11.888C7.63203 11.9519 7.68282 12.0277 7.71748 12.1113C7.75214 12.1948 7.76998 12.2843 7.76998 12.3748C7.76998 12.4652 7.75214 12.5547 7.71748 12.6383C7.68282 12.7218 7.63203 12.7977 7.568 12.8615L5.5055 14.924C5.44164 14.988 5.36577 15.0388 5.28225 15.0735C5.19872 15.1082 5.10918 15.126 5.01875 15.126C4.92832 15.126 4.83878 15.1082 4.75526 15.0735C4.67173 15.0388 4.59586 14.988 4.532 14.924L3.8445 14.2365C3.78058 14.1726 3.72988 14.0967 3.69528 14.0132C3.66069 13.9297 3.64288 13.8402 3.64288 13.7498C3.64288 13.6594 3.66069 13.5699 3.69528 13.4863C3.72988 13.4028 3.78058 13.3269 3.8445 13.263C3.90842 13.1991 3.98431 13.1484 4.06782 13.1138C4.15134 13.0792 4.24085 13.0614 4.33125 13.0614C4.42165 13.0614 4.51116 13.0792 4.59468 13.1138C4.6782 13.1484 4.75408 13.1991 4.818 13.263L5.01875 13.4651L6.5945 11.888C6.65836 11.824 6.73423 11.7732 6.81776 11.7385C6.90128 11.7039 6.99082 11.686 7.08125 11.686C7.17168 11.686 7.26122 11.7039 7.34475 11.7385C7.42827 11.7732 7.50414 11.824 7.568 11.888Z" fill="black" fill-opacity="0.8"/>
</g>
<defs>
<clipPath id="clip0_380_3220">
<rect width="22" height="22" fill="white"/>
</clipPath>
</defs>
</svg>
