<svg width="20" height="20" viewBox="0 0 20 20" fill="none" xmlns="http://www.w3.org/2000/svg">
<g clip-path="url(#clip0_380_1480)">
<path d="M17.5 16.25H15.625C15.4557 16.25 15.3092 16.1882 15.1855 16.0645C15.0618 15.9408 15 15.7943 15 15.625V9.375C15 9.20573 15.0618 9.05925 15.1855 8.93555C15.3092 8.81185 15.4557 8.75 15.625 8.75H16.25C16.25 6.82292 15.7129 5.29948 14.6387 4.17969C13.5645 3.0599 12.0182 2.5 10 2.5C7.98177 2.5 6.43555 3.0599 5.36133 4.17969C4.28711 5.29948 3.75 6.82292 3.75 8.75H4.375C4.54427 8.75 4.69076 8.81185 4.81445 8.93555C4.93815 9.05925 5 9.20573 5 9.375V15.625C5 15.7943 4.93815 15.9408 4.81445 16.0645C4.69076 16.1882 4.54427 16.25 4.375 16.25H3.75C3.75 16.9401 3.99414 17.5293 4.48242 18.0176C4.9707 18.5059 5.5599 18.75 6.25 18.75H7.5C7.5 18.3984 7.62044 18.1022 7.86133 17.8613C8.10221 17.6204 8.39844 17.5 8.75 17.5H10C10.3516 17.5 10.6478 17.6204 10.8887 17.8613C11.1296 18.1022 11.25 18.3952 11.25 18.7402C11.25 19.0853 11.1296 19.3815 10.8887 19.6289C10.6478 19.8763 10.3516 20 10 20H6.25C5.20833 20 4.32292 19.6354 3.59375 18.9062C2.86458 18.1771 2.5 17.2917 2.5 16.25C1.8099 16.25 1.2207 15.8854 0.732422 15.1562C0.244141 14.4271 0 13.5417 0 12.5C0 11.8229 0.113932 11.1979 0.341797 10.625C0.569661 10.0521 0.872396 9.60286 1.25 9.27734V8.75C1.25 7.5651 1.48112 6.43229 1.94336 5.35156C2.4056 4.27083 3.02734 3.33984 3.80859 2.55859C4.58984 1.77734 5.52083 1.1556 6.60156 0.693359C7.68229 0.23112 8.8151 0 10 0C11.1849 0 12.3177 0.23112 13.3984 0.693359C14.4792 1.1556 15.4102 1.77734 16.1914 2.55859C16.9727 3.33984 17.5944 4.27083 18.0566 5.35156C18.5189 6.43229 18.75 7.5651 18.75 8.75V9.27734C19.1276 9.60286 19.4303 10.0521 19.6582 10.625C19.8861 11.1979 20 11.8229 20 12.5C20 13.5417 19.7559 14.4271 19.2676 15.1562C18.7793 15.8854 18.1901 16.25 17.5 16.25Z" fill="black" fill-opacity="0.8"/>
</g>
<defs>
<clipPath id="clip0_380_1480">
<rect width="20" height="20" fill="white"/>
</clipPath>
</defs>
</svg>
