<svg width="22" height="22" viewBox="0 0 22 22" fill="none" xmlns="http://www.w3.org/2000/svg">
<path d="M11 6.00732C10.838 6.00732 10.6825 6.07171 10.5679 6.18631C10.4533 6.30092 10.3889 6.45636 10.3889 6.61844V11.9473L13.9945 14.3918C14.1298 14.4777 14.2935 14.5071 14.4502 14.4734C14.607 14.4398 14.7443 14.346 14.8325 14.2121C14.9207 14.0782 14.9527 13.915 14.9217 13.7577C14.8907 13.6004 14.7991 13.4616 14.6667 13.3712L11.6111 11.2995V6.61844C11.6111 6.45636 11.5468 6.30092 11.4321 6.18631C11.3175 6.07171 11.1621 6.00732 11 6.00732Z" fill="black" fill-opacity="0.8"/>
<path d="M11 1.22217C9.25421 1.22828 7.54153 1.69909 6.03792 2.58622C4.53432 3.47334 3.29401 4.7448 2.44445 6.26995V3.17772C2.44445 3.01565 2.38007 2.86021 2.26546 2.7456C2.15086 2.631 1.99542 2.56661 1.83334 2.56661C1.67126 2.56661 1.51582 2.631 1.40122 2.7456C1.28661 2.86021 1.22223 3.01565 1.22223 3.17772V8.5555H6.60001C6.76208 8.5555 6.91752 8.49112 7.03213 8.37651C7.14673 8.26191 7.21112 8.10647 7.21112 7.94439C7.21112 7.78231 7.14673 7.62688 7.03213 7.51227C6.91752 7.39767 6.76208 7.33328 6.60001 7.33328H3.26945C4.0402 5.70662 5.30438 4.3645 6.88206 3.4979C8.45975 2.63131 10.2706 2.2844 12.0568 2.50653C13.8431 2.72867 15.5138 3.50854 16.8312 4.73517C18.1485 5.96179 19.0455 7.57267 19.3943 9.33856C19.7432 11.1045 19.5262 12.9354 18.7742 14.5708C18.0223 16.2062 16.7736 17.5628 15.206 18.4475C13.6384 19.3323 11.8317 19.7 10.043 19.4984C8.25432 19.2969 6.57476 18.5363 5.24334 17.3249C5.18395 17.2708 5.11448 17.2288 5.03888 17.2015C4.96329 17.1742 4.88305 17.162 4.80275 17.1657C4.72245 17.1694 4.64367 17.1889 4.5709 17.223C4.49812 17.2571 4.43279 17.3053 4.37862 17.3647C4.32445 17.4241 4.2825 17.4935 4.25518 17.5691C4.22786 17.6447 4.2157 17.725 4.21939 17.8053C4.22308 17.8856 4.24255 17.9643 4.27668 18.0371C4.31082 18.1099 4.35895 18.1752 4.41834 18.2294C5.59299 19.2991 7.01059 20.0664 8.54848 20.465C10.0864 20.8636 11.6982 20.8814 13.2446 20.517C14.7909 20.1526 16.2252 19.4168 17.4232 18.3734C18.6213 17.3301 19.547 16.0105 20.1204 14.5288C20.6938 13.0472 20.8975 11.4482 20.7139 9.87012C20.5304 8.29206 19.965 6.78249 19.0668 5.47205C18.1687 4.16161 16.9647 3.08976 15.5591 2.34926C14.1536 1.60875 12.5887 1.2219 11 1.22217Z" fill="black" fill-opacity="0.8"/>
</svg>
