<svg width="39" height="31" viewBox="0 0 39 31" fill="none" xmlns="http://www.w3.org/2000/svg">
<path fill-rule="evenodd" clip-rule="evenodd" d="M13.9854 18.2572L19.5039 22.2562L24.8235 18.3667L36.7477 30.8349C36.4332 30.9438 36.1003 30.9989 35.7494 31.0003H3.25065C2.82165 31.0003 2.41215 30.9114 2.0358 30.7523L13.9854 18.2572ZM39 8.01066V27.5551C39 28.0656 38.8947 28.5492 38.7075 28.9853L27.0192 16.763L39 8.01066ZM0 8.12019L11.7819 16.6597L0.2067 28.7662C0.0711024 28.3785 0.00112903 27.9686 0 27.5551L0 8.12019ZM35.7494 0.000259399C37.5434 0.000259399 39 1.54199 39 3.44539V4.65646L19.4961 18.9061L0 4.77426V3.44539C0 1.54406 1.4547 0.000259399 3.25065 0.000259399H35.7494Z" fill="#0C1660"/>
</svg>
