<svg width="41" height="35" viewBox="0 0 41 35" fill="none" xmlns="http://www.w3.org/2000/svg">
<path d="M13.6667 35.0003C12.5103 35.0003 11.5206 34.5722 10.6978 33.7162C9.87504 32.8602 9.46294 31.8298 9.46154 30.6253V24.0628H15.7692V19.1409C14.5427 19.068 13.3779 18.7858 12.2748 18.2943C11.1716 17.8029 10.1638 17.0642 9.25128 16.0784V13.6721H6.83333L0 6.56276C1.26154 4.88568 2.82094 3.70078 4.67821 3.00807C6.53547 2.31536 8.41026 1.96901 10.3026 1.96901C11.2487 1.96901 12.1689 2.04193 13.0632 2.18776C13.9575 2.33359 14.8595 2.60703 15.7692 3.00807V0.000259399H41V28.4378C41 30.2607 40.3868 31.8102 39.1603 33.0862C37.9338 34.3622 36.4444 35.0003 34.6923 35.0003H13.6667ZM19.9744 24.0628H32.5897V28.4378C32.5897 29.0576 32.7916 29.5774 33.1953 29.9974C33.599 30.4174 34.098 30.6267 34.6923 30.6253C35.2866 30.6238 35.7863 30.4138 36.1914 29.9953C36.5965 29.5767 36.7977 29.0576 36.7949 28.4378V4.37526H19.9744V5.68776L32.5897 18.8128V21.8753H29.6462L23.6538 15.6409L23.2333 16.0784C22.7427 16.5888 22.2262 17.0445 21.6837 17.4456C21.1413 17.8466 20.5715 18.1565 19.9744 18.3753V24.0628ZM8.62051 9.29713H13.4564V14.0003C13.8769 14.2919 14.315 14.4924 14.7705 14.6018C15.2261 14.7112 15.6991 14.7659 16.1897 14.7659C16.9957 14.7659 17.7232 14.6383 18.3722 14.3831C19.0212 14.1279 19.6604 13.6721 20.2897 13.0159L20.7103 12.5784L17.7667 9.51589C16.7504 8.45859 15.6115 7.66526 14.35 7.13588C13.0885 6.60651 11.7393 6.34255 10.3026 6.34401C9.60171 6.34401 8.9359 6.3987 8.30513 6.50807C7.67436 6.61745 7.04359 6.78151 6.41282 7.00026L8.62051 9.29713Z" fill="#0C1660"/>
</svg>
