<svg width="32" height="33" viewBox="0 0 32 33" fill="none" xmlns="http://www.w3.org/2000/svg">
<path d="M18.6985 19.1872C16.737 21.2191 14.3637 22.7879 11.7451 23.7833L8.20264 20.9047C8.09762 20.8309 7.9731 20.7913 7.84558 20.7913C7.71805 20.7913 7.59354 20.8309 7.48851 20.9047L0.910963 25.2322C0.661253 25.3855 0.449871 25.596 0.293514 25.847C0.137157 26.0981 0.0401115 26.3829 0.0100365 26.6788C-0.0200386 26.9747 0.0176849 27.2738 0.120226 27.5523C0.222767 27.8307 0.387318 28.0811 0.60088 28.2835L3.68293 31.3923C4.12431 31.8377 4.66679 32.1645 5.26197 32.3437C5.85715 32.5228 6.4865 32.5487 7.09386 32.419C13.1525 31.1412 18.7369 28.1487 23.2088 23.7833C27.5815 19.3745 30.6074 13.7648 31.9194 7.63451C32.049 7.0239 32.0219 6.38946 31.8409 5.79267C31.6598 5.19588 31.3308 4.65698 30.8858 4.22819L27.691 1.08095C27.4933 0.873491 27.2522 0.71439 26.9857 0.615562C26.7193 0.516734 26.4344 0.480739 26.1524 0.510274C25.8704 0.539809 25.5986 0.634108 25.3573 0.78611C25.1161 0.938112 24.9116 1.14388 24.7593 1.388L20.3805 8.01832C20.305 8.12243 20.2642 8.24857 20.2642 8.37814C20.2642 8.50771 20.305 8.63385 20.3805 8.73796L23.2652 12.2786C22.264 14.899 20.704 17.2589 18.6985 19.1872Z" fill="#0C1660"/>
</svg>
