<svg width="25" height="26" viewBox="0 0 25 26" fill="none" xmlns="http://www.w3.org/2000/svg">
<path d="M13.8594 23.9375L12.5 23.1562L15.625 17.6875H20.3125C20.7269 17.6875 21.1243 17.5229 21.4174 17.2299C21.7104 16.9368 21.875 16.5394 21.875 16.125V6.75C21.875 6.3356 21.7104 5.93817 21.4174 5.64515C21.1243 5.35212 20.7269 5.1875 20.3125 5.1875H4.6875C4.2731 5.1875 3.87567 5.35212 3.58265 5.64515C3.28962 5.93817 3.125 6.3356 3.125 6.75V16.125C3.125 16.5394 3.28962 16.9368 3.58265 17.2299C3.87567 17.5229 4.2731 17.6875 4.6875 17.6875H11.7188V19.25H4.6875C3.8587 19.25 3.06384 18.9208 2.47779 18.3347C1.89174 17.7487 1.5625 16.9538 1.5625 16.125V6.75C1.5625 5.9212 1.89174 5.12634 2.47779 4.54029C3.06384 3.95424 3.8587 3.625 4.6875 3.625H20.3125C21.1413 3.625 21.9362 3.95424 22.5222 4.54029C23.1083 5.12634 23.4375 5.9212 23.4375 6.75V16.125C23.4375 16.9538 23.1083 17.7487 22.5222 18.3347C21.9362 18.9208 21.1413 19.25 20.3125 19.25H16.5312L13.8594 23.9375Z" fill="#0E165C"/>
<path d="M6.25 8.3125H18.75V9.875H6.25V8.3125Z" fill="#1DACC9"/>
<path d="M6.25 13H14.0625V14.5625H6.25V13Z" fill="#1DACC9"/>
</svg>
