<svg width="24" height="24" viewBox="0 0 24 24" fill="none" xmlns="http://www.w3.org/2000/svg">
<circle cx="12" cy="12" r="11.5" stroke="#0E175C"/>
<path fill-rule="evenodd" clip-rule="evenodd" d="M11.2342 2.00254C15.7478 1.91961 19.0456 3.86706 21.1276 7.84493C22.5265 11.263 22.243 14.534 20.2772 17.6579C17.8988 20.8918 14.6955 22.3193 10.6672 21.9404C7.7535 21.4714 5.43838 20.0439 3.72196 17.6579C1.54564 14.1328 1.43224 10.5404 3.38179 6.88065C5.22327 4.00847 7.84075 2.38241 11.2342 2.00254Z" fill="#21ADCA"/>
<path fill-rule="evenodd" clip-rule="evenodd" d="M11.2588 3.36377C11.364 3.36377 11.4691 3.36377 11.5742 3.36377C11.5742 3.74436 11.5742 4.12495 11.5742 4.50554C10.3123 4.51614 9.05048 4.50554 7.78888 4.47383C8.87673 3.86602 10.0333 3.49596 11.2588 3.36377Z" fill="white"/>
<path fill-rule="evenodd" clip-rule="evenodd" d="M12.2052 3.36377C13.6246 3.40855 14.9495 3.77861 16.1798 4.47383C14.8551 4.50554 13.5303 4.51614 12.2052 4.50554C12.2052 4.12495 12.2052 3.74436 12.2052 3.36377Z" fill="white"/>
<path fill-rule="evenodd" clip-rule="evenodd" d="M7.85197 5.0127C9.09275 5.0127 10.3335 5.0127 11.5742 5.0127C11.6324 7.06339 11.643 9.11433 11.6058 11.1656C11.4353 10.9835 11.2565 10.8143 11.0695 10.6581C9.74686 9.29657 8.41145 7.94331 7.06335 6.59849C7.27716 6.05279 7.54 5.52421 7.85197 5.0127Z" fill="white"/>
<path fill-rule="evenodd" clip-rule="evenodd" d="M17.5047 5.32996C17.5787 5.45707 17.6838 5.55222 17.8201 5.6154C17.6203 5.81629 17.4206 6.01711 17.2208 6.218C17.2032 6.1599 17.1717 6.11765 17.1261 6.09114C16.8704 5.59827 16.597 5.112 16.306 4.6322C16.3711 4.57182 16.4448 4.57182 16.5268 4.6322C16.8454 4.87908 17.1714 5.11169 17.5047 5.32996Z" fill="white"/>
<path fill-rule="evenodd" clip-rule="evenodd" d="M7.34726 5.01292C7.11755 5.38945 6.8862 5.77004 6.65328 6.15469C6.46401 6.0067 6.29575 5.83753 6.14856 5.64723C6.36174 5.4537 6.57202 5.26341 6.77945 5.07635C7.01787 4.94555 7.24922 4.7975 7.47344 4.63232C7.49445 4.64292 7.51552 4.65345 7.53653 4.66404C7.46467 4.77695 7.40158 4.89328 7.34726 5.01292Z" fill="white"/>
<path fill-rule="evenodd" clip-rule="evenodd" d="M16.5584 6.02767C16.683 6.22488 16.7565 6.4363 16.7792 6.66199C15.3908 8.11078 13.9923 9.54852 12.5837 10.9754C12.481 11.0467 12.3863 11.1313 12.2998 11.2291C12.2725 9.15683 12.241 7.0847 12.2052 5.01276C13.4461 5.00217 14.6869 5.01276 15.9275 5.04448C16.1291 5.38327 16.3395 5.71102 16.5584 6.02767Z" fill="white"/>
<path fill-rule="evenodd" clip-rule="evenodd" d="M3.37262 11.2928C3.54971 9.57427 4.15953 8.03078 5.20221 6.66224C5.34618 6.49592 5.49337 6.32681 5.64384 6.15479C5.85317 6.33347 6.05297 6.52377 6.24319 6.72567C6.28527 6.7891 6.28527 6.85254 6.24319 6.91597C5.38095 8.45946 4.51877 10.003 3.65652 11.5465C3.58649 11.644 3.49186 11.6862 3.37262 11.6734C3.37262 11.5465 3.37262 11.4196 3.37262 11.2928Z" fill="white"/>
<path fill-rule="evenodd" clip-rule="evenodd" d="M18.3249 6.09131C19.6588 7.64393 20.4159 9.45174 20.5961 11.5147C20.5893 11.6214 20.5472 11.6954 20.4699 11.7367C19.5034 10.1747 18.5676 8.58894 17.6624 6.97936C17.6203 6.8948 17.6203 6.81018 17.6624 6.72563C17.875 6.50127 18.0958 6.28979 18.3249 6.09131Z" fill="white"/>
<path fill-rule="evenodd" clip-rule="evenodd" d="M17.5047 5.33008C17.6523 5.36725 17.789 5.43068 17.9148 5.52037C17.9476 5.63385 17.9266 5.73959 17.8517 5.83753C17.7936 5.86481 17.7411 5.886 17.694 5.90097C17.7408 5.95089 17.7933 5.99313 17.8517 6.02783C17.9923 5.96078 18.108 5.87623 18.1987 5.7741C18.3972 5.81406 18.4392 5.9198 18.3249 6.09126C18.0958 6.28974 17.875 6.50122 17.6624 6.72558C17.6203 6.81013 17.6203 6.89475 17.6624 6.97931C18.5676 8.58889 19.5034 10.1747 20.4699 11.7367C20.336 11.9418 20.1468 12.0687 19.9021 12.1173C19.9021 12.0539 19.9021 11.9904 19.9021 11.927C19.6918 11.927 19.4815 11.927 19.2712 11.927C19.2712 11.9904 19.2712 12.0539 19.2712 12.1173C19.4407 12.1069 19.609 12.1175 19.7759 12.149C19.7932 12.2656 19.8878 12.3396 20.0598 12.371C20.1507 12.3299 20.2453 12.3088 20.3437 12.3076C20.4203 12.1139 20.557 11.9659 20.7538 11.8636C20.7257 12.4117 20.7363 12.9614 20.7853 13.5128C20.7013 13.5128 20.6171 13.5128 20.533 13.5128C20.533 13.4494 20.533 13.3859 20.533 13.3225C20.5401 13.0042 20.5612 12.687 20.5961 12.371C20.4768 12.3581 20.3822 12.4004 20.3122 12.4979C19.4025 14.0522 18.5087 15.6168 17.6309 17.1918C17.8412 17.4456 18.0725 17.6782 18.3249 17.8896C18.5623 17.6516 18.7725 17.3979 18.9558 17.1284C18.9976 17.2262 19.0397 17.332 19.0819 17.4456C19.2508 17.2974 19.398 17.1282 19.5236 16.9381C19.5446 16.9698 19.5656 17.0015 19.5867 17.0333C19.5133 17.3096 19.3872 17.5527 19.2081 17.7627C18.9917 17.795 18.7814 17.8162 18.5772 17.8262C18.5772 17.9319 18.5772 18.0376 18.5772 18.1433C18.5108 18.1528 18.4478 18.1422 18.388 18.1116C18.2314 17.9004 18.021 17.8052 17.7571 17.8262C17.7571 17.8896 17.7571 17.953 17.7571 18.0165C17.673 18.0165 17.5888 18.0165 17.5047 18.0165C17.4231 17.9663 17.3494 17.9029 17.2839 17.8262C16.9566 18.358 16.6307 18.8866 16.306 19.412C16.306 19.3485 16.306 19.2851 16.306 19.2217C16.1329 19.2664 15.9646 19.2664 15.8013 19.2217C15.8935 19.0937 15.9776 18.9669 16.0536 18.8411C16.2631 18.42 16.5049 18.0183 16.7792 17.6359C16.8411 17.556 16.8621 17.4715 16.8423 17.3821C15.3693 15.8906 13.8867 14.4105 12.3945 12.9419C12.3314 14.9502 12.3104 16.9588 12.3314 18.9679C12.2475 16.9485 12.2475 14.9187 12.3314 12.8785C12.4492 12.7054 12.5122 12.7265 12.5206 12.9419C12.9271 12.9099 12.9902 12.7514 12.7099 12.4662C12.7309 12.4345 12.752 12.4027 12.773 12.371C12.936 12.3144 13.1043 12.2933 13.2777 12.3076C15.1181 12.2866 16.9477 12.3077 18.7665 12.371C16.8103 12.3499 14.8545 12.371 12.8992 12.4345C14.3283 13.9031 15.7689 15.362 17.2208 16.8113C18.0714 15.355 18.9231 13.896 19.7759 12.4345C19.4844 12.3715 19.1901 12.3503 18.8927 12.371C18.8997 12.3319 18.9207 12.3002 18.9558 12.2759C18.8679 12.2016 18.8153 12.1064 18.798 11.9904C17.1194 12.1164 15.4265 12.1587 13.7193 12.1173C13.7193 12.0539 13.7193 11.9904 13.7193 11.927C15.4022 11.9481 17.0846 11.927 18.7665 11.8636C17.0608 11.7796 15.3574 11.7796 13.6562 11.8636C13.5918 11.841 13.5497 11.7987 13.5301 11.7367C15.6332 11.7473 17.7361 11.7367 19.839 11.705C18.9637 10.2091 18.0805 8.71842 17.1893 7.23304C15.7176 8.7339 14.2454 10.2351 12.773 11.7367C12.6797 11.7533 12.5956 11.7322 12.5206 11.6733C12.5727 11.6171 12.6358 11.5959 12.7099 11.6098C12.7021 11.4543 12.639 11.3274 12.5206 11.2292C12.5425 11.1437 12.5635 11.0591 12.5837 10.9755C13.9923 9.54868 15.3908 8.11093 16.7792 6.66215C16.7565 6.43646 16.683 6.22504 16.5584 6.02783C16.5442 5.88726 16.5967 5.78152 16.7161 5.71067C16.8181 5.77639 16.8286 5.85041 16.7476 5.93268C16.8454 6.00969 16.9189 6.10484 16.9684 6.21812C17.0131 6.16224 17.0657 6.12 17.1262 6.09126C17.1717 6.11778 17.2033 6.16002 17.2208 6.21812C17.4206 6.01724 17.6203 5.81641 17.8201 5.61552C17.6839 5.55234 17.5787 5.4572 17.5047 5.33008Z" fill="#25ABC7"/>
<path fill-rule="evenodd" clip-rule="evenodd" d="M13.53 11.7366C13.4459 11.7366 13.3618 11.7366 13.2777 11.7366C13.1094 11.7366 12.9412 11.7366 12.7729 11.7366C14.2454 10.235 15.7175 8.73377 17.1892 7.23291C18.0804 8.71829 18.9637 10.2089 19.839 11.7049C17.7361 11.7366 15.6331 11.7472 13.53 11.7366Z" fill="white"/>
<path fill-rule="evenodd" clip-rule="evenodd" d="M10.8172 11.3559C10.8197 11.4246 10.8407 11.4881 10.8803 11.5462C8.71455 11.6203 6.54843 11.6308 4.38207 11.578C4.32447 11.4883 4.32447 11.3931 4.38207 11.2925C5.11529 9.90309 5.88284 8.52878 6.68483 7.16943C8.07501 8.55656 9.45244 9.95206 10.8172 11.3559Z" fill="white"/>
<path fill-rule="evenodd" clip-rule="evenodd" d="M6.77945 5.07654C6.57201 5.2636 6.36173 5.4539 6.14855 5.64743C6.29574 5.83772 6.464 6.0069 6.65327 6.15488C6.8862 5.77023 7.11754 5.38964 7.34725 5.01311C7.37457 5.18812 7.47974 5.27267 7.6627 5.26684C7.66068 5.13242 7.72377 5.04787 7.85197 5.01311C7.53999 5.52462 7.27716 6.0532 7.06335 6.59891C8.41145 7.94373 9.74686 9.29698 11.0695 10.6585C11.1207 10.8549 11.0576 11.024 10.8803 11.166C10.9316 11.2494 10.9946 11.3234 11.0695 11.388C11.0345 11.4123 11.0134 11.444 11.0064 11.4832C10.9434 11.4409 10.8803 11.3986 10.8172 11.3563C9.45242 9.95242 8.07499 8.55692 6.68481 7.16979C5.88282 8.52914 5.11527 9.90345 4.38205 11.2929C4.27612 11.388 4.19202 11.5043 4.12969 11.6417C6.46388 11.6735 8.79818 11.6841 11.1326 11.6735C8.87219 11.7368 6.60097 11.7579 4.31896 11.7369C4.32495 11.9127 4.40911 12.0396 4.57132 12.1175C6.65295 12.1703 8.73491 12.202 10.8172 12.2126C10.9155 12.226 10.9996 12.2577 11.0695 12.3078C8.75617 12.2972 6.44287 12.3078 4.12969 12.3395C4.20521 12.4673 4.28931 12.5836 4.38205 12.6884C4.99711 13.8196 5.628 14.9402 6.27473 16.0503C6.23581 16.0573 6.20426 16.0784 6.1801 16.1137C6.07329 15.8415 5.91556 15.6089 5.70693 15.4159C5.65986 15.3375 5.63885 15.2529 5.64384 15.1622C5.55974 15.1622 5.47558 15.1622 5.39148 15.1622C5.37047 15.3525 5.45457 15.4371 5.64384 15.4159C5.69141 15.5908 5.69141 15.7599 5.64384 15.9234C4.96632 14.794 4.30388 13.6522 3.65652 12.4981C3.59924 12.3751 3.5046 12.3116 3.37262 12.3078C3.37262 12.2443 3.37262 12.1809 3.37262 12.1175C3.68952 12.1547 3.79462 12.0279 3.68807 11.7369C3.64441 11.7702 3.61286 11.8125 3.59343 11.8638C3.52492 11.7149 3.44082 11.7149 3.34107 11.8638C3.27426 11.8555 3.22171 11.8238 3.18335 11.7686C3.23155 11.6374 3.26309 11.4999 3.27798 11.3563C3.30215 11.321 3.33369 11.2999 3.37262 11.2929C3.37262 11.4197 3.37262 11.5466 3.37262 11.6735C3.49186 11.6863 3.58649 11.6441 3.65652 11.5466C4.51876 10.0031 5.38094 8.45955 6.24319 6.91607C6.28527 6.85263 6.28527 6.7892 6.24319 6.72577C6.05297 6.52387 5.85317 6.33357 5.64384 6.15488C5.49337 6.32691 5.34618 6.49602 5.20221 6.66234C5.15338 6.4546 5.0272 6.31714 4.82368 6.25003C4.97629 6.15431 5.03938 6.01692 5.01294 5.83772C4.94985 5.83772 4.88676 5.83772 4.82368 5.83772C4.82368 5.77429 4.82368 5.71086 4.82368 5.64743C4.95856 5.6603 5.06373 5.72374 5.13912 5.83772C5.22322 5.77429 5.30738 5.71086 5.39148 5.64743C5.41249 5.67914 5.43356 5.71086 5.45457 5.74258C5.31155 5.88638 5.16436 6.03436 5.01294 6.1866C5.29495 6.36148 5.44214 6.28746 5.45457 5.96459C5.68592 5.85885 5.85412 5.68974 5.95929 5.45713C6.17379 5.48682 6.32098 5.40226 6.40091 5.2034C6.47592 5.14448 6.56002 5.12335 6.65327 5.13997C6.64488 4.92272 6.6869 4.9016 6.77945 5.07654Z" fill="#28AAC3"/>
<path fill-rule="evenodd" clip-rule="evenodd" d="M4.38206 11.2925C4.32446 11.3931 4.32446 11.4882 4.38206 11.5779C6.54842 11.6308 8.71454 11.6202 10.8803 11.5462C10.8407 11.488 10.8196 11.4246 10.8172 11.3559C10.8803 11.3982 10.9434 11.4405 11.0064 11.4828C11.0485 11.5462 11.0905 11.6096 11.1326 11.6731C8.79819 11.6837 6.46388 11.6731 4.1297 11.6414C4.19203 11.5039 4.27613 11.3876 4.38206 11.2925Z" fill="white"/>
<path fill-rule="evenodd" clip-rule="evenodd" d="M13.2777 11.7368C13.3618 11.7368 13.4459 11.7368 13.53 11.7368C13.5497 11.7989 13.5917 11.8412 13.6562 11.8637C15.3574 11.7797 17.0608 11.7797 18.7665 11.8637C17.0846 11.9271 15.4022 11.9482 13.7193 11.9271C13.7193 11.9905 13.7193 12.054 13.7193 12.1174C15.4265 12.1588 17.1194 12.1165 18.798 11.9905C18.8152 12.1066 18.8679 12.2017 18.9557 12.276C18.9207 12.3003 18.8997 12.332 18.8926 12.3711C18.8506 12.3711 18.8085 12.3711 18.7665 12.3711C16.9477 12.3078 15.1181 12.2867 13.2777 12.3077C13.1432 12.2561 12.9961 12.2244 12.8361 12.2126C12.8571 12.1914 12.8781 12.1702 12.8991 12.1491C13.1296 12.1175 13.3608 12.1069 13.5931 12.1174C13.5931 12.054 13.5931 11.9905 13.5931 11.9271C13.4444 11.9375 13.2972 11.9269 13.1515 11.8954C13.2071 11.8505 13.2491 11.7976 13.2777 11.7368Z" fill="#1CAED2"/>
<path fill-rule="evenodd" clip-rule="evenodd" d="M11.0695 12.3077C11.223 12.3258 11.223 12.3681 11.0695 12.4345C8.85112 12.3712 6.62199 12.3501 4.38206 12.3711C4.38206 12.4769 4.38206 12.5825 4.38206 12.6883C4.28932 12.5835 4.20522 12.4672 4.1297 12.3394C6.44287 12.3077 8.75618 12.2971 11.0695 12.3077Z" fill="white"/>
<path fill-rule="evenodd" clip-rule="evenodd" d="M11.0696 12.4346C9.6698 13.8949 8.23975 15.3221 6.77948 16.7162C6.72699 16.7599 6.68497 16.7493 6.6533 16.6845C6.52573 16.4696 6.39955 16.2582 6.27476 16.0502C5.62803 14.9401 4.99714 13.8196 4.38208 12.6883C4.38208 12.5826 4.38208 12.4769 4.38208 12.3712C6.62201 12.3501 8.85115 12.3713 11.0696 12.4346Z" fill="white"/>
<path fill-rule="evenodd" clip-rule="evenodd" d="M18.7665 12.3712C18.8086 12.3712 18.8506 12.3712 18.8927 12.3712C19.1901 12.3505 19.4844 12.3716 19.7759 12.4346C18.9231 13.8962 18.0714 15.3552 17.2208 16.8114C15.7689 15.3622 14.3283 13.9033 12.8992 12.4346C14.8545 12.3712 16.8103 12.3501 18.7665 12.3712Z" fill="white"/>
<path fill-rule="evenodd" clip-rule="evenodd" d="M3.37262 12.3076C3.5046 12.3115 3.59924 12.3749 3.65652 12.4979C4.30388 13.6521 4.96632 14.7938 5.64384 15.9232C5.90162 16.2984 6.1119 16.7002 6.27473 17.1284C6.09114 17.4086 5.87033 17.6623 5.61229 17.8896C4.22344 16.3003 3.47691 14.4397 3.37262 12.3076Z" fill="white"/>
<path fill-rule="evenodd" clip-rule="evenodd" d="M20.533 13.3224C20.2852 14.7084 19.7595 15.9771 18.9557 17.1283C18.7725 17.3978 18.5622 17.6515 18.3248 17.8895C18.0725 17.6781 17.8411 17.4455 17.6309 17.1917C18.5087 15.6167 19.4025 14.0521 20.3122 12.4978C20.3822 12.4003 20.4768 12.358 20.5961 12.3709C20.5612 12.6869 20.5401 13.0041 20.533 13.3224Z" fill="white"/>
<path fill-rule="evenodd" clip-rule="evenodd" d="M11.6373 12.8149C11.7003 14.855 11.7214 16.906 11.7004 18.9678C10.4595 18.9784 9.21875 18.9678 7.97816 18.9361C7.66738 18.4381 7.37294 17.9306 7.09491 17.4138C8.61757 15.8934 10.1317 14.3605 11.6373 12.8149Z" fill="white"/>
<path fill-rule="evenodd" clip-rule="evenodd" d="M16.0536 18.8411C16.0039 18.859 15.9618 18.8907 15.9275 18.9362C14.729 18.9679 13.5303 18.9785 12.3314 18.9679C12.3104 16.9588 12.3314 14.9501 12.3945 12.9419C13.8867 14.4105 15.3693 15.8906 16.8423 17.3821C16.8621 17.4714 16.8411 17.556 16.7792 17.6359C16.5049 18.0183 16.2631 18.42 16.0536 18.8411Z" fill="white"/>
<path fill-rule="evenodd" clip-rule="evenodd" d="M7.66275 19.4754C7.09652 19.169 6.57079 18.799 6.08551 18.3653C6.28531 18.1644 6.48506 17.9636 6.68486 17.7627C7.01154 18.3353 7.33752 18.9062 7.66275 19.4754Z" fill="white"/>
<path fill-rule="evenodd" clip-rule="evenodd" d="M17.5047 18.0165C17.6084 18.1421 17.7135 18.269 17.8201 18.3971C17.3481 18.809 16.8434 19.1685 16.306 19.4754C16.306 19.4543 16.306 19.4331 16.306 19.412C16.6307 18.8866 16.9566 18.358 17.2839 17.8262C17.3494 17.9029 17.423 17.9664 17.5047 18.0165Z" fill="white"/>
<path fill-rule="evenodd" clip-rule="evenodd" d="M7.66272 19.4756C9.00861 19.4756 10.3546 19.4756 11.7004 19.4756C11.7004 19.8773 11.7004 20.2791 11.7004 20.6808C10.2416 20.6316 8.89574 20.2299 7.66272 19.4756Z" fill="white"/>
<path fill-rule="evenodd" clip-rule="evenodd" d="M16.306 19.4756C15.0926 20.2197 13.7677 20.6215 12.3314 20.6808C12.3314 20.2791 12.3314 19.8773 12.3314 19.4756C13.6562 19.4756 14.9811 19.4756 16.306 19.4756Z" fill="white"/>
</svg>
