<svg width="24" height="24" viewBox="0 0 24 24" fill="none" xmlns="http://www.w3.org/2000/svg">
<circle cx="12" cy="12" r="11.5" stroke="#0E175C"/>
<path d="M16.9935 7.1011C16.1919 6.9437 16.0981 8.32536 16.8508 8.36248C17.603 8.39923 17.7564 7.25107 16.9935 7.1011Z" fill="#1FAECC"/>
<path d="M6.81653 7.16582C5.99539 6.95311 5.8122 8.10647 6.49454 8.3563C7.17652 8.60612 7.49638 7.34177 6.81653 7.16582Z" fill="#1FAECC"/>
<path d="M8.91393 10.5669V11.4783H11.2927C11.2831 11.2674 11.2927 10.7906 11.2927 10.5669C11.2927 10.3391 11.1187 10.3391 10.8577 10.3391H10.8576H9.29105C8.96614 10.3391 8.90426 10.491 8.91393 10.5669Z" fill="#1FAECC"/>
<path d="M12.5595 10.5669V11.4783H14.9889C14.9791 11.2674 14.9889 10.7906 14.9889 10.5669C14.9889 10.3391 14.8112 10.3391 14.5446 10.3391H14.5445H12.9447C12.6128 10.3391 12.5496 10.491 12.5595 10.5669Z" fill="#1FAECC"/>
<path d="M17.8497 14.6684H6.07756C6.07756 12.4608 7.30962 11.8076 8.10287 11.757C9.54591 11.7654 13.3231 11.7772 15.47 11.757C17.6168 11.7367 17.951 13.6895 17.8497 14.6684Z" fill="#1FAECC"/>
<path d="M6.07756 14.8961L6.20835 16.9214H7.22853V15.8581H16.7764V16.9214H17.7442L17.875 14.8961H6.07756Z" fill="#1FAECC"/>
<path d="M6.43199 8.72044V12.0875C6.57376 11.723 7.5206 11.404 8.48262 11.404C8.50287 10.3103 8.48262 10.0875 9.26743 9.83435H10.8371C11.7889 9.83435 11.7738 10.8133 11.7484 11.404H12.1029C12.1788 10.1382 11.875 9.9103 13.7991 9.83435C15.3383 9.7736 15.5459 10.7879 15.4446 11.404C16.1333 11.3432 16.9468 11.8344 17.2674 12.0875V8.69511H16.5333L16.4067 10.2647C16.3307 9.60651 14.4826 7.98627 11.9003 7.91032C9.83452 7.84956 7.7822 9.53901 7.26743 10.3913L7.09022 8.72044H6.43199Z" fill="#1FAECC"/>
</svg>
