<svg width="25" height="24" viewBox="0 0 25 24" fill="none" xmlns="http://www.w3.org/2000/svg">
<path d="M13 8L10.5 12H14.5L12 16" stroke="#1FAECC" stroke-width="1.5" stroke-linecap="round" stroke-linejoin="round"/>
<path d="M21.511 14.14C22.033 13.995 22.294 13.924 22.397 13.786C22.5 13.648 22.5 13.428 22.5 12.986V11.014C22.5 10.572 22.5 10.351 22.397 10.214C22.294 10.076 22.033 10.004 21.511 9.861C19.561 9.324 18.34 7.244 18.843 5.267C18.982 4.723 19.051 4.451 18.985 4.292C18.919 4.133 18.729 4.022 18.35 3.802L16.625 2.804C16.253 2.588 16.067 2.48 15.9 2.504C15.733 2.526 15.544 2.718 15.167 3.102C14.8182 3.45469 14.403 3.73469 13.9453 3.92579C13.4876 4.11688 12.9965 4.21528 12.5005 4.21528C12.0045 4.21528 11.5134 4.11688 11.0557 3.92579C10.598 3.73469 10.1828 3.45469 9.834 3.102C9.457 2.718 9.269 2.526 9.102 2.503C8.935 2.48 8.749 2.588 8.377 2.803L6.652 3.803C6.272 4.023 6.082 4.133 6.017 4.292C5.951 4.452 6.02 4.723 6.158 5.267C6.661 7.244 5.44 9.324 3.489 9.861C2.967 10.005 2.706 10.076 2.603 10.214C2.5 10.352 2.5 10.572 2.5 11.014V12.987C2.5 13.428 2.5 13.649 2.603 13.787C2.706 13.924 2.967 13.995 3.489 14.139C5.439 14.676 6.66 16.756 6.157 18.733C6.018 19.277 5.949 19.549 6.015 19.708C6.081 19.867 6.271 19.978 6.65 20.198L8.375 21.197C8.747 21.412 8.933 21.52 9.1 21.497C9.267 21.474 9.456 21.282 9.833 20.898C10.1818 20.5449 10.5972 20.2645 11.0552 20.0731C11.5132 19.8817 12.0046 19.7832 12.501 19.7832C12.9974 19.7832 13.4888 19.8817 13.9468 20.0731C14.4048 20.2645 14.8202 20.5449 15.169 20.898C15.546 21.282 15.734 21.474 15.901 21.497C16.068 21.52 16.254 21.412 16.627 21.197L18.351 20.197C18.731 19.977 18.921 19.867 18.986 19.708C19.052 19.548 18.983 19.277 18.845 18.733C18.341 16.756 19.561 14.676 21.511 14.139" stroke="#0C1660" stroke-width="1.5" stroke-linecap="round" stroke-linejoin="round"/>
</svg>
