<svg width="29" height="30" viewBox="0 0 29 30" fill="none" xmlns="http://www.w3.org/2000/svg">
<g clip-path="url(#clip0_276_1907)">
<path d="M19.0662 19.6671C20.2932 18.9851 20.1342 16.3571 18.7122 13.7931C18.1022 12.6891 17.3522 11.7951 16.6022 11.1701C15.7054 11.8357 14.619 12.1966 13.5022 12.2001C12.3837 12.1976 11.2955 11.8366 10.3972 11.1701C9.64723 11.7951 8.89923 12.6901 8.28723 13.7931C6.86423 16.3561 6.70723 18.9851 7.93723 19.6671C8.48523 19.9791 9.06323 19.7451 9.65923 19.1711C9.54765 19.7895 9.49176 20.4167 9.49223 21.0451C9.49223 23.9831 10.6322 26.3571 12.0352 26.3571C12.8812 26.3571 13.3002 25.4921 13.5012 24.1691C13.7012 25.4831 14.1212 26.3571 14.9612 26.3571C16.3582 26.3571 17.5072 23.9821 17.5072 21.0451C17.5072 20.3851 17.4452 19.7551 17.3392 19.1721C17.9392 19.7471 18.5152 19.9851 19.0652 19.6691L19.0662 19.6671ZM13.5002 11.2001C14.0676 11.2086 14.631 11.1041 15.1576 10.8928C15.6842 10.6815 16.1635 10.3676 16.5677 9.96927C16.9718 9.57097 17.2927 9.09627 17.5117 8.57279C17.7307 8.04931 17.8433 7.48751 17.8431 6.92008C17.8429 6.35265 17.7299 5.79093 17.5105 5.2676C17.2912 4.74427 16.97 4.2698 16.5656 3.87178C16.1611 3.47377 15.6816 3.16017 15.1548 2.94923C14.628 2.73829 14.0646 2.63423 13.4972 2.6431C12.3738 2.66067 11.3024 3.11936 10.5143 3.92015C9.72625 4.72093 9.28473 5.79954 9.28512 6.92308C9.28552 8.04661 9.72779 9.12492 10.5164 9.92515C11.3051 10.7254 12.3768 11.1833 13.5002 11.2001ZM22.0942 13.9141C23.008 13.8874 23.8755 13.5056 24.5124 12.8498C25.1493 12.194 25.5056 11.3158 25.5056 10.4016C25.5056 9.48741 25.1493 8.6092 24.5124 7.95339C23.8755 7.29759 23.008 6.91581 22.0942 6.8891C21.1624 6.88923 20.2688 7.25953 19.61 7.91854C18.9511 8.57754 18.5811 9.47126 18.5812 10.4031C18.5814 11.3349 18.9517 12.2286 19.6107 12.8874C20.2697 13.5462 21.1634 13.9162 22.0952 13.9161L22.0942 13.9141ZM26.3742 16.0441C25.8722 15.1361 25.2582 14.4021 24.6422 13.8891C23.9054 14.4351 23.0133 14.7311 22.0962 14.7341C21.3402 14.7341 20.6362 14.5271 20.0202 14.1841C20.5162 15.2771 20.8232 16.3841 20.8802 17.3741C20.9742 18.8901 20.5002 20.0141 19.5522 20.5391C19.3491 20.6507 19.1282 20.7265 18.8992 20.7631C18.8422 21.1551 18.8032 21.5631 18.8032 21.9931C18.8032 24.4061 19.7382 26.3551 20.8912 26.3551C21.5852 26.3551 21.9312 25.6451 22.0952 24.5591C22.2582 25.6391 22.6032 26.3551 23.2952 26.3551C24.4402 26.3551 25.3852 24.4051 25.3852 21.9951C25.3852 21.4521 25.3322 20.9351 25.2452 20.4551C25.7372 20.9281 26.2112 21.1231 26.6632 20.8631C27.6702 20.3031 27.5402 18.1451 26.3732 16.0431L26.3742 16.0441ZM4.90623 13.9141C5.60075 13.9137 6.27956 13.7074 6.85685 13.3212C7.43413 12.9351 7.88396 12.3865 8.14947 11.7447C8.41498 11.1029 8.48424 10.3968 8.3485 9.71572C8.21277 9.03459 7.87812 8.409 7.38688 7.91804C6.89564 7.42707 6.26986 7.09279 5.58865 6.95744C4.90744 6.82209 4.2014 6.89175 3.55978 7.15763C2.91817 7.4235 2.36978 7.87364 1.98397 8.45115C1.59815 9.02865 1.39223 9.70758 1.39223 10.4021C1.39249 11.334 1.7628 12.2276 2.42175 12.8866C3.08069 13.5455 3.97434 13.9158 4.90623 13.9161V13.9141ZM7.44123 20.5361C5.84923 19.6511 5.70323 17.0121 6.98523 14.1821C6.35155 14.5419 5.6359 14.7323 4.90723 14.7351C3.95123 14.7351 3.07523 14.4151 2.35723 13.8891C1.74223 14.4011 1.12923 15.1351 0.625229 16.0421C-0.541771 18.1461 -0.669771 20.3041 0.338229 20.8621C0.788229 21.1201 1.26323 20.9271 1.75223 20.4561C1.66241 20.9638 1.61724 21.4785 1.61723 21.9941C1.61723 24.4061 2.55223 26.3541 3.70523 26.3541C4.39923 26.3541 4.74523 25.6441 4.90923 24.5591C5.07423 25.6391 5.41923 26.3551 6.10923 26.3551C7.25623 26.3551 8.19923 24.4051 8.19923 21.9951C8.19923 21.5621 8.15923 21.1531 8.10223 20.7611C7.87079 20.7246 7.64746 20.6481 7.44223 20.5351L7.44123 20.5361Z" fill="#1FAECC"/>
</g>
<defs>
<clipPath id="clip0_276_1907">
<rect width="29" height="24" fill="white" transform="translate(0 3)"/>
</clipPath>
</defs>
</svg>
