<svg width="36" height="36" viewBox="0 0 36 36" fill="none" xmlns="http://www.w3.org/2000/svg">
<path d="M19.9575 33.75L18 32.625L22.5 24.75H29.25C29.8467 24.75 30.419 24.5129 30.841 24.091C31.2629 23.669 31.5 23.0967 31.5 22.5V9C31.5 8.40326 31.2629 7.83097 30.841 7.40901C30.419 6.98705 29.8467 6.75 29.25 6.75H6.75C6.15326 6.75 5.58097 6.98705 5.15901 7.40901C4.73705 7.83097 4.5 8.40326 4.5 9V22.5C4.5 23.0967 4.73705 23.669 5.15901 24.091C5.58097 24.5129 6.15326 24.75 6.75 24.75H16.875V27H6.75C5.55653 27 4.41193 26.5259 3.56802 25.682C2.72411 24.8381 2.25 23.6935 2.25 22.5V9C2.25 7.80653 2.72411 6.66193 3.56802 5.81802C4.41193 4.97411 5.55653 4.5 6.75 4.5H29.25C30.4435 4.5 31.5881 4.97411 32.432 5.81802C33.2759 6.66193 33.75 7.80653 33.75 9V22.5C33.75 23.6935 33.2759 24.8381 32.432 25.682C31.5881 26.5259 30.4435 27 29.25 27H23.805L19.9575 33.75Z" fill="black" fill-opacity="0.8"/>
<path d="M9 11.25H27V13.5H9V11.25Z" fill="black" fill-opacity="0.8"/>
<path d="M9 18H20.25V20.25H9V18Z" fill="black" fill-opacity="0.8"/>
</svg>
