<svg width="30" height="36" viewBox="0 0 30 36" fill="none" xmlns="http://www.w3.org/2000/svg">
<path d="M9.5625 14.4H11.375C11.8557 14.4 12.3167 14.2104 12.6566 13.8728C12.9965 13.5352 13.1875 13.0774 13.1875 12.6C13.1875 12.1226 12.9965 11.6648 12.6566 11.3272C12.3167 10.9896 11.8557 10.8 11.375 10.8H9.5625C9.08179 10.8 8.62078 10.9896 8.28087 11.3272C7.94096 11.6648 7.75 12.1226 7.75 12.6C7.75 13.0774 7.94096 13.5352 8.28087 13.8728C8.62078 14.2104 9.08179 14.4 9.5625 14.4ZM9.5625 18C9.08179 18 8.62078 18.1896 8.28087 18.5272C7.94096 18.8648 7.75 19.3226 7.75 19.8C7.75 20.2774 7.94096 20.7352 8.28087 21.0728C8.62078 21.4104 9.08179 21.6 9.5625 21.6H20.4375C20.9182 21.6 21.3792 21.4104 21.7191 21.0728C22.059 20.7352 22.25 20.2774 22.25 19.8C22.25 19.3226 22.059 18.8648 21.7191 18.5272C21.3792 18.1896 20.9182 18 20.4375 18H9.5625ZM29.5 12.492C29.4811 12.3266 29.4447 12.1637 29.3913 12.006V11.844C29.3041 11.6589 29.1879 11.4888 29.0469 11.34L18.1719 0.54C18.022 0.399989 17.8507 0.284546 17.6644 0.198C17.6103 0.190368 17.5554 0.190368 17.5012 0.198C17.3171 0.0931342 17.1138 0.0258196 16.9031 0H5.9375C4.49539 0 3.11234 0.568927 2.09261 1.58162C1.07288 2.59432 0.5 3.96783 0.5 5.4V30.6C0.5 32.0322 1.07288 33.4057 2.09261 34.4184C3.11234 35.4311 4.49539 36 5.9375 36H24.0625C25.5046 36 26.8877 35.4311 27.9074 34.4184C28.9271 33.4057 29.5 32.0322 29.5 30.6V12.6C29.5 12.6 29.5 12.6 29.5 12.492ZM18.625 6.138L23.3194 10.8H20.4375C19.9568 10.8 19.4958 10.6104 19.1559 10.2728C18.816 9.93523 18.625 9.47739 18.625 9V6.138ZM25.875 30.6C25.875 31.0774 25.684 31.5352 25.3441 31.8728C25.0042 32.2104 24.5432 32.4 24.0625 32.4H5.9375C5.4568 32.4 4.99578 32.2104 4.65587 31.8728C4.31596 31.5352 4.125 31.0774 4.125 30.6V5.4C4.125 4.92261 4.31596 4.46477 4.65587 4.12721C4.99578 3.78964 5.4568 3.6 5.9375 3.6H15V9C15 10.4322 15.5729 11.8057 16.5926 12.8184C17.6123 13.8311 18.9954 14.4 20.4375 14.4H25.875V30.6ZM20.4375 25.2H9.5625C9.08179 25.2 8.62078 25.3896 8.28087 25.7272C7.94096 26.0648 7.75 26.5226 7.75 27C7.75 27.4774 7.94096 27.9352 8.28087 28.2728C8.62078 28.6104 9.08179 28.8 9.5625 28.8H20.4375C20.9182 28.8 21.3792 28.6104 21.7191 28.2728C22.059 27.9352 22.25 27.4774 22.25 27C22.25 26.5226 22.059 26.0648 21.7191 25.7272C21.3792 25.3896 20.9182 25.2 20.4375 25.2Z" fill="black"/>
</svg>
