<svg width="33" height="32" viewBox="0 0 33 32" fill="none" xmlns="http://www.w3.org/2000/svg">
<g clip-path="url(#clip0_380_1700)">
<path d="M28.486 32H4.50946C3.40637 32 2.46459 31.6094 1.6841 30.8281C0.903611 30.0469 0.513367 29.1042 0.513367 28V4C0.513367 2.89583 0.903611 1.95312 1.6841 1.17188C2.46459 0.390625 3.40637 0 4.50946 0H28.486C29.5891 0 30.5309 0.390625 31.3114 1.17188C32.0919 1.95312 32.4821 2.89583 32.4821 4V28C32.4821 29.1042 32.0919 30.0469 31.3114 30.8281C30.5309 31.6094 29.5891 32 28.486 32ZM10.5036 12C10.5036 10.625 11.0552 9.61458 12.1582 8.96875C13.2613 8.32292 14.7078 8 16.4978 8C18.3085 8 19.7602 8.23958 20.8529 8.71875C21.9456 9.19792 22.4919 9.95833 22.4919 11C22.4919 11.5625 22.6896 12.0365 23.0851 12.4219C23.4805 12.8073 23.954 13 24.5056 13C25.0571 13 25.5254 12.8073 25.9104 12.4219C26.2955 12.0365 26.488 11.5625 26.488 11C26.488 9.91667 26.0874 8.88542 25.286 7.90625C24.4847 6.92708 23.4857 6.125 22.289 5.5C21.0922 4.875 19.8174 4.4375 18.4646 4.1875L18.4802 4.10938L18.4958 4C18.4958 3.45833 18.2981 2.98958 17.9026 2.59375C17.5072 2.19792 17.0337 2 16.4821 2C15.9306 2 15.4623 2.19792 15.0773 2.59375C14.6922 2.98958 14.4997 3.45833 14.4997 4V4.15625C13.4799 4.30208 12.5121 4.56771 11.5963 4.95312C10.6805 5.33854 9.83239 5.83854 9.0519 6.45312C8.27142 7.06771 7.65223 7.85417 7.19434 8.8125C6.73646 9.77083 6.50751 10.8333 6.50751 12C6.50751 13.9583 7.40247 15.4479 9.19239 16.4688C10.9823 17.4896 13.4174 18 16.4978 18H18.7143L19.9163 18.0469L21.009 18.2344L21.7739 18.5781L22.3358 19.1406L22.4919 20C22.4919 21.375 21.9404 22.3854 20.8373 23.0312C19.7342 23.6771 18.2877 24 16.4978 24C14.687 24 13.2353 23.7604 12.1426 23.2812C11.05 22.8021 10.5036 22.0417 10.5036 21C10.5036 20.4583 10.3059 19.9896 9.91044 19.5938C9.51499 19.1979 9.0415 19 8.48995 19C7.93841 19 7.47011 19.1979 7.08507 19.5938C6.70003 19.9896 6.50751 20.4583 6.50751 21C6.50751 22.0833 6.90296 23.1146 7.69385 24.0938C8.48475 25.0729 9.48377 25.875 10.6909 26.5C11.8981 27.125 13.1677 27.5625 14.4997 27.8125V28C14.4997 28.5625 14.6922 29.0365 15.0773 29.4219C15.4623 29.8073 15.9306 30 16.4821 30C17.0337 30 17.5072 29.8073 17.9026 29.4219C18.2981 29.0365 18.4958 28.5625 18.4958 28C18.4958 27.9792 18.4906 27.9479 18.4802 27.9062L18.4646 27.8438C19.5052 27.6979 20.4834 27.4375 21.3992 27.0625C22.315 26.6875 23.1631 26.1875 23.9436 25.5625C24.7241 24.9375 25.3433 24.151 25.8012 23.2031C26.2591 22.2552 26.488 21.1875 26.488 20C26.488 18.0417 25.593 16.5521 23.8031 15.5312C22.0132 14.5104 19.5781 14 16.4978 14H14.2812L13.0792 13.9531L11.9865 13.7812L11.2217 13.4375L10.6597 12.8594L10.5036 12Z" fill="black" fill-opacity="0.8"/>
</g>
<defs>
<clipPath id="clip0_380_1700">
<rect width="32" height="32" fill="white" transform="translate(0.5)"/>
</clipPath>
</defs>
</svg>
