<svg width="20" height="40" viewBox="0 0 20 40" fill="none" xmlns="http://www.w3.org/2000/svg">
<path d="M3.20836 0.0161133H14.5538C15.011 0.0161133 15.3827 0.386384 15.3827 0.844938C15.3827 0.938592 15.3672 1.02923 15.3383 1.11383L12.3534 12.4H18.6389C19.0962 12.4 19.4678 12.7703 19.4678 13.2275C19.4678 13.3963 19.4171 13.5521 19.3315 13.682L5.46031 39.5483C5.24614 39.9498 4.74596 40.1029 4.3445 39.8874C4.04976 39.7303 3.88997 39.4211 3.90944 39.1079H3.9081L5.08235 21.1221H1.36082C0.903609 21.1221 0.531998 20.7518 0.531998 20.2932C0.531998 20.2425 0.537033 20.1932 0.54509 20.1452L2.3857 0.767138C2.42598 0.338456 2.78584 0.0188801 3.20781 0.0188801V0.0161946L3.20836 0.0161133ZM13.4796 1.67213H3.95774L2.26786 19.4655H5.96318V19.4668L6.01521 19.4682C6.47108 19.4967 6.81651 19.8891 6.78797 20.345L5.80477 35.4133L17.2585 14.0544H11.2798V14.0517C11.2097 14.0517 11.1395 14.0426 11.0694 14.0245C10.6276 13.909 10.3641 13.4568 10.4796 13.0154L13.4786 1.6708L13.4796 1.67213Z" fill="black"/>
</svg>
