<svg width="36" height="36" viewBox="0 0 36 36" fill="none" xmlns="http://www.w3.org/2000/svg">
<path d="M32.625 4.5H13.5C12.8813 4.5 12.375 5.04141 12.375 5.66016V7.875H5.20312C3.57891 7.875 2.25 9.20391 2.25 10.8281V25.418C2.25 28.7648 4.99219 31.5 8.29688 31.5H27.9633C31.1344 31.5 33.75 28.9055 33.75 25.7344V5.625C33.75 5.00625 33.2437 4.5 32.625 4.5ZM12.375 10.125V23.625H9.42188V11.475C9.42188 10.9969 9.36562 10.5398 9.18984 10.125H12.375ZM11.1797 28.0828C10.4062 28.8281 9.36562 29.25 8.33203 29.25C7.3125 29.25 6.35625 28.8492 5.625 28.125C4.90078 27.4008 4.5 26.4375 4.5 25.418V11.475C4.5 10.7297 5.09063 10.125 5.83594 10.125C6.58125 10.125 7.17188 10.7297 7.17188 11.475V24.75C7.17188 25.3687 7.67812 25.875 8.29688 25.875H12.3398C12.2344 26.6906 11.8336 27.4641 11.1797 28.0828ZM31.5 25.7344C31.5 26.6695 31.1203 27.5484 30.4523 28.2164C29.7844 28.8844 28.8914 29.25 27.9633 29.25H13.1695C14.0695 28.2023 14.625 26.8664 14.625 25.418V6.82031H31.5V25.7344Z" fill="black" fill-opacity="0.8"/>
<path d="M17.4375 9.5625H28.6875V13.5H17.4375V9.5625Z" fill="black" fill-opacity="0.8"/>
<path d="M17.4375 15.75H28.6875V18H17.4375V15.75Z" fill="black" fill-opacity="0.8"/>
<path d="M17.4375 20.25H28.6875V22.5H17.4375V20.25Z" fill="black" fill-opacity="0.8"/>
<path d="M28.6875 24.75H17.4375C17.4375 24.75 17.4375 27 16.875 27H27.3305C28.6875 27 28.6875 25.5234 28.6875 24.75Z" fill="black" fill-opacity="0.8"/>
</svg>
