<svg width="36" height="36" viewBox="0 0 36 36" fill="none" xmlns="http://www.w3.org/2000/svg">
<path d="M35.0715 22.7425C34.5749 21.7979 33.7207 21.0844 32.6941 20.7568C31.6675 20.4292 30.5513 20.5139 29.5876 20.9925L23.5713 23.915C23.5166 22.7915 23.025 21.7319 22.1988 20.9563C21.3726 20.1807 20.2752 19.7487 19.1345 19.75H11.1483C10.9233 19.7467 10.6999 19.7884 10.4917 19.8725L1.61807 23.3725C1.28786 23.5022 1.00474 23.7266 0.805395 24.0168C0.606048 24.307 0.499657 24.6495 0.500001 25V33.75C0.500001 34.2141 0.686979 34.6592 1.0198 34.9874C1.35263 35.3156 1.80403 35.5 2.27472 35.5H20.0219C20.3404 35.4999 20.653 35.4153 20.927 35.255L33.9534 27.66C34.0804 27.5925 34.1945 27.5036 34.2906 27.3975C34.901 26.8013 35.3051 26.0305 35.4453 25.1947C35.5855 24.3588 35.4547 23.5007 35.0715 22.7425ZM31.877 24.8075L19.5427 32H4.04943V26.19L11.4855 23.25H19.1345C19.3699 23.25 19.5956 23.3422 19.762 23.5063C19.9284 23.6704 20.0219 23.8929 20.0219 24.125C20.0219 24.3571 19.9284 24.5796 19.762 24.7437C19.5956 24.9078 19.3699 25 19.1345 25H14.6977C14.227 25 13.7756 25.1844 13.4428 25.5126C13.11 25.8407 12.923 26.2859 12.923 26.75C12.923 27.2141 13.11 27.6593 13.4428 27.9874C13.7756 28.3156 14.227 28.5 14.6977 28.5H21.7966C22.0744 28.4984 22.348 28.4324 22.5952 28.3075L31.1848 24.09C31.2462 24.0572 31.3137 24.037 31.3833 24.0307C31.4528 24.0244 31.5229 24.0322 31.5893 24.0534C31.6557 24.0747 31.7171 24.1091 31.7696 24.1545C31.8221 24.1999 31.8646 24.2554 31.8947 24.3175C31.931 24.3948 31.9483 24.4795 31.9452 24.5646C31.9421 24.6497 31.9187 24.7329 31.877 24.8075ZM11.1483 11H12.3196C12.4392 11.3944 12.5998 11.7756 12.7988 12.1375L11.9647 12.96C11.7983 13.1227 11.6663 13.3162 11.5762 13.5295C11.4861 13.7427 11.4397 13.9715 11.4397 14.2025C11.4397 14.4335 11.4861 14.6623 11.5762 14.8755C11.6663 15.0888 11.7983 15.2823 11.9647 15.445C12.1296 15.609 12.3259 15.7392 12.5422 15.8281C12.7585 15.9169 12.9904 15.9626 13.2247 15.9626C13.459 15.9626 13.691 15.9169 13.9072 15.8281C14.1235 15.7392 14.3198 15.609 14.4848 15.445L15.3189 14.6225C15.6859 14.8187 16.0725 14.977 16.4724 15.095V16.25C16.4724 16.7141 16.6594 17.1592 16.9922 17.4874C17.3251 17.8156 17.7765 18 18.2472 18C18.7178 18 19.1692 17.8156 19.5021 17.4874C19.8349 17.1592 20.0219 16.7141 20.0219 16.25V15.095C20.4219 14.977 20.8084 14.8187 21.1754 14.6225L22.0096 15.445C22.1745 15.609 22.3708 15.7392 22.5871 15.8281C22.8034 15.9169 23.0353 15.9626 23.2696 15.9626C23.5039 15.9626 23.7359 15.9169 23.9521 15.8281C24.1684 15.7392 24.3647 15.609 24.5297 15.445C24.696 15.2823 24.828 15.0888 24.9181 14.8755C25.0082 14.6623 25.0546 14.4335 25.0546 14.2025C25.0546 13.9715 25.0082 13.7427 24.9181 13.5295C24.828 13.3162 24.696 13.1227 24.5297 12.96L23.6955 12.1375C23.8945 11.7756 24.0551 11.3944 24.1747 11H25.346C25.8167 11 26.2681 10.8156 26.6009 10.4874C26.9338 10.1592 27.1207 9.71413 27.1207 9.25C27.1207 8.78587 26.9338 8.34075 26.6009 8.01256C26.2681 7.68437 25.8167 7.5 25.346 7.5H24.1747C24.0551 7.10559 23.8945 6.72441 23.6955 6.3625L24.5297 5.54C24.6951 5.37683 24.8264 5.18312 24.9159 4.96994C25.0055 4.75675 25.0516 4.52825 25.0516 4.2975C25.0516 4.06675 25.0055 3.83825 24.9159 3.62506C24.8264 3.41188 24.6951 3.21817 24.5297 3.055C24.3642 2.89183 24.1677 2.7624 23.9515 2.6741C23.7353 2.58579 23.5036 2.54034 23.2696 2.54034C22.797 2.54034 22.3437 2.72547 22.0096 3.055L21.1754 3.8775C20.8084 3.6813 20.4219 3.52296 20.0219 3.405V2.25C20.0219 1.78587 19.8349 1.34075 19.5021 1.01256C19.1692 0.684374 18.7178 0.5 18.2472 0.5C17.7765 0.5 17.3251 0.684374 16.9922 1.01256C16.6594 1.34075 16.4724 1.78587 16.4724 2.25V3.405C16.0725 3.52296 15.6859 3.6813 15.3189 3.8775L14.4848 3.055C14.3193 2.89183 14.1228 2.7624 13.9066 2.6741C13.6904 2.58579 13.4587 2.54034 13.2247 2.54034C12.9907 2.54034 12.759 2.58579 12.5428 2.6741C12.3266 2.7624 12.1301 2.89183 11.9647 3.055C11.6305 3.38453 11.4427 3.83147 11.4427 4.2975C11.4427 4.76353 11.6305 5.21047 11.9647 5.54L12.7988 6.3625C12.5998 6.72441 12.4392 7.10559 12.3196 7.5H11.1483C10.6776 7.5 10.2262 7.68437 9.89338 8.01256C9.56056 8.34075 9.37358 8.78587 9.37358 9.25C9.37358 9.71413 9.56056 10.1592 9.89338 10.4874C10.2262 10.8156 10.6776 11 11.1483 11ZM18.2472 6.625C18.7737 6.625 19.2884 6.77895 19.7261 7.06739C20.1639 7.35583 20.5051 7.7658 20.7066 8.24546C20.9081 8.72511 20.9608 9.25291 20.8581 9.76211C20.7554 10.2713 20.5018 10.739 20.1295 11.1062C19.7572 11.4733 19.2829 11.7233 18.7665 11.8246C18.2501 11.9258 17.7149 11.8739 17.2284 11.6752C16.742 11.4765 16.3262 11.1401 16.0337 10.7084C15.7412 10.2767 15.5851 9.76918 15.5851 9.25C15.5851 8.55381 15.8656 7.88613 16.3648 7.39384C16.864 6.90156 17.5411 6.625 18.2472 6.625Z" fill="black"/>
</svg>
