<svg width="59" height="50" viewBox="0 0 59 50" fill="none" xmlns="http://www.w3.org/2000/svg">
<g filter="url(#filter0_d_104_2453)">
<rect x="9.32292" y="9.32292" width="40.3542" height="31.3542" rx="14.5521" fill="white" stroke="#D9D9D9" stroke-width="2.64583"/>
<path fill-rule="evenodd" clip-rule="evenodd" d="M21.0539 31.0326H18.4489L16.4955 22.4392C16.4028 22.0439 16.2059 21.6945 15.9163 21.5298C15.1937 21.1159 14.3973 20.7865 13.5286 20.6203V20.2895H17.725C18.3041 20.2895 18.7385 20.7865 18.8109 21.3636L19.8244 27.5623L22.4281 20.2895H24.9607L21.0539 31.0326ZM26.4086 31.0326H23.9485L25.9743 20.2895H28.4344L26.4086 31.0326ZM31.6173 23.2657C31.6897 22.6871 32.1241 22.3562 32.6308 22.3562C33.4272 22.2731 34.2947 22.4393 35.0186 22.8518L35.453 20.5387C34.729 20.2079 33.9327 20.0417 33.21 20.0417C30.8222 20.0417 29.0847 21.5298 29.0847 23.5951C29.0847 25.1662 30.3154 25.9912 31.1842 26.4882C32.1241 26.9837 32.486 27.3146 32.4136 27.8101C32.4136 28.5534 31.6897 28.8843 30.967 28.8843C30.0983 28.8843 29.2295 28.6365 28.4344 28.2226L28.0001 30.5371C28.8688 30.9495 29.8087 31.1157 30.6774 31.1157C33.3548 31.1973 35.0186 29.7107 35.0186 27.4793C35.0186 24.6693 31.6173 24.5045 31.6173 23.2657ZM43.6286 31.0326L41.6752 20.2895H39.577C39.1426 20.2895 38.7082 20.6203 38.5634 21.1159L34.9462 31.0326H37.4788L37.9843 29.4628H41.096L41.3856 31.0326H43.6286ZM39.939 23.1825L40.6617 27.2314H38.6359L39.939 23.1825Z" fill="#172B85"/>
</g>
<defs>
<filter id="filter0_d_104_2453" x="0.440945" y="0.440945" width="58.1181" height="49.1181" filterUnits="userSpaceOnUse" color-interpolation-filters="sRGB">
<feFlood flood-opacity="0" result="BackgroundImageFix"/>
<feColorMatrix in="SourceAlpha" type="matrix" values="0 0 0 0 0 0 0 0 0 0 0 0 0 0 0 0 0 0 127 0" result="hardAlpha"/>
<feOffset/>
<feGaussianBlur stdDeviation="3.77953"/>
<feComposite in2="hardAlpha" operator="out"/>
<feColorMatrix type="matrix" values="0 0 0 0 0 0 0 0 0 0 0 0 0 0 0 0 0 0 0.07 0"/>
<feBlend mode="normal" in2="BackgroundImageFix" result="effect1_dropShadow_104_2453"/>
<feBlend mode="normal" in="SourceGraphic" in2="effect1_dropShadow_104_2453" result="shape"/>
</filter>
</defs>
</svg>
