<svg width="81" height="80" viewBox="0 0 81 80" fill="none" xmlns="http://www.w3.org/2000/svg">
<path d="M80.5 40C80.5 50.6087 76.2857 60.7828 68.7843 68.2843C61.2828 75.7857 51.1087 80 40.5 80C29.8913 80 19.7172 75.7857 12.2157 68.2843C4.71427 60.7828 0.5 50.6087 0.5 40C0.5 29.3913 4.71427 19.2172 12.2157 11.7157C19.7172 4.21427 29.8913 0 40.5 0C51.1087 0 61.2828 4.21427 68.7843 11.7157C76.2857 19.2172 80.5 29.3913 80.5 40ZM60.65 24.85C60.2928 24.4941 59.8676 24.2139 59.3997 24.0261C58.9317 23.8383 58.4307 23.7468 57.9266 23.7571C57.4225 23.7673 56.9257 23.8792 56.4658 24.0858C56.0059 24.2925 55.5924 24.5898 55.25 24.96L37.885 47.085L27.42 36.615C26.7091 35.9526 25.7689 35.592 24.7974 35.6091C23.8259 35.6263 22.899 36.0198 22.2119 36.7069C21.5248 37.394 21.1313 38.3209 21.1141 39.2924C21.097 40.2639 21.4576 41.2041 22.12 41.915L35.35 55.15C35.7064 55.5058 36.1308 55.7861 36.5979 55.9743C37.065 56.1624 37.5652 56.2546 38.0687 56.2453C38.5722 56.236 39.0687 56.1253 39.5285 55.92C39.9883 55.7146 40.402 55.4187 40.745 55.05L60.705 30.1C61.3855 29.3925 61.7614 28.4464 61.752 27.4648C61.7427 26.4832 61.3488 25.5444 60.655 24.85H60.65Z" fill="url(#paint0_linear_632_5027)"/>
<defs>
<linearGradient id="paint0_linear_632_5027" x1="-14.9918" y1="39.7949" x2="101.566" y2="39.7949" gradientUnits="userSpaceOnUse">
<stop stop-color="#182167"/>
<stop offset="1" stop-color="#172167" stop-opacity="0.3"/>
</linearGradient>
</defs>
</svg>
