<svg width="24" height="25" viewBox="0 0 24 25" fill="none" xmlns="http://www.w3.org/2000/svg">
<g clip-path="url(#clip0_226_884)">
<rect width="24" height="24" transform="translate(0 0.706055)" fill="#0C1660"/>
<path d="M23.5 12.7759C23.5 6.42466 18.3513 1.27593 12 1.27593C5.64872 1.27593 0.5 6.42466 0.5 12.7759C0.5 18.5159 4.70538 23.2735 10.2031 24.1362V16.1002H7.2832V12.7759H10.2031V10.2423C10.2031 7.36015 11.92 5.76812 14.5468 5.76812C15.805 5.76812 17.1211 5.99273 17.1211 5.99273V8.82281H15.671C14.2424 8.82281 13.7969 9.70928 13.7969 10.6187V12.7759H16.9863L16.4765 16.1002H13.7969V24.1362C19.2946 23.2735 23.5 18.5159 23.5 12.7759Z" fill="white"/>
</g>
<defs>
<clipPath id="clip0_226_884">
<rect width="24" height="24" fill="white" transform="translate(0 0.706055)"/>
</clipPath>
</defs>
</svg>
