<svg width="24" height="25" viewBox="0 0 24 25" fill="none" xmlns="http://www.w3.org/2000/svg">
<rect width="24" height="24" transform="translate(0 0.706055)" fill="white"/>
<path fill-rule="evenodd" clip-rule="evenodd" d="M23.04 12.9674C23.04 12.1519 22.9668 11.3678 22.8309 10.6151H12V15.0635H18.1891C17.9225 16.501 17.1123 17.719 15.8943 18.5344V21.4199H19.6109C21.7855 19.4178 23.04 16.4697 23.04 12.9674Z" fill="#4285F4"/>
<path fill-rule="evenodd" clip-rule="evenodd" d="M12 24.2059C15.105 24.2059 17.7081 23.1761 19.6109 21.4197L15.8943 18.5343C14.8645 19.2243 13.5472 19.632 12 19.632C9.00474 19.632 6.46951 17.6091 5.56519 14.8909H1.72314V17.8704C3.61542 21.6288 7.50451 24.2059 12 24.2059Z" fill="#34A853"/>
<path fill-rule="evenodd" clip-rule="evenodd" d="M5.56523 14.8912C5.33523 14.2012 5.20455 13.4641 5.20455 12.7062C5.20455 11.9482 5.33523 11.2112 5.56523 10.5212V7.54163H1.72318C0.944318 9.09413 0.5 10.8505 0.5 12.7062C0.5 14.5619 0.944318 16.3182 1.72318 17.8707L5.56523 14.8912Z" fill="#FBBC05"/>
<path fill-rule="evenodd" clip-rule="evenodd" d="M12 5.77992C13.6884 5.77992 15.2043 6.36015 16.3961 7.49969L19.6945 4.20128C17.7029 2.3456 15.0997 1.20605 12 1.20605C7.50451 1.20605 3.61542 3.7831 1.72314 7.54151L5.56519 10.5211C6.46951 7.80287 9.00474 5.77992 12 5.77992Z" fill="#EA4335"/>
</svg>
