<svg width="48" height="48" viewBox="0 0 48 48" fill="none" xmlns="http://www.w3.org/2000/svg">
<g clip-path="url(#clip0_130_3094)">
<path fill-rule="evenodd" clip-rule="evenodd" d="M21 24C21 24.4142 20.6642 24.75 20.25 24.75H5.56031L11.0306 30.2194C11.3237 30.5124 11.3237 30.9876 11.0306 31.2806C10.7376 31.5737 10.2624 31.5737 9.96937 31.2806L3.21937 24.5306C3.07854 24.3899 2.99941 24.1991 2.99941 24C2.99941 23.8009 3.07854 23.6101 3.21937 23.4694L9.96937 16.7194C10.2624 16.4263 10.7376 16.4263 11.0306 16.7194C11.3237 17.0124 11.3237 17.4876 11.0306 17.7806L5.56031 23.25H20.25C20.6642 23.25 21 23.5858 21 24Z" fill="#0D171C"/>
</g>
<defs>
<clipPath id="clip0_130_3094">
<rect width="24" height="24" fill="white" transform="translate(0 12)"/>
</clipPath>
</defs>
</svg>
