<svg width="100" height="100" viewBox="0 0 100 100" fill="none" xmlns="http://www.w3.org/2000/svg">
<rect width="100" height="100" fill="url(#paint0_linear_176_1479)"/>
<path d="M90.3055 77.3056C87.6269 74.9176 85.2818 72.1801 83.3333 69.1667C81.2061 65.0071 79.9312 60.4645 79.5833 55.8056V42.0833C79.6017 34.7656 76.9472 27.693 72.1187 22.1944C67.2901 16.6958 60.6198 13.1496 53.3611 12.2222V8.63889C53.3611 7.65538 52.9704 6.71215 52.2749 6.0167C51.5795 5.32126 50.6362 4.93056 49.6527 4.93056C48.6692 4.93056 47.726 5.32126 47.0305 6.0167C46.3351 6.71215 45.9444 7.65538 45.9444 8.63889V12.2778C38.7507 13.272 32.161 16.8396 27.3959 22.3197C22.6307 27.7999 20.0131 34.8212 20.0277 42.0833V55.8056C19.6798 60.4645 18.4049 65.0071 16.2777 69.1667C14.3635 72.1732 12.056 74.9104 9.41661 77.3056C9.12031 77.5659 8.88284 77.8863 8.71999 78.2455C8.55715 78.6047 8.47267 78.9945 8.47217 79.3889V83.1667C8.47217 83.9034 8.76483 84.6099 9.28576 85.1309C9.80669 85.6518 10.5132 85.9445 11.2499 85.9445H88.4722C89.2089 85.9445 89.9154 85.6518 90.4364 85.1309C90.9573 84.6099 91.2499 83.9034 91.2499 83.1667V79.3889C91.2495 78.9945 91.165 78.6047 91.0021 78.2455C90.8393 77.8863 90.6018 77.5659 90.3055 77.3056ZM14.2499 80.3889C16.8344 77.8922 19.1099 75.0945 21.0277 72.0556C23.7072 67.0319 25.2706 61.489 25.6111 55.8056V42.0833C25.5009 38.8279 26.047 35.5835 27.2167 32.5435C28.3865 29.5035 30.1561 26.73 32.4201 24.3881C34.6841 22.0462 37.3962 20.1838 40.3949 18.9119C43.3936 17.6399 46.6176 16.9845 49.8749 16.9845C53.1323 16.9845 56.3563 17.6399 59.355 18.9119C62.3537 20.1838 65.0658 22.0462 67.3298 24.3881C69.5938 26.73 71.3634 29.5035 72.5332 32.5435C73.7029 35.5835 74.249 38.8279 74.1388 42.0833V55.8056C74.4793 61.489 76.0427 67.0319 78.7222 72.0556C80.64 75.0945 82.9155 77.8922 85.5 80.3889H14.2499Z" fill="#0C1660"/>
<path d="M50 95.2222C51.7498 95.1819 53.429 94.5241 54.7405 93.365C56.0521 92.206 56.9115 90.6205 57.1667 88.8889H42.5555C42.818 90.6675 43.7176 92.2903 45.0869 93.4553C46.4563 94.6203 48.2023 95.2482 50 95.2222Z" fill="#172B85"/>
<defs>
<linearGradient id="paint0_linear_176_1479" x1="50" y1="0" x2="50" y2="100" gradientUnits="userSpaceOnUse">
<stop stop-color="white"/>
<stop offset="1" stop-color="white" stop-opacity="0"/>
</linearGradient>
</defs>
</svg>
