<svg width="101" height="101" viewBox="0 0 101 101" fill="none" xmlns="http://www.w3.org/2000/svg">
<path d="M7.89062 48.0343C7.7052 47.1633 7.13707 46.1977 6.11523 46.2589C6.23162 47.1268 6.92501 48.0678 7.89062 48.0343Z" stroke="white" stroke-width="0.3"/>
<path d="M28.7314 14.3525C22.5097 13.7509 16.6479 18.572 16.2051 24.8076C15.7622 31.0432 20.392 36.7244 26.6927 37.3014C32.9934 37.8784 38.8009 33.3127 39.1865 26.8789C39.5722 20.4451 35.0725 14.966 28.7314 14.3525ZM35.1426 18.6924C32.3641 15.8014 27.4877 15.1229 23.8965 16.5205C20.3042 17.9171 18.0939 21.2134 17.3887 24.8076C17.4863 21.029 20.2589 17.6192 23.8669 16.195C27.4739 14.7707 32.6215 15.4434 35.1426 18.6924ZM28.3369 35.8545C27.8931 35.3593 28.763 33.9173 27.8358 33.7911C26.9097 33.6648 27.3427 35.3031 27.2519 35.8545C20.2342 35.5596 16.1074 27.234 19.8318 21.4314C23.5562 15.6288 32.1372 15.6081 35.907 21.3801C39.6767 27.1511 35.3211 35.7144 28.3369 35.8545Z" stroke="black" stroke-width="0.3"/>
<path d="M35.1426 18.6925C32.6215 15.4435 27.4739 14.7708 23.8669 16.1951C20.2589 17.6193 17.4863 21.0291 17.3887 24.8077C18.0939 21.2135 20.3043 17.9172 23.8965 16.5206C27.4877 15.1229 32.3641 15.8015 35.1426 18.6925Z" stroke="white" stroke-width="0.3"/>
<path d="M28.3369 35.8544C35.3211 35.7143 39.6767 27.151 35.907 21.38C32.1372 15.6081 23.5562 15.6288 19.8318 21.4313C16.1074 27.2339 20.2342 35.5595 27.2519 35.8544C27.3427 35.3031 26.9097 33.6648 27.8359 33.791C28.763 33.9173 27.8931 35.3593 28.3369 35.8544ZM27.9424 17.706C28.5707 17.9111 28.3714 20.1491 27.6218 19.8956C26.8732 19.6411 27.0576 17.418 27.9424 17.706ZM28.3369 25.3007C28.8123 24.7977 29.4238 24.4179 29.8411 23.8459C30.2583 23.2728 31.0316 22.9611 31.3699 22.3171C31.7092 21.673 33.0861 21.5112 32.9657 22.3486C32.8444 23.187 31.9538 23.3103 31.5178 23.9445C31.0819 24.5787 30.563 24.8785 29.989 25.4733C29.4159 26.069 29.1723 26.2456 28.4651 26.9084C27.7579 27.5712 27.0606 26.9133 27.1533 25.8925C27.246 24.8716 27.3299 23.9524 27.1533 22.9335C26.9768 21.9146 28.0134 21.1285 28.3339 22.246C28.6555 23.3626 28.0982 24.2078 28.3369 25.3007ZM19.0654 25.9911C19.5971 25.6597 21.3932 25.9033 20.9089 26.651C20.4256 27.3996 18.6827 26.8502 19.0654 25.9911ZM36.1289 25.8925C37.2168 26.0986 36.3479 27.3444 35.2412 26.8788C34.1345 26.4133 35.043 25.6864 36.1289 25.8925Z" stroke="white" stroke-width="0.3"/>
<path d="M27.9423 17.7061C27.0576 17.4181 26.8732 19.6413 27.6218 19.8958C28.3714 20.1492 28.5706 17.9113 27.9423 17.7061Z" stroke="black" stroke-width="0.3"/>
<path d="M28.3369 25.3008C28.0982 24.208 28.6554 23.3627 28.3339 22.2462C28.0133 21.1287 26.9767 21.9148 27.1533 22.9337C27.3298 23.9525 27.246 24.8718 27.1533 25.8926C27.0606 26.9135 27.7579 27.5714 28.4651 26.9086C29.1723 26.2457 29.4159 26.0692 29.989 25.4735C30.563 24.8787 31.0818 24.5789 31.5178 23.9446C31.9537 23.3104 32.8444 23.1871 32.9657 22.3488C33.086 21.5114 31.7091 21.6731 31.3698 22.3172C31.0315 22.9613 30.2582 23.273 29.841 23.846C29.4238 24.4181 28.8123 24.7978 28.3369 25.3008Z" stroke="black" stroke-width="0.3"/>
<path d="M19.0654 25.9912C18.6827 26.8503 20.4256 27.3997 20.9089 26.651C21.3932 25.9034 19.5971 25.6598 19.0654 25.9912Z" stroke="black" stroke-width="0.3"/>
<path d="M36.1288 25.8927C35.0429 25.6865 34.1345 26.4134 35.2411 26.879C36.3478 27.3445 37.2168 26.0988 36.1288 25.8927Z" stroke="black" stroke-width="0.3"/>
<path d="M28.7314 14.3525C22.5097 13.7509 16.6479 18.572 16.2051 24.8076C15.7622 31.0432 20.392 36.7244 26.6927 37.3014C32.9934 37.8784 38.8009 33.3127 39.1865 26.8789C39.5722 20.4451 35.0725 14.966 28.7314 14.3525ZM35.1426 18.6924C32.3641 15.8014 27.4877 15.1229 23.8965 16.5205C20.3042 17.9171 18.0939 21.2134 17.3887 24.8076C17.4863 21.029 20.2589 17.6192 23.8669 16.195C27.4739 14.7707 32.6215 15.4434 35.1426 18.6924ZM28.3369 35.8545C27.8931 35.3593 28.763 33.9173 27.8358 33.7911C26.9097 33.6648 27.3427 35.3031 27.2519 35.8545C20.2342 35.5596 16.1074 27.234 19.8318 21.4314C23.5562 15.6288 32.1372 15.6081 35.907 21.3801C39.6767 27.1511 35.3211 35.7144 28.3369 35.8545Z" fill="black"/>
<path d="M35.1426 18.6925C32.6215 15.4435 27.4739 14.7708 23.8669 16.1951C20.2589 17.6193 17.4863 21.0291 17.3887 24.8077C18.0939 21.2135 20.3043 17.9172 23.8965 16.5206C27.4877 15.1229 32.3641 15.8015 35.1426 18.6925Z" fill="white" stroke="black"/>
<path d="M27.9423 17.7061C27.0576 17.4181 26.8732 19.6413 27.6218 19.8958C28.3714 20.1492 28.5706 17.9113 27.9423 17.7061Z" fill="black" stroke="black"/>
<path d="M28.3369 25.3008C28.0982 24.208 28.6554 23.3627 28.3339 22.2462C28.0133 21.1287 26.9767 21.9148 27.1533 22.9337C27.3298 23.9525 27.246 24.8718 27.1533 25.8926C27.0606 26.9135 27.7579 27.5714 28.4651 26.9086C29.1723 26.2457 29.4159 26.0692 29.989 25.4735C30.563 24.8787 31.0818 24.5789 31.5178 23.9446C31.9537 23.3104 32.8444 23.1871 32.9657 22.3488C33.086 21.5114 31.7091 21.6731 31.3698 22.3172C31.0315 22.9613 30.2582 23.273 29.841 23.846C29.4238 24.4181 28.8123 24.7978 28.3369 25.3008Z" fill="black" stroke="black"/>
<path d="M19.0654 25.9912C18.6827 26.8503 20.4256 27.3997 20.9089 26.651C21.3932 25.9034 19.5971 25.6598 19.0654 25.9912Z" fill="black" stroke="black"/>
<path d="M36.1288 25.8927C35.0429 25.6865 34.1345 26.4134 35.2411 26.879C36.3478 27.3445 37.2168 26.0988 36.1288 25.8927Z" fill="black" stroke="black"/>
<path d="M91.5313 20.1211C90.7936 19.8755 89.9335 20.3025 89.1641 20.1211C88.3948 19.9396 87.585 20.3597 86.7969 20.1211C86.0089 19.8824 85.5492 20.9348 86.3363 21.1735C87.1234 21.4122 87.8977 21.063 88.671 21.206C89.4443 21.349 90.2974 21.0176 91.0382 21.206C91.7779 21.3944 92.2326 20.3548 91.5313 20.1211Z" stroke="black" stroke-width="0.3"/>
<path d="M91.4326 23.1787C90.612 22.9055 89.4393 23.2724 88.5723 23.1787C87.7053 23.085 86.6785 23.1393 85.8106 23.1787C84.9426 23.2182 83.7738 22.9953 82.9502 23.1787C82.1266 23.3622 80.9953 22.5968 80.4114 23.4016C79.8265 24.2065 81.4096 24.3929 82.1612 24.2637C82.9127 24.1345 84.0865 24.2696 84.9229 24.2637C85.7593 24.2578 86.935 24.1621 87.7832 24.2637C88.6315 24.3653 89.746 23.9727 90.5449 24.2637C91.3439 24.5547 92.4466 23.517 91.4326 23.1787Z" stroke="black" stroke-width="0.3"/>
<path d="M83.1474 27.3212C81.445 27.1565 81.5782 28.5768 83.0488 28.5048C84.5194 28.4328 85.3479 28.4999 86.7969 28.5048C88.2458 28.5097 88.9855 28.419 90.5449 28.5048C92.1043 28.5906 91.9297 27.121 90.4463 27.3212C88.9628 27.5214 88.0436 27.1861 86.6982 27.3212C85.3529 27.4563 84.405 27.4425 83.1474 27.3212Z" stroke="black" stroke-width="0.3"/>
<path d="M91.5313 20.1211C90.7936 19.8755 89.9335 20.3025 89.1641 20.1211C88.3948 19.9396 87.585 20.3597 86.7969 20.1211C86.0089 19.8824 85.5492 20.9348 86.3363 21.1735C87.1234 21.4122 87.8977 21.063 88.671 21.206C89.4443 21.349 90.2974 21.0176 91.0382 21.206C91.7779 21.3944 92.2326 20.3548 91.5313 20.1211Z" fill="black"/>
<path d="M91.4326 23.1787C90.612 22.9055 89.4393 23.2724 88.5723 23.1787C87.7053 23.085 86.6785 23.1393 85.8106 23.1787C84.9426 23.2182 83.7738 22.9953 82.9502 23.1787C82.1266 23.3622 80.9953 22.5968 80.4114 23.4016C79.8265 24.2065 81.4096 24.3929 82.1612 24.2637C82.9127 24.1345 84.0865 24.2696 84.9229 24.2637C85.7593 24.2578 86.935 24.1621 87.7832 24.2637C88.6315 24.3653 89.746 23.9727 90.5449 24.2637C91.3439 24.5547 92.4466 23.517 91.4326 23.1787Z" fill="black"/>
<path d="M83.1474 27.3212C81.445 27.1565 81.5782 28.5768 83.0488 28.5048C84.5194 28.4328 85.3479 28.4999 86.7969 28.5048C88.2458 28.5097 88.9855 28.419 90.5449 28.5048C92.1043 28.5906 91.9297 27.121 90.4463 27.3212C88.9628 27.5214 88.0436 27.1861 86.6982 27.3212C85.3529 27.4563 84.405 27.4425 83.1474 27.3212Z" fill="black"/>
<path d="M73.0442 25.3852C73.2247 24.3397 72.7828 23.7173 72.2798 22.8947C71.7768 22.0731 70.8082 22.1175 70.0882 21.8314C69.3672 21.5464 69.2824 20.6015 68.4312 20.2336C67.58 19.8657 66.5709 20.0432 65.7671 20.278C64.9632 20.5127 63.7737 19.9377 62.9916 20.3628C62.2084 20.7869 61.6206 21.1528 61.1836 21.8097C60.7477 22.4676 60.1164 23.592 61.011 23.807C61.9056 24.0211 61.8159 22.2585 62.4658 22.007C63.1168 21.7565 64.0203 20.6528 64.7837 21.4152C65.5481 22.1766 66.1281 21.2673 66.8629 21.0779C67.5977 20.8885 68.6353 21.3896 68.806 22.3256C68.9756 23.2606 70.1434 22.9282 70.9483 23.2399C71.7541 23.5506 71.8113 24.6947 71.9593 25.3852C70.9266 25.3812 69.7193 25.3901 68.7044 25.3852C67.6894 25.3802 66.3993 25.395 65.4495 25.3852C64.4987 25.3753 62.9906 25.4049 62.1946 25.3852C61.3986 25.3654 59.6341 25.1702 59.8965 26.1052C60.1588 27.0412 61.8593 26.4563 62.6878 26.5688C63.5163 26.6812 65.0056 26.5411 65.9427 26.5688C66.8797 26.5964 68.1333 26.6161 69.0989 26.5688C70.0645 26.5214 71.4296 26.7138 72.3538 26.5688C73.278 26.4238 74.6924 27.0708 75.2358 26.1959C75.7793 25.3211 73.5749 25.2185 73.0442 25.3852Z" fill="black"/>
<path d="M88.8099 82.8581C88.079 82.5386 87.0296 83.0692 86.2455 82.8581C85.4613 82.6471 84.4701 83.1008 83.681 82.8581C82.8919 82.6155 82.2341 83.5446 82.9837 83.95C83.7333 84.3564 84.6752 83.8376 85.4564 84.0417C86.2376 84.2459 87.2851 83.7715 88.0209 84.0417C88.7567 84.312 89.5733 83.1915 88.8099 82.8581Z" fill="black"/>
<path d="M88.579 74.6462C87.783 74.4045 86.8401 74.804 86.0145 74.6462C85.1889 74.4884 84.2865 74.8247 83.45 74.6462C82.6136 74.4677 82.3148 75.8249 83.1542 75.9284C83.9935 76.032 84.8842 75.8594 85.7186 75.9284C86.553 75.9975 87.4644 75.8475 88.2821 75.9274C89.0997 76.0073 89.3009 74.8652 88.579 74.6462Z" fill="black"/>
<path d="M88.6849 66.5674C87.9195 66.2952 86.9184 66.7528 86.1205 66.5674C85.3225 66.3819 84.349 66.7903 83.556 66.5674C82.763 66.3445 82.256 67.5577 83.0628 67.751C83.8697 67.9443 84.8106 67.605 85.6273 67.751C86.444 67.8969 87.3908 67.5537 88.1917 67.751C88.9926 67.9472 89.4158 66.8268 88.6849 66.5674Z" fill="black"/>
<path d="M92.828 60.2587C92.9 59.1767 93.4001 58.5928 94.6034 58.7792C95.8067 58.9656 95.3451 57.636 95.3925 56.8065C95.4398 55.977 95.3718 54.7629 95.3925 53.8475C95.4142 52.9322 95.3826 51.8433 95.3925 50.8886C95.4023 49.9338 95.3885 48.9011 95.3925 47.9296C95.3964 46.958 95.3905 45.95 95.3925 44.9706C95.3945 43.9912 95.3915 42.995 95.3925 42.0116C95.3935 41.0282 95.3915 40.037 95.3925 39.0526C95.3935 38.0683 95.3915 37.077 95.3925 36.0936C95.3935 35.1103 95.3915 34.1161 95.3925 33.1347C95.3935 32.1533 95.3905 31.1521 95.3925 30.1757C95.3945 29.1992 95.3876 28.2888 95.3925 27.3153C95.3974 26.3418 95.3816 25.3298 95.3925 24.3563C95.4033 23.3828 95.3698 22.363 95.3925 21.3974C95.4152 20.4317 95.3412 19.3813 95.3925 18.4384C95.4438 17.4954 95.2761 16.3789 95.3994 15.4863C95.5237 14.5946 95.717 13.4515 94.6034 13.5067C93.4899 13.562 92.688 13.4821 91.6444 13.5067C90.6009 13.5314 89.6974 13.4949 88.6854 13.5067C87.6735 13.5186 86.7227 13.5018 85.7265 13.5067C84.7303 13.5117 83.7558 13.5038 82.7675 13.5067C81.7802 13.5097 80.7889 13.5048 79.8085 13.5067C78.8281 13.5087 77.9266 13.5048 76.9481 13.5067C75.9697 13.5087 74.9706 13.5048 73.9892 13.5067C73.0078 13.5087 72.0126 13.5018 71.0302 13.5067C70.0478 13.5117 69.0516 13.4959 68.0712 13.5067C67.0908 13.5176 66.0857 13.4831 65.1122 13.5067C64.1387 13.5304 63.1119 13.4545 62.1532 13.5067C61.1945 13.559 60.1204 13.3903 59.1942 13.5067C58.2681 13.6231 57.0914 13.2463 56.2382 13.5097C55.3841 13.772 55.968 15.2713 55.8407 16.0712C55.7135 16.8711 55.8979 18.1287 55.8407 19.0302C55.7835 19.9317 55.8654 21.0433 55.8407 21.9892C55.8161 22.935 55.8496 23.9845 55.8407 24.9481C55.8318 25.9118 55.8378 26.83 55.8407 27.8085C55.8437 28.7869 55.8249 29.7703 55.8407 30.7675C55.8565 31.7646 55.8032 32.7026 55.8407 33.7265C55.8782 34.7503 55.7549 35.6103 55.8407 36.6854C55.9265 37.7605 55.6504 38.4589 55.8407 39.6444C56.0311 40.83 55.3298 41.044 54.2626 40.828C53.1954 40.612 52.3254 40.9267 51.3036 40.828C50.2818 40.7294 49.3448 40.8754 48.3446 40.828C47.3445 40.7807 46.372 40.8566 45.3856 40.828C44.3993 40.7994 43.4002 40.8556 42.4267 40.828C41.4532 40.8004 40.4195 40.8744 39.4677 40.828C38.5159 40.7817 37.5966 40.903 36.706 40.9267C35.8153 40.9503 35.043 40.9424 34.4127 41.5924C33.7835 42.2424 33.6395 42.8687 33.6483 43.787C33.6572 44.7053 33.6434 45.7962 33.6483 46.746C33.6533 47.6958 33.6434 48.7492 33.6483 49.705C33.6533 50.6607 33.6414 51.722 33.6483 52.664C33.6552 53.6059 33.6335 54.7244 33.6483 55.6229C33.6631 56.5215 33.5083 57.5749 33.9521 58.2781C34.395 58.9824 34.754 59.444 35.621 59.5683C36.488 59.6925 37.6538 59.5101 38.58 59.5683C39.5061 59.6264 40.5941 59.5367 41.539 59.5683C42.4839 59.5998 43.4524 59.5446 44.3993 59.5683C44.3431 59.944 44.1113 60.2676 44.1034 60.6532C43.3696 60.0772 41.5962 61.0694 42.5499 61.7135C43.5037 62.3586 44.5926 61.8033 45.6815 61.9354C46.7704 62.0676 47.9343 61.9009 49.0351 61.9354C50.1358 61.97 51.2878 61.9749 52.3886 61.9354C53.4893 61.896 54.6502 62.1455 55.673 61.7678C56.6959 61.391 57.41 61.2776 58.7011 61.4423C59.9922 61.607 59.6677 60.1462 58.5038 60.2587C57.3399 60.3711 56.3783 60.0328 55.4156 60.524C54.4539 61.0152 53.3956 60.6157 53.2763 59.5683C55.7766 59.806 58.1625 59.2516 60.6737 59.5683C63.1849 59.8849 64.4504 58.0819 64.1259 55.7216C63.8014 53.3613 64.4198 50.7021 64.1259 48.4227C63.832 46.1443 64.8429 43.6006 63.5114 41.7384C62.1799 39.8762 59.0562 41.2798 57.1229 40.828C57.2196 39.7884 57.3321 38.878 57.2216 37.7704C57.1111 36.6628 57.1377 35.5679 58.4052 35.7977C59.6726 36.0276 60.3315 35.6922 61.4628 35.7977C62.5941 35.9033 63.5518 35.7376 64.619 35.7977C65.6862 35.8579 66.6578 35.7465 67.6767 35.7977C68.6955 35.849 69.8693 35.7208 70.8329 35.7977C71.7975 35.8747 73.0374 35.6399 73.8905 35.7977C74.7437 35.9556 76.4264 35.2898 76.6522 36.1923C76.8781 37.0948 76.5477 38.375 76.6522 39.3485C76.7568 40.322 76.6069 41.3981 76.6522 42.4061C76.6976 43.4142 76.6315 44.5415 76.6522 45.5624C76.673 46.5832 76.6444 47.5952 76.6522 48.62C76.6601 49.6448 76.6503 50.7564 76.6522 51.7763C76.6542 52.7961 76.6552 53.8298 76.6522 54.8339C76.6493 55.838 76.6621 57.0206 76.6522 57.9901C76.6424 58.9597 77.1158 59.3749 77.4413 60.2587C76.4737 60.4846 75.3947 60.2952 74.3837 60.3573C74.3442 59.153 75.0475 57.0492 73.5946 56.412C74.0523 55.7719 74.8571 55.4 75.1806 54.6445C75.5032 53.888 76.1177 53.0999 75.9608 52.1718C75.805 51.2436 73.7879 52.0357 73.1015 51.9735C73.1962 50.929 73.4457 49.5067 73.4181 48.4454C73.3914 47.3841 72.0678 48.2452 71.334 48.4306C70.5992 48.6151 69.89 49.0905 69.4274 49.7789C68.9658 50.4674 68.805 51.7457 68.9589 52.664C68.377 52.7458 66.4349 51.9637 66.2968 52.7616C66.1587 53.5605 66.5799 54.245 66.8116 54.9098C67.0434 55.5746 67.9755 55.8863 68.4657 56.3134C67.3344 57.4329 68.2152 59.0909 68.0712 60.3573C66.9823 60.6167 64.1012 59.5801 64.3231 61.4423C65.5057 61.4423 66.6913 61.4423 67.8739 61.4423C69.0565 61.4423 70.2441 61.4433 71.4247 61.4423C72.6053 61.4413 73.7968 61.4442 74.9755 61.4423C76.1542 61.4403 77.3545 61.4462 78.5263 61.4423C79.698 61.4383 80.8106 61.4512 81.9784 61.4423C83.1462 61.4334 84.3663 61.461 85.5292 61.4423C86.6921 61.4235 87.8638 61.4413 88.9813 61.5409C90.0998 61.6405 91.318 61.32 92.4335 61.4423C93.549 61.5646 94.9279 61.3042 95.9843 61.4423C97.0406 61.5804 98.7677 60.8712 98.6474 62.2313C76.5664 62.0015 54.1778 62.2017 32.0702 62.1327C31.6846 60.4125 31.0957 58.4675 30.5838 56.8134C30.0709 55.1604 29.5363 52.9145 29.4071 51.2831C29.2769 49.6527 29.2789 46.8722 27.1386 46.8446C24.9982 46.817 22.6054 46.4254 20.6367 47.1484C18.669 47.8714 19.5458 50.4546 19.9394 51.9725C20.3329 53.4915 20.9198 55.5411 21.5185 57.1005C22.1182 58.6589 22.5571 60.5585 23.1933 62.1327C22.3519 62.18 21.4928 62.1258 20.5302 62.1327C19.5675 62.1396 18.4421 62.1426 17.4726 62.1327C16.503 62.1228 15.3589 62.1662 14.4149 62.1327C13.471 62.0992 12.3042 62.1722 11.4638 62.2254C10.6235 62.2777 9.26236 62.5815 9.4833 61.4423C10.3601 61.537 11.383 61.316 12.245 61.4423C13.1071 61.5685 13.8675 61.388 14.7108 61.4423C15.5542 61.4965 16.4418 61.4965 17.2753 61.4423C18.1087 61.388 19.1829 61.5015 19.9384 61.4423C20.6939 61.3831 22.0669 61.7717 21.9031 60.8584C21.7404 59.944 20.5667 60.4362 20.037 60.2587C19.819 59.6284 20.5657 57.8382 19.5438 57.6942C18.522 57.5502 17.3266 57.8027 16.289 57.6942C16.5849 56.3183 14.9988 56.4672 14.119 56.412C14.2295 55.3921 15.7021 55.6555 16.3629 55.0065C17.0238 54.3575 17.6452 53.8485 17.9884 52.9825C18.3316 52.1165 18.6838 50.9399 18.4579 49.9032C18.232 48.8666 16.6105 49.7533 15.9635 50.0699C15.3155 50.3855 14.5047 51.725 14.119 52.3681C13.5697 51.0947 14.84 50.2149 15.1054 49.1132C16.0059 49.051 16.9705 48.8104 17.6945 48.2501C18.4175 47.6899 18.5368 46.9995 18.7558 46.1552C18.9737 45.3099 18.7222 44.0208 17.6925 44.5001C16.6628 44.9795 16.4724 45.8109 15.5985 46.3515C15.2001 45.1462 14.7089 42.8806 13.4286 42.4061C12.3713 43.6085 12.027 45.4352 11.9491 47.0419C11.1561 46.5704 9.23672 45.8672 9.28604 47.0419C9.33535 48.2166 9.55333 48.8725 10.3463 49.631C11.1393 50.3895 12.0162 50.4122 13.0341 50.494C13.0341 51.0533 13.0341 52.0061 13.0341 52.5653C12.466 52.014 11.7065 51.2653 10.9697 51.0789C10.2329 50.8925 8.78794 50.4418 8.79287 51.4804C8.7978 52.519 9.11145 53.0072 9.50599 53.8249C9.90052 54.6425 10.4933 54.823 11.1374 55.3497C11.7814 55.8764 13.2126 55.476 13.0341 56.5106C12.2647 56.3666 10.8997 56.4771 10.9648 57.495C11.0308 58.5119 11.2626 59.2467 11.2587 60.2587C10.1954 60.4974 8.15866 59.875 8.20107 61.3436C8.24349 62.8123 7.89531 64.2109 9.7792 63.9081C9.72298 65.5612 9.85317 67.4027 9.7792 69.037C9.70522 70.6714 9.92222 72.6016 9.7792 74.1659C9.63618 75.7302 9.90052 76.5203 10.7655 77.8153C10.3651 77.8035 9.8798 77.7443 9.7792 77.3222C9.49119 78.3164 9.40834 79.4595 9.505 80.5554C9.60166 81.6502 9.64013 82.7322 9.68057 83.8319C9.72101 84.9317 9.87783 86.1804 9.7792 87.2841C9.68057 88.3878 10.4095 89.812 8.8915 89.6513C7.37354 89.4915 7.72566 91.1968 8.99014 90.9335C10.2546 90.6701 11.236 91.0519 12.4423 90.9335C13.6486 90.8151 14.7099 90.9858 15.8944 90.9335C17.079 90.8812 18.2705 90.9572 19.4452 90.9335C20.6199 90.9098 21.7276 90.9443 22.8974 90.9335C24.0671 90.9226 25.2813 90.9384 26.4481 90.9335C27.615 90.9286 28.7384 90.9355 29.9003 90.9335C31.0622 90.9315 32.1876 90.9345 33.3524 90.9335C34.5173 90.9325 35.7374 90.9335 36.9032 90.9335C38.0691 90.9335 39.1895 90.9335 40.3554 90.9335C41.5212 90.9335 42.7413 90.9335 43.9062 90.9335C45.071 90.9335 46.1974 90.9335 47.3583 90.9335C48.5192 90.9335 49.6456 90.9335 50.8104 90.9335C51.9753 90.9335 53.1954 90.9335 54.3612 90.9335C55.5271 90.9335 56.6475 90.9335 57.8134 90.9335C58.9792 90.9335 60.1993 90.9335 61.3642 90.9335C62.529 90.9335 63.6554 90.9335 64.8163 90.9335C65.9772 90.9335 67.1036 90.9335 68.2685 90.9335C69.4333 90.9335 70.6534 90.9335 71.8192 90.9335C72.9851 90.9335 74.1055 90.9335 75.2714 90.9335C76.4372 90.9335 77.6563 90.9335 78.8222 90.9335C79.988 90.9335 81.1114 90.9345 82.2743 90.9335C83.4372 90.9325 84.5577 90.9355 85.7265 90.9335C86.8953 90.9315 88.1025 90.9384 89.2772 90.9335C90.452 90.9296 91.5438 90.9434 92.7294 90.9335C93.915 90.9236 95.0729 90.9552 96.2802 90.9335C97.4874 90.9118 98.4728 90.9838 99.7323 90.9335C100.991 90.8822 99.9 89.0328 98.746 89.6513C98.746 81.0702 98.746 72.4892 98.746 63.9081C100.079 63.7789 100.068 62.2984 99.9621 61.1138C99.8566 59.9292 98.0132 60.4076 96.9706 60.3573C95.9281 60.307 93.8873 60.4757 92.828 60.2587ZM76.6522 14.6903C76.6522 21.2987 76.6522 27.9071 76.6522 34.5155C70.1425 34.5155 63.6327 34.5155 57.1229 34.5155C57.3498 27.9633 57.0105 21.1626 57.1229 14.6903C63.6327 14.6903 70.1425 14.6903 76.6522 14.6903ZM94.1103 14.6903C94.1103 21.2987 94.1103 27.9071 94.1103 34.5155C88.718 34.5155 83.3267 34.5155 77.9345 34.5155C77.9345 27.9071 77.9345 21.2987 77.9345 14.6903C83.3267 14.6903 88.718 14.6903 94.1103 14.6903ZM93.7157 57.5956C92.685 57.714 93.4031 56.5886 93.4129 55.9119C93.4218 55.2343 93.4721 54.3338 93.6151 53.6483C93.7571 52.9618 93.2877 52.3247 92.4335 52.3681C92.7087 51.7664 93.9406 49.1447 92.8063 49.486C91.6711 49.8273 92.542 51.8946 91.3485 52.0722C91.3268 51.0197 91.7953 50.4339 91.9186 49.3874C92.0419 48.3399 92.3635 47.8231 92.4335 46.6474C92.5025 45.4707 91.2815 46.0131 91.2519 47.0439C91.2233 48.0756 90.8061 48.7916 90.6591 49.706C90.5121 50.6203 90.4904 51.865 89.6718 52.0722C89.8967 51.0444 89.87 50.1133 90.2616 49.1112C90.6522 48.1081 90.668 47.5666 91.2282 46.527C91.7875 45.4864 90.5269 44.8779 90.1728 46.0634C89.8178 47.248 89.6264 48.4158 89.2772 49.5077C88.9251 49.0126 88.0404 47.4453 87.5265 47.2145C87.0136 46.9827 85.9267 46.6513 85.5045 47.3131C85.0834 47.9759 85.4552 49.0648 85.4089 49.8253C85.3625 50.5867 86.2936 51.8591 86.7128 52.4667C85.4799 53.2853 85.9849 54.6603 85.9237 56.0175C85.8626 57.3747 86.2611 58.9686 86.2196 60.3573C84.9404 60.2656 83.2695 60.4204 82.077 60.2587C83.0821 60.2143 84.0901 59.6481 84.1474 58.4823C84.2046 57.3165 83.2242 56.4988 82.077 56.7079C81.8847 55.9257 80.9891 56.3745 80.3017 56.3134C79.6142 56.2522 78.6476 56.3587 77.9345 56.3134C77.9305 55.2254 77.9404 54.1474 77.9345 53.0585C77.9286 51.9696 77.9453 50.8955 77.9345 49.8036C77.9236 48.7117 77.9581 47.6485 77.9345 46.5487C77.9108 45.449 77.9877 44.4104 77.9345 43.2938C77.8812 42.1773 78.0518 41.1949 77.9345 40.039C77.8171 38.883 78.1939 38.0249 77.9345 36.7841C77.6751 35.5433 78.903 35.7701 80.0058 35.7977C81.1085 35.8254 82.152 35.7987 83.2606 35.7977C84.3693 35.7968 85.3862 35.8293 86.5155 35.7977C87.6449 35.7662 88.5908 35.8816 89.7704 35.7977C90.9501 35.7139 91.7312 35.9891 93.0253 35.7977C94.3194 35.6064 94.1753 36.863 94.1103 37.9677C94.0452 39.0724 94.1398 40.1277 94.1103 41.2225C94.0807 42.3174 94.1231 43.3875 94.1103 44.4774C94.0974 45.5673 94.1162 46.6424 94.1103 47.7323C94.1043 48.8222 94.1132 49.8953 94.1103 50.9872C94.1073 52.0791 94.3085 53.1433 94.3075 54.2421C94.3065 55.3409 93.7167 56.4919 93.7157 57.5956ZM62.745 54.8339C53.4735 54.8339 44.202 54.8339 34.9306 54.8339C34.7629 53.0999 35.1939 51.6313 35.0292 49.8036C34.8645 47.9759 35.3557 46.4057 35.0292 44.4774C34.7027 42.5492 36.0392 41.9889 37.8896 42.2089C39.7399 42.4288 41.4029 42.1211 43.2157 42.2089C45.0286 42.2967 46.8494 42.1892 48.6405 42.2089C50.4317 42.2286 52.1982 42.2483 53.9667 42.2089C55.7352 42.1694 57.553 42.3332 59.2929 42.2089C61.0328 42.0846 62.9462 42.0244 62.745 44.0829C62.5438 46.1414 62.8486 47.4778 62.745 49.4091C62.6415 51.3403 62.822 52.9332 62.745 54.8339ZM14.0204 49.5077C14.0816 48.7926 13.9385 47.7382 13.9218 47.0419C12.9986 46.8762 13.5361 48.477 13.2313 48.9159C12.3979 47.5222 12.6504 45.3119 13.6259 44.0829C14.846 45.3977 15.28 48.0884 14.0204 49.5077ZM17.7685 45.661C17.7487 46.4994 17.2852 47.3871 16.4862 47.7323C16.5454 47.4571 16.7742 47.2461 16.7821 46.9433C16.4981 46.9206 16.211 47.5459 15.8944 47.4364C16.1124 46.6454 17.0475 45.9362 17.7685 45.661ZM12.4423 49.4091C11.4767 49.4426 10.4874 48.3044 10.371 47.4364C11.3928 47.3753 12.2569 48.5381 12.4423 49.4091ZM88.4882 52.0722C86.623 51.8779 86.0638 49.6616 86.2196 48.0282C88.144 48.2077 89.0928 50.3668 88.4882 52.0722ZM27.7304 49.0145C26.8318 49.2424 26.4748 50.0374 26.6385 50.8955C26.8022 51.7546 26.962 52.7182 27.2352 53.5536C27.5084 54.39 27.688 55.2767 27.9257 56.1181C28.1624 56.9604 28.4632 57.7702 28.695 58.6036C28.9268 59.4371 29.2158 60.3189 29.4052 61.1484C29.5945 61.9788 30.0295 62.7472 30.1291 63.5806C30.2297 64.4141 30.9152 65.2692 30.8649 66.0997C30.8136 66.9312 32.1205 67.6591 31.4025 68.2706C30.6844 68.8822 29.2572 68.1562 28.3222 68.4452C27.3871 68.7342 26.4679 68.0911 26.3179 67.1945C26.167 66.298 25.7587 65.6687 25.5289 64.8274C25.2991 63.986 24.9726 63.2344 24.6806 62.4207C24.3877 61.608 24.1717 60.7735 23.8857 59.9608C23.6006 59.1471 23.353 58.3413 23.0631 57.5285C22.7731 56.7158 22.5798 55.9849 22.274 55.1613C21.9673 54.3378 21.8035 53.5221 21.5175 52.663C21.2305 51.8049 21.1062 51.0059 20.8271 50.0985C20.5479 49.1921 20.9099 48.0716 22.0097 48.2255C23.1094 48.3793 24.2496 48.1091 25.2646 48.2255C26.2795 48.3419 27.5045 47.7994 27.7304 49.0145ZM72.411 49.3104C72.6182 50.9823 72.0925 52.518 70.9315 53.6503C70.7343 53.2913 71.3132 51.7033 70.7264 51.6855C70.1395 51.6678 70.4818 53.2548 70.1425 53.453C69.1039 51.8128 70.2855 49.0974 72.411 49.3104ZM17.2753 50.7899C17.298 52.2339 16.4547 53.8199 15.0067 54.2421C15.1162 53.8475 15.4683 53.5566 15.5985 53.1571C15.1478 52.8829 14.8726 53.5812 14.5136 53.7489C14.8183 52.4213 15.8678 51.0444 17.2753 50.7899ZM12.7382 53.9462C12.4127 53.6947 12.1493 53.379 11.7519 53.2558C11.5201 53.7193 12.1454 54.1129 12.245 54.538C11.1127 54.247 10.2753 53.1946 10.0751 52.0722C11.2104 52.0564 12.3703 52.875 12.7382 53.9462ZM75.0741 52.5653C75.0209 53.8308 73.784 55.4493 72.5097 55.7216C72.6152 55.3537 73.0433 55.0982 72.9042 54.6366C72.4051 54.6159 72.0865 55.0597 71.7206 55.327C71.6595 53.743 73.5493 52.298 75.0741 52.5653ZM69.8466 55.1298C69.5645 55.117 69.4343 54.7836 69.1562 54.7352C68.8316 55.1209 69.3564 55.3852 69.452 55.7216C68.4736 55.33 67.5701 54.393 67.3808 53.3544C68.7015 52.9766 69.3741 54.1918 69.8466 55.1298ZM92.6308 53.3544C92.683 54.1878 92.5706 54.9749 91.6444 54.8339C90.7183 54.6928 90.0555 54.9069 89.1786 54.8339C88.3018 54.7609 87.5758 54.8891 86.7128 54.8339C86.7739 54.3161 86.6309 53.8545 86.6142 53.3544C88.6204 53.3544 90.6246 53.3544 92.6308 53.3544ZM92.5321 56.0175C92.3181 57.4506 92.2027 58.937 91.9403 60.3573C90.4253 60.2626 88.6953 60.3701 87.1073 60.2587C86.9939 58.8167 86.8055 57.3924 86.8114 55.9188C88.6766 55.9839 90.7104 55.7886 92.5321 56.0175ZM62.745 56.1161C62.89 57.0166 62.7726 58.2485 61.6601 58.1874C60.5475 58.1262 59.5838 58.214 58.5038 58.1874C57.4238 58.1608 56.4157 58.1982 55.3476 58.1874C54.2803 58.1765 53.2565 58.1884 52.1913 58.1874C51.1261 58.1864 49.9977 58.1815 48.9364 58.1874C47.8751 58.1933 46.8306 58.1687 45.7802 58.1874C44.7297 58.2061 43.6615 58.143 42.6239 58.1874C41.5863 58.2318 40.4836 58.0868 39.4677 58.1874C38.4518 58.288 37.281 57.9645 36.3114 58.1874C35.3419 58.4103 34.5183 57.0807 34.9306 56.3134C35.3429 55.546 36.8135 56.3203 37.6923 56.1161C38.5711 55.9119 39.876 56.2187 40.8485 56.1161C41.8211 56.0135 42.9908 56.1861 44.0048 56.1161C45.0187 56.0461 46.1313 56.2009 47.161 56.1161C48.1908 56.0313 49.1692 56.0875 50.2187 56.1161C51.2681 56.1447 52.3235 56.1003 53.3749 56.1161C54.4263 56.1319 55.4797 56.1033 56.5312 56.1161C57.5826 56.1289 58.635 56.0984 59.6874 56.1161C60.7398 56.1348 61.7419 56.0609 62.745 56.1161ZM73.5946 57.2997C73.4191 58.0237 72.1792 57.5354 71.4247 57.5956C70.6702 57.6558 69.5951 57.5315 68.8603 57.3983C69.4008 56.8391 70.25 57.1695 71.0302 57.1024C71.8104 57.0354 72.7957 57.35 73.5946 57.2997ZM15.1054 57.5956C14.2581 57.7583 13.0854 57.7613 12.245 57.5956C13.0844 57.4901 14.3814 57.3461 15.1054 57.5956ZM81.0907 57.497C81.1529 58.3472 81.0947 58.9114 80.8165 59.6886C80.5394 60.4668 79.6911 60.1748 79.0194 60.3573C78.2965 59.6314 78.0183 58.5395 78.0331 57.497C79.052 57.497 80.0718 57.497 81.0907 57.497ZM82.2743 58.9765C82.4045 58.6431 82.3729 58.2594 82.3729 57.8915C83.3928 57.6301 83.1472 59.4588 82.2743 58.9765ZM73.3974 58.5819C73.4191 59.1629 73.2691 59.6984 73.2001 60.2587C71.91 60.2912 70.6761 60.2468 69.3534 60.2587C69.2962 59.6906 69.1877 59.1343 69.0575 58.5819C70.5045 58.5819 71.9504 58.5819 73.3974 58.5819ZM19.0507 58.6806C19.0507 59.2063 19.0507 59.733 19.0507 60.2587C18.0831 60.3218 17.2713 60.1739 16.289 60.2587C15.3066 60.3435 14.5668 60.0969 13.5272 60.2587C12.4877 60.4204 12.2371 59.6896 12.3437 58.6806C14.5797 58.6806 16.8147 58.6806 19.0507 58.6806ZM51.8954 59.5683C51.9674 59.9362 52.2416 60.2468 52.1913 60.6532C50.0076 60.524 47.7883 60.6759 45.4843 60.6532C45.429 60.2478 45.7516 59.9549 45.7802 59.5683C47.8189 59.5683 49.8567 59.5683 51.8954 59.5683ZM97.0692 63.7108C97.0692 65.716 97.0692 67.7222 97.0692 69.7274C89.226 69.7324 81.0611 69.7205 73.2987 69.7274C73.2356 67.7627 73.426 65.7338 73.2001 63.8095C81.0828 63.7473 89.2269 63.9357 97.0692 63.7108ZM22.6015 64.0067C22.6015 72.5878 22.6015 81.1688 22.6015 89.7499C21.8943 89.528 21.0815 89.7114 20.3329 89.6513C20.3684 88.3247 20.5992 86.9231 20.6288 85.6073C20.6584 84.2906 20.8576 82.744 20.8261 81.4647C20.7945 80.1855 21.2581 79.0985 20.1356 78.3085C20.8576 77.6634 21.5648 76.1504 20.2274 75.8496C18.8889 75.5497 18.4372 75.9551 17.2753 76.5331C17.443 75.8515 17.5081 73.873 17.1451 73.3098C16.7821 72.7466 16.5178 71.3776 15.7879 71.3135C15.059 71.2484 14.6231 72.5365 14.2404 73.1036C13.8577 73.6698 14.0204 75.8673 14.119 76.6317C13.2767 76.4118 12.7017 75.1276 11.7302 75.0753C10.7586 75.024 11.0762 73.6826 11.0614 72.7851C11.0466 71.8875 11.0683 70.8666 11.0614 69.9247C11.0545 68.9828 11.0644 67.9284 11.0614 66.9657C11.0585 66.0031 11.0644 64.9753 11.0614 64.0067C14.9081 64.0067 18.7548 64.0067 22.6015 64.0067ZM68.3671 64.0067C68.3671 71.5354 68.3671 79.065 68.3671 86.5937C67.5544 86.425 67.7664 87.7269 68.4657 87.58C68.4795 88.2813 68.2951 88.9342 68.3671 89.6513C61.594 89.6513 54.8218 89.6513 48.0487 89.6513C48.5399 88.4746 47.1216 88.2477 47.161 87.1854C47.2005 86.1232 45.9843 85.8657 45.0828 85.7129C44.1813 85.561 43.1112 85.2562 42.1633 85.0816C41.2154 84.907 40.1473 84.5628 39.1718 84.4237C39.1718 83.3062 39.1718 82.1877 39.1718 81.0702C40.3504 81.2872 40.0792 79.7919 39.9608 79.0976C39.6324 79.0976 39.303 79.0976 38.9745 79.0976C39.4322 80.1618 37.6824 80.15 38.0868 79.0976C36.6892 78.5393 36.703 81.1807 37.8896 81.1688C37.8896 82.2538 37.8896 83.3388 37.8896 84.4237C36.9614 84.5884 35.8567 84.8114 34.9631 85.0481C34.0685 85.2838 32.9096 85.5008 32.0692 85.705C31.2299 85.9101 29.9023 86.0147 29.9013 87.0878C29.9003 88.1599 28.7325 88.4963 29.1112 89.6513C27.3684 89.6513 25.6265 89.6513 23.8837 89.6513C24.0701 81.4302 23.6539 72.9202 24.081 64.6972C24.9095 66.2782 24.7102 68.6977 26.4481 69.6288C27.3546 71.8145 26.8742 74.233 28.2975 76.2619C29.7218 78.2897 33.6523 76.9178 35.8183 77.3222C35.6654 78.1921 36.5935 78.5215 37.2978 78.4071C38.002 78.2927 39.2093 78.5452 39.8622 78.4071C40.5152 78.269 41.684 78.7622 42.0075 77.9879C42.332 77.2137 43.0106 77.2571 43.9062 77.3222C44.8017 77.3873 45.6233 77.2798 46.4706 77.3222C47.3179 77.3646 48.2411 77.2728 49.0351 77.3222C49.8291 77.3715 50.5165 77.2659 51.0817 76.8043C51.6459 76.3427 51.9102 75.8969 52.0858 75.244C52.2613 74.59 52.1578 73.7467 51.8185 73.1579C51.4802 72.5681 51.1389 72.2337 50.4919 71.92C49.8458 71.6064 48.9345 71.708 48.1474 71.7001C47.3603 71.6922 46.4065 71.704 45.5829 71.7001C44.7593 71.6961 43.8568 71.7021 43.0185 71.7001C42.1801 71.6981 41.2963 71.7011 40.454 71.7001C40.454 70.9436 40.454 70.1881 40.454 69.4315C41.5261 69.9365 42.185 68.315 41.0774 68.1177C39.9707 67.9205 38.9124 68.1148 37.7909 68.0507C36.6695 67.9866 35.7443 68.2982 34.6347 68.0507C33.525 67.8041 33.3524 69.7491 34.6347 69.4315C34.6347 70.1881 34.6347 70.9436 34.6347 71.7001C33.4353 71.489 32.0022 72.2051 31.8729 73.4755C30.4171 72.9577 30.8659 71.0087 30.2948 69.8261C33.6178 70.1437 33.3081 66.2003 32.8593 64.0067C44.6952 64.0067 56.5312 64.0067 68.3671 64.0067ZM72.1151 63.8095C72.1142 72.357 71.9179 81.1037 71.9179 89.6513C71.1949 89.6513 70.4709 89.6513 69.7479 89.6513C69.7539 88.8997 69.5773 88.2162 69.7479 87.4813C71.0509 87.8463 71.4632 86.6045 70.2411 86.5937C69.0191 86.5828 69.8229 84.9139 69.6493 84.0292C69.4757 83.1445 69.7302 81.8563 69.6493 80.8729C69.5684 79.8896 69.6907 78.7533 69.6493 77.7167C69.6079 76.6801 69.6809 75.5251 69.6493 74.4618C69.6178 73.3985 69.6917 72.3945 69.6493 71.3056C69.6069 70.2167 69.7312 69.2875 69.6493 68.1493C69.5675 67.0111 69.8259 65.647 69.6493 64.4013C69.4728 63.1555 71.0716 63.7404 72.1151 63.8095ZM39.1718 69.4315C39.1718 70.1881 39.1718 70.9436 39.1718 71.7001C38.0868 71.7001 37.0019 71.7001 35.9169 71.7001C35.9169 70.9436 35.9169 70.1881 35.9169 69.4315C37.0019 69.4315 38.0868 69.4315 39.1718 69.4315ZM28.914 69.8261C29.5758 71.5443 29.3529 74.3809 31.6757 74.7577C31.6313 75.2242 31.8522 75.6178 31.9716 76.0399C30.3806 76.4384 29.0116 75.5734 28.837 74.0456C28.6625 72.5178 28.047 71.3204 27.829 69.8261C28.191 69.8261 28.552 69.8261 28.914 69.8261ZM97.0692 70.8124C97.0692 73.1796 97.0692 75.5468 97.0692 77.914C89.2112 77.914 81.1568 77.914 73.2987 77.914C73.2987 75.5468 73.2987 73.1796 73.2987 70.8124C81.1568 70.8124 89.2112 70.8124 97.0692 70.8124ZM15.6972 72.9823C16.575 74.4717 16.5326 76.3181 15.6972 77.8153C14.6872 76.4749 14.5629 74.2892 15.6972 72.9823ZM49.7255 72.9823C50.7651 73.2397 51.3805 75.3505 50.1121 75.8348C48.8437 76.3191 47.1245 75.963 45.6815 76.0399C44.2385 76.1169 42.5243 76.0212 41.0458 76.0399C39.5673 76.0587 37.8807 76.0656 36.4101 76.0399C34.9394 76.0143 33.3436 76.5301 33.0565 74.7577C32.7705 72.9843 34.1869 72.8334 35.7196 72.9823C37.2524 73.1313 38.8256 72.8561 40.3554 72.9823C41.8852 73.1086 43.4732 72.7949 44.9911 72.9823C46.5091 73.1697 48.249 72.6164 49.7255 72.9823ZM13.9218 77.914C12.7303 78.2256 11.7311 77.2373 11.3573 76.2372C12.4028 76.3151 13.3477 77.0716 13.9218 77.914ZM19.8397 76.6317C19.1523 77.4691 18.3257 78.1191 17.1767 77.914C17.6392 76.9533 18.7982 76.5232 19.8397 76.6317ZM97.0692 78.9989C97.0692 81.3336 97.0692 83.6672 97.0692 86.0019C89.2112 86.0019 81.1568 86.0019 73.2987 86.0019C73.2031 84.9139 73.426 84.0558 73.2987 82.9442C73.1715 81.8326 73.5424 81.083 73.2987 79.8866C73.0551 78.6902 74.3206 79.0078 75.2931 79.0759C76.2656 79.1429 77.2135 78.9309 78.2304 78.9989C79.2473 79.067 80.3608 78.9674 81.3866 78.9989C82.4124 79.0305 83.4175 78.9841 84.4442 78.9989C85.471 79.0137 86.4692 78.993 87.5019 78.9989C88.5345 79.0048 89.6225 78.996 90.6581 78.9989C91.6937 79.0019 92.6771 78.9969 93.7157 78.9989C94.7543 79.0009 96.0277 78.9979 97.0692 78.9989ZM19.7411 79.1962C19.8023 79.5493 19.5813 79.8274 19.6425 80.1825C16.8324 80.221 13.7166 80.1569 10.7655 80.1825C10.7655 79.8541 10.7655 79.5246 10.7655 79.1962C13.7571 79.1962 16.7496 79.1962 19.7411 79.1962ZM19.5438 81.4647C19.4403 84.2087 19.2292 86.9251 19.0507 89.6513C16.4862 89.6513 13.9218 89.6513 11.3573 89.6513C11.1778 86.927 11.0516 84.189 10.8642 81.4647C13.7571 81.4647 16.6509 81.4647 19.5438 81.4647ZM37.8896 85.9032C38.0612 86.4901 36.6675 87.3216 37.8896 87.4813C37.7367 88.1994 36.6014 88.7024 37.1005 89.6513C35.3912 89.6513 33.6809 89.6513 31.9716 89.6513C32.52 88.6995 31.4252 88.1816 31.1825 87.4813C31.9361 87.436 32.737 87.5839 33.4511 87.3827C33.2627 86.5286 34.7086 86.5404 35.2265 86.5937C34.4956 86.6489 34.7422 87.6342 35.5224 87.4813C36.3025 87.3285 36.0313 86.4526 35.3251 86.3964C36.2019 86.3214 37.0462 86.1182 37.8896 85.9032ZM42.2294 86.5937C42.1978 88.3049 44.7603 87.1411 45.8788 87.4813C45.6766 88.1925 44.7228 88.6571 45.0897 89.6513C43.3804 89.6513 41.6701 89.6513 39.9608 89.6513C40.5615 88.6442 39.3227 88.2053 39.1718 87.4813C39.6472 87.3876 41.1227 87.8029 41.0448 86.9872C40.9669 86.1715 39.6689 86.6232 39.1718 86.495C39.0524 85.6497 40.0121 86.1597 40.5201 86.2317C41.029 86.3027 41.6711 86.6341 42.2294 86.5937ZM96.5761 87.7772C96.5919 88.3513 96.6106 89.0249 96.5761 89.6513C89.6718 89.6513 81.3866 89.6513 74.4823 89.6513C74.4823 89.0269 74.581 88.4016 74.581 87.7772C81.5178 87.7763 89.6392 87.7782 96.5761 87.7772Z" fill="black"/>
</svg>
