<svg width="110" height="110" viewBox="0 0 110 110" fill="none" xmlns="http://www.w3.org/2000/svg">
<path d="M55.2037 53.7778L51.1296 57.8519H52.5555V61.7223H54.3888V59.2778H56.2222V61.7223H58.0555V57.8519H59.8888L55.2037 53.7778Z" stroke="black"/>
<path d="M50.1111 68.0371C48.1555 68.2001 47.6666 69.8704 47.6666 70.6852C47.6666 71.4322 48.1555 72.9667 50.1111 73.1297C52.0666 73.2926 52.5555 71.568 52.5555 70.6852C52.5555 69.7346 52.0666 67.8741 50.1111 68.0371Z" stroke="black"/>
<path d="M77.7898 79.9196C77.1389 79.4439 76.6108 78.7515 76.2297 77.7884C76.2628 77.5429 76.3378 77.4146 76.4008 77.3437C76.437 77.303 76.4915 77.2562 76.5768 77.2122C77.6189 78.1599 78.7313 79.0745 79.9135 79.9562L80.0639 80.0684L80.2447 80.1184C81.277 80.4041 82.2826 80.4266 83.222 80.1134C84.1627 79.7998 84.9478 79.1793 85.5876 78.3307L85.6747 78.2152L85.7255 78.0797C85.9496 77.4819 86.0223 76.8527 85.8532 76.2329C85.6841 75.6126 85.3018 75.108 84.8043 74.7083L84.5773 74.526L84.2879 74.494C81.7312 74.2114 79.4577 73.3119 77.4483 71.7918C76.6142 69.91 76.6033 68.6328 77.0299 67.7797C77.4721 66.8951 78.5595 66.1169 80.7141 65.6709L81.5741 65.4929L81.5086 64.6171C81.48 64.2343 81.52 63.88 81.6265 63.5461C82.0437 63.5077 82.2567 63.5924 82.361 63.6669C82.4964 63.7636 82.7094 64.03 82.7744 64.7782L82.8403 65.5366L83.5889 65.675C84.8332 65.905 85.5683 66.3415 85.9764 66.863C86.291 67.265 86.4882 67.8162 86.4885 68.5863C86.102 68.6418 85.8208 68.5938 85.6135 68.5016C85.311 68.3672 84.9797 68.0559 84.6951 67.3659L84.5557 67.0281L84.2314 66.8597C83.163 66.305 82.0695 66.0714 80.999 66.3041C79.9278 66.537 79.0321 67.2036 78.2955 68.1526L78.17 68.3142L78.1181 68.5121C77.9455 69.1705 77.9517 69.8458 78.2371 70.474C78.5197 71.0958 79.0222 71.5529 79.6222 71.8827L79.7112 71.9317L79.8083 71.9618C81.7811 72.5723 83.7359 73.2221 85.6727 73.9117C86.8105 75.0478 87.2486 76.0503 87.2486 76.9266C87.2486 77.8223 86.7906 78.8429 85.5932 79.9955C84.87 80.4549 84.0964 80.7233 83.2624 80.8079L82.3588 80.8994L82.3632 81.8077C82.3657 82.3157 82.3159 82.6576 82.2494 82.8705C82.2256 82.9467 82.2035 82.9949 82.1875 83.0238C82.1678 83.0217 82.141 83.0175 82.106 83.0094C81.9796 82.98 81.7981 82.9101 81.5559 82.7743C81.4881 82.4945 81.4713 82.2102 81.5049 81.9164L81.6255 80.8619L80.5657 80.8042C79.3923 80.7404 78.4856 80.4281 77.7898 79.9196ZM82.1622 83.0616C82.1622 83.0615 82.1628 83.0608 82.1642 83.0595C82.1629 83.061 82.1622 83.0616 82.1622 83.0616ZM82.227 83.0254C82.2308 83.0245 82.2329 83.0243 82.233 83.0245C82.2331 83.0246 82.2312 83.0251 82.227 83.0254Z" fill="#F4F7F7" stroke="black" stroke-width="2"/>
<path d="M86.215 45.8332L55.0484 21.9999L24.4928 45.8332C22.2521 47.7345 17.2002 50.8036 14.9187 47.8703C12.6373 44.9369 16.82 41.4875 19.1965 40.1295L55.0484 11.8147C60.3538 16.0135 68.3241 22.3186 75.4187 27.9253M86.215 45.8332C88.4558 47.8024 93.3447 50.9666 94.9743 47.8703C97.0113 43.9999 93.5484 42.1666 90.9002 40.1295C90.2874 39.6581 87.9552 37.823 84.6817 35.2406M86.215 45.8332V58.8703M84.6817 35.2406V13.648H75.4187V27.9253M84.6817 35.2406C82.0635 33.1751 78.8431 30.6316 75.4187 27.9253" stroke="black" stroke-width="2"/>
<path d="M24.6965 45.8333V89.4258H43.2336M84.5854 89.4258H75.8262H67.0669M43.2336 89.4258V49.0925H67.0669V89.4258M43.2336 89.4258H67.0669M30.8076 77.611H33.0484H35.2891M30.8076 82.9073H35.2891M81.7336 58.8703C86.8262 58.8703 95.178 61.1925 95.178 72.9258C95.178 87.5925 85.4002 88.611 80.7151 88.8147C76.4373 88.8147 67.4743 86.2888 67.4743 72.9258C67.4743 59.5629 77.8632 58.8703 81.7336 58.8703Z" stroke="black" stroke-width="2"/>
</svg>
