<svg width="107" height="99" viewBox="0 0 107 99" fill="none" xmlns="http://www.w3.org/2000/svg">
<path d="M66.6529 21.4227C62.0526 20.5195 61.5147 28.4485 65.8339 28.6615C70.151 28.8724 71.0311 22.2834 66.6529 21.4227Z" stroke="black" stroke-width="2"/>
<path d="M8.25002 21.7939C3.53769 20.5733 2.48643 27.1921 6.40216 28.6258C10.3159 30.0595 12.1515 22.8037 8.25002 21.7939Z" stroke="black" stroke-width="2"/>
<path d="M18.007 40V48H36C35.9269 46.1481 36 41.9636 36 40C36 38.0002 34.6837 38.0001 32.7093 38H32.7086H20.8596C18.402 38 17.9339 39.3333 18.007 40Z" stroke="black" stroke-width="2"/>
<path d="M40.007 40V48H58C57.9269 46.1481 58 41.9636 58 40C58 38.0002 56.6837 38.0001 54.7093 38H54.7086H42.8596C40.402 38 39.9339 39.3333 40.007 40Z" stroke="black" stroke-width="2"/>
<path d="M71.5667 64.8493H4.00928C4.00928 52.1805 11.0798 48.4321 15.6321 48.1415C23.9133 48.19 45.5898 48.2577 57.9099 48.1415C70.23 48.0253 72.1478 59.2316 71.5667 64.8493Z" stroke="black" stroke-width="2"/>
<path d="M4.00928 67.4434L4.75986 79.0661H10.6144V72.9642H65.4071V79.0661H70.9614L71.712 67.4434H4.00928Z" stroke="black" stroke-width="2"/>
<path d="M56 48C59.9402 47.651 66.1651 50.046 68 51.5V30.5165H63.7991L63.0748 39.5312C62.6402 35.7509 52.0654 26.4454 37.2897 26.0092C25.4692 25.6602 13.7259 35.3632 10.7804 40.2583L9.76636 30.6619H6V54C6.81122 51.9063 11.4953 48 17 48" stroke="black" stroke-width="2"/>
<path d="M81.5 32H80.5C80.2239 32 80 32.2725 80 32.6087V45.3913C80 45.7275 80.2239 46 80.5 46H81.5C81.7761 46 82 45.7275 82 45.3913V32.6087C82 32.2725 81.7761 32 81.5 32Z" stroke="black" stroke-linejoin="round"/>
<path d="M81.25 65H79.75C79.3358 65 79 65.2725 79 65.6087V78.3913C79 78.7275 79.3358 79 79.75 79H81.25C81.6642 79 82 78.7275 82 78.3913V65.6087C82 65.2725 81.6642 65 81.25 65Z" stroke="black" stroke-linejoin="round"/>
<path d="M83 37H88M83 44H88" stroke="black" stroke-linecap="round" stroke-linejoin="round"/>
<path d="M82 70H88M82 77H88" stroke="black" stroke-linecap="round" stroke-linejoin="round"/>
<path d="M87.375 35H83.625C83.2798 35 83 35.2592 83 35.5789V45.4211C83 45.7408 83.2798 46 83.625 46H87.375C87.7202 46 88 45.7408 88 45.4211V35.5789C88 35.2592 87.7202 35 87.375 35Z" stroke="black" stroke-linejoin="round"/>
<path d="M87.25 68H82.75C82.3358 68 82 68.2592 82 68.5789V78.4211C82 78.7408 82.3358 79 82.75 79H87.25C87.6642 79 88 78.7408 88 78.4211V68.5789C88 68.2592 87.6642 68 87.25 68Z" stroke="black" stroke-linejoin="round"/>
<path d="M91.5 30H89.5C89.2239 30 89 30.2755 89 30.6154V45.3846C89 45.7245 89.2239 46 89.5 46H91.5C91.7761 46 92 45.7245 92 45.3846V30.6154C92 30.2755 91.7761 30 91.5 30Z" stroke="black" stroke-linejoin="round"/>
<path d="M90.5 63H88.5C88.2239 63 88 63.2755 88 63.6154V78.3846C88 78.7245 88.2239 79 88.5 79H90.5C90.7761 79 91 78.7245 91 78.3846V63.6154C91 63.2755 90.7761 63 90.5 63Z" stroke="black" stroke-linejoin="round"/>
<path d="M95.0159 32.0041L93.6227 32.1658C93.2392 32.2103 92.9613 32.606 93.0044 33.0446L94.2086 45.2792C94.252 45.7179 94.6007 46.0401 94.9841 45.996L96.3773 45.8343C96.7608 45.7898 97.0387 45.3941 96.9956 44.9554L95.7931 32.7228C95.748 32.2822 95.3993 31.9596 95.0159 32.0041Z" stroke="black" stroke-linejoin="round"/>
<path d="M94.5198 65.0041L92.7784 65.1658C92.2991 65.2103 91.9516 65.606 92.0055 66.0446L93.5107 78.2792C93.5651 78.7179 94.0008 79.0401 94.4802 78.996L96.2216 78.8343C96.7009 78.7898 97.0484 78.3941 96.9945 77.9555L95.4914 65.7228C95.4349 65.2822 94.9992 64.9596 94.5198 65.0041Z" stroke="black" stroke-linejoin="round"/>
<path d="M74 48C97.2 48 103 48 103 48V19H74" stroke="black" stroke-width="2"/>
<path d="M74 18L74 48" stroke="black" stroke-width="2"/>
<path d="M74 48V79H103V48L88.5 48.1632L74 48Z" stroke="black" stroke-width="2"/>
</svg>
