<svg width="103" height="103" viewBox="0 0 103 103" fill="none" xmlns="http://www.w3.org/2000/svg">
<path d="M30.0407 16.9029C28.3526 18.2906 27.7002 20.5167 29.8261 22.2678C31.9521 24.0189 33.191 22.0188 31.4027 20.4079C29.6115 18.7942 34.3841 17.2005 32.2582 14.9715C30.1352 12.7426 28.8361 14.8485 30.0407 16.9029Z" stroke="black" stroke-width="0.3"/>
<path d="M70.6707 15.1862C67.3716 14.7771 70.2129 17.8014 71.2429 18.9059C72.273 20.0103 68.1986 22.9975 68.9597 24.3366C69.7236 25.6728 70.0899 28.2136 72.4819 28.5398C74.871 28.8631 73.3059 25.9675 71.8896 24.8402C70.4704 23.7128 74.3159 21.4124 73.8181 19.7643C73.3174 18.1162 72.9568 15.4695 70.6707 15.1862Z" stroke="black" stroke-width="0.3"/>
<path d="M32.0436 25.7728C30.1694 25.1577 29.3425 27.9388 30.9906 28.5368C32.6387 29.1348 33.5801 26.2764 32.0436 25.7728Z" stroke="black" stroke-width="0.3"/>
<path d="M30.0407 16.9029C28.3526 18.2906 27.7002 20.5167 29.8261 22.2678C31.9521 24.0189 33.191 22.0188 31.4027 20.4079C29.6115 18.7942 34.3841 17.2005 32.2582 14.9715C30.1352 12.7426 28.8361 14.8485 30.0407 16.9029Z" fill="black"/>
<path d="M48.3528 9.74986C44.6189 9.28634 48.5531 12.6197 49.2742 13.6927C49.9952 14.7628 46.8278 17.667 47.2169 19.1863C47.6032 20.7028 50.5875 22.72 49.5832 23.8559C48.5789 24.9919 48.2584 29.3152 50.3471 29.1979C52.4359 29.0806 50.3643 25.7129 52.1354 24.4053C53.9094 23.0977 51.1197 20.534 50.144 19.4038C49.1683 18.2736 52.5017 15.6155 52.0525 14.0618C51.6004 12.511 50.1583 9.97304 48.3528 9.74986Z" fill="black"/>
<path d="M32.0436 25.7728C30.1694 25.1577 29.3425 27.9388 30.9906 28.5368C32.6387 29.1348 33.5801 26.2764 32.0436 25.7728Z" fill="black"/>
<path d="M70.4712 15.1997C67.1722 14.7905 70.0134 17.8149 71.0435 18.9193C72.0735 20.0238 67.9991 23.0109 68.7602 24.35C69.5242 25.6862 69.8904 28.227 72.2824 28.5532C74.6716 28.8765 73.1065 25.9809 71.6901 24.8536C70.2709 23.7262 74.1165 21.4258 73.6186 19.7777C73.1179 18.1296 72.7574 15.4829 70.4712 15.1997Z" fill="black"/>
<path d="M35.032 40.1729C39.5471 35.5463 37.4241 27.363 30.7401 27.0111C24.0562 26.6591 21.0004 34.7708 25.0176 39.8868C21.7525 40.6531 21.0935 41.9401 20.295 43.7422C19.5163 45.4997 19.5561 47.7471 19.7228 50.4793C19.8668 52.8402 19.6458 59.473 19.6927 62.0293C19.7281 63.9558 20.6011 65.8389 20.9357 67.5293C21.1976 68.8531 20.7426 70.0588 21.8702 71.0747C21.378 74.491 19.9217 77.7185 19.295 81.0891C16.9288 79.4868 13.0575 82.6972 16.1476 83.3781C19.2378 84.0591 21.5354 83.072 24.4453 83.3781C27.3552 83.6843 29.9132 83.2437 32.743 83.3781C35.5728 83.5126 38.251 83.3238 41.0407 83.3781C43.8304 83.4325 46.5715 83.3696 49.3384 83.3781C52.1052 83.3867 54.8921 83.4096 57.6361 83.3781C60.38 83.3467 63.227 83.4697 65.9338 83.3781C68.6405 83.2866 71.6048 83.5927 74.2314 83.3781C76.8581 83.1635 80.0742 83.856 82.5291 83.3781C84.9841 82.9003 88.4233 84.743 90.1802 82.7315C91.937 80.7229 85.5449 80.5913 84.2459 81.0891C84.3861 77.9389 80.3231 73.7585 83.1729 71.1462C86.0199 68.531 85.1787 64.5967 85.1043 60.7741C85.0299 56.9514 85.3131 51.6752 85.3904 47.8984C85.4677 44.1215 83.1872 41.4834 79.954 39.8868C84.1458 34.7794 81.5763 27.0597 75.0927 27.0139C68.6062 26.9682 65.6534 35.0684 70.2257 39.6007C68.1627 41.5635 66.1054 44.1043 66.506 47.04C62.8522 47.515 59.2355 46.977 55.6361 47.6151C52.0366 48.2503 56.2569 53.1631 55.6332 55.3377C51.9135 55.3377 47.9077 55.3377 44.1881 55.3377C44.3626 52.6166 41.0407 51.3319 38.4656 51.618C38.3368 47.8612 38.7574 42.2817 35.032 40.1729ZM31.8846 29.3001C37.9591 30.8051 35.1522 41.8411 29.0205 39.8897C22.8917 37.9383 25.0863 27.6148 31.8846 29.3001ZM76.8066 29.014C83.0041 30.5505 79.5019 42.0528 73.3101 39.6636C67.1183 37.2745 70.3201 27.4059 76.8066 29.014ZM36.7488 51.618C34.6515 51.618 31.9791 51.3319 29.8817 51.3319C30.6543 47.2632 27.2236 46.8712 27.5927 50.7596C27.9618 54.6481 30.8489 53.02 33.6014 53.3348C36.3539 53.6495 40.8232 52.4535 41.8991 55.3377C39.6473 55.352 37.0178 55.6066 34.7459 55.6238C32.4741 55.641 30.185 55.5895 27.8789 55.6238C25.5727 55.6581 24.7057 53.9185 25.0176 51.3319C25.3295 48.7424 22.5569 48.9799 23.0147 51.618C23.4725 54.2561 23.0261 55.1889 23.5869 57.6267C22.4711 58.1789 21.4381 59.6382 21.5841 61.0602C21.1863 58.6997 20.8458 54.9686 21.0118 52.4764C21.1778 49.9814 20.3079 46.2188 21.6728 44.2674C23.0347 42.316 26.2765 41.1801 28.4568 42.1701C30.6371 43.1572 33.9791 40.9741 35.6758 42.9627C37.3726 44.9513 36.5714 49.0715 36.7488 51.618ZM83.1014 59.0573C82.2516 57.95 80.5091 56.7883 79.0956 56.4822C79.2072 55.0687 81.3045 49.8326 78.8095 50.1874C76.3116 50.545 79.2358 55.8985 75.9482 55.3377C72.6577 54.7769 70.2371 55.7583 67.0783 55.3377C67.8165 51.4406 74.2944 55.5723 75.0898 51.618C74.1056 50.6051 72.7007 51.0057 71.3702 51.0458C71.5104 49.2889 71.3358 46.3619 68.795 47.04C68.1999 44.3418 70.2743 40.3961 73.107 41.8697C75.9425 43.3404 78.5091 40.6221 81.1214 42.4391C83.7337 44.2588 83.6593 46.6222 83.3875 49.6151C83.1157 52.608 83.3503 56.2046 83.1014 59.0573ZM69.3673 51.3319C67.0897 51.0801 64.7063 52.9828 64.7893 55.3377C62.6919 55.3377 60.0195 55.3377 57.9222 55.3377C57.3814 53.4664 57.4129 52.897 56.5545 50.9828C55.699 49.0658 58.5059 48.9084 60.2112 49.0429C61.9165 49.1774 64.1998 48.9485 65.9338 49.0429C67.6677 49.1373 70.0054 48.8369 69.3673 51.3319ZM79.3817 69.0718C60.8779 69.0718 42.3769 69.0718 23.8731 69.0718C24.2508 65.4294 22.4825 58.7884 27.7873 58.1074C33.0921 57.4264 37.9276 58.1703 43.3297 57.9128C48.7318 57.6553 53.5216 58.1989 59.0667 57.9128C64.6119 57.6267 68.9152 58.4164 74.8037 57.9128C80.6922 57.4092 79.582 64.5338 79.3817 69.0718ZM82.5291 69.0718C81.7852 66.1876 82.5434 62.983 81.9569 59.9157C85.1415 61.7154 84.7838 66.6082 82.5291 69.0718ZM79.6679 71.6469C80.0227 74.7485 76.5462 74.0676 74.2314 74.2221C71.9167 74.3766 68.9667 74.1419 66.506 74.2221C64.0453 74.3022 61.3071 74.1648 58.7806 74.2221C56.2541 74.2793 53.6188 74.1477 51.0551 74.2221C48.4915 74.2965 45.9249 74.0819 43.3297 74.2221C40.7345 74.3623 38.2395 73.9245 35.6043 74.2221C32.9691 74.5196 30.5971 73.5668 27.8789 74.2221C25.1606 74.8773 22.3881 72.1047 25.5898 71.6469C28.7916 71.1891 30.4569 71.8529 33.3153 71.6469C36.1737 71.4409 38.3368 71.7413 41.0407 71.6469C43.7446 71.5525 46.1338 71.6898 48.7661 71.6469C51.3985 71.604 53.8907 71.3808 56.4916 71.6469C59.0925 71.6269 61.6304 71.6555 64.217 71.6469C66.8036 71.6383 69.3616 71.6526 71.9424 71.6469C74.5233 71.6412 77.087 71.6498 79.6679 71.6469ZM27.8789 81.0891C26.0677 81.0891 23.6814 81.0891 21.8702 81.0891C22.7 78.8974 21.7471 76.3108 24.7315 75.9388C27.7186 75.5669 28.3452 78.2479 27.8789 81.0891ZM34.4598 76.225C34.4598 77.75 34.4598 79.5641 34.4598 81.0891C33.527 80.6599 30.8632 81.8187 30.2423 80.7286C29.6214 79.6413 30.5541 77.4009 30.1679 76.225C31.5041 76.225 33.1236 76.225 34.4598 76.225ZM63.9309 76.5111C63.9309 78.0361 63.9309 79.5641 63.9309 81.0891C55.1554 81.0891 45.5243 81.0891 36.7488 81.0891C36.7488 79.5641 36.7488 77.75 36.7488 76.225C45.5243 76.225 55.1554 76.225 63.9309 76.5111ZM71.084 76.225C70.9095 77.2579 72.157 79.6013 71.2757 80.7086C70.3945 81.8159 66.898 80.6685 65.6476 81.0891C65.6476 79.5641 65.6476 77.75 65.6476 76.225C67.27 76.225 69.4617 76.225 71.084 76.225ZM78.5234 76.225C78.5234 77.75 79.0956 79.5641 78.5234 81.0891C77.1871 81.0891 74.4231 81.0891 73.0869 81.0891C73.0869 79.5641 73.0869 77.75 73.0869 76.225C74.4231 76.225 77.1871 76.225 78.5234 76.225ZM81.0985 76.225C81.4676 77.6298 81.542 79.6871 81.9569 81.0891C79.9683 81.3638 80.8524 77.2693 81.0985 76.225Z" fill="black"/>
</svg>
