<svg width="39" height="34" viewBox="0 0 39 34" fill="none" xmlns="http://www.w3.org/2000/svg">
<path d="M23.9932 29.2116C25.9071 29.2116 27.3868 27.5191 28.7369 25.9752C28.983 25.6928 29.2284 25.4123 29.4745 25.1439L36.8495 17.0939C37.5479 16.3316 38.2875 15.4267 38.2233 14.333C38.1273 12.6975 36.4402 11.8749 35.2083 11.2745V11.2748C32.9671 10.1442 30.9352 8.63955 29.2001 6.82582L29.0412 6.6653C27.1596 4.7617 26.0267 3.61237 22.9079 3.90249L17.5161 4.40271C16.4038 4.44334 15.3075 4.68145 14.2783 5.10607C13.0084 5.71719 12.0947 6.83148 11.3679 7.84125L11.3683 7.84092C9.76504 10.0672 8.50351 12.5204 7.62571 15.1193C7.29934 15.8843 7.20709 16.7289 7.36062 17.5465C7.53113 18.1206 7.85849 18.6361 8.30645 19.0341C8.85329 19.55 9.43541 20.0272 10.0486 20.4618C10.2411 20.5987 10.5078 20.5544 10.646 20.3629C10.7839 20.1714 10.7416 19.9043 10.5511 19.7647C9.9703 19.3535 9.41882 18.9019 8.90098 18.4136C8.56795 18.1235 8.32217 17.7469 8.19096 17.3252C8.08938 16.6712 8.17564 16.0015 8.43974 15.3944C9.2903 12.8767 10.5125 10.4998 12.0654 8.34275C12.7292 7.42097 13.5551 6.40753 14.6511 5.87996C15.1369 5.65783 15.6521 5.50531 16.1806 5.42638C17.6003 6.09111 18.9128 6.96329 20.0758 8.01407C20.4761 8.40205 21.0117 8.61885 21.5692 8.61818C21.5881 8.61818 21.6075 8.61785 21.6268 8.61718H21.6264C22.1953 8.60386 22.7348 8.36175 23.1228 7.94579C24.0193 7.04191 24.8219 6.04987 25.5176 4.98383C26.5373 5.35915 27.2996 6.12515 28.4306 7.26911L28.5895 7.4303H28.5898C30.3926 9.31292 32.5036 10.8742 34.8315 12.0471C36.132 12.6808 37.3043 13.3366 37.3659 14.3836C37.4105 15.1422 36.8224 15.852 36.2163 16.5133L28.8413 24.563C28.5909 24.8364 28.3408 25.1222 28.09 25.4096C26.2091 27.5619 24.5832 29.4189 22.0066 27.6105L22.0069 27.6102C21.8127 27.474 21.545 27.5209 21.4084 27.7151C21.2722 27.9093 21.3192 28.177 21.5134 28.3132C22.2257 28.8647 23.0932 29.1787 23.9935 29.2114L23.9932 29.2116ZM22.4959 7.35791C22.2648 7.60602 21.9431 7.75056 21.6037 7.75855C21.2573 7.76421 20.9223 7.63366 20.6709 7.39488C19.7731 6.56097 18.7763 5.83998 17.7032 5.24779L22.9877 4.75724C23.5372 4.69762 24.0921 4.70095 24.6409 4.76789C23.9978 5.6884 23.2805 6.55463 22.4959 7.35791Z" fill="white"/>
<path d="M35.9307 0.0446744C35.8288 -0.00594631 35.7106 -0.0139393 35.6027 0.0226944C35.4948 0.0589946 35.4059 0.136921 35.3552 0.239168C34.9629 1.03145 34.2719 1.63558 33.4343 1.91828C32.5968 2.20136 31.681 2.13975 30.8883 1.74744C30.6759 1.6422 30.4184 1.72912 30.3132 1.94193C30.208 2.1544 30.2952 2.41183 30.5077 2.51707C31.3 2.90939 31.9037 3.60042 32.1868 4.43831C32.4695 5.27589 32.4079 6.19169 32.0156 6.98397C31.9104 7.19645 31.9973 7.45421 32.2101 7.55945C32.4226 7.66502 32.6803 7.57777 32.7856 7.3653C33.1789 6.57368 33.8699 5.97025 34.7072 5.68746C35.5447 5.40472 36.4599 5.46566 37.2525 5.85664C37.3084 5.88362 37.3694 5.89827 37.4313 5.89893C37.435 5.89893 37.4386 5.9016 37.4423 5.9016H37.4426C37.4863 5.90093 37.5296 5.89361 37.5712 5.87995C37.5815 5.87662 37.5905 5.87129 37.6005 5.8673H37.6008C37.6371 5.85264 37.6714 5.83299 37.7027 5.80902C37.7137 5.80069 37.7241 5.7927 37.7344 5.78304C37.7727 5.74907 37.8043 5.70811 37.828 5.66248C37.8786 5.56057 37.8862 5.44235 37.8499 5.33444C37.8133 5.22654 37.7354 5.13762 37.6335 5.087C36.8419 4.69369 36.2388 4.00263 35.956 3.16542C35.6732 2.32785 35.7342 1.41264 36.1255 0.620101C36.1758 0.518195 36.1838 0.39997 36.1471 0.292062C36.1108 0.184162 36.033 0.0952909 35.9307 0.0446744ZM35.7972 4.65685C34.865 4.65352 33.9582 4.95958 33.2185 5.52638C33.2268 4.59623 32.9218 3.69039 32.353 2.95403L32.364 2.9547C33.2911 2.95437 34.192 2.64631 34.9253 2.07912C34.923 3.01131 35.2294 3.91775 35.7972 4.65675L35.7972 4.65685Z" fill="white"/>
<path d="M0.0227137 9.80662C0.0400318 9.85624 0.0666732 9.90187 0.100642 9.94183C0.111632 9.95382 0.123288 9.96481 0.135611 9.97546C0.159923 9.99944 0.187565 10.0204 0.217204 10.0377C0.232524 10.0467 0.248509 10.0547 0.26516 10.0617C0.296798 10.0747 0.329767 10.0837 0.363732 10.0887C0.379718 10.092 0.395703 10.0947 0.412022 10.0964C0.418016 10.0967 0.423345 10.099 0.429339 10.099C0.476297 10.099 0.522925 10.0914 0.567216 10.076C1.62226 9.72136 2.77517 9.79962 3.77301 10.2938C4.77076 10.7877 5.5321 11.6573 5.88974 12.7116C5.96534 12.9364 6.20912 13.057 6.43392 12.981C6.65871 12.9051 6.77927 12.6617 6.70334 12.4369C6.34833 11.3815 6.42659 10.2286 6.92048 9.23048C7.4147 8.23273 8.28423 7.47139 9.33894 7.11409C9.5614 7.03682 9.67996 6.79404 9.6047 6.57091C9.5291 6.34745 9.28765 6.22689 9.06352 6.30049C8.00847 6.65683 6.85488 6.57923 5.85678 6.08502C4.85869 5.59081 4.0977 4.72024 3.74167 3.66486C3.66541 3.4404 3.42196 3.31984 3.1975 3.39578C2.97304 3.47171 2.85214 3.71515 2.92774 3.93961C3.28242 4.995 3.20449 6.14826 2.71027 7.14601C2.21605 8.14376 1.34651 8.90475 0.291813 9.2624C0.0673514 9.33833 -0.0532237 9.58183 0.0227137 9.80662ZM3.98447 5.73002C4.83703 6.66818 6.01263 7.24962 7.27578 7.35756C6.34163 8.2131 5.76052 9.38708 5.64628 10.6486C4.7904 9.71446 3.61676 9.13335 2.35497 9.01911C3.28844 8.16391 3.86963 6.99096 3.98447 5.73011V5.73002Z" fill="white"/>
<path d="M17.3758 29.5433C19.5694 28.1309 21.6795 26.7029 23.376 24.7613C24.0304 24.0126 24.6818 23.2613 25.3306 22.507C26.4003 21.2688 27.5066 19.9883 28.6213 18.7378C28.6519 18.7035 28.6812 18.6688 28.7085 18.6325L28.7095 18.6312L28.7099 18.6315C29.0296 18.1952 29.1105 17.6284 28.9253 17.1202C28.7405 16.6123 28.3139 16.23 27.7887 16.1018L28.217 15.6326C28.2503 15.5949 28.2863 15.553 28.3129 15.5157C28.5523 15.192 28.6619 14.7907 28.6203 14.39C28.5783 13.9897 28.3882 13.6194 28.0874 13.3523C27.7691 13.0652 27.3488 12.919 26.9211 12.946C26.7057 12.9577 26.4945 13.0129 26.3007 13.1079L26.6207 12.6743V12.6739C26.8768 12.3322 26.9844 11.902 26.9195 11.48C26.8559 11.0567 26.6267 10.6757 26.2824 10.4213C25.938 10.1668 25.5071 10.0593 25.0835 10.1226C24.6602 10.1855 24.2789 10.4143 24.0241 10.758L23.8106 11.0477C23.8573 10.7556 23.8223 10.4563 23.7097 10.1825C23.5972 9.90879 23.4113 9.67167 23.1726 9.49682L23.084 9.43588C23.0723 9.42722 23.0603 9.41923 23.048 9.4119C22.683 9.19343 22.2471 9.12783 21.8341 9.2284C21.4212 9.32931 21.0645 9.58841 20.8411 9.95042L17.8445 14.6119L16.5274 16.7709L17.3826 13.7826H17.3829C17.4908 13.3703 17.4315 12.932 17.2181 12.563C17.0046 12.194 16.6542 11.9239 16.2429 11.8117L15.7367 11.6721C15.3264 11.5656 14.8905 11.6235 14.5225 11.8337C14.1541 12.0438 13.8827 12.3898 13.7662 12.7975L12.4507 16.9567C12.2868 17.4742 12.1066 17.9958 11.9258 18.5206C11.4566 19.7865 11.0766 21.0833 10.7878 22.4021C10.6536 23.3495 10.7335 24.3153 11.0216 25.2281C11.0409 25.3094 11.0606 25.3917 11.0802 25.4743L10.6136 26.0551L10.237 25.7773H10.2373C10.0465 25.6368 9.77806 25.6771 9.63685 25.8676L7.90445 28.2084C7.83651 28.3 7.80787 28.4149 7.82485 28.5278C7.84184 28.6407 7.90312 28.7419 7.9947 28.8096L14.9165 33.916C15.107 34.0568 15.3757 34.0165 15.5166 33.826L17.249 31.4855V31.4852C17.3169 31.3936 17.3456 31.2787 17.3286 31.1661C17.3116 31.0532 17.2507 30.952 17.1587 30.8844L16.6412 30.5027L17.1328 29.6975L17.3758 29.5433ZM15.0809 32.9701L8.85086 28.3736L10.0724 26.7232L10.4344 26.9903L10.4354 26.9913L15.8146 30.9604H15.8149L16.3024 31.32L15.0809 32.9701ZM16.5878 29.0251H16.5882C16.5326 29.0604 16.4856 29.108 16.4513 29.1646L15.9471 29.9905L15.2274 29.4594L11.3056 26.5657L11.8804 25.8493V25.8497C11.9627 25.7474 11.994 25.6132 11.965 25.4853C11.9297 25.3308 11.8928 25.1783 11.8568 25.0274C11.5984 24.2341 11.5214 23.3929 11.6313 22.566C11.9128 21.2868 12.2827 20.0286 12.7383 18.8004C12.9211 18.2689 13.1033 17.7403 13.2695 17.2158L14.5899 13.04C14.7002 12.6394 15.1105 12.4003 15.5134 12.5018L16.0176 12.641C16.4159 12.7483 16.6547 13.1552 16.5542 13.5556L15.7229 16.4546L14.9213 19.4372C14.8657 19.6437 14.9703 19.8595 15.1667 19.9434C15.3629 20.0277 15.5914 19.9547 15.7026 19.7722L18.5723 15.0678L21.5699 10.4047H21.5696C21.785 10.0527 22.242 9.93716 22.599 10.1446L22.6626 10.1886C22.974 10.4221 23.0592 10.8523 22.8604 11.1867L19.0078 17.5606C18.8896 17.7571 18.9462 18.0119 19.1367 18.1394C19.3276 18.267 19.5847 18.2223 19.7209 18.0378L24.715 11.2683C24.9634 10.934 25.4357 10.8637 25.7704 11.1115C25.9319 11.2294 26.0395 11.4069 26.0694 11.6047C26.0994 11.8022 26.0488 12.0037 25.9296 12.1642L20.98 18.8725C20.8441 19.0567 20.8768 19.3157 21.0546 19.4603C21.2321 19.6051 21.4922 19.5848 21.6454 19.4143L26.4504 14.0545C26.7198 13.7535 27.1784 13.7175 27.4911 13.9733C27.8038 14.2287 27.8601 14.6853 27.619 15.009C27.606 15.0263 27.592 15.0426 27.5773 15.0583L22.0979 21.0698C21.9388 21.245 21.9514 21.5158 22.1259 21.6756C22.3004 21.8355 22.5715 21.8238 22.7317 21.65L26.8486 17.167L26.849 17.1674C26.9815 17.0178 27.1687 16.9279 27.3682 16.9179C27.6599 16.9029 27.9343 17.0571 28.0735 17.3139C28.2124 17.571 28.1911 17.885 28.0186 18.1212C28.0056 18.1385 27.9909 18.1545 27.9729 18.1755C26.8609 19.422 25.7526 20.7052 24.6806 21.9461C24.0312 22.6977 23.3808 23.448 22.7294 24.1964C21.1062 26.0534 19.0507 27.4438 16.9136 28.8196L16.5878 29.0251Z" fill="white"/>
</svg>
