<svg width="28" height="28" viewBox="0 0 28 28" fill="none" xmlns="http://www.w3.org/2000/svg">
<path d="M23.7044 27.5648C22.6744 27.5648 21.7054 27.163 20.9769 26.4343L12.6511 18.1085C12.4825 17.9399 12.4825 17.6672 12.6511 17.5002C12.8198 17.3332 13.0925 17.3315 13.2594 17.5002L21.5834 25.826C22.1487 26.3912 22.9022 26.7034 23.7026 26.7034C24.5029 26.7034 25.2548 26.3912 25.8217 25.826C26.387 25.2607 26.6992 24.5072 26.6992 23.7068C26.6992 22.9065 26.387 22.1546 25.8217 21.5877L17.4959 13.2619C17.3273 13.0933 17.3273 12.8206 17.4959 12.6536C17.6645 12.4849 17.9372 12.4849 18.1042 12.6536L26.43 20.9776C27.1585 21.706 27.5606 22.675 27.5606 23.705C27.5606 24.735 27.1587 25.704 26.43 26.4325C25.7032 27.163 24.7342 27.5649 23.7044 27.5649L23.7044 27.5648Z" fill="white"/>
<path d="M23.1032 25.103C22.9937 25.103 22.8825 25.0619 22.7981 24.9774L14.4402 16.6196C14.2716 16.4509 14.2716 16.1782 14.4402 16.0112C14.6088 15.8426 14.8815 15.8426 15.0485 16.0112L23.4064 24.3691C23.575 24.5378 23.575 24.8105 23.4064 24.9774C23.3239 25.0619 23.2127 25.103 23.1032 25.103Z" fill="white"/>
<path d="M24.6695 23.5365C24.56 23.5365 24.4488 23.4953 24.3644 23.4109L16.0083 15.0524C15.8397 14.8838 15.8397 14.6111 16.0083 14.4441C16.1769 14.2755 16.4496 14.2755 16.6166 14.4441L24.9745 22.802C25.1432 22.9706 25.1432 23.2433 24.9745 23.4103C24.8901 23.4947 24.7808 23.5361 24.6694 23.5361L24.6695 23.5365Z" fill="white"/>
<path d="M11.5689 13.2315C11.4594 13.2315 11.3482 13.1903 11.2638 13.1059L2.58985 4.43193L1.09344 3.79498C1.00546 3.75737 0.931898 3.69091 0.885307 3.60648L0.0544222 2.10655C-0.0390016 1.93792 -0.00849245 1.72979 0.126085 1.59332L1.59035 0.129054C1.72682 -0.00741303 1.93495 -0.0360341 2.10358 0.0573897L3.60545 0.888275C3.68988 0.934868 3.75611 1.00842 3.79395 1.0964L4.4309 2.59282L13.1048 11.2668C13.2735 11.4354 13.2735 11.7081 13.1048 11.8751C12.9362 12.0421 12.6635 12.0437 12.4965 11.8751L3.76143 3.14362C3.72194 3.10412 3.69143 3.05918 3.66991 3.00715L3.05808 1.56989L1.9706 0.967022L0.965641 1.97198L1.56851 3.05946L3.00577 3.67129C3.05591 3.69281 3.10274 3.72332 3.14223 3.76282L11.8755 12.4961C12.0442 12.6647 12.0442 12.9374 11.8755 13.1044C11.7894 13.1903 11.6783 13.2317 11.5688 13.2317L11.5689 13.2315Z" fill="white"/>
<path d="M5.73159 27.5648C5.07314 27.5648 4.41803 27.4517 3.79361 27.2275C3.65549 27.1774 3.55142 27.0605 3.51902 26.917C3.48661 26.7734 3.52989 26.6228 3.63396 26.5187L6.72209 23.4306L4.13468 20.8432L1.04655 23.9313C0.942479 24.0354 0.791826 24.0784 0.648263 24.0462C0.504701 24.0138 0.386211 23.9098 0.337725 23.7716C-0.0248477 22.7632 -0.0965107 21.674 0.1277 20.6244C0.359244 19.5459 0.895676 18.5608 1.67994 17.7785C2.46396 16.9944 3.44736 16.4578 4.52589 16.2262C5.48586 16.02 6.47804 16.063 7.41131 16.3483L16.3474 7.41214C16.0622 6.47911 16.0191 5.48669 16.2254 4.52672C16.4569 3.44826 16.9934 2.46316 17.7776 1.68077C18.5616 0.89675 19.545 0.360123 20.6236 0.128531C21.6732 -0.0975754 22.7623 -0.0240172 23.7708 0.338556C23.9089 0.388696 24.013 0.505532 24.0454 0.649095C24.0778 0.792658 24.0345 0.943316 23.9304 1.04738L20.8423 4.13551L23.4297 6.72292L26.5179 3.63479C26.6219 3.53072 26.7726 3.48768 26.9161 3.51985C27.0597 3.55225 27.1782 3.65631 27.2267 3.79444C27.5892 4.80291 27.6609 5.89209 27.4367 6.94167C27.2052 8.02013 26.6687 9.00523 25.8845 9.78761C25.1004 10.5716 24.117 11.1083 23.0385 11.3399C22.0785 11.5461 21.0864 11.503 20.1531 11.2178L11.217 20.1539C11.5022 21.087 11.5453 22.0794 11.339 23.0394C11.1075 24.1178 10.571 25.1029 9.78678 25.8853C9.00276 26.6693 8.01935 27.2059 6.94083 27.4375C6.54089 27.5217 6.13532 27.5648 5.73159 27.5648ZM4.76448 26.6067C6.34723 26.9243 8.01936 26.4362 9.17846 25.277C10.5063 23.9492 10.953 21.9503 10.3197 20.1828C10.2641 20.0267 10.3017 19.8507 10.4202 19.7325L19.7311 10.4216C19.8496 10.3031 20.0236 10.2636 20.1814 10.321C21.9488 10.9563 23.9478 10.5076 25.2756 9.17986C26.4348 8.02069 26.9229 6.34832 26.6053 4.76587L23.7343 7.63688C23.6536 7.71753 23.5441 7.76247 23.4292 7.76247C23.3142 7.76247 23.205 7.71753 23.1241 7.63688L19.9284 4.44115C19.7597 4.27252 19.7597 3.99982 19.9284 3.83284L22.7994 0.961826C21.2166 0.644191 19.5445 1.13235 18.3854 2.2915C17.0576 3.61929 16.6108 5.61825 17.2442 7.38573C17.2998 7.54183 17.2603 7.71779 17.1437 7.83605L7.83277 17.1469C7.71428 17.2654 7.54021 17.3049 7.38245 17.2475C5.61503 16.6122 3.61601 17.0609 2.28822 18.3887C1.12905 19.5478 0.64092 21.2202 0.958549 22.8026L3.82956 19.9316C3.9982 19.763 4.27089 19.763 4.43787 19.9316L7.6336 23.1274C7.71425 23.208 7.75918 23.3175 7.75918 23.4325C7.75918 23.5474 7.71425 23.6567 7.6336 23.7376L4.76448 26.6067Z" fill="white"/>
</svg>
