<svg width="50" height="32" viewBox="0 0 50 32" fill="none" xmlns="http://www.w3.org/2000/svg">
<rect x="0.0149231" width="49.6716" height="32" rx="7.68185" fill="#F7F7F7"/>
<path fill-rule="evenodd" clip-rule="evenodd" d="M49.7054 6.03236H45.594L43.445 12.1994L41.2024 6.03236H36.9977V15.6349L32.6994 6.03236H29.2424L24.9441 15.8434H27.934L28.775 13.8813H33.2602L34.1011 15.8434H39.7074V9.0223L42.2303 15.8434H44.5662L47.089 9.0223V15.8434H49.7054V17.3384H46.248L43.445 20.4219L40.5484 17.3384H28.6817V27.1494H40.4551L43.3514 23.9726L46.248 27.1494H49.7054V28.3639H45.594L43.3514 25.9347L41.1088 28.3639H27.1867V17.1515H22.7015L28.3078 4.53711H33.7273L35.6894 8.83539V4.53711H42.4172L43.5383 7.80755L44.6598 4.53711H49.7054V6.03236ZM49.7054 19.4874L47.1826 22.1971L49.7054 24.9068V27.1494L45.1269 22.1971L49.7054 17.3384V19.4874ZM36.9977 27.1494V24.8135H31.3914V23.3185H36.9041V21.0759H31.3914V19.581H36.9977V17.3384L41.6695 22.1971L36.9977 27.1494ZM29.6159 11.732L30.9242 8.55517L32.2323 11.732H29.6159Z" fill="#006FCF"/>
</svg>
