<svg width="80" height="81" viewBox="0 0 80 81" fill="none" xmlns="http://www.w3.org/2000/svg">
<path d="M64 0.830078H16C7.16344 0.830078 0 7.99352 0 16.8301V64.8301C0 73.6666 7.16344 80.8301 16 80.8301H64C72.8366 80.8301 80 73.6666 80 64.8301V16.8301C80 7.99352 72.8366 0.830078 64 0.830078Z" fill="#FFCCEF"/>
<path d="M27.2633 62.3777C27.2633 69.4123 32.9665 75.1158 40.0008 75.1158C47.035 75.1158 52.7382 69.4123 52.7382 62.3777H27.262H27.2633Z" fill="#FB6E44"/>
<path d="M62.8577 49.1924V29.4363C62.8577 16.7934 52.6228 6.54443 40.0001 6.54443C27.3775 6.54443 17.1425 16.7934 17.1425 29.4363V49.5454L5.71436 62.3778H74.2859L62.8577 49.1924Z" fill="#0A0777"/>
</svg>
