<svg width="80" height="81" viewBox="0 0 80 81" fill="none" xmlns="http://www.w3.org/2000/svg">
<path d="M64 0.830078H16C7.16344 0.830078 0 7.99352 0 16.8301V64.8301C0 73.6666 7.16344 80.8301 16 80.8301H64C72.8366 80.8301 80 73.6666 80 64.8301V16.8301C80 7.99352 72.8366 0.830078 64 0.830078Z" fill="#FFCCEF"/>
<path d="M40.0001 75.1159C58.9355 75.1159 74.2858 59.7656 74.2858 40.8301C74.2858 21.8947 58.9355 6.54443 40.0001 6.54443C21.0646 6.54443 5.71436 21.8947 5.71436 40.8301C5.71436 59.7656 21.0646 75.1159 40.0001 75.1159Z" fill="white"/>
<path d="M46.8242 16.9038H33.1758V34.0055H46.8242V16.9038Z" fill="#FB6E44"/>
<path d="M46.8242 34.0054H33.1758V47.6538H46.8242V34.0054Z" fill="#FB6E44"/>
<path d="M64.0905 34.0054H46.8242V47.6538H64.0905V34.0054Z" fill="#0A0777"/>
</svg>
