<?xml version="1.0" encoding="utf-8"?>
<!-- Generator: Adobe Illustrator 23.0.1, SVG Export Plug-In . SVG Version: 6.00 Build 0)  -->
<svg version="1.1" id="Capa_1" xmlns="http://www.w3.org/2000/svg" xmlns:xlink="http://www.w3.org/1999/xlink" x="0px" y="0px"
	 viewBox="0 0 518 125" style="enable-background:new 0 0 518 125;" xml:space="preserve">
<style type="text/css">
	.st0{fill:#2F4E7D;}
	.st1{fill:#A11217;}
</style>
<title>Logo elperiodic.com</title>
<g>
	<g>
		<path class="st0" d="M21.9,73c0,1.2,0.3,2.3,1,3.3c0.7,1,1.6,1.9,2.6,2.6c1.2,0.8,2.5,1.4,3.9,1.8c1.6,0.4,3.2,0.7,4.8,0.7h28.5
			c0.6-0.1,1.1,0.3,1.2,0.9c0,0.1,0,0.2,0,0.3v12.2C64,95.4,63.6,96,63,96c-0.1,0-0.2,0-0.3,0H42.4c-5.7,0.1-11.3-0.5-16.9-1.7
			c-4-0.9-7.8-2.7-10.9-5.4c-2.8-2.5-4.8-5.7-5.9-9.3c-1.3-4.4-1.8-9-1.8-13.5c0-6.4,1-11.7,2.9-15.9c1.7-3.9,4.4-7.3,7.7-10
			c3.2-2.5,6.8-4.3,10.7-5.3c3.9-1,7.9-1.5,11.9-1.5c4.3-0.1,8.7,0.5,12.8,1.7c3.3,1,6.3,2.7,8.9,4.9c2.3,2.1,4.1,4.8,5.1,7.7
			c1.1,3.3,1.7,6.7,1.6,10.2v12.5c0.1,0.6-0.3,1.1-0.9,1.2c-0.1,0-0.2,0-0.3,0H23.1c-0.6-0.1-1.1,0.3-1.2,0.9
			C21.9,72.8,21.9,72.9,21.9,73z M53.9,57.8c0.6,0.1,1.1-0.3,1.2-0.9c0-0.1,0-0.2,0-0.3c0-3-1.6-5.8-4.2-7.3
			c-2.8-1.8-6.7-2.7-11.8-2.7c-1.8,0-3.6,0.3-5.3,0.7c-1.9,0.5-3.8,1.1-5.6,2c-1.7,0.8-3.2,1.8-4.5,3.1c-1.1,1.1-1.8,2.6-1.8,4.1
			c-0.1,0.6,0.3,1.1,0.9,1.2c0.1,0,0.2,0,0.3,0L53.9,57.8z"/>
		<path class="st0" d="M78.8,10H91c0.6-0.1,1.1,0.3,1.2,0.9c0,0.1,0,0.2,0,0.3v83.6c0.1,0.6-0.4,1.1-0.9,1.2c-0.1,0-0.2,0-0.3,0
			H78.8c-0.6,0.1-1.1-0.3-1.2-0.9c0-0.1,0-0.2,0-0.3V11.2c-0.1-0.6,0.3-1.1,0.9-1.2C78.6,10,78.7,10,78.8,10z"/>
		<path class="st0" d="M116.9,117.4c0.1,0.6-0.3,1.1-0.9,1.2c-0.1,0-0.2,0-0.3,0h-12.2c-0.6,0.1-1.1-0.3-1.2-0.9c0-0.1,0-0.2,0-0.3
			V34.7c-0.1-0.6,0.3-1.1,0.9-1.2c0.1,0,0.2,0,0.3,0h29.6c4.1-0.2,8.2,0.7,11.9,2.5c3,1.6,5.6,3.9,7.6,6.7c1.9,2.9,3.3,6.2,4,9.6
			c0.8,3.7,1.2,7.4,1.2,11.2c0.1,5-0.6,9.9-2,14.6c-1.1,3.7-3,7.1-5.5,10.1c-2.3,2.6-5.2,4.6-8.5,5.9c-3.5,1.3-7.2,2-11,1.9h-12.6
			c-0.6-0.1-1.1,0.3-1.2,0.9c0,0.1,0,0.2,0,0.3L116.9,117.4z M116.9,80.2c-0.1,0.6,0.3,1.1,0.9,1.2c0.1,0,0.2,0,0.3,0H134
			c1.3,0,2.5-0.4,3.5-1.1c1.2-0.8,2.2-1.8,3.1-2.9c0.9-1.2,1.7-2.5,2.3-3.9c0.6-1.3,0.9-2.8,0.9-4.2V60c0-1.4-0.3-2.8-0.9-4.1
			c-0.6-1.4-1.3-2.7-2.3-3.8c-0.9-1.1-1.9-2-3.1-2.8c-1-0.7-2.3-1.1-3.5-1.1h-15.9c-0.6-0.1-1.1,0.3-1.2,0.9c0,0.1,0,0.2,0,0.3V80.2
			z"/>
		<path class="st0" d="M176.1,73c0,1.2,0.4,2.3,1,3.3c0.7,1,1.6,1.9,2.6,2.6c1.2,0.8,2.5,1.4,3.9,1.8c1.6,0.4,3.2,0.7,4.8,0.7h28.5
			c0.6-0.1,1.1,0.3,1.2,0.9c0,0.1,0,0.2,0,0.3v12.2c0.1,0.6-0.3,1.1-0.9,1.2c-0.1,0-0.2,0-0.3,0h-20.3c-5.7,0.1-11.3-0.5-16.9-1.7
			c-4-0.9-7.8-2.7-10.9-5.4c-2.8-2.5-4.8-5.7-5.9-9.3c-1.2-4.4-1.8-9-1.7-13.6c0-6.4,1-11.7,2.9-15.9c1.7-3.9,4.4-7.3,7.7-10
			c3.1-2.5,6.8-4.3,10.7-5.2c3.9-1,7.9-1.5,11.9-1.5c4.3-0.1,8.7,0.5,12.8,1.7c3.3,1,6.3,2.7,8.9,4.9c2.3,2.1,4.1,4.8,5.1,7.7
			c1.1,3.3,1.7,6.7,1.6,10.2v12.5c0.1,0.6-0.3,1.1-0.9,1.2c-0.1,0-0.2,0-0.3,0h-44.4c-0.6-0.1-1.1,0.3-1.2,0.9
			C176.1,72.8,176.1,72.9,176.1,73z M208.1,57.8c0.6,0.1,1.1-0.3,1.2-0.9c0-0.1,0-0.2,0-0.3c0-3-1.6-5.8-4.2-7.3
			c-2.8-1.8-6.7-2.7-11.8-2.7c-1.8,0-3.6,0.3-5.3,0.7c-1.9,0.5-3.8,1.1-5.6,2c-1.7,0.8-3.2,1.8-4.5,3.1c-1.1,1.1-1.8,2.6-1.8,4.1
			c-0.1,0.6,0.3,1.1,0.9,1.2c0.1,0,0.2,0,0.3,0L208.1,57.8z"/>
		<path class="st0" d="M263.6,33.5c0.6-0.1,1.1,0.3,1.2,0.9c0,0.1,0,0.2,0,0.3V47c0.1,0.6-0.3,1.1-0.9,1.2c-0.1,0-0.2,0-0.3,0H252
			c-0.7,0-1.4,0.2-1.9,0.6c-0.6,0.4-1.1,0.9-1.5,1.4c-0.4,0.5-0.8,1.1-1,1.7c-0.2,0.5-0.3,1.1-0.4,1.6v41.4c0.1,0.6-0.3,1.1-0.9,1.2
			c-0.1,0-0.2,0-0.3,0h-13.5c-0.6,0.1-1.1-0.3-1.2-0.9c0-0.1,0-0.2,0-0.3V49.3c0-2.1,0.4-4.1,1.3-6c1.6-3.8,4.7-6.8,8.5-8.5
			c1.9-0.8,4-1.3,6.1-1.3L263.6,33.5z"/>
		<path class="st0" d="M278.6,10L278.6,10c4,0,7.3,3.3,7.3,7.3l0,0c0,4-3.3,7.3-7.3,7.3l0,0c-4,0-7.3-3.3-7.3-7.3l0,0
			C271.3,13.3,274.5,10,278.6,10z"/>
		<path class="st0" d="M272.5,33.5h12.2c0.7,0,1.2,0.5,1.2,1.2v60.1c0,0.7-0.5,1.2-1.2,1.2h-12.2c-0.7,0-1.2-0.5-1.2-1.2V34.7
			C271.3,34.1,271.8,33.5,272.5,33.5z"/>
		<path class="st0" d="M355.7,71.8c0.1,4-0.3,8-1.3,11.9c-0.6,2.8-2,5.3-3.8,7.4c-1.8,1.9-4,3.2-6.5,3.8c-3.1,0.8-6.3,1.1-9.5,1.1
			h-21.4c-3.2,0.1-6.3-0.6-9.1-2c-2.3-1.2-4.3-3-5.8-5.2c-1.5-2.2-2.5-4.6-3-7.2c-0.6-2.7-0.8-5.5-0.8-8.2V52.4
			c0-2.7,0.5-5.3,1.5-7.8c0.9-2.2,2.3-4.2,4-5.9c1.7-1.7,3.7-2.9,5.9-3.8c2.3-0.9,4.8-1.3,7.3-1.3h24.2c2.2,0,4.4,0.4,6.5,1.2
			c2.2,0.8,4.2,2,5.9,3.5c1.7,1.6,3.2,3.5,4.2,5.6c1.1,2.4,1.7,5,1.6,7.6L355.7,71.8z M341,54.2c0-0.9-0.3-1.9-0.9-2.6
			c-0.6-0.8-1.4-1.4-2.3-1.9c-1-0.5-2.1-0.9-3.2-1.1c-1.2-0.2-2.4-0.4-3.6-0.4h-13.1c-1,0-2.1,0.1-3.1,0.3c-1,0.2-1.9,0.5-2.8,1
			c-0.8,0.5-1.6,1.1-2.1,1.9c-0.6,0.8-0.9,1.9-0.8,2.9v19.2c-0.1,1.4,0.3,2.8,1,4c0.7,1,1.5,1.9,2.6,2.5c1,0.6,2.2,1,3.4,1.2
			c1.1,0.2,2.2,0.3,3.4,0.3h11c2.6,0.1,5.2-0.6,7.5-2c2.1-1.3,3.2-3.1,3.2-5.2v-20L341,54.2z"/>
		<path class="st0" d="M406.8,32.3V11.2c-0.1-0.6,0.3-1.1,0.9-1.2c0.1,0,0.2,0,0.3,0h12.2c0.6-0.1,1.1,0.3,1.2,0.9
			c0,0.1,0,0.2,0,0.3v83.6c0.1,0.6-0.3,1.1-0.9,1.2c-0.1,0-0.2,0-0.3,0H383c-3.5,0.1-7-0.9-9.8-2.9c-2.7-2-5-4.5-6.7-7.5
			c-1.8-3.1-3.1-6.5-3.9-10c-0.8-3.4-1.2-6.9-1.3-10.4c0-4.4,0.4-8.7,1.3-13c0.7-3.5,2-6.9,3.9-10c1.7-2.7,4-4.9,6.7-6.4
			c3-1.6,6.4-2.4,9.8-2.3h22.7c0.6,0.1,1.1-0.4,1.2-0.9C406.9,32.5,406.9,32.4,406.8,32.3z M406.8,49.3c0.1-0.6-0.3-1.1-0.9-1.2
			c-0.1,0-0.2,0-0.3,0h-13.1c-2.3,0-4.5,0.2-6.8,0.7c-1.9,0.4-3.8,1.3-5.3,2.5c-1.6,1.4-2.8,3.2-3.4,5.2c-0.9,2.8-1.3,5.7-1.2,8.6
			c-0.1,2.7,0.3,5.4,1.2,8c0.7,1.9,1.8,3.6,3.4,4.9c1.5,1.2,3.3,2.1,5.2,2.5c2.3,0.5,4.6,0.7,6.9,0.7h13.1c0.6,0.1,1.1-0.3,1.2-0.9
			c0-0.1,0-0.2,0-0.3V49.3z"/>
		<path class="st1" d="M438.8,10L438.8,10c4,0,7.3,3.3,7.3,7.3l0,0c0,4-3.3,7.3-7.3,7.3l0,0c-4,0-7.3-3.3-7.3-7.3l0,0
			C431.5,13.3,434.7,10,438.8,10z"/>
		<path class="st0" d="M432.7,33.5h12.2c0.7,0,1.2,0.5,1.2,1.2v60.1c0,0.7-0.5,1.2-1.2,1.2h-12.2c-0.7,0-1.2-0.5-1.2-1.2V34.7
			C431.5,34.1,432,33.5,432.7,33.5z"/>
		<path class="st0" d="M505.4,81.4c0.6-0.1,1.1,0.3,1.2,0.9c0,0.1,0,0.2,0,0.3v12.2c0.1,0.6-0.3,1.1-0.9,1.2c-0.1,0-0.2,0-0.3,0
			h-22.6c-4,0.1-8.1-0.7-11.8-2.3c-3.3-1.5-6.3-3.5-8.8-6.1c-2.3-2.4-4.2-5.3-5.5-8.4c-1.2-2.9-1.9-6-1.9-9.2V59.9
			c-0.1-3.7,0.5-7.5,1.7-11c1.1-3.2,3-6,5.4-8.3c2.7-2.4,5.9-4.2,9.4-5.3c4.4-1.3,9.1-2,13.7-1.9h20.3c0.6-0.1,1.1,0.3,1.2,0.9
			c0,0.1,0,0.2,0,0.3V47c0.1,0.6-0.3,1.1-0.9,1.2c-0.1,0-0.2,0-0.3,0h-22.7c-4.7,0-8.1,1.4-10.4,4.2c-2.3,2.9-3.5,6.6-3.4,10.3v5.2
			c-0.2,3.6,1,7,3.3,9.8c2.2,2.5,5.7,3.8,10.5,3.8L505.4,81.4z"/>
	</g>
	<path class="st0" d="M337.6,22.4l-2,1.4c-0.6,0.4-1.4,0.5-2.2,0.3l-20.5-6.5c-1.3-0.4-2.1-1.9-1.6-3.2c0.2-0.5,0.5-1,1-1.3l3.8-2.5
		c0.7-0.5,1.6-0.6,2.4-0.2l18.7,7.7c1.3,0.5,1.9,2,1.4,3.3C338.4,21.7,338,22.1,337.6,22.4z"/>
	<g>
		<path class="st1" d="M466.8,21.4c0.1,0,0.3,0.1,0.3,0.2c0,0,0,0,0,0.1v2.9c0,0.2-0.1,0.3-0.3,0.3h-5.4c-1,0-1.9-0.2-2.8-0.5
			c-1.5-0.7-2.7-1.9-3.4-3.5c-0.3-0.7-0.4-1.4-0.5-2.2v-2.4c0-0.9,0.1-1.8,0.4-2.6c0.3-0.8,0.7-1.4,1.3-2c0.6-0.6,1.4-1,2.2-1.3
			c1.1-0.3,2.2-0.5,3.3-0.4h4.8c0.1,0,0.3,0.1,0.3,0.2c0,0,0,0,0,0.1v2.9c0,0.1-0.1,0.3-0.2,0.3c0,0,0,0-0.1,0h-5.4
			c-0.9-0.1-1.8,0.3-2.5,1c-0.6,0.7-0.8,1.6-0.8,2.5v1.2c0,0.8,0.2,1.7,0.8,2.3c0.7,0.7,1.6,1,2.5,0.9L466.8,21.4z"/>
		<path class="st1" d="M483.6,19.1c0,0.9-0.1,1.9-0.3,2.8c-0.1,0.7-0.5,1.3-0.9,1.8c-0.4,0.4-1,0.8-1.5,0.9
			c-0.7,0.2-1.5,0.3-2.3,0.3h-5.1c-0.8,0-1.5-0.1-2.2-0.5c-0.5-0.3-1-0.7-1.4-1.2c-0.3-0.5-0.6-1.1-0.7-1.7c-0.1-0.6-0.2-1.3-0.2-2
			v-5c0-0.6,0.1-1.3,0.3-1.9c0.2-0.5,0.6-1,1-1.4c0.4-0.4,0.9-0.7,1.4-0.9c0.6-0.2,1.1-0.3,1.7-0.3h5.8c0.5,0,1.1,0.1,1.5,0.3
			c0.5,0.2,1,0.5,1.4,0.8c0.4,0.4,0.8,0.8,1,1.3c0.3,0.6,0.4,1.2,0.4,1.8L483.6,19.1z M480.1,14.9c0-0.2-0.1-0.4-0.2-0.6
			c-0.2-0.2-0.3-0.3-0.6-0.5c-0.2-0.1-0.5-0.2-0.8-0.3c-0.3-0.1-0.6-0.1-0.8-0.1h-3.1c-0.2,0-0.5,0-0.7,0.1c-0.2,0-0.5,0.1-0.7,0.2
			c-0.2,0.1-0.4,0.3-0.5,0.5c-0.1,0.2-0.2,0.4-0.2,0.7v4.6c0,0.3,0.1,0.7,0.3,0.9c0.2,0.2,0.4,0.4,0.6,0.6c0.2,0.1,0.5,0.2,0.8,0.3
			c0.3,0,0.5,0.1,0.8,0.1h2.6c0.6,0,1.3-0.2,1.8-0.5c0.5-0.2,0.7-0.7,0.8-1.2L480.1,14.9L480.1,14.9z"/>
		<path class="st1" d="M485.7,11.7c0-0.5,0.2-0.9,0.5-1.2c0.3-0.3,0.7-0.5,1.2-0.5h5.9c0.5,0,0.9,0.1,1.4,0.3
			c0.3,0.2,0.6,0.4,0.9,0.6l0.3,0.3c0.1,0.1,0.2,0.2,0.2,0.2s0.1,0,0.2-0.1l0.2-0.3c0.1-0.1,0.2-0.2,0.4-0.4
			c0.2-0.1,0.3-0.3,0.5-0.3c0.4-0.2,0.7-0.3,1.2-0.4l0.8-0.1h2c0.7,0,1.5,0.1,2.2,0.4c0.6,0.3,1.2,0.7,1.7,1.1
			c0.4,0.4,0.8,1,1.1,1.5c0.2,0.5,0.4,1.1,0.4,1.6v9.9c0,0.2-0.1,0.3-0.3,0.3h-2.9c-0.2,0-0.3-0.1-0.3-0.3v-9.5
			c0-0.3-0.1-0.6-0.2-0.8c-0.1-0.2-0.3-0.4-0.5-0.6c-0.2-0.2-0.4-0.3-0.7-0.4c-0.2-0.1-0.4-0.1-0.7-0.1h-1.9c-0.4,0-0.7,0.2-1,0.4
			c-0.3,0.3-0.5,0.7-0.5,1.1v9.9c0,0.2-0.1,0.3-0.3,0.3h-2.9c-0.1,0-0.3-0.1-0.3-0.2c0,0,0-0.1,0-0.1v-9.9c0-0.4-0.2-0.8-0.6-1
			c-0.3-0.3-0.8-0.5-1.2-0.5h-2.6c-0.2,0-0.4,0.1-0.5,0.3c-0.1,0.2-0.2,0.4-0.2,0.6v10.6c0,0.2-0.1,0.3-0.3,0.3H486
			c-0.1,0-0.3-0.1-0.3-0.2c0,0,0-0.1,0-0.1L485.7,11.7z"/>
	</g>
</g>
</svg>
