<svg width="500" height="463" viewBox="0 0 500 463" fill="none" xmlns="http://www.w3.org/2000/svg">
<path d="M148.737 84.8514C177.952 75.3551 209.346 91.3436 218.828 120.573" stroke="#0A0777" stroke-miterlimit="10"/>
<path d="M354.467 80.2954C331.473 75.5116 308.608 84.2391 293.075 101.338C285.658 79.4696 268.174 62.3279 245.195 57.5299C209.46 50.0838 173.994 75.2838 165.965 113.81C145.335 212.845 255.318 282.593 255.318 282.593C255.318 282.593 384.009 262.561 404.639 163.527C412.669 125.001 390.202 87.7273 354.481 80.2954H354.467ZM247.672 128.688C238.589 138.099 223.611 138.355 214.201 129.286C204.79 120.203 204.533 105.225 213.603 95.814C222.686 86.4032 237.664 86.1469 247.074 95.2161C256.485 104.299 256.742 119.277 247.672 128.688Z" fill="#FB6E44"/>
<path d="M183.12 190.663C153.905 200.159 122.512 184.171 113.03 154.942C103.534 125.727 119.522 94.3335 148.752 84.8514" stroke="#0A0777" stroke-miterlimit="10"/>
<path d="M268.544 366.209L252.129 406.615L215.396 383.479L170.848 246.388L223.996 229.118L268.544 366.209Z" fill="#FFCCEF"/>
<path d="M215.382 124.645L116.418 156.793C99.1911 162.388 89.766 180.896 95.3613 198.109L116.66 263.672C122.256 280.899 140.764 290.324 157.977 284.729L256.94 252.581C274.168 246.986 283.593 228.477 277.997 211.265L256.698 145.702C251.103 128.475 232.595 119.05 215.382 124.645ZM189.085 212.076C176.927 216.034 163.857 209.371 159.913 197.212C155.955 185.054 162.618 171.984 174.777 168.04C186.936 164.082 200.006 170.745 203.949 182.904C207.907 195.063 201.244 208.132 189.085 212.076Z" fill="#FFCCEF"/>
<path d="M182.864 348.469L256.001 380.916L222.956 279.233L182.864 348.469Z" fill="#FFCCEF"/>
<path d="M172.698 317.147L245.821 349.594L212.791 247.911L172.698 317.147Z" fill="#FFCCEF"/>
<path d="M208.661 139.883L130.79 165.185C114.353 170.526 105.358 188.18 110.698 204.617L125.257 249.423C130.597 265.86 148.252 274.855 164.689 269.514L242.56 244.212C258.997 238.872 267.993 221.217 262.652 204.78L248.094 159.975C242.753 143.538 225.098 134.542 208.661 139.883Z" stroke="#0A0777" stroke-miterlimit="10"/>
<path d="M251.73 372.787L246.177 387.793L232.851 378.909L199.892 277.454L218.756 271.318L251.73 372.787Z" stroke="#0A0777" stroke-miterlimit="10"/>
<path d="M182.75 283.021L189.598 280.8L222.558 382.255L220.835 386.91" stroke="#0A0777" stroke-miterlimit="10"/>
<path d="M218.827 120.558C228.324 149.773 212.335 181.167 183.106 190.649" stroke="#0A0777" stroke-miterlimit="10"/>
</svg>
