<svg width="500" height="462" viewBox="0 0 500 462" fill="none" xmlns="http://www.w3.org/2000/svg">
<path d="M141.632 361.462C145.792 361.462 149.164 358.09 149.164 353.931C149.164 349.771 145.792 346.399 141.632 346.399C137.473 346.399 134.101 349.771 134.101 353.931C134.101 358.09 137.473 361.462 141.632 361.462Z" fill="#FB6E44"/>
<path d="M396.085 261.398L361.477 230.769L324.149 272.946L358.757 303.575L396.085 261.398Z" fill="#FB6E44"/>
<path d="M390.315 273.376L350.308 237.968" stroke="#0A0777" stroke-miterlimit="10"/>
<path d="M380.15 284.866L340.129 249.457" stroke="#0A0777" stroke-miterlimit="10"/>
<path d="M369.984 296.355L329.963 260.947" stroke="#0A0777" stroke-miterlimit="10"/>
<path d="M351.049 300.584L392.209 254.085" stroke="#0A0777" stroke-miterlimit="10"/>
<path d="M339.635 290.238L380.72 243.905" stroke="#0A0777" stroke-miterlimit="10"/>
<path d="M328.07 280.239L369.23 233.74" stroke="#0A0777" stroke-miterlimit="10"/>
<path d="M229.411 380.048L264.018 410.677L301.346 368.5L266.738 337.871L229.411 380.048Z" fill="#FB6E44"/>
<path d="M235.171 368.055L275.192 403.463" stroke="#0A0777" stroke-miterlimit="10"/>
<path d="M245.351 356.565L285.358 391.973" stroke="#0A0777" stroke-miterlimit="10"/>
<path d="M255.516 345.076L295.537 380.484" stroke="#0A0777" stroke-miterlimit="10"/>
<path d="M274.438 340.847L233.292 387.36" stroke="#0A0777" stroke-miterlimit="10"/>
<path d="M286.31 350.946L244.781 397.526" stroke="#0A0777" stroke-miterlimit="10"/>
<path d="M297.417 361.192L256.271 407.691" stroke="#0A0777" stroke-miterlimit="10"/>
<path d="M307.88 360.748L250.575 310.03C236.843 297.877 235.562 276.876 247.715 263.144C259.868 249.412 280.87 248.131 294.602 260.284L351.907 311.001L307.88 360.748Z" fill="#0A0777"/>
<path d="M383.424 338.91C369.685 326.752 348.7 328.033 336.541 341.772C324.382 355.511 325.664 376.497 339.403 388.655L383.424 338.91Z" fill="#0A0777"/>
<path d="M333.68 99.1828C346.294 102.97 361.585 109.391 377.431 117.919C392.466 126.006 405.635 134.719 415.587 142.792" stroke="#FB6E44" stroke-miterlimit="10"/>
<path d="M368.576 179.168C393.321 179.168 413.38 159.108 413.38 134.363C413.38 109.618 393.321 89.5583 368.576 89.5583C343.831 89.5583 323.771 109.618 323.771 134.363C323.771 159.108 343.831 179.168 368.576 179.168Z" fill="#FFCCEF"/>
<path d="M415.573 142.792C429.696 154.267 437.299 164.461 434.423 169.786C429.539 178.869 396.096 170.355 359.72 150.793C323.343 131.217 297.83 107.996 302.713 98.9122C305.475 93.7868 317.321 94.2708 333.665 99.1685" stroke="#FB6E44" stroke-miterlimit="10"/>
<path d="M107.975 307.603V333.828" stroke="#0A0777" stroke-miterlimit="10"/>
<path d="M121.088 320.715H94.8624" stroke="#0A0777" stroke-miterlimit="10"/>
<path d="M170.99 263.951C229.546 263.951 277.015 216.482 277.015 157.926C277.015 99.3697 229.546 51.9006 170.99 51.9006C112.433 51.9006 64.9644 99.3697 64.9644 157.926C64.9644 216.482 112.433 263.951 170.99 263.951Z" fill="white"/>
<path d="M210.043 153.612C214.014 153.612 217.233 150.393 217.233 146.422C217.233 142.451 214.014 139.232 210.043 139.232C206.072 139.232 202.853 142.451 202.853 146.422C202.853 150.393 206.072 153.612 210.043 153.612Z" fill="#FFCCEF"/>
<path d="M190.296 186.87C198.968 186.87 205.999 179.839 205.999 171.167C205.999 162.494 198.968 155.463 190.296 155.463C181.623 155.463 174.592 162.494 174.592 171.167C174.592 179.839 181.623 186.87 190.296 186.87Z" fill="#FFCCEF"/>
<path d="M77.9354 99.9117C80.1564 101.791 82.8576 104.778 89.282 104.778H173.581C180.614 104.778 186.309 99.0831 186.309 92.0499V49.0485" stroke="#0A0777" stroke-miterlimit="10"/>
<path d="M61.5281 164.902H132.819C139.853 164.902 145.548 159.207 145.548 152.174V135.474C145.548 128.44 139.853 122.745 132.819 122.745H67.2707" stroke="#0A0777" stroke-miterlimit="10"/>
<path d="M198.838 263.986V234.779C198.838 226.137 191.833 219.132 183.191 219.132H166.875C154.56 219.132 144.58 209.152 144.58 196.837C144.58 188.194 137.575 181.19 128.933 181.19H62.3481" stroke="#0A0777" stroke-miterlimit="10"/>
<path d="M254.316 83.5043L237.421 93.3313C229.206 97.3462 225.789 107.255 229.804 115.47L237.364 130.975C243.073 142.678 238.218 156.801 226.515 162.51C218.3 166.525 214.883 176.434 218.898 184.649L245.292 237.734" stroke="#0A0777" stroke-miterlimit="10"/>
</svg>
