<?xml version="1.0" encoding="UTF-8" standalone="no"?>
<svg
   xmlns:dc="http://purl.org/dc/elements/1.1/"
   xmlns:cc="http://creativecommons.org/ns#"
   xmlns:rdf="http://www.w3.org/1999/02/22-rdf-syntax-ns#"
   xmlns:svg="http://www.w3.org/2000/svg"
   xmlns="http://www.w3.org/2000/svg"
   viewBox="0 317.48054 1122.52 158.74027"
   height="793.70135"
   width="1122.52"
   xml:space="preserve"
   id="svg2"
   version="1.1"><metadata
     id="metadata8"><rdf:RDF><cc:Work
         rdf:about=""><dc:format>image/svg+xml</dc:format><dc:type
           rdf:resource="http://purl.org/dc/dcmitype/StillImage" /></cc:Work></rdf:RDF></metadata><defs
     id="defs6"><clipPath
       id="clipPath18"
       clipPathUnits="userSpaceOnUse"><path
         id="path16"
         d="M 0,595.276 H 841.89 V 0 H 0 Z" /></clipPath></defs><g
     transform="matrix(1.3333333,0,0,-1.3333333,0,793.70133)"
     id="g10"><g
       id="g12"><g
         clip-path="url(#clipPath18)"
         id="g14"><g
           transform="translate(238.8433,227.6613)"
           id="g20"><path
             id="path22"
             style="fill:#470aa8;fill-opacity:1;fill-rule:nonzero;stroke:none"
             d="m 0,0 c 14.653,20.646 22.364,44.776 22.364,70.189 0,67.16 -54.634,121.793 -121.793,121.793 -67.15,0 -121.793,-54.633 -121.793,-121.793 0,-67.15 54.643,-121.784 121.793,-121.784 21.377,0 42.355,5.679 60.93,16.458 l 36.96,-15.128 c 7.389,-3.02 15.575,-0.769 20.371,5.613 4.795,6.372 4.7,14.852 -0.248,21.12 z m 6.372,-35.27 c -0.798,-1.035 -1.681,-0.684 -2.004,-0.55 l -40.588,16.599 c -2.326,0.959 -4.957,0.732 -7.084,-0.607 -16.923,-10.579 -36.334,-16.173 -56.125,-16.173 -58.555,0 -106.19,47.644 -106.19,106.19 0,58.556 47.635,106.2 106.19,106.2 58.556,0 106.19,-47.644 106.19,-106.2 0,-23.931 -7.863,-46.581 -22.725,-65.498 -2.231,-2.83 -2.222,-6.828 0.01,-9.658 L 6.344,-33.209 c 0.218,-0.275 0.807,-1.025 0.028,-2.061" /></g><g
           transform="translate(357.5073,373.7385)"
           id="g24"><path
             id="path26"
             style="fill:#470aa8;fill-opacity:1;fill-rule:nonzero;stroke:none"
             d="m 0,0 c 4.805,4.197 10.968,7.027 17.378,7.027 0.855,0 1.843,0 2.707,-0.247 11.832,-1.481 24.406,-10.351 26.619,-23.665 0.494,-2.336 0.74,-4.672 0.74,-7.388 V -65.07 H 35.127 c -4.159,0 -7.53,3.371 -7.549,7.53 l -0.095,32.773 c 0,8.376 -5.052,14.786 -13.315,14.786 C 6.287,-9.981 0,-16.391 0,-24.767 V -65.07 h -12.412 c -4.169,0 -7.55,3.38 -7.55,7.549 V 38.575 H -7.55 c 4.169,0 7.55,-3.381 7.55,-7.55 z" /></g><g
           transform="translate(485.791,327.4011)"
           id="g28"><path
             id="path30"
             style="fill:#470aa8;fill-opacity:1;fill-rule:nonzero;stroke:none"
             d="m 0,0 c -4.064,-9.364 -13.552,-19.962 -32.658,-19.962 -18.234,0 -36.6,14.055 -36.6,36.6 0,21.813 17.132,36.599 35.251,36.599 22.915,0 35.241,-16.144 35.241,-42.269 h -50.037 c 1.235,-7.759 8.016,-13.304 16.021,-14.045 6.287,-0.617 12.697,1.966 16.267,6.781 z m -18.356,24.52 c -0.618,6.41 -6.535,13.19 -15.29,13.19 -8.252,0 -13.551,-5.793 -14.787,-13.19 z" /></g><g
           transform="translate(497.8643,337.2648)"
           id="g32"><path
             id="path34"
             style="fill:#470aa8;fill-opacity:1;fill-rule:nonzero;stroke:none"
             d="M 0,0 C 0,2.089 -0.124,4.188 -0.124,6.401 L -0.37,75.906 h 12.336 c 4.149,0 7.52,-3.352 7.55,-7.502 L 19.838,6.895 c 0,-3.941 0.617,-7.019 1.481,-9.364 1.482,-6.41 8.746,-7.151 11.71,-7.274 2.212,-2.584 -1.852,-16.391 -4.074,-18.851 C 9.116,-28.1 0.74,-17.378 0,0" /></g><g
           transform="translate(540.1318,337.2648)"
           id="g36"><path
             id="path38"
             style="fill:#470aa8;fill-opacity:1;fill-rule:nonzero;stroke:none"
             d="m 0,0 c 0,2.089 -0.124,4.188 -0.124,6.401 l -0.247,69.505 h 12.336 c 4.15,0 7.521,-3.352 7.55,-7.502 L 19.838,6.895 c 0,-3.941 0.617,-7.019 1.481,-9.364 1.482,-6.41 8.746,-7.151 11.709,-7.274 2.213,-2.584 -1.851,-16.391 -4.074,-18.851 C 9.116,-28.1 0.74,-17.378 0,0" /></g><g
           transform="translate(619.6113,380.6403)"
           id="g40"><path
             id="path42"
             style="fill:#470aa8;fill-opacity:1;fill-rule:nonzero;stroke:none"
             d="m 0,0 c 20.209,0 37.217,-17.502 37.217,-36.6 0,-19.221 -17.008,-36.599 -37.217,-36.599 -20.208,0 -37.34,17.378 -37.34,36.599 C -37.34,-17.378 -20.085,0 0,0 m -0.123,-54.842 c 9.857,0 17.132,7.644 17.132,18.242 0,10.599 -7.275,18.243 -17.132,18.243 -9.734,0 -17.009,-7.644 -17.009,-18.243 0,-10.598 7.275,-18.366 17.009,-18.242" /></g><g
           transform="translate(358.8716,272.8752)"
           id="g44"><path
             id="path46"
             style="fill:#5ce0e5;fill-opacity:1;fill-rule:nonzero;stroke:none"
             d="m 0,0 c 6.971,0.428 12.146,-2.004 14.359,-1.899 l -3.798,-13.836 c -1.377,-0.105 -4.018,0.635 -6.658,0.104 -4.644,-0.846 -5.384,-6.543 -5.384,-14.358 H 10.77 V -44.453 H -1.481 l -0.105,-42.982 h -9.449 c -4.169,0 -7.549,3.381 -7.549,7.55 v 35.432 h -8.453 v 14.464 h 8.557 C -18.48,-12.25 -13.836,-1.899 0,0" /></g><g
           transform="translate(384.7187,209.9357)"
           id="g48"><path
             id="path50"
             style="fill:#5ce0e5;fill-opacity:1;fill-rule:nonzero;stroke:none"
             d="m 0,0 c 0,1.794 -0.104,3.589 -0.104,5.488 l -0.209,59.563 h 9.486 c 4.16,0 7.531,-3.353 7.55,-7.502 L 16.999,5.916 c 0,-3.381 0.531,-6.02 1.272,-8.024 1.263,-5.49 7.493,-6.126 10.028,-6.231 1.9,-2.212 -1.586,-14.045 -3.485,-16.153 C 7.815,-24.074 0.636,-14.882 0,0" /></g><g
           transform="translate(484.1768,185.4396)"
           id="g52"><path
             id="path54"
             style="fill:#5ce0e5;fill-opacity:1;fill-rule:nonzero;stroke:none"
             d="m 0,0 h -16.999 v 5.917 c -4.758,-4.54 -10.987,-7.398 -19.544,-6.762 -15.412,1.273 -26.818,15.1 -26.818,31.158 0,16.049 11.509,29.876 26.818,31.149 1.168,0.104 2.432,0.209 3.913,0.209 6.23,0.104 15.309,-0.846 21.757,-3.485 1.794,0.313 3.162,0.522 4.007,0.427 2.431,-0.427 4.748,-0.95 6.866,-1.586 z m -31.148,14.359 c 8.442,0 14.253,6.23 14.358,15.631 v 0.323 c 0,9.601 -6.125,15.831 -14.358,15.945 -8.348,0 -14.473,-6.344 -14.473,-15.945 0,-9.61 5.811,-15.954 14.473,-15.954" /></g><g
           transform="translate(499.4551,263.3732)"
           id="g56"><path
             id="path58"
             style="fill:#5ce0e5;fill-opacity:1;fill-rule:nonzero;stroke:none"
             d="m 0,0 h 9.563 c 4.168,0 7.549,-3.381 7.549,-7.55 V -18.698 H 28.831 V -33.162 H 17.112 v -16.79 c 0,-1.377 0,-2.535 0.105,-3.694 0.209,-4.749 1.471,-7.293 3.903,-8.025 2.431,-0.949 5.071,-0.208 6.648,-0.208 l 2.649,-15.005 C 28.3,-76.77 23.02,-78.46 17.112,-77.938 4.121,-76.457 0.636,-66.846 0.209,-56.817 0.104,-54.7 0.104,-52.487 0.104,-50.265 L 0,-33.162 h -8.452 v 14.464 H 0 Z" /></g><g
           transform="translate(587.1836,185.4396)"
           id="g60"><path
             id="path62"
             style="fill:#5ce0e5;fill-opacity:1;fill-rule:nonzero;stroke:none"
             d="m 0,0 c -3.675,0 -6.657,2.973 -6.676,6.657 l -0.076,28.614 c -0.427,7.815 -3.912,11.405 -10.351,11.405 -6.448,0 -10.142,-3.59 -10.456,-10.978 L -27.663,0 h -10.864 c -3.685,0 -6.666,2.992 -6.666,6.677 v 54.462 h 14.786 v -2.953 c 3.475,2.118 7.711,3.485 13.304,3.485 7.711,0 14.045,-1.691 19.002,-7.92 5.604,6.229 11.301,7.92 19.013,7.92 16.268,0.104 26.817,-9.506 27.559,-23.97 0.104,-1.481 0.209,-3.067 0.209,-4.643 L 48.68,0 H 38.356 c -3.684,0 -6.675,2.992 -6.675,6.677 v 21.832 c 0,2.545 -0.105,4.862 -0.314,7.189 -0.531,7.388 -4.016,10.873 -10.455,10.978 -6.439,0 -9.925,-3.59 -10.456,-11.301 L 10.561,0 Z" /></g><g
           transform="translate(708.791,185.4396)"
           id="g64"><path
             id="path66"
             style="fill:#5ce0e5;fill-opacity:1;fill-rule:nonzero;stroke:none"
             d="m 0,0 h -16.999 v 5.917 c -4.758,-4.54 -10.987,-7.398 -19.544,-6.762 -15.413,1.273 -26.818,15.1 -26.818,31.158 0,16.049 11.509,29.876 26.818,31.149 1.168,0.104 2.432,0.209 3.913,0.209 6.23,0.104 15.308,-0.846 21.756,-3.485 1.795,0.313 3.163,0.522 4.008,0.427 2.43,-0.427 4.748,-0.95 6.866,-1.586 z m -31.148,14.359 c 8.442,0 14.253,6.23 14.358,15.631 v 0.323 c 0,9.601 -6.125,15.831 -14.358,15.945 -8.348,0 -14.473,-6.344 -14.473,-15.945 0,-9.61 5.811,-15.954 14.473,-15.954" /></g><g
           transform="translate(724.0664,263.3732)"
           id="g68"><path
             id="path70"
             style="fill:#5ce0e5;fill-opacity:1;fill-rule:nonzero;stroke:none"
             d="m 0,0 h 9.563 c 4.168,0 7.549,-3.381 7.549,-7.55 V -18.698 H 28.831 V -33.162 H 17.112 v -16.79 c 0,-1.377 0,-2.535 0.105,-3.694 0.209,-4.749 1.471,-7.293 3.903,-8.025 2.431,-0.949 5.071,-0.208 6.648,-0.208 l 2.649,-15.005 C 28.3,-76.77 23.02,-78.46 17.112,-77.938 4.121,-76.457 0.636,-66.846 0.209,-56.817 0.104,-54.7 0.104,-52.487 0.104,-50.265 L 0,-33.162 h -8.452 v 14.464 H 0 Z" /></g><g
           transform="translate(823.9404,201.4943)"
           id="g72"><path
             id="path74"
             style="fill:#5ce0e5;fill-opacity:1;fill-rule:nonzero;stroke:none"
             d="m 0,0 c -3.485,-8.033 -11.614,-17.112 -27.986,-17.112 -15.622,0 -31.358,12.042 -31.358,31.367 0,18.689 14.672,31.357 30.198,31.357 19.64,0 30.2,-13.827 30.2,-36.219 h -42.867 c 1.053,-6.648 6.866,-11.406 13.722,-12.033 5.385,-0.531 10.883,1.691 13.941,5.803 z m -15.736,21.017 c -0.532,5.479 -5.593,11.291 -13.096,11.291 -7.074,0 -11.614,-4.957 -12.668,-11.291 z" /></g><g
           transform="translate(125.6738,315.1511)"
           id="g76"><path
             id="path78"
             style="fill:#470aa8;fill-opacity:1;fill-rule:nonzero;stroke:none"
             d="m 0,0 c 4.805,4.198 10.969,7.028 17.379,7.028 0.854,0 1.842,0 2.706,-0.247 11.833,-1.482 24.406,-10.351 26.619,-23.666 0.494,-2.336 0.741,-4.672 0.741,-7.388 V -65.07 H 35.128 c -4.16,0 -7.531,3.371 -7.55,7.53 l -0.095,32.773 c 0,8.376 -5.052,14.787 -13.314,14.787 C 6.287,-9.98 0,-16.391 0,-24.767 V -65.07 h -12.412 c -4.169,0 -7.55,3.381 -7.55,7.55 V 38.575 H -7.55 c 4.169,0 7.55,-3.381 7.55,-7.55 z" /></g></g></g></g></svg>