<svg width="80" height="81" viewBox="0 0 80 81" fill="none" xmlns="http://www.w3.org/2000/svg">
<path d="M63.9991 0.830078H15.9998C7.16323 0.830078 -0.000213623 7.99352 -0.000213623 16.8301V64.8301C-0.000213623 73.6666 7.16323 80.8301 15.9998 80.8301H63.9991C72.8356 80.8301 79.9991 73.6666 79.9991 64.8301V16.8301C79.9991 7.99352 72.8356 0.830078 63.9991 0.830078Z" fill="#FFCCEF"/>
<path fill-rule="evenodd" clip-rule="evenodd" d="M79.9999 40.8409C74.6585 57.8481 58.77 70.1847 40.0001 70.1847C21.2301 70.1847 5.34153 57.848 0.000244141 40.8406C5.34162 23.8334 21.2301 11.4968 40 11.4968C58.77 11.4968 74.6586 23.8335 79.9999 40.8409Z" fill="white"/>
<path d="M39.9962 34.9738C41.3718 33.1868 43.5658 32.0333 46.0359 32.0303C50.2081 32.0261 53.5953 35.3091 53.5998 39.362C53.6112 50.2253 40.0164 55.2303 40.0164 55.2303C40.0164 55.2303 26.4114 50.2524 26.3999 39.3892C26.3954 35.3362 29.7747 32.046 33.9469 32.0419C36.4181 32.0431 38.6166 33.1904 39.9962 34.9738Z" fill="#0A0777"/>
</svg>
