<svg xmlns="http://www.w3.org/2000/svg" viewBox="0 0 361.47 40"><path d="M361.47,28.5c0-5.44-2.75-8.24-7.77-11.45l-3.63-2.33c-2.28-1.45-3.16-2.54-3.16-4.25,0-2.28,1.35-3.11,4.15-3.11,1,0,1.4,0,3.26.05l.52,2.44h6V1.4A43.6,43.6,0,0,0,350.12,0C341.21,0,337,3.47,337,10.42c0,5.44,2.75,8,7,10.93l4.09,2.8c2.38,1.66,3.26,2.69,3.26,4.72,0,2.59-1.09,3.78-4.09,3.78-1,0-1.5,0-3.11-.05l-.52-2.54h-6v8.65A46.6,46.6,0,0,0,349.09,40c7.77,0,12.38-3.94,12.38-11.5m-39-5.6h-5L319,13.37c.36-2.07.57-4.3.83-6.17H320c.21,1.87.52,4.15.83,6.17l1.61,9.53Zm-4.92,16.37V32.7l-1.35-.16.42-2.43h6.68l.41,2.43-1.35.16v6.58h13.47V32.7l-2-.21L327.58.78H308.83V7.36l2,.26L306,32.49l-2,.21v6.58Zm-15.34,0V32.7l-1.92-.21V7.56l1.92-.21V.78H288.41V7.36l1.92.21V32.49l-1.92.21v6.58Zm-15.7-.36V29.54h-6L280,32c-.47,0-1,.05-1.45.05-3.68,0-5.54-1.14-5.54-9.28V17.25C273,9.12,274.89,8,278.51,8c.47,0,1,.05,1.5.05l.47,2.38h6V1.14A43.08,43.08,0,0,0,277.27,0C268,0,263,3.32,263,17.25V22.8C263,36.74,268,40,277.27,40a43.26,43.26,0,0,0,9.22-1.09M249.55.78V7.36l1.87.21v8.86c0,1.92.1,4.82.26,6.68h-.1c-.52-1.66-1.3-3.52-2-5.29l-7.31-17h-11.4V7.36l1.76.21V32.49l-1.76.21v6.58h12.59V32.7l-1.87-.21V22.8c0-1.92-.1-4.2-.26-6.11h.1c.57,1.71,1.35,3.58,1.92,5l7.2,17.62h9.9V7.56l1.92-.21V.78ZM229,39.28V32.7l-1.92-.21V7.56L229,7.36V.78H215.19V7.36l1.92.21V32.49l-1.92.21v6.58ZM199.81.78V7.36l1.66.21-2.8,17.62c-.47,2.85-.73,5.44-.93,7.67h-.1c-.26-2.23-.52-4.87-.93-7.67L193.9,7.56l1.71-.21V.78H181.88V7.36l2.07.26L190,39.28H205.4l6.06-31.66,2.07-.26V.78ZM171.93,22.49c0,7.41-1,9.59-4.2,9.59s-4.14-2.18-4.14-9.59V17.57c0-7.31.93-9.59,4.14-9.59s4.2,2.28,4.2,9.59v4.92Zm9.9,0V17.57C181.82,4.14,176.18,0,167.73,0s-14,4.14-14,17.57v4.92c0,13.27,5.54,17.51,14,17.51s14.09-4.25,14.09-17.51m-40.26-9.17c0,3.63-1,5.29-4.77,5.29h-2.12V7.93c.78-.05,1.24-.05,2-.05,3.78,0,4.92,1.09,4.92,5v.41Zm-5,26V32.7l-1.87-.21V25.65h3.11l5.34,13.63h9.64V32.7l-2.49-.26-3.58-8.81c2.85-2,4.51-5.08,4.51-10.42V12.8c0-10.52-7-12.49-15.23-12.49-4.56,0-8.86.21-12.8.47V7.36l1.87.21V32.49l-1.87.21v6.58Zm-24.1-25.81c0,3.73-1.3,5.13-4.72,5.13-.78,0-1.55,0-2.23-.05V7.93c.73-.05,1.45-.05,2.12-.05,3.52,0,4.82,1,4.82,5v.62Zm-4.56,25.81V32.7l-2.38-.21V26.22H108c7.31,0,14.15-2.18,14.15-12.75v-.62c0-10.62-6.84-12.54-15.18-12.54-4.61,0-8.76.1-13,.47V7.36l1.87.21V32.49l-1.87.21v6.58ZM81.61,28.5c0-5.44-2.75-8.24-7.77-11.45l-3.63-2.33C67.93,13.26,67,12.18,67,10.47c0-2.28,1.35-3.11,4.15-3.11,1,0,1.4,0,3.26.05L75,9.84h6V1.4A43.6,43.6,0,0,0,70.26,0C61.35,0,57.15,3.47,57.15,10.42c0,5.44,2.75,8,7,10.93l4.09,2.8c2.38,1.66,3.26,2.69,3.26,4.72,0,2.59-1.09,3.78-4.09,3.78-1,0-1.5,0-3.11-.05l-.52-2.54h-6v8.65A46.59,46.59,0,0,0,69.23,40C77,40,81.61,36.06,81.61,28.5m-39-5.6h-5l1.61-9.53c.36-2.07.57-4.3.83-6.17h.16c.21,1.87.52,4.15.83,6.17l1.61,9.53ZM37.67,39.28V32.7l-1.35-.16.41-2.43h6.68l.41,2.43-1.35.16v6.58H56V32.7l-2-.21L47.72.78H29V7.36l2,.26L26.17,32.49l-2,.21v6.58Zm-15.18,0V29.17h-6L16,31.56H11.66v-24l1.92-.21V.78H0V7.36l1.71.21V32.49L0,32.7v6.58Z"/></svg>