<svg width="530" height="335" viewBox="0 0 530 335" fill="none" xmlns="http://www.w3.org/2000/svg">
<g clip-path="url(#clip0_346_428)">
<path d="M250.777 46.2285V6.34473" stroke="#0A0777" stroke-width="0.8" stroke-miterlimit="10"/>
<path d="M284.225 97.7788C277.567 86.2161 265.076 78.4292 250.777 78.4292C236.471 78.4292 223.987 86.2161 217.329 97.7788H284.232H284.225Z" fill="#0A0777"/>
<path d="M296.508 85.8076C287.405 74.2449 270.334 66.458 250.777 66.458C231.22 66.458 214.149 74.2449 205.046 85.8076H296.508Z" fill="#0A0777"/>
<path d="M302.126 72.0073C291.901 60.4447 272.731 52.6577 250.777 52.6577C228.816 52.6577 209.653 60.4447 199.427 72.0073H302.133H302.126Z" fill="#0A0777"/>
<path d="M263.836 42.2725H237.711V63.4926H263.836V42.2725Z" fill="#0A0777"/>
<path d="M238.653 100.862C240.538 105.711 245.256 109.154 250.77 109.154C256.285 109.154 261.003 105.718 262.887 100.862H238.646H238.653Z" fill="#FB6E44"/>
<path d="M279.292 72.0073H222.255" stroke="#0A0777" stroke-width="0.519591" stroke-miterlimit="10"/>
<path d="M226.446 86.1055H275.108" stroke="#0A0777" stroke-width="0.519591" stroke-miterlimit="10"/>
<path d="M265.187 53.5791H236.36" stroke="#0A0777" stroke-width="0.519591" stroke-miterlimit="10"/>
<path d="M189.701 147.313H311.326C333.232 147.313 351.023 165.097 351.023 187.01V267.609H150.011V187.01C150.011 165.104 167.795 147.313 189.708 147.313H189.701Z" fill="#F4EFED"/>
<path d="M134.486 196.051H150.143V305.283H111.298V219.245C111.298 206.45 121.69 196.058 134.486 196.058V196.051Z" fill="#F4EFED"/>
<path d="M351.023 305.29V253.435H150.15V305.29H351.023Z" fill="#F4EFED"/>
<path d="M150.143 196.051V305.283" stroke="#0A0777" stroke-width="0.8" stroke-miterlimit="10"/>
<path d="M388.845 305.29H350V196.058H365.657C378.453 196.058 388.845 206.45 388.845 219.245V305.283V305.29Z" fill="#F4EFED"/>
<path d="M351.938 305.283V196.051" stroke="#0A0777" stroke-width="0.519591" stroke-miterlimit="10"/>
<path d="M150.53 253.435H351.023" stroke="#0A0777" stroke-width="0.8" stroke-miterlimit="10"/>
<path d="M150.53 271.752H351.023" stroke="#0A0777" stroke-width="0.8" stroke-miterlimit="10"/>
<path d="M198.943 181.121H197.453C194.744 181.121 192.548 183.317 192.548 186.026V187.516C192.548 190.224 194.744 192.42 197.453 192.42H198.943C201.651 192.42 203.847 190.224 203.847 187.516V186.026C203.847 183.317 201.651 181.121 198.943 181.121Z" fill="#FFCCEF"/>
<path d="M198.943 223.811H197.453C194.744 223.811 192.548 226.007 192.548 228.715V230.205C192.548 232.914 194.744 235.11 197.453 235.11H198.943C201.651 235.11 203.847 232.914 203.847 230.205V228.715C203.847 226.007 201.651 223.811 198.943 223.811Z" fill="#FFCCEF"/>
<path d="M303.575 181.121H302.085C299.376 181.121 297.18 183.317 297.18 186.026V187.516C297.18 190.224 299.376 192.42 302.085 192.42H303.575C306.284 192.42 308.48 190.224 308.48 187.516V186.026C308.48 183.317 306.284 181.121 303.575 181.121Z" fill="#FFCCEF"/>
<path d="M303.575 223.811H302.085C299.376 223.811 297.18 226.007 297.18 228.715V230.205C297.18 232.914 299.376 235.11 302.085 235.11H303.575C306.284 235.11 308.48 232.914 308.48 230.205V228.715C308.48 226.007 306.284 223.811 303.575 223.811Z" fill="#FFCCEF"/>
<path d="M149.256 309.017L146.977 330.666C146.7 332.474 148.958 334.047 151.854 334.047C154.376 334.047 156.489 332.842 156.731 331.262L160.687 309.024H149.263L149.256 309.017Z" fill="#0A0777"/>
<path d="M351.702 309.017L353.982 330.666C354.259 332.474 352 334.047 349.104 334.047C346.583 334.047 344.47 332.842 344.227 331.262L340.271 309.024H351.695L351.702 309.017Z" fill="#0A0777"/>
<path d="M461.537 224.476C461.468 224.268 461.398 224.06 461.322 223.859L471.063 209.214H416.609L420.524 221.095L410.686 221.047H410.658C407.257 221.047 404.479 223.804 404.465 227.212L404.43 234.411C404.403 240.888 408.92 246.34 414.981 247.74C415.203 253.871 420.067 259.247 426.62 259.441C426.745 259.441 426.863 259.441 426.987 259.441H456.161C456.285 259.441 456.41 259.441 456.528 259.441C464.53 259.212 470.017 251.245 467.606 243.611L461.551 224.476H461.537ZM409.224 234.431L409.259 227.233C409.259 226.485 409.896 225.848 410.652 225.848L421.14 225.896L415.737 242.98C411.975 241.955 409.211 238.505 409.224 234.424V234.431Z" fill="#F4EFED"/>
<path d="M459.271 235.401H423.648L421.473 242.28C419.616 248.141 423.828 254.259 429.98 254.439C430.077 254.439 430.167 254.439 430.264 254.439H452.669C452.766 254.439 452.856 254.439 452.953 254.439C459.098 254.259 463.317 248.148 461.461 242.28L459.285 235.401H459.271Z" fill="#FB6E44"/>
<path d="M411.753 176.403L429.357 203.318H440.019H442.901H453.57L471.167 176.403H411.753Z" fill="#FFCCEF"/>
<path d="M442.464 175.101V200.193" stroke="#0A0777" stroke-width="0.8" stroke-miterlimit="10"/>
<path d="M432.564 175.239L437.061 200.145" stroke="#0A0777" stroke-width="0.8" stroke-miterlimit="10"/>
<path d="M422.27 175.974L432.952 200.581" stroke="#0A0777" stroke-width="0.8" stroke-miterlimit="10"/>
<path d="M452.357 175.239L447.868 200.145" stroke="#0A0777" stroke-width="0.8" stroke-miterlimit="10"/>
<path d="M462.652 175.974L451.969 200.581" stroke="#0A0777" stroke-width="0.8" stroke-miterlimit="10"/>
<path d="M465.333 205.577H417.593C414.434 205.577 411.864 203.006 411.864 199.847V199.023H471.063V199.847C471.063 203.006 468.492 205.577 465.333 205.577Z" fill="#FFCCEF"/>
<path d="M473.958 334.04V310.541H376.996V334.04H473.958Z" fill="#0A0777"/>
<path d="M450.66 327.023C453.273 327.023 455.392 324.904 455.392 322.291C455.392 319.678 453.273 317.559 450.66 317.559H400.287C397.674 317.559 395.556 319.678 395.556 322.291C395.556 324.904 397.674 327.023 400.287 327.023H450.66Z" fill="#F4EFED"/>
<path d="M496.294 308.192V290.748H399.331V308.192H496.294Z" fill="#F4EFED"/>
<path d="M485.244 289.182V309.758" stroke="#0A0777" stroke-width="0.8" stroke-miterlimit="10"/>
<path d="M410.382 289.182V309.758" stroke="#0A0777" stroke-width="0.8" stroke-miterlimit="10"/>
<path d="M474.222 302.982C476.162 302.982 477.734 301.41 477.734 299.47C477.734 297.53 476.162 295.958 474.222 295.958H421.41C419.471 295.958 417.898 297.53 417.898 299.47C417.898 301.41 419.471 302.982 421.41 302.982H474.222Z" fill="#F4EFED"/>
<path d="M479.369 288.392V264.893H382.407V288.392H479.369Z" fill="#FFCCEF"/>
<path d="M471.354 274.301H390.72" stroke="#0A0777" stroke-width="0.8" stroke-miterlimit="10"/>
<path d="M450.21 280.952H411.864" stroke="#0A0777" stroke-width="0.8" stroke-miterlimit="10"/>
<path d="M26.8884 327.009C29.5002 331.228 34.1627 334.041 39.4902 334.041H69.3494C74.6769 334.041 79.3463 331.228 81.9512 327.009H26.8884Z" fill="#FB6E44"/>
<path d="M54.6416 280.91H53.8518H26.7153L35.5207 323.69H53.8518H54.6416H72.9728L81.7781 280.91H54.6416Z" fill="#0A0777"/>
<path d="M54.2468 169.206V280.911" stroke="#0A0777" stroke-width="0.8" stroke-miterlimit="10"/>
<path d="M25.884 290.021H82.6095" stroke="#FB6E44" stroke-width="0.8" stroke-miterlimit="10"/>
<path d="M25.7387 252.451H31.6066C42.5388 252.451 51.4134 261.325 51.4134 272.257H25.7456C20.2795 272.257 15.8457 267.824 15.8457 262.358C15.8457 256.891 20.2795 252.458 25.7456 252.458L25.7387 252.451Z" fill="#FFCCEF"/>
<path d="M25.7387 228.917H31.6066C42.5388 228.917 51.4134 237.791 51.4134 248.723H25.7456C20.2795 248.723 15.8457 244.289 15.8457 238.823C15.8457 233.357 20.2795 228.923 25.7456 228.923L25.7387 228.917Z" fill="#FFCCEF"/>
<path d="M25.7387 205.375H31.6066C42.5388 205.375 51.4134 214.25 51.4134 225.182H25.7456C20.2795 225.182 15.8457 220.748 15.8457 215.282C15.8457 209.816 20.2795 205.382 25.7456 205.382L25.7387 205.375Z" fill="#FFCCEF"/>
<path d="M25.7387 181.835H31.6066C42.5388 181.835 51.4134 190.71 51.4134 201.642H25.7456C20.2795 201.642 15.8457 197.208 15.8457 191.742C15.8457 186.276 20.2795 181.842 25.7456 181.842L25.7387 181.835Z" fill="#FFCCEF"/>
<path d="M82.755 272.257H57.0872C57.0872 261.325 65.9618 252.451 76.894 252.451H82.7619C88.228 252.451 92.6619 256.884 92.6619 262.35C92.6619 267.817 88.228 272.25 82.7619 272.25L82.755 272.257Z" fill="#FFCCEF"/>
<path d="M82.755 248.716H57.0872C57.0872 237.784 65.9618 228.91 76.894 228.91H82.7619C88.228 228.91 92.6619 233.343 92.6619 238.809C92.6619 244.276 88.228 248.709 82.7619 248.709L82.755 248.716Z" fill="#FFCCEF"/>
<path d="M82.755 225.183H57.0872C57.0872 214.25 65.9618 205.376 76.894 205.376H82.7619C88.228 205.376 92.6619 209.81 92.6619 215.276C92.6619 220.742 88.228 225.176 82.7619 225.176L82.755 225.183Z" fill="#FFCCEF"/>
<path d="M82.755 201.642H57.0872C57.0872 190.709 65.9618 181.835 76.894 181.835H82.7619C88.228 181.835 92.6619 186.269 92.6619 191.735C92.6619 197.201 88.228 201.635 82.7619 201.635L82.755 201.642Z" fill="#FFCCEF"/>
<path d="M60.8005 79.8564V93.3104" stroke="#0A0777" stroke-width="0.8" stroke-miterlimit="10"/>
<path d="M67.5274 86.5835H54.0735" stroke="#0A0777" stroke-width="0.8" stroke-miterlimit="10"/>
<path d="M91.8098 111.233C93.9409 111.233 95.6686 109.505 95.6686 107.374C95.6686 105.243 93.9409 103.515 91.8098 103.515C89.6786 103.515 87.9509 105.243 87.9509 107.374C87.9509 109.505 89.6786 111.233 91.8098 111.233Z" fill="#FB6E44"/>
</g>
<defs>
<clipPath id="clip0_346_428">
<rect width="528.085" height="334" fill="white" transform="translate(0.957764 0.830078)"/>
</clipPath>
</defs>
</svg>
