<svg width="51" height="32" viewBox="0 0 51 32" fill="none" xmlns="http://www.w3.org/2000/svg">
<rect x="0.343292" width="49.6716" height="32" rx="7.68185" fill="#F7F7F7"/>
<path d="M28.7472 9.4286H21.4338V22.571H28.7472V9.4286Z" fill="#FF5F00"/>
<path d="M21.8982 15.9998C21.897 14.7341 22.1838 13.4847 22.7369 12.3462C23.29 11.2078 24.0948 10.21 25.0905 9.42859C23.8575 8.45942 22.3767 7.8567 20.8173 7.68934C19.258 7.52197 17.683 7.7967 16.2724 8.48213C14.8618 9.16756 13.6725 10.236 12.8405 11.5654C12.0084 12.8948 11.5672 14.4315 11.5672 15.9998C11.5672 17.5681 12.0084 19.1048 12.8405 20.4342C13.6725 21.7636 14.8618 22.8321 16.2724 23.5175C17.683 24.2029 19.258 24.4777 20.8173 24.3103C22.3767 24.1429 23.8575 23.5402 25.0905 22.571C24.0948 21.7896 23.29 20.7919 22.7369 19.6534C22.1838 18.5149 21.897 17.2655 21.8982 15.9998Z" fill="#EB001B"/>
<path d="M38.6134 15.9998C38.6135 17.5681 38.1723 19.1048 37.3403 20.4342C36.5083 21.7636 35.319 22.832 33.9085 23.5175C32.4979 24.2029 30.9229 24.4776 29.3636 24.3103C27.8043 24.1429 26.3235 23.5402 25.0905 22.571C26.0853 21.7888 26.8895 20.7909 27.4425 19.6526C27.9955 18.5143 28.2828 17.2653 28.2828 15.9998C28.2828 14.7343 27.9955 13.4853 27.4425 12.347C26.8895 11.2087 26.0853 10.2108 25.0905 9.42859C26.3235 8.45942 27.8043 7.8567 29.3636 7.68934C30.9229 7.52197 32.4979 7.79671 33.9085 8.48215C35.319 9.16759 36.5083 10.2361 37.3403 11.5655C38.1723 12.8949 38.6135 14.4315 38.6134 15.9998Z" fill="#F79E1B"/>
<path d="M37.816 21.1791V20.91H37.9245V20.8552H37.6482V20.91H37.7567V21.1791H37.816ZM38.3525 21.1791V20.8546H38.2678L38.1703 21.0778L38.0729 20.8546H37.9882V21.1791H38.048V20.9343L38.1393 21.1453H38.2013L38.2927 20.9338V21.1791H38.3525Z" fill="#F79E1B"/>
</svg>
