<svg width="80" height="81" viewBox="0 0 80 81" fill="none" xmlns="http://www.w3.org/2000/svg">
<path d="M64 0.830078H16C7.16344 0.830078 0 7.99352 0 16.8301V64.8301C0 73.6666 7.16344 80.8301 16 80.8301H64C72.8366 80.8301 80 73.6666 80 64.8301V16.8301C80 7.99352 72.8366 0.830078 64 0.830078Z" fill="#FFCCEF"/>
<ellipse cx="40.4001" cy="49.2817" rx="14.8" ry="14.8" fill="#FB6E44"/>
<path d="M15.5001 0.830078C15.5001 14.3622 26.4703 25.3301 39.9987 25.3301C53.5272 25.3301 64.5002 14.3622 64.5002 0.830078H15.5001Z" fill="#0A0777"/>
<path d="M40.0001 25.3301C26.4708 25.3301 15.5 36.2629 15.5 49.7482C15.5 63.2335 26.4708 74.1635 40.0001 74.1635C53.5294 74.1635 64.5002 63.2307 64.5002 49.7482C64.5002 36.2658 53.5294 25.3329 40.0001 25.3329V25.3301ZM36.0219 58.5803L35.5429 58.1029L29.0637 51.6461L31.8802 48.8393L36.0248 52.9695L48.1228 40.9133L50.9394 43.7201L36.0248 58.5831L36.0219 58.5803Z" fill="white"/>
</svg>
