<svg width="50" height="32" viewBox="0 0 50 32" fill="none" xmlns="http://www.w3.org/2000/svg">
<rect width="49.6716" height="32" rx="7.68185" fill="#F7F7F7"/>
<path fill-rule="evenodd" clip-rule="evenodd" d="M10.866 11.3438H8.00224C7.80627 11.3438 7.6396 11.4862 7.60904 11.6796L6.45079 19.0223C6.42777 19.1672 6.53999 19.2978 6.68697 19.2978H8.05416C8.25013 19.2978 8.4168 19.1554 8.44736 18.9616L8.75975 16.9812C8.78989 16.7873 8.95697 16.6451 9.15253 16.6451H10.0591C11.9456 16.6451 13.0342 15.7323 13.3187 13.9235C13.4468 13.1322 13.3241 12.5104 12.9534 12.0749C12.5465 11.5969 11.8244 11.3438 10.866 11.3438ZM11.1964 14.0256C11.0398 15.0531 10.2547 15.0531 9.49548 15.0531H9.06333L9.3665 13.1341C9.38451 13.0183 9.485 12.9328 9.60226 12.9328H9.80032C10.3175 12.9328 10.8054 12.9328 11.0575 13.2275C11.2076 13.4035 11.2538 13.6647 11.1964 14.0256ZM19.4265 13.9927H18.0551C17.9383 13.9927 17.8373 14.0781 17.8193 14.1942L17.7586 14.5777L17.6627 14.4387C17.3658 14.0078 16.7039 13.8638 16.0431 13.8638C14.5275 13.8638 13.2332 15.0115 12.9811 16.6214C12.8501 17.4244 13.0364 18.1922 13.4919 18.7278C13.9099 19.2201 14.5079 19.4253 15.2193 19.4253C16.4403 19.4253 17.1176 18.6402 17.1176 18.6402L17.0564 19.0213C17.0333 19.167 17.1455 19.2976 17.2916 19.2976H18.527C18.7235 19.2976 18.8891 19.1552 18.9201 18.9614L19.6614 14.2682C19.6848 14.1239 19.573 13.9927 19.4265 13.9927ZM17.5148 16.6615C17.3825 17.4449 16.7606 17.9708 15.9677 17.9708C15.5695 17.9708 15.2511 17.8431 15.0468 17.6011C14.8441 17.3608 14.767 17.0186 14.8315 16.6377C14.9552 15.8609 15.5875 15.318 16.3684 15.318C16.7577 15.318 17.0744 15.4472 17.2829 15.6914C17.4918 15.938 17.5747 16.2821 17.5148 16.6615ZM25.3521 13.9925H26.7303C26.9233 13.9925 27.0359 14.2089 26.9262 14.3672L22.3427 20.9825C22.2685 21.0897 22.1462 21.1534 22.0156 21.1534H20.6392C20.4454 21.1534 20.3322 20.9353 20.4444 20.7766L21.8716 18.7623L20.3537 14.3081C20.3012 14.1533 20.4156 13.9925 20.5803 13.9925H21.9344C22.1104 13.9925 22.2656 14.108 22.3164 14.2764L23.1219 16.9665L25.0227 14.1671C25.0971 14.0578 25.2208 13.9925 25.3521 13.9925Z" fill="#253B80"/>
<path fill-rule="evenodd" clip-rule="evenodd" d="M40.2944 19.0216L41.4697 11.5447C41.4877 11.4286 41.5883 11.3432 41.7051 11.3428H43.0283C43.1744 11.3428 43.2866 11.4738 43.2635 11.6187L42.1045 18.961C42.0743 19.1547 41.9076 19.2972 41.7113 19.2972H40.5297C40.3836 19.2972 40.2714 19.1666 40.2944 19.0216ZM31.2935 11.3432H28.4292C28.2336 11.3432 28.067 11.4856 28.0364 11.6789L26.8781 19.0216C26.8551 19.1666 26.9673 19.2972 27.1136 19.2972H28.5832C28.7198 19.2972 28.8367 19.1976 28.858 19.0619L29.1867 16.9806C29.2169 16.7866 29.3839 16.6444 29.5795 16.6444H30.4856C32.3724 16.6444 33.4609 15.7316 33.7456 13.9229C33.874 13.1316 33.7506 12.5098 33.3801 12.0742C32.9733 11.5962 32.2519 11.3432 31.2935 11.3432ZM31.6239 14.025C31.4677 15.0525 30.6825 15.0525 29.9228 15.0525H29.4911L29.7947 13.1335C29.8128 13.0176 29.9124 12.9322 30.03 12.9322H30.228C30.7449 12.9322 31.2332 12.9322 31.4851 13.2269C31.6355 13.4028 31.6812 13.664 31.6239 14.025ZM39.8532 13.992H38.4828C38.3649 13.992 38.2649 14.0775 38.2473 14.1935L38.1867 14.577L38.0903 14.4381C37.7935 14.0072 37.1319 13.8632 36.4711 13.8632C34.9555 13.8632 33.6617 15.0108 33.4095 16.6208C33.2789 17.4237 33.4644 18.1916 33.92 18.7271C34.3387 19.2195 34.936 19.4247 35.6473 19.4247C36.8684 19.4247 37.5454 18.6395 37.5454 18.6395L37.4844 19.0207C37.4613 19.1664 37.5735 19.297 37.7206 19.297H38.9554C39.1509 19.297 39.3176 19.1545 39.3482 18.9608L40.0898 14.2676C40.1125 14.1232 40.0003 13.992 39.8532 13.992ZM37.9417 16.6609C37.8101 17.4442 37.1875 17.9701 36.3944 17.9701C35.9969 17.9701 35.678 17.8424 35.4735 17.6004C35.2708 17.3602 35.1947 17.018 35.2584 16.637C35.3826 15.8603 36.0142 15.3173 36.7951 15.3173C37.1846 15.3173 37.5011 15.4466 37.7098 15.6907C37.9194 15.9374 38.0024 16.2815 37.9417 16.6609Z" fill="#179BD7"/>
</svg>
