<svg width="500" height="462" viewBox="0 0 500 462" fill="none" xmlns="http://www.w3.org/2000/svg">
<path d="M405.051 79.6129L450.183 116.658H376.932L331.8 79.6129H405.051Z" fill="#0A0777"/>
<path d="M405.051 79.3136H258.563V235.454H405.051V79.3136Z" fill="white"/>
<path d="M258.563 79.3136H185.327V235.454H258.563V79.3136Z" fill="#0A0777"/>
<path d="M185.326 79.3136L138.172 116.359H211.409L258.563 79.3136H185.326Z" fill="#0A0777"/>
<path d="M258.564 79.2142L211.41 116.544H184.871" stroke="white" stroke-miterlimit="10"/>
<path d="M431.646 235.056H286.269V381.401H431.646V235.056Z" fill="#FFCCEF"/>
<path d="M377.843 269.353H341.709V382.212H377.843V269.353Z" fill="white"/>
<path d="M352.046 79.6129H315.911V200.331H352.046V79.6129Z" fill="#FB6E44"/>
<path d="M216.506 381.244V235.056H68.2244V381.244H216.506Z" fill="#0A0777"/>
<path d="M313.533 235.056H187.59V381.401H313.533V235.056Z" fill="white"/>
<path d="M236.866 235.055H313.534C313.534 226.171 306.301 218.896 297.474 218.896H236.866V235.055Z" fill="#0A0777"/>
<path d="M164.213 191.105C185.91 200.687 195.734 226.043 186.153 247.741C183.618 253.464 179.988 258.362 175.617 262.291L186.167 266.947C198.938 272.585 204.775 287.634 199.137 300.405L129.901 269.837C129.773 269.766 129.645 269.723 129.517 269.666C107.819 260.085 97.9951 234.728 107.577 213.03C117.159 191.333 142.515 181.509 164.213 191.091V191.105Z" fill="#FFCCEF"/>
<path d="M189.512 235.198H263.233C276.588 235.198 287.508 224.278 287.508 210.923V186.649H263.233H189.512C176.158 186.649 165.238 197.569 165.238 210.923C165.238 224.278 176.158 235.198 189.512 235.198Z" fill="#FFCCEF"/>
<path d="M206.184 147.923V179.445H264.984L220.848 141.217C215.111 136.249 206.184 140.32 206.184 147.923Z" fill="#FFCCEF"/>
<path d="M210.342 152.052H237.122C257.61 152.052 274.381 168.824 274.381 189.311H210.342V152.052Z" fill="#FFCCEF"/>
<path d="M287.508 186.649V199.448L274.381 186.649H287.508Z" fill="#0A0777"/>
<path d="M265.184 235.055C259.204 191.589 221.917 158.103 176.813 158.103C131.709 158.103 94.4215 191.589 88.4418 235.055H265.198H265.184Z" fill="#FFCCEF"/>
<path d="M59.1128 301.586C53.9874 301.586 49.8301 297.429 49.8301 292.304V246.232C49.8301 230.201 62.8715 217.173 78.8884 217.173H120.476C125.601 217.173 129.758 221.331 129.758 226.456C129.758 231.582 125.601 235.739 120.476 235.739H78.8884C73.0938 235.739 68.3813 240.451 68.3813 246.246V292.318C68.3813 297.443 64.224 301.601 59.0986 301.601L59.1128 301.586Z" fill="#FFCCEF"/>
<path d="M224.978 216.148H223.582C217.025 216.148 211.709 221.465 211.709 228.022V276.287C211.709 282.845 217.025 288.161 223.582 288.161H224.978C231.536 288.161 236.852 282.845 236.852 276.287V228.022C236.852 221.465 231.536 216.148 224.978 216.148Z" fill="#FFCCEF"/>
<path d="M142.373 187.674C149.591 186.905 157.108 187.958 164.227 191.105C181.838 198.878 191.619 217.045 189.569 235.212" stroke="#0A0777" stroke-miterlimit="10"/>
<path d="M415.729 275.815L371.899 254.41L359.753 279.279L403.583 300.685L415.729 275.815Z" fill="#FB6E44"/>
<path d="M274.481 196.572H256.841" stroke="#FB6E44" stroke-miterlimit="10"/>
<path d="M274.409 196.572L258.663 204.517" stroke="#FB6E44" stroke-miterlimit="10"/>
<path d="M258.635 188.642L274.381 196.601" stroke="#FB6E44" stroke-miterlimit="10"/>
</svg>
