<svg width="500" height="462" viewBox="0 0 500 462" fill="none" xmlns="http://www.w3.org/2000/svg">
<path d="M158.989 374.856H52.7644V397.721H158.989V374.856Z" fill="white"/>
<path d="M62.7875 374.016V398.576" stroke="#0A0777" stroke-miterlimit="10"/>
<path d="M105.884 374.016V398.576" stroke="#0A0777" stroke-miterlimit="10"/>
<path d="M148.98 374.016V398.576" stroke="#0A0777" stroke-miterlimit="10"/>
<path d="M127.439 374.016V398.576" stroke="#0A0777" stroke-miterlimit="10"/>
<path d="M84.343 374.016V398.576" stroke="#0A0777" stroke-miterlimit="10"/>
<path d="M168.927 346.623H62.7022V369.488H168.927V346.623Z" fill="#C9E3F7"/>
<path d="M72.7253 345.783V370.343" stroke="#0A0777" stroke-miterlimit="10"/>
<path d="M115.822 345.783V370.343" stroke="#0A0777" stroke-miterlimit="10"/>
<path d="M158.918 345.783V370.343" stroke="#0A0777" stroke-miterlimit="10"/>
<path d="M137.377 345.783V370.343" stroke="#0A0777" stroke-miterlimit="10"/>
<path d="M94.281 345.783V370.343" stroke="#0A0777" stroke-miterlimit="10"/>
<path d="M178.594 318.618H74.4192V341.042H178.594V318.618Z" fill="#FB6E44"/>
<path d="M84.2428 317.779V341.868" stroke="#0A0777" stroke-miterlimit="10"/>
<path d="M126.513 317.779V341.868" stroke="#0A0777" stroke-miterlimit="10"/>
<path d="M168.77 317.779V341.868" stroke="#0A0777" stroke-miterlimit="10"/>
<path d="M147.641 317.779V341.868" stroke="#0A0777" stroke-miterlimit="10"/>
<path d="M105.385 317.779V341.868" stroke="#0A0777" stroke-miterlimit="10"/>
<path d="M189.641 290.158H83.4169V313.023H189.641V290.158Z" fill="white"/>
<path d="M93.4401 289.304V313.863" stroke="#0A0777" stroke-miterlimit="10"/>
<path d="M136.536 289.304V313.863" stroke="#0A0777" stroke-miterlimit="10"/>
<path d="M179.633 289.304V313.863" stroke="#0A0777" stroke-miterlimit="10"/>
<path d="M158.077 289.304V313.863" stroke="#0A0777" stroke-miterlimit="10"/>
<path d="M114.981 289.304V313.863" stroke="#0A0777" stroke-miterlimit="10"/>
<path d="M175.048 261.926H68.8234V284.791H175.048V261.926Z" fill="#C9E3F7"/>
<path d="M78.8465 261.071V285.631" stroke="#0A0777" stroke-miterlimit="10"/>
<path d="M121.942 261.071V285.631" stroke="#0A0777" stroke-miterlimit="10"/>
<path d="M165.039 261.071V285.631" stroke="#0A0777" stroke-miterlimit="10"/>
<path d="M143.483 261.071V285.631" stroke="#0A0777" stroke-miterlimit="10"/>
<path d="M100.387 261.071V285.631" stroke="#0A0777" stroke-miterlimit="10"/>
<path d="M68.838 256.558H175.062V233.693H68.838V256.558Z" fill="#FB6E44"/>
<path d="M165.039 232.839V257.398" stroke="#0A0777" stroke-miterlimit="10"/>
<path d="M121.943 232.839V257.398" stroke="#0A0777" stroke-miterlimit="10"/>
<path d="M78.8467 232.839V257.398" stroke="#0A0777" stroke-miterlimit="10"/>
<path d="M100.387 232.839V257.398" stroke="#0A0777" stroke-miterlimit="10"/>
<path d="M143.484 232.839V257.398" stroke="#0A0777" stroke-miterlimit="10"/>
<path d="M51.8532 228.311H158.078V205.446H51.8532V228.311Z" fill="white"/>
<path d="M148.055 204.606V229.166" stroke="#0A0777" stroke-miterlimit="10"/>
<path d="M104.958 204.606V229.166" stroke="#0A0777" stroke-miterlimit="10"/>
<path d="M61.8619 204.606V229.166" stroke="#0A0777" stroke-miterlimit="10"/>
<path d="M83.4175 204.606V229.166" stroke="#0A0777" stroke-miterlimit="10"/>
<path d="M126.514 204.606V229.166" stroke="#0A0777" stroke-miterlimit="10"/>
<path d="M90.3793 200.079H196.604V177.214H90.3793V200.079Z" fill="white"/>
<path d="M186.581 176.374V200.933" stroke="#0A0777" stroke-miterlimit="10"/>
<path d="M143.484 176.374V200.933" stroke="#0A0777" stroke-miterlimit="10"/>
<path d="M100.388 176.374V200.933" stroke="#0A0777" stroke-miterlimit="10"/>
<path d="M121.944 176.374V200.933" stroke="#0A0777" stroke-miterlimit="10"/>
<path d="M165.04 176.374V200.933" stroke="#0A0777" stroke-miterlimit="10"/>
<path d="M179.59 148.739H73.3654V171.605H179.59V148.739Z" fill="#C9E3F7"/>
<path d="M83.3739 147.899V172.459" stroke="#0A0777" stroke-miterlimit="10"/>
<path d="M126.47 147.899V172.459" stroke="#0A0777" stroke-miterlimit="10"/>
<path d="M169.567 147.899V172.459" stroke="#0A0777" stroke-miterlimit="10"/>
<path d="M148.026 147.899V172.459" stroke="#0A0777" stroke-miterlimit="10"/>
<path d="M104.93 147.899V172.459" stroke="#0A0777" stroke-miterlimit="10"/>
<path d="M169.652 120.506H63.4276V143.372H169.652V120.506Z" fill="white"/>
<path d="M73.436 119.666V144.226" stroke="#0A0777" stroke-miterlimit="10"/>
<path d="M116.532 119.666V144.225" stroke="#0A0777" stroke-miterlimit="10"/>
<path d="M159.629 119.666V144.225" stroke="#0A0777" stroke-miterlimit="10"/>
<path d="M138.088 119.666V144.225" stroke="#0A0777" stroke-miterlimit="10"/>
<path d="M94.9915 119.666V144.225" stroke="#0A0777" stroke-miterlimit="10"/>
<path d="M179.59 92.2739H73.3654V115.139H179.59V92.2739Z" fill="#C9E3F7"/>
<path d="M83.3739 91.4337V115.993" stroke="#0A0777" stroke-miterlimit="10"/>
<path d="M126.47 91.4337V115.993" stroke="#0A0777" stroke-miterlimit="10"/>
<path d="M169.567 91.4337V115.993" stroke="#0A0777" stroke-miterlimit="10"/>
<path d="M148.026 91.4337V115.993" stroke="#0A0777" stroke-miterlimit="10"/>
<path d="M104.93 91.4337V115.993" stroke="#0A0777" stroke-miterlimit="10"/>
<path d="M162.946 64.2693H58.7717V86.693H162.946V64.2693Z" fill="#FB6E44"/>
<path d="M68.5953 63.4291V87.5187" stroke="#0A0777" stroke-miterlimit="10"/>
<path d="M110.852 63.4293V87.5188" stroke="#0A0777" stroke-miterlimit="10"/>
<path d="M153.122 63.4293V87.5188" stroke="#0A0777" stroke-miterlimit="10"/>
<path d="M131.98 63.4293V87.5188" stroke="#0A0777" stroke-miterlimit="10"/>
<path d="M89.7232 63.4293V87.5188" stroke="#0A0777" stroke-miterlimit="10"/>
<path d="M272.133 290.016L393.221 326.435L448.163 272.661V189.885L404.554 202.812H272.133C248.157 202.812 228.524 222.431 228.524 246.421C228.524 270.397 248.143 290.03 272.133 290.03V290.016Z" fill="#FFCCEF"/>
<path d="M309.563 128.664V189.871H415.175L332.428 118.214C323.473 110.455 309.549 116.819 309.549 128.664H309.563Z" fill="#FFCCEF"/>
<path d="M309.563 140.652H357.67C394.474 140.652 424.6 170.764 424.6 207.582H309.577V140.652H309.563Z" fill="#FFCCEF"/>
<path d="M336.471 156.883H189.044C135.953 156.883 92.9136 199.922 92.9136 253.013V282.114C92.9136 335.206 135.953 378.245 189.044 378.245H336.471C389.562 378.245 432.601 335.206 432.601 282.114V253.013C432.601 199.922 389.562 156.883 336.471 156.883Z" fill="#FFCCEF"/>
<path d="M211.98 398.575H178.209L161.438 369.731H211.98V398.575Z" fill="#FFCCEF"/>
<path d="M352.645 398.575H318.888L302.103 369.731H352.645V398.575Z" fill="#FFCCEF"/>
<path d="M113.871 227.912L109.457 225.634C103.292 222.445 101.769 217.462 100.644 213.832C99.6619 210.628 99.1209 209.148 96.7575 207.923C94.3941 206.699 92.8849 207.112 89.6958 208.151C86.0795 209.333 81.1391 210.956 74.9744 207.767C68.8096 204.577 67.2862 199.594 66.1615 195.964C65.1649 192.746 64.6381 191.28 62.2747 190.055L57.8611 187.777L62.4313 178.965L66.8449 181.242C73.0096 184.432 74.533 189.415 75.6578 193.045C76.6544 196.263 77.1812 197.729 79.5446 198.954C81.908 200.178 83.4171 199.765 86.6063 198.726C90.2225 197.544 95.1629 195.921 101.328 199.11C107.492 202.299 109.016 207.283 110.141 210.913C111.123 214.116 111.664 215.597 114.027 216.822L118.441 219.099L113.871 227.912Z" fill="#FFCCEF"/>
<path d="M249.395 201.417C275.461 201.417 296.592 180.286 296.592 154.22C296.592 128.154 275.461 107.024 249.395 107.024C223.329 107.024 202.198 128.154 202.198 154.22C202.198 180.286 223.329 201.417 249.395 201.417Z" fill="#FB6E44"/>
<path d="M249.395 186.326C267.127 186.326 281.501 171.952 281.501 154.221C281.501 136.49 267.127 122.116 249.395 122.116C231.664 122.116 217.29 136.49 217.29 154.221C217.29 171.952 231.664 186.326 249.395 186.326Z" stroke="#0A0777" stroke-miterlimit="10"/>
<path d="M302.572 176.744H196.233V229.707H302.572V176.744Z" fill="#FFCCEF"/>
<path d="M190.011 176.744H308.793" stroke="#0A0777" stroke-miterlimit="10"/>
</svg>
