<svg width="51" height="32" viewBox="0 0 51 32" fill="none" xmlns="http://www.w3.org/2000/svg">
<rect x="0.686569" width="49.6716" height="32" rx="7.68185" fill="#F7F7F7"/>
<path d="M16.1624 6.44727H23.7221C24.7774 6.44727 25.4344 7.30767 25.1882 8.36727L21.668 23.4778C21.4193 24.5343 20.3632 25.3947 19.3075 25.3947H11.7475C10.6918 25.3947 10.0355 24.5343 10.2818 23.4778L13.8037 8.36727C14.0492 7.30767 15.1046 6.44727 16.1624 6.44727Z" fill="#ED171F"/>
<path d="M23.0934 6.44727H31.7877C32.8427 6.44727 32.3668 7.30767 32.1188 8.36726L28.599 23.4778C28.3531 24.5343 28.4302 25.3947 27.3724 25.3947H18.6788C17.6221 25.3947 16.9676 24.5343 17.2159 23.4778L20.7343 8.36726C20.983 7.30767 22.038 6.44727 23.0934 6.44727Z" fill="#082F67"/>
<path d="M31.4437 6.44727H39.0023C40.0584 6.44727 40.7146 7.30767 40.4673 8.36726L36.9479 23.4778C36.7006 24.5343 35.6449 25.3947 34.5857 25.3947H27.0291C25.9713 25.3947 25.3161 24.5343 25.5641 23.4778L29.0825 8.36726C29.3302 7.30767 30.3855 6.44727 31.4437 6.44727Z" fill="#006A65"/>
<path fill-rule="evenodd" clip-rule="evenodd" d="M30.6534 11.2784H30.9697L31.0298 11.2797C31.6503 11.2931 32.1714 11.3044 32.436 11.6665C32.5366 11.8102 32.5798 11.9971 32.5798 12.184C32.5798 12.3421 32.551 12.4859 32.5223 12.6009C32.4073 13.0897 32.1629 13.5065 31.7891 13.7797C31.2428 14.1822 30.5384 14.1822 29.9203 14.1822H29.8628C29.8197 14.2109 29.7765 14.2684 29.7765 14.2684C29.7765 14.2972 29.6328 14.8866 29.6328 14.8866C29.6328 14.8866 29.4603 15.706 29.4315 15.8354C29.3165 15.821 29.0147 15.821 28.3103 15.8354C28.339 15.6916 29.0434 12.8022 29.0434 12.8022L29.3309 11.4365L29.374 11.264C29.5034 11.2784 29.834 11.2927 30.6534 11.2784ZM30.8691 13.3772C31.1278 13.2622 31.3147 13.0034 31.3866 12.7015C31.4585 12.3709 31.3578 12.1121 31.1135 12.0115C31.0991 12.0115 30.4522 11.954 30.4522 11.954L30.3228 11.9396V11.9971L30.3084 12.069L29.9922 13.4203L29.9778 13.4922H30.1503C30.4091 13.4922 30.6678 13.4778 30.8691 13.3772Z" fill="#F7F7F7"/>
<path d="M17.0255 11.2927C16.9968 11.422 16.4793 13.8371 16.4793 13.8371C16.3643 14.3259 16.278 14.6709 16.0049 14.9009C15.8468 15.0303 15.6599 15.0878 15.4442 15.0878C15.0992 15.0878 14.898 14.9153 14.8692 14.599L14.8548 14.484L14.9555 13.8227C14.9555 13.8227 15.5017 11.6233 15.6024 11.3358C15.6024 11.3214 15.6167 11.307 15.6167 11.307C14.553 11.3214 14.3517 11.307 14.3517 11.2927C14.3517 11.3214 14.323 11.4508 14.323 11.4508L13.7623 13.9234L13.7192 14.139L13.6329 14.829C13.6329 15.0303 13.6761 15.2028 13.7479 15.3465C14.0067 15.7922 14.7255 15.864 15.1424 15.864C15.6742 15.864 16.163 15.749 16.508 15.5478C17.0732 15.2169 17.2286 14.701 17.3672 14.2408L17.3849 14.1821L17.4424 13.9377C17.4424 13.9377 18.0031 11.6521 18.1037 11.3502V11.3214C17.9256 11.3181 17.7762 11.3156 17.6509 11.3134C17.2302 11.3063 17.0809 11.3037 17.0255 11.2927Z" fill="#F7F7F7"/>
<path fill-rule="evenodd" clip-rule="evenodd" d="M32.6085 17.6035L31.6885 20.6367H31.9329L31.8418 20.9451L31.861 20.8811H32.1197C32.1916 20.8811 32.2491 20.8523 32.3066 20.8236C32.3497 20.8092 32.3929 20.7804 32.4504 20.7086L33.126 19.7598H32.2204L32.3785 19.2423H33.4135L33.5573 18.7679H32.5366L32.7091 18.1785H35.5555L35.383 18.7679H34.4342L34.2761 19.2423H35.2392L35.0811 19.7598H34.046L33.8592 19.9754H34.2761L34.3767 20.6367C34.3815 20.6607 34.3847 20.6798 34.3873 20.6958C34.3927 20.7277 34.3958 20.7469 34.4054 20.7661C34.4198 20.7948 34.5492 20.8092 34.6211 20.8092H34.7504L34.5636 21.4417H34.0173C33.9521 21.4324 33.905 21.405 33.8604 21.379C33.8362 21.3649 33.8126 21.3512 33.7873 21.3411C33.7298 21.3123 33.6435 21.2405 33.6148 21.1111L33.5142 20.4498L33.0398 21.0967C32.896 21.298 32.6948 21.4561 32.3497 21.4561H31.6885L31.7445 21.2692H31.5016L31.4441 21.4705H30.5672L30.6247 21.2692H28.8422L29.029 20.6942H29.2015L30.3228 16.9854H31.2141L31.1135 17.3016C31.1135 17.3016 31.3579 17.1291 31.5735 17.0716C31.7644 17.0239 32.6882 16.996 32.9967 16.9879L32.9966 16.9854H33.9454L33.9598 17.3448C33.9598 17.4023 34.0029 17.431 34.1179 17.431H34.3192L34.1466 18.0204H33.6291C33.1835 18.0492 33.011 17.8623 33.0254 17.6466L33.0093 17.2765L32.9104 17.6035H32.6085ZM30.1072 20.6511H30.8116L31.0272 19.9755H30.3085L30.1072 20.6511ZM30.6822 18.7535L30.4378 19.5586C30.4378 19.5586 30.711 19.4148 30.8547 19.3717C30.9985 19.3429 31.2285 19.3142 31.2285 19.3142L31.401 18.7535H30.6822ZM31.0272 17.6035L30.7972 18.3798C30.7972 18.3798 31.056 18.2648 31.1997 18.2217C31.3435 18.1785 31.5591 18.1642 31.5591 18.1642L31.7316 17.6035H31.0272Z" fill="#F7F7F7"/>
<path d="M23.1926 18.3367H25.5933L25.4208 18.9117H24.4577L24.3139 19.4005H25.2914L25.1189 19.9898H24.1414L23.897 20.7805C23.8683 20.8668 24.127 20.8811 24.2277 20.8811L24.7164 20.8092L24.5152 21.4705H23.4083C23.34 21.4705 23.2807 21.4615 23.2091 21.4506C23.1902 21.4478 23.1705 21.4448 23.1495 21.4418C23.0632 21.4274 23.0201 21.3699 22.977 21.3124C22.9698 21.3004 22.9622 21.2892 22.9547 21.2782C22.9175 21.2233 22.8836 21.1734 22.9195 21.0536L23.2357 20.0042H22.6895L22.862 19.4005H23.4083L23.552 18.9117H23.0057L23.1926 18.3367Z" fill="#F7F7F7"/>
<path d="M25.7802 17.3016H24.8026L24.9464 16.9854H23.9689L23.7245 17.431C23.667 17.5316 23.6239 17.5891 23.5807 17.6179C23.552 17.6323 23.4801 17.6466 23.3651 17.6466H23.2357L23.0632 18.2217H23.4945C23.7101 18.2217 23.8682 18.1498 23.9401 18.1067C23.9674 18.0975 23.989 18.0928 24.0075 18.0887C24.0475 18.0798 24.0733 18.0741 24.1126 18.0348L24.2564 17.9054H25.6077L25.7802 17.3016Z" fill="#F7F7F7"/>
<path fill-rule="evenodd" clip-rule="evenodd" d="M26.2115 16.9854H27.0452L26.9302 17.4023C26.9302 17.4023 27.189 17.1866 27.3759 17.1148C27.5628 17.0429 27.9796 16.9854 27.9796 16.9854H29.3309L28.8709 18.5235C28.7847 18.7823 28.6984 18.9548 28.6409 19.0411C28.5834 19.1273 28.5259 19.1848 28.4109 19.2567C28.2959 19.3142 28.1953 19.3573 28.0946 19.3573C28.0084 19.3717 27.8647 19.3717 27.6779 19.3717H26.3696L25.9958 20.5936C25.9891 20.6204 25.9824 20.6441 25.9764 20.6653C25.9568 20.7346 25.945 20.7762 25.9671 20.8092C25.9815 20.838 26.0246 20.8667 26.0965 20.8667L26.6715 20.8092L26.4702 21.4849H25.8233C25.6221 21.4849 25.4639 21.4849 25.3633 21.4705C25.3351 21.4665 25.3068 21.4647 25.2792 21.463C25.2085 21.4585 25.1419 21.4544 25.0902 21.413C25.0822 21.405 25.0737 21.3968 25.065 21.3884C25.0105 21.3356 24.9464 21.2736 24.9464 21.2117C24.9464 21.1442 24.9718 21.0512 25.0107 20.909L25.0183 20.8811L26.2115 16.9854ZM26.7002 18.2935C26.7002 18.2935 26.9734 18.0492 27.4334 17.9629C27.534 17.9485 28.1953 17.9485 28.1953 17.9485L28.2959 17.6179H26.9015L26.7002 18.2935ZM27.994 18.5379H26.614L26.5277 18.811H27.7209C27.8359 18.7995 27.8773 18.8064 27.8966 18.8097C27.9014 18.8105 27.9049 18.811 27.9078 18.811L27.994 18.5379Z" fill="#F7F7F7"/>
<path d="M28.5833 19.846L28.6552 19.4722H28.0227L27.9364 19.731C27.9221 19.7741 27.9077 19.8029 27.8789 19.8173C27.8502 19.8316 27.7927 19.846 27.7352 19.846H27.5339L27.5483 19.5154H26.7289L26.7001 21.1398C26.7001 21.2548 26.7145 21.3267 26.8008 21.3842C26.887 21.4561 27.1458 21.4704 27.5052 21.4704H28.0227L28.2096 20.8523L27.7639 20.881L27.6202 20.8954C27.6142 20.8895 27.6083 20.886 27.6013 20.8819C27.5914 20.8761 27.5795 20.8691 27.5627 20.8523C27.5588 20.8446 27.554 20.84 27.549 20.8353C27.535 20.822 27.5195 20.8073 27.5195 20.7229V20.306L27.9796 20.2773C28.2239 20.2773 28.3389 20.191 28.4252 20.1191C28.5258 20.0473 28.5546 19.961 28.5833 19.846Z" fill="#F7F7F7"/>
<path d="M19.1962 15.8354C19.6419 15.821 19.7856 15.821 20.1594 15.821L20.2025 15.7779C20.2482 15.4696 20.2757 15.3337 20.3427 15.0028C20.3601 14.917 20.3801 14.8181 20.4038 14.6997L20.4613 14.4409L20.4652 14.4227C20.5776 13.9031 20.6328 13.6478 20.5475 13.4347C20.4469 13.1903 20.2169 13.1328 20.0156 13.1328C19.8719 13.1328 19.6275 13.1615 19.3975 13.2765C19.3616 13.2981 19.322 13.3197 19.2825 13.3412C19.243 13.3628 19.2034 13.3843 19.1675 13.4059L19.2394 13.1472L19.1962 13.104C18.7337 13.2022 18.6128 13.2183 18.2072 13.2723L18.1756 13.2765L18.1468 13.3053L18.1457 13.3138C18.0887 13.7265 18.0449 14.0441 17.8593 14.8722C17.8234 15.0231 17.7874 15.1777 17.7515 15.3322C17.7156 15.4867 17.6796 15.6413 17.6437 15.7922L17.6581 15.8354C18.1037 15.821 18.2475 15.821 18.6356 15.821L18.6643 15.7922C18.6882 15.6851 18.7021 15.6124 18.7185 15.5273C18.7416 15.4069 18.7695 15.2616 18.8369 14.9585C18.8552 14.8757 18.878 14.765 18.9024 14.6466C18.9543 14.3948 19.0134 14.108 19.0525 13.9809C19.1531 13.9378 19.2537 13.8947 19.34 13.8947C19.5556 13.8947 19.5412 14.0959 19.5269 14.1678C19.5125 14.2972 19.4406 14.7141 19.3544 15.0735L19.2969 15.3035C19.273 15.4469 19.2391 15.5805 19.2036 15.7206C19.1964 15.749 19.1891 15.7776 19.1819 15.8066L19.1962 15.8354Z" fill="#F7F7F7"/>
<path d="M21.6975 15.821H21.18C21.1142 15.821 21.0483 15.824 20.9769 15.8272C20.8925 15.8311 20.8003 15.8353 20.6912 15.8353L20.6625 15.8066C20.72 15.591 20.7487 15.5047 20.7775 15.4328C20.8062 15.3609 20.835 15.2747 20.8781 15.0591C20.95 14.7716 20.9931 14.5703 21.0219 14.3834C21.0362 14.2972 21.047 14.2181 21.0578 14.139C21.0686 14.06 21.0794 13.9809 21.0937 13.8947L21.1225 13.8659C21.2323 13.8522 21.3224 13.8385 21.4023 13.8263C21.4898 13.813 21.5649 13.8015 21.64 13.794C21.7838 13.7797 21.9419 13.7509 22.1719 13.6934L22.1863 13.7078V13.7221C22.1647 13.8156 22.1431 13.9055 22.1216 13.9953C22.1 14.0851 22.0785 14.175 22.0569 14.2684C22.0353 14.3619 22.0138 14.4517 21.9922 14.5416C21.9706 14.6314 21.9491 14.7213 21.9275 14.8147C21.8413 15.2028 21.8125 15.3322 21.7838 15.4472C21.777 15.4943 21.7703 15.532 21.7621 15.5779C21.7528 15.6301 21.7415 15.6929 21.7263 15.7922L21.6975 15.821Z" fill="#F7F7F7"/>
<path fill-rule="evenodd" clip-rule="evenodd" d="M25.0039 13.4921C25.1333 13.6646 25.2339 13.9378 25.1046 14.5128C25.0614 14.6853 24.9464 15.1165 24.702 15.3897C24.3714 15.7491 23.9258 15.8641 23.4945 15.8641C23.322 15.8641 23.0632 15.8353 22.8764 15.7634C22.287 15.5191 22.3732 14.8865 22.4595 14.5272C22.5314 14.1821 22.6751 13.8228 22.9626 13.5496C23.3651 13.1759 23.8826 13.1615 24.0983 13.1615C24.4577 13.1615 24.8027 13.2334 25.0039 13.4921ZM24.0946 14.5538C24.1019 14.5248 24.1079 14.5008 24.1127 14.484C24.2133 14.0384 24.1989 13.7509 23.9545 13.7796C23.6526 13.7796 23.5376 14.139 23.437 14.5847C23.4328 14.6077 23.4286 14.6301 23.4245 14.6521C23.4005 14.7808 23.3795 14.8931 23.3795 15.0159C23.3795 15.289 23.5664 15.289 23.5951 15.289C23.7101 15.289 23.7964 15.2172 23.8826 15.1022C23.9905 14.9704 24.0583 14.6989 24.0946 14.5538Z" fill="#F7F7F7"/>
<path fill-rule="evenodd" clip-rule="evenodd" d="M34.3623 15.8641C33.9023 15.8641 33.7729 15.8641 33.3416 15.8785L33.3129 15.8497L33.3587 15.6776C33.2023 15.8084 33.0337 15.8984 32.8529 15.9072C32.6948 15.9072 32.5223 15.8785 32.3354 15.8066C31.746 15.5766 31.8323 14.9297 31.9185 14.5847C31.9904 14.2397 32.1342 13.8803 32.4217 13.6071C32.8386 13.2478 33.3129 13.1471 33.5142 13.219C33.6634 13.277 33.7636 13.3685 33.8337 13.4765L33.8448 13.3915L33.8735 13.3628C33.9681 13.348 34.0481 13.3357 34.1196 13.3246C34.3959 13.282 34.5461 13.2588 34.9229 13.1903L34.9373 13.2334L34.6785 14.3116C34.5438 14.8956 34.4792 15.2602 34.4231 15.5769L34.4229 15.5779C34.4073 15.6662 34.3923 15.7508 34.3767 15.8353L34.3623 15.8641ZM33.7171 14.1979C33.7134 13.9509 33.6044 13.8084 33.4279 13.8084C33.1261 13.8084 33.0111 14.1822 32.9104 14.6134L32.9025 14.6566C32.8766 14.7978 32.8529 14.9272 32.8529 15.0447C32.8529 15.3178 33.0398 15.3178 33.0686 15.3178C33.1836 15.3178 33.3704 15.2603 33.4423 15.1453C33.4858 15.0855 33.5252 14.9948 33.5589 14.9005C33.588 14.7817 33.6163 14.6622 33.6435 14.5416C33.6727 14.4117 33.6968 14.2988 33.7171 14.1979Z" fill="#F7F7F7"/>
<path d="M27.6921 15.821C27.304 15.821 27.1746 15.821 26.7433 15.8354L26.7289 15.8066C26.7362 15.7776 26.7434 15.749 26.7506 15.7206C26.7862 15.5805 26.82 15.447 26.8439 15.3035L26.9014 15.0735C26.9877 14.7141 27.0596 14.2972 27.0739 14.1678C27.0883 14.0959 27.1027 13.8947 26.8871 13.8947C26.8008 13.8947 26.7002 13.9378 26.5996 13.9809C26.5604 14.108 26.5014 14.3948 26.4495 14.6466C26.4251 14.765 26.4023 14.8757 26.3839 14.9585C26.2933 15.3663 26.2741 15.4884 26.2489 15.6485C26.2421 15.6916 26.2349 15.7374 26.2258 15.7922L26.197 15.821C25.8089 15.821 25.6652 15.821 25.2195 15.8354L25.2051 15.7922C25.2411 15.6413 25.277 15.4867 25.313 15.3322C25.3489 15.1777 25.3848 15.0231 25.4208 14.8722C25.6064 14.0441 25.6502 13.7265 25.7071 13.3138L25.7083 13.3053L25.737 13.2765L25.7686 13.2723C26.1742 13.2183 26.2951 13.2022 26.7577 13.104L26.8008 13.1472L26.7289 13.4059C26.7649 13.3843 26.8044 13.3628 26.8439 13.3412C26.8835 13.3197 26.923 13.2981 26.9589 13.2765C27.1889 13.1615 27.4333 13.1328 27.5627 13.1328C27.764 13.1328 27.994 13.1903 28.0946 13.4347C28.1799 13.6478 28.1247 13.9031 28.0123 14.4227L28.0083 14.4409L27.9508 14.6997C27.8477 15.1582 27.8176 15.3242 27.7733 15.5694C27.762 15.6317 27.7498 15.6992 27.7352 15.7779L27.6921 15.821Z" fill="#F7F7F7"/>
<path d="M38.1143 13.1902L38.0711 13.1471C37.5967 13.2477 37.5249 13.2621 37.0936 13.3196L37.0649 13.3484V13.3627C36.8959 13.7544 36.8172 13.8917 36.7411 14.0244C36.6748 14.1402 36.6104 14.2526 36.4898 14.5271V14.4553L36.4323 13.1902L36.3892 13.1471C36.2756 13.1705 36.1877 13.1892 36.1139 13.2049C35.8705 13.2567 35.7825 13.2755 35.4404 13.3196L35.4117 13.3484C35.4117 13.3627 35.4117 13.3771 35.3973 13.3915C35.4405 13.6075 35.4431 13.6288 35.4662 13.815C35.4738 13.8766 35.4836 13.9563 35.4979 14.0671C35.5123 14.1821 35.5267 14.2935 35.5411 14.4049C35.5554 14.5164 35.5698 14.6278 35.5842 14.7428C35.5994 14.8746 35.6128 14.9815 35.6264 15.0891C35.6512 15.2866 35.6763 15.4868 35.7136 15.8497C35.5986 16.0413 35.517 16.1891 35.4434 16.3225C35.3236 16.5394 35.2249 16.7183 35.0379 16.9853L35.0523 17.0285C35.4979 17.0141 35.5986 17.0141 35.9292 17.0141L36.0011 16.9278C36.2311 16.4247 38.1143 13.1902 38.1143 13.1902Z" fill="#F7F7F7"/>
<path d="M22.1863 12.9602C22.402 13.0752 22.3732 13.3196 22.1145 13.4921C21.8557 13.6646 21.4819 13.7077 21.2663 13.5927C21.0507 13.4633 21.0794 13.219 21.3382 13.0465C21.5969 12.8739 21.9707 12.8308 22.1863 12.9602Z" fill="#F7F7F7"/>
</svg>
