<svg width="1183" height="412" viewBox="0 0 1183 412" fill="none" xmlns="http://www.w3.org/2000/svg">
<path d="M196.5 145.911H205.5" stroke="black"/>
<path d="M213.5 145.911H219.5" stroke="black"/>
<path d="M213.5 227.911V214.411" stroke="black"/>
<path d="M147.5 321.411H145V327.911H147.5V321.411Z" stroke="black"/>
<path d="M157.5 321.411H155V327.911H157.5V321.411Z" stroke="black"/>
<path d="M167.5 321.411H165V327.911H167.5V321.411Z" stroke="black"/>
<path d="M177.5 321.411H175V327.911H177.5V321.411Z" stroke="black"/>
<path d="M187.5 321.411H185V327.911H187.5V321.411Z" stroke="black"/>
<path d="M104 331.411H123M123 331.411H1079M123 331.411V318.911L136 309.411V289.411L170.5 280.911V246.911L171.5 246.477M171.5 246.477L185.5 240.411L201.5 246.911V289.411H216.5V276.911L245 265.411L272 276.911V246.911M171.5 246.477V228.911H181.5V212.911H185.5V170.411H223L224 213.411H227.5V228.911H238V244.911M272 240.411V244.911M272 244.911V246.911M272 244.911H268.5V230.911C266.703 229.114 262.59 225.826 258.5 224.757M272 246.911H276V166.411H295.5V148.411L298.5 144.911V138.411L296.5 135.911H298.5L300 132.411L302.5 130.911V120.411L300 117.911H304.5L306 114.911L304.5 110.911H307.5C307 109.577 306.5 106.811 308.5 106.411V101.411H311V106.411C312 106.077 313 109.911 311.5 110.911H315L313.5 114.911L315 117.911H320L317 120.411L317.5 130.911L319.5 132.411V135.911H322.5L321 138.411V144.911L324 148.411V166.411H344.5V284.911H348.5V275.411H362.5V282.911H380.5V250.911H409.5V282.911H434V292.911H439V247.911M439 247.911V242.411H456.5V247.911M439 247.911H456.5M468.5 261.911H506.5H465V253.411H459.5V261.911H456.5V247.911M238 244.911V266.411M238 244.911H243.5V230.911C244.798 229.036 249.616 225.538 254 224.63M254 224.63C254.682 224.489 255.354 224.411 256 224.411C256.819 224.411 257.659 224.537 258.5 224.757M254 224.63V220.911H256.25M258.5 224.757V220.911H256.25M256.25 220.911V208.411" stroke="black"/>
<path d="M204.5 170.411V158.411" stroke="black"/>
<path d="M175 235.911C177 232.744 184.5 227.911 190 235.911M197.5 235.911C199.5 232.744 207 227.911 212.5 235.911M218.5 235.911C220.5 232.744 228 227.911 233.5 235.911M209.5 288.911V263.911C211.615 259.48 215.372 254.015 220 254.242M220 254.242C223.032 254.392 226.438 256.984 230 263.911V271.411M220 254.242V244.411M147.5 306.911H158.5V295.911H147.5V306.911ZM172.5 295.911H183.5V306.911H172.5V295.911ZM181.5 276.411H189V262.411C187.833 260.577 184.7 258.011 181.5 262.411V276.411Z" stroke="black"/>
<path d="M213 324.411H202V313.411H213V324.411Z" stroke="black"/>
<path d="M238 324.411H227V313.411H238V324.411Z" stroke="black"/>
<path d="M262.5 324.411H251.5V313.411H262.5V324.411Z" stroke="black"/>
<path d="M285.5 324.411H274.5V313.411H285.5V324.411Z" stroke="black"/>
<path d="M317 324.411H306V313.411H317V324.411Z" stroke="black"/>
<path d="M195.5 215.411V227.911M196.5 145.911C196.667 141.911 199.2 134.111 208 134.911C208.833 131.911 212.6 125.911 221 125.911C229.4 125.911 232.5 131.911 233 134.911C238.333 132.577 249.6 132.311 252 145.911M395.5 91.9106C396.333 88.9106 400.1 82.9106 408.5 82.9106C416.9 82.9106 420 88.9106 420.5 91.9106C425.833 89.5773 437.1 89.3106 439.5 102.911M345.5 112.911H332.5C333.333 107.411 337.7 96.6106 348.5 97.4106C349.5 95.0773 352.5 90.2106 356.5 89.4106M185 227.911H192.5V217.911C191.333 216.078 188.2 213.511 185 217.911V227.911ZM200.5 227.911H208V217.911C206.833 216.078 203.7 213.511 200.5 217.911V227.911ZM216 227.911H223.5V217.911C222.333 216.078 219.2 213.511 216 217.911V227.911ZM213.5 208.411H221V198.411C219.833 196.578 216.7 194.011 213.5 198.411V208.411ZM188 208.911H195.5V198.911C194.333 197.078 191.2 194.511 188 198.911V208.911ZM188 191.911H195.5V181.911C194.333 180.077 191.2 177.511 188 181.911V191.911ZM213.5 191.911H221V181.911C219.833 180.077 216.7 177.511 213.5 181.911V191.911ZM198.5 208.911H211V197.911C210 195.411 201 194.411 198.5 197.911V208.911ZM198 191.911H210.5V180.911C209.5 178.41 200.5 177.41 198 180.911V191.911Z" stroke="black"/>
<path d="M356 89.4106C360.5 82.7439 372 73.7106 382 90.9106C387 90.5772 397.2 91.7106 398 98.9106C403.667 99.9106 415 104.011 415 112.411H408.5" stroke="black"/>
<path d="M252 145.911H241.5" stroke="black"/>
<path d="M225.5 145.911C226.7 145.911 230.667 145.911 232.5 145.911" stroke="black"/>
<path d="M192.5 331.411V302.911" stroke="black"/>
<path d="M333.5 303.911H297.5M297.5 303.911H289M297.5 303.911C298.167 298.744 299.1 288.411 297.5 288.411C295.9 288.411 279.833 288.411 272 288.411V277.411M333.5 331.411V298.411H388V317.411H402.5V324.411M138 289.911H193M193 289.911H201.5M193 289.911V303.911H201.5M201.5 303.911V292.911H208V303.911M201.5 303.911H208M208 303.911H222M222 303.911V292.911H227.5V303.911M222 303.911H227.5M227.5 303.911H234.5M234.5 303.911V282.911H255.5V303.911M234.5 303.911H255.5M255.5 303.911H261.5M261.5 303.911V292.911H268.5V303.911M261.5 303.911H268.5M268.5 303.911H281.5M281.5 303.911V292.911H289V303.911M281.5 303.911H289" stroke="black"/>
<path d="M251.5 240.411C251.5 236.811 254.5 233.911 256 234.411C257.333 234.411 260.5 235.411 260.5 240.411C260.5 246.431 257 246.911 256 246.911C255 246.911 251.5 244.911 251.5 240.411Z" stroke="black"/>
<path d="M251 260.467C251 256.867 254 253.967 255.5 254.467C256.833 254.467 260 255.467 260 260.467C260 266.488 256.5 266.967 255.5 266.967C254.5 266.967 251 264.967 251 260.467Z" stroke="black"/>
<path d="M248 265.911C248 263.111 248 238.744 248 226.911" stroke="black"/>
<path d="M263.5 272.911V227.411" stroke="black"/>
<path d="M379 112.911H388" stroke="black"/>
<path d="M439 102.911H430" stroke="black"/>
<path d="M410 102.411H417" stroke="black"/>
<path d="M280.5 200.411L290 181.411L297.5 200.411" stroke="black"/>
<path d="M301 200.411L310.5 181.411L318 200.411" stroke="black"/>
<path d="M323 200.411L332.5 181.411L340 200.411" stroke="black"/>
<path d="M285.5 221.411V197.411H293V221.411H285.5Z" stroke="black"/>
<path d="M311 148.911H317V166.911H303V148.911H308M311 148.911L313.5 151.911V155.911L315 159.411H305.5L306.5 155.911V151.911L308 148.911M311 148.911H308M305.5 198.411V220.911H313.5V198.411H305.5ZM328.5 198.411H335.5V220.911H328.5V198.411ZM305.5 135.911H315V126.911C314.667 125.577 312.4 122.911 310 122.911C307.6 122.911 306.333 125.577 305.5 126.911V135.911Z" stroke="black"/>
<path d="M372.5 331.91V324.91H536V331.91M496 238.41H498.5C501.167 232.91 508.9 221.81 518.5 221.41V218.41V208.41C518.833 206.91 520.3 203.91 523.5 203.91C526.7 203.91 527.5 206.91 527.5 208.41V221.41C531.667 221.744 542.4 227.11 548 237.91H553.5V240.91H550V245.41M566.5 221.41H612.5M570 261.411V267.911H456.5V261.411M282.5 258.41H290.5V272.41H282.5V258.41ZM303.5 258.41H315V272.41H303.5V258.41ZM327 258.41H337.5V272.41H327V258.41ZM386 281.91H393V270.91H386V281.91ZM399 281.91V270.91H405.5V281.91H399ZM444.5 270.91H451.5V255.91C451.167 255.41 450.1 254.31 448.5 253.91C446.9 253.51 445.167 255.076 444.5 255.91V270.91ZM483 302.91H493.5V278.41H483V302.91ZM509 302.91H518.5V278.41H509V302.91ZM486.5 218.41H491.5V208.41C491.5 207.91 491 205.41 489 205.41C487 205.41 486.5 207.41 486.5 208.41V218.41ZM486.5 235.91H491.5V225.91C491.5 225.41 491 222.91 489 222.91C487 222.91 486.5 224.91 486.5 225.91V235.91ZM584.5 205.411H591.5V190.411C591.167 189.911 590.1 188.811 588.5 188.411C586.9 188.011 585.167 189.578 584.5 190.411V205.411ZM597 205.41H604V190.41C603.667 189.91 602.6 188.81 601 188.41C599.4 188.01 597.667 189.577 597 190.41V205.41ZM573 205.411H580V190.411C579.667 189.911 578.6 188.811 577 188.411C575.4 188.011 573.667 189.578 573 190.411V205.411ZM585.5 252.911H592.5V237.911C592.167 237.411 591.1 236.311 589.5 235.911C587.9 235.511 586.167 237.078 585.5 237.911V252.911ZM598 252.91H605V237.91C604.667 237.41 603.6 236.31 602 235.91C600.4 235.51 598.667 237.077 598 237.91V252.91ZM574 252.911H581V237.911C580.667 237.411 579.6 236.311 578 235.911C576.4 235.511 574.667 237.078 574 237.911V252.911ZM584.5 289.41H591.5V274.411C591.167 273.911 590.1 272.811 588.5 272.411C586.9 272.011 585.167 273.577 584.5 274.411V289.41ZM597 289.41H604V274.41C603.667 273.91 602.6 272.81 601 272.41C599.4 272.01 597.667 273.576 597 274.41V289.41ZM573 289.41H580V274.411C579.667 273.911 578.6 272.811 577 272.411C575.4 272.011 573.667 273.577 573 274.411V289.41ZM585.5 324.91H592.5V309.91C592.167 309.41 591.1 308.31 589.5 307.91C587.9 307.51 586.167 309.077 585.5 309.91V324.91ZM598 324.909H605V309.909C604.667 309.409 603.6 308.309 602 307.909C600.4 307.509 598.667 309.076 598 309.909V324.909ZM574 324.91H581V309.91C580.667 309.41 579.6 308.31 578 307.91C576.4 307.51 574.667 309.077 574 309.91V324.91ZM531 302.91H540.5V278.41H531V302.91ZM548 302.91H557.5V278.41H548V302.91Z" stroke="black"/>
<path d="M633 211.911H637.5" stroke="black"/>
<path d="M570 261.411H607M584.5 207.411H591.5V209.911H584.5V207.411ZM596.5 207.411H603.5V209.911H596.5V207.411ZM573.5 207.411H580.5V209.911H573.5V207.411ZM585 254.911H592V257.411H585V254.911ZM597 254.911H604V257.411H597V254.911ZM574 254.911H581V257.411H574V254.911ZM584.5 291.411H591.5V293.911H584.5V291.411ZM596.5 291.411H603.5V293.911H596.5V291.411ZM573.5 291.411H580.5V293.911H573.5V291.411ZM585 326.411H592V328.911H585V326.411ZM597 326.411H604V328.911H597V326.411ZM574 326.411H581V328.911H574V326.411Z" stroke="black"/>
<path d="M496.5 238.411H480.5" stroke="black"/>
<path d="M480 208.911H372C373.667 201.577 381.1 188.811 397.5 196.411C401.333 191.244 410.9 181.711 418.5 184.911C423 170.077 438.3 148.111 463.5 178.911C468.667 176.577 480.5 173.811 486.5 181.411" stroke="black"/>
<path d="M493.5 192.911C497.5 192.411 516.5 192.911 516.5 209.411H497.5" stroke="black"/>
<path d="M492 185.911C497.5 177.744 511.2 166.311 522 185.911C528.167 182.577 541.8 180.411 547 198.411H533" stroke="black"/>
<path d="M472 261.411V250.077H473.5M473.5 250.077H475V261.411M473.5 250.077V248.017M473.5 248.017C474 248.017 475 247.295 475 246.471C475 245.441 474.5 244.411 473.5 244.411C472.235 244.411 472 245.784 472 246.471C472 247.158 472.3 248.017 473.5 248.017Z" stroke="black"/>
<path d="M466 261.411V250.077H467.5M467.5 250.077H469V261.411M467.5 250.077V248.017M467.5 248.017C468 248.017 469 247.295 469 246.471C469 245.441 468.5 244.411 467.5 244.411C466.235 244.411 466 245.784 466 246.471C466 247.158 466.3 248.017 467.5 248.017Z" stroke="black"/>
<path d="M478 261.411V250.077H479.5M479.5 250.077H481V261.411M479.5 250.077V248.017M479.5 248.017C480 248.017 481 247.295 481 246.471C481 245.441 480.5 244.411 479.5 244.411C478.235 244.411 478 245.784 478 246.471C478 247.158 478.3 248.017 479.5 248.017Z" stroke="black"/>
<path d="M484 261.411V250.077H485.5M485.5 250.077H487V261.411M485.5 250.077V248.017M485.5 248.017C486 248.017 487 247.295 487 246.471C487 245.441 486.5 244.411 485.5 244.411C484.235 244.411 484 245.784 484 246.471C484 247.158 484.3 248.017 485.5 248.017Z" stroke="black"/>
<path d="M490 261.411V250.077H491.5M491.5 250.077H493V261.411M491.5 250.077V248.017M491.5 248.017C492 248.017 493 247.295 493 246.471C493 245.441 492.5 244.411 491.5 244.411C490.235 244.411 490 245.784 490 246.471C490 247.158 490.3 248.017 491.5 248.017Z" stroke="black"/>
<path d="M496 261.411V250.077H497.5M497.5 250.077H499V261.411M497.5 250.077V248.017M497.5 248.017C498 248.017 499 247.295 499 246.471C499 245.441 498.5 244.411 497.5 244.411C496.235 244.411 496 245.784 496 246.471C496 247.158 496.3 248.017 497.5 248.017Z" stroke="black"/>
<path d="M535 261.411V250.077H536.5M536.5 250.077H538V261.411M536.5 250.077V248.017M536.5 248.017C537 248.017 538 247.295 538 246.471C538 245.441 537.5 244.411 536.5 244.411C535.235 244.411 535 245.784 535 246.471C535 247.158 535.3 248.017 536.5 248.017Z" stroke="black"/>
<path d="M541 261.411V250.077H542.5M542.5 250.077H544V261.411M542.5 250.077V248.017M542.5 248.017C543 248.017 544 247.295 544 246.471C544 245.441 543.5 244.411 542.5 244.411C541.235 244.411 541 245.784 541 246.471C541 247.158 541.3 248.017 542.5 248.017Z" stroke="black"/>
<path d="M547 261.411V250.077H548.5M548.5 250.077H550V261.411M548.5 250.077V248.017M548.5 248.017C549 248.017 550 247.295 550 246.471C550 245.441 549.5 244.411 548.5 244.411C547.235 244.411 547 245.784 547 246.471C547 247.158 547.3 248.017 548.5 248.017Z" stroke="black"/>
<path d="M553 261.411V250.077H554.5M554.5 250.077H556V261.411M554.5 250.077V248.017M554.5 248.017C555 248.017 556 247.295 556 246.471C556 245.441 555.5 244.411 554.5 244.411C553.235 244.411 553 245.784 553 246.471C553 247.158 553.3 248.017 554.5 248.017Z" stroke="black"/>
<path d="M559 261.411V250.077H560.5M560.5 250.077H562V261.411M560.5 250.077V248.017M560.5 248.017C561 248.017 562 247.295 562 246.471C562 245.441 561.5 244.411 560.5 244.411C559.235 244.411 559 245.784 559 246.471C559 247.158 559.3 248.017 560.5 248.017Z" stroke="black"/>
<path d="M565 261.411V250.077H566.5M566.5 250.077H568V261.411M566.5 250.077V248.017M566.5 248.017C567 248.017 568 247.295 568 246.471C568 245.441 567.5 244.411 566.5 244.411C565.235 244.411 565 245.784 565 246.471C565 247.158 565.3 248.017 566.5 248.017Z" stroke="black"/>
<path d="M625.5 253.911V257.911M840 197.411H843V224.411L915.5 225.411V198.411H918.5V244.411H925.5V206.411H944V177.411H954.5V173.911H975.5V177.411H989V207.911H1011V244.411H1046.5V262.911H1055.5L1071 280.911V292.911H1017.5L999 273.411H926.5V277.411M926.5 277.411V292.411H941.5H834H826.5V277.411H926.5ZM635.5 240.956C636 240.956 637 240.235 637 239.411C637 238.38 636.5 237.35 635.5 237.35C634.235 237.35 634 238.724 634 239.411C634 240.097 634.3 240.956 635.5 240.956ZM647.5 240.456C648 240.456 649 239.735 649 238.911C649 237.88 648.5 236.85 647.5 236.85C646.235 236.85 646 238.224 646 238.911C646 239.597 646.3 240.456 647.5 240.456ZM624 240.956C624.5 240.956 625.5 240.235 625.5 239.411C625.5 238.38 625 237.35 624 237.35C622.735 237.35 622.5 238.724 622.5 239.411C622.5 240.097 622.8 240.956 624 240.956ZM631 253.911H640V257.911H631V253.911Z" stroke="black"/>
<path d="M918.5 268.411H840V271.911H918.5V268.411Z" stroke="black"/>
<path d="M843.5 217.411H915.5" stroke="black"/>
<path d="M644.5 253.911V258.411" stroke="black"/>
<path d="M648 253.411V257.911" stroke="black"/>
<path d="M651 253.411V257.911" stroke="black"/>
<path d="M623 253.411V257.911" stroke="black"/>
<path d="M620 253.411V257.911" stroke="black"/>
<path d="M623.5 262.911H620.5V271.411H623.5M623.5 262.911H626.5V271.411H623.5M623.5 262.911V271.411M635.5 262.911H632.5V271.411H635.5M635.5 262.911H638.5V271.411H635.5M635.5 262.911V271.411M647.5 262.911H644.5V271.411H647.5M647.5 262.911H650.5V271.411H647.5M647.5 262.911V271.411M642 293.911V286.411H647.5M650.5 306.411V330.411H668V306.411H682V330.411H713L712.5 306.411M631 275.911V283.411H639.5V275.911H631ZM620.5 275.911V283.411H629V275.911H620.5ZM620.5 286.411V293.911H629V286.411H620.5ZM643 275.911V283.411H651.5V275.911H643ZM631 286.411V293.911H639.5V286.411H631Z" stroke="black"/>
<path d="M506.5 261.911C506.5 260.411 506.5 256.411 506.5 253.911H499.5M496 253.911H493" stroke="black"/>
<path d="M490 253.911H487" stroke="black"/>
<path d="M481 253.911H484" stroke="black"/>
<path d="M478 253.411H475" stroke="black"/>
<path d="M472 253.411H469" stroke="black"/>
<path d="M506.5 253.911H510.5M510.5 253.911V261.911H512.5M510.5 253.911H512.5M534.5 253.911H530.5M530.5 253.911V261.911H521M530.5 253.911H521M521 261.911H517.5M521 261.911V253.911M521 253.911H517.5M512.5 261.911V253.911M512.5 261.911H517.5M512.5 253.911H517.5M517.5 253.911V261.911" stroke="black"/>
<path d="M534.5 261.911H570V253.411V161.411H607.5V273.411H618V241.911C619.333 235.411 624 222.311 632 221.911" stroke="black"/>
<path d="M631.5 221.411C631.333 219.744 631.8 216.411 635 216.411C638.2 216.411 638.667 219.744 638.5 221.411C643 223.744 652.1 230.911 652.5 240.911C652.9 250.911 653.333 266.077 653.5 272.411V280.411C647.5 286.744 635.8 300.611 637 305.411" stroke="black"/>
<path d="M632.5 330.911V305.911H734V308.911M734 308.911V330.911M734 308.911H956M956 308.911H975.5V331.911M956 308.911L942 292.411H1049.5H1071.5V330.411V280.911L1055.5 263.411H1046.5V244.911" stroke="black"/>
<path d="M1011 244.911V207.411H989V177.411H976V173.911H955V177.411H944V207.411H925.5V244.911H918.5V198.911H916V217.411H903.5L894 210.411" stroke="black"/>
<path d="M573.5 160.911V156.411H579V153.911H577V149.411H580.5V146.411H577H597.5M597.5 146.411H601M597.5 146.411V149.411H599V153.911V156.411H603V160.911" stroke="black"/>
<path d="M580 145.911V122.911C580.333 119.577 582.5 112.811 588.5 112.411C594.5 112.011 597.667 119.244 598.5 122.911V145.911" stroke="black"/>
<path d="M588 111.411V104.411H591V112.911" stroke="black"/>
<path d="M588.5 103.911V94.1606M588.5 94.1606V84.4106M588.5 94.1606H597.5H580.5" stroke="black"/>
<path d="M480.5 244.411V209.911M480.5 209.911V202.411M480.5 209.911L484 205.911V198.911L485 197.911V187.911C485.667 186.411 487.4 183.511 489 183.911C490.6 184.311 491.667 186.744 492 187.911V197.911L493.5 198.911V205.911L496 209.911V202.411V237.911" stroke="black"/>
<path d="M488.5 183.411V174.911M488.5 174.911V166.411M488.5 174.911H492.5H484.5" stroke="black"/>
<path d="M490.5 192.411V196.911" stroke="black"/>
<path d="M488 192.411V196.911" stroke="black"/>
<path d="M486 192.411V196.911" stroke="black"/>
<path d="M481 220.911H495.5" stroke="black"/>
<path d="M523.5 212.411V217.411" stroke="black"/>
<path d="M525.5 212.911V217.411M521 217.411V212.911" stroke="black"/>
<path d="M523 194.411V203.411" stroke="black"/>
<path d="M435.5 324.411V314.911L454.5 315.124M454.5 315.124V305.911H565V316.366M454.5 315.124L565 316.366M569 316.411V327.411V330.911V316.411ZM569 316.411L565 316.366M526.5 244.911V251.911H529.5V244.911H526.5ZM518 244.911V251.911H521V244.911H518ZM509.5 244.911V251.911H512.5V244.911H509.5ZM502.5 244.911V251.911H505.5V244.911H502.5Z" stroke="black"/>
<path d="M570.5 301.911H608.5" stroke="black"/>
<path d="M653.5 280.911C656.167 278.244 662 272.911 664 272.911V268.411H667.5V248.411L679.5 234.911L692.5 248.411V268.411H695V272.911C703.333 277.411 720 290.311 720 305.911" stroke="black"/>
<path d="M663.5 272.411H695.5" stroke="black"/>
<path d="M673.5 266.911H670.5V256.911H673.5V266.911Z" stroke="black"/>
<path d="M681 266.911H678V256.911H681V266.911Z" stroke="black"/>
<path d="M689.5 266.911H686.5V256.911H689.5V266.911Z" stroke="black"/>
<path d="M700.5 276.911V248.911H716.5V193.911H746.5V185.411H749V174.911H754.5V159.411H767.5V174.911H772V185.411H776.5V193.911H803.5V210.411H820V218.411H833.5V245.911H840.5V197.411" stroke="black"/>
<path d="M706 280.911H780L789 291.911H834.5L845 310.411" stroke="black"/>
<path d="M716.5 291.411C725.7 291.411 769.667 291.411 790.5 291.411" stroke="black"/>
<path d="M784.5 252.911V222.911H811V252.911H826M826 252.911V291.411M826 252.911H771V280.911V215.911H763.5V252.911H727V280.911" stroke="black"/>
<path d="M912.5 217.911V224.911M909.5 217.911V224.911M907 217.911V224.911M903.5 224.911V217.911L884.5 203.911V198.411H875V203.911L855.5 216.411M901 217.911V224.911M898 217.911V224.911M895.5 217.911V224.911M892 217.911V224.911M890 217.911V224.911M887 217.911V224.911M884.5 217.911V224.911M881 217.911V224.911M878 217.911V224.911M875 217.911V224.911M872.5 217.911V224.911M869 217.911V224.911M867 217.911V224.911M864 217.911V224.911M861.5 217.911V224.911M858 217.911V224.911M855.5 217.911V224.911M852.5 217.911V224.911M850 217.911V224.911M846.5 217.911V224.911" stroke="black"/>
<path d="M876 197.911V178.911C876.5 178.077 877.9 176.411 879.5 176.411C881.1 176.411 882.5 178.077 883 178.911V198.411H879.5V139.911" stroke="black"/>
<path d="M917.133 198.411V195.911M917.133 195.911V193.411M917.133 195.911H915H919" stroke="black"/>
<path d="M958 160.411V173.411H965M965 173.411V154.411M965 173.411H973.5V160.411" stroke="black"/>
<path d="M952.5 181.411H977" stroke="black"/>
<path d="M947 190.911V186.911M984 186.911V190.911M947 198.411V194.411M984 194.411V198.411M947 206.411V202.411M984 202.411V206.411M789 231.911V227.911M789 239.411V235.411M789 247.411V243.411M862.5 244.911H872V259.911H862.5V244.911ZM888 245.411H897.5V260.411H888V245.411ZM929 214.411V218.411H932V214.411H929ZM934 214.411V218.411H937V214.411H934ZM939 214.411V218.411H942V214.411H939ZM944 214.411V218.411H947V214.411H944ZM949 214.411V218.411H952V214.411H949ZM954 214.411V218.411H957V214.411H954ZM959 214.411V218.411H962V214.411H959ZM964 214.411V218.411H967V214.411H964ZM969 214.411V218.411H972V214.411H969ZM974 214.411V218.411H977V214.411H974ZM979 214.411V218.411H982V214.411H979ZM984 214.411V218.411H987V214.411H984ZM989 214.411V218.411H992V214.411H989ZM994 214.411V218.411H997V214.411H994ZM999 214.411V218.411H1002V214.411H999ZM1004 214.411V218.411H1007V214.411H1004ZM929 221.911V225.911H932V221.911H929ZM934 221.911V225.911H937V221.911H934ZM939 221.911V225.911H942V221.911H939ZM944 221.911V225.911H947V221.911H944ZM949 221.911V225.911H952V221.911H949ZM954 221.911V225.911H957V221.911H954ZM959 221.911V225.911H962V221.911H959ZM964 221.911V225.911H967V221.911H964ZM969 221.911V225.911H972V221.911H969ZM974 221.911V225.911H977V221.911H974ZM979 221.911V225.911H982V221.911H979ZM984 221.911V225.911H987V221.911H984ZM989 221.911V225.911H992V221.911H989ZM994 221.911V225.911H997V221.911H994ZM999 221.911V225.911H1002V221.911H999ZM1004 221.911V225.911H1007V221.911H1004ZM929 229.911V233.911H932V229.911H929ZM934 229.911V233.911H937V229.911H934ZM939 229.911V233.911H942V229.911H939ZM944 229.911V233.911H947V229.911H944ZM949 229.911V233.911H952V229.911H949ZM954 229.911V233.911H957V229.911H954ZM959 229.911V233.911H962V229.911H959ZM964 229.911V233.911H967V229.911H964ZM969 229.911V233.911H972V229.911H969ZM974 229.911V233.911H977V229.911H974ZM979 229.911V233.911H982V229.911H979ZM984 229.911V233.911H987V229.911H984ZM989 229.911V233.911H992V229.911H989ZM994 229.911V233.911H997V229.911H994ZM999 229.911V233.911H1002V229.911H999ZM1004 229.911V233.911H1007V229.911H1004ZM929 238.411V242.411H932V238.411H929ZM934 238.411V242.411H937V238.411H934ZM939 238.411V242.411H942V238.411H939ZM944 238.411V242.411H947V238.411H944ZM949 238.411V242.411H952V238.411H949ZM954 238.411V242.411H957V238.411H954ZM959 238.411V242.411H962V238.411H959ZM964 238.411V242.411H967V238.411H964ZM969 238.411V242.411H972V238.411H969ZM974 238.411V242.411H977V238.411H974ZM979 238.411V242.411H982V238.411H979ZM984 238.411V242.411H987V238.411H984ZM989 238.411V242.411H992V238.411H989ZM994 238.411V242.411H997V238.411H994ZM999 238.411V242.411H1002V238.411H999ZM1004 238.411V242.411H1007V238.411H1004ZM949 186.911V190.911H952V186.911H949ZM954 186.911V190.911H957V186.911H954ZM959 186.911V190.911H962V186.911H959ZM964 186.911V190.911H967V186.911H964ZM969 186.911V190.911H972V186.911H969ZM974 186.911V190.911H977V186.911H974ZM979 186.911V190.911H982V186.911H979ZM949 194.411V198.411H952V194.411H949ZM954 194.411V198.411H957V194.411H954ZM959 194.411V198.411H962V194.411H959ZM964 194.411V198.411H967V194.411H964ZM969 194.411V198.411H972V194.411H969ZM974 194.411V198.411H977V194.411H974ZM979 194.411V198.411H982V194.411H979ZM949 202.411V206.411H952V202.411H949ZM954 202.411V206.411H957V202.411H954ZM959 202.411V206.411H962V202.411H959ZM964 202.411V206.411H967V202.411H964ZM969 202.411V206.411H972V202.411H969ZM974 202.411V206.411H977V202.411H974ZM979 202.411V206.411H982V202.411H979ZM724.5 210.911V214.911H727.5V210.911H724.5ZM729.5 210.911V214.911H732.5V210.911H729.5ZM734.5 210.911V214.911H737.5V210.911H734.5ZM739.5 210.911V214.911H742.5V210.911H739.5ZM744.5 210.911V214.911H747.5V210.911H744.5ZM724.5 218.411V222.411H727.5V218.411H724.5ZM729.5 218.411V222.411H732.5V218.411H729.5ZM734.5 218.411V222.411H737.5V218.411H734.5ZM739.5 218.411V222.411H742.5V218.411H739.5ZM744.5 218.411V222.411H747.5V218.411H744.5ZM724.5 226.411V230.411H727.5V226.411H724.5ZM729.5 226.411V230.411H732.5V226.411H729.5ZM734.5 226.411V230.411H737.5V226.411H734.5ZM739.5 226.411V230.411H742.5V226.411H739.5ZM744.5 226.411V230.411H747.5V226.411H744.5ZM724.5 234.911V238.911H727.5V234.911H724.5ZM729.5 234.911V238.911H732.5V234.911H729.5ZM734.5 234.911V238.911H737.5V234.911H734.5ZM739.5 234.911V238.911H742.5V234.911H739.5ZM744.5 234.911V238.911H747.5V234.911H744.5ZM724.5 243.411V247.411H727.5V243.411H724.5ZM729.5 243.411V247.411H732.5V243.411H729.5ZM734.5 243.411V247.411H737.5V243.411H734.5ZM739.5 243.411V247.411H742.5V243.411H739.5ZM744.5 243.411V247.411H747.5V243.411H744.5ZM791 227.911V231.911H794V227.911H791ZM796 227.911V231.911H799V227.911H796ZM801 227.911V231.911H804V227.911H801ZM791 235.411V239.411H794V235.411H791ZM796 235.411V239.411H799V235.411H796ZM801 235.411V239.411H804V235.411H801ZM791 243.411V247.411H794V243.411H791ZM796 243.411V247.411H799V243.411H796ZM801 243.411V247.411H804V243.411H801ZM765.5 222.411V226.411H768.5V222.411H765.5ZM765.5 229.911V233.911H768.5V229.911H765.5ZM765.5 237.911V241.911H768.5V237.911H765.5ZM765.5 246.411V250.411H768.5V246.411H765.5Z" stroke="black"/>
<path d="M745.5 138.411H740.5V132.411C741.5 128.411 746.5 120.811 758.5 122.411C760 117.577 765.4 108.111 775 108.911C784.6 109.711 791.667 118.244 794 122.411C797.5 121.411 805.9 119.711 811.5 120.911M994 298.411V304.411H1012V298.411H994ZM994.5 312.911V318.911H1012.5V312.911H994.5ZM1027 313.411V319.411H1045V313.411H1027ZM1026 298.411V304.411H1044V298.411H1026ZM748 313.411V321.911H763V313.411H748ZM782.5 313.411H798V321.911H782.5V313.411ZM816 313.411H832V321.911H816V313.411ZM706.5 256.411H713.5V265.411H706.5V256.411ZM706.5 271.411H713.5V280.411H706.5V271.411ZM716.5 271.411H723.5V280.411H716.5V271.411ZM716.5 256.411H723.5V265.411H716.5V256.411ZM723.5 198.911H748.5V204.411H723.5V198.911Z" stroke="black"/>
<path d="M845.5 308.911V330.911" stroke="black"/>
<path d="M787 147.411C787.167 139.577 792 124.311 810 125.911" stroke="black"/>
<path d="M810 127.911C811.333 121.077 818.1 108.611 834.5 113.411C834.667 107.244 838.5 95.2106 852.5 96.4106C866.5 97.6106 874.333 108.244 876.5 113.411C878.833 113.744 884.1 116.311 886.5 123.911C894.333 125.077 910.2 131.111 911 145.911H894" stroke="black"/>
<path d="M880 114.911C884.333 106.744 896.3 95.3106 909.5 114.911C915.667 112.744 928.4 110.711 930 119.911C933.833 121.411 941.7 126.411 942.5 134.411H920" stroke="black"/>
<path d="M672 185.411H674.5M672 185.411V188.411H674.5V185.411M672 185.411L662 168.411V161.411C662 159.911 667 152.911 673.5 152.911C678.7 152.911 683 158.577 684.5 161.411V168.411L678.324 178.911M674.5 185.411L678.324 178.911M678.324 178.911H671M667.5 178.911H671M671 178.911C669.833 174.577 667.5 165.311 667.5 162.911" stroke="black"/>
<path d="M676 178.411C676.5 175.911 680.5 165.911 680 162.911" stroke="black"/>
<path d="M673 172.411C673 171.211 673 166.911 673 164.911" stroke="black"/>
<path d="M673.5 160.411C673.5 159.611 673.5 157.744 673.5 156.911" stroke="black"/>
</svg>
