<svg width="51" height="32" viewBox="0 0 51 32" fill="none" xmlns="http://www.w3.org/2000/svg">
<rect x="0.671631" width="49.6716" height="32" rx="7.68185" fill="#F7F7F7"/>
<path d="M25.2038 10.785L22.8869 21.6152H20.0854L22.4026 10.785H25.2038ZM36.991 17.7781L38.466 13.711L39.3147 17.7781H36.991ZM40.1168 21.6152H42.7082L40.4469 10.785H38.055C37.5175 10.785 37.064 11.0977 36.8621 11.5796L32.6589 21.6152H35.601L36.1851 19.998H39.7795L40.1168 21.6152ZM32.805 18.0791C32.817 15.2206 28.852 15.0633 28.8794 13.7864C28.8877 13.3974 29.2582 12.9847 30.0675 12.8787C30.4696 12.8263 31.5751 12.7862 32.8303 13.3638L33.3219 11.0672C32.6476 10.8224 31.78 10.5869 30.701 10.5869C27.932 10.5869 25.9829 12.0592 25.9665 14.1673C25.949 15.7262 27.3578 16.5962 28.4194 17.1145C29.5108 17.6455 29.8776 17.9855 29.8728 18.4602C29.8656 19.1873 29.0021 19.5074 28.1966 19.5201C26.7878 19.5424 25.9703 19.14 25.3186 18.8363L24.811 21.2093C25.4653 21.51 26.6736 21.7712 27.9272 21.7845C30.87 21.7845 32.7954 20.3305 32.805 18.0791ZM21.2005 10.785L16.6614 21.6152H13.6994L11.4658 12.972C11.3301 12.4396 11.2122 12.2449 10.7998 12.0204C10.1269 11.6554 9.01462 11.3122 8.03598 11.0997L8.10282 10.785H12.8699C13.4773 10.785 14.024 11.1895 14.1618 11.8891L15.3417 18.1565L18.257 10.785H21.2005Z" fill="#1434CB"/>
</svg>
