<svg width="51" height="52" viewBox="0 0 51 52" fill="none" xmlns="http://www.w3.org/2000/svg">
<path d="M16.8389 0V0.92857L16.4638 0.464285V31.5714H11.5877C11.4882 31.5714 11.3928 31.6203 11.3225 31.7074C11.2522 31.7944 11.2126 31.9126 11.2126 32.0357V35.75C11.2126 35.8732 11.2522 35.9912 11.3225 36.0783C11.3928 36.1653 11.4882 36.2143 11.5877 36.2143H12.713V47.3571H11.5877C11.4882 47.3571 11.3928 47.406 11.3225 47.4931C11.2522 47.5801 11.2126 47.6983 11.2126 47.8214V51.0714H10.8451C10.7456 51.0714 10.6502 51.1203 10.5798 51.2073C10.5095 51.2944 10.47 51.4126 10.47 51.5357C10.47 51.6588 10.5095 51.7769 10.5798 51.864C10.6502 51.951 10.7456 52 10.8451 52H49.0949C49.1944 52 49.2898 51.951 49.3601 51.864C49.4305 51.7769 49.47 51.6588 49.47 51.5357C49.47 51.4126 49.4305 51.2944 49.3601 51.2073C49.2898 51.1203 49.1944 51.0714 49.0949 51.0714H48.7213V47.8214C48.7213 47.6983 48.6818 47.5801 48.6114 47.4931C48.5411 47.406 48.4457 47.3571 48.3462 47.3571H47.221V36.2143H48.3462C48.4457 36.2143 48.5411 36.1653 48.6114 36.0783C48.6818 35.9912 48.7213 35.8732 48.7213 35.75V32.0357C48.7213 31.9126 48.6818 31.7944 48.6114 31.7074C48.5411 31.6203 48.4457 31.5714 48.3462 31.5714H43.4701V0.464285C43.4701 0.341149 43.4306 0.223035 43.3602 0.135964C43.2899 0.048894 43.1945 0 43.095 0H16.8389ZM17.214 0.92857H42.7199V31.5714H17.214V0.92857ZM19.8396 3.71428C19.7401 3.71428 19.6447 3.76318 19.5744 3.85025C19.5041 3.93732 19.4645 4.05543 19.4645 4.17857V10.6786C19.4645 10.8017 19.5041 10.9198 19.5744 11.0069C19.6447 11.094 19.7401 11.1428 19.8396 11.1428H25.0908C25.1903 11.1428 25.2857 11.094 25.3561 11.0069C25.4264 10.9198 25.4659 10.8017 25.4659 10.6786V4.17857C25.4659 4.05543 25.4264 3.93732 25.3561 3.85025C25.2857 3.76318 25.1903 3.71428 25.0908 3.71428H19.8396ZM27.3414 3.71428C27.2419 3.71428 27.1465 3.76318 27.0761 3.85025C27.0058 3.93732 26.9663 4.05543 26.9663 4.17857V10.6786C26.9663 10.8017 27.0058 10.9198 27.0761 11.0069C27.1465 11.094 27.2419 11.1428 27.3414 11.1428H32.5926C32.6921 11.1428 32.7875 11.094 32.8578 11.0069C32.9281 10.9198 32.9677 10.8017 32.9677 10.6786V4.17857C32.9677 4.05543 32.9281 3.93732 32.8578 3.85025C32.7875 3.76318 32.6921 3.71428 32.5926 3.71428H27.3414ZM34.8431 3.71428C34.7436 3.71428 34.6482 3.76318 34.5779 3.85025C34.5075 3.93732 34.468 4.05543 34.468 4.17857V10.6786C34.468 10.8017 34.5075 10.9198 34.5779 11.0069C34.6482 11.094 34.7436 11.1428 34.8431 11.1428H40.0943C40.1938 11.1428 40.2892 11.094 40.3595 11.0069C40.4299 10.9198 40.4694 10.8017 40.4694 10.6786V4.17857C40.4694 4.05543 40.4299 3.93732 40.3595 3.85025C40.2892 3.76318 40.1938 3.71428 40.0943 3.71428H34.8431ZM20.2147 4.64285H24.7158V10.2143H20.2147V4.64285ZM27.7164 4.64285H32.2175V10.2143H27.7164V4.64285ZM35.2182 4.64285H39.7192V10.2143H35.2182V4.64285ZM19.8396 13C19.7401 13 19.6447 13.0489 19.5744 13.136C19.5041 13.223 19.4645 13.3411 19.4645 13.4643V19.9643C19.4645 20.0874 19.5041 20.2055 19.5744 20.2926C19.6447 20.3797 19.7401 20.4285 19.8396 20.4285H25.0908C25.1903 20.4285 25.2857 20.3797 25.3561 20.2926C25.4264 20.2055 25.4659 20.0874 25.4659 19.9643V13.4643C25.4659 13.3411 25.4264 13.223 25.3561 13.136C25.2857 13.0489 25.1903 13 25.0908 13H19.8396ZM27.3414 13C27.2419 13 27.1465 13.0489 27.0761 13.136C27.0058 13.223 26.9663 13.3411 26.9663 13.4643V19.9643C26.9663 20.0874 27.0058 20.2055 27.0761 20.2926C27.1465 20.3797 27.2419 20.4285 27.3414 20.4285H32.5926C32.6921 20.4285 32.7875 20.3797 32.8578 20.2926C32.9281 20.2055 32.9677 20.0874 32.9677 19.9643V13.4643C32.9677 13.3411 32.9281 13.223 32.8578 13.136C32.7875 13.0489 32.6921 13 32.5926 13H27.3414ZM34.8431 13C34.7436 13 34.6482 13.0489 34.5779 13.136C34.5075 13.223 34.468 13.3411 34.468 13.4643V19.9643C34.468 20.0874 34.5075 20.2055 34.5779 20.2926C34.6482 20.3797 34.7436 20.4285 34.8431 20.4285H40.0943C40.1938 20.4285 40.2892 20.3797 40.3595 20.2926C40.4299 20.2055 40.4694 20.0874 40.4694 19.9643V13.4643C40.4694 13.3411 40.4299 13.223 40.3595 13.136C40.2892 13.0489 40.1938 13 40.0943 13H34.8431ZM20.2147 13.9286H24.7158V19.5H20.2147V13.9286ZM27.7164 13.9286H32.2175V19.5H27.7164V13.9286ZM35.2182 13.9286H39.7192V19.5H35.2182V13.9286ZM19.8396 22.2857C19.7401 22.2857 19.6447 22.3346 19.5744 22.4217C19.5041 22.5087 19.4645 22.6268 19.4645 22.75V29.25C19.4645 29.3109 19.4743 29.3713 19.4931 29.4276C19.512 29.484 19.5396 29.5352 19.5744 29.5783C19.6092 29.6214 19.6506 29.6556 19.6961 29.6789C19.7416 29.7023 19.7904 29.7143 19.8396 29.7143H25.0908C25.1903 29.7143 25.2857 29.6654 25.3561 29.5783C25.4264 29.4912 25.4659 29.3731 25.4659 29.25V22.75C25.4659 22.6268 25.4264 22.5087 25.3561 22.4217C25.2857 22.3346 25.1903 22.2857 25.0908 22.2857H19.8396ZM27.3414 22.2857C27.2419 22.2857 27.1465 22.3346 27.0761 22.4217C27.0058 22.5087 26.9663 22.6268 26.9663 22.75V29.25C26.9663 29.3109 26.976 29.3713 26.9948 29.4276C27.0137 29.484 27.0413 29.5352 27.0761 29.5783C27.111 29.6214 27.1523 29.6556 27.1978 29.6789C27.2433 29.7023 27.2921 29.7143 27.3414 29.7143H32.5926C32.6921 29.7143 32.7875 29.6654 32.8578 29.5783C32.9281 29.4912 32.9677 29.3731 32.9677 29.25V22.75C32.9677 22.6268 32.9281 22.5087 32.8578 22.4217C32.7875 22.3346 32.6921 22.2857 32.5926 22.2857H27.3414ZM34.8431 22.2857C34.7436 22.2857 34.6482 22.3346 34.5779 22.4217C34.5075 22.5087 34.468 22.6268 34.468 22.75V29.25C34.468 29.3109 34.4777 29.3713 34.4966 29.4276C34.5154 29.484 34.543 29.5352 34.5779 29.5783C34.6127 29.6214 34.6541 29.6556 34.6996 29.6789C34.7451 29.7023 34.7938 29.7143 34.8431 29.7143H40.0943C40.1938 29.7143 40.2892 29.6654 40.3595 29.5783C40.4299 29.4912 40.4694 29.3731 40.4694 29.25V22.75C40.4694 22.6268 40.4299 22.5087 40.3595 22.4217C40.2892 22.3346 40.1938 22.2857 40.0943 22.2857H34.8431ZM20.2147 23.2143H24.7158V28.7857H20.2147V23.2143ZM27.7164 23.2143H32.2175V28.7857H27.7164V23.2143ZM35.2182 23.2143H39.7192V28.7857H35.2182V23.2143ZM11.9628 32.5H47.9711V35.2857H43.164C43.1208 35.2763 43.0767 35.2763 43.0335 35.2857H16.8974C16.8767 35.2804 16.8556 35.2773 16.8344 35.2764C16.8158 35.2778 16.7972 35.2809 16.7789 35.2857H11.9628V32.5ZM13.4632 36.2143H16.4638V51.0714H14.9635V47.8214C14.9635 47.6983 14.924 47.5801 14.8536 47.4931C14.7833 47.406 14.6879 47.3571 14.5884 47.3571H13.4632V36.2143ZM17.214 36.2143H42.7199V51.0714H40.4694V38.5357C40.4694 38.4126 40.4299 38.2944 40.3595 38.2073C40.2892 38.1203 40.1938 38.0714 40.0943 38.0714H19.8396C19.7401 38.0714 19.6447 38.1203 19.5744 38.2073C19.5041 38.2944 19.4645 38.4126 19.4645 38.5357V51.0714H17.214V36.2143ZM43.4701 36.2143H46.4708V47.3571H45.3455C45.246 47.3571 45.1506 47.406 45.0803 47.4931C45.01 47.5801 44.9704 47.6983 44.9704 47.8214V51.0714H43.4701V36.2143ZM20.2147 39H26.2161V51.0714H20.2147V39ZM26.9663 39H32.9677V51.0714H26.9663V39ZM33.7178 39H39.7192V51.0714H33.7178V39ZM11.9628 48.2857H14.2133V51.0714H11.9628V48.2857ZM45.7206 48.2857H47.9711V51.0714H45.7206V48.2857Z" fill="#67686A"/>
</svg>
