<svg width="25" height="25" viewBox="0 0 25 25" fill="none" xmlns="http://www.w3.org/2000/svg">
<path d="M17.284 9.51905C18.943 9.52505 20.542 10.18 21.78 11.362C22.87 12.342 23.5 13.79 23.5 15.315C23.5 16.84 22.87 18.286 21.78 19.267C21.618 19.419 21.446 19.56 21.243 19.755L21.567 21.501L19.867 20.633C19.094 20.816 18.313 20.958 17.527 21.056C15.254 21.344 13.002 20.361 11.564 18.454C10.768 17.3986 10.3969 16.0829 10.524 14.767C10.647 13.439 11.258 12.218 12.222 11.373C13.607 10.05 15.432 9.38205 17.284 9.51905ZM14.5 12.501C14.2348 12.501 13.9804 12.6064 13.7929 12.7939C13.6054 12.9815 13.5 13.2358 13.5 13.501C13.5 13.7663 13.6054 14.0206 13.7929 14.2082C13.9804 14.3957 14.2348 14.501 14.5 14.501C14.7652 14.501 15.0196 14.3957 15.2071 14.2082C15.3946 14.0206 15.5 13.7663 15.5 13.501C15.5 13.2358 15.3946 12.9815 15.2071 12.7939C15.0196 12.6064 14.7652 12.501 14.5 12.501ZM19.5 12.501C19.2348 12.501 18.9804 12.6064 18.7929 12.7939C18.6053 12.9815 18.5 13.2358 18.5 13.501C18.5 13.7663 18.6053 14.0206 18.7929 14.2082C18.9804 14.3957 19.2348 14.501 19.5 14.501C19.7652 14.501 20.0196 14.3957 20.2071 14.2082C20.3946 14.0206 20.5 13.7663 20.5 13.501C20.5 13.2358 20.3946 12.9815 20.2071 12.7939C20.0196 12.6064 19.7652 12.501 19.5 12.501Z" fill="black"/>
<path fill-rule="evenodd" clip-rule="evenodd" d="M14.514 5.68498C15.3578 6.44341 15.9662 7.42804 16.267 8.52198C14.5909 8.64922 13.0035 9.32585 11.751 10.447L11.531 10.65C10.404 11.638 9.674 13.095 9.527 14.675C9.45333 15.4652 9.52794 16.2622 9.747 17.025C9.3 17.055 8.846 17.04 8.392 16.982C7.48365 16.8668 6.58229 16.7019 5.692 16.488L3.73 17.501L4.104 15.464C3.87 15.237 3.672 15.073 3.484 14.894C2.228 13.751 1.5 12.062 1.5 10.285C1.5 8.50498 2.227 6.81798 3.485 5.67398C4.913 4.29398 6.758 3.52998 8.672 3.52298C10.809 3.36298 12.915 4.14198 14.514 5.68498ZM6.5 6.50098C6.23478 6.50098 5.98043 6.60633 5.79289 6.79387C5.60536 6.98141 5.5 7.23576 5.5 7.50098C5.5 7.76619 5.60536 8.02055 5.79289 8.20808C5.98043 8.39562 6.23478 8.50098 6.5 8.50098C6.76522 8.50098 7.01957 8.39562 7.20711 8.20808C7.39464 8.02055 7.5 7.76619 7.5 7.50098C7.5 7.23576 7.39464 6.98141 7.20711 6.79387C7.01957 6.60633 6.76522 6.50098 6.5 6.50098ZM11.5 6.50098C11.2348 6.50098 10.9804 6.60633 10.7929 6.79387C10.6054 6.98141 10.5 7.23576 10.5 7.50098C10.5 7.76619 10.6054 8.02055 10.7929 8.20808C10.9804 8.39562 11.2348 8.50098 11.5 8.50098C11.7652 8.50098 12.0196 8.39562 12.2071 8.20808C12.3946 8.02055 12.5 7.76619 12.5 7.50098C12.5 7.23576 12.3946 6.98141 12.2071 6.79387C12.0196 6.60633 11.7652 6.50098 11.5 6.50098Z" fill="black"/>
</svg>
