<svg width="25" height="25" viewBox="0 0 25 25" fill="none" xmlns="http://www.w3.org/2000/svg">
<path d="M5.5 5.50098H19.5C20.6 5.50098 21.5 6.40098 21.5 7.50098V16.501C21.5 17.601 20.6 18.501 19.5 18.501H5.5C4.4 18.501 3.5 17.601 3.5 16.501V7.50098C3.5 6.40098 4.4 5.50098 5.5 5.50098ZM18.64 7.34098L12.5 10.651L6.36 7.34098C6.18473 7.24663 5.97932 7.22522 5.78835 7.28138C5.59739 7.33755 5.43628 7.46676 5.34 7.64098C5.14 8.00098 5.28 8.46098 5.64 8.66098L12.14 12.161C12.36 12.281 12.63 12.281 12.85 12.161L19.35 8.66098C19.71 8.46098 19.85 8.01098 19.65 7.64098C19.45 7.27098 19 7.14098 18.63 7.34098H18.64Z" fill="black"/>
</svg>
