<svg width="41" height="46" viewBox="0 0 41 46" fill="none" xmlns="http://www.w3.org/2000/svg">
<path d="M24.6724 2.84719V2.34719H24.1724H4.78286C4.1344 2.34719 3.52478 2.63415 3.08423 3.12412C2.64526 3.61234 2.40645 4.26414 2.40645 4.93408V39.7155C2.40645 40.3855 2.64526 41.0373 3.08423 41.5255C3.52478 42.0154 4.1344 42.3024 4.78286 42.3024H27.2997C27.9481 42.3024 28.5578 42.0154 28.9983 41.5255C29.4373 41.0373 29.6761 40.3855 29.6761 39.7155V37.433H29.927V39.715C29.9262 40.5208 29.6375 41.2841 29.1382 41.8394C28.6404 42.393 27.9776 42.6928 27.299 42.6937H4.78352C4.10495 42.6928 3.44216 42.393 2.9444 41.8394C2.44513 41.2841 2.15645 40.521 2.15552 39.7153V4.93435C2.15645 4.12862 2.44513 3.36546 2.9444 2.81018C3.44208 2.25667 4.10475 1.95693 4.7832 1.95593H24.7977C24.8128 1.95594 24.8395 1.96214 24.8682 1.994L24.8682 1.99406L29.872 7.55909L29.872 7.55915C29.9022 7.59272 29.927 7.64862 29.927 7.71659C29.927 7.71662 29.927 7.71666 29.927 7.71669V22.5204H29.6761V8.41222V7.91222H29.1761H26.0488C25.7019 7.91222 25.357 7.75945 25.0937 7.46668C24.8289 7.17216 24.6724 6.76235 24.6724 6.32534V2.84719ZM25.7951 3.4965L24.9233 2.5269V3.83081V6.32534C24.9233 6.62629 25.0303 6.92422 25.2347 7.15153C25.4406 7.38058 25.7321 7.52096 26.0488 7.52096H28.2917H29.4136L28.6635 6.68666L25.7951 3.4965Z" fill="#A4A4A5" stroke="#67686A"/>
<mask id="path-2-inside-1_1444_4880" fill="white">
<path d="M5.40829 5.62964H6.65922V7.0209H5.40829V5.62964ZM7.91016 5.62964H11.663V7.0209H7.91016V5.62964ZM5.40829 8.41215H11.663V9.80341H5.40829V8.41215ZM38.4768 20.3283C37.8898 19.677 37.0945 19.3113 36.2654 19.3113C35.4363 19.3113 34.6411 19.677 34.0541 20.3283L22.9971 32.6256C22.91 32.7226 22.8506 32.846 22.8263 32.9804L22.421 35.2335L21.2282 36.5601C21.0516 36.7533 20.9112 36.9834 20.815 37.2373C20.7188 37.4911 20.6687 37.7637 20.6677 38.0391C20.6666 38.3146 20.7146 38.5876 20.8089 38.8423C20.9032 39.0971 21.0419 39.3285 21.2171 39.5234C21.3922 39.7182 21.6003 39.8725 21.8293 39.9774C22.0583 40.0824 22.3038 40.1358 22.5515 40.1348C22.7992 40.1337 23.0442 40.078 23.2725 39.9711C23.5008 39.8641 23.7077 39.708 23.8815 39.5116L25.0749 38.1851L27.1008 37.7343C27.2217 37.7071 27.3326 37.6408 27.4197 37.5437L38.4768 25.2464C39.0621 24.5936 39.3909 23.7093 39.3909 22.7873C39.3909 21.8654 39.0621 20.9811 38.4768 20.3283ZM23.6763 35.3483L23.9709 33.708L26.4459 36.4606L24.9717 36.7889L23.6763 35.3483ZM24.7659 32.6256L32.2846 24.2628L33.1697 25.2464L25.6509 33.6092L24.7659 32.6256ZM26.5353 34.5928L34.0547 26.2307L34.9391 27.215L27.4197 35.5765L26.5353 34.5928ZM33.1697 23.2791L33.6119 22.7873L36.2657 25.7389L35.8229 26.2314L33.1697 23.2791ZM22.9964 38.528C22.8774 38.6544 22.7191 38.725 22.5545 38.725C22.39 38.725 22.2317 38.6544 22.1127 38.528C22.0545 38.4634 22.0084 38.3867 21.9769 38.3022C21.9454 38.2178 21.9292 38.1273 21.9292 38.0359C21.9292 37.9444 21.9454 37.8539 21.9769 37.7695C22.0084 37.685 22.0545 37.6083 22.1127 37.5437L22.9971 36.5601L23.8821 37.5444L22.9964 38.528ZM37.5924 24.2635L37.1501 24.7553L34.4963 21.8037L34.9385 21.3119C35.1127 21.1181 35.3196 20.9644 35.5473 20.8595C35.775 20.7546 36.019 20.7006 36.2654 20.7006C36.5119 20.7006 36.7559 20.7546 36.9835 20.8595C37.2112 20.9644 37.4181 21.1181 37.5924 21.3119C37.7666 21.5057 37.9048 21.7358 37.9991 21.989C38.0934 22.2422 38.142 22.5136 38.142 22.7877C38.142 23.0618 38.0934 23.3331 37.9991 23.5864C37.9048 23.8396 37.7666 24.0697 37.5924 24.2635ZM27.3559 21.3578C27.4731 21.2265 27.5389 21.0489 27.5389 20.8639C27.5389 20.6789 27.4731 20.5014 27.3559 20.37L21.1638 13.4833C21.0441 13.3592 20.8865 13.2902 20.7229 13.2902C20.5592 13.2902 20.4016 13.3592 20.2819 13.4833L18.6432 15.3058L17.6862 15.5145L15.8598 13.4833C15.7406 13.3552 15.5816 13.2829 15.4158 13.2816H13.0202L11.4378 11.5147C11.3197 11.3843 11.1601 11.3112 10.9937 11.3112C10.8273 11.3112 10.6677 11.3843 10.5496 11.5147L4.3575 18.4014C4.24032 18.5327 4.17456 18.7103 4.17456 18.8953C4.17456 19.0803 4.24032 19.2578 4.3575 19.3892L8.86087 24.3977C8.72595 24.7064 8.66226 25.0476 8.67551 25.3906C8.68877 25.7335 8.77857 26.0674 8.93682 26.3621C9.09506 26.6568 9.31677 26.9031 9.58195 27.0787C9.84713 27.2543 10.1474 27.3537 10.4558 27.368C10.4726 27.8821 10.665 28.3697 10.9937 28.7315C11.3201 29.0963 11.7574 29.3122 12.2196 29.3367C12.2428 29.8505 12.4367 30.3364 12.7638 30.7001C13.0908 31.0639 13.5277 31.2796 13.9897 31.3053C14.0099 31.7069 14.1341 32.0935 14.3473 32.4184C14.5604 32.7434 14.8535 32.9929 15.1912 33.137C15.5289 33.281 15.8968 33.3135 16.2507 33.2304C16.6046 33.1473 16.9293 32.9523 17.1858 32.6687L17.8488 33.4061C18.0228 33.6001 18.2295 33.754 18.457 33.8591C18.6845 33.9641 18.9285 34.0182 19.1748 34.0182C19.4212 34.0182 19.6651 33.9641 19.8927 33.8591C20.1202 33.754 20.3269 33.6001 20.5008 33.4061C20.8308 33.0424 21.0232 32.5521 21.0387 32.0357C21.5015 32.0162 21.9407 31.8035 22.2687 31.4399C22.5968 31.0764 22.7896 30.5887 22.8088 30.074C23.2717 30.0514 23.7102 29.8367 24.0378 29.4723C24.3655 29.1079 24.5585 28.6203 24.5789 28.1054C24.9414 28.0862 25.2912 27.9502 25.5855 27.7139C25.8798 27.4777 26.106 27.1513 26.2366 26.7747C26.3671 26.398 26.3964 25.9873 26.3209 25.5924C26.2453 25.1976 26.0682 24.8357 25.811 24.5507L25.148 23.8134L27.3559 21.3578ZM5.68349 18.8953L10.9937 12.9963L11.8756 13.9772L6.57165 19.8831L5.68349 18.8953ZM7.45356 20.8639L13.0202 14.6728H15.1593L20.0567 20.1265C20.1161 20.19 20.1633 20.2662 20.1956 20.3505C20.2279 20.4347 20.2445 20.5254 20.2445 20.617C20.2445 20.7086 20.2279 20.7992 20.1956 20.8835C20.1633 20.9677 20.1161 21.0439 20.0567 21.1074C19.9385 21.2346 19.7803 21.3058 19.6158 21.3058C19.4512 21.3058 19.2931 21.2346 19.1748 21.1074L16.5228 18.1579C16.4026 18.0323 16.2438 17.9623 16.0788 17.9623C15.9138 17.9623 15.7549 18.0323 15.6347 18.1579C15.2778 18.5379 14.8028 18.7499 14.3087 18.7499C13.8146 18.7499 13.3396 18.5379 12.9827 18.1579L12.1008 19.1388C12.3279 19.3869 12.5872 19.5956 12.8701 19.7579L9.66772 23.3264L7.45356 20.8639ZM16.9607 29.4688C16.7308 29.7288 16.566 30.0511 16.4827 30.4037C16.3993 30.7564 16.4002 31.1271 16.4853 31.4792L16.2977 31.6809C16.2398 31.7463 16.1706 31.7979 16.0943 31.8326C16.0179 31.8673 15.936 31.8843 15.8536 31.8827C15.7721 31.8842 15.6912 31.8671 15.6158 31.8324C15.5405 31.7977 15.4724 31.7461 15.4158 31.6809C15.2993 31.5524 15.2332 31.3779 15.2321 31.1954C15.2309 31.013 15.2947 30.8374 15.4095 30.7071C15.4112 30.7071 15.4128 30.7063 15.4139 30.705C15.4151 30.7037 15.4158 30.702 15.4158 30.7001L17.1858 28.7384V28.7315L16.2977 27.7506L14.5276 29.7193C14.5213 29.7193 14.5213 29.7193 14.5213 29.7262C14.4013 29.8477 14.2446 29.9144 14.0823 29.9131C13.92 29.9119 13.7641 29.8426 13.6457 29.7193C13.5294 29.5874 13.4643 29.4101 13.4643 29.2254C13.4643 29.0407 13.5294 28.8633 13.6457 28.7315L15.4158 26.7628L14.5339 25.782L12.7638 27.7506C12.7055 27.8155 12.6362 27.8669 12.56 27.9021C12.4838 27.9372 12.4022 27.9552 12.3197 27.9552C12.2372 27.9552 12.1556 27.9372 12.0794 27.9021C12.0032 27.8669 11.9339 27.8155 11.8756 27.7506C11.8173 27.6858 11.771 27.6088 11.7395 27.524C11.7079 27.4393 11.6917 27.3485 11.6917 27.2567C11.6917 27.165 11.7079 27.0742 11.7395 26.9894C11.771 26.9047 11.8173 26.8277 11.8756 26.7628L13.6457 24.8012L12.7638 23.8134L10.9937 25.782C10.8742 25.9092 10.7151 25.9802 10.5496 25.9802C10.3842 25.9802 10.2251 25.9092 10.1055 25.782C9.98905 25.6517 9.92367 25.4754 9.92367 25.2916C9.92367 25.1078 9.98905 24.9315 10.1055 24.8012L14.2774 20.1544C14.2899 20.1544 14.2962 20.1613 14.3087 20.1613C14.9229 20.1636 15.5238 19.9626 16.035 19.584L18.2929 22.0952C18.6505 22.4737 19.1253 22.6848 19.6189 22.6848C20.1126 22.6848 20.5873 22.4737 20.9449 22.0952C21.29 21.7112 21.487 21.1927 21.494 20.6498C21.501 20.1069 21.3175 19.5823 20.9824 19.1874L24.2661 22.8325L24.0785 23.0343C23.7614 22.9404 23.4277 22.9405 23.1106 23.0344C22.7935 23.1284 22.504 23.313 22.2709 23.5699C21.9422 23.9317 21.7498 24.4193 21.733 24.9333C21.2669 24.956 20.8256 25.1735 20.4975 25.5424C20.1693 25.9112 19.9784 26.4042 19.9629 26.9228C19.5004 26.9361 19.0599 27.145 18.7311 27.5069C18.4022 27.8687 18.2097 28.3564 18.1928 28.8706C17.7304 28.8969 17.2924 29.1095 16.9607 29.4688ZM19.6189 32.4253C19.4986 32.5509 19.3398 32.6209 19.1748 32.6209C19.0098 32.6209 18.851 32.5509 18.7307 32.4253L17.8488 31.4375C17.7834 31.3751 17.7302 31.2984 17.6926 31.2121C17.6551 31.1258 17.634 31.0318 17.6307 30.936C17.6273 30.8402 17.6419 30.7446 17.6733 30.6554C17.7048 30.5661 17.7524 30.485 17.8134 30.4172C17.8744 30.3494 17.9473 30.2964 18.0275 30.2614C18.1078 30.2264 18.1937 30.2103 18.2798 30.214C18.366 30.2177 18.4505 30.2412 18.5281 30.2829C18.6057 30.3247 18.6747 30.3838 18.7307 30.4566L19.6189 31.4375C19.7361 31.5688 19.8018 31.7463 19.8018 31.9314C19.8018 32.1164 19.7361 32.2939 19.6189 32.4253ZM21.389 30.4566C21.2709 30.587 21.1113 30.6601 20.9449 30.6601C20.7785 30.6601 20.6189 30.587 20.5008 30.4566L19.6189 29.4688C19.5024 29.3385 19.437 29.1622 19.437 28.9784C19.437 28.7946 19.5024 28.6183 19.6189 28.488C19.7361 28.3584 19.8946 28.2857 20.0599 28.2857C20.2251 28.2857 20.3836 28.3584 20.5008 28.488L21.389 29.4688C21.5053 29.6007 21.5704 29.778 21.5704 29.9627C21.5704 30.1474 21.5053 30.3248 21.389 30.4566ZM23.1528 28.488C23.0345 28.6153 22.8764 28.6864 22.7118 28.6864C22.5473 28.6864 22.3892 28.6153 22.2709 28.488L21.389 27.5002C21.3295 27.4376 21.2822 27.3621 21.2499 27.2783C21.2176 27.1946 21.2011 27.1044 21.2013 27.0133C21.2025 26.8292 21.2688 26.653 21.3858 26.5228C21.5029 26.3926 21.6613 26.3189 21.8268 26.3176C21.9927 26.3184 22.152 26.3907 22.2709 26.5194L23.1528 27.5072C23.2693 27.6375 23.3347 27.8138 23.3347 27.9976C23.3347 28.1814 23.2693 28.3577 23.1528 28.488ZM24.9229 26.5194C24.8057 26.6489 24.6472 26.7217 24.4819 26.7217C24.3167 26.7217 24.1582 26.6489 24.041 26.5194L23.1528 25.5385C23.0356 25.4072 22.9699 25.2297 22.9699 25.0446C22.9699 24.8596 23.0356 24.6821 23.1528 24.5507C23.2724 24.4232 23.4312 24.351 23.5969 24.349C23.7628 24.3497 23.922 24.4221 24.041 24.5507L24.9229 25.5385C24.9822 25.602 25.0295 25.6782 25.0617 25.7624C25.094 25.8467 25.1106 25.9374 25.1106 26.029C25.1106 26.1206 25.094 26.2112 25.0617 26.2955C25.0295 26.3797 24.9822 26.4559 24.9229 26.5194ZM19.8378 15.9458L20.726 14.958L26.03 20.8639L25.148 21.8447L19.8378 15.9458ZM13.5394 37.6286H19.794V39.0198H13.5394V37.6286ZM5.40829 30.6723H10.412V32.0635H5.40829V30.6723ZM5.40829 33.4548H11.663V34.8461H5.40829V33.4548ZM5.40829 27.8898H9.16109V29.281H5.40829V27.8898Z"/>
</mask>
<path d="M5.40829 5.62964H6.65922V7.0209H5.40829V5.62964ZM7.91016 5.62964H11.663V7.0209H7.91016V5.62964ZM5.40829 8.41215H11.663V9.80341H5.40829V8.41215ZM38.4768 20.3283C37.8898 19.677 37.0945 19.3113 36.2654 19.3113C35.4363 19.3113 34.6411 19.677 34.0541 20.3283L22.9971 32.6256C22.91 32.7226 22.8506 32.846 22.8263 32.9804L22.421 35.2335L21.2282 36.5601C21.0516 36.7533 20.9112 36.9834 20.815 37.2373C20.7188 37.4911 20.6687 37.7637 20.6677 38.0391C20.6666 38.3146 20.7146 38.5876 20.8089 38.8423C20.9032 39.0971 21.0419 39.3285 21.2171 39.5234C21.3922 39.7182 21.6003 39.8725 21.8293 39.9774C22.0583 40.0824 22.3038 40.1358 22.5515 40.1348C22.7992 40.1337 23.0442 40.078 23.2725 39.9711C23.5008 39.8641 23.7077 39.708 23.8815 39.5116L25.0749 38.1851L27.1008 37.7343C27.2217 37.7071 27.3326 37.6408 27.4197 37.5437L38.4768 25.2464C39.0621 24.5936 39.3909 23.7093 39.3909 22.7873C39.3909 21.8654 39.0621 20.9811 38.4768 20.3283ZM23.6763 35.3483L23.9709 33.708L26.4459 36.4606L24.9717 36.7889L23.6763 35.3483ZM24.7659 32.6256L32.2846 24.2628L33.1697 25.2464L25.6509 33.6092L24.7659 32.6256ZM26.5353 34.5928L34.0547 26.2307L34.9391 27.215L27.4197 35.5765L26.5353 34.5928ZM33.1697 23.2791L33.6119 22.7873L36.2657 25.7389L35.8229 26.2314L33.1697 23.2791ZM22.9964 38.528C22.8774 38.6544 22.7191 38.725 22.5545 38.725C22.39 38.725 22.2317 38.6544 22.1127 38.528C22.0545 38.4634 22.0084 38.3867 21.9769 38.3022C21.9454 38.2178 21.9292 38.1273 21.9292 38.0359C21.9292 37.9444 21.9454 37.8539 21.9769 37.7695C22.0084 37.685 22.0545 37.6083 22.1127 37.5437L22.9971 36.5601L23.8821 37.5444L22.9964 38.528ZM37.5924 24.2635L37.1501 24.7553L34.4963 21.8037L34.9385 21.3119C35.1127 21.1181 35.3196 20.9644 35.5473 20.8595C35.775 20.7546 36.019 20.7006 36.2654 20.7006C36.5119 20.7006 36.7559 20.7546 36.9835 20.8595C37.2112 20.9644 37.4181 21.1181 37.5924 21.3119C37.7666 21.5057 37.9048 21.7358 37.9991 21.989C38.0934 22.2422 38.142 22.5136 38.142 22.7877C38.142 23.0618 38.0934 23.3331 37.9991 23.5864C37.9048 23.8396 37.7666 24.0697 37.5924 24.2635ZM27.3559 21.3578C27.4731 21.2265 27.5389 21.0489 27.5389 20.8639C27.5389 20.6789 27.4731 20.5014 27.3559 20.37L21.1638 13.4833C21.0441 13.3592 20.8865 13.2902 20.7229 13.2902C20.5592 13.2902 20.4016 13.3592 20.2819 13.4833L18.6432 15.3058L17.6862 15.5145L15.8598 13.4833C15.7406 13.3552 15.5816 13.2829 15.4158 13.2816H13.0202L11.4378 11.5147C11.3197 11.3843 11.1601 11.3112 10.9937 11.3112C10.8273 11.3112 10.6677 11.3843 10.5496 11.5147L4.3575 18.4014C4.24032 18.5327 4.17456 18.7103 4.17456 18.8953C4.17456 19.0803 4.24032 19.2578 4.3575 19.3892L8.86087 24.3977C8.72595 24.7064 8.66226 25.0476 8.67551 25.3906C8.68877 25.7335 8.77857 26.0674 8.93682 26.3621C9.09506 26.6568 9.31677 26.9031 9.58195 27.0787C9.84713 27.2543 10.1474 27.3537 10.4558 27.368C10.4726 27.8821 10.665 28.3697 10.9937 28.7315C11.3201 29.0963 11.7574 29.3122 12.2196 29.3367C12.2428 29.8505 12.4367 30.3364 12.7638 30.7001C13.0908 31.0639 13.5277 31.2796 13.9897 31.3053C14.0099 31.7069 14.1341 32.0935 14.3473 32.4184C14.5604 32.7434 14.8535 32.9929 15.1912 33.137C15.5289 33.281 15.8968 33.3135 16.2507 33.2304C16.6046 33.1473 16.9293 32.9523 17.1858 32.6687L17.8488 33.4061C18.0228 33.6001 18.2295 33.754 18.457 33.8591C18.6845 33.9641 18.9285 34.0182 19.1748 34.0182C19.4212 34.0182 19.6651 33.9641 19.8927 33.8591C20.1202 33.754 20.3269 33.6001 20.5008 33.4061C20.8308 33.0424 21.0232 32.5521 21.0387 32.0357C21.5015 32.0162 21.9407 31.8035 22.2687 31.4399C22.5968 31.0764 22.7896 30.5887 22.8088 30.074C23.2717 30.0514 23.7102 29.8367 24.0378 29.4723C24.3655 29.1079 24.5585 28.6203 24.5789 28.1054C24.9414 28.0862 25.2912 27.9502 25.5855 27.7139C25.8798 27.4777 26.106 27.1513 26.2366 26.7747C26.3671 26.398 26.3964 25.9873 26.3209 25.5924C26.2453 25.1976 26.0682 24.8357 25.811 24.5507L25.148 23.8134L27.3559 21.3578ZM5.68349 18.8953L10.9937 12.9963L11.8756 13.9772L6.57165 19.8831L5.68349 18.8953ZM7.45356 20.8639L13.0202 14.6728H15.1593L20.0567 20.1265C20.1161 20.19 20.1633 20.2662 20.1956 20.3505C20.2279 20.4347 20.2445 20.5254 20.2445 20.617C20.2445 20.7086 20.2279 20.7992 20.1956 20.8835C20.1633 20.9677 20.1161 21.0439 20.0567 21.1074C19.9385 21.2346 19.7803 21.3058 19.6158 21.3058C19.4512 21.3058 19.2931 21.2346 19.1748 21.1074L16.5228 18.1579C16.4026 18.0323 16.2438 17.9623 16.0788 17.9623C15.9138 17.9623 15.7549 18.0323 15.6347 18.1579C15.2778 18.5379 14.8028 18.7499 14.3087 18.7499C13.8146 18.7499 13.3396 18.5379 12.9827 18.1579L12.1008 19.1388C12.3279 19.3869 12.5872 19.5956 12.8701 19.7579L9.66772 23.3264L7.45356 20.8639ZM16.9607 29.4688C16.7308 29.7288 16.566 30.0511 16.4827 30.4037C16.3993 30.7564 16.4002 31.1271 16.4853 31.4792L16.2977 31.6809C16.2398 31.7463 16.1706 31.7979 16.0943 31.8326C16.0179 31.8673 15.936 31.8843 15.8536 31.8827C15.7721 31.8842 15.6912 31.8671 15.6158 31.8324C15.5405 31.7977 15.4724 31.7461 15.4158 31.6809C15.2993 31.5524 15.2332 31.3779 15.2321 31.1954C15.2309 31.013 15.2947 30.8374 15.4095 30.7071C15.4112 30.7071 15.4128 30.7063 15.4139 30.705C15.4151 30.7037 15.4158 30.702 15.4158 30.7001L17.1858 28.7384V28.7315L16.2977 27.7506L14.5276 29.7193C14.5213 29.7193 14.5213 29.7193 14.5213 29.7262C14.4013 29.8477 14.2446 29.9144 14.0823 29.9131C13.92 29.9119 13.7641 29.8426 13.6457 29.7193C13.5294 29.5874 13.4643 29.4101 13.4643 29.2254C13.4643 29.0407 13.5294 28.8633 13.6457 28.7315L15.4158 26.7628L14.5339 25.782L12.7638 27.7506C12.7055 27.8155 12.6362 27.8669 12.56 27.9021C12.4838 27.9372 12.4022 27.9552 12.3197 27.9552C12.2372 27.9552 12.1556 27.9372 12.0794 27.9021C12.0032 27.8669 11.9339 27.8155 11.8756 27.7506C11.8173 27.6858 11.771 27.6088 11.7395 27.524C11.7079 27.4393 11.6917 27.3485 11.6917 27.2567C11.6917 27.165 11.7079 27.0742 11.7395 26.9894C11.771 26.9047 11.8173 26.8277 11.8756 26.7628L13.6457 24.8012L12.7638 23.8134L10.9937 25.782C10.8742 25.9092 10.7151 25.9802 10.5496 25.9802C10.3842 25.9802 10.2251 25.9092 10.1055 25.782C9.98905 25.6517 9.92367 25.4754 9.92367 25.2916C9.92367 25.1078 9.98905 24.9315 10.1055 24.8012L14.2774 20.1544C14.2899 20.1544 14.2962 20.1613 14.3087 20.1613C14.9229 20.1636 15.5238 19.9626 16.035 19.584L18.2929 22.0952C18.6505 22.4737 19.1253 22.6848 19.6189 22.6848C20.1126 22.6848 20.5873 22.4737 20.9449 22.0952C21.29 21.7112 21.487 21.1927 21.494 20.6498C21.501 20.1069 21.3175 19.5823 20.9824 19.1874L24.2661 22.8325L24.0785 23.0343C23.7614 22.9404 23.4277 22.9405 23.1106 23.0344C22.7935 23.1284 22.504 23.313 22.2709 23.5699C21.9422 23.9317 21.7498 24.4193 21.733 24.9333C21.2669 24.956 20.8256 25.1735 20.4975 25.5424C20.1693 25.9112 19.9784 26.4042 19.9629 26.9228C19.5004 26.9361 19.0599 27.145 18.7311 27.5069C18.4022 27.8687 18.2097 28.3564 18.1928 28.8706C17.7304 28.8969 17.2924 29.1095 16.9607 29.4688ZM19.6189 32.4253C19.4986 32.5509 19.3398 32.6209 19.1748 32.6209C19.0098 32.6209 18.851 32.5509 18.7307 32.4253L17.8488 31.4375C17.7834 31.3751 17.7302 31.2984 17.6926 31.2121C17.6551 31.1258 17.634 31.0318 17.6307 30.936C17.6273 30.8402 17.6419 30.7446 17.6733 30.6554C17.7048 30.5661 17.7524 30.485 17.8134 30.4172C17.8744 30.3494 17.9473 30.2964 18.0275 30.2614C18.1078 30.2264 18.1937 30.2103 18.2798 30.214C18.366 30.2177 18.4505 30.2412 18.5281 30.2829C18.6057 30.3247 18.6747 30.3838 18.7307 30.4566L19.6189 31.4375C19.7361 31.5688 19.8018 31.7463 19.8018 31.9314C19.8018 32.1164 19.7361 32.2939 19.6189 32.4253ZM21.389 30.4566C21.2709 30.587 21.1113 30.6601 20.9449 30.6601C20.7785 30.6601 20.6189 30.587 20.5008 30.4566L19.6189 29.4688C19.5024 29.3385 19.437 29.1622 19.437 28.9784C19.437 28.7946 19.5024 28.6183 19.6189 28.488C19.7361 28.3584 19.8946 28.2857 20.0599 28.2857C20.2251 28.2857 20.3836 28.3584 20.5008 28.488L21.389 29.4688C21.5053 29.6007 21.5704 29.778 21.5704 29.9627C21.5704 30.1474 21.5053 30.3248 21.389 30.4566ZM23.1528 28.488C23.0345 28.6153 22.8764 28.6864 22.7118 28.6864C22.5473 28.6864 22.3892 28.6153 22.2709 28.488L21.389 27.5002C21.3295 27.4376 21.2822 27.3621 21.2499 27.2783C21.2176 27.1946 21.2011 27.1044 21.2013 27.0133C21.2025 26.8292 21.2688 26.653 21.3858 26.5228C21.5029 26.3926 21.6613 26.3189 21.8268 26.3176C21.9927 26.3184 22.152 26.3907 22.2709 26.5194L23.1528 27.5072C23.2693 27.6375 23.3347 27.8138 23.3347 27.9976C23.3347 28.1814 23.2693 28.3577 23.1528 28.488ZM24.9229 26.5194C24.8057 26.6489 24.6472 26.7217 24.4819 26.7217C24.3167 26.7217 24.1582 26.6489 24.041 26.5194L23.1528 25.5385C23.0356 25.4072 22.9699 25.2297 22.9699 25.0446C22.9699 24.8596 23.0356 24.6821 23.1528 24.5507C23.2724 24.4232 23.4312 24.351 23.5969 24.349C23.7628 24.3497 23.922 24.4221 24.041 24.5507L24.9229 25.5385C24.9822 25.602 25.0295 25.6782 25.0617 25.7624C25.094 25.8467 25.1106 25.9374 25.1106 26.029C25.1106 26.1206 25.094 26.2112 25.0617 26.2955C25.0295 26.3797 24.9822 26.4559 24.9229 26.5194ZM19.8378 15.9458L20.726 14.958L26.03 20.8639L25.148 21.8447L19.8378 15.9458ZM13.5394 37.6286H19.794V39.0198H13.5394V37.6286ZM5.40829 30.6723H10.412V32.0635H5.40829V30.6723ZM5.40829 33.4548H11.663V34.8461H5.40829V33.4548ZM5.40829 27.8898H9.16109V29.281H5.40829V27.8898Z" fill="#67686A" stroke="#67686A" stroke-width="2" mask="url(#path-2-inside-1_1444_4880)"/>
</svg>
