<svg width="21" height="20" viewBox="0 0 21 20" fill="none" xmlns="http://www.w3.org/2000/svg">
<path fill-rule="evenodd" clip-rule="evenodd" d="M11 19C9.33251 19.0029 7.69385 18.5652 6.25 17.731L0.5 19.501L2.36 13.457C1.79148 12.2154 1.49811 10.8656 1.5 9.5C1.5 4.25 5.75 0 11 0C16.25 0 20.5 4.25 20.5 9.5C20.5 14.75 16.25 19 11 19ZM12.17 14.57C12.17 14.02 11.72 13.57 11.17 13.57C10.62 13.57 10.17 14.02 10.17 14.57C10.17 15.12 10.62 15.57 11.17 15.57C11.72 15.57 12.17 15.12 12.17 14.57ZM9.76 10.78V12.44H11.01C13.56 12.44 15.55 10.49 15.55 7.97C15.55 5.45 13.55 3.5 11.01 3.5C8.47 3.5 6.5 5.45 6.5 7.97H8.29C8.29 6.38 9.43 5.16 11.02 5.16C12.61 5.16 13.77 6.38 13.77 7.97C13.77 9.56 12.62 10.78 11.02 10.78H9.76Z" fill="black"/>
</svg>
