<svg width="48" height="50" viewBox="0 0 48 50" fill="none" xmlns="http://www.w3.org/2000/svg">
<path d="M44.4629 23.5695C44.1597 23.5675 43.8647 23.4669 43.6192 23.2817L24.0988 8.77076L4.57838 23.2817C4.26521 23.4749 3.89389 23.5387 3.53772 23.4607C3.18154 23.3827 2.8664 23.1684 2.6545 22.8603C2.4426 22.5521 2.34934 22.1724 2.39314 21.7962C2.43694 21.4199 2.61461 21.0744 2.89107 20.8279L23.2551 5.68074C23.5015 5.49809 23.7964 5.39994 24.0988 5.39994C24.4012 5.39994 24.6961 5.49809 24.9424 5.68074L45.3065 20.8279C45.5549 21.0151 45.74 21.2792 45.8356 21.5826C45.9312 21.886 45.9323 22.213 45.8387 22.5171C45.7452 22.8211 45.5618 23.0866 45.3147 23.2756C45.0676 23.4646 44.7694 23.5675 44.4629 23.5695ZM8.09846 14.4812C7.71268 14.4812 7.3427 14.3216 7.06992 14.0376C6.79713 13.7535 6.64388 13.3682 6.64388 12.9665V6.90766C6.64388 6.50593 6.79713 6.12066 7.06992 5.83659C7.3427 5.55253 7.71268 5.39294 8.09846 5.39294H13.9168C14.3025 5.39294 14.6725 5.55253 14.9453 5.83659C15.2181 6.12066 15.3713 6.50593 15.3713 6.90766C15.3713 7.30939 15.2181 7.69466 14.9453 7.97872C14.6725 8.26279 14.3025 8.42237 13.9168 8.42237H9.55303V12.9665C9.55303 13.3682 9.39978 13.7535 9.127 14.0376C8.85421 14.3216 8.48423 14.4812 8.09846 14.4812Z" fill="#67686A"/>
<path d="M37.1901 44.7754H29.9173C29.5315 44.7754 29.1615 44.6159 28.8887 44.3318C28.6159 44.0477 28.4627 43.6625 28.4627 43.2607V32.6577H19.7352V43.2607C19.7352 43.6625 19.582 44.0477 19.3092 44.3318C19.0364 44.6159 18.6664 44.7754 18.2807 44.7754H11.0078C9.85044 44.7754 8.74051 44.2967 7.92215 43.4445C7.10379 42.5923 6.64404 41.4365 6.64404 40.2313V25.0842C6.64404 24.6824 6.79729 24.2972 7.07008 24.0131C7.34286 23.729 7.71284 23.5695 8.09862 23.5695C8.4844 23.5695 8.85437 23.729 9.12716 24.0131C9.39995 24.2972 9.55319 24.6824 9.55319 25.0842V40.2313C9.55319 40.633 9.70644 41.0183 9.97923 41.3024C10.252 41.5864 10.622 41.746 11.0078 41.746H16.8261V31.143C16.8261 30.7413 16.9793 30.356 17.2521 30.072C17.5249 29.7879 17.8949 29.6283 18.2807 29.6283H29.9173C30.303 29.6283 30.673 29.7879 30.9458 30.072C31.2186 30.356 31.3718 30.7413 31.3718 31.143V41.746H37.1901C37.5759 41.746 37.9459 41.5864 38.2187 41.3024C38.4915 41.0183 38.6447 40.633 38.6447 40.2313V25.0842C38.6447 24.6824 38.798 24.2972 39.0708 24.0131C39.3435 23.729 39.7135 23.5695 40.0993 23.5695C40.4851 23.5695 40.855 23.729 41.1278 24.0131C41.4006 24.2972 41.5539 24.6824 41.5539 25.0842V40.2313C41.5539 41.4365 41.0941 42.5923 40.2758 43.4445C39.4574 44.2967 38.3475 44.7754 37.1901 44.7754Z" fill="#67686A"/>
</svg>
