<svg width="32" height="32" viewBox="0 0 32 32" fill="none" xmlns="http://www.w3.org/2000/svg">
<path d="M15.9999 0C20.2369 0 20.7679 0.018 22.4319 0.094C24.0919 0.17 25.2259 0.434 26.2189 0.819C27.2599 1.21089 28.2028 1.82517 28.9819 2.619C29.7756 3.39784 30.3899 4.34041 30.7819 5.381C31.1669 6.374 31.4299 7.508 31.5059 9.168C31.5819 10.832 31.5999 11.363 31.5999 15.6C31.5999 19.837 31.5819 20.368 31.5059 22.032C31.4299 23.692 31.1659 24.826 30.7809 25.819C30.389 26.8599 29.7747 27.8029 28.9809 28.582C28.2021 29.3757 27.2595 29.99 26.2189 30.382C25.2259 30.767 24.0919 31.03 22.4319 31.106C20.7679 31.182 20.2369 31.2 15.9999 31.2C11.7629 31.2 11.2319 31.182 9.5679 31.106C7.9079 31.03 6.7739 30.766 5.7809 30.381C4.73995 29.9891 3.79703 29.3748 3.0179 28.581C2.22504 27.8023 1.61146 26.8601 1.2199 25.82C0.833902 24.827 0.569902 23.693 0.494902 22.033C0.417902 20.368 0.399902 19.837 0.399902 15.6C0.399902 11.363 0.417902 10.832 0.493902 9.168C0.569902 7.508 0.833902 6.374 1.2189 5.381C1.61079 4.34004 2.22507 3.39711 3.0189 2.618C3.79763 1.82514 4.73984 1.21156 5.7799 0.82C6.7739 0.433 7.9079 0.169 9.5679 0.094C11.2319 0.018 11.7629 0 15.9999 0ZM15.9999 2.81C11.8349 2.81 11.3409 2.827 9.6959 2.902C8.1759 2.972 7.3489 3.225 6.7999 3.439C6.12221 3.68904 5.50918 4.08782 5.0059 4.606C4.48772 5.10927 4.08895 5.7223 3.8389 6.4C3.6249 6.95 3.3709 7.775 3.3019 9.296C3.2269 10.941 3.2109 11.435 3.2109 15.6C3.2109 19.765 3.2269 20.259 3.3009 21.904C3.3709 23.424 3.6249 24.251 3.8389 24.8C4.08895 25.4777 4.48772 26.0907 5.0059 26.594C5.50918 27.1122 6.12221 27.511 6.7999 27.761C7.3499 27.975 8.1749 28.229 9.6959 28.298C11.3409 28.373 11.8339 28.389 15.9999 28.389C20.1659 28.389 20.6589 28.373 22.3039 28.299C23.8239 28.229 24.6509 27.975 25.1999 27.761C25.8776 27.511 26.4906 27.1122 26.9939 26.594C27.5121 26.0907 27.9109 25.4777 28.1609 24.8C28.3749 24.25 28.6289 23.425 28.6979 21.904C28.7729 20.259 28.7889 19.765 28.7889 15.6C28.7889 11.435 28.7729 10.941 28.6989 9.296C28.6289 7.776 28.3749 6.949 28.1609 6.4C27.9109 5.7223 27.5121 5.10927 26.9939 4.606C26.4906 4.08782 25.8776 3.68904 25.1999 3.439C24.6499 3.225 23.8249 2.971 22.3039 2.902C20.6589 2.827 20.1649 2.811 15.9999 2.811V2.81ZM15.9999 7.59C18.1243 7.59 20.1617 8.43391 21.6638 9.93607C23.166 11.4382 24.0099 13.4756 24.0099 15.6C24.0099 17.7244 23.166 19.7618 21.6638 21.2639C20.1617 22.7661 18.1243 23.61 15.9999 23.61C13.8755 23.61 11.8381 22.7661 10.336 21.2639C8.83381 19.7618 7.9899 17.7244 7.9899 15.6C7.9899 13.4756 8.83381 11.4382 10.336 9.93607C11.8381 8.43391 13.8755 7.59 15.9999 7.59ZM15.9999 20.8C17.379 20.8 18.7017 20.2521 19.6769 19.277C20.652 18.3018 21.1999 16.9791 21.1999 15.6C21.1999 14.2209 20.652 12.8982 19.6769 11.923C18.7017 10.9479 17.379 10.4 15.9999 10.4C14.6208 10.4 13.2981 10.9479 12.3229 11.923C11.3478 12.8982 10.7999 14.2209 10.7999 15.6C10.7999 16.9791 11.3478 18.3018 12.3229 19.277C13.2981 20.2521 14.6208 20.8 15.9999 20.8ZM26.1999 7.273C26.1999 7.76962 26.0026 8.2459 25.6515 8.59706C25.3003 8.94822 24.824 9.1455 24.3274 9.1455C23.8308 9.1455 23.3545 8.94822 23.0033 8.59706C22.6522 8.2459 22.4549 7.76962 22.4549 7.273C22.4549 6.77651 22.6521 6.30036 23.0032 5.9493C23.3543 5.59823 23.8304 5.401 24.3269 5.401C24.8234 5.401 25.2995 5.59823 25.6506 5.9493C26.0017 6.30036 26.1989 6.77651 26.1989 7.273H26.1999Z" fill="black"/>
</svg>
