<svg width="32" height="35" viewBox="0 0 32 35" fill="none" xmlns="http://www.w3.org/2000/svg">
<g clip-path="url(#clip0_1444_4919)">
<path d="M26.7982 0.729981C26.3217 0.729981 25.8474 0.797317 25.3897 0.923011V0.920766C24.4598 1.17295 23.6117 1.67122 22.9313 2.36513C21.5998 3.72307 21.1981 5.60624 21.5261 7.36034L16.4278 12.5576C16.1013 12.2887 15.6952 12.1403 15.2756 12.1367C14.8024 12.1367 14.3237 12.323 13.9628 12.6911L13.4258 13.2388L6.34343 6.01699L6.64935 5.70612C6.70943 5.6444 6.75462 5.56929 6.78136 5.48671C6.80809 5.40413 6.81564 5.31634 6.80341 5.23028L6.57342 3.58054C6.56293 3.5052 6.53752 3.43281 6.49874 3.36779C6.45996 3.30278 6.40862 3.24648 6.34783 3.20234L3.11147 0.845574C3.02165 0.77917 2.91424 0.742006 2.80335 0.738959V0.741203C2.72938 0.739725 2.65589 0.753473 2.58725 0.781626C2.51862 0.80978 2.45625 0.851759 2.40389 0.905055L0.552968 2.79047C0.461138 2.88456 0.404996 3.00882 0.394519 3.14114C0.384042 3.27347 0.419909 3.4053 0.495745 3.51321L2.80665 6.81492C2.84969 6.87666 2.90454 6.92887 2.96789 6.96841C3.03125 7.00795 3.1018 7.034 3.17529 7.04499L4.79402 7.27954C4.87876 7.29238 4.96527 7.28486 5.04665 7.25758C5.12804 7.2303 5.20206 7.18402 5.26281 7.12242L5.56543 6.81043L12.6478 14.0334L12.1119 14.5788C11.7924 14.909 11.6026 15.3471 11.5785 15.8104C11.5544 16.2736 11.6975 16.7298 11.9809 17.0927L6.88044 22.2944C5.16157 21.9611 3.31615 22.3707 1.98463 23.7275C1.30504 24.4222 0.816623 25.287 0.568419 26.2352C0.320215 27.1833 0.320958 28.1813 0.570575 29.129C0.595647 29.224 0.644777 29.3106 0.713038 29.3802C0.781299 29.4497 0.866289 29.4997 0.959485 29.5252C1.05268 29.5507 1.1508 29.5507 1.24401 29.5253C1.33722 29.4998 1.42224 29.4499 1.49053 29.3804L4.26362 26.5511L6.29941 27.2436L6.97508 29.3198L4.20199 32.1479C4.13413 32.2177 4.08546 32.3045 4.06083 32.3996C4.03621 32.4946 4.0365 32.5946 4.06169 32.6895C4.08687 32.7844 4.13607 32.8709 4.20434 32.9403C4.27261 33.0097 4.35756 33.0596 4.45069 33.085C5.37985 33.3387 6.35805 33.339 7.28736 33.0859C8.21667 32.8328 9.06449 32.3352 9.74596 31.6429C11.0775 30.2849 11.4791 28.4018 11.1512 26.6477L15.3108 22.4055L25.9839 33.2915C26.3332 33.6448 26.8053 33.843 27.2973 33.843C27.7892 33.843 28.2613 33.6448 28.6106 33.2915L32.3081 29.5184C32.6546 29.162 32.8489 28.6804 32.8489 28.1784C32.8489 27.6765 32.6546 27.1949 32.3081 26.8384L21.6361 15.9547L25.7946 11.7136C27.5146 12.0481 29.3589 11.6384 30.6915 10.2805C30.6912 10.2805 30.6919 10.2805 30.6915 10.2805C31.3711 9.58578 31.8606 8.72095 32.1088 7.77285C32.3571 6.82474 32.3563 5.82673 32.1067 4.87901C32.0816 4.78399 32.0325 4.69737 31.9642 4.62783C31.896 4.55829 31.811 4.50828 31.7178 4.48281C31.6246 4.45734 31.5265 4.45732 31.4333 4.48273C31.34 4.50815 31.255 4.55812 31.1867 4.62762L28.4137 7.45574L26.379 6.76442L25.7 4.68822L28.4753 1.86011C28.5431 1.79035 28.5919 1.70365 28.6165 1.60867C28.6412 1.51368 28.641 1.41375 28.616 1.31887C28.5909 1.22399 28.5418 1.13749 28.4737 1.06802C28.4056 0.998549 28.3207 0.948545 28.2277 0.923011C27.7616 0.794739 27.281 0.729834 26.7982 0.729981ZM26.2205 1.96672C26.4054 1.97794 26.5913 2.00376 26.7773 2.00376L24.681 4.14056C24.609 4.21449 24.5586 4.3074 24.5355 4.40889C24.5124 4.51038 24.5174 4.61642 24.55 4.71516L25.4227 7.38503C25.4498 7.46772 25.4955 7.54283 25.556 7.60438C25.6166 7.66594 25.6904 7.71226 25.7715 7.73967L28.3883 8.62963C28.4853 8.66263 28.5895 8.6674 28.689 8.64342C28.7885 8.61943 28.8795 8.56763 28.9518 8.49384L31.0448 6.35928C31.0349 7.51409 30.7345 8.64871 29.9124 9.48704C28.7658 10.6542 27.1548 11.0212 25.6912 10.6261C25.5979 10.6011 25.4998 10.6015 25.4067 10.6273C25.3136 10.6531 25.2288 10.7034 25.1608 10.7732L10.229 26.0012C10.1608 26.0707 10.1117 26.1572 10.0866 26.2522C10.0615 26.3471 10.0613 26.4471 10.086 26.5422C10.4722 28.0348 10.1135 29.6778 8.96796 30.8472C8.14373 31.6844 7.0334 31.9919 5.90106 32.0031L7.99407 29.8674C8.06643 29.7937 8.11722 29.7009 8.14074 29.5994C8.16426 29.4979 8.15958 29.3918 8.12723 29.2928L7.25459 26.623C7.22757 26.5404 7.18208 26.4654 7.12173 26.4038C7.06138 26.3423 6.98781 26.2959 6.90685 26.2683L4.28893 25.3784C4.19192 25.3454 4.08781 25.3406 3.98829 25.3646C3.88877 25.3886 3.79777 25.4404 3.72551 25.5142L1.63029 27.651C1.63909 26.495 1.93951 25.3615 2.76373 24.521C3.90928 23.3527 5.52141 22.9868 6.98608 23.3819C7.07905 23.4065 7.17672 23.4059 7.26939 23.3801C7.36206 23.3543 7.44649 23.3042 7.51429 23.2348L22.4493 8.00677C22.5175 7.93729 22.5667 7.85075 22.5918 7.75582C22.6169 7.66088 22.6171 7.56088 22.5924 7.46584C22.2061 5.9721 22.5638 4.3291 23.7104 3.15857C24.2542 2.6033 24.9322 2.20451 25.6758 2.00263C25.853 1.9555 26.0356 1.95438 26.2205 1.96672ZM2.85067 2.03406L5.51591 3.97558L5.67547 5.11132L5.17697 5.6197L4.67848 6.12921L3.56484 5.96649L1.6611 3.24835L2.85067 2.03406ZM15.2756 13.259C15.4044 13.259 15.5243 13.3016 15.6377 13.3667L12.7743 16.2857C12.69 16.1424 12.6556 15.9743 12.6765 15.8085C12.6975 15.6428 12.7727 15.489 12.8899 15.3722L14.7408 13.4846C14.8107 13.4126 14.8941 13.3556 14.9859 13.3171C15.0778 13.2785 15.1763 13.2592 15.2756 13.2601V13.259ZM20.8581 16.7492L31.5312 27.6319C31.603 27.7028 31.6601 27.7878 31.6991 27.8817C31.7381 27.9755 31.7582 28.0765 31.7582 28.1784C31.7582 28.2804 31.7381 28.3813 31.6991 28.4752C31.6601 28.5691 31.603 28.654 31.5312 28.725L27.8326 32.498C27.7633 32.5715 27.6802 32.63 27.5882 32.6699C27.4962 32.7099 27.3972 32.7304 27.2973 32.7304C27.1973 32.7304 27.0983 32.7099 27.0063 32.6699C26.9144 32.63 26.8312 32.5715 26.7619 32.498L16.0877 21.612L17.1585 20.5212L27.8326 31.4061L28.6106 30.6126L17.9365 19.7266L19.0094 18.6335L29.6835 29.5195L30.4605 28.725L19.7874 17.8401L20.8581 16.7481V16.7492Z" fill="#67686A"/>
</g>
<defs>
<clipPath id="clip0_1444_4919">
<rect width="31.6516" height="33.6328" fill="white" transform="translate(0.266357 0.72998)"/>
</clipPath>
</defs>
</svg>
