<svg width="61" height="61" viewBox="0 0 61 61" fill="none" xmlns="http://www.w3.org/2000/svg">
<path d="M41.5069 25.3555L39.0902 21.5922C38.1601 20.1458 37.6659 18.4622 37.6667 16.7425V13.3212H33.177V8.64172H29.9046V13.3212H25.4034V16.7458C25.404 18.4652 24.9105 20.1486 23.9816 21.5955L21.56 25.3555C20.3952 27.1599 19.722 29.2374 19.6072 31.3821C19.4924 33.5268 19.94 35.6643 20.9055 37.5828C21.7883 39.4103 23.1331 40.9755 24.8068 42.1235C26.4805 43.2714 28.425 43.9622 30.4478 44.1276C30.8045 44.157 31.1661 44.1701 31.5326 44.1701C31.8991 44.1701 32.2575 44.157 32.6174 44.1276C34.64 43.9621 36.5842 43.2712 38.2577 42.1233C39.9311 40.9753 41.2756 39.4102 42.1581 37.5828C43.1241 35.6646 43.5722 33.5273 43.458 31.3826C43.3438 29.2379 42.6712 27.1602 41.5069 25.3555ZM39.2309 36.1331C38.6069 37.4607 37.6423 38.5993 36.4351 39.4328C35.228 40.2663 33.8215 40.765 32.3589 40.8781C31.8144 40.9213 31.2673 40.9213 30.7227 40.8781C29.2601 40.765 27.8537 40.2663 26.6465 39.4328C25.4394 38.5993 24.4747 37.4607 23.8507 36.1331C23.1387 34.7203 22.8081 33.1461 22.8916 31.5662C22.9751 29.9863 23.4698 28.4557 24.3268 27.1259L26.7435 23.3626C28.0127 21.3886 28.6869 19.091 28.6856 16.7442V16.5936H34.4042V16.7458C34.403 19.0928 35.0778 21.3906 36.348 23.3642L38.7614 27.1275C39.6176 28.4575 40.1114 29.9882 40.1938 31.5679C40.2761 33.1475 39.9442 34.7213 39.2309 36.1331Z" fill="#67686A"/>
<path d="M33.1721 19.6942H29.8997V27.5889H33.1721V19.6942Z" fill="#67686A"/>
<path d="M51.8985 30.6174H46.4058V33.8898H51.8985V30.6174Z" fill="#67686A"/>
<path d="M43.2092 41.6072L40.8953 43.9211L44.7792 47.8051L47.0931 45.4911L43.2092 41.6072Z" fill="#67686A"/>
<path d="M33.1772 47.1187H29.9048V52.6114H33.1772V47.1187Z" fill="#67686A"/>
<path d="M19.8693 41.609L15.9854 45.4929L18.2993 47.8069L22.1832 43.9229L19.8693 41.609Z" fill="#67686A"/>
<path d="M16.6744 30.6174H11.1833V33.8898H16.6744V30.6174Z" fill="#67686A"/>
</svg>
