<svg width="50" height="50" viewBox="0 0 50 50" fill="none" xmlns="http://www.w3.org/2000/svg">
<path d="M42.7097 36.4646C42.6552 35.0598 42.2046 33.6991 41.4099 32.5395C40.6152 31.3798 39.5088 30.4686 38.2183 29.9108L32.1367 27.4694L31.0868 25.7425V24.7361C31.7826 23.9672 32.3301 23.0764 32.702 22.1084C32.9356 21.4243 33.1122 20.722 33.23 20.0087H33.3666H33.4847C33.7565 20.0054 34.0197 19.9131 34.234 19.7459C34.4483 19.5788 34.6019 19.3459 34.6712 19.0831H34.7271L35.3483 19.1514H35.4353C35.6631 19.1576 35.8849 19.0777 36.0565 18.9278C36.2372 18.7607 36.35 18.5329 36.3733 18.2879L36.5907 15.6913C36.6152 15.4356 36.5385 15.1805 36.3771 14.9808C36.2157 14.781 35.9824 14.6525 35.7273 14.6228L35.106 14.5606H35.0688C35.0272 14.3703 34.9414 14.1924 34.8184 14.0413C34.6954 13.8903 34.5386 13.7702 34.3606 13.691V13.604C35.0439 10.8334 34.1059 9.3052 32.8635 7.37323C31.5279 5.16792 27.8068 4.18641 23.1912 4.80141C22.6403 4.83185 22.1009 4.97103 21.6041 5.21092C21.1072 5.45081 20.6628 5.78667 20.2963 6.19914C20.0819 6.48009 19.9314 6.80446 19.8553 7.14959C19.3452 7.2242 18.8771 7.4747 18.5321 7.85777C17.2897 9.23065 17.3394 12.169 17.5879 13.7531C17.4412 13.8407 17.3142 13.9577 17.2148 14.0966C17.1154 14.2356 17.0457 14.3936 17.0101 14.5606H16.9604L16.3392 14.6228C16.0837 14.6525 15.8498 14.7808 15.6873 14.9804C15.5249 15.1799 15.4468 15.435 15.4695 15.6913L15.7056 18.2879C15.7217 18.4198 15.7641 18.5471 15.8302 18.6624C15.8964 18.7776 15.985 18.8784 16.0907 18.9588C16.2639 19.1055 16.4851 19.1829 16.712 19.1763H16.8051L17.4263 19.1141C17.4912 19.359 17.6327 19.5767 17.8301 19.7353C18.0396 19.9123 18.3017 20.0149 18.5756 20.0273H18.6874H18.7868C18.8994 20.7396 19.0761 21.4403 19.3148 22.1208C19.6843 23.0918 20.2321 23.9852 20.93 24.7547V25.7425L19.818 27.5005L14.0345 29.8363C12.6914 30.4212 11.5399 31.3722 10.7116 32.5805C9.88337 33.7889 9.41172 35.2059 9.35059 36.6696L9.07104 43.7576C9.07104 43.9224 9.13649 44.0804 9.25299 44.1969C9.36949 44.3134 9.5275 44.3788 9.69226 44.3788H42.368C42.5328 44.3788 42.6908 44.3134 42.8073 44.1969C42.9238 44.0804 42.9892 43.9224 42.9892 43.7576L42.7097 36.4646ZM25.5207 28.9355C24.3715 27.9913 23.1353 26.8979 22.5389 26.2767C23.5129 27.0363 24.71 27.4539 25.9451 27.4652C27.1802 27.4764 28.3846 27.0806 29.3723 26.3388C28.751 26.96 27.5086 28.0285 26.3842 28.9355H25.5207ZM27.6204 29.5567C28.6073 28.7878 29.5451 27.9579 30.4283 27.0719L31.0495 28.0472L29.5089 31.6129C28.9638 30.8509 28.3298 30.1564 27.6204 29.5443V29.5567ZM33.4847 18.7849L32.938 18.7476L33.2921 14.7719H33.4598H33.4847H33.845L33.4847 18.7849ZM35.3483 15.8341L35.1744 17.909L34.8948 17.8779H34.8203L34.9942 15.8031L35.3483 15.8341ZM19.4391 8.70262C19.5519 8.57151 19.6956 8.47051 19.8572 8.4087C20.0187 8.34689 20.1931 8.32622 20.3647 8.34853C20.4571 8.35705 20.5504 8.34473 20.6374 8.31248C20.7245 8.28023 20.8033 8.22886 20.8679 8.16217C20.9332 8.10018 20.9842 8.02474 21.0174 7.94108C21.0507 7.85741 21.0654 7.76752 21.0604 7.67762C21.0604 7.54717 20.9983 6.35444 23.3713 6.03762C27.4403 5.49095 30.77 6.27368 31.8571 8.0255C32.9442 9.77732 33.7207 11.0508 33.1679 13.3058C33.1679 13.3866 33.1368 13.4673 33.1182 13.5481C32.8422 13.5899 32.5884 13.7233 32.3976 13.927C32.2532 13.2502 32.0279 12.5932 31.7266 11.9702C30.652 9.96989 29.043 10.0258 27.8627 10.0693H27.577C27.1922 10.0866 26.8086 10.1239 26.4277 10.1811C25.1853 10.3488 23.4894 10.5725 21.8494 9.88292C21.755 9.84342 21.6523 9.82786 21.5504 9.83761C21.4485 9.84736 21.3506 9.88214 21.2654 9.93883C20.0672 10.7967 19.2443 12.0821 18.967 13.5294H18.8303C18.5756 11.9826 18.6129 9.59095 19.4391 8.70262ZM16.9232 17.909L16.7492 15.8341L17.0412 15.8031L17.2338 17.8841C17.2111 17.881 17.1881 17.881 17.1654 17.8841L16.9232 17.909ZM18.5756 18.7849L18.1966 14.8216L18.7495 14.7594L19.1347 18.7352L18.5756 18.7849ZM19.9733 19.6422L20.0789 19.5366C20.2869 19.2847 20.3873 18.9611 20.3585 18.6358L20.0665 15.449C20.0665 15.0017 20.1038 14.5482 20.1224 14.132C20.1713 13.5599 20.3345 13.0034 20.6024 12.4955C20.8702 11.9876 21.2372 11.5386 21.6816 11.175C23.2614 11.66 24.9365 11.7475 26.5582 11.4297C26.962 11.3738 27.3098 11.3303 27.577 11.3179H27.8938C29.0244 11.2807 29.9127 11.2434 30.6209 12.5603C31.2421 13.7407 31.6397 16.5485 31.7453 18.0829L31.6956 18.642C31.6709 18.8784 31.7186 19.1166 31.8323 19.3253C31.8062 19.3748 31.7854 19.4269 31.7701 19.4806C31.3788 21.1082 28.9747 22.1022 27.5894 22.4935C27.4188 22.1785 27.145 21.9318 26.814 21.7949C26.4829 21.658 26.1148 21.6393 25.7716 21.7419C25.4283 21.8445 25.1309 22.0621 24.9293 22.3582C24.7277 22.6544 24.6342 23.0109 24.6645 23.3678C24.6948 23.7248 24.8472 24.0604 25.0959 24.3183C25.3446 24.5761 25.6745 24.7405 26.0301 24.7836C26.3858 24.8268 26.7454 24.7463 27.0486 24.5555C27.3518 24.3647 27.5801 24.0753 27.695 23.736C29.037 23.4087 30.3027 22.8243 31.4223 22.0152C30.8093 23.2674 29.9191 24.3637 28.8194 25.2206C28.0358 25.8562 27.0576 26.203 26.0488 26.203C25.0399 26.203 24.0617 25.8562 23.2782 25.2206C22.0686 24.292 21.1204 23.0655 20.5262 21.6611C20.2821 21.0069 20.1011 20.3308 19.9857 19.6422H19.9733ZM26.5271 23.2576C26.5271 23.3203 26.5085 23.3815 26.4737 23.4336C26.4389 23.4857 26.3894 23.5263 26.3315 23.5503C26.2736 23.5743 26.2099 23.5806 26.1485 23.5683C26.087 23.5561 26.0306 23.526 25.9863 23.4816C25.942 23.4373 25.9118 23.3809 25.8996 23.3194C25.8873 23.258 25.8936 23.1943 25.9176 23.1364C25.9416 23.0785 25.9822 23.029 26.0343 22.9942C26.0864 22.9594 26.1476 22.9408 26.2103 22.9408C26.2943 22.9408 26.3749 22.9742 26.4343 23.0336C26.4937 23.093 26.5271 23.1736 26.5271 23.2576ZM21.5574 27.0594C22.4012 27.9199 23.2997 28.725 24.2473 29.4697C23.5393 29.9976 22.9115 30.6254 22.3836 31.3334L20.9238 28.0161L21.5574 27.0594ZM10.5806 36.7317C10.6246 35.3811 11.0894 34.078 11.91 33.0044C12.586 32.1159 13.4776 31.4145 14.5004 30.9669L19.8988 28.7802L21.427 32.2403C21.4644 32.4106 21.5498 32.5667 21.6731 32.6899C21.7964 32.8132 21.9524 32.8987 22.1227 32.9361C22.1909 32.9422 22.2595 32.9422 22.3277 32.9361C22.4897 32.9358 22.6488 32.8932 22.7894 32.8126C22.9299 32.7319 23.047 32.6161 23.1291 32.4764C23.3128 32.1842 23.5206 31.9079 23.7503 31.6502L24.62 32.6007L23.5453 43.1364H10.3383L10.5806 36.7317ZM24.7877 43.1364L25.8251 32.4826C25.834 32.3965 25.8248 32.3094 25.7981 32.227C25.7713 32.1447 25.7276 32.0688 25.6698 32.0043L24.6013 30.8116C24.8652 30.5895 25.141 30.3822 25.4276 30.1903H26.4463C26.6079 30.3208 26.8688 30.5382 27.167 30.8116L26.2227 32.0105C26.1228 32.137 26.0761 32.2974 26.0923 32.4578L27.167 43.1364H24.7877ZM28.3907 43.1364L27.3533 32.5758L28.0304 31.7185C28.3053 32.0468 28.5545 32.3957 28.7759 32.7622C28.8562 32.9038 28.9728 33.0216 29.1136 33.1035C29.2544 33.1854 29.4144 33.2284 29.5773 33.2281C29.638 33.2225 29.6983 33.2121 29.7574 33.197C29.9285 33.1591 30.0851 33.0728 30.2085 32.9483C30.3318 32.8238 30.4168 32.6665 30.4532 32.495L32.0186 28.7678L37.7151 31.0538C38.6686 31.4638 39.5054 32.1042 40.1503 32.9175C40.9409 33.9406 41.3927 35.1849 41.4424 36.477L41.722 43.1364H28.3907Z" fill="#67686A"/>
</svg>
