<svg width="88" height="88" viewBox="0 0 88 88" fill="none" xmlns="http://www.w3.org/2000/svg">
<path d="M71.5127 5.5C70.322 5.5 69.1367 5.665 67.9927 5.973V5.9675C65.6689 6.58545 63.5495 7.8064 61.8492 9.50675C58.5217 12.8343 57.518 17.4488 58.3375 21.747L45.5967 34.4822C44.7809 33.8233 43.7661 33.4599 42.7175 33.451C41.535 33.451 40.3387 33.9075 39.4367 34.8095L38.0947 36.1515L20.3957 18.4552L21.1602 17.6935C21.3104 17.5423 21.4233 17.3582 21.4901 17.1559C21.5569 16.9535 21.5758 16.7384 21.5452 16.5275L20.9705 12.485C20.9443 12.3004 20.8808 12.123 20.7838 11.9637C20.6869 11.8044 20.5586 11.6664 20.4067 11.5583L12.319 5.78325C12.0945 5.62053 11.8261 5.52947 11.549 5.522V5.5275C11.3641 5.52388 11.1805 5.55757 11.0089 5.62655C10.8374 5.69554 10.6816 5.79841 10.5507 5.929L5.92522 10.549C5.69574 10.7796 5.55544 11.084 5.52926 11.4083C5.50307 11.7326 5.59271 12.0556 5.78222 12.32L11.5572 20.4105C11.6648 20.5618 11.8018 20.6897 11.9602 20.7866C12.1185 20.8835 12.2948 20.9473 12.4785 20.9742L16.5237 21.549C16.7355 21.5805 16.9517 21.562 17.1551 21.4952C17.3584 21.4284 17.5434 21.3149 17.6952 21.164L18.4515 20.3995L36.1505 38.0985L34.8112 39.435C34.0128 40.2441 33.5386 41.3178 33.4783 42.4529C33.4179 43.588 33.7757 44.7059 34.484 45.595L21.7377 58.3413C17.4422 57.5245 12.8305 58.5283 9.50297 61.853C7.80467 63.5553 6.5841 65.6745 5.96383 67.9977C5.34357 70.3209 5.34542 72.7665 5.96922 75.0888C6.03188 75.3216 6.15466 75.5338 6.32524 75.7042C6.49583 75.8746 6.70822 75.9972 6.94112 76.0596C7.17402 76.122 7.41923 76.1221 7.65216 76.0598C7.88509 75.9975 8.09755 75.8751 8.26822 75.7048L15.1982 68.772L20.2857 70.4688L21.9742 75.5563L15.0442 82.4863C14.8746 82.6574 14.753 82.87 14.6915 83.1029C14.6299 83.3358 14.6307 83.5808 14.6936 83.8134C14.7565 84.0459 14.8795 84.2578 15.0501 84.4279C15.2207 84.598 15.433 84.7203 15.6657 84.7825C17.9877 85.4041 20.4323 85.4048 22.7546 84.7847C25.077 84.1645 27.1957 82.9452 28.8987 81.2487C32.2262 77.9212 33.23 73.3067 32.4105 69.0085L42.8055 58.6135L69.4777 85.2885C70.3507 86.1542 71.5304 86.6399 72.7598 86.6399C73.9893 86.6399 75.169 86.1542 76.042 85.2885L85.282 76.043C86.1478 75.1695 86.6336 73.9894 86.6336 72.7595C86.6336 71.5296 86.1478 70.3495 85.282 69.476L58.6125 42.8065L69.0047 32.4142C73.303 33.2337 77.912 32.23 81.2422 28.9025C81.2413 28.9025 81.2431 28.9025 81.2422 28.9025C82.9405 27.2002 84.1638 25.081 84.7841 22.7578C85.4044 20.4346 85.4025 17.989 84.7787 15.6668C84.7161 15.4339 84.5933 15.2217 84.4227 15.0513C84.2521 14.8809 84.0397 14.7583 83.8068 14.6959C83.5739 14.6335 83.3287 14.6334 83.0958 14.6957C82.8629 14.758 82.6504 14.8804 82.4797 15.0508L75.5497 21.9808L70.465 20.2867L68.7682 15.1993L75.7037 8.26925C75.8733 8.09833 75.9951 7.88587 76.0568 7.65312C76.1185 7.42038 76.118 7.17551 76.0553 6.94302C75.9927 6.71053 75.8701 6.49856 75.6998 6.32833C75.5295 6.1581 75.3175 6.03557 75.085 5.973C73.9203 5.65868 72.7191 5.49964 71.5127 5.5ZM70.069 8.5305C70.531 8.558 70.9957 8.62125 71.4605 8.62125L66.2217 13.8573C66.0418 14.0384 65.9159 14.2661 65.8581 14.5148C65.8003 14.7635 65.8129 15.0233 65.8945 15.2653L68.0752 21.8075C68.143 22.0101 68.2571 22.1942 68.4084 22.345C68.5597 22.4958 68.7441 22.6093 68.947 22.6765L75.4865 24.8572C75.7289 24.9381 75.9891 24.9498 76.2378 24.891C76.4865 24.8323 76.7139 24.7053 76.8945 24.5245L82.125 19.294C82.1002 22.1237 81.3495 24.904 79.2952 26.9583C76.4297 29.8183 72.4037 30.7175 68.7462 29.7495C68.5131 29.6881 68.2679 29.689 68.0353 29.7523C67.8026 29.8155 67.5907 29.9388 67.4207 30.1098L30.106 67.4245C29.9355 67.5947 29.8127 67.8068 29.75 68.0394C29.6872 68.2721 29.6867 68.5171 29.7485 68.75C30.7137 72.4075 29.8172 76.4335 26.9545 79.299C24.8947 81.3505 22.12 82.104 19.2902 82.1315L24.5207 76.8982C24.7016 76.7177 24.8285 76.4903 24.8873 76.2416C24.946 75.9928 24.9343 75.7327 24.8535 75.4902L22.6727 68.948C22.6052 68.7457 22.4915 68.5618 22.3407 68.411C22.1899 68.2602 22.006 68.1465 21.8037 68.079L15.2615 65.8982C15.019 65.8174 14.7589 65.8057 14.5102 65.8645C14.2615 65.9232 14.0341 66.0502 13.8535 66.231L8.61747 71.467C8.63947 68.6345 9.39022 65.857 11.45 63.7972C14.3127 60.9345 18.3415 60.038 22.0017 61.006C22.234 61.0664 22.4781 61.0649 22.7097 61.0017C22.9413 60.9385 23.1523 60.8158 23.3217 60.6457L60.6447 23.331C60.8152 23.1608 60.938 22.9487 61.0007 22.7161C61.0635 22.4834 61.064 22.2384 61.0022 22.0055C60.037 18.3453 60.9307 14.3193 63.7962 11.451C65.1551 10.0904 66.8495 9.11318 68.7077 8.6185C69.1505 8.503 69.607 8.50025 70.069 8.5305ZM11.6672 8.6955L18.3277 13.453L18.7265 16.236L17.4807 17.4817L16.235 18.7302L13.452 18.3315L8.69447 11.671L11.6672 8.6955ZM42.7175 36.201C43.0392 36.201 43.339 36.3055 43.6222 36.465L36.4667 43.6178C36.256 43.2665 36.1699 42.8545 36.2223 42.4484C36.2747 42.0422 36.4626 41.6655 36.7555 41.3792L41.381 36.7537C41.5556 36.5774 41.7639 36.4378 41.9935 36.3433C42.2231 36.2489 42.4692 36.2014 42.7175 36.2038V36.201ZM56.6682 44.7535L83.3405 71.4202C83.5199 71.5941 83.6626 71.8022 83.7601 72.0323C83.8575 72.2623 83.9078 72.5097 83.9078 72.7595C83.9078 73.0094 83.8575 73.2567 83.7601 73.4867C83.6626 73.7168 83.5199 73.9249 83.3405 74.0987L74.0977 83.3442C73.9245 83.5243 73.7168 83.6676 73.4869 83.7654C73.257 83.8633 73.0097 83.9137 72.7598 83.9137C72.51 83.9137 72.2627 83.8633 72.0328 83.7654C71.8029 83.6676 71.5952 83.5243 71.422 83.3442L44.747 56.6693L47.4227 53.9963L74.0977 80.6685L76.042 78.7243L49.367 52.0493L52.0482 49.3707L78.7232 76.0457L80.6647 74.0987L53.9925 47.4265L56.6682 44.7507V44.7535Z" fill="white"/>
</svg>
