<svg width="63" height="84" viewBox="0 0 63 84" fill="none" xmlns="http://www.w3.org/2000/svg">
<path d="M10.2883 0.337158V1.83097L9.68242 1.08406V51.1268H1.8056C1.6449 51.1268 1.49079 51.2054 1.37716 51.3454C1.26353 51.4855 1.19969 51.6756 1.19969 51.8737V57.849C1.19969 58.047 1.26353 58.237 1.37716 58.377C1.49079 58.5171 1.6449 58.5959 1.8056 58.5959H3.62333V76.5216H1.8056C1.6449 76.5216 1.49079 76.6002 1.37716 76.7402C1.26353 76.8803 1.19969 77.0704 1.19969 77.2685V82.4968H0.605909C0.445212 82.4968 0.291087 82.5754 0.177457 82.7155C0.063827 82.8555 0 83.0456 0 83.2437C0 83.4418 0.063827 83.6318 0.177457 83.7718C0.291087 83.9119 0.445212 83.9906 0.605909 83.9906H62.3941C62.5548 83.9906 62.7089 83.9119 62.8225 83.7718C62.9362 83.6318 63 83.4418 63 83.2437C63 83.0456 62.9362 82.8555 62.8225 82.7155C62.7089 82.5754 62.5548 82.4968 62.3941 82.4968H61.7906V77.2685C61.7906 77.0704 61.7268 76.8803 61.6131 76.7402C61.4995 76.6002 61.3454 76.5216 61.1847 76.5216H59.367V58.5959H61.1847C61.3454 58.5959 61.4995 58.5171 61.6131 58.377C61.7268 58.237 61.7906 58.047 61.7906 57.849V51.8737C61.7906 51.6756 61.7268 51.4855 61.6131 51.3454C61.4995 51.2054 61.3454 51.1268 61.1847 51.1268H53.3079V1.08406C53.3079 0.885972 53.244 0.695959 53.1304 0.555887C53.0168 0.415815 52.8627 0.337158 52.702 0.337158H10.2883ZM10.8942 1.83097H52.0961V51.1268H10.8942V1.83097ZM15.1356 6.3124C14.9749 6.3124 14.8208 6.39106 14.7072 6.53113C14.5935 6.6712 14.5297 6.86121 14.5297 7.05931V17.516C14.5297 17.7141 14.5935 17.9041 14.7072 18.0442C14.8208 18.1842 14.9749 18.2629 15.1356 18.2629H23.6183C23.779 18.2629 23.9331 18.1842 24.0468 18.0442C24.1604 17.9041 24.2242 17.7141 24.2242 17.516V7.05931C24.2242 6.86121 24.1604 6.6712 24.0468 6.53113C23.9331 6.39106 23.779 6.3124 23.6183 6.3124H15.1356ZM27.2538 6.3124C27.0931 6.3124 26.939 6.39106 26.8253 6.53113C26.7117 6.6712 26.6479 6.86121 26.6479 7.05931V17.516C26.6479 17.7141 26.7117 17.9041 26.8253 18.0442C26.939 18.1842 27.0931 18.2629 27.2538 18.2629H35.7365C35.8972 18.2629 36.0513 18.1842 36.165 18.0442C36.2786 17.9041 36.3424 17.7141 36.3424 17.516V7.05931C36.3424 6.86121 36.2786 6.6712 36.165 6.53113C36.0513 6.39106 35.8972 6.3124 35.7365 6.3124H27.2538ZM39.372 6.3124C39.2113 6.3124 39.0572 6.39106 38.9435 6.53113C38.8299 6.6712 38.7661 6.86121 38.7661 7.05931V17.516C38.7661 17.7141 38.8299 17.9041 38.9435 18.0442C39.0572 18.1842 39.2113 18.2629 39.372 18.2629H47.8547C48.0154 18.2629 48.1695 18.1842 48.2831 18.0442C48.3968 17.9041 48.4606 17.7141 48.4606 17.516V7.05931C48.4606 6.86121 48.3968 6.6712 48.2831 6.53113C48.1695 6.39106 48.0154 6.3124 47.8547 6.3124H39.372ZM15.7415 7.80621H23.0124V16.7691H15.7415V7.80621ZM27.8597 7.80621H35.1306V16.7691H27.8597V7.80621ZM39.9779 7.80621H47.2488V16.7691H39.9779V7.80621ZM15.1356 21.2505C14.9749 21.2505 14.8208 21.3292 14.7072 21.4692C14.5935 21.6093 14.5297 21.7993 14.5297 21.9974V32.4541C14.5297 32.6522 14.5935 32.8422 14.7072 32.9823C14.8208 33.1223 14.9749 33.201 15.1356 33.201H23.6183C23.779 33.201 23.9331 33.1223 24.0468 32.9823C24.1604 32.8422 24.2242 32.6522 24.2242 32.4541V21.9974C24.2242 21.7993 24.1604 21.6093 24.0468 21.4692C23.9331 21.3292 23.779 21.2505 23.6183 21.2505H15.1356ZM27.2538 21.2505C27.0931 21.2505 26.939 21.3292 26.8253 21.4692C26.7117 21.6093 26.6479 21.7993 26.6479 21.9974V32.4541C26.6479 32.6522 26.7117 32.8422 26.8253 32.9823C26.939 33.1223 27.0931 33.201 27.2538 33.201H35.7365C35.8972 33.201 36.0513 33.1223 36.165 32.9823C36.2786 32.8422 36.3424 32.6522 36.3424 32.4541V21.9974C36.3424 21.7993 36.2786 21.6093 36.165 21.4692C36.0513 21.3292 35.8972 21.2505 35.7365 21.2505H27.2538ZM39.372 21.2505C39.2113 21.2505 39.0572 21.3292 38.9435 21.4692C38.8299 21.6093 38.7661 21.7993 38.7661 21.9974V32.4541C38.7661 32.6522 38.8299 32.8422 38.9435 32.9823C39.0572 33.1223 39.2113 33.201 39.372 33.201H47.8547C48.0154 33.201 48.1695 33.1223 48.2831 32.9823C48.3968 32.8422 48.4606 32.6522 48.4606 32.4541V21.9974C48.4606 21.7993 48.3968 21.6093 48.2831 21.4692C48.1695 21.3292 48.0154 21.2505 47.8547 21.2505H39.372ZM15.7415 22.7443H23.0124V31.7072H15.7415V22.7443ZM27.8597 22.7443H35.1306V31.7072H27.8597V22.7443ZM39.9779 22.7443H47.2488V31.7072H39.9779V22.7443ZM15.1356 36.1886C14.9749 36.1886 14.8208 36.2673 14.7072 36.4073C14.5935 36.5474 14.5297 36.7374 14.5297 36.9355V47.3922C14.5297 47.4903 14.5454 47.5874 14.5758 47.678C14.6063 47.7686 14.6509 47.851 14.7072 47.9204C14.7634 47.9897 14.8302 48.0448 14.9037 48.0823C14.9773 48.1198 15.056 48.1392 15.1356 48.1392H23.6183C23.779 48.1392 23.9331 48.0604 24.0468 47.9204C24.1604 47.7803 24.2242 47.5903 24.2242 47.3922V36.9355C24.2242 36.7374 24.1604 36.5474 24.0468 36.4073C23.9331 36.2673 23.779 36.1886 23.6183 36.1886H15.1356ZM27.2538 36.1886C27.0931 36.1886 26.939 36.2673 26.8253 36.4073C26.7117 36.5474 26.6479 36.7374 26.6479 36.9355V47.3922C26.6479 47.4903 26.6636 47.5874 26.694 47.678C26.7245 47.7686 26.7691 47.851 26.8253 47.9204C26.8816 47.9897 26.9484 48.0448 27.0219 48.0823C27.0954 48.1198 27.1742 48.1392 27.2538 48.1392H35.7365C35.8972 48.1392 36.0513 48.0604 36.165 47.9204C36.2786 47.7803 36.3424 47.5903 36.3424 47.3922V36.9355C36.3424 36.7374 36.2786 36.5474 36.165 36.4073C36.0513 36.2673 35.8972 36.1886 35.7365 36.1886H27.2538ZM39.372 36.1886C39.2113 36.1886 39.0572 36.2673 38.9435 36.4073C38.8299 36.5474 38.7661 36.7374 38.7661 36.9355V47.3922C38.7661 47.4903 38.7817 47.5874 38.8122 47.678C38.8426 47.7686 38.8873 47.851 38.9435 47.9204C38.9998 47.9897 39.0666 48.0448 39.1401 48.0823C39.2136 48.1198 39.2924 48.1392 39.372 48.1392H47.8547C48.0154 48.1392 48.1695 48.0604 48.2831 47.9204C48.3968 47.7803 48.4606 47.5903 48.4606 47.3922V36.9355C48.4606 36.7374 48.3968 36.5474 48.2831 36.4073C48.1695 36.2673 48.0154 36.1886 47.8547 36.1886H39.372ZM15.7415 37.6824H23.0124V46.6453H15.7415V37.6824ZM27.8597 37.6824H35.1306V46.6453H27.8597V37.6824ZM39.9779 37.6824H47.2488V46.6453H39.9779V37.6824ZM2.41151 52.6206H60.5788V57.1021H52.8135C52.7437 57.0869 52.6723 57.0869 52.6026 57.1021H10.3829C10.3493 57.0935 10.3153 57.0885 10.2811 57.0871C10.2509 57.0893 10.2209 57.0943 10.1914 57.1021H2.41151V52.6206ZM4.83514 58.5959H9.68242V82.4968H7.25878V77.2685C7.25878 77.0704 7.19495 76.8803 7.08132 76.7402C6.96769 76.6002 6.81357 76.5216 6.65287 76.5216H4.83514V58.5959ZM10.8942 58.5959H52.0961V82.4968H48.4606V62.3304C48.4606 62.1323 48.3968 61.9422 48.2831 61.8021C48.1695 61.662 48.0154 61.5835 47.8547 61.5835H15.1356C14.9749 61.5835 14.8208 61.662 14.7072 61.8021C14.5935 61.9422 14.5297 62.1323 14.5297 62.3304V82.4968H10.8942V58.5959ZM53.3079 58.5959H58.1551V76.5216H56.3374C56.1767 76.5216 56.0226 76.6002 55.909 76.7402C55.7954 76.8803 55.7315 77.0704 55.7315 77.2685V82.4968H53.3079V58.5959ZM15.7415 63.0773H25.4361V82.4968H15.7415V63.0773ZM26.6479 63.0773H36.3424V82.4968H26.6479V63.0773ZM37.5542 63.0773H47.2488V82.4968H37.5542V63.0773ZM2.41151 78.0154H6.04696V82.4968H2.41151V78.0154ZM56.9433 78.0154H60.5788V82.4968H56.9433V78.0154Z" fill="#1C8CD6"/>
</svg>
