<svg width="91" height="91" viewBox="0 0 91 91" fill="none" xmlns="http://www.w3.org/2000/svg">
<path d="M85.3125 42.6562C84.7198 42.6524 84.1432 42.4635 83.6631 42.1159L45.5 14.8728L7.33684 42.1159C6.72459 42.4785 5.99864 42.5984 5.3023 42.452C4.60597 42.3055 3.98985 41.9033 3.57558 41.3247C3.16131 40.7462 2.97899 40.0333 3.06462 39.3269C3.15024 38.6205 3.49759 37.9719 4.03809 37.5091L43.8506 9.07156C44.3322 8.72865 44.9087 8.54438 45.5 8.54438C46.0912 8.54438 46.6677 8.72865 47.1493 9.07156L86.9618 37.5091C87.4474 37.8606 87.8094 38.3565 87.9963 38.926C88.1832 39.4955 88.1853 40.1095 88.0024 40.6803C87.8195 41.2512 87.4609 41.7496 86.9778 42.1044C86.4947 42.4593 85.9119 42.6524 85.3125 42.6562ZM14.2187 25.5938C13.4645 25.5938 12.7412 25.2941 12.2079 24.7608C11.6746 24.2275 11.375 23.5042 11.375 22.75V11.375C11.375 10.6208 11.6746 9.89747 12.2079 9.36416C12.7412 8.83086 13.4645 8.53125 14.2187 8.53125H25.5937C26.3479 8.53125 27.0712 8.83086 27.6046 9.36416C28.1379 9.89747 28.4375 10.6208 28.4375 11.375C28.4375 12.1292 28.1379 12.8525 27.6046 13.3858C27.0712 13.9191 26.3479 14.2188 25.5937 14.2188H17.0625V22.75C17.0625 23.5042 16.7629 24.2275 16.2296 24.7608C15.6962 25.2941 14.9729 25.5938 14.2187 25.5938Z" fill="white"/>
<path d="M71.0938 82.4688H56.875C56.1208 82.4688 55.3975 82.1691 54.8642 81.6358C54.3309 81.1025 54.0312 80.3792 54.0312 79.625V59.7188H36.9688V79.625C36.9688 80.3792 36.6691 81.1025 36.1358 81.6358C35.6025 82.1691 34.8792 82.4688 34.125 82.4688H19.9062C17.6436 82.4688 15.4737 81.5699 13.8737 79.97C12.2738 78.3701 11.375 76.2001 11.375 73.9375V45.5C11.375 44.7458 11.6746 44.0225 12.2079 43.4892C12.7412 42.9559 13.4645 42.6562 14.2188 42.6562C14.973 42.6562 15.6963 42.9559 16.2296 43.4892C16.7629 44.0225 17.0625 44.7458 17.0625 45.5V73.9375C17.0625 74.6917 17.3621 75.415 17.8954 75.9483C18.4287 76.4816 19.152 76.7812 19.9062 76.7812H31.2812V56.875C31.2812 56.1208 31.5809 55.3975 32.1142 54.8642C32.6475 54.3309 33.3708 54.0312 34.125 54.0312H56.875C57.6292 54.0312 58.3525 54.3309 58.8858 54.8642C59.4191 55.3975 59.7188 56.1208 59.7188 56.875V76.7812H71.0938C71.848 76.7812 72.5713 76.4816 73.1046 75.9483C73.6379 75.415 73.9375 74.6917 73.9375 73.9375V45.5C73.9375 44.7458 74.2371 44.0225 74.7704 43.4892C75.3037 42.9559 76.027 42.6562 76.7812 42.6562C77.5355 42.6562 78.2588 42.9559 78.7921 43.4892C79.3254 44.0225 79.625 44.7458 79.625 45.5V73.9375C79.625 76.2001 78.7262 78.3701 77.1263 79.97C75.5263 81.5699 73.3564 82.4688 71.0938 82.4688Z" fill="white"/>
</svg>
