<svg width="86" height="90" viewBox="0 0 86 90" fill="none" xmlns="http://www.w3.org/2000/svg">
<path d="M51.5625 4.22961V3.72961H51.0625H9.40625C8.19696 3.72961 7.04207 4.23256 6.19423 5.11983C5.34713 6.00633 4.875 7.20402 4.875 8.44836V78.7609C4.875 80.0052 5.34713 81.2029 6.19423 82.0894C7.04207 82.9767 8.19696 83.4796 9.40625 83.4796H57.7812C58.9905 83.4796 60.1454 82.9767 60.9933 82.0894C61.8404 81.2029 62.3125 80.0052 62.3125 78.7609V73.6359H64V78.7603C63.998 80.4991 63.3369 82.1619 62.1683 83.3848C61.0004 84.607 59.422 85.2901 57.7806 85.2921H9.40688C7.76552 85.2901 6.18709 84.607 5.01923 83.3848C3.8507 82.1619 3.18956 80.4993 3.1875 78.7606V8.44866C3.18956 6.70991 3.8507 5.0473 5.01923 3.82441C6.18702 2.60231 7.76532 1.91926 9.40657 1.91711H52.4061C52.4062 1.91711 52.4062 1.91711 52.4062 1.91711C52.6224 1.91719 52.8346 2.00692 52.9947 2.17452L52.9948 2.17457L63.7448 13.4246L63.7448 13.4246C63.9057 13.593 63.9999 13.8259 64 14.0734C64 14.0734 64 14.0734 64 14.0735V44.5109H62.3125V15.4796V14.9796H61.8125H55.0938C54.1647 14.9796 53.2689 14.5936 52.6047 13.8985C51.9398 13.2027 51.5625 12.2543 51.5625 11.2609V4.22961ZM54.1115 5.87262L53.25 4.97106V6.21805V11.2609C53.25 11.7593 53.439 12.2416 53.7821 12.6007C54.1259 12.9605 54.5972 13.1671 55.0938 13.1671H59.9124H61.0818L60.2739 12.3217L54.1115 5.87262Z" fill="#1C8CD6" stroke="#1C8CD6"/>
<mask id="path-2-inside-1_380_1033" fill="white">
<path d="M10.7499 9.85461H13.4374V12.6671H10.7499V9.85461ZM16.1249 9.85461H24.1874V12.6671H16.1249V9.85461ZM10.7499 15.4796H24.1874V18.2921H10.7499V15.4796ZM81.794 39.5687C80.5329 38.2522 78.8244 37.5128 77.0431 37.5128C75.2619 37.5128 73.5534 38.2522 72.2923 39.5687L48.5375 64.4284C48.3504 64.6244 48.2227 64.8739 48.1706 65.1456L47.2999 69.7004L44.7374 72.3821C44.358 72.7726 44.0562 73.2379 43.8495 73.7511C43.6428 74.2643 43.5353 74.8152 43.533 75.3721C43.5308 75.929 43.6339 76.4808 43.8365 76.9958C44.0391 77.5108 44.3371 77.9787 44.7134 78.3725C45.0896 78.7664 45.5367 79.0783 46.0287 79.2905C46.5207 79.5026 47.048 79.6107 47.5802 79.6085C48.1123 79.6063 48.6388 79.4938 49.1292 79.2776C49.6196 79.0614 50.0643 78.7458 50.4375 78.3488L53.0014 75.6671L57.3538 74.7559C57.6136 74.701 57.852 74.5669 58.0391 74.3706L81.794 49.5109C83.0516 48.1912 83.7578 46.4035 83.7578 44.5398C83.7578 42.676 83.0516 40.8883 81.794 39.5687ZM49.9968 69.9324L50.6297 66.6165L55.9469 72.181L52.7797 72.8448L49.9968 69.9324ZM52.3376 64.4284L68.4908 47.5224L70.3922 49.5109L54.239 66.4168L52.3376 64.4284ZM56.1391 68.4052L72.2936 51.5007L74.1937 53.4906L58.0391 70.3937L56.1391 68.4052ZM70.3922 45.534L71.3423 44.5398L77.0438 50.5065L76.0924 51.5021L70.3922 45.534ZM48.5361 76.3604C48.2804 76.616 47.9404 76.7586 47.5868 76.7586C47.2332 76.7586 46.8932 76.616 46.6374 76.3604C46.5125 76.2298 46.4134 76.0747 46.3457 75.904C46.2781 75.7333 46.2433 75.5503 46.2433 75.3655C46.2433 75.1807 46.2781 74.9977 46.3457 74.827C46.4134 74.6562 46.5125 74.5012 46.6374 74.3706L48.5375 72.3821L50.4389 74.372L48.5361 76.3604ZM79.8939 47.5238L78.9439 48.5181L73.2423 42.5513L74.1924 41.5571C74.5667 41.1653 75.0112 40.8546 75.5003 40.6425C75.9894 40.4305 76.5137 40.3214 77.0431 40.3214C77.5726 40.3214 78.0968 40.4305 78.5859 40.6425C79.0751 40.8546 79.5195 41.1653 79.8939 41.5571C80.2683 41.9489 80.5652 42.414 80.7678 42.9259C80.9704 43.4378 81.0747 43.9864 81.0747 44.5405C81.0747 45.0945 80.9704 45.6432 80.7678 46.1551C80.5652 46.6669 80.2683 47.132 79.8939 47.5238ZM57.9021 41.6499C58.1538 41.3844 58.2951 41.0255 58.2951 40.6515C58.2951 40.2774 58.1538 39.9186 57.9021 39.6531L44.599 25.7312C44.3417 25.4803 44.0032 25.3408 43.6516 25.3408C43.3 25.3408 42.9615 25.4803 42.7043 25.7312L39.1836 29.4156L37.1277 29.8374L33.204 25.7312C32.9477 25.4722 32.6061 25.3261 32.2499 25.3234H27.1033L23.7036 21.7515C23.4499 21.488 23.107 21.3402 22.7496 21.3402C22.3922 21.3402 22.0492 21.488 21.7955 21.7515L8.49239 35.6734C8.24064 35.9389 8.09937 36.2978 8.09937 36.6718C8.09937 37.0458 8.24064 37.4047 8.49239 37.6702L18.1674 47.7952C17.8775 48.4193 17.7407 49.1091 17.7692 49.8024C17.7977 50.4956 17.9906 51.1706 18.3306 51.7663C18.6705 52.3621 19.1468 52.8599 19.7166 53.215C20.2863 53.57 20.9315 53.771 21.594 53.7999C21.63 54.8391 22.0433 55.8248 22.7496 56.5562C23.4508 57.2937 24.3903 57.7301 25.3833 57.7796C25.4331 58.8183 25.8497 59.8006 26.5523 60.5359C27.255 61.2713 28.1937 61.7073 29.1861 61.7593C29.2296 62.5712 29.4964 63.3526 29.9544 64.0095C30.4123 64.6665 31.0419 65.1709 31.7674 65.4621C32.4929 65.7533 33.2833 65.8189 34.0436 65.651C34.8039 65.483 35.5016 65.0887 36.0527 64.5155L37.4771 66.0062C37.8508 66.3984 38.2948 66.7095 38.7837 66.9219C39.2725 67.1342 39.7966 67.2435 40.3258 67.2435C40.8551 67.2435 41.3792 67.1342 41.868 66.9219C42.3568 66.7095 42.8008 66.3984 43.1746 66.0062C43.8835 65.2709 44.297 64.2798 44.3302 63.2359C45.3244 63.1964 46.268 62.7664 46.9728 62.0314C47.6776 61.2965 48.0918 60.3106 48.133 59.2702C49.1275 59.2245 50.0696 58.7905 50.7735 58.0539C51.4774 57.3172 51.8921 56.3313 51.9358 55.2906C52.7148 55.2517 53.4661 54.9768 54.0984 54.4992C54.7307 54.0215 55.2167 53.3619 55.4972 52.6004C55.7777 51.839 55.8406 51.0086 55.6783 50.2104C55.516 49.4122 55.1355 48.6806 54.583 48.1046L53.1586 46.614L57.9021 41.6499ZM11.3411 36.6718L22.7496 24.7468L24.6443 26.7296L13.2493 38.6687L11.3411 36.6718ZM15.144 40.6515L27.1033 28.1359H31.699L42.2205 39.1609C42.3481 39.2892 42.4495 39.4432 42.5188 39.6135C42.5881 39.7839 42.6239 39.9671 42.6239 40.1523C42.6239 40.3374 42.5881 40.5207 42.5188 40.691C42.4495 40.8614 42.3481 41.0153 42.2205 41.1437C41.9664 41.4009 41.6267 41.5447 41.2732 41.5447C40.9196 41.5447 40.5799 41.4009 40.3258 41.1437L34.6283 35.1812C34.3699 34.9272 34.0288 34.7858 33.6743 34.7858C33.3198 34.7858 32.9786 34.9272 32.7202 35.1812C31.9534 35.9493 30.9329 36.378 29.8715 36.378C28.81 36.378 27.7895 35.9493 27.0227 35.1812L25.128 37.164C25.6159 37.6655 26.1731 38.0874 26.7808 38.4156L19.9008 45.6296L15.144 40.6515ZM35.569 58.0468C35.0751 58.5724 34.7211 59.2239 34.542 59.9367C34.3629 60.6496 34.3648 61.3991 34.5477 62.1109L34.1446 62.5187C34.0203 62.6508 33.8716 62.7551 33.7076 62.8252C33.5436 62.8953 33.3677 62.9298 33.1905 62.9265C33.0154 62.9296 32.8415 62.895 32.6797 62.8249C32.5179 62.7547 32.3716 62.6505 32.2499 62.5187C31.9996 62.2589 31.8577 61.9061 31.8552 61.5372C31.8527 61.1683 31.9898 60.8134 32.2365 60.5499C32.24 60.5499 32.2434 60.5484 32.246 60.5458C32.2485 60.5432 32.2499 60.5396 32.2499 60.5359L36.0527 56.5702V56.5562L34.1446 54.5734L30.3418 58.5531C30.3283 58.5531 30.3283 58.5531 30.3283 58.5671C30.0705 58.8127 29.7337 58.9476 29.3851 58.945C29.0364 58.9424 28.7016 58.8024 28.4471 58.5531C28.1973 58.2865 28.0573 57.928 28.0573 57.5546C28.0573 57.1812 28.1973 56.8228 28.4471 56.5562L32.2499 52.5765L30.3552 50.5937L26.5524 54.5734C26.4271 54.7045 26.2784 54.8085 26.1147 54.8794C25.951 54.9504 25.7755 54.9869 25.5983 54.9869C25.4211 54.9869 25.2457 54.9504 25.082 54.8794C24.9183 54.8085 24.7696 54.7045 24.6443 54.5734C24.519 54.4422 24.4196 54.2866 24.3518 54.1153C24.284 53.944 24.2491 53.7604 24.2491 53.5749C24.2491 53.3895 24.284 53.2059 24.3518 53.0346C24.4196 52.8633 24.519 52.7076 24.6443 52.5765L28.4471 48.6109L26.5524 46.614L22.7496 50.5937C22.4927 50.8509 22.151 50.9944 21.7955 50.9944C21.44 50.9944 21.0983 50.8509 20.8415 50.5937C20.5912 50.3302 20.4507 49.9738 20.4507 49.6023C20.4507 49.2308 20.5912 48.8743 20.8415 48.6109L29.8043 39.2171C29.8311 39.2171 29.8446 39.2312 29.8715 39.2312C31.191 39.2358 32.482 38.8295 33.5802 38.064L38.4311 43.1406C39.1994 43.9057 40.2193 44.3325 41.2799 44.3325C42.3405 44.3325 43.3604 43.9057 44.1286 43.1406C44.8701 42.3643 45.2933 41.3161 45.3084 40.2186C45.3234 39.1211 44.9292 38.0607 44.2093 37.2624L51.264 44.6312L50.8608 45.039C50.1795 44.8492 49.4626 44.8493 48.7813 45.0393C48.1001 45.2293 47.4782 45.6024 46.9774 46.1218C46.2711 46.8532 45.8579 47.8389 45.8218 48.8781C44.8204 48.9239 43.8724 49.3636 43.1673 50.1092C42.4623 50.8549 42.0522 51.8515 42.019 52.8999C41.0254 52.9268 40.079 53.349 39.3724 54.0805C38.6659 54.8121 38.2524 55.798 38.2161 56.8374C37.2226 56.8905 36.2816 57.3204 35.569 58.0468ZM41.2799 64.0234C41.0215 64.2774 40.6803 64.4188 40.3258 64.4188C39.9713 64.4188 39.6301 64.2774 39.3718 64.0234L37.4771 62.0265C37.3364 61.9004 37.2222 61.7453 37.1415 61.5708C37.0609 61.3964 37.0155 61.2063 37.0084 61.0127C37.0012 60.819 37.0324 60.6259 37.1 60.4454C37.1675 60.265 37.27 60.1011 37.401 59.964C37.5319 59.827 37.6885 59.7197 37.861 59.649C38.0334 59.5783 38.2179 59.5457 38.403 59.5532C38.5881 59.5607 38.7696 59.6081 38.9363 59.6925C39.1031 59.7769 39.2513 59.8965 39.3718 60.0437L41.2799 62.0265C41.5316 62.292 41.6729 62.6509 41.6729 63.0249C41.6729 63.399 41.5316 63.7579 41.2799 64.0234ZM45.0827 60.0437C44.829 60.3071 44.4861 60.455 44.1286 60.455C43.7712 60.455 43.4283 60.3071 43.1746 60.0437L41.2799 58.0468C41.0296 57.7833 40.8891 57.4269 40.8891 57.0554C40.8891 56.6839 41.0296 56.3275 41.2799 56.064C41.5317 55.8021 41.8722 55.6551 42.2272 55.6551C42.5822 55.6551 42.9228 55.8021 43.1746 56.064L45.0827 58.0468C45.3325 58.3134 45.4725 58.6719 45.4725 59.0452C45.4725 59.4186 45.3325 59.7771 45.0827 60.0437ZM48.8721 56.064C48.618 56.3212 48.2783 56.465 47.9247 56.465C47.5712 56.465 47.2315 56.3212 46.9774 56.064L45.0827 54.0671C44.9549 53.9405 44.8532 53.7878 44.7839 53.6185C44.7146 53.4493 44.6791 53.2669 44.6796 53.0827C44.682 52.7106 44.8244 52.3544 45.0759 52.0912C45.3273 51.8281 45.6677 51.6791 46.0233 51.6765C46.3798 51.678 46.7219 51.8242 46.9774 52.0843L48.8721 54.0812C49.1224 54.3447 49.2628 54.7011 49.2628 55.0726C49.2628 55.4441 49.1224 55.8005 48.8721 56.064ZM52.6749 52.0843C52.4231 52.3462 52.0825 52.4932 51.7275 52.4932C51.3725 52.4932 51.032 52.3462 50.7802 52.0843L48.8721 50.1015C48.6203 49.836 48.4791 49.4771 48.4791 49.1031C48.4791 48.729 48.6203 48.3701 48.8721 48.1046C49.129 47.8467 49.4701 47.7009 49.8261 47.6968C50.1826 47.6983 50.5247 47.8445 50.7802 48.1046L52.6749 50.1015C52.8024 50.2298 52.9039 50.3838 52.9732 50.5541C53.0425 50.7245 53.0782 50.9077 53.0782 51.0929C53.0782 51.2781 53.0425 51.4613 52.9732 51.6317C52.9039 51.802 52.8024 51.956 52.6749 52.0843ZM41.7502 30.7093L43.6583 28.7124L55.0533 40.6515L53.1586 42.6343L41.7502 30.7093ZM28.2186 74.5421H41.6561V77.3546H28.2186V74.5421ZM10.7499 60.4796H21.4999V63.2921H10.7499V60.4796ZM10.7499 66.1046H24.1874V68.9171H10.7499V66.1046ZM10.7499 54.8546H18.8124V57.6671H10.7499V54.8546Z"/>
</mask>
<path d="M10.7499 9.85461H13.4374V12.6671H10.7499V9.85461ZM16.1249 9.85461H24.1874V12.6671H16.1249V9.85461ZM10.7499 15.4796H24.1874V18.2921H10.7499V15.4796ZM81.794 39.5687C80.5329 38.2522 78.8244 37.5128 77.0431 37.5128C75.2619 37.5128 73.5534 38.2522 72.2923 39.5687L48.5375 64.4284C48.3504 64.6244 48.2227 64.8739 48.1706 65.1456L47.2999 69.7004L44.7374 72.3821C44.358 72.7726 44.0562 73.2379 43.8495 73.7511C43.6428 74.2643 43.5353 74.8152 43.533 75.3721C43.5308 75.929 43.6339 76.4808 43.8365 76.9958C44.0391 77.5108 44.3371 77.9787 44.7134 78.3725C45.0896 78.7664 45.5367 79.0783 46.0287 79.2905C46.5207 79.5026 47.048 79.6107 47.5802 79.6085C48.1123 79.6063 48.6388 79.4938 49.1292 79.2776C49.6196 79.0614 50.0643 78.7458 50.4375 78.3488L53.0014 75.6671L57.3538 74.7559C57.6136 74.701 57.852 74.5669 58.0391 74.3706L81.794 49.5109C83.0516 48.1912 83.7578 46.4035 83.7578 44.5398C83.7578 42.676 83.0516 40.8883 81.794 39.5687ZM49.9968 69.9324L50.6297 66.6165L55.9469 72.181L52.7797 72.8448L49.9968 69.9324ZM52.3376 64.4284L68.4908 47.5224L70.3922 49.5109L54.239 66.4168L52.3376 64.4284ZM56.1391 68.4052L72.2936 51.5007L74.1937 53.4906L58.0391 70.3937L56.1391 68.4052ZM70.3922 45.534L71.3423 44.5398L77.0438 50.5065L76.0924 51.5021L70.3922 45.534ZM48.5361 76.3604C48.2804 76.616 47.9404 76.7586 47.5868 76.7586C47.2332 76.7586 46.8932 76.616 46.6374 76.3604C46.5125 76.2298 46.4134 76.0747 46.3457 75.904C46.2781 75.7333 46.2433 75.5503 46.2433 75.3655C46.2433 75.1807 46.2781 74.9977 46.3457 74.827C46.4134 74.6562 46.5125 74.5012 46.6374 74.3706L48.5375 72.3821L50.4389 74.372L48.5361 76.3604ZM79.8939 47.5238L78.9439 48.5181L73.2423 42.5513L74.1924 41.5571C74.5667 41.1653 75.0112 40.8546 75.5003 40.6425C75.9894 40.4305 76.5137 40.3214 77.0431 40.3214C77.5726 40.3214 78.0968 40.4305 78.5859 40.6425C79.0751 40.8546 79.5195 41.1653 79.8939 41.5571C80.2683 41.9489 80.5652 42.414 80.7678 42.9259C80.9704 43.4378 81.0747 43.9864 81.0747 44.5405C81.0747 45.0945 80.9704 45.6432 80.7678 46.1551C80.5652 46.6669 80.2683 47.132 79.8939 47.5238ZM57.9021 41.6499C58.1538 41.3844 58.2951 41.0255 58.2951 40.6515C58.2951 40.2774 58.1538 39.9186 57.9021 39.6531L44.599 25.7312C44.3417 25.4803 44.0032 25.3408 43.6516 25.3408C43.3 25.3408 42.9615 25.4803 42.7043 25.7312L39.1836 29.4156L37.1277 29.8374L33.204 25.7312C32.9477 25.4722 32.6061 25.3261 32.2499 25.3234H27.1033L23.7036 21.7515C23.4499 21.488 23.107 21.3402 22.7496 21.3402C22.3922 21.3402 22.0492 21.488 21.7955 21.7515L8.49239 35.6734C8.24064 35.9389 8.09937 36.2978 8.09937 36.6718C8.09937 37.0458 8.24064 37.4047 8.49239 37.6702L18.1674 47.7952C17.8775 48.4193 17.7407 49.1091 17.7692 49.8024C17.7977 50.4956 17.9906 51.1706 18.3306 51.7663C18.6705 52.3621 19.1468 52.8599 19.7166 53.215C20.2863 53.57 20.9315 53.771 21.594 53.7999C21.63 54.8391 22.0433 55.8248 22.7496 56.5562C23.4508 57.2937 24.3903 57.7301 25.3833 57.7796C25.4331 58.8183 25.8497 59.8006 26.5523 60.5359C27.255 61.2713 28.1937 61.7073 29.1861 61.7593C29.2296 62.5712 29.4964 63.3526 29.9544 64.0095C30.4123 64.6665 31.0419 65.1709 31.7674 65.4621C32.4929 65.7533 33.2833 65.8189 34.0436 65.651C34.8039 65.483 35.5016 65.0887 36.0527 64.5155L37.4771 66.0062C37.8508 66.3984 38.2948 66.7095 38.7837 66.9219C39.2725 67.1342 39.7966 67.2435 40.3258 67.2435C40.8551 67.2435 41.3792 67.1342 41.868 66.9219C42.3568 66.7095 42.8008 66.3984 43.1746 66.0062C43.8835 65.2709 44.297 64.2798 44.3302 63.2359C45.3244 63.1964 46.268 62.7664 46.9728 62.0314C47.6776 61.2965 48.0918 60.3106 48.133 59.2702C49.1275 59.2245 50.0696 58.7905 50.7735 58.0539C51.4774 57.3172 51.8921 56.3313 51.9358 55.2906C52.7148 55.2517 53.4661 54.9768 54.0984 54.4992C54.7307 54.0215 55.2167 53.3619 55.4972 52.6004C55.7777 51.839 55.8406 51.0086 55.6783 50.2104C55.516 49.4122 55.1355 48.6806 54.583 48.1046L53.1586 46.614L57.9021 41.6499ZM11.3411 36.6718L22.7496 24.7468L24.6443 26.7296L13.2493 38.6687L11.3411 36.6718ZM15.144 40.6515L27.1033 28.1359H31.699L42.2205 39.1609C42.3481 39.2892 42.4495 39.4432 42.5188 39.6135C42.5881 39.7839 42.6239 39.9671 42.6239 40.1523C42.6239 40.3374 42.5881 40.5207 42.5188 40.691C42.4495 40.8614 42.3481 41.0153 42.2205 41.1437C41.9664 41.4009 41.6267 41.5447 41.2732 41.5447C40.9196 41.5447 40.5799 41.4009 40.3258 41.1437L34.6283 35.1812C34.3699 34.9272 34.0288 34.7858 33.6743 34.7858C33.3198 34.7858 32.9786 34.9272 32.7202 35.1812C31.9534 35.9493 30.9329 36.378 29.8715 36.378C28.81 36.378 27.7895 35.9493 27.0227 35.1812L25.128 37.164C25.6159 37.6655 26.1731 38.0874 26.7808 38.4156L19.9008 45.6296L15.144 40.6515ZM35.569 58.0468C35.0751 58.5724 34.7211 59.2239 34.542 59.9367C34.3629 60.6496 34.3648 61.3991 34.5477 62.1109L34.1446 62.5187C34.0203 62.6508 33.8716 62.7551 33.7076 62.8252C33.5436 62.8953 33.3677 62.9298 33.1905 62.9265C33.0154 62.9296 32.8415 62.895 32.6797 62.8249C32.5179 62.7547 32.3716 62.6505 32.2499 62.5187C31.9996 62.2589 31.8577 61.9061 31.8552 61.5372C31.8527 61.1683 31.9898 60.8134 32.2365 60.5499C32.24 60.5499 32.2434 60.5484 32.246 60.5458C32.2485 60.5432 32.2499 60.5396 32.2499 60.5359L36.0527 56.5702V56.5562L34.1446 54.5734L30.3418 58.5531C30.3283 58.5531 30.3283 58.5531 30.3283 58.5671C30.0705 58.8127 29.7337 58.9476 29.3851 58.945C29.0364 58.9424 28.7016 58.8024 28.4471 58.5531C28.1973 58.2865 28.0573 57.928 28.0573 57.5546C28.0573 57.1812 28.1973 56.8228 28.4471 56.5562L32.2499 52.5765L30.3552 50.5937L26.5524 54.5734C26.4271 54.7045 26.2784 54.8085 26.1147 54.8794C25.951 54.9504 25.7755 54.9869 25.5983 54.9869C25.4211 54.9869 25.2457 54.9504 25.082 54.8794C24.9183 54.8085 24.7696 54.7045 24.6443 54.5734C24.519 54.4422 24.4196 54.2866 24.3518 54.1153C24.284 53.944 24.2491 53.7604 24.2491 53.5749C24.2491 53.3895 24.284 53.2059 24.3518 53.0346C24.4196 52.8633 24.519 52.7076 24.6443 52.5765L28.4471 48.6109L26.5524 46.614L22.7496 50.5937C22.4927 50.8509 22.151 50.9944 21.7955 50.9944C21.44 50.9944 21.0983 50.8509 20.8415 50.5937C20.5912 50.3302 20.4507 49.9738 20.4507 49.6023C20.4507 49.2308 20.5912 48.8743 20.8415 48.6109L29.8043 39.2171C29.8311 39.2171 29.8446 39.2312 29.8715 39.2312C31.191 39.2358 32.482 38.8295 33.5802 38.064L38.4311 43.1406C39.1994 43.9057 40.2193 44.3325 41.2799 44.3325C42.3405 44.3325 43.3604 43.9057 44.1286 43.1406C44.8701 42.3643 45.2933 41.3161 45.3084 40.2186C45.3234 39.1211 44.9292 38.0607 44.2093 37.2624L51.264 44.6312L50.8608 45.039C50.1795 44.8492 49.4626 44.8493 48.7813 45.0393C48.1001 45.2293 47.4782 45.6024 46.9774 46.1218C46.2711 46.8532 45.8579 47.8389 45.8218 48.8781C44.8204 48.9239 43.8724 49.3636 43.1673 50.1092C42.4623 50.8549 42.0522 51.8515 42.019 52.8999C41.0254 52.9268 40.079 53.349 39.3724 54.0805C38.6659 54.8121 38.2524 55.798 38.2161 56.8374C37.2226 56.8905 36.2816 57.3204 35.569 58.0468ZM41.2799 64.0234C41.0215 64.2774 40.6803 64.4188 40.3258 64.4188C39.9713 64.4188 39.6301 64.2774 39.3718 64.0234L37.4771 62.0265C37.3364 61.9004 37.2222 61.7453 37.1415 61.5708C37.0609 61.3964 37.0155 61.2063 37.0084 61.0127C37.0012 60.819 37.0324 60.6259 37.1 60.4454C37.1675 60.265 37.27 60.1011 37.401 59.964C37.5319 59.827 37.6885 59.7197 37.861 59.649C38.0334 59.5783 38.2179 59.5457 38.403 59.5532C38.5881 59.5607 38.7696 59.6081 38.9363 59.6925C39.1031 59.7769 39.2513 59.8965 39.3718 60.0437L41.2799 62.0265C41.5316 62.292 41.6729 62.6509 41.6729 63.0249C41.6729 63.399 41.5316 63.7579 41.2799 64.0234ZM45.0827 60.0437C44.829 60.3071 44.4861 60.455 44.1286 60.455C43.7712 60.455 43.4283 60.3071 43.1746 60.0437L41.2799 58.0468C41.0296 57.7833 40.8891 57.4269 40.8891 57.0554C40.8891 56.6839 41.0296 56.3275 41.2799 56.064C41.5317 55.8021 41.8722 55.6551 42.2272 55.6551C42.5822 55.6551 42.9228 55.8021 43.1746 56.064L45.0827 58.0468C45.3325 58.3134 45.4725 58.6719 45.4725 59.0452C45.4725 59.4186 45.3325 59.7771 45.0827 60.0437ZM48.8721 56.064C48.618 56.3212 48.2783 56.465 47.9247 56.465C47.5712 56.465 47.2315 56.3212 46.9774 56.064L45.0827 54.0671C44.9549 53.9405 44.8532 53.7878 44.7839 53.6185C44.7146 53.4493 44.6791 53.2669 44.6796 53.0827C44.682 52.7106 44.8244 52.3544 45.0759 52.0912C45.3273 51.8281 45.6677 51.6791 46.0233 51.6765C46.3798 51.678 46.7219 51.8242 46.9774 52.0843L48.8721 54.0812C49.1224 54.3447 49.2628 54.7011 49.2628 55.0726C49.2628 55.4441 49.1224 55.8005 48.8721 56.064ZM52.6749 52.0843C52.4231 52.3462 52.0825 52.4932 51.7275 52.4932C51.3725 52.4932 51.032 52.3462 50.7802 52.0843L48.8721 50.1015C48.6203 49.836 48.4791 49.4771 48.4791 49.1031C48.4791 48.729 48.6203 48.3701 48.8721 48.1046C49.129 47.8467 49.4701 47.7009 49.8261 47.6968C50.1826 47.6983 50.5247 47.8445 50.7802 48.1046L52.6749 50.1015C52.8024 50.2298 52.9039 50.3838 52.9732 50.5541C53.0425 50.7245 53.0782 50.9077 53.0782 51.0929C53.0782 51.2781 53.0425 51.4613 52.9732 51.6317C52.9039 51.802 52.8024 51.956 52.6749 52.0843ZM41.7502 30.7093L43.6583 28.7124L55.0533 40.6515L53.1586 42.6343L41.7502 30.7093ZM28.2186 74.5421H41.6561V77.3546H28.2186V74.5421ZM10.7499 60.4796H21.4999V63.2921H10.7499V60.4796ZM10.7499 66.1046H24.1874V68.9171H10.7499V66.1046ZM10.7499 54.8546H18.8124V57.6671H10.7499V54.8546Z" fill="#1C8CD6" stroke="#1C8CD6" stroke-width="2" mask="url(#path-2-inside-1_380_1033)"/>
</svg>
