<svg width="103" height="103" viewBox="0 0 103 103" fill="none" xmlns="http://www.w3.org/2000/svg">
<path d="M71.1055 41.1293L66.3514 33.7262C64.5216 30.8807 63.5494 27.5688 63.5511 24.1858V17.4554H54.7188V8.24976H48.2813V17.4554H39.4265V24.1922C39.4277 27.5747 38.4568 30.8862 36.6295 33.7326L31.8657 41.1293C29.5742 44.679 28.25 48.7659 28.0242 52.985C27.7983 57.2041 28.6788 61.4089 30.5782 65.183C32.3148 68.7781 34.9603 71.8572 38.2529 74.1155C41.5454 76.3737 45.3707 77.7327 49.35 78.058C50.0516 78.1159 50.763 78.1417 51.484 78.1417C52.205 78.1417 52.9099 78.1159 53.618 78.058C57.5968 77.7325 61.4216 76.3734 64.7135 74.1151C68.0055 71.8569 70.6505 68.7778 72.3865 65.183C74.2869 61.4095 75.1684 57.2049 74.9437 52.9858C74.719 48.7668 73.3959 44.6796 71.1055 41.1293ZM66.6282 62.3312C65.4007 64.9429 63.5029 67.1826 61.1282 68.8223C58.7535 70.462 55.9867 71.4431 53.1095 71.6656C52.0382 71.7505 50.9619 71.7505 49.8907 71.6656C47.0135 71.4431 44.2467 70.462 41.8719 68.8223C39.4972 67.1826 37.5995 64.9429 36.372 62.3312C34.9713 59.5519 34.321 56.455 34.4852 53.3471C34.6495 50.2392 35.6228 47.2281 37.3086 44.612L42.0627 37.2089C44.5595 33.3256 45.8858 28.8057 45.8834 24.189V23.8929H57.1329V24.1922C57.1306 28.8093 58.4582 33.3294 60.9568 37.2121L65.7044 44.6152C67.3889 47.2316 68.3602 50.2428 68.5223 53.3503C68.6843 56.4579 68.0314 59.5538 66.6282 62.3312Z" fill="#1C8CD6"/>
<path d="M54.709 29.9924H48.2715V45.5229H54.709V29.9924Z" fill="#1C8CD6"/>
<path d="M91.5478 51.4807H80.7424V57.9182H91.5478V51.4807Z" fill="#1C8CD6"/>
<path d="M74.4539 73.0999L69.9019 77.6519L77.5424 85.2924L82.0944 80.7404L74.4539 73.0999Z" fill="#1C8CD6"/>
<path d="M54.7188 83.9419H48.2812V94.7472H54.7188V83.9419Z" fill="#1C8CD6"/>
<path d="M28.5397 73.1031L20.8992 80.7437L25.4512 85.2957L33.0917 77.6551L28.5397 73.1031Z" fill="#1C8CD6"/>
<path d="M22.2545 51.4807H11.4524V57.9182H22.2545V51.4807Z" fill="#1C8CD6"/>
</svg>
