<svg width="77" height="77" viewBox="0 0 77 77" fill="none" xmlns="http://www.w3.org/2000/svg">
<path d="M69.8249 60.97C69.7226 58.3318 68.8763 55.7763 67.3838 53.5985C65.8913 51.4206 63.8134 49.7092 61.3899 48.6617L49.9682 44.0767L47.9966 40.8333V38.9433C49.3032 37.4994 50.3316 35.8263 51.0299 34.0083C51.4687 32.7235 51.8004 31.4046 52.0216 30.065H52.2782H52.4999C53.0103 30.0589 53.5047 29.8856 53.9072 29.5716C54.3097 29.2576 54.5981 28.8203 54.7282 28.3267H54.8332L55.9999 28.455H56.1632C56.5911 28.4666 57.0076 28.3166 57.3299 28.035C57.6693 27.7213 57.8812 27.2935 57.9249 26.8333L58.3332 21.9567C58.3792 21.4765 58.2352 20.9975 57.932 20.6223C57.6288 20.2472 57.1907 20.0058 56.7116 19.95L55.5449 19.8333H55.4749C55.3968 19.4759 55.2357 19.1418 55.0047 18.8581C54.7737 18.5743 54.4791 18.3489 54.1449 18.2V18.0367C55.4282 12.8333 53.6666 9.96334 51.3332 6.33501C48.8249 2.19334 41.8366 0.350008 33.1682 1.50501C32.1336 1.56218 31.1206 1.82356 30.1875 2.27409C29.2544 2.72461 28.4197 3.35538 27.7316 4.13001C27.3289 4.65766 27.0462 5.26683 26.9032 5.91501C25.9452 6.05514 25.0662 6.52557 24.4182 7.24501C22.0849 9.82334 22.1782 15.3417 22.6449 18.3167C22.3695 18.4813 22.131 18.7009 21.9443 18.9619C21.7576 19.2229 21.6268 19.5195 21.5599 19.8333H21.4666L20.2999 19.95C19.8199 20.0059 19.3807 20.2468 19.0756 20.6216C18.7706 20.9963 18.6238 21.4753 18.6666 21.9567L19.1099 26.8333C19.1401 27.081 19.2197 27.3202 19.344 27.5366C19.4682 27.753 19.6346 27.9423 19.8332 28.0933C20.1584 28.3688 20.5739 28.5142 20.9999 28.5017H21.1749L22.3416 28.385C22.4633 28.8449 22.7291 29.2537 23.0999 29.5517C23.4933 29.8839 23.9855 30.0767 24.4999 30.1H24.7099H24.8966C25.108 31.4378 25.4399 32.7537 25.8882 34.0317C26.582 35.8553 27.6108 37.533 28.9216 38.9783V40.8333L26.8332 44.135L15.9716 48.5217C13.4491 49.6202 11.2866 51.4062 9.73102 53.6756C8.17548 55.9449 7.2897 58.6061 7.1749 61.355L6.6499 74.6667C6.6499 74.9761 6.77282 75.2728 6.99161 75.4916C7.2104 75.7104 7.50715 75.8333 7.81657 75.8333H69.1832C69.4927 75.8333 69.7894 75.7104 70.0082 75.4916C70.227 75.2728 70.3499 74.9761 70.3499 74.6667L69.8249 60.97ZM37.5432 46.83C35.3849 45.0567 33.0632 43.0033 31.9432 41.8367C33.7725 43.2632 36.0205 44.0476 38.3401 44.0687C40.6597 44.0897 42.9217 43.3464 44.7766 41.9533C43.6099 43.12 41.2766 45.1267 39.1649 46.83H37.5432ZM41.4866 47.9967C43.34 46.5526 45.1012 44.994 46.7599 43.33L47.9266 45.1617L45.0332 51.8583C44.0094 50.4272 42.8188 49.123 41.4866 47.9733V47.9967ZM52.4999 27.7667L51.4732 27.6967L52.1382 20.23H52.4532H52.4999H53.1766L52.4999 27.7667ZM55.9999 22.225L55.6732 26.1217L55.1482 26.0633H55.0082L55.3349 22.1667L55.9999 22.225ZM26.1216 8.83167C26.3335 8.58544 26.6033 8.39576 26.9068 8.27968C27.2102 8.1636 27.5377 8.12477 27.8599 8.16667C28.0336 8.18267 28.2086 8.15954 28.3721 8.09897C28.5357 8.0384 28.6836 7.94193 28.8049 7.81667C28.9275 7.70026 29.0234 7.55858 29.0858 7.40146C29.1483 7.24433 29.1758 7.0755 29.1666 6.90667C29.1666 6.66167 29.0499 4.42167 33.5066 3.82667C41.1482 2.80001 47.4016 4.27001 49.4432 7.56001C51.4849 10.85 52.9432 13.2417 51.9049 17.4767C51.9049 17.6283 51.8466 17.78 51.8116 17.9317C51.2933 18.0102 50.8166 18.2608 50.4582 18.6433C50.1871 17.3722 49.7641 16.1384 49.1982 14.9683C47.1799 11.2117 44.1582 11.3167 41.9416 11.3983H41.4049C40.6823 11.4309 39.9619 11.501 39.2466 11.6083C36.9132 11.9233 33.7282 12.3433 30.6482 11.0483C30.4709 10.9742 30.278 10.9449 30.0867 10.9632C29.8954 10.9816 29.7116 11.0469 29.5516 11.1533C27.3012 12.7644 25.7559 15.1785 25.2349 17.8967H24.9782C24.4999 14.9917 24.5699 10.5 26.1216 8.83167ZM21.3966 26.1217L21.0699 22.225L21.6182 22.1667L21.9799 26.075C21.9373 26.0691 21.8941 26.0691 21.8516 26.075L21.3966 26.1217ZM24.4999 27.7667L23.7882 20.3233L24.8266 20.2067L25.5499 27.6733L24.4999 27.7667ZM27.1249 29.3767L27.3232 29.1783C27.7138 28.7054 27.9024 28.0976 27.8482 27.4867L27.2999 21.5017C27.2999 20.6617 27.3699 19.81 27.4049 19.0283C27.4968 17.9539 27.8033 16.9088 28.3063 15.9549C28.8093 15.001 29.4985 14.1578 30.3332 13.475C33.3001 14.3858 36.4459 14.5501 39.4916 13.9533C40.2499 13.8483 40.9032 13.7667 41.4049 13.7433H41.9999C44.1232 13.6733 45.7916 13.6033 47.1216 16.0767C48.2882 18.2933 49.0349 23.5667 49.2332 26.4483L49.1399 27.4983C49.0936 27.9422 49.1831 28.3897 49.3966 28.7817C49.3477 28.8746 49.3086 28.9723 49.2799 29.0733C48.5449 32.13 44.0299 33.9967 41.4282 34.7317C41.108 34.14 40.5937 33.6767 39.972 33.4196C39.3502 33.1625 38.6589 33.1273 38.0143 33.32C37.3697 33.5127 36.8111 33.9215 36.4324 34.4776C36.0538 35.0337 35.8782 35.7033 35.9352 36.3737C35.9922 37.0441 36.2782 37.6744 36.7453 38.1586C37.2124 38.6429 37.832 38.9515 38.4999 39.0326C39.1678 39.1138 39.8432 38.9624 40.4127 38.6041C40.9821 38.2457 41.4107 37.7023 41.6266 37.065C44.1469 36.4504 46.5241 35.3529 48.6266 33.8333C47.4753 36.1851 45.8036 38.2439 43.7382 39.8533C42.2667 41.0469 40.4296 41.6983 38.5349 41.6983C36.6402 41.6983 34.8031 41.0469 33.3316 39.8533C31.0599 38.1092 29.2792 35.806 28.1632 33.1683C27.7047 31.9397 27.3649 30.67 27.1482 29.3767H27.1249ZM39.4332 36.1667C39.4332 36.2844 39.3983 36.3994 39.333 36.4972C39.2676 36.5951 39.1747 36.6713 39.0659 36.7164C38.9572 36.7614 38.8376 36.7732 38.7222 36.7502C38.6067 36.7273 38.5007 36.6706 38.4175 36.5874C38.3343 36.5042 38.2776 36.3982 38.2547 36.2828C38.2317 36.1673 38.2435 36.0477 38.2885 35.939C38.3336 35.8303 38.4098 35.7373 38.5077 35.6719C38.6055 35.6066 38.7206 35.5717 38.8382 35.5717C38.996 35.5717 39.1474 35.6344 39.259 35.7459C39.3705 35.8575 39.4332 36.0089 39.4332 36.1667ZM30.0999 43.3067C31.6846 44.9227 33.372 46.4348 35.1516 47.8333C33.8219 48.8247 32.643 50.0037 31.6516 51.3333L28.9099 45.1033L30.0999 43.3067ZM9.4849 61.4717C9.56755 58.9352 10.4404 56.4879 11.9816 54.4717C13.2512 52.8029 14.9257 51.4858 16.8466 50.645L26.9849 46.5383L29.8549 53.0367C29.9252 53.3565 30.0856 53.6495 30.3172 53.881C30.5487 54.1126 30.8417 54.273 31.1616 54.3433C31.2896 54.3549 31.4185 54.3549 31.5466 54.3433C31.8508 54.3427 32.1497 54.2627 32.4136 54.1113C32.6775 53.9599 32.8974 53.7423 33.0516 53.48C33.3967 52.9313 33.7869 52.4123 34.2182 51.9283L35.8516 53.7133L33.8332 73.5H9.0299L9.4849 61.4717ZM36.1666 73.5L38.1149 53.4917C38.1316 53.3299 38.1143 53.1664 38.064 53.0117C38.0138 52.857 37.9318 52.7145 37.8232 52.5933L35.8166 50.3533C36.3121 49.9364 36.8301 49.5469 37.3682 49.1867H39.2816C39.5849 49.4317 40.0749 49.84 40.6349 50.3533L38.8616 52.605C38.674 52.8426 38.5862 53.1438 38.6166 53.445L40.6349 73.5H36.1666ZM42.9332 73.5L40.9849 53.6667L42.2566 52.0567C42.7728 52.6732 43.2408 53.3284 43.6566 54.0167C43.8074 54.2828 44.0263 54.504 44.2907 54.6577C44.5552 54.8115 44.8557 54.8922 45.1616 54.8917C45.2757 54.8812 45.3888 54.8617 45.4999 54.8333C45.8212 54.7621 46.1153 54.6 46.347 54.3662C46.5787 54.1325 46.7382 53.837 46.8066 53.515L49.7466 46.515L60.4449 50.8083C62.2356 51.5784 63.8071 52.781 65.0182 54.3083C66.5031 56.2298 67.3515 58.5668 67.4449 60.9933L67.9699 73.5H42.9332Z" fill="white"/>
</svg>
