<svg width="65" height="75" viewBox="0 0 65 75" fill="none" xmlns="http://www.w3.org/2000/svg">
<path d="M63.8249 59.97C63.7226 57.3318 62.8763 54.7763 61.3838 52.5985C59.8913 50.4206 57.8134 48.7092 55.3899 47.6617L43.9682 43.0767L41.9966 39.8333V37.9433C43.3032 36.4994 44.3316 34.8263 45.0299 33.0083C45.4687 31.7235 45.8004 30.4046 46.0216 29.065H46.2782H46.4999C47.0103 29.0589 47.5047 28.8856 47.9072 28.5716C48.3097 28.2576 48.5981 27.8203 48.7282 27.3267H48.8332L49.9999 27.455H50.1632C50.5911 27.4666 51.0076 27.3166 51.3299 27.035C51.6693 26.7213 51.8812 26.2935 51.9249 25.8333L52.3332 20.9567C52.3792 20.4765 52.2352 19.9975 51.932 19.6223C51.6288 19.2472 51.1907 19.0058 50.7116 18.95L49.5449 18.8333H49.4749C49.3968 18.4759 49.2357 18.1418 49.0047 17.8581C48.7737 17.5743 48.4791 17.3489 48.1449 17.2V17.0367C49.4282 11.8333 47.6666 8.96334 45.3332 5.33501C42.8249 1.19334 35.8366 -0.649992 27.1682 0.505008C26.1336 0.562178 25.1206 0.823561 24.1875 1.27409C23.2544 1.72461 22.4197 2.35538 21.7316 3.13001C21.3289 3.65766 21.0462 4.26683 20.9032 4.91501C19.9452 5.05514 19.0662 5.52557 18.4182 6.24501C16.0849 8.82334 16.1782 14.3417 16.6449 17.3167C16.3695 17.4813 16.131 17.7009 15.9443 17.9619C15.7576 18.2229 15.6268 18.5195 15.5599 18.8333H15.4666L14.2999 18.95C13.8199 19.0059 13.3807 19.2468 13.0756 19.6216C12.7706 19.9963 12.6238 20.4753 12.6666 20.9567L13.1099 25.8333C13.1401 26.081 13.2197 26.3202 13.344 26.5366C13.4682 26.753 13.6346 26.9423 13.8332 27.0933C14.1584 27.3688 14.5739 27.5142 14.9999 27.5017H15.1749L16.3416 27.385C16.4633 27.8449 16.7291 28.2537 17.0999 28.5517C17.4933 28.8839 17.9855 29.0767 18.4999 29.1H18.7099H18.8966C19.108 30.4378 19.4399 31.7537 19.8882 33.0317C20.582 34.8553 21.6108 36.533 22.9216 37.9783V39.8333L20.8332 43.135L9.97157 47.5217C7.44911 48.6202 5.28655 50.4062 3.73102 52.6756C2.17548 54.9449 1.2897 57.6061 1.1749 60.355L0.649902 73.6667C0.649902 73.9761 0.772819 74.2728 0.991611 74.4916C1.2104 74.7104 1.50715 74.8333 1.81657 74.8333H63.1832C63.4927 74.8333 63.7894 74.7104 64.0082 74.4916C64.227 74.2728 64.3499 73.9761 64.3499 73.6667L63.8249 59.97ZM31.5432 45.83C29.3849 44.0567 27.0632 42.0033 25.9432 40.8367C27.7725 42.2632 30.0205 43.0476 32.3401 43.0687C34.6597 43.0897 36.9217 42.3464 38.7766 40.9533C37.6099 42.12 35.2766 44.1267 33.1649 45.83H31.5432ZM35.4866 46.9967C37.34 45.5526 39.1012 43.994 40.7599 42.33L41.9266 44.1617L39.0332 50.8583C38.0094 49.4272 36.8188 48.123 35.4866 46.9733V46.9967ZM46.4999 26.7667L45.4732 26.6967L46.1382 19.23H46.4532H46.4999H47.1766L46.4999 26.7667ZM49.9999 21.225L49.6732 25.1217L49.1482 25.0633H49.0082L49.3349 21.1667L49.9999 21.225ZM20.1216 7.83167C20.3335 7.58544 20.6033 7.39576 20.9068 7.27968C21.2102 7.1636 21.5377 7.12477 21.8599 7.16667C22.0336 7.18267 22.2086 7.15954 22.3721 7.09897C22.5357 7.0384 22.6836 6.94193 22.8049 6.81667C22.9275 6.70026 23.0234 6.55858 23.0858 6.40146C23.1483 6.24433 23.1758 6.0755 23.1666 5.90667C23.1666 5.66167 23.0499 3.42167 27.5066 2.82667C35.1482 1.80001 41.4016 3.27001 43.4432 6.56001C45.4849 9.85001 46.9432 12.2417 45.9049 16.4767C45.9049 16.6283 45.8466 16.78 45.8116 16.9317C45.2933 17.0102 44.8166 17.2608 44.4582 17.6433C44.1871 16.3722 43.7641 15.1384 43.1982 13.9683C41.1799 10.2117 38.1582 10.3167 35.9416 10.3983H35.4049C34.6823 10.4309 33.9619 10.501 33.2466 10.6083C30.9132 10.9233 27.7282 11.3433 24.6482 10.0483C24.4709 9.97416 24.278 9.94492 24.0867 9.96324C23.8954 9.98156 23.7116 10.0469 23.5516 10.1533C21.3012 11.7644 19.7559 14.1785 19.2349 16.8967H18.9782C18.4999 13.9917 18.5699 9.50001 20.1216 7.83167ZM15.3966 25.1217L15.0699 21.225L15.6182 21.1667L15.9799 25.075C15.9373 25.0691 15.8941 25.0691 15.8516 25.075L15.3966 25.1217ZM18.4999 26.7667L17.7882 19.3233L18.8266 19.2067L19.5499 26.6733L18.4999 26.7667ZM21.1249 28.3767L21.3232 28.1783C21.7138 27.7054 21.9024 27.0976 21.8482 26.4867L21.2999 20.5017C21.2999 19.6617 21.3699 18.81 21.4049 18.0283C21.4968 16.9539 21.8033 15.9088 22.3063 14.9549C22.8093 14.001 23.4985 13.1578 24.3332 12.475C27.3001 13.3858 30.4459 13.5501 33.4916 12.9533C34.2499 12.8483 34.9032 12.7667 35.4049 12.7433H35.9999C38.1232 12.6733 39.7916 12.6033 41.1216 15.0767C42.2882 17.2933 43.0349 22.5667 43.2332 25.4483L43.1399 26.4983C43.0936 26.9422 43.1831 27.3897 43.3966 27.7817C43.3477 27.8746 43.3086 27.9723 43.2799 28.0733C42.5449 31.13 38.0299 32.9967 35.4282 33.7317C35.108 33.14 34.5937 32.6767 33.972 32.4196C33.3502 32.1625 32.6589 32.1273 32.0143 32.32C31.3697 32.5127 30.8111 32.9215 30.4324 33.4776C30.0538 34.0337 29.8782 34.7033 29.9352 35.3737C29.9922 36.0441 30.2782 36.6744 30.7453 37.1586C31.2124 37.6429 31.832 37.9515 32.4999 38.0326C33.1678 38.1138 33.8432 37.9624 34.4127 37.6041C34.9821 37.2457 35.4107 36.7023 35.6266 36.065C38.1469 35.4504 40.5241 34.3529 42.6266 32.8333C41.4753 35.1851 39.8036 37.2439 37.7382 38.8533C36.2667 40.0469 34.4296 40.6983 32.5349 40.6983C30.6402 40.6983 28.8031 40.0469 27.3316 38.8533C25.0599 37.1092 23.2792 34.806 22.1632 32.1683C21.7047 30.9397 21.3649 29.67 21.1482 28.3767H21.1249ZM33.4332 35.1667C33.4332 35.2844 33.3983 35.3994 33.333 35.4972C33.2676 35.5951 33.1747 35.6713 33.0659 35.7164C32.9572 35.7614 32.8376 35.7732 32.7222 35.7502C32.6067 35.7273 32.5007 35.6706 32.4175 35.5874C32.3343 35.5042 32.2776 35.3982 32.2547 35.2828C32.2317 35.1673 32.2435 35.0477 32.2885 34.939C32.3336 34.8303 32.4098 34.7373 32.5077 34.6719C32.6055 34.6066 32.7206 34.5717 32.8382 34.5717C32.996 34.5717 33.1474 34.6344 33.259 34.7459C33.3705 34.8575 33.4332 35.0089 33.4332 35.1667ZM24.0999 42.3067C25.6846 43.9227 27.372 45.4348 29.1516 46.8333C27.8219 47.8247 26.643 49.0037 25.6516 50.3333L22.9099 44.1033L24.0999 42.3067ZM3.4849 60.4717C3.56755 57.9352 4.44042 55.4879 5.98157 53.4717C7.25117 51.8029 8.92568 50.4858 10.8466 49.645L20.9849 45.5383L23.8549 52.0367C23.9252 52.3565 24.0856 52.6495 24.3172 52.881C24.5487 53.1126 24.8417 53.273 25.1616 53.3433C25.2896 53.3549 25.4185 53.3549 25.5466 53.3433C25.8508 53.3427 26.1497 53.2627 26.4136 53.1113C26.6775 52.9599 26.8974 52.7423 27.0516 52.48C27.3967 51.9313 27.7869 51.4123 28.2182 50.9283L29.8516 52.7133L27.8332 72.5H3.0299L3.4849 60.4717ZM30.1666 72.5L32.1149 52.4917C32.1316 52.3299 32.1143 52.1664 32.064 52.0117C32.0138 51.857 31.9318 51.7145 31.8232 51.5933L29.8166 49.3533C30.3121 48.9364 30.8301 48.5469 31.3682 48.1867H33.2816C33.5849 48.4317 34.0749 48.84 34.6349 49.3533L32.8616 51.605C32.674 51.8426 32.5862 52.1438 32.6166 52.445L34.6349 72.5H30.1666ZM36.9332 72.5L34.9849 52.6667L36.2566 51.0567C36.7728 51.6732 37.2408 52.3284 37.6566 53.0167C37.8074 53.2828 38.0263 53.504 38.2907 53.6577C38.5552 53.8115 38.8557 53.8922 39.1616 53.8917C39.2757 53.8812 39.3888 53.8617 39.4999 53.8333C39.8212 53.7621 40.1153 53.6 40.347 53.3662C40.5787 53.1325 40.7382 52.837 40.8066 52.515L43.7466 45.515L54.4449 49.8083C56.2356 50.5784 57.8071 51.781 59.0182 53.3083C60.5031 55.2298 61.3515 57.5668 61.4449 59.9933L61.9699 72.5H36.9332Z" fill="#1C8CD6"/>
</svg>
