<svg width="26" height="28" viewBox="0 0 26 28" fill="none" xmlns="http://www.w3.org/2000/svg">
<mask id="mask0_775_6078" style="mask-type:alpha" maskUnits="userSpaceOnUse" x="0" y="0" width="26" height="28">
<path d="M23.4779 28H2.52206C1.40531 28 0.5 27.1046 0.5 26V2C0.5 0.895431 1.40531 0 2.52206 0H16.125L25.5 9.27273V26C25.5 27.1046 24.5947 28 23.4779 28Z" fill="url(#paint0_linear_775_6078)"/>
</mask>
<g mask="url(#mask0_775_6078)">
<path d="M23.4779 28H2.52206C1.40531 28 0.5 27.1046 0.5 26V2C0.5 0.895431 1.40531 0 2.52206 0H16.125L25.5 9.27273V26C25.5 27.1046 24.5947 28 23.4779 28Z" fill="url(#paint1_linear_775_6078)"/>
<g opacity="0.23" filter="url(#filter0_f_775_6078)">
<rect x="1.87866" y="13.5454" width="22.4265" height="7.63637" fill="#E32E06" style="mix-blend-mode:darken"/>
</g>
<path opacity="0.12" fill-rule="evenodd" clip-rule="evenodd" d="M12.9998 20.3125C16.35 20.3125 19.0659 17.5966 19.0659 14.2464C19.0659 10.8961 16.35 8.18018 12.9998 8.18018C9.64951 8.18018 6.93359 10.8961 6.93359 14.2464C6.93359 17.5966 9.64951 20.3125 12.9998 20.3125ZM12.9998 19.0861C10.3269 19.0861 8.16007 16.9192 8.16007 14.2464C8.16007 11.7928 9.98579 9.76575 12.3528 9.44953V13.5993V14.8125V14.8125H13.566V14.8125L17.8067 14.8125C17.5263 17.2186 15.4811 19.0861 12.9998 19.0861ZM17.7966 13.5993L13.566 13.5993V9.43943C15.7593 9.69502 17.505 11.4171 17.7966 13.5993ZM18.7904 22.8182H7.20954V21.7153H18.7904V22.8182ZM18.7904 25.5455H7.20954V24.4425H18.7904V25.5455Z" fill="white"/>
<mask id="path-5-outside-1_775_6078" maskUnits="userSpaceOnUse" x="5.37109" y="14.1819" width="16" height="7" fill="black">
<rect fill="white" x="5.37109" y="14.1819" width="16" height="7"/>
<path d="M6.80304 20.2182C6.71107 20.2182 6.63362 20.1867 6.57069 20.1238C6.50776 20.0609 6.47629 19.9834 6.47629 19.8914V15.4477C6.47629 15.3557 6.50776 15.2783 6.57069 15.2153C6.63362 15.1476 6.71107 15.1137 6.80304 15.1137H8.45855C8.91842 15.1137 9.29357 15.1911 9.58401 15.346C9.87445 15.5009 10.0826 15.6994 10.2085 15.9414C10.3343 16.1835 10.3972 16.4449 10.3972 16.7256C10.3972 17.0064 10.3343 17.2678 10.2085 17.5098C10.0826 17.7519 9.87445 17.9503 9.58401 18.1052C9.29357 18.2601 8.91842 18.3376 8.45855 18.3376H7.13705V19.8914C7.13705 19.9834 7.10316 20.0609 7.03539 20.1238C6.97246 20.1867 6.89501 20.2182 6.80304 20.2182ZM8.3932 17.7131C8.88695 17.7131 9.23306 17.6187 9.43153 17.43C9.63484 17.2412 9.73649 17.0064 9.73649 16.7256C9.73649 16.4449 9.63484 16.2101 9.43153 16.0213C9.23306 15.8325 8.88695 15.7381 8.3932 15.7381H7.13705V17.7131H8.3932ZM12.1898 20.2182C12.0978 20.2182 12.0204 20.1867 11.9575 20.1238C11.8945 20.0609 11.8631 19.9834 11.8631 19.8914V15.4477C11.8631 15.3557 11.8945 15.2783 11.9575 15.2153C12.0204 15.1476 12.0978 15.1137 12.1898 15.1137H13.8453C14.3052 15.1137 14.6803 15.1911 14.9708 15.346C15.2612 15.5009 15.4694 15.6994 15.5952 15.9414C15.7211 16.1835 15.784 16.4449 15.784 16.7256C15.784 17.0064 15.7211 17.2678 15.5952 17.5098C15.4694 17.7519 15.2612 17.9503 14.9708 18.1052C14.6803 18.2601 14.3052 18.3376 13.8453 18.3376H12.5238V19.8914C12.5238 19.9834 12.4899 20.0609 12.4222 20.1238C12.3592 20.1867 12.2818 20.2182 12.1898 20.2182ZM13.78 17.7131C14.2737 17.7131 14.6198 17.6187 14.8183 17.43C15.0216 17.2412 15.1233 17.0064 15.1233 16.7256C15.1233 16.4449 15.0216 16.2101 14.8183 16.0213C14.6198 15.8325 14.2737 15.7381 13.78 15.7381H12.5238V17.7131H13.78ZM18.7529 20.2182C18.6609 20.2182 18.5835 20.1867 18.5205 20.1238C18.4576 20.0609 18.4261 19.9834 18.4261 19.8914V15.7309H16.9449C16.8577 15.7309 16.7851 15.7018 16.7271 15.6437C16.669 15.5857 16.6399 15.513 16.6399 15.4259C16.6399 15.3388 16.669 15.2662 16.7271 15.2081C16.7851 15.1452 16.8577 15.1137 16.9449 15.1137H20.5609C20.648 15.1137 20.7206 15.1452 20.7787 15.2081C20.8416 15.2662 20.8731 15.3388 20.8731 15.4259C20.8731 15.513 20.8416 15.5857 20.7787 15.6437C20.7206 15.7018 20.648 15.7309 20.5609 15.7309H19.0869V19.8914C19.0869 19.9834 19.053 20.0609 18.9852 20.1238C18.9223 20.1867 18.8449 20.2182 18.7529 20.2182Z"/>
</mask>
<path d="M6.80304 20.2182C6.71107 20.2182 6.63362 20.1867 6.57069 20.1238C6.50776 20.0609 6.47629 19.9834 6.47629 19.8914V15.4477C6.47629 15.3557 6.50776 15.2783 6.57069 15.2153C6.63362 15.1476 6.71107 15.1137 6.80304 15.1137H8.45855C8.91842 15.1137 9.29357 15.1911 9.58401 15.346C9.87445 15.5009 10.0826 15.6994 10.2085 15.9414C10.3343 16.1835 10.3972 16.4449 10.3972 16.7256C10.3972 17.0064 10.3343 17.2678 10.2085 17.5098C10.0826 17.7519 9.87445 17.9503 9.58401 18.1052C9.29357 18.2601 8.91842 18.3376 8.45855 18.3376H7.13705V19.8914C7.13705 19.9834 7.10316 20.0609 7.03539 20.1238C6.97246 20.1867 6.89501 20.2182 6.80304 20.2182ZM8.3932 17.7131C8.88695 17.7131 9.23306 17.6187 9.43153 17.43C9.63484 17.2412 9.73649 17.0064 9.73649 16.7256C9.73649 16.4449 9.63484 16.2101 9.43153 16.0213C9.23306 15.8325 8.88695 15.7381 8.3932 15.7381H7.13705V17.7131H8.3932ZM12.1898 20.2182C12.0978 20.2182 12.0204 20.1867 11.9575 20.1238C11.8945 20.0609 11.8631 19.9834 11.8631 19.8914V15.4477C11.8631 15.3557 11.8945 15.2783 11.9575 15.2153C12.0204 15.1476 12.0978 15.1137 12.1898 15.1137H13.8453C14.3052 15.1137 14.6803 15.1911 14.9708 15.346C15.2612 15.5009 15.4694 15.6994 15.5952 15.9414C15.7211 16.1835 15.784 16.4449 15.784 16.7256C15.784 17.0064 15.7211 17.2678 15.5952 17.5098C15.4694 17.7519 15.2612 17.9503 14.9708 18.1052C14.6803 18.2601 14.3052 18.3376 13.8453 18.3376H12.5238V19.8914C12.5238 19.9834 12.4899 20.0609 12.4222 20.1238C12.3592 20.1867 12.2818 20.2182 12.1898 20.2182ZM13.78 17.7131C14.2737 17.7131 14.6198 17.6187 14.8183 17.43C15.0216 17.2412 15.1233 17.0064 15.1233 16.7256C15.1233 16.4449 15.0216 16.2101 14.8183 16.0213C14.6198 15.8325 14.2737 15.7381 13.78 15.7381H12.5238V17.7131H13.78ZM18.7529 20.2182C18.6609 20.2182 18.5835 20.1867 18.5205 20.1238C18.4576 20.0609 18.4261 19.9834 18.4261 19.8914V15.7309H16.9449C16.8577 15.7309 16.7851 15.7018 16.7271 15.6437C16.669 15.5857 16.6399 15.513 16.6399 15.4259C16.6399 15.3388 16.669 15.2662 16.7271 15.2081C16.7851 15.1452 16.8577 15.1137 16.9449 15.1137H20.5609C20.648 15.1137 20.7206 15.1452 20.7787 15.2081C20.8416 15.2662 20.8731 15.3388 20.8731 15.4259C20.8731 15.513 20.8416 15.5857 20.7787 15.6437C20.7206 15.7018 20.648 15.7309 20.5609 15.7309H19.0869V19.8914C19.0869 19.9834 19.053 20.0609 18.9852 20.1238C18.9223 20.1867 18.8449 20.2182 18.7529 20.2182Z" fill="white"/>
<path d="M6.57069 20.1238L6.70067 19.9938L6.57069 20.1238ZM6.57069 15.2153L6.70076 15.3454L6.70539 15.3404L6.57069 15.2153ZM10.2085 15.9414L10.0454 16.0263L10.2085 15.9414ZM10.2085 17.5098L10.0454 17.425V17.425L10.2085 17.5098ZM7.13705 18.3376V18.1538H6.95322V18.3376H7.13705ZM7.03539 20.1238L6.91022 19.989L6.90541 19.9938L7.03539 20.1238ZM9.43153 17.43L9.30644 17.2952L9.30484 17.2968L9.43153 17.43ZM9.43153 16.0213L9.30483 16.1545L9.30645 16.156L9.43153 16.0213ZM7.13705 15.7381V15.5543H6.95322V15.7381H7.13705ZM7.13705 17.7131H6.95322V17.897H7.13705V17.7131ZM6.80304 20.0344C6.758 20.0344 6.72786 20.021 6.70067 19.9938L6.4407 20.2538C6.53937 20.3524 6.66414 20.402 6.80304 20.402V20.0344ZM6.70067 19.9938C6.67348 19.9666 6.66012 19.9365 6.66012 19.8914H6.29247C6.29247 20.0303 6.34203 20.1551 6.4407 20.2538L6.70067 19.9938ZM6.66012 19.8914V15.4477H6.29247V19.8914H6.66012ZM6.66012 15.4477C6.66012 15.4027 6.67348 15.3725 6.70067 15.3453L6.4407 15.0854C6.34203 15.184 6.29247 15.3088 6.29247 15.4477H6.66012ZM6.70539 15.3404C6.73376 15.3099 6.7625 15.2975 6.80304 15.2975V14.9299C6.65963 14.9299 6.53347 14.9853 6.43598 15.0903L6.70539 15.3404ZM6.80304 15.2975H8.45855V14.9299H6.80304V15.2975ZM8.45855 15.2975C8.89956 15.2975 9.24215 15.372 9.49751 15.5082L9.67052 15.1838C9.34499 15.0102 8.93727 14.9299 8.45855 14.9299V15.2975ZM9.49751 15.5082C9.76207 15.6493 9.93992 15.8235 10.0454 16.0263L10.3716 15.8566C10.2253 15.5754 9.98684 15.3525 9.67052 15.1838L9.49751 15.5082ZM10.0454 16.0263C10.1572 16.2413 10.2134 16.4735 10.2134 16.7256H10.5811C10.5811 16.4162 10.5114 16.1256 10.3716 15.8566L10.0454 16.0263ZM10.2134 16.7256C10.2134 16.9778 10.1572 17.21 10.0454 17.425L10.3716 17.5946C10.5114 17.3256 10.5811 17.035 10.5811 16.7256H10.2134ZM10.0454 17.425C9.93992 17.6278 9.76207 17.8019 9.49751 17.943L9.67052 18.2674C9.98684 18.0987 10.2253 17.8759 10.3716 17.5946L10.0454 17.425ZM9.49751 17.943C9.24215 18.0792 8.89956 18.1538 8.45855 18.1538V18.5214C8.93727 18.5214 9.34499 18.441 9.67052 18.2674L9.49751 17.943ZM8.45855 18.1538H7.13705V18.5214H8.45855V18.1538ZM6.95322 18.3376V19.8914H7.32087V18.3376H6.95322ZM6.95322 19.8914C6.95322 19.932 6.94086 19.9607 6.91031 19.9891L7.16048 20.2585C7.26547 20.161 7.32087 20.0349 7.32087 19.8914H6.95322ZM6.90541 19.9938C6.87822 20.021 6.84808 20.0344 6.80304 20.0344V20.402C6.94194 20.402 7.0667 20.3524 7.16538 20.2538L6.90541 19.9938ZM8.3932 17.897C8.89982 17.897 9.30694 17.8022 9.55823 17.5631L9.30484 17.2968C9.15918 17.4353 8.87409 17.5293 8.3932 17.5293V17.897ZM9.55661 17.5647C9.79789 17.3406 9.92032 17.0568 9.92032 16.7256H9.55267C9.55267 16.956 9.47179 17.1417 9.30645 17.2952L9.55661 17.5647ZM9.92032 16.7256C9.92032 16.3945 9.79789 16.1106 9.55661 15.8866L9.30645 16.156C9.47179 16.3096 9.55267 16.4953 9.55267 16.7256H9.92032ZM9.55823 15.8881C9.30694 15.6491 8.89982 15.5543 8.3932 15.5543V15.922C8.87409 15.922 9.15918 16.016 9.30484 16.1545L9.55823 15.8881ZM8.3932 15.5543H7.13705V15.922H8.3932V15.5543ZM6.95322 15.7381V17.7131H7.32087V15.7381H6.95322ZM7.13705 17.897H8.3932V17.5293H7.13705V17.897ZM11.9575 20.1238L12.0874 19.9938L11.9575 20.1238ZM11.9575 15.2153L12.0875 15.3454L12.0922 15.3404L11.9575 15.2153ZM15.5952 15.9414L15.4321 16.0263L15.5952 15.9414ZM15.5952 17.5098L15.4321 17.425V17.425L15.5952 17.5098ZM12.5238 18.3376V18.1538H12.34V18.3376H12.5238ZM12.4222 20.1238L12.297 19.989L12.2922 19.9938L12.4222 20.1238ZM14.8183 17.43L14.6932 17.2952L14.6916 17.2968L14.8183 17.43ZM14.8183 16.0213L14.6916 16.1545L14.6932 16.156L14.8183 16.0213ZM12.5238 15.7381V15.5543H12.34V15.7381H12.5238ZM12.5238 17.7131H12.34V17.897H12.5238V17.7131ZM12.1898 20.0344C12.1448 20.0344 12.1146 20.021 12.0874 19.9938L11.8275 20.2538C11.9262 20.3524 12.0509 20.402 12.1898 20.402V20.0344ZM12.0874 19.9938C12.0603 19.9666 12.0469 19.9365 12.0469 19.8914H11.6792C11.6792 20.0303 11.7288 20.1551 11.8275 20.2538L12.0874 19.9938ZM12.0469 19.8914V15.4477H11.6792V19.8914H12.0469ZM12.0469 15.4477C12.0469 15.4027 12.0603 15.3725 12.0874 15.3453L11.8275 15.0854C11.7288 15.184 11.6792 15.3088 11.6792 15.4477H12.0469ZM12.0922 15.3404C12.1205 15.3099 12.1493 15.2975 12.1898 15.2975V14.9299C12.0464 14.9299 11.9202 14.9853 11.8228 15.0903L12.0922 15.3404ZM12.1898 15.2975H13.8453V14.9299H12.1898V15.2975ZM13.8453 15.2975C14.2863 15.2975 14.6289 15.372 14.8843 15.5082L15.0573 15.1838C14.7318 15.0102 14.324 14.9299 13.8453 14.9299V15.2975ZM14.8843 15.5082C15.1488 15.6493 15.3267 15.8235 15.4321 16.0263L15.7583 15.8566C15.6121 15.5754 15.3736 15.3525 15.0573 15.1838L14.8843 15.5082ZM15.4321 16.0263C15.544 16.2413 15.6002 16.4735 15.6002 16.7256H15.9678C15.9678 16.4162 15.8982 16.1256 15.7583 15.8566L15.4321 16.0263ZM15.6002 16.7256C15.6002 16.9778 15.544 17.21 15.4321 17.425L15.7583 17.5946C15.8982 17.3256 15.9678 17.035 15.9678 16.7256H15.6002ZM15.4321 17.425C15.3267 17.6278 15.1488 17.8019 14.8843 17.943L15.0573 18.2674C15.3736 18.0987 15.6121 17.8759 15.7583 17.5946L15.4321 17.425ZM14.8843 17.943C14.6289 18.0792 14.2863 18.1538 13.8453 18.1538V18.5214C14.324 18.5214 14.7318 18.441 15.0573 18.2674L14.8843 17.943ZM13.8453 18.1538H12.5238V18.5214H13.8453V18.1538ZM12.34 18.3376V19.8914H12.7076V18.3376H12.34ZM12.34 19.8914C12.34 19.932 12.3276 19.9607 12.2971 19.9891L12.5473 20.2585C12.6522 20.161 12.7076 20.0349 12.7076 19.8914H12.34ZM12.2922 19.9938C12.265 20.021 12.2349 20.0344 12.1898 20.0344V20.402C12.3287 20.402 12.4535 20.3524 12.5522 20.2538L12.2922 19.9938ZM13.78 17.897C14.2866 17.897 14.6937 17.8022 14.945 17.5631L14.6916 17.2968C14.546 17.4353 14.2609 17.5293 13.78 17.5293V17.897ZM14.9434 17.5647C15.1847 17.3406 15.3071 17.0568 15.3071 16.7256H14.9394C14.9394 16.956 14.8586 17.1417 14.6932 17.2952L14.9434 17.5647ZM15.3071 16.7256C15.3071 16.3945 15.1847 16.1106 14.9434 15.8866L14.6932 16.156C14.8586 16.3096 14.9394 16.4953 14.9394 16.7256H15.3071ZM14.945 15.8881C14.6937 15.6491 14.2866 15.5543 13.78 15.5543V15.922C14.2609 15.922 14.546 16.016 14.6916 16.1545L14.945 15.8881ZM13.78 15.5543H12.5238V15.922H13.78V15.5543ZM12.34 15.7381V17.7131H12.7076V15.7381H12.34ZM12.5238 17.897H13.78V17.5293H12.5238V17.897ZM18.5205 20.1238L18.3905 20.2538L18.5205 20.1238ZM18.4261 15.7309H18.61V15.5471H18.4261V15.7309ZM16.7271 15.6437L16.5971 15.7737L16.5971 15.7737L16.7271 15.6437ZM16.7271 15.2081L16.8571 15.3382L16.8621 15.3328L16.7271 15.2081ZM20.7787 15.2081L20.6436 15.3328L20.6486 15.3382L20.654 15.3432L20.7787 15.2081ZM20.7787 15.6437L20.6539 15.5086L20.6487 15.5138L20.7787 15.6437ZM19.0869 15.7309V15.5471H18.9031V15.7309H19.0869ZM18.9852 20.1238L18.8601 19.989L18.8552 19.9938L18.9852 20.1238ZM18.7529 20.0344C18.7078 20.0344 18.6777 20.021 18.6505 19.9938L18.3905 20.2538C18.4892 20.3524 18.614 20.402 18.7529 20.402V20.0344ZM18.6505 19.9938C18.6233 19.9666 18.61 19.9365 18.61 19.8914H18.2423C18.2423 20.0303 18.2919 20.1551 18.3905 20.2538L18.6505 19.9938ZM18.61 19.8914V15.7309H18.2423V19.8914H18.61ZM18.4261 15.5471H16.9449V15.9147H18.4261V15.5471ZM16.9449 15.5471C16.9032 15.5471 16.8784 15.5351 16.857 15.5138L16.5971 15.7737C16.6919 15.8685 16.8123 15.9147 16.9449 15.9147V15.5471ZM16.857 15.5138C16.8357 15.4924 16.8237 15.4676 16.8237 15.4259H16.4561C16.4561 15.5585 16.5023 15.6789 16.5971 15.7737L16.857 15.5138ZM16.8237 15.4259C16.8237 15.3842 16.8357 15.3594 16.857 15.3381L16.5971 15.0781C16.5023 15.1729 16.4561 15.2933 16.4561 15.4259H16.8237ZM16.8621 15.3328C16.8847 15.3083 16.908 15.2975 16.9449 15.2975V14.9299C16.8075 14.9299 16.6855 14.982 16.592 15.0834L16.8621 15.3328ZM16.9449 15.2975H20.5609V14.9299H16.9449V15.2975ZM20.5609 15.2975C20.5977 15.2975 20.621 15.3083 20.6436 15.3328L20.9138 15.0834C20.8202 14.982 20.6983 14.9299 20.5609 14.9299V15.2975ZM20.654 15.3432C20.6785 15.3658 20.6893 15.3891 20.6893 15.4259H21.0569C21.0569 15.2885 21.0048 15.1666 20.9034 15.073L20.654 15.3432ZM20.6893 15.4259C20.6893 15.4628 20.6785 15.4861 20.654 15.5087L20.9034 15.7788C21.0048 15.6852 21.0569 15.5633 21.0569 15.4259H20.6893ZM20.6487 15.5138C20.6274 15.5351 20.6025 15.5471 20.5609 15.5471V15.9147C20.6935 15.9147 20.8139 15.8685 20.9087 15.7737L20.6487 15.5138ZM20.5609 15.5471H19.0869V15.9147H20.5609V15.5471ZM18.9031 15.7309V19.8914H19.2707V15.7309H18.9031ZM18.9031 19.8914C18.9031 19.932 18.8907 19.9607 18.8601 19.9891L19.1103 20.2585C19.2153 20.161 19.2707 20.0349 19.2707 19.8914H18.9031ZM18.8552 19.9938C18.8281 20.021 18.7979 20.0344 18.7529 20.0344V20.402C18.8918 20.402 19.0165 20.3524 19.1152 20.2538L18.8552 19.9938Z" fill="white" mask="url(#path-5-outside-1_775_6078)"/>
<mask id="mask1_775_6078" style="mask-type:alpha" maskUnits="userSpaceOnUse" x="0" y="0" width="26" height="28">
<path d="M23.4779 28H2.52206C1.40531 28 0.5 27.1046 0.5 26V2C0.5 0.895431 1.40531 0 2.52206 0H16.125L25.5 9.27273V26C25.5 27.1046 24.5947 28 23.4779 28Z" fill="url(#paint2_linear_775_6078)"/>
</mask>
<g mask="url(#mask1_775_6078)">
<ellipse opacity="0.05" cx="-0.832722" cy="-1.13647" rx="20.5423" ry="19.5" fill="url(#paint3_linear_775_6078)"/>
<ellipse opacity="0.07" cx="-0.832737" cy="-1.13625" rx="12.9136" ry="12.2273" fill="url(#paint4_linear_775_6078)"/>
</g>
<g filter="url(#filter1_d_775_6078)">
<path d="M25.5 9.27273H18.1471C17.0303 9.27273 16.125 8.36742 16.125 7.25067V0L25.5 9.27273Z" fill="url(#paint5_linear_775_6078)"/>
</g>
</g>
<defs>
<filter id="filter0_f_775_6078" x="-1.7059" y="9.96085" width="29.5956" height="14.8056" filterUnits="userSpaceOnUse" color-interpolation-filters="sRGB">
<feFlood flood-opacity="0" result="BackgroundImageFix"/>
<feBlend mode="normal" in="SourceGraphic" in2="BackgroundImageFix" result="shape"/>
<feGaussianBlur stdDeviation="1.79228" result="effect1_foregroundBlur_775_6078"/>
</filter>
<filter id="filter1_d_775_6078" x="14.011" y="-2.20588" width="13.9706" height="13.8683" filterUnits="userSpaceOnUse" color-interpolation-filters="sRGB">
<feFlood flood-opacity="0" result="BackgroundImageFix"/>
<feColorMatrix in="SourceAlpha" type="matrix" values="0 0 0 0 0 0 0 0 0 0 0 0 0 0 0 0 0 0 127 0" result="hardAlpha"/>
<feOffset dx="0.183823" dy="0.0919117"/>
<feGaussianBlur stdDeviation="1.1489"/>
<feColorMatrix type="matrix" values="0 0 0 0 0 0 0 0 0 0 0 0 0 0 0 0 0 0 0.33 0"/>
<feBlend mode="normal" in2="BackgroundImageFix" result="effect1_dropShadow_775_6078"/>
<feBlend mode="normal" in="SourceGraphic" in2="effect1_dropShadow_775_6078" result="shape"/>
</filter>
<linearGradient id="paint0_linear_775_6078" x1="13" y1="0" x2="13" y2="28" gradientUnits="userSpaceOnUse">
<stop stop-color="#FF7979"/>
<stop offset="1" stop-color="#E85555"/>
</linearGradient>
<linearGradient id="paint1_linear_775_6078" x1="13" y1="0" x2="13" y2="28" gradientUnits="userSpaceOnUse">
<stop stop-color="#FF8777"/>
<stop offset="1" stop-color="#F0695F"/>
</linearGradient>
<linearGradient id="paint2_linear_775_6078" x1="13" y1="0" x2="13" y2="28" gradientUnits="userSpaceOnUse">
<stop stop-color="#FF8777"/>
<stop offset="1" stop-color="#F0695F"/>
</linearGradient>
<linearGradient id="paint3_linear_775_6078" x1="0.658796" y1="-0.466366" x2="6.76981" y2="15.9312" gradientUnits="userSpaceOnUse">
<stop stop-color="white" stop-opacity="0"/>
<stop offset="1" stop-color="white"/>
</linearGradient>
<linearGradient id="paint4_linear_775_6078" x1="0.104884" y1="-0.716071" x2="3.92937" y2="9.57221" gradientUnits="userSpaceOnUse">
<stop stop-color="white" stop-opacity="0"/>
<stop offset="1" stop-color="white"/>
</linearGradient>
<linearGradient id="paint5_linear_775_6078" x1="20.8125" y1="0" x2="20.8125" y2="9.27273" gradientUnits="userSpaceOnUse">
<stop stop-color="#DA5D4C"/>
<stop offset="1" stop-color="#E32900"/>
</linearGradient>
</defs>
</svg>
