<svg width="22" height="22" viewBox="0 0 22 22" fill="none" xmlns="http://www.w3.org/2000/svg">
<mask id="mask0_122_1558" style="mask-type:luminance" maskUnits="userSpaceOnUse" x="1" y="1" width="20" height="20">
<path fill-rule="evenodd" clip-rule="evenodd" d="M1.83374 1.8335H20.13V20.1208H1.83374V1.8335Z" fill="white"/>
</mask>
<g mask="url(#mask0_122_1558)">
<path fill-rule="evenodd" clip-rule="evenodd" d="M7.01291 3.20825C4.70199 3.20825 3.20874 4.79134 3.20874 7.24067V14.7133C3.20874 17.1636 4.70199 18.7458 7.01291 18.7458H14.9421C17.2585 18.7458 18.7554 17.1636 18.7554 14.7133V7.24067C18.7554 4.79134 17.2585 3.20825 14.9421 3.20825H7.01291ZM14.9421 20.1208H7.01291C3.91457 20.1208 1.83374 17.9473 1.83374 14.7133V7.24067C1.83374 4.00667 3.91457 1.83325 7.01291 1.83325H14.9421C18.045 1.83325 20.1304 4.00667 20.1304 7.24067V14.7133C20.1304 17.9473 18.045 20.1208 14.9421 20.1208Z" fill="#D8D8D8"/>
</g>
<path fill-rule="evenodd" clip-rule="evenodd" d="M4.84131 15.7487C4.67081 15.7487 4.50123 15.6863 4.36831 15.5598C4.0924 15.2995 4.0814 14.8632 4.34265 14.5891L5.74331 13.1105C6.4849 12.3231 7.73615 12.2846 8.52723 13.0271L9.4054 13.9181C9.65015 14.1656 10.048 14.1702 10.2936 13.9282C10.3862 13.8191 12.3827 11.3945 12.3827 11.3945C12.7622 10.9343 13.2976 10.6502 13.8925 10.5915C14.4883 10.5393 15.0667 10.7125 15.5278 11.0911C15.5672 11.1232 15.603 11.1543 17.616 13.2214C17.8809 13.4928 17.8763 13.9282 17.6041 14.1931C17.3327 14.4598 16.8964 14.4516 16.6315 14.1803C16.6315 14.1803 14.7532 12.2525 14.6194 12.1223C14.4773 12.0059 14.2491 11.9381 14.0245 11.9601C13.7962 11.983 13.5909 12.0921 13.4451 12.269C11.3148 14.8531 11.2891 14.8778 11.2543 14.9118C10.4678 15.6836 9.19823 15.6708 8.42548 14.8824C8.42548 14.8824 7.57298 14.0171 7.55831 13.9997C7.34656 13.8035 6.9689 13.8163 6.74248 14.0556L5.33998 15.5342C5.20431 15.6772 5.02281 15.7487 4.84131 15.7487Z" fill="#D8D8D8"/>
<path fill-rule="evenodd" clip-rule="evenodd" d="M7.84447 7.45142C7.33755 7.45142 6.92505 7.86392 6.92505 8.37175C6.92505 8.87958 7.33755 9.293 7.84538 9.293C8.35322 9.293 8.76663 8.87958 8.76663 8.37175C8.76663 7.86483 8.35322 7.45233 7.84447 7.45142ZM7.84538 10.668C6.57947 10.668 5.55005 9.63767 5.55005 8.37175C5.55005 7.10583 6.57947 6.07642 7.84538 6.07642C9.11222 6.07733 10.1416 7.10767 10.1416 8.37175C10.1416 9.63767 9.1113 10.668 7.84538 10.668Z" fill="#D8D8D8"/>
</svg>
