<svg width="16" height="16" viewBox="0 0 16 16" fill="none" xmlns="http://www.w3.org/2000/svg">
<path d="M6.07159 9.38561C6.49665 10.0994 6.72759 10.4904 6.76434 10.5586C6.96906 10.9889 7.17365 11.3826 7.37834 11.7394C7.66167 12.2326 7.85587 12.4899 7.96087 12.5109C8.04486 12.4269 8.17865 12.2379 8.36237 11.9441C8.55134 11.6449 8.72187 11.3484 8.87409 11.0546C8.98945 10.8393 9.28597 10.3356 9.76362 9.54308C10.2254 8.78733 10.472 8.37536 10.5035 8.30711C10.6295 8.06053 11.1175 7.21824 11.9677 5.78027C12.5502 4.79883 13.0042 4.03271 13.3295 3.48155L2.66297 3.48155C3.00403 4.07993 3.33997 4.65196 3.67053 5.19774C4.51025 6.59374 5.07703 7.57505 5.37097 8.14183C5.54406 8.47252 5.77759 8.88708 6.07153 9.38561L6.07159 9.38561Z" fill="#A0A09F"/>
</svg>
