<svg width="14" height="14" viewBox="0 0 14 14" fill="none" xmlns="http://www.w3.org/2000/svg">
<path fill-rule="evenodd" clip-rule="evenodd" d="M13.3538 12.6463L10.2244 9.5175C12.1086 7.25536 11.8803 3.91129 9.70609 1.92623C7.53188 -0.0588245 4.18089 0.0173324 2.09911 2.09911C0.0173324 4.18089 -0.0588245 7.53188 1.92623 9.70609C3.91129 11.8803 7.25536 12.1086 9.5175 10.2244L12.6463 13.3538C12.8416 13.5491 13.1584 13.5491 13.3538 13.3538C13.5491 13.1584 13.5491 12.8416 13.3538 12.6463ZM1.5 6C1.5 3.51472 3.51472 1.5 6 1.5C8.48528 1.5 10.5 3.51472 10.5 6C10.5 8.48528 8.48528 10.5 6 10.5C3.51586 10.4972 1.50276 8.48414 1.5 6Z" fill="#171412"/>
</svg>
