<svg width="29" height="30" viewBox="0 0 29 30" fill="none" xmlns="http://www.w3.org/2000/svg">
<path d="M28.5274 10.554L14.9109 0.971831C14.7376 0.848582 14.5043 0.848582 14.3307 0.971831L0.714175 10.554C0.534311 10.6807 0.457053 10.9087 0.523678 11.1183C0.590305 11.3282 0.784556 11.4705 1.00415 11.4705H28.2363C28.4559 11.4705 28.6505 11.3282 28.7171 11.1183C28.7837 10.9087 28.7065 10.6807 28.5266 10.554H28.5274ZM2.5981 10.462L14.621 2.00096L26.644 10.462H2.5981Z" fill="#6B6B6B"/>
<path d="M27.2285 24.582H2.01352C1.73481 24.582 1.50928 24.8076 1.50928 25.0863V28.6163C1.50928 28.895 1.73481 29.1205 2.01352 29.1205H27.2285C27.5072 29.1205 27.7328 28.895 27.7328 28.6163V25.0863C27.7328 24.8076 27.5069 24.582 27.2282 24.582H27.2285ZM26.7243 28.1124H2.51746V25.5909H26.7243V28.1124Z" fill="#6B6B6B"/>
<path d="M16.6381 23.5739C16.9168 23.5739 17.1424 23.3484 17.1424 23.0697L17.1427 12.9839C17.1427 12.7051 16.9171 12.4796 16.6384 12.4796H12.6039C12.3251 12.4796 12.0996 12.7051 12.0996 12.9839V23.0697C12.0996 23.3484 12.3251 23.5739 12.6039 23.5739H16.6381ZM13.1081 13.4881H16.1339V22.5658H13.1081V13.4881Z" fill="#6B6B6B"/>
<path d="M9.07398 23.5739C9.35269 23.5739 9.57822 23.3484 9.57822 23.0697V12.9839C9.57822 12.7051 9.35269 12.4796 9.07398 12.4796H5.0394C4.76069 12.4796 4.53516 12.7051 4.53516 12.9839V23.0697C4.53516 23.3484 4.76069 23.5739 5.0394 23.5739H9.07398ZM5.54365 13.4881H8.5694V22.5658H5.54365V13.4881Z" fill="#6B6B6B"/>
<path d="M24.2024 23.5739C24.4811 23.5739 24.7066 23.3484 24.7066 23.0697V12.9839C24.7066 12.7051 24.4811 12.4796 24.2024 12.4796H20.1678C19.8891 12.4796 19.6636 12.7051 19.6636 12.9839V23.0697C19.6636 23.3484 19.8891 23.5739 20.1678 23.5739H24.2024ZM20.6724 13.4881H23.6981V22.5658H20.6724V13.4881Z" fill="#6B6B6B"/>
</svg>
