<svg width="27" height="25" viewBox="0 0 27 25" fill="none" xmlns="http://www.w3.org/2000/svg">
<path d="M21.2318 13.8383H12.0969C11.8085 13.8383 11.5742 14.072 11.5742 14.3609C11.5742 14.6499 11.8085 14.8836 12.0969 14.8836H21.2318C21.5207 14.8836 21.7544 14.6499 21.7544 14.3609C21.7544 14.072 21.5207 13.8383 21.2318 13.8383Z" fill="black"/>
<path d="M21.2318 18.3241H16.6645C16.3756 18.3241 16.1418 18.5578 16.1418 18.8468C16.1418 19.1358 16.3756 19.3695 16.6645 19.3695H21.2318C21.5207 19.3695 21.7545 19.1358 21.7545 18.8468C21.7545 18.5578 21.5207 18.3241 21.2318 18.3241Z" fill="black"/>
<path d="M21.2318 16.0808H13.7099C13.4215 16.0808 13.1873 16.3145 13.1873 16.6035C13.1873 16.8925 13.4215 17.1262 13.7099 17.1262L21.2318 17.1264C21.5208 17.1264 21.7545 16.8927 21.7545 16.6038C21.7545 16.3145 21.5208 16.0808 21.2318 16.0808Z" fill="black"/>
<path d="M24.8901 0.666626H5.35469C4.34592 0.666626 3.52514 1.48734 3.52514 2.49619V3.92545C3.52514 3.92648 3.52462 3.927 3.52462 3.92804C3.52462 3.92908 3.52514 3.9296 3.52514 3.93063V6.36874C3.52514 6.36978 3.52462 6.3703 3.52462 6.37134C3.52462 6.37237 3.52514 6.37289 3.52514 6.37393V8.23795H2.3275C1.31972 8.23795 0.5 9.05767 0.5 10.0655V23.1156C0.5 24.1234 1.31972 24.9431 2.3275 24.9431H21.8642C22.8725 24.9431 23.6922 24.1234 23.6922 23.1156L23.6924 17.3735H24.8896C25.8983 17.3735 26.7191 16.5528 26.7191 15.544V2.49647C26.7196 1.48789 25.8989 0.666643 24.8898 0.666643L24.8901 0.666626ZM4.5711 4.45125H25.6743V5.84917H4.5711V4.45125ZM5.35529 1.71199H24.8907C25.3231 1.71199 25.6749 2.06374 25.6749 2.49619V3.40515H4.57163V2.49619C4.57163 2.06403 4.92338 1.71199 5.35582 1.71199H5.35529ZM2.32863 9.2843H21.8653C22.2967 9.2843 22.6479 9.635 22.6479 10.0664V11.5003H1.54669V10.0664C1.54669 9.63498 1.8974 9.2843 2.32876 9.2843H2.32863ZM22.6476 23.1167C22.6476 23.5481 22.2964 23.8988 21.865 23.8988H2.3283C1.89692 23.8988 1.54623 23.5481 1.54623 23.1167V12.5455H22.6475L22.6476 23.1167ZM24.8902 16.328H23.693L23.6933 10.0661C23.6933 9.05832 22.8736 8.2386 21.8653 8.2386L4.57116 8.23834V6.89441H25.6744V15.5445C25.6744 15.9764 25.3227 16.3281 24.8902 16.3281L24.8902 16.328Z" fill="black"/>
<path d="M6.97301 13.6544C4.66512 13.6544 2.78735 15.5322 2.78735 17.8401C2.78735 20.148 4.66512 22.0257 6.97301 22.0257C9.28089 22.0257 11.1581 20.148 11.1581 17.8401C11.1581 15.5322 9.28082 13.6544 6.97301 13.6544ZM6.97301 20.9804C5.24179 20.9804 3.83272 19.5721 3.83272 17.8401C3.83272 16.1083 5.24153 14.6998 6.97301 14.6998C8.70422 14.6998 10.1128 16.1081 10.1128 17.8401C10.1128 19.5721 8.70448 20.9804 6.97301 20.9804Z" fill="black"/>
<path d="M6.97308 17.3173C6.75362 17.3173 6.57516 17.1386 6.57516 16.9189C6.57516 16.6994 6.75337 16.5209 6.97308 16.5209C7.10537 16.5209 7.22911 16.5868 7.30356 16.6965C7.46464 16.936 7.78967 16.9982 8.02911 16.8377C8.26854 16.6755 8.33131 16.351 8.16971 16.1116C8.01614 15.8841 7.80058 15.7168 7.55804 15.6086V15.414C7.55804 15.1251 7.32381 14.8914 7.03535 14.8914C6.7469 14.8914 6.51266 15.1251 6.51266 15.414V15.5578C5.94328 15.7513 5.52979 16.2848 5.52979 16.9186C5.52979 17.7141 6.17751 18.3624 6.97306 18.3624C7.19251 18.3624 7.37098 18.5411 7.37098 18.7608C7.37098 18.9802 7.19277 19.1587 6.97306 19.1587C6.84076 19.1587 6.71703 19.0928 6.64258 18.9831C6.48149 18.7437 6.15647 18.6814 5.91703 18.842C5.6776 19.0041 5.61483 19.3286 5.77643 19.5681C5.95568 19.8337 6.21767 20.0187 6.51235 20.119V20.2679C6.51235 20.5569 6.74658 20.7906 7.03504 20.7906C7.32349 20.7906 7.55773 20.5569 7.55773 20.2679V20.0775C8.06278 19.8521 8.41662 19.3484 8.41662 18.7608C8.41636 17.965 7.76916 17.3173 6.97308 17.3173Z" fill="black"/>
</svg>
