<svg width="24" height="24" viewBox="0 0 24 24" fill="none" xmlns="http://www.w3.org/2000/svg">
<circle cx="12" cy="12" r="11.5" stroke="#0E175C"/>
<path d="M8.08796 3.85843C7.17011 3.95509 6.66851 4.85988 6.39769 5.62186C6.12686 6.38383 6.3942 8.29791 6.34631 9.43172C6.29841 10.5655 6.20959 12.5179 6.34631 13.6988C6.48303 14.8796 6.07548 16.6099 6.35415 17.5217C6.63368 18.4335 7.21365 18.8419 8.20204 18.9542C9.18956 19.0674 11.4084 19.0291 12.5292 19.0108C13.6499 18.9925 15.7956 19.1249 16.7762 18.942C17.7567 18.7591 18.2314 18.4413 18.503 17.4216C18.7756 16.4018 18.429 14.6088 18.5379 13.3504C18.6467 12.0921 18.4673 10.1832 18.5379 8.90923C18.6084 7.63521 18.5692 6.95074 17.6888 6.27498C16.8075 5.59921 16.3251 4.56641 15.5553 4.15364C14.7864 3.74087 13.4166 3.88543 12.1808 3.94551C10.9451 4.0056 9.21568 3.74 8.08796 3.85843ZM14.445 4.81634C14.5747 5.90487 14.2255 6.89675 14.9022 7.58122C15.5797 8.26481 16.6316 7.90952 17.6671 8.0384C17.6496 9.93245 17.5547 12.0547 17.6479 13.9792C17.7411 15.9046 18.1643 18.0729 15.9541 18.1687C13.744 18.2645 11.7829 18.039 9.56837 18.2271C7.35386 18.4152 7.02555 17.2169 7.21714 15.1792C7.40872 13.1414 7.04384 10.6378 7.21714 8.73506C7.39043 6.8323 6.58143 5.04885 8.37098 4.83376C10.1597 4.61866 12.5475 4.93303 14.445 4.81634ZM17.3187 7.16757C15.8209 7.46801 14.9718 6.86888 15.3158 5.25175C15.9986 5.67062 16.7849 6.52926 17.3187 7.16757Z" fill="#1FAECC"/>
<path d="M10.1729 6.70168C9.95087 6.57889 9.69746 6.56496 9.47627 6.44043C9.25595 6.65814 8.99731 6.98034 9.04085 7.39834C9.43098 7.6979 9.83592 7.69007 10.26 7.31126C10.2356 7.05349 10.1355 6.89936 10.1729 6.70168Z" fill="#1FAECC"/>
<path d="M12.7965 6.53776C12.2174 6.45764 11.8446 6.84864 11.9256 7.40858C12.2835 7.73253 12.8235 7.74821 13.1448 7.3215C13.1518 6.9662 12.9724 6.82774 12.7965 6.53776Z" fill="#1FAECC"/>
<path d="M16.2688 9.74926C15.7349 9.16058 14.6891 9.42618 13.8304 9.40093C12.9718 9.37567 11.8058 9.37306 10.9567 9.40093C10.1077 9.42879 9.13582 9.11791 8.69257 9.83634C9.18023 10.5879 10.3489 10.2091 11.218 10.2718C12.087 10.3345 13.2574 10.2535 14.0917 10.1847C14.9259 10.1159 16.0319 10.6201 16.2688 9.74926Z" fill="#1FAECC"/>
<path d="M4.51255 11.1426C4.3558 11.2079 4.22691 11.2192 4.07713 11.1426C3.71313 11.5031 3.8272 12.2747 4.51255 12.1876C4.53954 11.9577 4.85391 11.8723 4.77379 11.578C4.77466 11.4134 4.54999 11.3333 4.51255 11.1426Z" fill="#1FAECC"/>
<path d="M20.8842 11.1426C20.5968 11.1617 20.4331 11.2053 20.1875 11.4038C20.2467 11.5797 20.2519 11.7574 20.1875 11.9263C20.7901 12.6186 21.6165 11.6755 20.8842 11.1426Z" fill="#1FAECC"/>
<path d="M9.12798 11.4038C8.98603 11.497 8.9303 11.7861 8.69257 11.7521C8.75614 12.0204 8.93204 12.1257 9.0409 12.3617C11.2319 12.4148 13.7974 12.2102 16.0075 12.3617C16.2243 12.1031 16.2104 11.9577 16.2688 11.6651C15.2943 11.2122 14.0586 11.544 12.8725 11.4909C11.6865 11.4378 10.2609 11.6032 9.12798 11.4038Z" fill="#1FAECC"/>
<path d="M16.2688 13.755C15.3022 13.303 13.6738 13.6966 12.4372 13.5808C11.2006 13.465 9.80382 13.4615 8.77972 13.6679C8.83894 13.8438 8.84417 14.0214 8.77972 14.1904C9.74895 14.5901 11.0726 14.2722 12.263 14.3646C13.4535 14.4569 14.8407 14.2244 16.0076 14.4516C16.1565 14.1712 16.2497 14.0685 16.2688 13.755Z" fill="#1FAECC"/>
<path d="M16.2688 15.9325C15.3927 15.1636 13.7529 15.5258 12.5242 15.4971C11.2955 15.4684 9.68792 15.2794 8.69257 15.8454C8.83974 16.7389 9.84467 16.5142 10.7825 16.5421C11.7204 16.57 13.1634 16.4385 14.0917 16.5421C15.02 16.6457 16.1982 16.6753 16.2688 15.9325Z" fill="#1FAECC"/>
</svg>
