<svg width="24" height="24" viewBox="0 0 24 24" fill="none" xmlns="http://www.w3.org/2000/svg">
<g clip-path="url(#clip0_1395_6466)">
<g clip-path="url(#clip1_1395_6466)">
<path d="M-7 33H31V-4H-7V33ZM13.7812 1.88965C13.979 1.88965 14.1772 1.88965 14.375 1.88965C14.6552 1.86327 14.988 1.86363 15.2656 1.88965C16.5771 1.88965 17.592 2.12487 18.7168 2.68457C19.0229 2.83705 19.2534 3.06216 19.4961 3.29883C20.54 4.16746 21.2031 5.65252 21.2031 6.98438C21.3419 8.38163 21.2402 9.89198 21.2402 11.3203C21.2402 12.7931 20.7589 13.9493 19.9043 15.1143C19.7559 15.317 19.5165 15.5493 19.3105 15.6924C18.1412 16.5054 16.7637 17.086 15.2656 16.8486C14.9461 17.4904 14.5379 18.088 14.2266 18.7275C14.1464 18.8923 14.0358 19.0224 13.9297 19.1611C13.6725 19.5828 13.3571 20.0395 13.1875 20.498C13.1304 20.6527 13.0461 20.7954 12.9648 20.9316C12.7901 21.3262 12.2664 21.6756 11.8979 21.3562C11.5295 21.0368 11.4074 20.6617 11.155 20.2729C10.9027 19.8842 10.7331 19.5095 10.4785 19.125C10.3319 18.9498 10.2024 18.7611 10.1074 18.5469C9.99387 18.2911 9.86436 18.0183 9.70775 17.7798C9.55078 17.5413 9.471 17.2197 9.29102 16.9932C9.11883 16.832 8.50615 16.9054 8.28906 16.8848C7.22291 16.8848 6.26326 16.4132 5.40566 15.8622C4.54807 15.3108 4.19701 14.4982 3.6875 13.7051C3.60066 13.5703 3.54352 13.4319 3.50195 13.2715C3.40287 12.8878 3.27484 12.4798 3.24219 12.0791C3.08447 11.2831 3.22697 10.3465 3.20508 9.51367C3.18318 8.68081 3.14273 7.74967 3.24219 6.94824C3.26148 6.00843 3.64037 5.15063 4.0957 4.34668C4.26641 4.04497 4.48127 3.73712 4.76367 3.51562C5.1292 3.22909 5.5259 2.88655 5.95117 2.64844C6.0818 2.55738 6.20166 2.48692 6.35938 2.43164C7.24629 2.1209 8.03969 1.88965 9.03125 1.88965C9.78791 1.81847 10.6214 1.85352 11.4062 1.85352C12.1911 1.85352 13.0272 1.81847 13.7812 1.88965ZM16.75 24.3643C17.2068 24.4073 17.5356 24.3578 18.0002 24.52C18.4652 24.6822 18.1568 25.1162 17.7122 25.1205C17.2673 25.1249 16.7971 25.1895 16.3418 25.1953C15.8865 25.2011 15.3963 25.2441 14.9316 25.2314C14.467 25.2188 14.0611 25.3026 13.5957 25.3037C13.1304 25.3044 12.619 25.3142 12.1484 25.3037C11.6779 25.2932 11.1691 25.3319 10.7012 25.3037C10.2332 25.2755 9.80275 25.2477 9.32812 25.2314C8.8535 25.2152 8.40113 25.2184 7.91797 25.1953C7.4348 25.1722 7.12754 25.135 6.61914 25.0869C6.11074 25.0389 6.32523 24.4575 6.80469 24.5088C7.28451 24.5605 7.66229 24.3599 8.14062 24.4004C8.61896 24.4409 9.07689 24.3552 9.55078 24.3643C10.0247 24.3733 10.4841 24.3588 10.9609 24.3643C11.4378 24.3697 11.9287 24.3585 12.4082 24.3643C12.8877 24.37 13.3753 24.3545 13.8555 24.3643C14.3357 24.374 14.8229 24.3437 15.3027 24.3643C15.7826 24.3849 16.2724 24.3191 16.75 24.3643Z" stroke="#D0DCD7" stroke-width="0.3"/>
<path d="M6.3594 2.43164C6.23137 2.49343 6.08182 2.57545 5.95119 2.64844C5.52592 2.88655 5.12922 3.22909 4.76369 3.51563C4.50949 3.74904 4.28647 4.07857 4.09572 4.34668C3.64039 5.15064 3.2615 6.00843 3.24221 6.94824C3.22477 7.79953 3.22291 8.66274 3.24221 9.51367C3.2615 10.3646 3.17318 11.2314 3.24221 12.0791C3.27486 12.4798 3.40289 12.8878 3.50197 13.2715C3.54947 13.4005 3.62406 13.5725 3.68752 13.7051C4.19703 14.4982 4.54809 15.3108 5.40568 15.8622C6.26328 16.4132 7.22293 16.8848 8.28908 16.8848C8.55924 16.8848 9.1207 16.7789 9.29104 16.9932C9.47102 17.2197 9.5508 17.5413 9.70778 17.7798C9.86438 18.0183 9.99389 18.2911 10.1074 18.5469C10.2113 18.7326 10.3557 18.9393 10.4785 19.125C10.7331 19.5095 10.9027 19.8842 11.155 20.2729C11.4074 20.6617 11.5295 21.0368 11.898 21.3562C12.2665 21.6756 12.7901 21.3262 12.9649 20.9316C13.0302 20.7846 13.1178 20.6357 13.1875 20.498C13.3571 20.0395 13.6725 19.5828 13.9297 19.1611C14.0203 19.0123 14.1416 18.867 14.2266 18.7275C14.5379 18.088 14.9461 17.4904 15.2656 16.8486C16.7638 17.086 18.1413 16.5054 19.3106 15.6924C19.5021 15.5363 19.7455 15.2989 19.9043 15.1143C20.7589 13.9493 21.2403 12.7931 21.2403 11.3203C21.1015 9.9227 21.2031 8.41271 21.2031 6.98438C21.2031 5.65252 20.54 4.16746 19.4961 3.29883C19.2404 3.08601 18.987 2.85439 18.7168 2.68457C17.592 2.12487 16.5771 1.88965 15.2656 1.88965C14.9688 1.88965 14.6719 1.88965 14.375 1.88965C14.1772 1.88965 13.9791 1.88965 13.7813 1.88965C12.1978 1.88965 10.6147 1.88965 9.03127 1.88965C8.03971 1.88965 7.24631 2.1209 6.3594 2.43164ZM12.4453 2.97363C13.4959 2.97363 14.7558 2.98953 15.7852 2.97363C16.8146 2.95773 17.493 3.25619 18.3086 3.76855C18.5814 3.93982 18.7721 4.14542 18.9766 4.38281C19.0605 4.46122 19.1061 4.50964 19.1621 4.59961C19.4189 4.92625 19.6015 5.22832 19.7559 5.61133C20.1025 6.47165 20.0528 7.36991 20.0528 8.32129C20.0528 8.74296 20.0528 9.16427 20.0528 9.58594C20.0528 9.68241 20.0528 9.77853 20.0528 9.875C20.0528 10.5189 20.0873 11.4251 20.0528 12.043C20.0182 12.6608 19.8049 13.2061 19.5418 13.7134C19.2787 14.2207 18.961 14.5416 18.522 14.9246C18.0834 15.3076 17.6473 15.5179 17.0591 15.6682C16.4706 15.8185 15.7395 15.9919 15.043 15.873C14.3464 15.7542 14.1383 16.4468 13.8815 16.9462C13.6243 17.4452 13.3441 17.851 13.0847 18.3384C12.8253 18.8255 12.4869 19.2562 12.2969 19.7754C12.0921 19.7429 12.0401 19.4596 11.9258 19.3057C11.3317 18.3001 10.653 17.2974 10.1817 16.2344C10.149 16.1762 9.9809 15.8633 9.9219 15.8369C9.79647 15.7939 9.57381 15.8369 9.43947 15.8369C9.06764 15.872 8.62158 15.8803 8.25197 15.8369C7.78774 15.8279 7.37359 15.6725 6.95315 15.5117C6.67928 15.4069 6.47629 15.2487 6.24807 15.0781C5.88402 14.8631 5.53891 14.5618 5.32033 14.2109C5.21643 14.0791 5.11549 13.9584 5.02346 13.8135C4.65014 13.2267 4.3926 12.4556 4.3926 11.7539C4.3169 10.9933 4.35549 10.1572 4.35549 9.36914C4.35549 8.58108 4.31727 7.74208 4.3926 6.98438C4.3926 4.71596 6.47369 2.97363 8.7344 2.97363C9.8974 2.86415 11.2849 2.86415 12.4453 2.97363Z" stroke="#003651" stroke-width="0.3"/>
<path d="M4.39258 6.98449C4.39258 8.57434 4.39258 10.1642 4.39258 11.754C4.39258 12.4557 4.65012 13.2268 5.02344 13.8136C5.124 13.9401 5.23199 14.0691 5.32031 14.2111C5.53889 14.5619 5.884 14.8633 6.24805 15.0782C6.48666 15.2192 6.71525 15.3883 6.95312 15.5118C7.37357 15.6726 7.78771 15.828 8.25195 15.837C8.64754 15.8446 9.04387 15.837 9.43945 15.837C9.57379 15.837 9.79644 15.794 9.92187 15.837C10.0399 15.8771 10.1356 16.1308 10.1816 16.2345C10.6529 17.2975 11.3317 18.3002 11.9258 19.3058C11.9933 19.3911 12.1069 19.4709 12.1113 19.5948C12.4041 19.0008 12.2223 18.1698 12.2598 17.463C12.2972 16.7563 12.2531 15.9642 12.2227 15.295C13.3779 15.1585 14.6804 14.9503 15.6378 14.2844C16.5949 13.6181 17.1267 12.9493 17.6896 11.9463C18.2526 10.9432 18.3364 9.44333 18.1602 8.28527C18.4708 8.51905 18.7517 8.92157 19.0964 9.14415C19.4412 9.36673 19.6653 9.99363 20.0527 9.87512C20.0527 9.77864 20.0527 9.68253 20.0527 9.58606C20.0134 9.18859 20.0134 8.71634 20.0527 8.32141C20.0527 7.37003 20.1025 6.47177 19.7559 5.61144C19.5707 5.27396 19.3725 4.93757 19.1621 4.59973C19.1061 4.50976 19.0604 4.46134 18.9766 4.38293C18.761 4.18095 18.5405 3.95259 18.3086 3.76867C17.4929 3.25631 16.8146 2.95785 15.7852 2.97375C14.7557 2.98965 13.4959 2.97375 12.4453 2.97375C11.2085 2.97375 9.97123 2.97375 8.73437 2.97375C6.47367 2.97375 4.39258 4.71607 4.39258 6.98449ZM14.9316 14.5001C14.952 14.7596 14.3936 14.5391 14.375 14.8253C13.6844 14.9922 12.8813 15.208 12.1106 15.2221C11.3395 15.2361 10.5268 14.9803 9.83949 14.761C9.15185 14.542 8.70765 14.172 8.16846 13.7142C7.62963 13.2561 7.29305 12.8311 6.95609 12.2209C6.61877 11.6106 6.37014 10.9251 6.28553 10.2C6.20055 9.47477 6.27365 8.48111 6.50521 7.81302C6.73641 7.14456 7.00137 6.6051 7.46338 6.07214C7.92576 5.53954 8.32728 5.17713 8.92289 4.81941C9.51849 4.4617 10.1349 4.15132 10.8581 4.02991C11.5814 3.90851 12.6691 3.89333 13.3979 3.99739C14.1267 4.10145 14.7936 4.36378 15.3862 4.73522C15.9785 5.10703 16.4145 5.43801 16.8706 5.96374C17.3267 6.48947 17.6358 6.991 17.8919 7.64319C18.1479 8.29539 18.2192 9.27604 18.1605 9.98388C18.1019 10.6914 17.8878 11.44 17.5694 12.0098C17.2506 12.5793 16.8598 13.1047 16.442 13.5137C16.0238 13.9224 15.5298 14.3375 14.9316 14.5001Z" stroke="#D0DCD7" stroke-width="0.3"/>
<path d="M10.8496 7.02051C10.9309 6.9085 11.1431 6.70868 11.2578 6.62305C11.1201 6.71049 10.9357 6.88067 10.8496 7.02051Z" stroke="#98C8D8" stroke-width="0.3"/>
<path d="M3.24217 12.0791C3.17315 11.2314 3.26147 10.3646 3.24217 9.51367C3.22288 8.66274 3.22473 7.79953 3.24217 6.94824C3.14272 7.74967 3.18317 8.68081 3.20506 9.51367C3.22696 10.3465 3.08446 11.2831 3.24217 12.0791Z" stroke="#98C8D8" stroke-width="0.3"/>
<path d="M4.39259 11.7539C4.39259 10.1641 4.39259 8.57422 4.39259 6.98438C4.31726 7.74208 4.35548 8.58108 4.35548 9.36914C4.35548 10.1572 4.31688 10.9933 4.39259 11.7539Z" stroke="#98C8D8" stroke-width="0.3"/>
<path d="M21.2402 11.3203C21.2402 9.89198 21.3419 8.38163 21.2031 6.98438C21.2031 8.41271 21.1014 9.9227 21.2402 11.3203Z" stroke="#98C8D8" stroke-width="0.3"/>
<path d="M20.0387 9.58594C20.0387 9.16427 20.0387 8.74296 20.0387 8.32129C20.018 8.71622 20.018 9.18848 20.0387 9.58594Z" stroke="#98C8D8" stroke-width="0.3"/>
<path d="M13.002 9.00781C13.2491 8.91459 13.5586 8.67756 13.6699 8.42969C13.5501 8.6389 13.2131 8.90628 13.002 9.00781Z" stroke="#98C8D8" stroke-width="0.3"/>
<path d="M11.5918 13.5244C11.7967 13.6935 12.131 13.4681 12.3247 13.2986C12.5188 13.1291 12.7203 12.7866 12.5938 12.5127C12.6517 12.5272 12.7422 12.6869 12.7422 12.5488C12.7114 12.534 12.6728 12.5138 12.668 12.4766C11.934 11.9812 11.0627 12.8318 11.5918 13.5244Z" stroke="#D0DCD7" stroke-width="0.3"/>
<path d="M3.6875 13.7051C3.62404 13.5725 3.54945 13.4005 3.50195 13.2715C3.54352 13.4319 3.60066 13.5703 3.6875 13.7051Z" stroke="#98C8D8" stroke-width="0.3"/>
<path d="M13.4102 14.0664C13.6554 13.8366 13.7842 13.5967 13.7812 13.2715C13.7434 13.5367 13.5887 13.859 13.4102 14.0664Z" stroke="#D0DCD7" stroke-width="0.3"/>
<path d="M5.32031 14.2109C5.23199 14.0689 5.124 13.9399 5.02344 13.8135C5.11547 13.9584 5.21641 14.0791 5.32031 14.2109Z" stroke="#98C8D8" stroke-width="0.3"/>
<path d="M6.95312 15.5117C6.71525 15.3881 6.48666 15.219 6.24805 15.0781C6.47627 15.2487 6.67926 15.4069 6.95312 15.5117Z" stroke="#98C8D8" stroke-width="0.3"/>
<path d="M19.3105 15.6924C19.5165 15.5493 19.7559 15.317 19.9043 15.1143C19.7455 15.2989 19.502 15.5363 19.3105 15.6924Z" stroke="#98C8D8" stroke-width="0.3"/>
<path d="M9.43945 15.8369C9.04387 15.8369 8.64754 15.8415 8.25195 15.8369C8.62156 15.8634 9.06762 15.8583 9.43945 15.8369Z" stroke="#98C8D8" stroke-width="0.3"/>
<path d="M10.1816 16.2344C10.1356 16.1307 10.0399 15.877 9.92188 15.8369C9.98088 15.8633 10.149 16.1762 10.1816 16.2344Z" stroke="#98C8D8" stroke-width="0.3"/>
<path d="M9.29102 16.993C9.12068 16.7787 8.55922 16.8846 8.28906 16.8846C8.50615 16.9051 9.11883 16.8318 9.29102 16.993Z" stroke="#98C8D8" stroke-width="0.3"/>
<path d="M10.4785 19.125C10.3557 18.9393 10.2113 18.7326 10.1074 18.5469C10.2024 18.7611 10.3319 18.9498 10.4785 19.125Z" stroke="#98C8D8" stroke-width="0.3"/>
<path d="M13.9297 19.1611C14.0358 19.0224 14.1464 18.8923 14.2266 18.7275C14.1416 18.867 14.0202 19.0123 13.9297 19.1611Z" stroke="#98C8D8" stroke-width="0.3"/>
<path d="M12.9648 20.9316C13.0461 20.7954 13.1304 20.6527 13.1875 20.498C13.1177 20.6357 13.0302 20.7846 12.9648 20.9316Z" stroke="#98C8D8" stroke-width="0.3"/>
<path d="M6.3594 2.43164C6.23137 2.49343 6.08182 2.57545 5.95119 2.64844C5.52592 2.88655 5.12922 3.22909 4.76369 3.51563C4.50949 3.74904 4.28647 4.07857 4.09572 4.34668C3.64039 5.15064 3.2615 6.00843 3.24221 6.94824C3.22477 7.79953 3.22291 8.66274 3.24221 9.51367C3.2615 10.3646 3.17318 11.2314 3.24221 12.0791C3.27486 12.4798 3.40289 12.8878 3.50197 13.2715C3.54947 13.4005 3.62406 13.5725 3.68752 13.7051C4.19703 14.4982 4.54809 15.3108 5.40568 15.8622C6.26328 16.4132 7.22293 16.8848 8.28908 16.8848C8.55924 16.8848 9.1207 16.7789 9.29104 16.9932C9.47102 17.2197 9.5508 17.5413 9.70778 17.7798C9.86438 18.0183 9.99389 18.2911 10.1074 18.5469C10.2113 18.7326 10.3557 18.9393 10.4785 19.125C10.7331 19.5095 10.9027 19.8842 11.155 20.2729C11.4074 20.6617 11.5295 21.0368 11.898 21.3562C12.2665 21.6756 12.7901 21.3262 12.9649 20.9316C13.0302 20.7846 13.1178 20.6357 13.1875 20.498C13.3571 20.0395 13.6725 19.5828 13.9297 19.1611C14.0203 19.0123 14.1416 18.867 14.2266 18.7275C14.5379 18.088 14.9461 17.4904 15.2656 16.8486C16.7638 17.086 18.1413 16.5054 19.3106 15.6924C19.5021 15.5363 19.7455 15.2989 19.9043 15.1143C20.7589 13.9493 21.2403 12.7931 21.2403 11.3203C21.1015 9.9227 21.2031 8.41271 21.2031 6.98438C21.2031 5.65252 20.54 4.16746 19.4961 3.29883C19.2404 3.08601 18.987 2.85439 18.7168 2.68457C17.592 2.12487 16.5771 1.88965 15.2656 1.88965C14.9688 1.88965 14.6719 1.88965 14.375 1.88965C14.1772 1.88965 13.9791 1.88965 13.7813 1.88965C12.1978 1.88965 10.6147 1.88965 9.03127 1.88965C8.03971 1.88965 7.24631 2.1209 6.3594 2.43164ZM12.4453 2.97363C13.4959 2.97363 14.7558 2.98953 15.7852 2.97363C16.8146 2.95773 17.493 3.25619 18.3086 3.76855C18.5814 3.93982 18.7721 4.14542 18.9766 4.38281C19.0605 4.46122 19.1061 4.50964 19.1621 4.59961C19.4189 4.92625 19.6015 5.22832 19.7559 5.61133C20.1025 6.47165 20.0528 7.36991 20.0528 8.32129C20.0528 8.74296 20.0528 9.16427 20.0528 9.58594C20.0528 9.68241 20.0528 9.77853 20.0528 9.875C20.0528 10.5189 20.0873 11.4251 20.0528 12.043C20.0182 12.6608 19.8049 13.2061 19.5418 13.7134C19.2787 14.2207 18.961 14.5416 18.522 14.9246C18.0834 15.3076 17.6473 15.5179 17.0591 15.6682C16.4706 15.8185 15.7395 15.9919 15.043 15.873C14.3464 15.7542 14.1383 16.4468 13.8815 16.9462C13.6243 17.4452 13.3441 17.851 13.0847 18.3384C12.8253 18.8255 12.4869 19.2562 12.2969 19.7754C12.0921 19.7429 12.0401 19.4596 11.9258 19.3057C11.3317 18.3001 10.653 17.2974 10.1817 16.2344C10.149 16.1762 9.9809 15.8633 9.9219 15.8369C9.79647 15.7939 9.57381 15.8369 9.43947 15.8369C9.06764 15.872 8.62158 15.8803 8.25197 15.8369C7.78774 15.8279 7.37359 15.6725 6.95315 15.5117C6.67928 15.4069 6.47629 15.2487 6.24807 15.0781C5.88402 14.8631 5.53891 14.5618 5.32033 14.2109C5.21643 14.0791 5.11549 13.9584 5.02346 13.8135C4.65014 13.2267 4.3926 12.4556 4.3926 11.7539C4.3169 10.9933 4.35549 10.1572 4.35549 9.36914C4.35549 8.58108 4.31727 7.74208 4.3926 6.98438C4.3926 4.71596 6.47369 2.97363 8.7344 2.97363C9.8974 2.86415 11.2849 2.86415 12.4453 2.97363Z" fill="#0E175C"/>
<path d="M12.8906 4.34655C12.3937 4.28802 11.6727 4.33101 11.2237 4.45784C10.7743 4.58431 10.3898 4.77906 10.0054 5.00597C9.62091 5.23289 9.37859 5.51834 9.09619 5.8551C8.81416 6.19185 8.6275 6.60846 8.54883 7.05651C8.47015 7.50456 8.67017 8.04583 8.96631 8.38439C9.26244 8.72296 9.89181 8.90579 10.3219 8.78294C10.7516 8.66008 11.1446 8.41077 11.283 7.9844C11.4211 7.55767 11.5907 7.12589 12.1113 7.05651C12.632 6.98714 13.1445 7.32136 13.068 7.84348C12.9912 8.36524 12.4457 8.37753 12.0631 8.59938C11.6801 8.82088 11.3524 8.95746 11.1064 9.36612C10.8604 9.77478 10.7012 10.2543 10.7761 10.7775C10.8511 11.3003 11.6679 11.2248 12.0742 11.1757C12.6494 11.1757 13.281 11.3007 13.54 10.9408C13.7991 10.5809 13.7731 10.7052 14.1609 10.453C14.5487 10.2012 15.2667 9.78418 15.5339 9.41345C15.8011 9.04273 15.9551 8.59577 16.0104 8.14302C16.0661 7.69064 16.0427 7.03339 15.8564 6.62581C15.6705 6.21787 15.4549 5.89448 15.1636 5.56603C14.8723 5.23759 14.5349 5.00923 14.1609 4.80797C13.7868 4.60671 13.307 4.39569 12.8906 4.34655ZM12.4453 5.06921C13.1252 5.06921 13.9241 5.35032 14.375 5.86413C14.5817 6.03251 14.7539 6.16728 14.8852 6.41515C15.0166 6.66266 15.1272 6.91921 15.1907 7.20176C15.2537 7.48468 15.276 7.8872 15.2285 8.17663C15.181 8.46605 15.0701 8.72404 14.9346 8.97444C14.7988 9.22448 14.614 9.35925 14.4091 9.54678C14.2043 9.73395 13.6915 9.87778 13.3916 9.98328C13.1804 10.1549 13.179 9.9381 13.068 10.2832C12.9567 10.6279 12.5886 10.6319 12.2227 10.5975C12.0145 10.578 11.8007 10.6123 11.5918 10.5975C11.3187 9.69926 12.2761 9.19702 13.0019 9.00768C13.2131 8.90615 13.5501 8.63877 13.6699 8.42956C14.3461 6.92174 12.557 5.79837 11.2578 6.62292C11.1431 6.70855 10.9309 6.90837 10.8496 7.02038C10.6325 7.37267 10.7038 7.90635 10.2102 8.05992C9.71666 8.21348 9.23127 7.76724 9.25464 7.30872C9.27839 6.84983 9.45318 6.42888 9.77343 6.11706C9.90629 5.95663 10.0417 5.81174 10.2187 5.68346C10.7116 5.32647 11.3784 5.06921 12 5.06921C12.1399 5.05584 12.3076 5.0562 12.4453 5.06921Z" fill="#0E175C"/>
<path d="M12.8906 4.34655C12.3937 4.28802 11.6727 4.33101 11.2237 4.45784C10.7743 4.58431 10.3898 4.77906 10.0054 5.00597C9.62091 5.23289 9.37859 5.51834 9.09619 5.8551C8.81416 6.19185 8.6275 6.60846 8.54883 7.05651C8.47015 7.50456 8.67017 8.04583 8.96631 8.38439C9.26244 8.72296 9.89181 8.90579 10.3219 8.78294C10.7516 8.66008 11.1446 8.41077 11.283 7.9844C11.4211 7.55767 11.5907 7.12589 12.1113 7.05651C12.632 6.98714 13.1445 7.32136 13.068 7.84348C12.9912 8.36524 12.4457 8.37753 12.0631 8.59938C11.6801 8.82088 11.3524 8.95746 11.1064 9.36612C10.8604 9.77478 10.7012 10.2543 10.7761 10.7775C10.8511 11.3003 11.6679 11.2248 12.0742 11.1757C12.6494 11.1757 13.281 11.3007 13.54 10.9408C13.7991 10.5809 13.7731 10.7052 14.1609 10.453C14.5487 10.2012 15.2667 9.78418 15.5339 9.41345C15.8011 9.04273 15.9551 8.59577 16.0104 8.14302C16.0661 7.69064 16.0427 7.03339 15.8564 6.62581C15.6705 6.21787 15.4549 5.89448 15.1636 5.56603C14.8723 5.23759 14.5349 5.00923 14.1609 4.80797C13.7868 4.60671 13.307 4.39569 12.8906 4.34655ZM12.4453 5.06921C13.1252 5.06921 13.9241 5.35032 14.375 5.86413C14.5817 6.03251 14.7539 6.16728 14.8852 6.41515C15.0166 6.66266 15.1272 6.91921 15.1907 7.20176C15.2537 7.48468 15.276 7.8872 15.2285 8.17663C15.181 8.46605 15.0701 8.72404 14.9346 8.97444C14.7988 9.22448 14.614 9.35925 14.4091 9.54678C14.2043 9.73395 13.6915 9.87778 13.3916 9.98328C13.1804 10.1549 13.179 9.9381 13.068 10.2832C12.9567 10.6279 12.5886 10.6319 12.2227 10.5975C12.0145 10.578 11.8007 10.6123 11.5918 10.5975C11.3187 9.69926 12.2761 9.19702 13.0019 9.00768C13.2131 8.90615 13.5501 8.63877 13.6699 8.42956C14.3461 6.92174 12.557 5.79837 11.2578 6.62292C11.1431 6.70855 10.9309 6.90837 10.8496 7.02038C10.6325 7.37267 10.7038 7.90635 10.2102 8.05992C9.71666 8.21348 9.23127 7.76724 9.25464 7.30872C9.27839 6.84983 9.45318 6.42888 9.77343 6.11706C9.90629 5.95663 10.0417 5.81174 10.2187 5.68346C10.7116 5.32647 11.3784 5.06921 12 5.06921C12.1399 5.05584 12.3076 5.0562 12.4453 5.06921Z" fill="black" fill-opacity="0.2"/>
<path d="M3.24217 12.0791C3.17315 11.2314 3.26147 10.3646 3.24217 9.51367C3.22288 8.66274 3.22473 7.79953 3.24217 6.94824C3.14272 7.74967 3.18317 8.68081 3.20506 9.51367C3.22696 10.3465 3.08446 11.2831 3.24217 12.0791Z" fill="#98C8D8"/>
<path d="M21.2402 11.3203C21.2402 9.89198 21.3419 8.38163 21.2031 6.98438C21.2031 8.41271 21.1014 9.9227 21.2402 11.3203Z" fill="#0E175C"/>
<path d="M20.0387 9.58594C20.0387 9.16427 20.0387 8.74296 20.0387 8.32129C20.018 8.71622 20.018 9.18848 20.0387 9.58594Z" fill="#98C8D8"/>
<path d="M13.4755 14.0528C13.6583 13.8405 13.8167 13.5105 13.8554 13.239C13.8482 12.4315 13.4949 11.745 12.6804 11.5718C11.8659 11.3987 11.1596 11.7098 10.8078 12.4171C10.4557 13.124 10.7383 13.9248 11.3975 14.3746C12.057 14.8241 12.922 14.571 13.4755 14.0528ZM12.7157 12.4252C13.7373 13.1143 12.3514 14.4634 11.614 13.4979C11.0723 12.7888 11.9643 11.9181 12.7157 12.4252Z" fill="#0E175C"/>
<path d="M3.6875 13.7051C3.62404 13.5725 3.54945 13.4005 3.50195 13.2715C3.54352 13.4319 3.60066 13.5703 3.6875 13.7051Z" fill="#98C8D8"/>
<path d="M19.3105 15.6924C19.5165 15.5493 19.7559 15.317 19.9043 15.1143C19.7455 15.2989 19.502 15.5363 19.3105 15.6924Z" fill="#98C8D8"/>
<path d="M9.43945 15.8369C9.04387 15.8369 8.64754 15.8415 8.25195 15.8369C8.62156 15.8634 9.06762 15.8583 9.43945 15.8369Z" fill="#98C8D8"/>
<path d="M10.1816 16.2344C10.1356 16.1307 10.0399 15.877 9.92188 15.8369C9.98088 15.8633 10.149 16.1762 10.1816 16.2344Z" fill="#98C8D8"/>
<path d="M9.29102 16.993C9.12068 16.7787 8.55922 16.8846 8.28906 16.8846C8.50615 16.9051 9.11883 16.8318 9.29102 16.993Z" fill="#98C8D8"/>
<path d="M10.4785 19.125C10.3557 18.9393 10.2113 18.7326 10.1074 18.5469C10.2024 18.7611 10.3319 18.9498 10.4785 19.125Z" fill="#98C8D8"/>
<path d="M13.9297 19.1611C14.0358 19.0224 14.1464 18.8923 14.2266 18.7275C14.1416 18.867 14.0202 19.0123 13.9297 19.1611Z" fill="#98C8D8"/>
<path d="M12.9648 20.9316C13.0461 20.7954 13.1304 20.6527 13.1875 20.498C13.1177 20.6357 13.0302 20.7846 12.9648 20.9316Z" fill="#98C8D8"/>
<path d="M14.8542 14.5754C15.4524 14.4128 16.0205 13.9073 16.4388 13.4986C16.8566 13.0896 17.2474 12.5642 17.5662 11.9948C17.8845 11.425 18.0987 10.6763 18.1573 9.9688C18.2159 9.26096 18.1447 8.28032 17.8886 7.62812C17.6326 6.97592 17.3235 6.4744 16.8674 5.94867C16.4113 5.42294 15.9753 5.09196 15.383 4.72015C14.7904 4.34871 14.1235 4.08638 13.3947 3.98232C12.6659 3.87826 11.5782 3.89343 10.8549 4.01484C10.1317 4.13625 9.51527 4.44663 8.91966 4.80434C8.32406 5.16206 7.92254 5.52447 7.46015 6.05707C6.99814 6.59002 6.73318 7.12949 6.50199 7.79794C6.27043 8.46604 6.19732 9.45969 6.2823 10.1849C6.36691 10.9101 6.61554 11.5955 6.95287 12.2058C7.28982 12.8161 7.6264 13.241 8.16523 13.6992C8.70443 14.157 9.14863 14.527 9.83627 14.7459C10.5235 14.9652 11.3362 15.2211 12.1074 15.207C12.8781 15.1929 13.6812 14.9772 14.3718 14.8102C15.1603 14.4079 15.6335 14.2682 14.8542 14.5754ZM12.8874 4.33172C13.3038 4.38087 13.7836 4.59188 14.1577 4.79314C14.5317 4.9944 14.869 5.22276 15.1603 5.55121C15.4517 5.87965 15.6673 6.20304 15.8532 6.61098C16.0395 7.01856 16.0628 7.67582 16.0072 8.1282C15.9519 8.58094 15.7979 9.0279 15.5307 9.39863C15.2635 9.76935 14.7596 9.98758 14.3718 10.2394C13.984 10.4916 13.7773 10.5119 13.5183 10.8718C13.2592 11.2316 12.4773 11.1117 12.071 11.1608C11.6646 11.21 10.8479 11.2855 10.7729 10.7626C10.6979 10.2394 10.8571 9.75995 11.1032 9.35129C11.3492 8.94263 11.6769 8.80605 12.0599 8.58455C12.4425 8.3627 12.988 8.35041 13.0648 7.82866C13.1412 7.30654 12.6287 6.97231 12.1081 7.04168C11.5875 7.11106 11.4179 7.54285 11.2798 7.96957C11.1414 8.39594 10.7484 8.64526 10.3187 8.76811C9.88859 8.89096 9.25922 8.70813 8.96308 8.36956C8.66695 8.031 8.46693 7.48973 8.5456 7.04168C8.62427 6.59364 8.81093 6.17703 9.09297 5.84027C9.37537 5.50351 9.61769 5.21806 10.0021 4.99115C10.3866 4.76423 10.7711 4.56948 11.2204 4.44301C11.6695 4.31619 12.3905 4.27319 12.8874 4.33172ZM13.778 13.2565C13.781 13.5817 13.6522 13.8216 13.4069 14.0514C12.8662 14.5577 12.0213 14.8048 11.377 14.3658C10.7332 13.9264 10.4571 13.1442 10.8011 12.4537C11.1447 11.7628 11.8346 11.4589 12.6302 11.628C13.4259 11.7971 13.771 12.4677 13.778 13.2565Z" fill="#24AECC"/>
</g>
</g>
<defs>
<clipPath id="clip0_1395_6466">
<rect width="24" height="24" fill="white"/>
</clipPath>
<clipPath id="clip1_1395_6466">
<rect width="24" height="24" fill="white"/>
</clipPath>
</defs>
</svg>
