<svg width="24" height="24" viewBox="0 0 24 24" fill="none" xmlns="http://www.w3.org/2000/svg">
<circle cx="12" cy="12" r="11.5" stroke="#0E175C"/>
<path d="M16.9935 7.10087C16.1919 6.94347 16.0982 8.32513 16.8508 8.36225C17.6031 8.399 17.7564 7.25084 16.9935 7.10087Z" fill="#1FAECC"/>
<path d="M6.81651 7.16568C5.99537 6.95297 5.81218 8.10633 6.49451 8.35616C7.17649 8.60599 7.49636 7.34163 6.81651 7.16568Z" fill="#1FAECC"/>
<path d="M8.91395 10.5667V11.4781H11.2928C11.2831 11.2671 11.2928 10.7904 11.2928 10.5667C11.2928 10.3389 11.1188 10.3389 10.8577 10.3389H10.8576H9.29108C8.96617 10.3389 8.90428 10.4908 8.91395 10.5667Z" fill="#1FAECC"/>
<path d="M12.5595 10.5667V11.4781H14.989C14.9791 11.2671 14.989 10.7904 14.989 10.5667C14.989 10.3389 14.8112 10.3389 14.5447 10.3389H14.5446H12.9447C12.6129 10.3389 12.5497 10.4908 12.5595 10.5667Z" fill="#1FAECC"/>
<path d="M17.8497 14.6684H6.07758C6.07758 12.4608 7.30964 11.8076 8.10289 11.757C9.54593 11.7654 13.3231 11.7772 15.47 11.757C17.6168 11.7367 17.951 13.6895 17.8497 14.6684Z" fill="#1FAECC"/>
<path d="M6.07758 14.896L6.20837 16.9213H7.22855V15.858H16.7764V16.9213H17.7443L17.875 14.896H6.07758Z" fill="#1FAECC"/>
<path d="M6.43201 8.72041V12.0875C6.57378 11.7229 7.52061 11.4039 8.48264 11.4039C8.50289 10.3103 8.48264 10.0875 9.26745 9.83432H10.8371C11.789 9.83432 11.7738 10.8132 11.7485 11.4039H12.1029C12.1788 10.1381 11.875 9.91027 13.7991 9.83432C15.3383 9.77356 15.5459 10.7879 15.4447 11.4039C16.1333 11.3432 16.9468 11.8343 17.2675 12.0875V8.69508H16.5333L16.4067 10.2647C16.3307 9.60648 14.4826 7.98624 11.9004 7.91029C9.83454 7.84953 7.78222 9.53898 7.26745 10.3913L7.09023 8.72041H6.43201Z" fill="#1FAECC"/>
</svg>
