<svg width="20" height="26" viewBox="0 0 20 26" fill="none" xmlns="http://www.w3.org/2000/svg">
<g filter="url(#filter0_i_477_4230)">
<path d="M14.375 18.4688V20.8125H5.3125C4.56658 20.8125 3.85121 20.4421 3.32376 19.7828C2.79632 19.1235 2.5 18.2293 2.5 17.2969C2.5 16.3645 2.79632 15.4703 3.32376 14.811C3.85121 14.1516 4.56658 13.7812 5.3125 13.7812H5.625V12.2188H5.3125C4.23506 12.2188 3.20175 12.7538 2.43988 13.7061C1.67801 14.6584 1.25 15.9501 1.25 17.2969C1.25 18.6437 1.67801 19.9353 2.43988 20.8877C3.20175 21.84 4.23506 22.375 5.3125 22.375H14.375V24.7188H19.375V18.4688H14.375ZM18.125 23.1562H15.625V20.0312H18.125V23.1562Z" fill="#0E155F"/>
<path d="M13.125 17.6875H11.875V15.3438H8.125V17.6875H6.875V15.3438C6.875 14.9294 7.0067 14.5319 7.24112 14.2389C7.47554 13.9459 7.79348 13.7813 8.125 13.7813H11.875C12.2065 13.7813 12.5245 13.9459 12.7589 14.2389C12.9933 14.5319 13.125 14.9294 13.125 15.3438V17.6875ZM10 13C9.62916 13 9.26665 12.8625 8.95831 12.605C8.64996 12.3475 8.40964 11.9814 8.26773 11.5532C8.12581 11.1249 8.08868 10.6537 8.16103 10.199C8.23337 9.74437 8.41195 9.32675 8.67417 8.99897C8.9364 8.67119 9.27049 8.44797 9.63421 8.35754C9.99792 8.2671 10.3749 8.31352 10.7175 8.49091C11.0601 8.6683 11.353 8.96871 11.559 9.35413C11.765 9.73956 11.875 10.1927 11.875 10.6563C11.8745 11.2777 11.6768 11.8734 11.3253 12.3128C10.9738 12.7523 10.4971 12.9994 10 13ZM10 9.875C9.87639 9.875 9.75555 9.92082 9.65277 10.0067C9.54999 10.0925 9.46988 10.2145 9.42258 10.3573C9.37527 10.5 9.36289 10.6571 9.38701 10.8087C9.41112 10.9602 9.47065 11.0994 9.55806 11.2087C9.64547 11.3179 9.75683 11.3923 9.87807 11.4225C9.99931 11.4526 10.125 11.4372 10.2392 11.378C10.3534 11.3189 10.451 11.2188 10.5197 11.0903C10.5883 10.9618 10.625 10.8108 10.625 10.6563C10.625 10.4491 10.5592 10.2503 10.4419 10.1038C10.3247 9.95731 10.1658 9.875 10 9.875Z" fill="#1FAECC"/>
<path d="M14.6875 3.625H5.625V1.28125H0.625V7.53125H5.625V5.1875H14.6875C15.4334 5.1875 16.1488 5.5579 16.6762 6.2172C17.2037 6.87651 17.5 7.77072 17.5 8.70312C17.5 9.63553 17.2037 10.5297 16.6762 11.189C16.1488 11.8484 15.4334 12.2188 14.6875 12.2188H14.375V13.7812H14.6875C15.7649 13.7812 16.7983 13.2462 17.5601 12.2939C18.322 11.3416 18.75 10.0499 18.75 8.70312C18.75 7.35632 18.322 6.06468 17.5601 5.11235C16.7983 4.16002 15.7649 3.625 14.6875 3.625ZM4.375 5.96875H1.875V2.84375H4.375V5.96875Z" fill="#0E155F"/>
</g>
<defs>
<filter id="filter0_i_477_4230" x="0" y="0.5" width="20" height="29" filterUnits="userSpaceOnUse" color-interpolation-filters="sRGB">
<feFlood flood-opacity="0" result="BackgroundImageFix"/>
<feBlend mode="normal" in="SourceGraphic" in2="BackgroundImageFix" result="shape"/>
<feColorMatrix in="SourceAlpha" type="matrix" values="0 0 0 0 0 0 0 0 0 0 0 0 0 0 0 0 0 0 127 0" result="hardAlpha"/>
<feOffset dy="4"/>
<feGaussianBlur stdDeviation="2"/>
<feComposite in2="hardAlpha" operator="arithmetic" k2="-1" k3="1"/>
<feColorMatrix type="matrix" values="0 0 0 0 0 0 0 0 0 0 0 0 0 0 0 0 0 0 0.25 0"/>
<feBlend mode="normal" in2="shape" result="effect1_innerShadow_477_4230"/>
</filter>
</defs>
</svg>
