<svg width="24" height="24" viewBox="0 0 24 24" fill="none" xmlns="http://www.w3.org/2000/svg">
<path fill-rule="evenodd" clip-rule="evenodd" d="M10.8771 0.0233631C15.2054 -0.2118 18.7418 1.32832 21.4862 4.64374C24.1546 8.30937 24.6986 12.2764 23.1184 16.5447C21.4145 20.4428 18.4843 22.8619 14.328 23.8019C9.53401 24.5709 5.59349 23.1008 2.50641 19.3916C0.123895 16.1499 -0.560062 12.5718 0.45454 8.65739C1.78359 4.52706 4.51164 1.79684 8.6387 0.466732C9.38315 0.278814 10.1293 0.131027 10.8771 0.0233631Z" fill="#0E175C"/>
<path fill-rule="evenodd" clip-rule="evenodd" d="M11.0636 1.04966C15.6765 0.880002 19.1818 2.74683 21.5794 6.65011C23.1707 9.66222 23.3883 12.7736 22.2323 15.9842C20.5603 19.9125 17.6147 22.2226 13.3953 22.9148C9.11097 23.312 5.66788 21.8107 3.06597 18.4111C0.797554 15.0023 0.424487 11.3931 1.94677 7.58352C3.79942 3.75095 6.83838 1.57298 11.0636 1.04966Z" fill="#FEFEFE"/>
<path fill-rule="evenodd" clip-rule="evenodd" d="M11.5302 4.83084C13.1351 4.73549 14.2154 5.43555 14.7712 6.93101C15.0678 8.67905 14.3916 9.86914 12.7426 10.5013C10.9846 10.7849 9.81098 10.0926 9.22182 8.42446C8.9207 6.87556 9.47252 5.74768 10.8773 5.04085C11.1005 4.96982 11.3181 4.89982 11.5302 4.83084Z" fill="#0E175C"/>
<path fill-rule="evenodd" clip-rule="evenodd" d="M11.25 12.0172C12.5584 11.9064 13.7864 12.1631 14.934 12.7873C15.5287 13.1334 15.9562 13.6235 16.2164 14.2574C16.437 15.2546 16.1494 16.0714 15.3537 16.7076C14.1519 17.5548 12.8151 17.8971 11.3432 17.7344C10.1048 17.6396 9.05551 17.1495 8.19549 16.2643C7.54421 15.3448 7.54421 14.4269 8.19549 13.5107C8.64079 13.0333 9.16155 12.6678 9.75771 12.4139C10.2487 12.2371 10.7462 12.1048 11.25 12.0172Z" fill="#0E175C"/>
</svg>
