<svg width="80" height="80" viewBox="0 0 80 80" fill="none" xmlns="http://www.w3.org/2000/svg">
<circle cx="40" cy="40" r="39.5" stroke="#0E175C"/>
<path d="M35.8333 60.8334C39.4465 60.8324 42.9617 59.6572 45.849 57.4848C48.7363 55.3125 50.8395 52.2606 51.8416 48.7891C52.8438 45.3175 52.6906 41.6144 51.4051 38.2374C50.1197 34.8605 47.7716 31.9928 44.7147 30.0664C41.6578 28.1399 38.0576 27.2591 34.4566 27.5566C30.8556 27.8541 27.4488 29.3138 24.7494 31.7158C22.0501 34.1177 20.2045 37.3319 19.4906 40.874C18.7768 44.416 19.2334 48.0942 20.7916 51.3542C21.1499 52.1042 21.2749 52.95 21.0624 53.75L20.3791 56.3063C20.2563 56.7652 20.2564 57.2484 20.3794 57.7073C20.5024 58.1661 20.7439 58.5846 21.0797 58.9206C21.4156 59.2567 21.8339 59.4985 22.2927 59.6217C22.7515 59.745 23.2346 59.7454 23.6937 59.6229L26.2499 58.9375C27.0553 58.7393 27.905 58.8354 28.6458 59.2084C30.8228 60.25 33.2603 60.8334 35.8353 60.8334H35.8333Z" stroke="#1FAECC" stroke-width="1.5"/>
<path d="M52.4998 45.2125L52.9123 45.0313C53.6665 44.6875 54.5123 44.5584 55.3144 44.7729L56.3061 45.0375C56.765 45.1603 57.2482 45.1602 57.7071 45.0372C58.166 44.9142 58.5844 44.6727 58.9205 44.3369C59.2565 44.001 59.4983 43.5827 59.6216 43.1239C59.7448 42.6651 59.7452 42.182 59.6228 41.7229L59.3561 40.7313C59.1415 39.9292 59.2728 39.0834 59.6165 38.3292C60.3281 36.6992 60.7117 34.9449 60.7453 33.1667C60.779 31.3884 60.462 29.6209 59.8126 27.9651C59.1632 26.3093 58.194 24.7977 56.9603 23.5165C55.7267 22.2352 54.2528 21.2095 52.6228 20.4979C50.9927 19.7863 49.2385 19.4028 47.4602 19.3691C45.6819 19.3355 43.9145 19.6524 42.2587 20.3018C40.6029 20.9513 39.0912 21.9205 37.81 23.1541C36.5288 24.3877 35.5031 25.8617 34.7915 27.4917" stroke="#1FAECC" stroke-width="1.5"/>
<path d="M28.5791 44.1667H28.5999M35.852 44.1667H35.8708M43.1249 44.1667H43.1437" stroke="#1FAECC" stroke-width="2" stroke-linecap="round" stroke-linejoin="round"/>
</svg>
