<svg width="80" height="80" viewBox="0 0 80 80" fill="none" xmlns="http://www.w3.org/2000/svg">
<circle cx="40" cy="40" r="39.5" fill="white" stroke="#0E175C"/>
<path fill-rule="evenodd" clip-rule="evenodd" d="M42.0778 15.1479C40.141 15.1295 38.2066 15.178 36.2749 15.2935C36.4966 15.1767 36.751 15.1039 37.0384 15.0751C38.7448 14.9548 40.4246 14.9791 42.0778 15.1479Z" fill="#60777C"/>
<path fill-rule="evenodd" clip-rule="evenodd" d="M34.5952 15.5848C34.2898 15.7304 33.9844 15.876 33.6789 16.0217C33.5771 16.0217 33.4754 16.0217 33.3735 16.0217C33.6968 15.7078 34.1041 15.5622 34.5952 15.5848Z" fill="#7A8E93"/>
<path fill-rule="evenodd" clip-rule="evenodd" d="M42.0781 15.1479C43.2515 15.2746 44.4221 15.4202 45.5904 15.5848C45.835 15.814 46.1404 15.9111 46.5066 15.876C47.5919 16.2236 48.6608 16.612 49.7134 17.0411C49.8185 17.7316 49.6658 17.8529 49.2553 17.4051C49.3062 17.3566 49.3572 17.308 49.408 17.2595C49.1194 17.0976 48.814 16.9761 48.4918 16.8954C48.023 16.8366 47.5394 16.8366 47.0411 16.8954C46.8754 16.7799 46.6972 16.6828 46.5066 16.6042C45.8041 16.7415 45.0915 16.7901 44.3687 16.7498C44.1468 17.2575 44.0451 17.7915 44.0633 18.3517C44.3178 18.3517 44.5723 18.3517 44.8268 18.3517C44.8268 18.643 44.8268 18.9342 44.8268 19.2255C45.4039 19.4607 45.9892 19.7034 46.583 19.9536C46.8216 19.866 46.7961 19.7446 46.5066 19.5895C46.7271 19.4758 46.9307 19.5001 47.1174 19.6624C47.3065 19.9736 47.5864 20.1678 47.9573 20.2449C47.9938 20.4324 47.9175 20.5781 47.7283 20.6818C46.8751 20.5157 46.0607 20.2488 45.2849 19.8808C44.5797 19.7122 43.8672 19.5907 43.147 19.5167C43.1301 19.4269 43.0792 19.3541 42.9943 19.2983C41.3436 19.0737 39.7146 19.0496 38.1077 19.2255C38.0569 19.2255 38.0059 19.2255 37.955 19.2255C37.5447 19.2494 37.1374 19.225 36.7333 19.1527C36.9453 19.0232 36.92 18.9504 36.657 18.9342C36.4131 19.1359 36.1332 19.2329 35.8171 19.2255C35.8289 19.0434 35.9307 18.9221 36.1225 18.8614C36.5816 18.8131 37.0143 18.6916 37.4205 18.4973C37.7293 18.7145 37.9837 18.666 38.1841 18.3517C38.7294 18.5399 39.3149 18.6368 39.9402 18.643C41.0766 18.5147 42.1202 18.5147 43.0707 18.643C43.1725 17.7207 43.1725 16.7983 43.0707 15.876C42.4611 15.7464 41.8503 15.6008 41.2382 15.4391C40.5979 15.618 39.9616 15.618 39.3294 15.4391C38.283 15.7249 37.2396 15.8218 36.1989 15.7304C35.37 15.9046 34.5301 16.0017 33.6792 16.0217C33.9846 15.876 34.29 15.7304 34.5954 15.5848C35.116 15.3804 35.6758 15.2833 36.2752 15.2935C38.207 15.178 40.1413 15.1295 42.0781 15.1479Z" fill="#0E175C"/>
<path fill-rule="evenodd" clip-rule="evenodd" d="M45.5903 15.5847C45.9565 15.5496 46.2619 15.6468 46.5066 15.876C46.1404 15.9111 45.835 15.814 45.5903 15.5847Z" fill="#8C9AA2"/>
<path fill-rule="evenodd" clip-rule="evenodd" d="M35.8167 19.2255C35.3369 19.3614 34.8277 19.4584 34.2896 19.5168C33.9523 19.5068 33.6469 19.4096 33.3734 19.2255C33.4993 19.0965 33.6521 19.048 33.8315 19.0799C33.7988 18.8405 33.8498 18.6221 33.9842 18.4246C32.9003 18.3146 31.8313 18.1204 30.7773 17.8421C30.9157 17.5947 30.9665 17.3276 30.9301 17.0411C31.4172 16.857 31.9262 16.7357 32.4571 16.6771C32.2682 16.6433 32.1155 16.5705 31.999 16.4586C32.4125 16.1888 32.8707 16.0431 33.3734 16.0217C33.4752 16.0217 33.5769 16.0217 33.6788 16.0217C34.5297 16.0018 35.3696 15.9046 36.1984 15.7305C37.2391 15.8219 38.2826 15.7249 39.3289 15.4392C39.9612 15.618 40.5975 15.618 41.2378 15.4392C41.8498 15.6009 42.4607 15.7465 43.0703 15.8761C43.1721 16.7984 43.1721 17.7208 43.0703 18.643C42.1198 18.5147 41.0762 18.5147 39.9398 18.643C39.3144 18.6369 38.729 18.5399 38.1836 18.3518C37.9833 18.666 37.7289 18.7145 37.4201 18.4974C37.0139 18.6917 36.5811 18.8131 36.1221 18.8615C35.9303 18.9222 35.8284 19.0435 35.8167 19.2255Z" fill="#0E175C"/>
<path fill-rule="evenodd" clip-rule="evenodd" d="M49.7133 17.0411C50.4046 17.3462 51.0664 17.6859 51.6985 18.0605C51.3019 18.0927 51.3019 18.1655 51.6985 18.2789C51.2944 18.3513 50.8871 18.3756 50.4768 18.3517C50.5021 19.2753 50.4768 20.1976 50.4004 21.1187C50.1868 21.2245 49.9577 21.2974 49.7133 21.3371C49.8585 21.4417 49.8838 21.563 49.7896 21.7012C49.4272 21.4653 49.0455 21.271 48.6443 21.1187C48.2902 21.047 47.9848 20.9014 47.7281 20.6818C47.9173 20.5781 47.9936 20.4325 47.9571 20.2449C47.5862 20.1679 47.3063 19.9736 47.1172 19.6624C46.9305 19.5002 46.7269 19.4758 46.5064 19.5896C46.7959 19.7447 46.8214 19.866 46.5828 19.9536C45.989 19.7034 45.4037 19.4607 44.8266 19.2255C44.8266 18.9342 44.8266 18.643 44.8266 18.3517C44.5721 18.3517 44.3177 18.3517 44.0631 18.3517C44.0449 17.7915 44.1466 17.2575 44.3685 16.7498C45.0913 16.7902 45.804 16.7415 46.5064 16.6042C46.697 16.6828 46.8752 16.78 47.0409 16.8954C47.5392 16.8366 48.0228 16.8366 48.4916 16.8954C48.8138 16.9761 49.1192 17.0976 49.4079 17.2595C49.357 17.308 49.306 17.3566 49.2551 17.4051C49.6656 17.853 49.8183 17.7316 49.7133 17.0411Z" fill="#0E175C"/>
<path fill-rule="evenodd" clip-rule="evenodd" d="M38.1074 19.2255C39.7144 19.0496 41.3433 19.0737 42.994 19.2983C43.079 19.3541 43.1298 19.4269 43.1468 19.5167C41.4798 19.2815 39.8 19.1844 38.1074 19.2255Z" fill="#455660"/>
<path fill-rule="evenodd" clip-rule="evenodd" d="M31.9995 16.4586C32.116 16.5705 32.2687 16.6433 32.4576 16.6771C31.9267 16.7357 31.4177 16.8571 30.9305 17.0411C30.967 17.3276 30.9162 17.5947 30.7778 17.8421C31.8318 18.1204 32.9008 18.3147 33.9847 18.4246C33.8503 18.6221 33.7993 18.8405 33.832 19.0799C33.6526 19.048 33.4998 19.0965 33.3739 19.2256C33.6474 19.4096 33.9528 19.5068 34.2901 19.5168C34.8282 19.4584 35.3374 19.3614 35.8172 19.2256C36.1333 19.233 36.4132 19.136 36.6571 18.9343C36.92 18.9505 36.9454 19.0233 36.7334 19.1527C37.1375 19.2251 37.5448 19.2494 37.9551 19.2256C36.3345 19.4057 34.7565 19.7941 33.2212 20.3906C27.3989 22.672 23.5304 26.6525 21.6154 32.3321C21.4864 32.5026 21.3847 32.6969 21.31 32.9146C21.0736 32.9614 20.9718 33.107 21.0046 33.3515C20.0952 33.2258 19.179 33.1772 18.2559 33.2059C18.9913 33.0856 19.7548 33.0128 20.5465 32.9874C20.375 32.8354 20.1714 32.7384 19.9356 32.6962C20.2963 32.4441 20.7036 32.3226 21.1573 32.3321C21.1573 30.7787 21.1573 29.2254 21.1573 27.672C21.0046 27.672 20.8519 27.672 20.6992 27.672C20.674 27.3331 20.5723 27.0177 20.3938 26.7254C20.57 26.5923 20.5445 26.471 20.3174 26.3613C20.2666 26.507 20.2155 26.6526 20.1647 26.7982C20.1138 26.7497 20.0628 26.7011 20.012 26.6526C19.6997 26.8785 19.4706 27.1697 19.3248 27.5264C19.1988 27.6554 19.0461 27.7039 18.8667 27.672C20.1209 25.2052 21.8006 23.0451 23.906 21.1915C25.5508 19.8654 27.2816 18.6519 29.0981 17.5508C30.0193 17.0764 30.9866 16.7123 31.9995 16.4586Z" fill="#0E175C"/>
<path fill-rule="evenodd" clip-rule="evenodd" d="M51.6982 18.0605C56.3596 20.6123 59.7191 24.253 61.7769 28.9826C61.9288 29.8053 62.2087 30.5819 62.6167 31.3127C62.7212 32.0877 62.7975 32.8645 62.8458 33.6427C63.6061 33.7021 64.2933 33.9448 64.9074 34.3709C67.9807 36.2358 69.6605 38.9056 69.9467 42.3804C70.1334 44.3524 69.828 46.2455 69.0304 48.0599C68.9223 48.1882 68.795 48.2852 68.6487 48.3512C68.6726 48.1512 68.6471 47.957 68.5723 47.7687C68.4196 47.9628 68.2669 47.9628 68.1142 47.7687C67.7614 48.1208 67.6597 48.0238 67.8088 47.4774C67.8596 47.3803 67.9106 47.2833 67.9615 47.1862C68.1651 47.3803 68.3688 47.3803 68.5723 47.1862C68.6511 46.8171 68.8293 46.5017 69.1068 46.2396C69.037 46.1793 68.986 46.1065 68.9541 46.0211C69.0593 45.738 69.1357 45.4468 69.1831 45.1474C69.7356 44.7936 69.8375 44.3567 69.4886 43.8367C69.0217 43.9752 68.5383 44.0237 68.0378 43.9823C68.0378 43.5939 68.0378 43.2057 68.0378 42.8173C67.8851 42.8173 67.7324 42.8173 67.5797 42.8173C67.5797 42.6717 67.5797 42.5261 67.5797 42.3804C66.3031 42.3322 65.0306 42.3807 63.762 42.5261C63.5115 42.9714 63.3842 43.4569 63.3803 43.9823C63.3407 43.2961 63.1372 42.6651 62.7695 42.0892C62.6931 45.8752 62.6676 49.6616 62.6931 53.4482C62.5407 49.5413 62.4898 45.6093 62.5404 41.6523C62.6403 38.8325 62.5384 36.0655 62.235 33.3515C61.374 33.2466 60.5088 33.1981 59.639 33.2058C59.3535 33.109 59.0481 33.012 58.7227 32.9146C58.6473 32.6924 58.5454 32.4982 58.4173 32.3321C57.2042 28.8781 55.1681 25.9412 52.309 23.5216C51.0956 22.675 49.8739 21.8741 48.644 21.1187C49.0452 21.271 49.427 21.4653 49.7893 21.7012C49.8836 21.563 49.8582 21.4417 49.713 21.3371C49.9575 21.2974 50.1865 21.2246 50.4002 21.1187C50.4765 20.1976 50.5019 19.2753 50.4765 18.3517C50.8869 18.3756 51.2941 18.3513 51.6982 18.2789C51.3016 18.1655 51.3016 18.0927 51.6982 18.0605Z" fill="#0E175C"/>
<path fill-rule="evenodd" clip-rule="evenodd" d="M33.221 20.3906C33.2256 20.5358 33.1492 20.6329 32.9919 20.6818C31.7683 21.0424 30.9792 21.6491 30.625 22.5022C30.231 22.5805 29.9001 22.7503 29.6324 23.0119C29.2164 22.817 29.0382 22.9627 29.0979 23.4488C29.2506 23.4488 29.4033 23.4488 29.556 23.4488C29.5126 23.7276 29.5635 23.9703 29.7087 24.1769C29.7087 24.5653 29.7087 24.9535 29.7087 25.3419C29.1397 25.2949 28.5797 25.3435 28.0289 25.4876C27.5465 25.8391 27.0374 26.1547 26.5019 26.4341C26.7514 26.5061 27.0059 26.5303 27.2654 26.507C27.2654 26.6526 27.2654 26.7982 27.2654 26.9438C26.8581 26.9438 26.451 26.9438 26.0437 26.9438C26.0689 27.4317 26.0434 27.9171 25.9674 28.4001C25.3938 28.7856 25.1648 29.3195 25.2802 30.002C24.8729 30.002 24.4658 30.002 24.0585 30.002C24.0585 30.3904 24.0585 30.7787 24.0585 31.1671C23.8979 31.1454 23.7452 31.1695 23.6004 31.2399C23.4413 31.5192 23.2632 31.7861 23.066 32.0408C23.0151 31.9923 22.9641 31.9437 22.9132 31.8952C22.7236 32.1924 22.4437 32.3622 22.0734 32.4049C22.2418 32.6496 22.1909 32.868 21.9206 33.0602C21.8826 32.9027 21.8573 32.7085 21.8443 32.4777C21.7858 32.5587 21.7095 32.6072 21.6152 32.6233C21.6152 32.5262 21.6152 32.4292 21.6152 32.3321C23.5302 26.6524 27.3987 22.672 33.221 20.3906Z" fill="#F4F7FA"/>
<path fill-rule="evenodd" clip-rule="evenodd" d="M18.2558 33.2058C18.0587 33.1713 17.906 33.2198 17.7977 33.3514C17.671 34.8309 17.5946 36.3356 17.5687 37.8659C17.4925 37.0421 17.467 36.2168 17.4923 35.3902C17.4634 34.8298 17.4634 34.2958 17.4923 33.7883C17.3439 33.7748 17.1912 33.7263 17.0342 33.6427C17.2138 31.5274 17.8246 29.5373 18.8667 27.6719C19.0461 27.7038 19.1988 27.6553 19.3248 27.5263C19.4706 27.1697 19.6997 26.8784 20.012 26.6525C20.0628 26.701 20.1138 26.7497 20.1647 26.7982C20.2155 26.6525 20.2665 26.5069 20.3174 26.3613C20.5445 26.4709 20.57 26.5922 20.3937 26.7253C20.5723 27.0176 20.674 27.333 20.6992 27.6719C20.8519 27.6719 21.0046 27.6719 21.1573 27.6719C21.1573 29.2253 21.1573 30.7786 21.1573 32.332C20.7036 32.3226 20.2963 32.444 19.9356 32.6961C20.1714 32.7383 20.375 32.8353 20.5464 32.9874C19.7548 33.0127 18.9913 33.0855 18.2558 33.2058Z" fill="#0E175C"/>
<path fill-rule="evenodd" clip-rule="evenodd" d="M21.615 32.3321C21.615 32.4292 21.615 32.5262 21.615 32.6233C21.6253 32.8358 21.5744 33.0299 21.4623 33.2058C21.4623 33.2543 21.4623 33.303 21.4623 33.3515C21.3243 33.2482 21.2734 33.1026 21.3096 32.9146C21.3843 32.6969 21.486 32.5026 21.615 32.3321Z" fill="#7A858F"/>
<path fill-rule="evenodd" clip-rule="evenodd" d="M21.4624 33.3514C21.4624 33.3029 21.4624 33.2543 21.4624 33.2058C22.1865 33.2814 22.8992 33.2814 23.6003 33.2058C23.5669 33.3769 23.6177 33.5226 23.753 33.6427C24.4474 33.442 24.8038 33.6846 24.822 34.3708C24.1635 34.1056 23.5018 33.8387 22.8368 33.5699C22.389 33.4311 21.9309 33.3583 21.4624 33.3514Z" fill="#DAE2E7"/>
<path fill-rule="evenodd" clip-rule="evenodd" d="M21.31 32.9146C21.2738 33.1026 21.3246 33.2482 21.4627 33.3514C21.9312 33.3583 22.3893 33.4311 22.837 33.5699C23.5021 33.8387 24.1637 34.1056 24.8222 34.3708C26.4469 35.2405 27.7194 36.4542 28.6399 38.0115C30.9481 42.7239 30.3881 47.0928 26.9601 51.1181C26.874 50.6752 26.8231 50.2625 26.8074 49.8803C27.1124 49.7696 27.3668 49.6968 27.5709 49.6618C26.7947 49.7961 26.4383 49.4563 26.502 48.6424C26.7566 48.6424 27.011 48.6424 27.2655 48.6424C27.348 48.1135 27.3988 47.5795 27.4182 47.0405C27.3164 46.4095 27.2147 45.7783 27.1128 45.1473C27.1136 43.9816 27.1136 42.8166 27.1128 41.6523C26.7566 41.6523 26.4001 41.6523 26.0439 41.6523C26.0439 43.9823 26.0439 46.3124 26.0439 48.6424C25.6366 48.6424 25.2295 48.6424 24.8222 48.6424C24.8222 47.8658 24.8222 47.089 24.8222 46.3124C24.4149 46.3124 24.0078 46.3124 23.6006 46.3124C23.4987 49.4191 23.397 49.4191 23.2951 46.3124C23.0916 46.3124 22.8879 46.3124 22.6843 46.3124C22.7462 46.8291 22.6698 47.3144 22.4553 47.7686C22.4093 46.8952 22.4346 46.0214 22.5316 45.1473C22.5282 44.6973 22.4265 44.309 22.2262 43.9823C22.4298 41.6523 22.6335 39.3222 22.837 36.9921C22.5825 36.9921 22.3281 36.9921 22.0735 36.9921C22.0735 36.2155 22.0735 35.4387 22.0735 34.6621C21.7681 34.6621 21.4627 34.6621 21.1572 34.6621C21.2046 34.1942 21.1537 33.7573 21.0045 33.3514C20.9717 33.1069 21.0736 32.9613 21.31 32.9146Z" fill="#0E175C"/>
<path fill-rule="evenodd" clip-rule="evenodd" d="M59.639 33.2058C59.1178 33.9118 59.3214 34.3001 60.2499 34.3708C60.0463 35.2446 60.0463 36.1184 60.2499 36.9921C60.0971 36.9921 59.9444 36.9921 59.7917 36.9921C59.7656 35.4418 59.6893 35.4418 59.5627 36.9921C59.4865 37.7673 59.461 38.544 59.4863 39.3222C59.8426 39.3222 60.199 39.3222 60.5553 39.3222C60.5076 39.9302 60.6095 40.5127 60.8607 41.0697C60.7468 41.2497 60.6959 41.444 60.708 41.6523C60.3007 41.6523 59.8936 41.6523 59.4863 41.6523C59.5156 42.1038 59.6173 42.5407 59.7917 42.9629C59.6734 43.3975 59.5717 43.8343 59.4863 44.2736C59.4318 44.5778 59.3301 44.869 59.1809 45.1473C59.079 41.6285 58.9773 38.1334 58.8755 34.6621C58.8755 34.2252 58.8755 33.7883 58.8755 33.3514C59.0922 33.2129 59.3466 33.1644 59.639 33.2058Z" fill="#1FAECC"/>
<path fill-rule="evenodd" clip-rule="evenodd" d="M59.639 33.2058C60.5088 33.1981 61.3741 33.2466 62.235 33.3514C62.3857 36.1073 62.4366 38.8743 62.3877 41.6523C62.4132 43.9827 62.3877 46.3128 62.3114 48.6424C62.2605 47.5745 62.2095 46.5065 62.1587 45.4386C62.0215 46.5261 61.996 47.5942 62.0823 48.6424C61.8788 48.6424 61.675 48.6424 61.4715 48.6424C61.3594 47.2978 61.3594 45.9629 61.4715 44.6376C61.3951 44.4192 61.3188 44.2008 61.2424 43.9823C61.1293 43.8161 61.0019 43.8161 60.8607 43.9823C60.5644 44.5431 60.2335 44.98 59.8681 45.293C59.7615 44.9283 59.6343 44.5886 59.4863 44.2736C59.5717 43.8344 59.6734 43.3975 59.7917 42.9629C59.6173 42.5407 59.5156 42.1039 59.4863 41.6523C59.8936 41.6523 60.3007 41.6523 60.708 41.6523C60.6959 41.444 60.7467 41.2497 60.8607 41.0697C60.6095 40.5127 60.5076 39.9302 60.5552 39.3222C60.199 39.3222 59.8426 39.3222 59.4863 39.3222C59.4609 38.544 59.4865 37.7673 59.5627 36.9921C59.6892 35.4418 59.7656 35.4418 59.7917 36.9921C59.9444 36.9921 60.0971 36.9921 60.2498 36.9921C60.0463 36.1184 60.0463 35.2446 60.2498 34.3708C59.3214 34.3001 59.1178 33.9118 59.639 33.2058Z" fill="#1FAECC"/>
<path fill-rule="evenodd" clip-rule="evenodd" d="M18.2555 33.2058C19.1786 33.1771 20.0948 33.2258 21.0042 33.3515C21.0297 40.002 21.0042 46.6524 20.9279 53.3025C20.864 49.6583 20.7113 46.0176 20.4697 42.3804C20.4189 43.1086 20.3679 43.8367 20.317 44.5648C20.2662 44.0795 20.2152 43.5939 20.1643 43.1086C20.0773 43.5955 19.8992 43.644 19.6298 43.2542C19.4823 42.9781 19.4315 42.6868 19.4771 42.3804C19.2041 42.4219 18.9495 42.3734 18.7136 42.2348C19.1607 42.0915 19.6189 42.043 20.088 42.0892C20.088 41.9435 20.088 41.7979 20.088 41.6523C19.5489 41.5779 19.0654 41.675 18.6373 41.9435C18.5864 41.895 18.5354 41.8464 18.4845 41.7979C18.3453 42.5208 18.2689 43.2489 18.2555 43.9823C18.1028 43.9823 17.9501 43.9823 17.7974 43.9823C17.7974 42.0407 17.7974 40.0989 17.7974 38.1572C17.7974 36.5553 17.7974 34.9534 17.7974 33.3515C17.9056 33.2198 18.0583 33.1713 18.2555 33.2058Z" fill="#1FAECC"/>
<path fill-rule="evenodd" clip-rule="evenodd" d="M62.0396 33.3838C62.343 36.0979 62.6404 38.8325 62.5406 41.6523C62.4897 41.6523 62.4387 41.6523 62.3879 41.6523C62.4367 38.8743 62.1903 36.1397 62.0396 33.3838Z" fill="#1FAECC"/>
<path fill-rule="evenodd" clip-rule="evenodd" d="M58.1124 33.3515C58.2143 33.3515 58.316 33.3515 58.4178 33.3515C58.4221 34.9541 58.5238 36.2648 58.7232 37.2834C58.5386 39.9052 58.5386 42.5265 58.7232 45.1474C58.6447 45.932 58.5175 46.7086 58.3415 47.4774C58.2008 46.4617 58.099 45.4423 58.0361 44.4192C57.9599 45.0485 57.9344 45.6795 57.9597 46.3124C57.7051 46.3124 57.4507 46.3124 57.1962 46.3124C57.0396 45.1319 56.7851 43.9669 56.4326 42.8173C56.1923 42.3924 55.8869 42.004 55.5164 41.6523C55.3667 41.2757 55.3159 40.8873 55.3637 40.4873C54.5476 40.4631 53.7332 40.4874 52.9204 40.5601C52.5349 40.8343 52.3312 41.1984 52.3095 41.6523C51.8566 41.7091 51.4495 41.6119 51.0879 41.361C50.9822 41.4375 50.9059 41.5346 50.8588 41.6523C50.8917 41.1701 50.8917 40.6847 50.8588 40.196C50.8283 40.461 50.7009 40.6552 50.4771 40.7785C50.7696 39.2981 51.4315 37.9874 52.4622 36.8466C53.9595 35.0949 55.843 33.9299 58.1124 33.3515Z" fill="#0E175C"/>
<path fill-rule="evenodd" clip-rule="evenodd" d="M21.1572 34.6621C21.4626 34.6621 21.7681 34.6621 22.0735 34.6621C22.0735 35.4388 22.0735 36.2156 22.0735 36.9922C22.328 36.9922 22.5824 36.9922 22.837 36.9922C22.6334 39.3222 22.4297 41.6523 22.2262 43.9824C21.9858 44.046 21.8076 44.1916 21.6917 44.4192C21.6179 44.2812 21.5926 44.1356 21.6153 43.9824C21.4626 43.9824 21.3099 43.9824 21.1572 43.9824C21.1572 40.8757 21.1572 37.7688 21.1572 34.6621Z" fill="#0E175C"/>
<path fill-rule="evenodd" clip-rule="evenodd" d="M17.7977 33.3515C17.7977 34.9534 17.7977 36.5553 17.7977 38.1572C17.6456 40.4618 17.5946 42.7918 17.645 45.1474C17.5202 44.7878 17.4438 44.3996 17.4159 43.9823C17.2891 44.7553 17.2128 45.532 17.1868 46.3124C16.9833 46.3124 16.7796 46.3124 16.576 46.3124C16.2788 45.5994 16.177 44.8228 16.2706 43.9823C15.4562 43.9823 14.6417 43.9823 13.8273 43.9823C13.8273 43.5939 13.8273 43.2057 13.8273 42.8173C13.42 42.8173 13.0129 42.8173 12.6056 42.8173C12.6056 42.6717 12.6056 42.5261 12.6056 42.3804C12.1983 42.3804 11.7912 42.3804 11.384 42.3804C11.331 44.3742 11.2038 44.4229 11.0022 42.5261C10.9513 42.7688 10.9003 43.0114 10.8495 43.2542C10.7986 43.2057 10.7476 43.1571 10.6968 43.1086C10.7 42.0423 10.7508 40.9744 10.8495 39.9047C11.001 39.0326 11.4591 38.3529 12.2238 37.8659C12.3961 37.5973 12.4725 37.306 12.4529 36.9922C12.9871 36.9954 13.1906 36.7769 13.0637 36.3369C13.2966 36.1899 13.5512 36.1171 13.8273 36.1184C13.8273 35.9243 13.8273 35.73 13.8273 35.5359C14.2692 35.6026 14.651 35.5055 14.9726 35.2446C15.0744 35.4388 15.1761 35.4388 15.278 35.2446C15.3288 35.3418 15.3798 35.4388 15.4307 35.5359C15.6729 35.4083 15.902 35.2627 16.1179 35.099C16.2681 35.5254 16.319 35.9623 16.2706 36.4097C15.3771 36.2894 14.5627 36.4593 13.8273 36.9194C14.8122 36.9045 15.7538 37.0258 16.6524 37.2834C16.7282 36.8981 16.7538 36.5097 16.7287 36.1184C16.8814 36.1184 17.0341 36.1184 17.1868 36.1184C17.1222 35.7862 17.2241 35.5435 17.4922 35.3903C17.4669 36.2169 17.4924 37.0421 17.5686 37.8659C17.5946 36.3357 17.6709 34.8309 17.7977 33.3515Z" fill="#0E175C"/>
<path fill-rule="evenodd" clip-rule="evenodd" d="M17.034 33.6427C17.191 33.7263 17.3437 33.7748 17.4922 33.7884C17.4633 34.2959 17.4633 34.8299 17.4922 35.3903C17.224 35.5435 17.1221 35.7862 17.1867 36.1184C17.034 36.1184 16.8813 36.1184 16.7286 36.1184C16.7537 36.5097 16.7282 36.8981 16.6523 37.2834C15.7537 37.0258 14.8121 36.9045 13.8272 36.9194C14.5626 36.4593 15.377 36.2894 16.2705 36.4097C16.3189 35.9623 16.2681 35.5254 16.1178 35.099C15.9019 35.2627 15.6728 35.4083 15.4306 35.5359C15.3798 35.4388 15.3287 35.3418 15.2779 35.2446C15.176 35.4388 15.0743 35.4388 14.9725 35.2446C14.6509 35.5055 14.2691 35.6026 13.8272 35.5359C13.8272 35.73 13.8272 35.9243 13.8272 36.1184C13.5511 36.1171 13.2965 36.1899 13.0636 36.3369C13.1905 36.7769 12.987 36.9954 12.4528 36.9922C12.4724 37.306 12.396 37.5973 12.2238 37.866C11.459 38.3529 11.0009 39.0326 10.8494 39.9048C10.7507 40.9744 10.6999 42.0423 10.6967 43.1086C10.7475 43.1571 10.7985 43.2057 10.8494 43.2542C10.9002 43.0114 10.9512 42.7688 11.0021 42.5261C11.2037 44.4229 11.3309 44.3742 11.3839 42.3804C11.7911 42.3804 12.1983 42.3804 12.6055 42.3804C12.6055 42.5261 12.6055 42.6717 12.6055 42.8173C13.0128 42.8173 13.4199 42.8173 13.8272 42.8173C13.8272 43.2057 13.8272 43.594 13.8272 43.9823C14.6416 43.9823 15.4561 43.9823 16.2705 43.9823C16.1769 44.8228 16.2787 45.5994 16.5759 46.3124C16.535 46.6938 16.5858 47.0579 16.7286 47.4046C16.6176 47.6083 16.5412 47.8268 16.4996 48.0599C16.3444 47.8948 16.2425 47.9433 16.1941 48.2056C15.8632 48.0843 15.6342 47.8658 15.507 47.5502C15.6088 47.5017 15.7105 47.4531 15.8124 47.4046C15.6852 47.089 15.4561 46.8706 15.1252 46.7493C15.0514 46.6112 15.0261 46.4656 15.0488 46.3124C15.6036 46.3207 15.6291 46.1751 15.1252 45.8755C14.2932 45.9696 13.4534 46.0666 12.6055 46.1668C12.374 46.4422 12.1703 46.7334 11.9947 47.0405C11.8139 46.8154 11.6612 46.5726 11.5366 46.3124C11.5335 47.5172 11.2536 47.6143 10.6967 46.6037C10.6524 46.2466 10.5507 45.9068 10.3913 45.5843C10.3204 45.6708 10.2949 45.7679 10.3149 45.8755C10.1924 45.6641 10.1161 45.4214 10.0859 45.1474C10.0095 43.9834 9.98415 42.8183 10.0095 41.6523C10.6422 38.3385 12.4747 35.79 15.507 34.0068C16.006 33.8393 16.515 33.7179 17.034 33.6427Z" fill="#0E175C"/>
<path fill-rule="evenodd" clip-rule="evenodd" d="M68.6487 48.3512C67.4879 50.8666 65.5535 52.5655 62.8459 53.4482C62.795 53.4482 62.744 53.4482 62.6932 53.4482C62.6677 49.6616 62.6932 45.8752 62.7695 42.0892C63.1372 42.6651 63.3408 43.2961 63.3803 43.9823C63.3843 43.4569 63.5115 42.9714 63.7621 42.5261C65.0306 42.3807 66.3032 42.3322 67.5798 42.3804C67.5798 42.5261 67.5798 42.6717 67.5798 42.8173C67.7325 42.8173 67.8852 42.8173 68.0379 42.8173C68.0379 43.2057 68.0379 43.594 68.0379 43.9823C68.5383 44.0237 69.0218 43.9752 69.4886 43.8367C69.8376 44.3568 69.7357 44.7936 69.1832 45.1474C69.1357 45.4468 69.0594 45.738 68.9542 46.0211C68.9861 46.1065 69.0371 46.1793 69.1069 46.2396C68.8294 46.5017 68.6512 46.8171 68.5724 47.1862C68.3688 47.3803 68.1651 47.3803 67.9616 47.1862C67.9107 47.2833 67.8597 47.3803 67.8088 47.4774C67.6598 48.0238 67.7615 48.1208 68.1143 47.7687C68.267 47.9628 68.4197 47.9628 68.5724 47.7687C68.6472 47.957 68.6727 48.1512 68.6487 48.3512Z" fill="#0E175C"/>
<path fill-rule="evenodd" clip-rule="evenodd" d="M28.6398 38.0115C29.4469 38.1025 29.8032 38.5394 29.7088 39.3222C30.2639 39.3449 30.3147 39.5147 29.8615 39.8319C30.3567 40.1956 30.6113 40.6812 30.625 41.2881C30.4109 41.9312 30.4873 42.5381 30.8541 43.1085C30.9042 44.0212 30.9297 44.9192 30.9304 45.8026C30.6548 46.358 30.324 46.8677 29.9378 47.3317C29.887 47.2832 29.836 47.2346 29.7851 47.1861C29.7237 47.3859 29.6474 47.58 29.5561 47.7686C29.5434 48.0942 29.5942 48.4341 29.7088 48.788C29.3493 49.0423 29.1966 49.382 29.2507 49.8074C28.5902 49.7494 28.2084 50.0407 28.1054 50.6812C27.9815 51.5823 27.7524 52.4561 27.4182 53.3025C27.2948 53.0224 27.2184 52.7312 27.1891 52.4287C26.9787 53.1982 26.7751 53.1982 26.5783 52.4287C26.1347 52.3702 25.7019 52.4673 25.2803 52.72C25.887 52.2385 26.447 51.7045 26.9601 51.1181C30.388 47.0927 30.948 42.7239 28.6398 38.0115Z" fill="#EEF5F8"/>
<path fill-rule="evenodd" clip-rule="evenodd" d="M58.4177 33.3515C58.5704 33.3515 58.7231 33.3515 58.8758 33.3515C58.8758 33.7884 58.8758 34.2252 58.8758 34.6621C58.8278 41.1199 58.9042 47.576 59.1048 54.0307C59.2133 54.2452 59.3913 54.3423 59.6393 54.322C59.6393 54.4676 59.6393 54.6132 59.6393 54.7588C59.4417 54.8739 59.2635 55.0195 59.1048 55.1957C58.7426 55.6923 58.4627 56.2263 58.265 56.7976C57.0331 58.0866 55.6587 59.2031 54.1419 60.1471C53.7448 60.2881 53.3884 60.4822 53.0729 60.7296C52.8501 60.7198 52.6466 60.7683 52.4621 60.8752C52.2 60.8564 51.9455 60.808 51.6985 60.7296C51.7624 60.6245 51.8641 60.5516 52.004 60.5112C51.8513 60.4627 51.6985 60.414 51.5458 60.3655C52.0012 60.293 52.4593 60.2687 52.9202 60.2927C52.9202 59.5161 52.9202 58.7393 52.9202 57.9627C54.0136 57.9959 55.0825 57.9959 56.1271 57.9627C56.091 57.5657 56.2182 57.2259 56.5088 56.9433C56.9095 56.9389 57.3168 56.9874 57.7305 57.0889C57.8068 56.7976 57.8832 56.5064 57.9595 56.2151C57.6989 55.5709 57.8006 54.9883 58.265 54.4676C58.4421 53.891 58.4676 53.3085 58.3413 52.72C58.2905 52.9142 58.2394 53.1084 58.1886 53.3026C58.058 52.7506 57.8798 52.2168 57.6541 51.7006C57.3996 51.555 57.196 51.3609 57.0433 51.1181C56.7496 51.0005 56.4442 50.9276 56.1271 50.8997C55.9998 50.5841 55.7708 50.3657 55.4399 50.2444C55.3637 49.7125 55.3383 49.1787 55.3635 48.6424C54.5491 48.7396 53.7346 48.8366 52.9202 48.9337C52.97 48.2953 52.919 47.6643 52.7675 47.0405C52.3332 46.8635 51.9514 46.6207 51.6222 46.3124C51.5458 46.458 51.4695 46.6037 51.3931 46.7493C51.5591 47.3566 51.5591 47.9876 51.3931 48.6424C50.9543 47.926 50.6488 47.1493 50.4769 46.3124C50.2733 44.5649 50.2733 42.8173 50.4769 41.0698C50.4769 40.9726 50.4769 40.8757 50.4769 40.7785C50.7008 40.6552 50.8281 40.461 50.8587 40.196C50.8915 40.6847 50.8915 41.1701 50.8587 41.6523C50.9057 41.5346 50.982 41.4375 51.0877 41.361C51.4493 41.6119 51.8564 41.7091 52.3094 41.6523C52.3311 41.1984 52.5348 40.8343 52.9202 40.5601C53.7331 40.4874 54.5474 40.4631 55.3635 40.4873C55.3157 40.8873 55.3666 41.2757 55.5162 41.6523C55.8867 42.004 56.1921 42.3924 56.4325 42.8173C56.7849 43.9669 57.0395 45.1319 57.196 46.3124C57.4506 46.3124 57.705 46.3124 57.9595 46.3124C57.9342 45.6795 57.9597 45.0485 58.0359 44.4192C58.0988 45.4423 58.2007 46.4617 58.3413 47.4774C58.5174 46.7086 58.6446 45.932 58.7231 45.1474C58.5384 42.5265 58.5384 39.9052 58.7231 37.2834C58.5236 36.2648 58.4219 34.9541 58.4177 33.3515Z" fill="#0E175C"/>
<path fill-rule="evenodd" clip-rule="evenodd" d="M50.4767 41.0698C50.2732 42.8173 50.2732 44.5648 50.4767 46.3124C50.2477 45.4736 50.1458 44.5998 50.1713 43.6911C50.1458 42.7824 50.2477 41.9086 50.4767 41.0698Z" fill="#5E666E"/>
<path fill-rule="evenodd" clip-rule="evenodd" d="M10.3149 46.6036C10.5553 46.8369 10.6572 47.1282 10.6204 47.4774C10.38 47.2441 10.2781 46.9529 10.3149 46.6036Z" fill="#A1A9B1"/>
<path fill-rule="evenodd" clip-rule="evenodd" d="M17.6446 45.1474C17.7758 47.9386 17.7758 50.7056 17.6446 53.4482C16.8446 53.3312 16.0811 53.1128 15.354 52.7928C13.9612 51.9986 12.8159 50.955 11.9181 49.6618C11.4812 48.9245 11.0486 48.1964 10.6201 47.4774C10.6569 47.1282 10.5551 46.8369 10.3147 46.6036C10.3147 46.3609 10.3147 46.1183 10.3147 45.8755C10.2947 45.7679 10.3202 45.6707 10.3911 45.5842C10.5505 45.9068 10.6522 46.2466 10.6965 46.6036C11.2534 47.6143 11.5333 47.5172 11.5364 46.3124C11.661 46.5726 11.8137 46.8154 11.9945 47.0405C12.1701 46.7334 12.3738 46.4421 12.6053 46.1668C13.4531 46.0666 14.293 45.9696 15.125 45.8755C15.6289 46.1751 15.6034 46.3207 15.0486 46.3124C15.0259 46.4656 15.0512 46.6112 15.125 46.7493C15.4559 46.8706 15.685 47.089 15.8122 47.4046C15.7103 47.4531 15.6086 47.5017 15.5067 47.5502C15.6339 47.8658 15.863 48.0842 16.1939 48.2056C16.2423 47.9433 16.3442 47.8948 16.4993 48.0599C16.541 47.8268 16.6174 47.6083 16.7284 47.4046C16.5856 47.0579 16.5348 46.6938 16.5757 46.3124C16.7793 46.3124 16.983 46.3124 17.1865 46.3124C17.2125 45.532 17.2888 44.7553 17.4156 43.9823C17.4435 44.3996 17.5199 44.7878 17.6446 45.1474Z" fill="#0E175C"/>
<path fill-rule="evenodd" clip-rule="evenodd" d="M26.9601 51.1181C26.447 51.7045 25.887 52.2386 25.2803 52.72C24.7162 53.0861 24.1054 53.3774 23.4478 53.5938C22.7016 53.7981 21.938 53.8951 21.1572 53.885C21.1572 50.5841 21.1572 47.2833 21.1572 43.9823C21.3099 43.9823 21.4626 43.9823 21.6153 43.9823C21.5926 44.1355 21.6179 44.2811 21.6917 44.4192C21.8076 44.1916 21.9858 44.0459 22.2262 43.9823C22.4265 44.309 22.5282 44.6973 22.5316 45.1473C22.4346 46.0214 22.4093 46.8952 22.4552 47.7686C22.6698 47.3144 22.7461 46.829 22.6843 46.3124C22.8879 46.3124 23.0916 46.3124 23.2951 46.3124C23.397 49.419 23.4987 49.419 23.6005 46.3124C24.0078 46.3124 24.4149 46.3124 24.8222 46.3124C24.8222 47.089 24.8222 47.8658 24.8222 48.6424C25.2295 48.6424 25.6366 48.6424 26.0439 48.6424C26.0439 46.3124 26.0439 43.9823 26.0439 41.6523C26.4001 41.6523 26.7565 41.6523 27.1128 41.6523C27.1136 42.8166 27.1136 43.9816 27.1128 45.1473C27.2147 45.7783 27.3164 46.4095 27.4182 47.0405C27.3988 47.5795 27.348 48.1135 27.2655 48.6424C27.0109 48.6424 26.7565 48.6424 26.502 48.6424C26.4383 49.4563 26.7947 49.7961 27.5709 49.6618C27.3668 49.6968 27.1123 49.7696 26.8074 49.8803C26.8231 50.2625 26.874 50.6752 26.9601 51.1181Z" fill="#0E175C"/>
<path fill-rule="evenodd" clip-rule="evenodd" d="M20.9281 33.3838C21.0708 33.7908 21.1195 34.2288 21.0742 34.698C21.0742 37.8131 21.0742 40.9283 21.0742 44.0433C21.0742 47.3532 21.0742 50.6629 21.0742 53.9727C20.3068 53.8581 19.5277 53.7851 18.7365 53.7537C18.5055 53.6505 18.2864 53.5288 18.079 53.3886C18.0112 53.4754 17.9868 53.5728 18.006 53.6807C17.861 53.7058 17.7637 53.657 17.7138 53.5347C17.8393 50.7847 17.8393 48.0103 17.7138 45.2115C17.6656 42.8496 17.7144 40.5133 17.8599 38.2025C17.8599 40.1494 17.8599 42.0964 17.8599 44.0433C18.006 44.0433 18.1521 44.0433 18.2982 44.0433C18.311 43.308 18.3841 42.5779 18.5173 41.853C18.566 41.9016 18.6148 41.9504 18.6635 41.999C19.0731 41.7298 19.5357 41.6324 20.0514 41.707C20.0514 41.853 20.0514 41.999 20.0514 42.1451C19.6026 42.0988 19.1643 42.1474 18.7365 42.2911C18.9622 42.4301 19.2058 42.4787 19.467 42.4371C19.4233 42.7443 19.472 43.0364 19.6131 43.3132C19.8709 43.7041 20.0412 43.6555 20.1245 43.1672C20.1731 43.6539 20.2219 44.1407 20.2706 44.6274C20.3192 43.8973 20.368 43.1672 20.4167 42.4371C20.6478 46.0841 20.7939 49.7346 20.855 53.3886C20.9281 46.7206 20.9525 40.0523 20.9281 33.3838Z" fill="#1FAECC"/>
<path fill-rule="evenodd" clip-rule="evenodd" d="M58.8757 34.6621C58.9775 38.1335 59.0792 41.6286 59.1811 45.1474C59.3303 44.8691 59.432 44.5778 59.4865 44.2736C59.6345 44.5886 59.7617 44.9284 59.8683 45.293C60.2337 44.9801 60.5646 44.5432 60.8609 43.9824C61.0021 43.8162 61.1295 43.8162 61.2426 43.9824C61.319 44.2008 61.3954 44.4192 61.4717 44.6377C61.3596 45.9629 61.3596 47.2979 61.4717 48.6425C61.6753 48.6425 61.879 48.6425 62.0825 48.6425C61.9963 47.5942 62.0218 46.5262 62.1589 45.4386C62.2097 46.5065 62.2607 47.5746 62.3116 48.6425C62.388 46.3128 62.4135 43.9828 62.388 41.6523C62.4388 41.6523 62.4898 41.6523 62.5407 41.6523C62.4901 45.6093 62.541 49.5413 62.6934 53.4482C62.7442 53.4482 62.7952 53.4482 62.8461 53.4482C62.1219 53.6985 61.3584 53.8685 60.5555 53.9579C60.0682 54.0638 59.7628 54.3309 59.6392 54.7589C59.6392 54.6132 59.6392 54.4676 59.6392 54.322C59.3912 54.3424 59.2132 54.2452 59.1047 54.0307C58.9041 47.576 58.8277 41.1199 58.8757 34.6621Z" fill="#1FAECC"/>
<path fill-rule="evenodd" clip-rule="evenodd" d="M52.9199 50.9725C53.2762 51.2153 53.5816 51.5066 53.8362 51.8463C53.378 51.7007 53.0726 51.4094 52.9199 50.9725Z" fill="#8D9AA6"/>
<path fill-rule="evenodd" clip-rule="evenodd" d="M54.9053 52.5744C55.4616 52.7144 55.5124 52.9571 55.058 53.3026C55.0784 53.0416 55.0276 52.799 54.9053 52.5744Z" fill="#9AA1B1"/>
<path fill-rule="evenodd" clip-rule="evenodd" d="M55.0581 53.3025C54.9562 53.5453 54.8545 53.7879 54.7527 54.0306C54.6508 54.0306 54.5491 54.0306 54.4473 54.0306C54.5426 53.7024 54.7461 53.4596 55.0581 53.3025Z" fill="#5A6970"/>
<path fill-rule="evenodd" clip-rule="evenodd" d="M51.6984 60.7296C51.6984 60.7781 51.6984 60.8267 51.6984 60.8752C47.7095 60.939 43.7138 60.939 39.7108 60.8752C39.4503 60.7575 39.3231 60.5634 39.3291 60.2927C38.9728 60.2927 38.6164 60.2927 38.2601 60.2927C38.2978 59.413 38.247 58.5392 38.1074 57.6714C38.2116 57.1416 38.2879 56.6076 38.3365 56.0695C38.6216 56.4056 38.7743 56.794 38.7946 57.2345C38.8389 57.0097 38.9406 56.8155 39.1 56.652C39.6188 56.996 40.0259 57.4329 40.3217 57.9626C40.4362 57.8715 40.5636 57.7987 40.7034 57.7442C41.6879 57.6922 42.655 57.6679 43.6049 57.6714C45.1807 57.8826 46.7586 58.101 48.3388 58.3267C48.7077 58.5915 49.1149 58.7857 49.5605 58.9092C49.8617 58.9813 50.1672 59.0056 50.4767 58.982C50.4767 58.6423 50.4767 58.3024 50.4767 57.9626C49.6559 58.0104 48.8415 57.9619 48.0334 57.817C48.8049 57.7091 49.5684 57.6606 50.324 57.6714C50.6992 57.9226 51.1063 57.9954 51.5456 57.8898C51.5458 57.6861 51.5968 57.4677 51.6984 57.2345C51.582 57.1747 51.4293 57.1505 51.2402 57.1617C51.4615 56.999 51.7161 56.9019 52.0038 56.8704C52.1966 56.523 52.4767 56.256 52.8437 56.0695C52.9174 55.9314 52.9428 55.7858 52.92 55.6326C53.1236 55.6326 53.3273 55.6326 53.5308 55.6326C53.7161 55.188 54.047 54.8481 54.5234 54.6132C54.6442 54.4319 54.7206 54.2378 54.7525 54.0307C54.8544 53.7879 54.9561 53.5453 55.0579 53.3025C55.5124 52.9571 55.4615 52.7143 54.9052 52.5744C54.4669 52.4385 54.1105 52.1958 53.8363 51.8463C53.5817 51.5065 53.2763 51.2152 52.92 50.9725C52.3329 50.2407 51.8239 49.4641 51.3929 48.6424C51.5589 47.9875 51.5589 47.3565 51.3929 46.7493C51.4693 46.6036 51.5456 46.458 51.622 46.3124C51.9512 46.6207 52.333 46.8634 52.7673 47.0405C52.9188 47.6642 52.9698 48.2953 52.92 48.9337C53.7344 48.8366 54.5489 48.7396 55.3633 48.6424C55.3381 49.1786 55.3635 49.7125 55.4397 50.2443C55.7706 50.3657 55.9997 50.5841 56.1269 50.8997C56.444 50.9276 56.7494 51.0004 57.0431 51.1181C57.1958 51.3609 57.3994 51.555 57.6539 51.7006C57.8796 52.2167 58.0578 52.7506 58.1884 53.3025C58.2393 53.1084 58.2903 52.9141 58.3411 52.72C58.4674 53.3085 58.4419 53.891 58.2648 54.4676C57.8004 54.9883 57.6987 55.5708 57.9593 56.2151C57.883 56.5064 57.8066 56.7976 57.7303 57.0889C57.3166 56.9874 56.9093 56.9389 56.5086 56.9432C56.218 57.2259 56.0908 57.5657 56.1269 57.9626C55.0823 57.9959 54.0134 57.9959 52.92 57.9626C52.92 58.7393 52.92 59.5161 52.92 60.2927C52.4591 60.2687 52.001 60.293 51.5456 60.3655C51.6984 60.414 51.8511 60.4626 52.0038 60.5111C51.8639 60.5516 51.7622 60.6244 51.6984 60.7296Z" fill="#0E175C"/>
<path fill-rule="evenodd" clip-rule="evenodd" d="M54.4473 54.0306C54.5492 54.0306 54.6509 54.0306 54.7527 54.0306C54.7208 54.2377 54.6444 54.4319 54.5236 54.6132C54.0472 54.8481 53.7163 55.188 53.5311 55.6326C53.3275 55.6326 53.1238 55.6326 52.9202 55.6326C52.943 55.7858 52.9176 55.9314 52.8439 56.0694C52.4769 56.256 52.1969 56.5229 52.004 56.8704C51.7163 56.9019 51.4617 56.999 51.2404 57.1617C51.4295 57.1504 51.5822 57.1746 51.6986 57.2345C51.597 57.4676 51.546 57.6861 51.5459 57.8898C51.1065 57.9954 50.6994 57.9226 50.3242 57.6714C49.5686 57.6606 48.8051 57.7091 48.0336 57.817C48.8417 57.9619 49.6561 58.0104 50.4769 57.9626C50.4769 58.3024 50.4769 58.6423 50.4769 58.982C50.1674 59.0056 49.862 58.9813 49.5607 58.9092C49.1151 58.7857 48.708 58.5914 48.339 58.3267C46.7588 58.101 45.1809 57.8825 43.6051 57.6714C42.6553 57.6679 41.6882 57.6922 40.7037 57.7442C40.5638 57.7986 40.4364 57.8714 40.3219 57.9626C40.0261 57.4328 39.619 56.9959 39.1002 56.652C38.9408 56.8155 38.8391 57.0096 38.7948 57.2345C38.7745 56.7939 38.6218 56.4056 38.3367 56.0694C38.2881 56.6075 38.2118 57.1416 38.1076 57.6714C38.2472 58.5392 38.2981 59.4129 38.2603 60.2927C38.6166 60.2927 38.973 60.2927 39.3293 60.2927C39.3233 60.5634 39.4505 60.7575 39.7111 60.8752C43.714 60.939 47.7097 60.939 51.6986 60.8752C51.4342 61.1019 51.0271 61.2232 50.4769 61.2392C47.0121 61.2162 43.6017 61.3375 40.2455 61.6033C40.2455 61.7005 40.2455 61.7974 40.2455 61.8946C39.4299 63.0612 38.361 63.9593 37.0387 64.5887C36.6473 64.7458 36.2402 64.8186 35.817 64.8071C35.7926 64.5597 35.8179 64.317 35.8934 64.079C36.0461 63.8849 36.1988 63.8849 36.3515 64.079C36.9549 63.5926 37.2094 62.9616 37.115 62.1858C37.2706 62.3587 37.4489 62.5043 37.6495 62.6227C37.8528 62.5257 38.0818 62.5257 38.3367 62.6227C38.7379 62.539 38.9161 62.2964 38.8712 61.8946C38.8605 61.7093 38.8096 61.5395 38.7185 61.3849C38.372 61.2745 38.0411 61.2988 37.7259 61.4577C37.5275 61.3718 37.4003 61.2261 37.3441 61.0208C37.6976 60.1167 37.7995 59.1945 37.6495 58.2539C37.8638 57.8352 38.0165 57.3983 38.1076 56.9432C38.0548 56.769 37.9784 56.769 37.8786 56.9432C37.8369 56.6769 37.7095 56.4584 37.4968 56.2879C37.6521 56.1351 37.6776 55.9652 37.5732 55.7782C36.961 55.6397 36.3755 55.6397 35.817 55.7782C36.2512 55.4379 36.7093 55.1224 37.1914 54.8316C37.0046 54.3622 36.6484 54.1196 36.1224 54.1035C35.1019 54.055 34.0838 54.1036 33.0683 54.2491C32.7873 54.2508 32.5074 54.3723 32.2284 54.6132C31.9415 54.9083 31.7633 55.2481 31.6939 55.6326C31.4394 55.6326 31.185 55.6326 30.9304 55.6326C30.9304 55.4869 30.9304 55.3413 30.9304 55.1957C30.6151 55.1981 30.3096 55.2466 30.0142 55.3413C31.6472 53.6153 33.6833 53.0085 36.1224 53.5209C38.1788 53.9535 39.604 55.0942 40.3982 56.9432C43.7566 57.113 47.1161 57.1373 50.4769 57.016C51.9307 56.1612 53.2542 55.1661 54.4473 54.0306Z" fill="#0E175C"/>
<path fill-rule="evenodd" clip-rule="evenodd" d="M54.1417 60.147C53.8942 60.5027 53.5379 60.6968 53.0728 60.7295C53.3882 60.4821 53.7447 60.288 54.1417 60.147Z" fill="#83989E"/>
<path fill-rule="evenodd" clip-rule="evenodd" d="M28.7924 60.2927C29.0018 60.6475 29.1545 61.0359 29.2505 61.4578C28.9215 61.1495 28.7688 60.7611 28.7924 60.2927Z" fill="#939BA3"/>
<path fill-rule="evenodd" clip-rule="evenodd" d="M35.8168 64.8072C35.8168 64.8557 35.8168 64.9043 35.8168 64.9528C32.7359 65.2568 30.5472 64.0917 29.2504 61.4578C29.1543 61.0359 29.0016 60.6475 28.7922 60.2927C28.3671 58.4329 28.7744 56.7825 30.0139 55.3414C30.3094 55.2467 30.6148 55.1982 30.9301 55.1957C30.9301 55.3414 30.9301 55.487 30.9301 55.6326C31.1847 55.6326 31.4391 55.6326 31.6937 55.6326C31.763 55.2482 31.9412 54.9084 32.2282 54.6132C32.5072 54.3724 32.7871 54.2509 33.068 54.2491C34.0835 54.1037 35.1016 54.055 36.1222 54.1035C36.6481 54.1197 37.0044 54.3623 37.1911 54.8317C36.709 55.1225 36.2509 55.4379 35.8168 55.7782C36.3752 55.6398 36.9607 55.6398 37.5729 55.7782C37.6774 55.9652 37.6519 56.1352 37.4966 56.2879C37.7093 56.4585 37.8366 56.6769 37.8783 56.9433C37.9782 56.7691 38.0545 56.7691 38.1074 56.9433C38.0162 57.3984 37.8635 57.8352 37.6493 58.2539C37.7992 59.1945 37.6974 60.1168 37.3438 61.0209C37.4 61.2262 37.5272 61.3718 37.7256 61.4578C38.0408 61.2989 38.3717 61.2746 38.7182 61.3849C38.8094 61.5396 38.8602 61.7094 38.8709 61.8946C38.9158 62.2964 38.7376 62.539 38.3364 62.6228C38.0816 62.5258 37.8525 62.5258 37.6493 62.6228C37.4486 62.5044 37.2704 62.3588 37.1148 62.1859C37.2092 62.9617 36.9546 63.5927 36.3512 64.0791C36.1985 63.8849 36.0458 63.8849 35.8931 64.0791C35.8177 64.317 35.7923 64.5598 35.8168 64.8072Z" fill="#0E175C"/>
<path fill-rule="evenodd" clip-rule="evenodd" d="M33.9843 56.2151C36.3431 56.2072 37.4884 57.3238 37.4202 59.5646C37.1282 60.668 36.39 61.3233 35.2059 61.5305C32.9944 61.5573 31.9 60.5138 31.9227 58.3995C32.2724 57.3631 32.9596 56.6349 33.9843 56.2151Z" fill="#1FAECC"/>
<path fill-rule="evenodd" clip-rule="evenodd" d="M51.6986 60.8752C51.6986 60.8267 51.6986 60.7781 51.6986 60.7296C51.9456 60.808 52.2001 60.8565 52.4622 60.8752C52.0118 61.1608 51.5029 61.3306 50.9351 61.3849C48.1868 61.4578 45.4381 61.4821 42.6889 61.4578C41.8602 61.4167 41.0458 61.4652 40.2456 61.6034C43.6018 61.3376 47.0122 61.2163 50.477 61.2393C51.0272 61.2233 51.4343 61.102 51.6986 60.8752Z" fill="#34454C"/>
<path fill-rule="evenodd" clip-rule="evenodd" d="M42.6889 61.4577C42.0045 61.578 41.2918 61.6508 40.551 61.6762C40.4679 61.7806 40.3661 61.8534 40.2456 61.8946C40.2456 61.7975 40.2456 61.7005 40.2456 61.6034C41.0458 61.4652 41.8602 61.4167 42.6889 61.4577Z" fill="#AFBFC6"/>
<path d="M58.4326 33.5856H58.857L59.4935 33.1819L58.4326 32.3745V33.5856Z" fill="#0E175C"/>
<path d="M17.2715 53.5689V33.7874H21.5149V53.5689H17.2715Z" fill="#1FAECC"/>
</svg>
