<svg width="80" height="80" viewBox="0 0 80 80" fill="none" xmlns="http://www.w3.org/2000/svg">
<circle cx="40" cy="40" r="39.5" stroke="#0E175C"/>
<path d="M56.645 23.6703C53.9729 23.1456 53.6605 27.7512 56.1693 27.8749C58.6769 27.9974 59.1881 24.1702 56.645 23.6703Z" fill="#1FAECC"/>
<path d="M22.7215 23.886C19.9844 23.177 19.3738 27.0215 21.6482 27.8543C23.9215 28.687 24.9877 24.4725 22.7215 23.886Z" fill="#1FAECC"/>
<path d="M29.7131 35.2232V38.2612H37.6425C37.6102 37.5579 37.6425 35.9689 37.6425 35.2232C37.6425 34.4638 37.0624 34.4637 36.1922 34.4637H36.192H30.9701C29.8871 34.4637 29.6808 34.97 29.7131 35.2232Z" fill="#1FAECC"/>
<path d="M41.865 35.2232V38.2612H49.9631C49.9302 37.5579 49.9631 35.9689 49.9631 35.2232C49.9631 34.4638 49.3707 34.4637 48.482 34.4637H48.4817H43.1488C42.0427 34.4637 41.8321 34.97 41.865 35.2232Z" fill="#1FAECC"/>
<path d="M59.4988 48.8946H20.2583C20.2583 41.536 24.3652 39.3587 27.0094 39.1899C31.8195 39.2181 44.4102 39.2575 51.5663 39.1899C58.7224 39.1224 59.8364 45.6316 59.4988 48.8946Z" fill="#1FAECC"/>
<path d="M20.2583 49.6536L20.6943 56.4046H24.0949V52.8603H55.921V56.4046H59.1472L59.5832 49.6536H20.2583Z" fill="#1FAECC"/>
<path d="M21.4399 29.0681V40.2917C21.9125 39.0766 25.0686 38.0132 28.2754 38.0132C28.3429 34.3677 28.2754 33.6251 30.8914 32.7812H36.1235C39.2965 32.7812 39.2458 36.0442 39.1615 38.0132H40.3429C40.5961 33.7938 39.5834 33.0343 45.9969 32.7812C51.1277 32.5786 51.8197 35.9598 51.4821 38.0132C53.7775 37.8107 56.4892 39.4478 57.5581 40.2917V28.9837H55.1108L54.6889 34.2158C54.4357 32.0217 48.2754 26.6209 39.6678 26.3677C32.7817 26.1652 25.9406 31.7967 24.2248 34.6378L23.634 29.0681H21.4399Z" fill="#1FAECC" stroke="#1FAECC" stroke-width="2"/>
</svg>
