<svg width="80" height="80" viewBox="0 0 80 80" fill="none" xmlns="http://www.w3.org/2000/svg">
<circle cx="40" cy="40" r="39.5" stroke="#0E175C"/>
<path d="M26.96 12.8619C23.9005 13.1841 22.2285 16.2 21.3257 18.7399C20.4229 21.2799 21.3141 27.6601 21.1544 31.4395C20.9948 35.2189 20.6987 41.7269 21.1544 45.663C21.6102 49.5991 20.2517 55.3669 21.1806 58.4061C22.1124 61.4453 24.0456 62.8067 27.3402 63.1811C30.6319 63.5585 38.0282 63.4308 41.764 63.3698C45.4999 63.3089 52.6522 63.7501 55.9207 63.1405C59.1893 62.5309 60.7713 61.4714 61.6769 58.0723C62.5855 54.6732 61.4302 48.6964 61.793 44.5019C62.1559 40.3074 61.5579 33.9446 61.793 29.6978C62.0281 25.4511 61.8975 23.1695 58.9628 20.917C56.0252 18.6645 54.4171 15.2218 51.8511 13.8459C49.288 12.47 44.7219 12.9518 40.6029 13.1521C36.4839 13.3524 30.719 12.4671 26.96 12.8619ZM48.1501 16.0549C48.5826 19.6833 47.4186 22.9896 49.674 25.2711C51.9324 27.5498 55.4389 26.3655 58.8903 26.7951C58.8322 33.1086 58.5158 40.1826 58.8264 46.5977C59.137 53.0157 60.5477 60.2435 53.1805 60.5629C45.8134 60.8822 39.2763 60.1303 31.8946 60.7573C24.5129 61.3843 23.4186 57.3901 24.0572 50.5977C24.6958 43.8052 23.4796 35.4598 24.0572 29.1173C24.6348 22.7748 21.9382 16.8299 27.9034 16.1129C33.8656 15.396 41.825 16.4439 48.1501 16.0549ZM57.7292 23.8923C52.7364 24.8938 49.9062 22.8967 51.0528 17.5063C53.3286 18.9025 55.9498 21.7646 57.7292 23.8923Z" fill="#1FAECC"/>
<path d="M33.9098 22.3388C33.1696 21.9295 32.3249 21.8831 31.5876 21.468C30.8532 22.1936 29.9911 23.2677 30.1363 24.661C31.4367 25.6595 32.7865 25.6334 34.2001 24.3707C34.1188 23.5115 33.785 22.9977 33.9098 22.3388Z" fill="#1FAECC"/>
<path d="M42.6548 21.7929C40.7245 21.5258 39.4821 22.8292 39.7521 24.6956C40.9451 25.7755 42.7448 25.8277 43.8159 24.4054C43.8392 23.221 43.2412 22.7595 42.6548 21.7929Z" fill="#1FAECC"/>
<path d="M54.2291 32.4981C52.4497 30.5358 48.9635 31.4212 46.1014 31.337C43.2392 31.2528 39.3524 31.2441 36.5223 31.337C33.6921 31.4299 30.4526 30.3936 28.9751 32.7884C30.6006 35.2934 34.4961 34.0307 37.3931 34.2397C40.29 34.4487 44.1913 34.1788 46.9722 33.9495C49.753 33.7201 53.4395 35.4008 54.2291 32.4981Z" fill="#1FAECC"/>
<path d="M15.0416 37.1426C14.5191 37.3603 14.0895 37.3981 13.5902 37.1426C12.3768 38.3443 12.7571 40.9162 15.0416 40.6259C15.1316 39.8596 16.1795 39.5751 15.9124 38.594C15.9153 38.0454 15.1664 37.7783 15.0416 37.1426Z" fill="#1FAECC"/>
<path d="M69.6137 37.1426C68.6558 37.2065 68.1101 37.3516 67.2915 38.0134C67.4889 38.5998 67.5063 39.192 67.2915 39.7551C69.3002 42.0628 72.0549 38.9191 69.6137 37.1426Z" fill="#1FAECC"/>
<path d="M30.4265 38.0133C29.9533 38.3239 29.7675 39.2876 28.9751 39.1744C29.187 40.0685 29.7734 40.4197 30.1362 41.2063C37.4395 41.3834 45.9911 40.7013 53.3582 41.2063C54.081 40.3442 54.0346 39.8595 54.2291 38.8841C50.9809 37.3747 46.8619 38.4806 42.9083 38.3036C38.9548 38.1265 34.203 38.678 30.4265 38.0133Z" fill="#1FAECC"/>
<path d="M54.2293 45.8505C51.0073 44.344 45.5791 45.656 41.4572 45.27C37.3353 44.8839 32.6793 44.8723 29.2656 45.5603C29.463 46.1466 29.4804 46.7388 29.2656 47.3019C32.4964 48.6343 36.9086 47.5748 40.8766 47.8825C44.8447 48.1902 49.4688 47.4151 53.3585 48.1727C53.8549 47.2381 54.1655 46.8955 54.2293 45.8505Z" fill="#1FAECC"/>
<path d="M54.2291 53.1085C51.3089 50.5453 45.843 51.7529 41.7472 51.6571C37.6514 51.5613 32.2929 50.9314 28.9751 52.8182C29.4657 55.7964 32.8154 55.0475 35.9417 55.1404C39.068 55.2333 43.8778 54.795 46.9722 55.1404C50.0665 55.4858 53.9939 55.5845 54.2291 53.1085Z" fill="#1FAECC"/>
</svg>
