<svg width="80" height="80" viewBox="0 0 80 80" fill="none" xmlns="http://www.w3.org/2000/svg">
<circle cx="40" cy="40" r="39.5" fill="white" stroke="#0E175C"/>
<path fill-rule="evenodd" clip-rule="evenodd" d="M38.5207 19.028C43.7669 18.7166 47.2985 21.0032 49.1152 25.8878C50.0847 31.5974 47.8744 35.4846 42.4841 37.5493C36.7373 38.4757 32.9009 36.2146 30.975 30.7658C29.9907 25.7067 31.7945 22.0227 36.3866 19.714C37.1161 19.482 37.8274 19.2533 38.5207 19.028Z" fill="#1FAECC"/>
<path fill-rule="evenodd" clip-rule="evenodd" d="M37.5815 42.8331C41.8586 42.4712 45.8728 43.3096 49.6242 45.3483C51.5681 46.4788 52.9655 48.0794 53.8162 50.1502C54.5373 53.4073 53.5972 56.075 50.9961 58.1532C47.0676 60.9204 42.6976 62.0383 37.8864 61.5069C33.8379 61.1973 30.408 59.5966 27.5967 56.705C25.4678 53.7018 25.4678 50.7038 27.5967 47.7111C29.0524 46.152 30.7546 44.9579 32.7034 44.1288C34.3085 43.5511 35.9345 43.1192 37.5815 42.8331Z" fill="#1FAECC"/>
</svg>
