<svg width="34" height="35" viewBox="0 0 34 35" fill="none" xmlns="http://www.w3.org/2000/svg">
<path d="M25.4131 17.5507C25.6837 4.70047 8.61566 4.42222 8.76375 17.551V21.3462H25.4131V17.5507ZM26.2595 22.7571H7.91747C7.1686 22.7683 6.48143 23.174 6.11022 23.8243C5.73902 24.4746 5.73902 25.2727 6.11022 25.923C6.48142 26.5734 7.1688 26.979 7.91747 26.9899H26.2595C27.0084 26.979 27.6956 26.5731 28.0668 25.9228C28.438 25.2725 28.438 24.4745 28.0668 23.8242C27.6956 23.1739 27.0084 22.768 26.2595 22.7571ZM19.9102 6.81298C20.4923 1.74432 13.6973 1.73237 14.2665 6.79897C16.1103 6.26409 18.0691 6.26902 19.9102 6.81298ZM14.4921 28.6407C14.5051 29.3426 14.8014 30.0095 15.3137 30.4895C15.8257 30.9696 16.5103 31.2223 17.2117 31.1899C17.9129 31.1574 18.5712 30.8428 19.0368 30.3175C19.5027 29.7922 19.7361 29.1009 19.6845 28.4011H14.4921L14.4921 28.6407Z" fill="#0E165C"/>
<rect x="17" y="3.5" width="17" height="17" rx="8.5" fill="#FF0000"/>
<path d="M23.0007 16.5V15.9L25.4967 13.152C25.9847 12.616 26.3807 12.172 26.6847 11.82C26.9967 11.468 27.2287 11.148 27.3807 10.86C27.5327 10.572 27.6087 10.26 27.6087 9.924C27.6087 9.388 27.4527 8.976 27.1407 8.688C26.8287 8.4 26.4127 8.256 25.8927 8.256C25.3567 8.256 24.9047 8.408 24.5367 8.712C24.1767 9.016 23.9327 9.44 23.8047 9.984L22.9287 9.792C23.0327 9.304 23.2207 8.884 23.4927 8.532C23.7647 8.18 24.1047 7.908 24.5127 7.716C24.9207 7.516 25.3767 7.416 25.8807 7.416C26.4167 7.416 26.8847 7.524 27.2847 7.74C27.6847 7.956 27.9967 8.252 28.2207 8.628C28.4527 9.004 28.5687 9.436 28.5687 9.924C28.5687 10.26 28.4967 10.584 28.3527 10.896C28.2167 11.208 28.0087 11.544 27.7287 11.904C27.4487 12.264 27.0887 12.684 26.6487 13.164L24.3807 15.66H28.8087V16.5H23.0007Z" fill="white"/>
</svg>
