<svg width="24" height="29" viewBox="0 0 24 29" fill="none" xmlns="http://www.w3.org/2000/svg">
<path d="M20.4131 15.0507C20.6836 2.20047 3.61563 1.92222 3.76371 15.051V18.8462H20.4131V15.0507ZM21.2595 20.2571H2.91743C2.16857 20.2683 1.4814 20.674 1.11019 21.3243C0.738988 21.9746 0.738988 22.7727 1.11019 23.423C1.48138 24.0734 2.16877 24.479 2.91743 24.4899H21.2595C22.0084 24.479 22.6955 24.0731 23.0668 23.4228C23.4379 22.7725 23.4379 21.9745 23.0668 21.3242C22.6956 20.6739 22.0084 20.268 21.2595 20.2571ZM14.9102 4.31298C15.4923 -0.755676 8.6973 -0.767628 9.26647 4.29897C11.1103 3.76409 13.069 3.76902 14.9102 4.31298ZM9.49212 26.1407C9.50508 26.8426 9.80132 27.5095 10.3136 27.9895C10.8257 28.4696 11.5103 28.7223 12.2117 28.6899C12.9128 28.6574 13.5712 28.3428 14.0368 27.8175C14.5026 27.2922 14.7361 26.6009 14.6845 25.9011H9.49211L9.49212 26.1407Z" fill="#0E165C"/>
</svg>
