<svg width="20" height="16" viewBox="0 0 20 16" fill="none" xmlns="http://www.w3.org/2000/svg">
<path fill-rule="evenodd" clip-rule="evenodd" d="M19 8C19 8.41421 18.6642 8.75 18.25 8.75H3.56031L9.03063 14.2194C9.32368 14.5124 9.32368 14.9876 9.03063 15.2806C8.73757 15.5737 8.26243 15.5737 7.96937 15.2806L1.21937 8.53063C1.07854 8.38995 0.99941 8.19906 0.99941 8C0.99941 7.80094 1.07854 7.61005 1.21937 7.46937L7.96937 0.719375C8.26243 0.426319 8.73757 0.426319 9.03063 0.719375C9.32368 1.01243 9.32368 1.48757 9.03063 1.78062L3.56031 7.25H18.25C18.6642 7.25 19 7.58579 19 8Z" fill="white" stroke="white"/>
</svg>
