<svg width="23" height="21" viewBox="0 0 23 21" fill="none" xmlns="http://www.w3.org/2000/svg">
<path d="M12.8594 20.4375L11.5 19.6562L14.625 14.1875H19.3125C19.7269 14.1875 20.1243 14.0229 20.4174 13.7299C20.7104 13.4368 20.875 13.0394 20.875 12.625V3.25C20.875 2.8356 20.7104 2.43817 20.4174 2.14515C20.1243 1.85212 19.7269 1.6875 19.3125 1.6875H3.6875C3.2731 1.6875 2.87567 1.85212 2.58265 2.14515C2.28962 2.43817 2.125 2.8356 2.125 3.25V12.625C2.125 13.0394 2.28962 13.4368 2.58265 13.7299C2.87567 14.0229 3.2731 14.1875 3.6875 14.1875H10.7188V15.75H3.6875C2.8587 15.75 2.06384 15.4208 1.47779 14.8347C0.89174 14.2487 0.5625 13.4538 0.5625 12.625V3.25C0.5625 2.4212 0.89174 1.62634 1.47779 1.04029C2.06384 0.45424 2.8587 0.125 3.6875 0.125H19.3125C20.1413 0.125 20.9362 0.45424 21.5222 1.04029C22.1083 1.62634 22.4375 2.4212 22.4375 3.25V12.625C22.4375 13.4538 22.1083 14.2487 21.5222 14.8347C20.9362 15.4208 20.1413 15.75 19.3125 15.75H15.5312L12.8594 20.4375Z" fill="#636574"/>
</svg>
