<svg width="25" height="26" viewBox="0 0 25 26" fill="none" xmlns="http://www.w3.org/2000/svg">
<path d="M19.2921 20.7185C19.0795 20.7942 18.8541 20.8272 18.6287 20.8155C18.4034 20.8039 18.1825 20.7479 17.9789 20.6508C17.7752 20.5537 17.5927 20.4173 17.4418 20.2495C17.2909 20.0817 17.1747 19.8858 17.0997 19.673C17.024 19.4608 16.9911 19.2357 17.0027 19.0106C17.0144 18.7856 17.0704 18.5651 17.1676 18.3618C17.2647 18.1585 17.4011 17.9764 17.5689 17.826C17.7367 17.6756 17.9325 17.5599 18.1452 17.4855C18.3574 17.4098 18.5825 17.3769 18.8076 17.3885C19.0326 17.4002 19.2531 17.4562 19.4564 17.5534C19.6597 17.6505 19.8418 17.7869 19.9922 17.9547C20.1426 18.1225 20.2583 18.3183 20.3327 18.531C20.4084 18.7429 20.4414 18.9677 20.43 19.1925C20.4187 19.4172 20.363 19.6375 20.2664 19.8407C20.1697 20.0439 20.0339 20.2261 19.8667 20.3767C19.6995 20.5273 19.5042 20.6435 19.2921 20.7185Z" stroke="#8A8B96" stroke-width="2" stroke-miterlimit="10" stroke-linecap="round" stroke-linejoin="round"/>
<path d="M11.2542 8.7968C11.2542 10.1561 10.1507 11.264 8.78697 11.264C7.42328 11.264 6.31976 10.1561 6.31976 8.7968C6.31976 7.43311 7.42328 6.32959 8.78697 6.32959C10.1507 6.32959 11.2542 7.43311 11.2542 8.7968Z" stroke="#8A8B96" stroke-width="2" stroke-miterlimit="10" stroke-linecap="round" stroke-linejoin="round"/>
<path d="M14.8347 13.7648L14.0059 11.7317C14.2422 11.3224 14.4249 10.8742 14.555 10.4016L16.5745 9.55387V8.03037L14.555 7.18215C14.4273 6.71792 14.2429 6.2712 14.0059 5.85208L14.8347 3.82823L13.7555 2.74858L11.7219 3.5778C11.3122 3.34151 10.8688 3.15881 10.4016 3.02824L9.54851 1.00974L8.03037 1L7.17289 3.02872C6.71005 3.15881 6.26182 3.34687 5.85257 3.57829L3.81897 2.74907L2.73932 3.82871L3.56806 5.85257C3.33225 6.27156 3.14906 6.71005 3.01898 7.18264L1 8.03037V9.55338L3.01898 10.4016C3.14906 10.8742 3.33225 11.3224 3.56806 11.7317L2.73981 13.7653L3.81897 14.8347L5.84282 14.0064C6.25207 14.2422 6.7003 14.4352 7.17289 14.5604L8.0255 16.5842H9.54363L10.3914 14.5604C10.864 14.4352 11.3171 14.2422 11.7263 14.0059L13.7555 14.8347L14.8347 13.7648ZM8.78749 11.2644C8.13327 11.2641 7.50595 11.004 7.04334 10.5414C6.58073 10.0788 6.32067 9.45146 6.32028 8.79724C6.32028 7.43355 7.4238 6.33003 8.78749 6.33003C10.1512 6.33003 11.2547 7.43355 11.2547 8.79724C11.2543 9.45146 10.9943 10.0788 10.5316 10.5414C10.069 11.004 9.44172 11.2641 8.78749 11.2644Z" stroke="#8A8B96" stroke-width="2" stroke-miterlimit="10" stroke-linecap="round" stroke-linejoin="round"/>
<path d="M22.8726 18.82L24 17.7935L23.6482 16.801L22.1257 16.7094C21.9319 16.434 21.7053 16.1832 21.4509 15.9626L21.523 14.4444L20.574 13.9816L19.432 14.9989C19.1031 14.9391 18.7678 14.9227 18.4346 14.9501L17.4081 13.8228L16.4103 14.1745L16.3236 15.6975C16.0484 15.8879 15.7976 16.1112 15.5767 16.3626L14.0542 16.29L13.6011 17.2493L14.613 18.3913C14.5533 18.7185 14.5371 19.0522 14.5648 19.3837L13.4374 20.4103L13.7843 21.4076L15.3117 21.4992C15.5046 21.7691 15.7307 22.02 15.9767 22.2368L15.9046 23.7642L16.8634 24.2222L18.0005 23.2054C18.3297 23.2641 18.6648 23.2819 18.9983 23.2585L20.0244 24.3859L21.0222 24.0341L21.1089 22.5116C21.3847 22.322 21.6342 22.0967 21.8509 21.8417L23.3783 21.9138L23.8314 20.9598L22.8195 19.8222C22.8785 19.4916 22.8963 19.155 22.8726 18.82ZM19.2921 20.7187C19.0795 20.7943 18.8541 20.8273 18.6288 20.8157C18.4034 20.804 18.1826 20.748 17.9789 20.6509C17.7752 20.5538 17.5927 20.4174 17.4419 20.2496C17.291 20.0818 17.1747 19.8859 17.0997 19.6731C17.0241 19.4609 16.9911 19.2358 17.0028 19.0107C17.0144 18.7857 17.0704 18.5652 17.1676 18.3619C17.2648 18.1586 17.4012 17.9766 17.5689 17.8262C17.7367 17.6758 17.9326 17.56 18.1452 17.4856C18.3575 17.4099 18.5826 17.377 18.8076 17.3886C19.0326 17.4003 19.2531 17.4563 19.4564 17.5535C19.6597 17.6506 19.8418 17.787 19.9922 17.9548C20.1426 18.1226 20.2584 18.3184 20.3328 18.5311C20.4084 18.7431 20.4415 18.9678 20.4301 19.1926C20.4187 19.4173 20.3631 19.6376 20.2664 19.8408C20.1697 20.044 20.0339 20.2262 19.8667 20.3768C19.6995 20.5275 19.5043 20.6436 19.2921 20.7187Z" stroke="#8A8B96" stroke-width="2" stroke-miterlimit="10" stroke-linecap="round" stroke-linejoin="round"/>
<path d="M19.2921 20.7185C19.0795 20.7942 18.8541 20.8272 18.6287 20.8155C18.4034 20.8039 18.1825 20.7479 17.9789 20.6508C17.7752 20.5537 17.5927 20.4173 17.4418 20.2495C17.2909 20.0817 17.1747 19.8858 17.0997 19.673C17.024 19.4608 16.9911 19.2357 17.0027 19.0106C17.0144 18.7856 17.0704 18.5651 17.1676 18.3618C17.2647 18.1585 17.4011 17.9764 17.5689 17.826C17.7367 17.6756 17.9325 17.5599 18.1452 17.4855C18.3574 17.4098 18.5825 17.3769 18.8076 17.3885C19.0326 17.4002 19.2531 17.4562 19.4564 17.5534C19.6597 17.6505 19.8418 17.7869 19.9922 17.9547C20.1426 18.1225 20.2583 18.3183 20.3327 18.531C20.4084 18.7429 20.4414 18.9677 20.43 19.1925C20.4187 19.4172 20.363 19.6375 20.2664 19.8407C20.1697 20.0439 20.0339 20.2261 19.8667 20.3767C19.6995 20.5273 19.5042 20.6435 19.2921 20.7185Z" stroke="#8A8B96" stroke-width="2" stroke-miterlimit="10" stroke-linecap="round" stroke-linejoin="round"/>
</svg>
