<svg width="24" height="23" viewBox="0 0 24 23" fill="none" xmlns="http://www.w3.org/2000/svg">
<g opacity="0.9">
<path d="M17.85 15.8844H15.9375C15.7648 15.8844 15.6154 15.8239 15.4893 15.703C15.3631 15.5821 15.3 15.4389 15.3 15.2734V9.16406C15.3 8.9986 15.3631 8.85541 15.4893 8.7345C15.6154 8.61358 15.7648 8.55313 15.9375 8.55313H16.575C16.575 6.6694 16.0271 5.18024 14.9314 4.08564C13.8357 2.99105 12.2586 2.44375 10.2 2.44375C8.14141 2.44375 6.56426 2.99105 5.46855 4.08564C4.37285 5.18024 3.825 6.6694 3.825 8.55313H4.4625C4.63516 8.55313 4.78457 8.61358 4.91074 8.7345C5.03691 8.85541 5.1 8.9986 5.1 9.16406V15.2734C5.1 15.4389 5.03691 15.5821 4.91074 15.703C4.78457 15.8239 4.63516 15.8844 4.4625 15.8844H3.825C3.825 16.559 4.07402 17.1349 4.57207 17.6122C5.07012 18.0895 5.67109 18.3281 6.375 18.3281H7.65C7.65 17.9845 7.77285 17.6949 8.01855 17.4594C8.26426 17.224 8.56641 17.1063 8.925 17.1063H10.2C10.5586 17.1063 10.8607 17.224 11.1064 17.4594C11.3521 17.6949 11.475 17.9813 11.475 18.3186C11.475 18.6559 11.3521 18.9454 11.1064 19.1873C10.8607 19.4291 10.5586 19.55 10.2 19.55H6.375C5.3125 19.55 4.40937 19.1936 3.66562 18.4809C2.92188 17.7681 2.55 16.9026 2.55 15.8844C1.84609 15.8844 1.24512 15.528 0.74707 14.8152C0.249023 14.1025 0 13.237 0 12.2188C0 11.5569 0.116211 10.946 0.348633 10.3859C0.581055 9.82591 0.889844 9.3868 1.275 9.0686V8.55313C1.275 7.39489 1.51074 6.28757 1.98223 5.23115C2.45371 4.17474 3.08789 3.2647 3.88477 2.50103C4.68164 1.73735 5.63125 1.1296 6.73359 0.677759C7.83594 0.22592 8.99141 0 10.2 0C11.4086 0 12.5641 0.22592 13.6664 0.677759C14.7687 1.1296 15.7184 1.73735 16.5152 2.50103C17.3121 3.2647 17.9463 4.17474 18.4178 5.23115C18.8893 6.28757 19.125 7.39489 19.125 8.55313V9.0686C19.5102 9.3868 19.8189 9.82591 20.0514 10.3859C20.2838 10.946 20.4 11.5569 20.4 12.2188C20.4 13.237 20.151 14.1025 19.6529 14.8152C19.1549 15.528 18.5539 15.8844 17.85 15.8844Z" fill="#9899A3"/>
</g>
</svg>
