<svg width="10" height="10" viewBox="0 0 10 10" fill="none" xmlns="http://www.w3.org/2000/svg">
<path d="M3.19556 5.90405C3.59406 6.6178 3.81056 7.0088 3.84502 7.07702C4.03693 7.50733 4.22875 7.90098 4.42064 8.2578C4.68626 8.75108 4.86833 9.0083 4.96676 9.0293C5.0455 8.94531 5.17093 8.75635 5.34317 8.46252C5.52032 8.16332 5.6802 7.86683 5.82291 7.57298C5.93105 7.35777 6.20904 6.85398 6.65684 6.06152C7.08976 5.30577 7.32094 4.8938 7.35047 4.82555C7.46857 4.57897 7.9261 3.73667 8.72318 2.2987C9.2693 1.31726 9.6949 0.551138 9.99988 -1.81198e-05L-2.46312e-05 -1.72456e-05C0.319721 0.598358 0.634663 1.17039 0.944565 1.71617C1.7318 3.11217 2.26316 4.09348 2.53873 4.66027C2.701 4.99095 2.91994 5.40552 3.1955 5.90405L3.19556 5.90405Z" fill="#0E155F"/>
</svg>
