<svg width="20" height="18" viewBox="0 0 20 18" fill="none" xmlns="http://www.w3.org/2000/svg">
<path fill-rule="evenodd" clip-rule="evenodd" d="M4.75 6.75C4.75 6.33579 5.08579 6 5.5 6H14.5C14.9142 6 15.25 6.33579 15.25 6.75C15.25 7.16421 14.9142 7.5 14.5 7.5H5.5C5.08579 7.5 4.75 7.16421 4.75 6.75ZM5.5 10.5H14.5C14.9142 10.5 15.25 10.1642 15.25 9.75C15.25 9.33579 14.9142 9 14.5 9H5.5C5.08579 9 4.75 9.33579 4.75 9.75C4.75 10.1642 5.08579 10.5 5.5 10.5ZM19.75 2.25V16.5C19.7499 16.7599 19.6152 17.0012 19.394 17.1378C19.1729 17.2743 18.8968 17.2866 18.6644 17.1703L16 15.8381L13.3356 17.1703C13.1244 17.276 12.8756 17.276 12.6644 17.1703L10 15.8381L7.33562 17.1703C7.12436 17.276 6.87564 17.276 6.66438 17.1703L4 15.8381L1.33562 17.1703C1.1032 17.2866 0.827121 17.2743 0.605974 17.1378C0.384828 17.0012 0.250139 16.7599 0.25 16.5V2.25C0.25 1.42157 0.921573 0.75 1.75 0.75H18.25C19.0784 0.75 19.75 1.42157 19.75 2.25ZM18.25 2.25H1.75V15.2869L3.66437 14.3288C3.87564 14.223 4.12436 14.223 4.33563 14.3288L7 15.6619L9.66438 14.3288C9.87564 14.223 10.1244 14.223 10.3356 14.3288L13 15.6619L15.6644 14.3288C15.8756 14.223 16.1244 14.223 16.3356 14.3288L18.25 15.2869V2.25Z" fill="#636574"/>
</svg>
