<svg width="21" height="20" viewBox="0 0 21 20" fill="none" xmlns="http://www.w3.org/2000/svg">
<path fill-rule="evenodd" clip-rule="evenodd" d="M11.625 14.875C11.625 15.4963 11.1213 16 10.5 16C9.87868 16 9.375 15.4963 9.375 14.875C9.375 14.2537 9.87868 13.75 10.5 13.75C11.1213 13.75 11.625 14.2537 11.625 14.875ZM10.5 4.75C8.43188 4.75 6.75 6.26406 6.75 8.125V8.5C6.75 8.91421 7.08579 9.25 7.5 9.25C7.91421 9.25 8.25 8.91421 8.25 8.5V8.125C8.25 7.09375 9.25969 6.25 10.5 6.25C11.7403 6.25 12.75 7.09375 12.75 8.125C12.75 9.15625 11.7403 10 10.5 10C10.0858 10 9.75 10.3358 9.75 10.75V11.5C9.75 11.9142 10.0858 12.25 10.5 12.25C10.9142 12.25 11.25 11.9142 11.25 11.5V11.4325C12.96 11.1184 14.25 9.75438 14.25 8.125C14.25 6.26406 12.5681 4.75 10.5 4.75ZM20.25 10C20.25 15.3848 15.8848 19.75 10.5 19.75C5.11522 19.75 0.75 15.3848 0.75 10C0.75 4.61522 5.11522 0.25 10.5 0.25C15.8824 0.255684 20.2443 4.61758 20.25 10ZM18.75 10C18.75 5.44365 15.0563 1.75 10.5 1.75C5.94365 1.75 2.25 5.44365 2.25 10C2.25 14.5563 5.94365 18.25 10.5 18.25C15.0542 18.2448 18.7448 14.5542 18.75 10Z" fill="#636574"/>
</svg>
