<svg width="28" height="28" viewBox="0 0 28 28" fill="none" xmlns="http://www.w3.org/2000/svg">
<g clip-path="url(#clip0_23_728)">
<path fill-rule="evenodd" clip-rule="evenodd" d="M14 8C11.9289 8 10.25 9.67893 10.25 11.75C10.25 13.8211 11.9289 15.5 14 15.5C16.0711 15.5 17.75 13.8211 17.75 11.75C17.75 9.67893 16.0711 8 14 8ZM14 14C12.7574 14 11.75 12.9926 11.75 11.75C11.75 10.5074 12.7574 9.5 14 9.5C15.2426 9.5 16.25 10.5074 16.25 11.75C16.25 12.9926 15.2426 14 14 14ZM14 3.5C9.44579 3.50517 5.75517 7.19579 5.75 11.75C5.75 14.6938 7.11031 17.8138 9.6875 20.7734C10.8455 22.1108 12.1489 23.3151 13.5734 24.3641C13.8318 24.545 14.1757 24.545 14.4341 24.3641C15.856 23.3147 17.1568 22.1104 18.3125 20.7734C20.8859 17.8138 22.25 14.6938 22.25 11.75C22.2448 7.19579 18.5542 3.50517 14 3.5ZM14 22.8125C12.4503 21.5938 7.25 17.1172 7.25 11.75C7.25 8.02208 10.2721 5 14 5C17.7279 5 20.75 8.02208 20.75 11.75C20.75 17.1153 15.5497 21.5938 14 22.8125Z" fill="#1C1C21"/>
</g>
<defs>
<clipPath id="clip0_23_728">
<rect width="24" height="24" fill="white" transform="translate(2 2)"/>
</clipPath>
</defs>
</svg>
