<svg width="22" height="24" viewBox="0 0 22 24" fill="none" xmlns="http://www.w3.org/2000/svg">
<path d="M13.75 6.80299C12.9138 6.2769 11.9655 6.00013 11.0003 6.00049C10.035 6.00084 9.08687 6.27831 8.25105 6.80501C7.41523 7.33171 6.7212 8.0891 6.23867 9.00107C5.75614 9.91305 5.50212 10.9475 5.50212 12.0005C5.50212 13.0535 5.75614 14.0879 6.23867 14.9999C6.7212 15.9119 7.41523 16.6693 8.25105 17.196C9.08687 17.7227 10.035 18.0001 11.0003 18.0005C11.9655 18.0008 12.9138 17.7241 13.75 17.198M4.58331 10.5H9.16665M4.58331 13.5H9.16665" stroke="#1FAECC" stroke-width="2" stroke-linecap="round"/>
<path d="M6.41665 3.33801C7.80954 2.45891 9.39078 1.99731 11 2.00001C16.0627 2.00001 20.1666 6.47701 20.1666 12C20.1666 17.523 16.0627 22 11 22C5.93723 22 1.83331 17.523 1.83331 12C1.83331 10.179 2.27973 8.47001 3.05981 7.00001" stroke="#0E155F" stroke-width="1.5" stroke-linecap="round"/>
</svg>
