<svg width="25" height="24" viewBox="0 0 25 24" fill="none" xmlns="http://www.w3.org/2000/svg">
<g clip-path="url(#clip0_1394_6586)">
<path fill-rule="evenodd" clip-rule="evenodd" d="M12.9378 4.43836C12.433 4.43375 11.9289 4.44592 11.4254 4.47489C11.4832 4.44559 11.5495 4.42732 11.6244 4.42009C12.0691 4.38992 12.5069 4.39602 12.9378 4.43836Z" fill="#60777C"/>
<path fill-rule="evenodd" clip-rule="evenodd" d="M10.9876 4.54794C10.908 4.58447 10.8284 4.621 10.7488 4.65753C10.7222 4.65753 10.6957 4.65753 10.6692 4.65753C10.7534 4.57881 10.8596 4.54228 10.9876 4.54794Z" fill="#7A8E93"/>
<path fill-rule="evenodd" clip-rule="evenodd" d="M12.9378 4.43836C13.2436 4.47014 13.5488 4.50667 13.8532 4.54795C13.917 4.60544 13.9966 4.62981 14.092 4.621C14.3749 4.7082 14.6535 4.80563 14.9279 4.91324C14.9552 5.08647 14.9154 5.11689 14.8085 5.00457C14.8217 4.9924 14.835 4.9802 14.8483 4.96804C14.773 4.92742 14.6934 4.89695 14.6095 4.87671C14.4873 4.86195 14.3612 4.86195 14.2313 4.87671C14.1882 4.84774 14.1417 4.82338 14.092 4.80365C13.909 4.8381 13.7232 4.8503 13.5348 4.84018C13.477 4.96752 13.4505 5.10148 13.4552 5.24201C13.5216 5.24201 13.5879 5.24201 13.6542 5.24201C13.6542 5.31507 13.6542 5.38813 13.6542 5.46119C13.8046 5.52018 13.9572 5.58108 14.1119 5.64384C14.1741 5.62184 14.1675 5.59142 14.092 5.55251C14.1495 5.52398 14.2026 5.53008 14.2512 5.57078C14.3005 5.64884 14.3735 5.69757 14.4701 5.71689C14.4797 5.76395 14.4598 5.80047 14.4104 5.82648C14.1881 5.78484 13.9758 5.71788 13.7736 5.62557C13.5898 5.58327 13.4041 5.5528 13.2164 5.53425C13.212 5.51171 13.1987 5.49344 13.1766 5.47945C12.7464 5.42312 12.3218 5.41706 11.903 5.46119C11.8897 5.46119 11.8764 5.46119 11.8632 5.46119C11.7562 5.46718 11.6501 5.46108 11.5448 5.44292C11.6 5.41045 11.5934 5.39218 11.5249 5.38813C11.4613 5.43872 11.3884 5.46305 11.306 5.46119C11.309 5.41552 11.3356 5.3851 11.3856 5.36986C11.5052 5.35773 11.618 5.32727 11.7239 5.27854C11.8044 5.333 11.8707 5.32084 11.9229 5.24201C12.065 5.28921 12.2176 5.31353 12.3806 5.31507C12.6768 5.28289 12.9488 5.28289 13.1965 5.31507C13.2231 5.08373 13.2231 4.85235 13.1965 4.621C13.0376 4.58849 12.8784 4.55196 12.7189 4.51142C12.552 4.55627 12.3862 4.55627 12.2214 4.51142C11.9487 4.58309 11.6767 4.60742 11.4055 4.58447C11.1894 4.62816 10.9705 4.65253 10.7488 4.65753C10.8284 4.621 10.908 4.58447 10.9876 4.54795C11.1232 4.49669 11.2692 4.47233 11.4254 4.47489C11.9289 4.44592 12.433 4.43375 12.9378 4.43836Z" fill="#0E175C"/>
<path fill-rule="evenodd" clip-rule="evenodd" d="M13.8532 4.54794C13.9487 4.53914 14.0283 4.56351 14.092 4.621C13.9966 4.62981 13.917 4.60544 13.8532 4.54794Z" fill="#8C9AA2"/>
<path fill-rule="evenodd" clip-rule="evenodd" d="M11.306 5.46119C11.1809 5.49527 11.0482 5.5196 10.908 5.53424C10.82 5.53172 10.7404 5.50736 10.6692 5.46119C10.702 5.42882 10.7418 5.41666 10.7886 5.42466C10.78 5.3646 10.7933 5.30981 10.8284 5.26027C10.5459 5.23269 10.2672 5.18396 9.99254 5.11415C10.0286 5.05209 10.0419 4.98509 10.0323 4.91324C10.1593 4.86707 10.292 4.83664 10.4303 4.82192C10.3811 4.81344 10.3413 4.79518 10.3109 4.76712C10.4187 4.69943 10.5381 4.6629 10.6692 4.65753C10.6957 4.65753 10.7222 4.65753 10.7488 4.65753C10.9705 4.65253 11.1894 4.62816 11.4055 4.58447C11.6767 4.60741 11.9487 4.58308 12.2214 4.51141C12.3862 4.55627 12.552 4.55627 12.7189 4.51141C12.8784 4.55196 13.0376 4.58849 13.1965 4.621C13.2231 4.85235 13.2231 5.08372 13.1965 5.31507C12.9488 5.28288 12.6768 5.28288 12.3806 5.31507C12.2176 5.31353 12.065 5.2892 11.9229 5.24201C11.8707 5.32084 11.8044 5.333 11.7239 5.27854C11.618 5.32727 11.5052 5.35773 11.3856 5.36986C11.3356 5.38509 11.309 5.41552 11.306 5.46119Z" fill="#0E175C"/>
<path fill-rule="evenodd" clip-rule="evenodd" d="M14.9279 4.91324C15.108 4.98977 15.2805 5.075 15.4453 5.16895C15.3419 5.17702 15.3419 5.19529 15.4453 5.22375C15.34 5.2419 15.2338 5.248 15.1269 5.24201C15.1335 5.47368 15.1269 5.70502 15.107 5.93607C15.0513 5.96263 14.9916 5.9809 14.9279 5.99087C14.9657 6.0171 14.9723 6.04753 14.9478 6.08219C14.8533 6.02301 14.7538 5.97428 14.6493 5.93607C14.557 5.9181 14.4774 5.88157 14.4104 5.82648C14.4598 5.80048 14.4797 5.76395 14.4701 5.7169C14.3735 5.69757 14.3005 5.64884 14.2512 5.57078C14.2026 5.53008 14.1495 5.52398 14.092 5.55251C14.1675 5.59142 14.1741 5.62185 14.1119 5.64384C13.9572 5.58108 13.8046 5.52018 13.6542 5.46119C13.6542 5.38813 13.6542 5.31507 13.6542 5.24201C13.5879 5.24201 13.5216 5.24201 13.4552 5.24201C13.4505 5.10148 13.477 4.96753 13.5348 4.84018C13.7232 4.8503 13.909 4.8381 14.092 4.80365C14.1417 4.82338 14.1882 4.84775 14.2313 4.87671C14.3612 4.86196 14.4873 4.86196 14.6095 4.87671C14.6934 4.89695 14.773 4.92742 14.8483 4.96804C14.835 4.9802 14.8217 4.9924 14.8085 5.00457C14.9154 5.1169 14.9552 5.08647 14.9279 4.91324Z" fill="#0E175C"/>
<path fill-rule="evenodd" clip-rule="evenodd" d="M11.903 5.46119C12.3218 5.41706 12.7464 5.42312 13.1766 5.47945C13.1987 5.49344 13.212 5.51171 13.2164 5.53425C12.7819 5.47525 12.3441 5.45088 11.903 5.46119Z" fill="#455660"/>
<path fill-rule="evenodd" clip-rule="evenodd" d="M10.3109 4.76712C10.3413 4.79518 10.3811 4.81344 10.4303 4.82192C10.292 4.83664 10.1593 4.86707 10.0323 4.91324C10.0419 4.9851 10.0286 5.05209 9.99254 5.11416C10.2672 5.18396 10.5459 5.23269 10.8284 5.26027C10.7933 5.30981 10.78 5.3646 10.7886 5.42466C10.7418 5.41666 10.702 5.42882 10.6692 5.46119C10.7404 5.50736 10.82 5.53173 10.908 5.53425C11.0482 5.5196 11.1809 5.49527 11.306 5.46119C11.3884 5.46305 11.4613 5.43872 11.5249 5.38813C11.5934 5.39218 11.6 5.41045 11.5448 5.44292C11.6501 5.46108 11.7562 5.46718 11.8632 5.46119C11.4408 5.50638 11.0295 5.6038 10.6294 5.75343C9.11186 6.3257 8.10358 7.32417 7.60448 8.74886C7.57085 8.79164 7.54434 8.84037 7.52488 8.89498C7.46326 8.9067 7.43672 8.94323 7.44527 9.00457C7.20826 8.97304 6.96945 8.96084 6.72886 8.96804C6.92054 8.93786 7.11954 8.9196 7.32587 8.91324C7.28117 8.87511 7.22812 8.85078 7.16667 8.84018C7.26068 8.77695 7.36683 8.74649 7.48507 8.74886C7.48507 8.3592 7.48507 7.96957 7.48507 7.57991C7.44527 7.57991 7.40547 7.57991 7.36567 7.57991C7.3591 7.49491 7.3326 7.41578 7.28607 7.34247C7.332 7.30908 7.32535 7.27865 7.26617 7.25114C7.25291 7.28767 7.23962 7.3242 7.22637 7.36073C7.21311 7.34857 7.19982 7.33637 7.18657 7.3242C7.10517 7.38086 7.04547 7.45392 7.00746 7.54338C6.97463 7.57575 6.93483 7.58791 6.88806 7.57991C7.21494 6.96113 7.65276 6.41929 8.20149 5.95434C8.63019 5.6217 9.08129 5.3173 9.55473 5.0411C9.79485 4.92208 10.0469 4.83076 10.3109 4.76712Z" fill="#0E175C"/>
<path fill-rule="evenodd" clip-rule="evenodd" d="M15.4453 5.16895C16.6602 5.80906 17.5358 6.7223 18.0721 7.90867C18.1117 8.11503 18.1847 8.30984 18.291 8.49315C18.3183 8.68756 18.3382 8.88241 18.3507 9.07762C18.5489 9.09253 18.728 9.15339 18.8881 9.26027C19.6891 9.72807 20.1269 10.3978 20.2015 11.2694C20.2502 11.7641 20.1706 12.2389 19.9627 12.6941C19.9345 12.7262 19.9013 12.7506 19.8632 12.7671C19.8694 12.717 19.8628 12.6682 19.8433 12.621C19.8035 12.6697 19.7637 12.6697 19.7239 12.621C19.6319 12.7093 19.6054 12.685 19.6443 12.5479C19.6575 12.5236 19.6708 12.4993 19.6841 12.4749C19.7371 12.5236 19.7902 12.5236 19.8433 12.4749C19.8638 12.3823 19.9103 12.3032 19.9826 12.2374C19.9644 12.2223 19.9511 12.2041 19.9428 12.1826C19.9702 12.1116 19.9901 12.0386 20.0025 11.9635C20.1465 11.8747 20.173 11.7651 20.0821 11.6347C19.9604 11.6694 19.8344 11.6816 19.704 11.6712C19.704 11.5738 19.704 11.4764 19.704 11.379C19.6642 11.379 19.6244 11.379 19.5846 11.379C19.5846 11.3425 19.5846 11.3059 19.5846 11.2694C19.2518 11.2573 18.9202 11.2695 18.5896 11.3059C18.5242 11.4176 18.4911 11.5394 18.4901 11.6712C18.4797 11.4991 18.4267 11.3408 18.3308 11.1963C18.3109 12.146 18.3043 13.0958 18.3109 14.0457C18.2712 13.0656 18.258 12.0793 18.2711 11.0868C18.2972 10.3794 18.2706 9.68537 18.1915 9.00457C17.9671 8.97826 17.7416 8.9661 17.5149 8.96804C17.4405 8.94374 17.3609 8.91941 17.2761 8.89498C17.2565 8.83923 17.2299 8.79054 17.1965 8.74886C16.8803 7.88245 16.3497 7.14575 15.6045 6.53881C15.2882 6.32647 14.9698 6.12555 14.6493 5.93607C14.7538 5.97428 14.8533 6.02301 14.9478 6.08219C14.9723 6.04752 14.9657 6.0171 14.9279 5.99087C14.9916 5.98089 15.0513 5.96263 15.107 5.93607C15.1269 5.70502 15.1335 5.47368 15.1269 5.24201C15.2338 5.248 15.34 5.2419 15.4453 5.22374C15.3419 5.19529 15.3419 5.17702 15.4453 5.16895Z" fill="#0E175C"/>
<path fill-rule="evenodd" clip-rule="evenodd" d="M10.6294 5.75343C10.6305 5.78985 10.6106 5.81421 10.5697 5.82648C10.2507 5.91693 10.0451 6.06912 9.95274 6.28311C9.85005 6.30276 9.7638 6.34535 9.69403 6.41096C9.58561 6.36208 9.53916 6.39861 9.55473 6.52055C9.59453 6.52055 9.63433 6.52055 9.67413 6.52055C9.66283 6.5905 9.67608 6.65136 9.71393 6.7032C9.71393 6.80062 9.71393 6.89801 9.71393 6.99543C9.56563 6.98364 9.41968 6.99584 9.27612 7.03196C9.15039 7.12015 9.01769 7.19931 8.87811 7.26941C8.94314 7.28745 9.00949 7.29352 9.07711 7.28767C9.07711 7.3242 9.07711 7.36073 9.07711 7.39726C8.97096 7.39726 8.86486 7.39726 8.75871 7.39726C8.76527 7.51964 8.75863 7.64139 8.73881 7.76256C8.58931 7.85925 8.52961 7.99317 8.5597 8.16438C8.45355 8.16438 8.34744 8.16438 8.24129 8.16438C8.24129 8.26181 8.24129 8.3592 8.24129 8.45662C8.19942 8.45118 8.15962 8.45724 8.12189 8.47489C8.08042 8.54495 8.03401 8.61191 7.98259 8.6758C7.96933 8.66364 7.95604 8.65143 7.94279 8.63927C7.89335 8.71383 7.8204 8.75642 7.72388 8.76712C7.76778 8.82849 7.75453 8.88329 7.68408 8.93151C7.67417 8.89198 7.66756 8.84329 7.66418 8.78539C7.64893 8.8057 7.62903 8.81786 7.60448 8.82192C7.60448 8.79755 7.60448 8.77322 7.60448 8.74886C8.10358 7.32417 9.11186 6.3257 10.6294 5.75343Z" fill="#F4F7FA"/>
<path fill-rule="evenodd" clip-rule="evenodd" d="M6.72885 8.96804C6.67747 8.95938 6.63767 8.97154 6.60945 9.00457C6.57642 9.37567 6.55652 9.75313 6.54975 10.137C6.52989 9.93034 6.52324 9.72332 6.52985 9.51598C6.52233 9.37541 6.52233 9.24146 6.52985 9.11415C6.49116 9.11076 6.45136 9.09859 6.41045 9.07762C6.45725 8.54703 6.61646 8.04782 6.88806 7.57991C6.93482 7.58791 6.97463 7.57574 7.00746 7.54338C7.04547 7.45392 7.10517 7.38086 7.18657 7.3242C7.19982 7.33636 7.21311 7.34857 7.22637 7.36073C7.23962 7.3242 7.25291 7.28767 7.26617 7.25114C7.32535 7.27865 7.332 7.30908 7.28607 7.34246C7.3326 7.41578 7.3591 7.4949 7.36567 7.57991C7.40547 7.57991 7.44527 7.57991 7.48507 7.57991C7.48507 7.96957 7.48507 8.3592 7.48507 8.74886C7.36682 8.74648 7.26068 8.77695 7.16667 8.84018C7.22812 8.85078 7.28117 8.8751 7.32587 8.91324C7.11954 8.9196 6.92054 8.93786 6.72885 8.96804Z" fill="#0E175C"/>
<path fill-rule="evenodd" clip-rule="evenodd" d="M7.60448 8.74886C7.60448 8.77322 7.60448 8.79755 7.60448 8.82192C7.60714 8.87522 7.59389 8.92391 7.56468 8.96804C7.56468 8.9802 7.56468 8.9924 7.56468 9.00457C7.5287 8.97867 7.51544 8.94214 7.52488 8.89498C7.54434 8.84037 7.57085 8.79164 7.60448 8.74886Z" fill="#7A858F"/>
<path fill-rule="evenodd" clip-rule="evenodd" d="M7.56468 9.00457C7.56468 8.9924 7.56468 8.9802 7.56468 8.96804C7.75341 8.987 7.93916 8.987 8.12189 8.96804C8.11317 9.01096 8.12643 9.04749 8.16169 9.07763C8.34267 9.02729 8.43556 9.08815 8.4403 9.26027C8.26868 9.19375 8.09622 9.12679 7.92289 9.05936C7.80619 9.02455 7.68679 9.00628 7.56468 9.00457Z" fill="#DAE2E7"/>
<path fill-rule="evenodd" clip-rule="evenodd" d="M7.52487 8.89498C7.51544 8.94214 7.5287 8.97867 7.56468 9.00457C7.68679 9.00628 7.80619 9.02455 7.92288 9.05936C8.09622 9.12679 8.26868 9.19375 8.4403 9.26027C8.86374 9.47843 9.1954 9.78287 9.43532 10.1735C10.0369 11.3556 9.89096 12.4515 8.99751 13.4612C8.97506 13.3501 8.96181 13.2466 8.95771 13.1507C9.03719 13.1229 9.1035 13.1047 9.15672 13.0959C8.95441 13.1296 8.86151 13.0443 8.87811 12.8402C8.94446 12.8402 9.01077 12.8402 9.07711 12.8402C9.09861 12.7075 9.11186 12.5736 9.11691 12.4384C9.09037 12.2801 9.06386 12.1218 9.03731 11.9635C9.03751 11.6711 9.03751 11.3788 9.03731 11.0868C8.94446 11.0868 8.85156 11.0868 8.75871 11.0868C8.75871 11.6712 8.75871 12.2557 8.75871 12.8402C8.65256 12.8402 8.54645 12.8402 8.4403 12.8402C8.4403 12.6454 8.4403 12.4505 8.4403 12.2557C8.33415 12.2557 8.22804 12.2557 8.12189 12.2557C8.09534 13.035 8.06884 13.035 8.04229 12.2557C7.98923 12.2557 7.93614 12.2557 7.88308 12.2557C7.8992 12.3853 7.8793 12.5071 7.82338 12.621C7.8114 12.4019 7.81801 12.1827 7.84328 11.9635C7.84241 11.8506 7.8159 11.7532 7.76368 11.6712C7.81674 11.0868 7.86983 10.5023 7.92288 9.91781C7.85654 9.91781 7.79023 9.91781 7.72388 9.91781C7.72388 9.723 7.72388 9.52815 7.72388 9.33333C7.64428 9.33333 7.56468 9.33333 7.48507 9.33333C7.49741 9.21596 7.48416 9.10637 7.44527 9.00457C7.43672 8.94323 7.46326 8.9067 7.52487 8.89498Z" fill="#0E175C"/>
<path fill-rule="evenodd" clip-rule="evenodd" d="M17.5149 8.96804C17.3791 9.14513 17.4321 9.24252 17.6741 9.26027C17.6211 9.47945 17.6211 9.69863 17.6741 9.91781C17.6343 9.91781 17.5945 9.91781 17.5547 9.91781C17.5479 9.52891 17.528 9.52891 17.495 9.91781C17.4752 10.1123 17.4685 10.3071 17.4751 10.5023C17.568 10.5023 17.6609 10.5023 17.7537 10.5023C17.7413 10.6548 17.7679 10.8009 17.8333 10.9406C17.8036 10.9858 17.7904 11.0345 17.7935 11.0868C17.6874 11.0868 17.5813 11.0868 17.4751 11.0868C17.4828 11.2 17.5093 11.3096 17.5547 11.4155C17.5239 11.5245 17.4974 11.6341 17.4751 11.7443C17.4609 11.8206 17.4344 11.8937 17.3955 11.9635C17.369 11.0808 17.3425 10.2041 17.3159 9.33333C17.3159 9.22374 17.3159 9.11415 17.3159 9.00457C17.3724 8.96983 17.4387 8.95766 17.5149 8.96804Z" fill="#1FAECC"/>
<path fill-rule="evenodd" clip-rule="evenodd" d="M17.5149 8.96803C17.7416 8.9661 17.9671 8.97826 18.1915 9.00456C18.2308 9.69585 18.2441 10.3899 18.2313 11.0868C18.238 11.6713 18.2313 12.2558 18.2114 12.8402C18.1982 12.5723 18.1849 12.3044 18.1716 12.0365C18.1359 12.3093 18.1293 12.5772 18.1517 12.8402C18.0987 12.8402 18.0456 12.8402 17.9925 12.8402C17.9633 12.5029 17.9633 12.168 17.9925 11.8356C17.9726 11.7808 17.9527 11.726 17.9328 11.6712C17.9033 11.6295 17.8701 11.6295 17.8333 11.6712C17.7561 11.8119 17.6699 11.9215 17.5746 12C17.5468 11.9085 17.5137 11.8233 17.4751 11.7443C17.4974 11.6341 17.5239 11.5245 17.5547 11.4155C17.5093 11.3096 17.4828 11.2 17.4751 11.0868C17.5813 11.0868 17.6874 11.0868 17.7935 11.0868C17.7904 11.0345 17.8036 10.9858 17.8333 10.9406C17.7679 10.8009 17.7413 10.6548 17.7537 10.5023C17.6609 10.5023 17.568 10.5023 17.4751 10.5023C17.4685 10.3071 17.4752 10.1123 17.495 9.91781C17.528 9.52891 17.5479 9.52891 17.5547 9.91781C17.5945 9.91781 17.6343 9.91781 17.6741 9.91781C17.6211 9.69863 17.6211 9.47945 17.6741 9.26027C17.4321 9.24252 17.3791 9.14513 17.5149 8.96803Z" fill="#1FAECC"/>
<path fill-rule="evenodd" clip-rule="evenodd" d="M6.72885 8.96804C6.96945 8.96084 7.20826 8.97304 7.44527 9.00456C7.45192 10.6728 7.44527 12.341 7.42537 14.0091C7.40873 13.095 7.36893 12.1818 7.30597 11.2694C7.29271 11.4521 7.27942 11.6347 7.26617 11.8174C7.25291 11.6956 7.23962 11.5738 7.22637 11.4521C7.20368 11.5742 7.15727 11.5864 7.08706 11.4886C7.04862 11.4193 7.03536 11.3463 7.04726 11.2694C6.9761 11.2798 6.90975 11.2677 6.84826 11.2329C6.96479 11.1969 7.0842 11.1848 7.20647 11.1963C7.20647 11.1598 7.20647 11.1233 7.20647 11.0868C7.06597 11.0681 6.93996 11.0925 6.82836 11.1598C6.8151 11.1477 6.80181 11.1355 6.78856 11.1233C6.75226 11.3046 6.73236 11.4873 6.72885 11.6712C6.68905 11.6712 6.64925 11.6712 6.60945 11.6712C6.60945 11.1842 6.60945 10.6971 6.60945 10.21C6.60945 9.80822 6.60945 9.40639 6.60945 9.00456C6.63767 8.97154 6.67747 8.95938 6.72885 8.96804Z" fill="#1FAECC"/>
<path fill-rule="evenodd" clip-rule="evenodd" d="M18.1406 9.01268C18.2196 9.69348 18.2972 10.3794 18.2711 11.0868C18.2579 11.0868 18.2446 11.0868 18.2313 11.0868C18.2441 10.3899 18.1798 9.70396 18.1406 9.01268Z" fill="#1FAECC"/>
<path fill-rule="evenodd" clip-rule="evenodd" d="M17.1169 9.00457C17.1435 9.00457 17.17 9.00457 17.1965 9.00457C17.1976 9.40658 17.2241 9.73534 17.2761 9.99087C17.228 10.6485 17.228 11.306 17.2761 11.9635C17.2557 12.1603 17.2225 12.3551 17.1766 12.5479C17.14 12.2932 17.1134 12.0374 17.097 11.7808C17.0772 11.9387 17.0705 12.0969 17.0771 12.2557C17.0108 12.2557 16.9445 12.2557 16.8781 12.2557C16.8373 11.9596 16.771 11.6674 16.6791 11.379C16.6165 11.2724 16.5369 11.175 16.4403 11.0868C16.4013 10.9923 16.388 10.8949 16.4005 10.7945C16.1878 10.7885 15.9755 10.7946 15.7637 10.8128C15.6632 10.8816 15.6101 10.9729 15.6045 11.0868C15.4864 11.101 15.3803 11.0766 15.2861 11.0137C15.2585 11.0329 15.2386 11.0572 15.2264 11.0868C15.2349 10.9658 15.2349 10.8441 15.2264 10.7215C15.2184 10.7879 15.1852 10.8366 15.1269 10.8676C15.2031 10.4962 15.3756 10.1675 15.6443 9.88128C16.0345 9.4419 16.5254 9.14966 17.1169 9.00457Z" fill="#0E175C"/>
<path fill-rule="evenodd" clip-rule="evenodd" d="M7.48507 9.33334C7.56468 9.33334 7.64428 9.33334 7.72388 9.33334C7.72388 9.52815 7.72388 9.723 7.72388 9.91781C7.79023 9.91781 7.85654 9.91781 7.92289 9.91781C7.86983 10.5023 7.81674 11.0868 7.76368 11.6712C7.70104 11.6872 7.65459 11.7237 7.62438 11.7808C7.60515 11.7462 7.59855 11.7097 7.60448 11.6712C7.56468 11.6712 7.52488 11.6712 7.48507 11.6712C7.48507 10.8919 7.48507 10.1126 7.48507 9.33334Z" fill="#0E175C"/>
<path fill-rule="evenodd" clip-rule="evenodd" d="M6.60945 9.00457C6.60945 9.40639 6.60945 9.80822 6.60945 10.21C6.56981 10.7881 6.55652 11.3726 6.56965 11.9635C6.53713 11.8733 6.51723 11.7759 6.50995 11.6712C6.47691 11.8651 6.45701 12.0599 6.45025 12.2557C6.39719 12.2557 6.3441 12.2557 6.29104 12.2557C6.21359 12.0769 6.18704 11.882 6.21144 11.6712C5.99918 11.6712 5.78688 11.6712 5.57463 11.6712C5.57463 11.5738 5.57463 11.4764 5.57463 11.379C5.46848 11.379 5.36237 11.379 5.25622 11.379C5.25622 11.3425 5.25622 11.3059 5.25622 11.2694C5.15007 11.2694 5.04396 11.2694 4.93781 11.2694C4.924 11.7695 4.89084 11.7817 4.83831 11.3059C4.82505 11.3668 4.81176 11.4277 4.79851 11.4886C4.78525 11.4764 4.77196 11.4642 4.75871 11.4521C4.75954 11.1846 4.77279 10.9167 4.79851 10.6484C4.83799 10.4296 4.95739 10.2591 5.15672 10.137C5.20161 10.0696 5.22151 9.99653 5.21642 9.91781C5.35564 9.91861 5.4087 9.86382 5.37562 9.75342C5.43632 9.71657 5.50267 9.6983 5.57463 9.69863C5.57463 9.64994 5.57463 9.60121 5.57463 9.55251C5.68981 9.56924 5.78931 9.54488 5.87313 9.47945C5.89968 9.52815 5.92619 9.52815 5.95273 9.47945C5.96599 9.50382 5.97928 9.52815 5.99254 9.55251C6.05566 9.52051 6.11536 9.48398 6.17164 9.44292C6.2108 9.54988 6.22406 9.65947 6.21144 9.77169C5.97857 9.74152 5.76631 9.78415 5.57463 9.89954C5.83134 9.89582 6.07675 9.92625 6.31094 9.99087C6.33072 9.89421 6.33737 9.79679 6.33084 9.69863C6.37065 9.69863 6.41045 9.69863 6.45025 9.69863C6.43341 9.61531 6.45996 9.55441 6.52985 9.51598C6.52324 9.72332 6.52989 9.93034 6.54975 10.137C6.55652 9.75313 6.57642 9.37567 6.60945 9.00457Z" fill="#0E175C"/>
<path fill-rule="evenodd" clip-rule="evenodd" d="M6.41045 9.07763C6.45136 9.09859 6.49116 9.11076 6.52985 9.11415C6.52233 9.24146 6.52233 9.37542 6.52985 9.51598C6.45996 9.55441 6.43341 9.61531 6.45025 9.69863C6.41045 9.69863 6.37065 9.69863 6.33085 9.69863C6.33737 9.79679 6.33073 9.89421 6.31095 9.99087C6.07676 9.92625 5.83134 9.89582 5.57463 9.89954C5.76631 9.78415 5.97857 9.74152 6.21144 9.77169C6.22406 9.65947 6.21081 9.54988 6.17164 9.44292C6.11536 9.48398 6.05566 9.52051 5.99254 9.55251C5.97928 9.52815 5.96599 9.50382 5.95274 9.47945C5.92619 9.52815 5.89968 9.52815 5.87313 9.47945C5.78931 9.54488 5.68981 9.56924 5.57463 9.55251C5.57463 9.60121 5.57463 9.64994 5.57463 9.69863C5.50267 9.6983 5.43632 9.71657 5.37562 9.75342C5.4087 9.86382 5.35564 9.91861 5.21642 9.91781C5.22151 9.99653 5.20161 10.0696 5.15672 10.137C4.95739 10.2591 4.83799 10.4296 4.79851 10.6484C4.7728 10.9167 4.75954 11.1846 4.75871 11.4521C4.77196 11.4642 4.78525 11.4764 4.79851 11.4886C4.81176 11.4277 4.82505 11.3668 4.83831 11.3059C4.89085 11.7817 4.924 11.7695 4.93781 11.2694C5.04396 11.2694 5.15007 11.2694 5.25622 11.2694C5.25622 11.3059 5.25622 11.3425 5.25622 11.379C5.36237 11.379 5.46848 11.379 5.57463 11.379C5.57463 11.4764 5.57463 11.5738 5.57463 11.6712C5.78689 11.6712 5.99918 11.6712 6.21144 11.6712C6.18704 11.882 6.21359 12.0769 6.29104 12.2557C6.28038 12.3514 6.29363 12.4427 6.33085 12.5297C6.30191 12.5808 6.28201 12.6356 6.27114 12.6941C6.23071 12.6526 6.20416 12.6648 6.19154 12.7306C6.10529 12.7002 6.04559 12.6454 6.01244 12.5662C6.03899 12.554 6.06549 12.5418 6.09204 12.5297C6.05889 12.4505 5.99918 12.3957 5.91294 12.3653C5.89371 12.3307 5.8871 12.2941 5.89303 12.2557C6.03763 12.2578 6.04428 12.2213 5.91294 12.1461C5.6961 12.1697 5.47719 12.194 5.25622 12.2192C5.19588 12.2883 5.14279 12.3613 5.09701 12.4384C5.04989 12.3819 5.01009 12.321 4.97761 12.2557C4.97682 12.5579 4.90386 12.5823 4.75871 12.3288C4.74716 12.2392 4.72066 12.154 4.6791 12.0731C4.66064 12.0948 4.65399 12.1191 4.6592 12.1461C4.62728 12.0931 4.60738 12.0322 4.5995 11.9635C4.5796 11.6715 4.57299 11.3793 4.5796 11.0868C4.7445 10.2555 5.22211 9.61626 6.01244 9.16895C6.14251 9.12694 6.27516 9.09647 6.41045 9.07763Z" fill="#0E175C"/>
<path fill-rule="evenodd" clip-rule="evenodd" d="M19.8632 12.7671C19.5606 13.3981 19.0565 13.8243 18.3507 14.0457C18.3375 14.0457 18.3242 14.0457 18.3109 14.0457C18.3043 13.0958 18.3109 12.146 18.3308 11.1963C18.4267 11.3408 18.4797 11.4991 18.49 11.6712C18.4911 11.5394 18.5242 11.4176 18.5896 11.3059C18.9202 11.2695 19.2518 11.2573 19.5846 11.2694C19.5846 11.3059 19.5846 11.3425 19.5846 11.379C19.6244 11.379 19.6642 11.379 19.704 11.379C19.704 11.4764 19.704 11.5738 19.704 11.6712C19.8344 11.6816 19.9604 11.6694 20.0821 11.6347C20.173 11.7651 20.1465 11.8747 20.0025 11.9635C19.9901 12.0386 19.9702 12.1116 19.9428 12.1826C19.9511 12.2041 19.9644 12.2223 19.9826 12.2374C19.9103 12.3032 19.8638 12.3823 19.8433 12.4749C19.7902 12.5236 19.7371 12.5236 19.6841 12.4749C19.6708 12.4993 19.6575 12.5236 19.6443 12.5479C19.6054 12.685 19.6319 12.7093 19.7239 12.621C19.7637 12.6697 19.8035 12.6697 19.8433 12.621C19.8628 12.6682 19.8694 12.717 19.8632 12.7671Z" fill="#0E175C"/>
<path fill-rule="evenodd" clip-rule="evenodd" d="M9.43532 10.1735C9.64567 10.1963 9.73853 10.3059 9.71393 10.5023C9.85861 10.508 9.87186 10.5506 9.75373 10.6301C9.88281 10.7214 9.94915 10.8432 9.95274 10.9954C9.89694 11.1567 9.91684 11.309 10.0124 11.4521C10.0255 11.681 10.0321 11.9063 10.0323 12.1279C9.9605 12.2672 9.87429 12.395 9.77363 12.5114C9.76038 12.4993 9.74709 12.487 9.73383 12.4749C9.71783 12.525 9.69793 12.5737 9.67413 12.621C9.67083 12.7027 9.68408 12.7879 9.71393 12.8767C9.62024 12.9405 9.58044 13.0257 9.59453 13.1324C9.42239 13.1179 9.32289 13.1909 9.29602 13.3516C9.26374 13.5776 9.20404 13.7968 9.11692 14.0091C9.08476 13.9389 9.06486 13.8658 9.05721 13.79C9.00237 13.983 8.94931 13.983 8.89801 13.79C8.78239 13.7753 8.66959 13.7996 8.5597 13.863C8.71783 13.7422 8.86378 13.6083 8.99751 13.4612C9.89097 12.4515 10.0369 11.3556 9.43532 10.1735Z" fill="#EEF5F8"/>
<path fill-rule="evenodd" clip-rule="evenodd" d="M17.1965 9.00457C17.2363 9.00457 17.2761 9.00457 17.3159 9.00457C17.3159 9.11416 17.3159 9.22374 17.3159 9.33333C17.3034 10.9532 17.3233 12.5727 17.3756 14.1918C17.4039 14.2456 17.4503 14.27 17.5149 14.2648C17.5149 14.3014 17.5149 14.3379 17.5149 14.3744C17.4634 14.4033 17.417 14.4398 17.3756 14.484C17.2812 14.6086 17.2083 14.7425 17.1567 14.8858C16.8356 15.2092 16.4774 15.4892 16.0821 15.726C15.9786 15.7614 15.8857 15.8101 15.8035 15.8721C15.7454 15.8697 15.6924 15.8819 15.6443 15.9087C15.576 15.904 15.5096 15.8918 15.4453 15.8721C15.4619 15.8458 15.4884 15.8275 15.5249 15.8174C15.4851 15.8052 15.4453 15.793 15.4055 15.7808C15.5242 15.7626 15.6436 15.7565 15.7637 15.7626C15.7637 15.5677 15.7637 15.3729 15.7637 15.1781C16.0487 15.1864 16.3273 15.1864 16.5995 15.1781C16.5901 15.0785 16.6233 14.9933 16.699 14.9224C16.8034 14.9213 16.9096 14.9334 17.0174 14.9589C17.0373 14.8858 17.0572 14.8128 17.0771 14.7397C17.0092 14.5781 17.0357 14.432 17.1567 14.3014C17.2029 14.1567 17.2095 14.0106 17.1766 13.863C17.1634 13.9117 17.1501 13.9604 17.1368 14.0091C17.1028 13.8707 17.0563 13.7368 16.9975 13.6073C16.9312 13.5708 16.8781 13.5221 16.8383 13.4612C16.7618 13.4317 16.6822 13.4134 16.5995 13.4064C16.5663 13.3272 16.5066 13.2724 16.4204 13.242C16.4005 13.1086 16.3939 12.9747 16.4005 12.8402C16.1882 12.8645 15.9759 12.8889 15.7637 12.9132C15.7767 12.7531 15.7634 12.5948 15.7239 12.4384C15.6107 12.3939 15.5112 12.333 15.4254 12.2557C15.4055 12.2922 15.3856 12.3288 15.3657 12.3653C15.4089 12.5176 15.4089 12.6759 15.3657 12.8402C15.2513 12.6605 15.1717 12.4656 15.1269 12.2557C15.0738 11.8174 15.0738 11.379 15.1269 10.9406C15.1269 10.9163 15.1269 10.8919 15.1269 10.8676C15.1852 10.8366 15.2184 10.7879 15.2264 10.7215C15.2349 10.8441 15.2349 10.9658 15.2264 11.0868C15.2386 11.0572 15.2585 11.0329 15.2861 11.0137C15.3803 11.0766 15.4864 11.101 15.6045 11.0868C15.6101 10.9729 15.6632 10.8816 15.7637 10.8128C15.9755 10.7946 16.1878 10.7885 16.4005 10.7945C16.388 10.8949 16.4013 10.9923 16.4403 11.0868C16.5369 11.175 16.6165 11.2724 16.6791 11.379C16.771 11.6674 16.8373 11.9596 16.8781 12.2557C16.9445 12.2557 17.0108 12.2557 17.0771 12.2557C17.0705 12.0969 17.0772 11.9387 17.097 11.7808C17.1134 12.0374 17.14 12.2932 17.1766 12.5479C17.2225 12.3551 17.2557 12.1603 17.2761 11.9635C17.228 11.306 17.228 10.6485 17.2761 9.99087C17.2241 9.73534 17.1976 9.40658 17.1965 9.00457Z" fill="#0E175C"/>
<path fill-rule="evenodd" clip-rule="evenodd" d="M15.1269 10.9406C15.0738 11.379 15.0738 11.8174 15.1269 12.2557C15.0672 12.0453 15.0406 11.8261 15.0473 11.5982C15.0406 11.3702 15.0672 11.1511 15.1269 10.9406Z" fill="#5E666E"/>
<path fill-rule="evenodd" clip-rule="evenodd" d="M4.6592 12.3288C4.72185 12.3873 4.7484 12.4603 4.73881 12.5479C4.67616 12.4894 4.64961 12.4164 4.6592 12.3288Z" fill="#A1A9B1"/>
<path fill-rule="evenodd" clip-rule="evenodd" d="M6.56965 11.9635C6.60384 12.6636 6.60384 13.3577 6.56965 14.0457C6.36114 14.0163 6.16213 13.9615 5.97264 13.8813C5.60961 13.682 5.31111 13.4203 5.07712 13.0959C4.96325 12.9109 4.85049 12.7283 4.73881 12.5479C4.7484 12.4603 4.72185 12.3873 4.65921 12.3288C4.65921 12.2679 4.65921 12.207 4.65921 12.1461C4.65399 12.1191 4.66064 12.0948 4.67911 12.0731C4.72066 12.154 4.74717 12.2392 4.75871 12.3288C4.90386 12.5823 4.97682 12.5579 4.97761 12.2557C5.01009 12.321 5.04989 12.3819 5.09702 12.4384C5.14279 12.3613 5.19588 12.2883 5.25622 12.2192C5.4772 12.194 5.6961 12.1697 5.91294 12.1461C6.04428 12.2213 6.03763 12.2578 5.89304 12.2557C5.88711 12.2941 5.89371 12.3307 5.91294 12.3653C5.99919 12.3957 6.05889 12.4505 6.09204 12.5297C6.06549 12.5418 6.03899 12.554 6.01244 12.5662C6.04559 12.6454 6.10529 12.7002 6.19154 12.7306C6.20416 12.6648 6.23071 12.6526 6.27115 12.6941C6.28201 12.6356 6.30191 12.5808 6.33085 12.5297C6.29363 12.4427 6.28038 12.3514 6.29105 12.2557C6.3441 12.2557 6.3972 12.2557 6.45025 12.2557C6.45702 12.0599 6.47692 11.8651 6.50995 11.6712C6.51724 11.7759 6.53714 11.8733 6.56965 11.9635Z" fill="#0E175C"/>
<path fill-rule="evenodd" clip-rule="evenodd" d="M8.99751 13.4612C8.86378 13.6083 8.71783 13.7422 8.5597 13.863C8.41268 13.9548 8.25347 14.0279 8.08209 14.0822C7.88758 14.1334 7.68858 14.1578 7.48507 14.1553C7.48507 13.3272 7.48507 12.4993 7.48507 11.6712C7.52488 11.6712 7.56468 11.6712 7.60448 11.6712C7.59855 11.7097 7.60515 11.7462 7.62438 11.7808C7.65459 11.7237 7.70104 11.6872 7.76368 11.6712C7.8159 11.7532 7.84241 11.8506 7.84328 11.9635C7.81801 12.1827 7.8114 12.4019 7.82338 12.621C7.8793 12.5071 7.8992 12.3853 7.88308 12.2557C7.93614 12.2557 7.98923 12.2557 8.04229 12.2557C8.06884 13.035 8.09534 13.035 8.12189 12.2557C8.22804 12.2557 8.33415 12.2557 8.4403 12.2557C8.4403 12.4505 8.4403 12.6454 8.4403 12.8402C8.54645 12.8402 8.65256 12.8402 8.75871 12.8402C8.75871 12.2557 8.75871 11.6712 8.75871 11.0868C8.85156 11.0868 8.94446 11.0868 9.03731 11.0868C9.03751 11.3788 9.03751 11.671 9.03731 11.9635C9.06386 12.1218 9.09037 12.2801 9.11692 12.4384C9.11186 12.5736 9.09861 12.7075 9.07711 12.8402C9.01077 12.8402 8.94446 12.8402 8.87811 12.8402C8.86151 13.0443 8.95441 13.1296 9.15672 13.0959C9.1035 13.1047 9.03719 13.1229 8.95771 13.1507C8.96181 13.2466 8.97506 13.3501 8.99751 13.4612Z" fill="#0E175C"/>
<path fill-rule="evenodd" clip-rule="evenodd" d="M7.4254 9.01268C7.4626 9.11476 7.47528 9.22464 7.46348 9.34233C7.46348 10.1237 7.46348 10.9051 7.46348 11.6865C7.46348 12.5168 7.46348 13.347 7.46348 14.1772C7.26348 14.1485 7.0604 14.1302 6.8542 14.1223C6.794 14.0964 6.73688 14.0659 6.68284 14.0307C6.66517 14.0525 6.65881 14.0769 6.6638 14.104C6.62602 14.1103 6.60066 14.098 6.58764 14.0673C6.62035 13.3775 6.62035 12.6816 6.58764 11.9795C6.57507 11.3871 6.58779 10.801 6.62572 10.2214C6.62572 10.7098 6.62572 11.1982 6.62572 11.6865C6.6638 11.6865 6.70188 11.6865 6.73996 11.6865C6.74331 11.5021 6.76235 11.3189 6.79708 11.1371C6.80976 11.1493 6.82248 11.1615 6.83516 11.1737C6.94194 11.1062 7.0625 11.0818 7.19692 11.1005C7.19692 11.1371 7.19692 11.1737 7.19692 11.2104C7.07994 11.1987 6.9657 11.2109 6.8542 11.247C6.91303 11.2819 6.97651 11.2941 7.0446 11.2836C7.03321 11.3607 7.04589 11.4339 7.08268 11.5034C7.14985 11.6014 7.19425 11.5892 7.21596 11.4668C7.22864 11.5888 7.24136 11.711 7.25404 11.833C7.26672 11.6499 7.27944 11.4668 7.29212 11.2836C7.35236 12.1984 7.39044 13.1141 7.40636 14.0307C7.4254 12.3581 7.43176 10.6854 7.4254 9.01268Z" fill="#1FAECC"/>
<path fill-rule="evenodd" clip-rule="evenodd" d="M17.3159 9.33334C17.3425 10.2041 17.369 11.0808 17.3955 11.9635C17.4344 11.8937 17.4609 11.8206 17.4751 11.7443C17.5137 11.8233 17.5468 11.9085 17.5746 12C17.6699 11.9215 17.7561 11.8119 17.8333 11.6712C17.8701 11.6296 17.9033 11.6296 17.9328 11.6712C17.9527 11.726 17.9726 11.7808 17.9925 11.8356C17.9633 12.168 17.9633 12.5029 17.9925 12.8402C18.0456 12.8402 18.0987 12.8402 18.1517 12.8402C18.1293 12.5772 18.1359 12.3093 18.1716 12.0365C18.1849 12.3044 18.1982 12.5723 18.2114 12.8402C18.2313 12.2558 18.238 11.6713 18.2313 11.0868C18.2446 11.0868 18.2579 11.0868 18.2711 11.0868C18.258 12.0793 18.2712 13.0656 18.3109 14.0457C18.3242 14.0457 18.3375 14.0457 18.3507 14.0457C18.162 14.1085 17.963 14.1511 17.7537 14.1735C17.6267 14.2001 17.5471 14.2671 17.5149 14.3744C17.5149 14.3379 17.5149 14.3014 17.5149 14.2648C17.4503 14.27 17.4039 14.2456 17.3756 14.1918C17.3233 12.5727 17.3034 10.9532 17.3159 9.33334Z" fill="#1FAECC"/>
<path fill-rule="evenodd" clip-rule="evenodd" d="M15.7637 13.4247C15.8565 13.4856 15.9361 13.5586 16.0025 13.6438C15.8831 13.6073 15.8035 13.5342 15.7637 13.4247Z" fill="#8D9AA6"/>
<path fill-rule="evenodd" clip-rule="evenodd" d="M16.2811 13.8265C16.4261 13.8616 16.4393 13.9225 16.3209 14.0091C16.3262 13.9437 16.313 13.8828 16.2811 13.8265Z" fill="#9AA1B1"/>
<path fill-rule="evenodd" clip-rule="evenodd" d="M16.3209 14.0091C16.2943 14.07 16.2678 14.1309 16.2413 14.1918C16.2147 14.1918 16.1882 14.1918 16.1617 14.1918C16.1865 14.1094 16.2396 14.0485 16.3209 14.0091Z" fill="#5A6970"/>
<path fill-rule="evenodd" clip-rule="evenodd" d="M15.4453 15.8721C15.4453 15.8843 15.4453 15.8965 15.4453 15.9087C14.4056 15.9247 13.3642 15.9247 12.3209 15.9087C12.253 15.8792 12.2198 15.8305 12.2214 15.7626C12.1285 15.7626 12.0356 15.7626 11.9428 15.7626C11.9526 15.5419 11.9394 15.3227 11.903 15.105C11.9301 14.9721 11.95 14.8382 11.9627 14.7032C12.037 14.7875 12.0768 14.8849 12.0821 14.9954C12.0936 14.939 12.1201 14.8903 12.1617 14.8493C12.2969 14.9356 12.403 15.0452 12.4801 15.1781C12.5099 15.1552 12.5431 15.1369 12.5796 15.1233C12.8362 15.1102 13.0883 15.1041 13.3358 15.105C13.7465 15.158 14.1578 15.2128 14.5697 15.2694C14.6658 15.3358 14.7719 15.3845 14.8881 15.4155C14.9666 15.4336 15.0462 15.4397 15.1269 15.4338C15.1269 15.3486 15.1269 15.2633 15.1269 15.1781C14.9129 15.1901 14.7007 15.1779 14.49 15.1416C14.6911 15.1145 14.8901 15.1023 15.0871 15.105C15.1849 15.168 15.291 15.1863 15.4055 15.1598C15.4055 15.1087 15.4188 15.0539 15.4453 14.9954C15.4149 14.9804 15.3751 14.9744 15.3259 14.9772C15.3835 14.9364 15.4499 14.912 15.5249 14.9041C15.5751 14.8169 15.6481 14.75 15.7438 14.7032C15.763 14.6686 15.7696 14.632 15.7637 14.5936C15.8167 14.5936 15.8698 14.5936 15.9229 14.5936C15.9712 14.4821 16.0574 14.3968 16.1816 14.3379C16.2131 14.2924 16.233 14.2437 16.2413 14.1918C16.2678 14.1309 16.2943 14.07 16.3209 14.0091C16.4393 13.9225 16.4261 13.8616 16.2811 13.8265C16.1669 13.7924 16.074 13.7315 16.0025 13.6438C15.9361 13.5586 15.8565 13.4856 15.7637 13.4247C15.6106 13.2411 15.478 13.0463 15.3657 12.8402C15.4089 12.6759 15.4089 12.5176 15.3657 12.3653C15.3856 12.3288 15.4055 12.2922 15.4254 12.2557C15.5112 12.333 15.6107 12.3939 15.7239 12.4384C15.7634 12.5948 15.7767 12.7531 15.7637 12.9132C15.9759 12.8889 16.1882 12.8645 16.4005 12.8402C16.3939 12.9747 16.4005 13.1086 16.4204 13.242C16.5066 13.2724 16.5663 13.3272 16.5995 13.4064C16.6822 13.4134 16.7618 13.4317 16.8383 13.4612C16.8781 13.5221 16.9312 13.5708 16.9975 13.6073C17.0563 13.7368 17.1028 13.8707 17.1368 14.0091C17.1501 13.9604 17.1634 13.9117 17.1766 13.863C17.2095 14.0106 17.2029 14.1567 17.1567 14.3014C17.0357 14.432 17.0092 14.5781 17.0771 14.7397C17.0572 14.8128 17.0373 14.8858 17.0174 14.9589C16.9096 14.9334 16.8034 14.9213 16.699 14.9224C16.6233 14.9933 16.5901 15.0785 16.5995 15.1781C16.3273 15.1864 16.0487 15.1864 15.7637 15.1781C15.7637 15.3729 15.7637 15.5677 15.7637 15.7626C15.6436 15.7565 15.5242 15.7626 15.4055 15.7808C15.4453 15.793 15.4851 15.8052 15.5249 15.8174C15.4884 15.8275 15.4619 15.8458 15.4453 15.8721Z" fill="#0E175C"/>
<path fill-rule="evenodd" clip-rule="evenodd" d="M16.1617 14.1918C16.1882 14.1918 16.2147 14.1918 16.2413 14.1918C16.233 14.2437 16.2131 14.2924 16.1816 14.3379C16.0574 14.3968 15.9712 14.4821 15.9229 14.5936C15.8698 14.5936 15.8167 14.5936 15.7637 14.5936C15.7696 14.632 15.763 14.6686 15.7438 14.7032C15.6481 14.75 15.5751 14.817 15.5249 14.9041C15.4499 14.912 15.3835 14.9364 15.3259 14.9772C15.3751 14.9744 15.4149 14.9804 15.4453 14.9954C15.4188 15.0539 15.4055 15.1087 15.4055 15.1598C15.291 15.1863 15.1849 15.168 15.0871 15.105C14.8901 15.1023 14.6911 15.1145 14.4901 15.1416C14.7007 15.1779 14.9129 15.1901 15.1269 15.1781C15.1269 15.2633 15.1269 15.3486 15.1269 15.4338C15.0462 15.4397 14.9666 15.4336 14.8881 15.4155C14.7719 15.3845 14.6658 15.3358 14.5697 15.2694C14.1578 15.2128 13.7465 15.158 13.3358 15.105C13.0883 15.1041 12.8362 15.1102 12.5796 15.1233C12.5431 15.137 12.51 15.1552 12.4801 15.1781C12.403 15.0452 12.2969 14.9356 12.1617 14.8493C12.1201 14.8903 12.0936 14.939 12.0821 14.9954C12.0768 14.8849 12.037 14.7875 11.9627 14.7032C11.95 14.8382 11.9301 14.9721 11.903 15.105C11.9394 15.3227 11.9526 15.5419 11.9428 15.7626C12.0356 15.7626 12.1285 15.7626 12.2214 15.7626C12.2198 15.8305 12.253 15.8792 12.3209 15.9087C13.3642 15.9247 14.4056 15.9247 15.4453 15.9087C15.3764 15.9656 15.2703 15.996 15.1269 16C14.2238 15.9942 13.3349 16.0247 12.4602 16.0913C12.4602 16.1157 12.4602 16.14 12.4602 16.1644C12.2476 16.457 11.969 16.6823 11.6244 16.8402C11.5224 16.8796 11.4163 16.8979 11.306 16.895C11.2996 16.8329 11.3062 16.772 11.3259 16.7123C11.3657 16.6636 11.4055 16.6636 11.4453 16.7123C11.6025 16.5903 11.6689 16.432 11.6443 16.2374C11.6848 16.2808 11.7313 16.3173 11.7836 16.347C11.8366 16.3227 11.8963 16.3227 11.9627 16.347C12.0672 16.326 12.1137 16.2652 12.102 16.1644C12.0992 16.1179 12.086 16.0753 12.0622 16.0365C11.9719 16.0088 11.8856 16.0149 11.8035 16.0548C11.7518 16.0332 11.7186 15.9967 11.704 15.9452C11.7961 15.7184 11.8227 15.4871 11.7836 15.2511C11.8394 15.1461 11.8792 15.0365 11.903 14.9224C11.8892 14.8787 11.8693 14.8787 11.8433 14.9224C11.8324 14.8556 11.7992 14.8008 11.7438 14.758C11.7843 14.7197 11.7909 14.677 11.7637 14.6301C11.6041 14.5954 11.4515 14.5954 11.306 14.6301C11.4191 14.5448 11.5385 14.4656 11.6642 14.3927C11.6155 14.275 11.5226 14.2141 11.3856 14.21C11.1196 14.1979 10.8542 14.2101 10.5896 14.2466C10.5163 14.247 10.4434 14.2775 10.3706 14.3379C10.2959 14.4119 10.2494 14.4972 10.2313 14.5936C10.165 14.5936 10.0987 14.5936 10.0323 14.5936C10.0323 14.5571 10.0323 14.5205 10.0323 14.484C9.95015 14.4846 9.87055 14.4968 9.79353 14.5205C10.2192 14.0876 10.7498 13.9354 11.3856 14.0639C11.9215 14.1724 12.293 14.4586 12.5 14.9224C13.3753 14.965 14.2509 14.9711 15.1269 14.9406C15.5058 14.7262 15.8507 14.4766 16.1617 14.1918Z" fill="#0E175C"/>
<path fill-rule="evenodd" clip-rule="evenodd" d="M16.0821 15.726C16.0176 15.8152 15.9247 15.8639 15.8035 15.8721C15.8857 15.8101 15.9786 15.7614 16.0821 15.726Z" fill="#83989E"/>
<path fill-rule="evenodd" clip-rule="evenodd" d="M9.47512 15.7626C9.52969 15.8515 9.56949 15.949 9.59453 16.0548C9.50876 15.9775 9.46895 15.88 9.47512 15.7626Z" fill="#939BA3"/>
<path fill-rule="evenodd" clip-rule="evenodd" d="M11.306 16.895C11.306 16.9071 11.306 16.9193 11.306 16.9315C10.503 17.0077 9.93252 16.7155 9.59453 16.0548C9.56949 15.949 9.52969 15.8515 9.47512 15.7626C9.36432 15.296 9.47047 14.882 9.79353 14.5205C9.87055 14.4968 9.95015 14.4846 10.0323 14.484C10.0323 14.5205 10.0323 14.5571 10.0323 14.5936C10.0987 14.5936 10.165 14.5936 10.2313 14.5936C10.2494 14.4972 10.2959 14.4119 10.3706 14.3379C10.4434 14.2775 10.5163 14.247 10.5896 14.2466C10.8542 14.2101 11.1196 14.1979 11.3856 14.21C11.5226 14.2141 11.6155 14.275 11.6642 14.3927C11.5385 14.4656 11.4191 14.5448 11.306 14.6301C11.4515 14.5954 11.6041 14.5954 11.7637 14.6301C11.7909 14.677 11.7843 14.7197 11.7438 14.758C11.7992 14.8008 11.8324 14.8556 11.8433 14.9224C11.8693 14.8787 11.8892 14.8787 11.903 14.9224C11.8792 15.0365 11.8394 15.1461 11.7836 15.2511C11.8227 15.4871 11.7961 15.7184 11.704 15.9452C11.7186 15.9967 11.7518 16.0332 11.8035 16.0548C11.8856 16.0149 11.9719 16.0088 12.0622 16.0365C12.0859 16.0753 12.0992 16.1179 12.102 16.1644C12.1137 16.2652 12.0672 16.326 11.9627 16.347C11.8963 16.3227 11.8366 16.3227 11.7836 16.347C11.7313 16.3173 11.6848 16.2808 11.6443 16.2374C11.6689 16.432 11.6025 16.5903 11.4453 16.7123C11.4055 16.6636 11.3657 16.6636 11.3259 16.7123C11.3062 16.772 11.2996 16.8329 11.306 16.895Z" fill="#0E175C"/>
<path fill-rule="evenodd" clip-rule="evenodd" d="M10.8284 14.7397C11.4432 14.7378 11.7417 15.0178 11.7239 15.5799C11.6478 15.8567 11.4554 16.0211 11.1468 16.0731C10.5704 16.0798 10.2851 15.818 10.291 15.2877C10.3822 15.0277 10.5613 14.845 10.8284 14.7397Z" fill="#1FAECC"/>
<path fill-rule="evenodd" clip-rule="evenodd" d="M15.4453 15.9087C15.4453 15.8965 15.4453 15.8843 15.4453 15.8721C15.5096 15.8918 15.576 15.904 15.6443 15.9087C15.5269 15.9803 15.3942 16.0229 15.2463 16.0365C14.53 16.0548 13.8136 16.0609 13.097 16.0548C12.881 16.0445 12.6688 16.0567 12.4602 16.0913C13.3349 16.0247 14.2238 15.9942 15.1269 16C15.2703 15.996 15.3764 15.9656 15.4453 15.9087Z" fill="#34454C"/>
<path fill-rule="evenodd" clip-rule="evenodd" d="M13.097 16.0548C12.9186 16.085 12.7329 16.1032 12.5398 16.1096C12.5181 16.1358 12.4916 16.154 12.4602 16.1644C12.4602 16.14 12.4602 16.1157 12.4602 16.0913C12.6688 16.0567 12.881 16.0445 13.097 16.0548Z" fill="#AFBFC6"/>
<path d="M17.2005 9.06329H17.3111L17.477 8.96203L17.2005 8.75949V9.06329Z" fill="#0E175C"/>
<path d="M6.47235 14.0759V9.11392H7.57834V14.0759H6.47235Z" fill="#1FAECC"/>
<path d="M23.7788 11.2405C23.7788 16.908 18.7468 21.576 12.4447 21.576C6.14264 21.576 1.1106 16.908 1.1106 11.2405C1.1106 5.57298 6.14264 0.905064 12.4447 0.905064C18.7468 0.905064 23.7788 5.57298 23.7788 11.2405Z" stroke="#0E175C"/>
</g>
<defs>
<clipPath id="clip0_1394_6586">
<rect width="24" height="24" fill="white" transform="translate(0.5)"/>
</clipPath>
</defs>
</svg>
