<?xml version="1.0" encoding="utf-8"?>
<!-- Generator: Adobe Illustrator 27.5.0, SVG Export Plug-In . SVG Version: 6.00 Build 0)  -->
<svg version="1.1" xmlns="http://www.w3.org/2000/svg" xmlns:xlink="http://www.w3.org/1999/xlink" x="0px" y="0px"
	 viewBox="0 0 500 500" style="enable-background:new 0 0 500 500;" xml:space="preserve">
<g id="Background_Complete">
	<g>
		<rect y="382.398" style="fill:#EBEBEB;" width="500" height="0.25"/>
		<rect x="52.459" y="391.922" style="fill:#EBEBEB;" width="25.997" height="0.25"/>
		<rect x="146.333" y="389.208" style="fill:#EBEBEB;" width="54.101" height="0.25"/>
		<rect x="79.457" y="401.208" style="fill:#EBEBEB;" width="26.317" height="0.25"/>
		<rect x="430.667" y="399.528" style="fill:#EBEBEB;" width="19.235" height="0.25"/>
		<rect x="391.471" y="399.528" style="fill:#EBEBEB;" width="30.292" height="0.25"/>
		<rect x="258.227" y="395.306" style="fill:#EBEBEB;" width="54.556" height="0.25"/>
		<path style="fill:#EBEBEB;" d="M237.014,337.8H43.915c-3.147,0-5.708-2.561-5.708-5.708V60.66c0-3.147,2.561-5.708,5.708-5.708
			h193.099c3.146,0,5.707,2.561,5.707,5.708v271.432C242.721,335.239,240.16,337.8,237.014,337.8z M43.915,55.203
			c-3.01,0-5.458,2.448-5.458,5.458v271.432c0,3.01,2.448,5.458,5.458,5.458h193.099c3.009,0,5.457-2.448,5.457-5.458V60.66
			c0-3.009-2.448-5.458-5.457-5.458H43.915z"/>
		<path style="fill:#EBEBEB;" d="M453.31,337.8H260.212c-3.147,0-5.707-2.561-5.707-5.708V60.66c0-3.147,2.561-5.708,5.707-5.708
			H453.31c3.148,0,5.708,2.561,5.708,5.708v271.432C459.019,335.239,456.458,337.8,453.31,337.8z M260.212,55.203
			c-3.009,0-5.457,2.448-5.457,5.458v271.432c0,3.01,2.448,5.458,5.457,5.458H453.31c3.01,0,5.458-2.448,5.458-5.458V60.66
			c0-3.009-2.448-5.458-5.458-5.458H260.212z"/>
	</g>
	<g>
		<g>
			<g>
				<g>
					<path style="fill:#E0E0E0;" d="M382.194,149.609H312.76c-3.746,3.745-5.845,5.845-9.591,9.591v213.607
						c3.745,3.746,5.845,5.845,9.591,9.591h69.434c3.745-3.745,5.845-5.845,9.591-9.591V159.2
						C388.039,155.455,385.939,153.355,382.194,149.609z"/>
					<polygon style="fill:#EBEBEB;" points="303.17,372.808 312.76,382.398 334.294,382.398 324.703,372.808 					"/>
					<polygon style="fill:#EBEBEB;" points="303.17,159.2 312.76,149.609 334.294,149.609 324.703,159.2 					"/>
				</g>
				<path style="fill:#EBEBEB;" d="M420.409,149.609h-86.115c-3.745,3.745-5.845,5.845-9.591,9.591v213.607
					c3.745,3.746,5.845,5.845,9.591,9.591h86.115c3.745-3.745,5.845-5.845,9.591-9.591V159.2
					C426.254,155.455,424.155,153.355,420.409,149.609z"/>
				<polygon style="fill:#FFFFFF;" points="335.515,377.92 329.182,371.587 329.182,160.421 335.515,154.087 419.188,154.087 
					425.522,160.421 425.522,371.587 419.188,377.92 				"/>
				<g>
					<g>
						<rect x="333.66" y="165.454" style="fill:#EBEBEB;" width="91.861" height="18.498"/>
						<g>
							<path style="fill:#F5F5F5;" d="M420.334,352.914c0,0.443,0.359,0.802,0.803,0.802c0.443,0,0.802-0.359,0.802-0.802
								c0-0.443-0.359-0.803-0.802-0.803C420.693,352.111,420.334,352.471,420.334,352.914z"/>
							<path style="fill:#FFFFFF;" d="M416.475,352.914c0,0.443,0.359,0.802,0.802,0.802c0.443,0,0.803-0.359,0.803-0.802
								c0-0.443-0.359-0.803-0.803-0.803C416.835,352.111,416.475,352.471,416.475,352.914z"/>
							<path style="fill:#F5F5F5;" d="M412.616,352.914c0,0.443,0.359,0.802,0.802,0.802c0.443,0,0.802-0.359,0.802-0.802
								c0-0.443-0.359-0.803-0.802-0.803C412.976,352.111,412.616,352.471,412.616,352.914z"/>
						</g>
						<rect x="333.66" y="172.905" style="fill:#F5F5F5;" width="91.861" height="3.595"/>
						
							<rect x="329.182" y="165.454" transform="matrix(-1 -1.224647e-16 1.224647e-16 -1 662.8418 349.4048)" style="fill:#E0E0E0;" width="4.478" height="18.498"/>
					</g>
					<g>
						<rect x="333.66" y="185.743" style="fill:#EBEBEB;" width="91.861" height="18.498"/>
						<g>
							<path style="fill:#F5F5F5;" d="M420.334,332.625c0,0.443,0.359,0.802,0.803,0.802c0.443,0,0.802-0.359,0.802-0.802
								s-0.359-0.802-0.802-0.802C420.693,331.822,420.334,332.181,420.334,332.625z"/>
							<path style="fill:#FFFFFF;" d="M416.475,332.625c0,0.443,0.359,0.802,0.802,0.802c0.443,0,0.803-0.359,0.803-0.802
								s-0.359-0.802-0.803-0.802C416.835,331.822,416.475,332.181,416.475,332.625z"/>
							<path style="fill:#FFFFFF;" d="M412.616,332.625c0,0.443,0.359,0.802,0.802,0.802c0.443,0,0.802-0.359,0.802-0.802
								s-0.359-0.802-0.802-0.802C412.976,331.822,412.616,332.181,412.616,332.625z"/>
						</g>
						<rect x="333.66" y="193.194" style="fill:#F5F5F5;" width="91.861" height="3.595"/>
						
							<rect x="329.182" y="185.743" transform="matrix(-1 -1.224647e-16 1.224647e-16 -1 662.8418 389.9832)" style="fill:#E0E0E0;" width="4.478" height="18.498"/>
					</g>
					<g>
						<rect x="333.66" y="206.032" style="fill:#EBEBEB;" width="91.861" height="18.498"/>
						<g>
							<path style="fill:#F5F5F5;" d="M420.334,312.336c0,0.443,0.359,0.802,0.803,0.802c0.443,0,0.802-0.359,0.802-0.802
								c0-0.443-0.359-0.803-0.802-0.803C420.693,311.533,420.334,311.892,420.334,312.336z"/>
							<path style="fill:#F5F5F5;" d="M416.475,312.336c0,0.443,0.359,0.802,0.802,0.802c0.443,0,0.803-0.359,0.803-0.802
								c0-0.443-0.359-0.803-0.803-0.803C416.835,311.533,416.475,311.892,416.475,312.336z"/>
							<path style="fill:#F5F5F5;" d="M412.616,312.336c0,0.443,0.359,0.802,0.802,0.802c0.443,0,0.802-0.359,0.802-0.802
								c0-0.443-0.359-0.803-0.802-0.803C412.976,311.533,412.616,311.892,412.616,312.336z"/>
						</g>
						<rect x="333.66" y="213.483" style="fill:#F5F5F5;" width="91.861" height="3.595"/>
						
							<rect x="329.182" y="206.032" transform="matrix(-1 -1.224647e-16 1.224647e-16 -1 662.8418 430.5617)" style="fill:#E0E0E0;" width="4.478" height="18.498"/>
					</g>
					<g>
						<rect x="333.66" y="226.321" style="fill:#EBEBEB;" width="91.861" height="18.498"/>
						<g>
							<path style="fill:#FFFFFF;" d="M420.334,292.046c0,0.443,0.359,0.802,0.803,0.802c0.443,0,0.802-0.359,0.802-0.802
								c0-0.443-0.359-0.802-0.802-0.802C420.693,291.244,420.334,291.603,420.334,292.046z"/>
							<path style="fill:#FFFFFF;" d="M416.475,292.046c0,0.443,0.359,0.802,0.802,0.802c0.443,0,0.803-0.359,0.803-0.802
								c0-0.443-0.359-0.802-0.803-0.802C416.835,291.244,416.475,291.603,416.475,292.046z"/>
							<path style="fill:#F5F5F5;" d="M412.616,292.046c0,0.443,0.359,0.802,0.802,0.802c0.443,0,0.802-0.359,0.802-0.802
								c0-0.443-0.359-0.802-0.802-0.802C412.976,291.244,412.616,291.603,412.616,292.046z"/>
						</g>
						<rect x="333.66" y="233.772" style="fill:#F5F5F5;" width="91.861" height="3.595"/>
						
							<rect x="329.182" y="226.321" transform="matrix(-1 -1.224647e-16 1.224647e-16 -1 662.8418 471.1401)" style="fill:#E0E0E0;" width="4.478" height="18.498"/>
					</g>
					<g>
						<rect x="333.66" y="246.61" style="fill:#EBEBEB;" width="91.861" height="18.498"/>
						<g>
							<path style="fill:#FFFFFF;" d="M420.334,271.757c0,0.443,0.359,0.803,0.803,0.803c0.443,0,0.802-0.359,0.802-0.803
								c0-0.443-0.359-0.802-0.802-0.802C420.693,270.955,420.334,271.314,420.334,271.757z"/>
							<path style="fill:#FFFFFF;" d="M416.475,271.757c0,0.443,0.359,0.803,0.802,0.803c0.443,0,0.803-0.359,0.803-0.803
								c0-0.443-0.359-0.802-0.803-0.802C416.835,270.955,416.475,271.314,416.475,271.757z"/>
							<path style="fill:#FFFFFF;" d="M412.616,271.757c0,0.443,0.359,0.803,0.802,0.803c0.443,0,0.802-0.359,0.802-0.803
								c0-0.443-0.359-0.802-0.802-0.802C412.976,270.955,412.616,271.314,412.616,271.757z"/>
						</g>
						<rect x="333.66" y="254.062" style="fill:#F5F5F5;" width="91.861" height="3.595"/>
						
							<rect x="329.182" y="246.61" transform="matrix(-1 -1.224647e-16 1.224647e-16 -1 662.8418 511.7185)" style="fill:#E0E0E0;" width="4.478" height="18.498"/>
					</g>
					<g>
						<rect x="333.66" y="266.9" style="fill:#EBEBEB;" width="91.861" height="18.498"/>
						<g>
							<path style="fill:#F5F5F5;" d="M420.334,251.468c0,0.443,0.359,0.802,0.803,0.802c0.443,0,0.802-0.359,0.802-0.802
								c0-0.443-0.359-0.802-0.802-0.802C420.693,250.665,420.334,251.025,420.334,251.468z"/>
							<path style="fill:#FFFFFF;" d="M416.475,251.468c0,0.443,0.359,0.802,0.802,0.802c0.443,0,0.803-0.359,0.803-0.802
								c0-0.443-0.359-0.802-0.803-0.802C416.835,250.665,416.475,251.025,416.475,251.468z"/>
							<path style="fill:#F5F5F5;" d="M412.616,251.468c0,0.443,0.359,0.802,0.802,0.802c0.443,0,0.802-0.359,0.802-0.802
								c0-0.443-0.359-0.802-0.802-0.802C412.976,250.665,412.616,251.025,412.616,251.468z"/>
						</g>
						<rect x="333.66" y="274.351" style="fill:#F5F5F5;" width="91.861" height="3.595"/>
						
							<rect x="329.182" y="266.9" transform="matrix(-1 -1.224647e-16 1.224647e-16 -1 662.8418 552.2969)" style="fill:#E0E0E0;" width="4.478" height="18.498"/>
					</g>
					<g>
						<rect x="333.66" y="287.189" style="fill:#EBEBEB;" width="91.861" height="18.498"/>
						<g>
							<path style="fill:#FFFFFF;" d="M420.334,231.179c0,0.443,0.359,0.802,0.803,0.802c0.443,0,0.802-0.359,0.802-0.802
								c0-0.443-0.359-0.803-0.802-0.803C420.693,230.376,420.334,230.735,420.334,231.179z"/>
							<path style="fill:#FFFFFF;" d="M416.475,231.179c0,0.443,0.359,0.802,0.802,0.802c0.443,0,0.803-0.359,0.803-0.802
								c0-0.443-0.359-0.803-0.803-0.803C416.835,230.376,416.475,230.735,416.475,231.179z"/>
							<path style="fill:#F5F5F5;" d="M412.616,231.179c0,0.443,0.359,0.802,0.802,0.802c0.443,0,0.802-0.359,0.802-0.802
								c0-0.443-0.359-0.803-0.802-0.803C412.976,230.376,412.616,230.735,412.616,231.179z"/>
						</g>
						<rect x="333.66" y="294.64" style="fill:#F5F5F5;" width="91.861" height="3.595"/>
						
							<rect x="329.182" y="287.189" transform="matrix(-1 -1.224647e-16 1.224647e-16 -1 662.8418 592.8754)" style="fill:#E0E0E0;" width="4.478" height="18.498"/>
					</g>
					<g>
						<rect x="333.66" y="307.478" style="fill:#EBEBEB;" width="91.861" height="18.498"/>
						<g>
							<path style="fill:#FFFFFF;" d="M420.334,210.889c0,0.443,0.359,0.802,0.803,0.802c0.443,0,0.802-0.359,0.802-0.802
								c0-0.443-0.359-0.803-0.802-0.803C420.693,210.087,420.334,210.446,420.334,210.889z"/>
							<path style="fill:#F5F5F5;" d="M416.475,210.889c0,0.443,0.359,0.802,0.802,0.802c0.443,0,0.803-0.359,0.803-0.802
								c0-0.443-0.359-0.803-0.803-0.803C416.835,210.087,416.475,210.446,416.475,210.889z"/>
							<path style="fill:#FFFFFF;" d="M412.616,210.889c0,0.443,0.359,0.802,0.802,0.802c0.443,0,0.802-0.359,0.802-0.802
								c0-0.443-0.359-0.803-0.802-0.803C412.976,210.087,412.616,210.446,412.616,210.889z"/>
						</g>
						<rect x="333.66" y="314.929" style="fill:#F5F5F5;" width="91.861" height="3.595"/>
						
							<rect x="329.182" y="307.478" transform="matrix(-1 -1.224647e-16 1.224647e-16 -1 662.8418 633.4538)" style="fill:#E0E0E0;" width="4.478" height="18.498"/>
					</g>
					<g>
						<rect x="333.66" y="327.767" style="fill:#EBEBEB;" width="91.861" height="18.498"/>
						<g>
							<path style="fill:#F5F5F5;" d="M420.334,190.6c0,0.443,0.359,0.802,0.803,0.802c0.443,0,0.802-0.359,0.802-0.802
								c0-0.443-0.359-0.803-0.802-0.803C420.693,189.798,420.334,190.157,420.334,190.6z"/>
							<path style="fill:#FFFFFF;" d="M416.475,190.6c0,0.443,0.359,0.802,0.802,0.802c0.443,0,0.803-0.359,0.803-0.802
								c0-0.443-0.359-0.803-0.803-0.803C416.835,189.798,416.475,190.157,416.475,190.6z"/>
							<path style="fill:#F5F5F5;" d="M412.616,190.6c0,0.443,0.359,0.802,0.802,0.802c0.443,0,0.802-0.359,0.802-0.802
								c0-0.443-0.359-0.803-0.802-0.803C412.976,189.798,412.616,190.157,412.616,190.6z"/>
						</g>
						<rect x="333.66" y="335.219" style="fill:#F5F5F5;" width="91.861" height="3.595"/>
						
							<rect x="329.182" y="327.767" transform="matrix(-1 -1.224647e-16 1.224647e-16 -1 662.8418 674.0323)" style="fill:#E0E0E0;" width="4.478" height="18.498"/>
					</g>
					<g>
						<rect x="333.66" y="348.056" style="fill:#EBEBEB;" width="91.861" height="18.498"/>
						<g>
							<path style="fill:#F5F5F5;" d="M420.334,170.311c0,0.443,0.359,0.803,0.803,0.803c0.443,0,0.802-0.359,0.802-0.803
								c0-0.443-0.359-0.802-0.802-0.802C420.693,169.508,420.334,169.868,420.334,170.311z"/>
							<path style="fill:#F5F5F5;" d="M416.475,170.311c0,0.443,0.359,0.803,0.802,0.803c0.443,0,0.803-0.359,0.803-0.803
								c0-0.443-0.359-0.802-0.803-0.802C416.835,169.508,416.475,169.868,416.475,170.311z"/>
							<path style="fill:#FFFFFF;" d="M412.616,170.311c0,0.443,0.359,0.803,0.802,0.803c0.443,0,0.802-0.359,0.802-0.803
								c0-0.443-0.359-0.802-0.802-0.802C412.976,169.508,412.616,169.868,412.616,170.311z"/>
						</g>
						<rect x="333.66" y="355.508" style="fill:#F5F5F5;" width="91.861" height="3.595"/>
						
							<rect x="329.182" y="348.056" transform="matrix(-1 -1.224647e-16 1.224647e-16 -1 662.8418 714.6107)" style="fill:#E0E0E0;" width="4.478" height="18.498"/>
					</g>
				</g>
			</g>
			<g>
				<g>
					<path style="fill:#E0E0E0;" d="M265.609,149.609h-69.434c-3.745,3.745-5.845,5.845-9.591,9.591v213.607
						c3.745,3.746,5.845,5.845,9.591,9.591h69.434c3.745-3.745,5.845-5.845,9.591-9.591V159.2
						C271.454,155.455,269.355,153.355,265.609,149.609z"/>
					<polygon style="fill:#EBEBEB;" points="186.585,372.808 196.176,382.398 217.709,382.398 208.119,372.808 					"/>
					<polygon style="fill:#EBEBEB;" points="186.585,159.2 196.176,149.609 217.709,149.609 208.119,159.2 					"/>
				</g>
				<path style="fill:#EBEBEB;" d="M303.824,149.609h-86.115c-3.745,3.745-5.845,5.845-9.591,9.591v213.607
					c3.745,3.746,5.845,5.845,9.591,9.591h86.115c3.745-3.745,5.845-5.845,9.591-9.591V159.2
					C309.67,155.455,307.57,153.355,303.824,149.609z"/>
				<polygon style="fill:#FFFFFF;" points="218.93,377.92 212.597,371.587 212.597,160.421 218.93,154.087 302.604,154.087 
					308.937,160.421 308.937,371.587 302.603,377.92 				"/>
				<g>
					<g>
						<rect x="217.075" y="165.454" style="fill:#EBEBEB;" width="91.861" height="18.498"/>
						<g>
							<path style="fill:#F5F5F5;" d="M303.749,170.311c0-0.443,0.359-0.802,0.802-0.802s0.802,0.359,0.802,0.802
								c0,0.443-0.359,0.803-0.802,0.803S303.749,170.754,303.749,170.311z"/>
							<path style="fill:#FFFFFF;" d="M299.89,170.311c0-0.443,0.359-0.802,0.802-0.802c0.443,0,0.802,0.359,0.802,0.802
								c0,0.443-0.359,0.803-0.802,0.803C300.25,171.113,299.89,170.754,299.89,170.311z"/>
							<path style="fill:#F5F5F5;" d="M296.032,170.311c0-0.443,0.359-0.802,0.802-0.802c0.443,0,0.802,0.359,0.802,0.802
								c0,0.443-0.359,0.803-0.802,0.803C296.391,171.113,296.032,170.754,296.032,170.311z"/>
						</g>
						<rect x="217.075" y="172.905" style="fill:#F5F5F5;" width="91.861" height="3.595"/>
						
							<rect x="212.597" y="165.454" transform="matrix(-1 -1.224647e-16 1.224647e-16 -1 429.6722 349.4048)" style="fill:#E0E0E0;" width="4.478" height="18.498"/>
					</g>
					<g>
						<rect x="217.075" y="185.743" style="fill:#EBEBEB;" width="91.861" height="18.498"/>
						<g>
							<path style="fill:#F5F5F5;" d="M303.749,190.6c0-0.443,0.359-0.803,0.802-0.803s0.802,0.359,0.802,0.803
								c0,0.443-0.359,0.802-0.802,0.802S303.749,191.043,303.749,190.6z"/>
							<path style="fill:#FFFFFF;" d="M299.89,190.6c0-0.443,0.359-0.803,0.802-0.803c0.443,0,0.802,0.359,0.802,0.803
								c0,0.443-0.359,0.802-0.802,0.802C300.25,191.403,299.89,191.043,299.89,190.6z"/>
							<path style="fill:#FFFFFF;" d="M296.032,190.6c0-0.443,0.359-0.803,0.802-0.803c0.443,0,0.802,0.359,0.802,0.803
								c0,0.443-0.359,0.802-0.802,0.802C296.391,191.403,296.032,191.043,296.032,190.6z"/>
						</g>
						<rect x="217.075" y="193.194" style="fill:#F5F5F5;" width="91.861" height="3.595"/>
						
							<rect x="212.597" y="185.743" transform="matrix(-1 -1.224647e-16 1.224647e-16 -1 429.6722 389.9832)" style="fill:#E0E0E0;" width="4.478" height="18.498"/>
					</g>
					<g>
						<rect x="217.075" y="206.032" style="fill:#EBEBEB;" width="91.861" height="18.498"/>
						<g>
							<path style="fill:#F5F5F5;" d="M303.749,210.889c0-0.443,0.359-0.803,0.802-0.803s0.802,0.359,0.802,0.803
								c0,0.443-0.359,0.802-0.802,0.802S303.749,211.333,303.749,210.889z"/>
							<path style="fill:#F5F5F5;" d="M299.89,210.889c0-0.443,0.359-0.803,0.802-0.803c0.443,0,0.802,0.359,0.802,0.803
								c0,0.443-0.359,0.802-0.802,0.802C300.25,211.692,299.89,211.333,299.89,210.889z"/>
							<path style="fill:#F5F5F5;" d="M296.032,210.889c0-0.443,0.359-0.803,0.802-0.803c0.443,0,0.802,0.359,0.802,0.803
								c0,0.443-0.359,0.802-0.802,0.802C296.391,211.692,296.032,211.333,296.032,210.889z"/>
						</g>
						<rect x="217.075" y="213.483" style="fill:#F5F5F5;" width="91.861" height="3.595"/>
						
							<rect x="212.597" y="206.032" transform="matrix(-1 -1.224647e-16 1.224647e-16 -1 429.6722 430.5617)" style="fill:#E0E0E0;" width="4.478" height="18.498"/>
					</g>
					<g>
						<rect x="217.075" y="226.321" style="fill:#EBEBEB;" width="91.861" height="18.498"/>
						<g>
							<path style="fill:#FFFFFF;" d="M303.749,231.179c0-0.443,0.359-0.803,0.802-0.803s0.802,0.359,0.802,0.803
								c0,0.443-0.359,0.802-0.802,0.802S303.749,231.622,303.749,231.179z"/>
							<path style="fill:#FFFFFF;" d="M299.89,231.179c0-0.443,0.359-0.803,0.802-0.803c0.443,0,0.802,0.359,0.802,0.803
								c0,0.443-0.359,0.802-0.802,0.802C300.25,231.981,299.89,231.622,299.89,231.179z"/>
							<path style="fill:#F5F5F5;" d="M296.032,231.179c0-0.443,0.359-0.803,0.802-0.803c0.443,0,0.802,0.359,0.802,0.803
								c0,0.443-0.359,0.802-0.802,0.802C296.391,231.981,296.032,231.622,296.032,231.179z"/>
						</g>
						<rect x="217.075" y="233.772" style="fill:#F5F5F5;" width="91.861" height="3.595"/>
						
							<rect x="212.597" y="226.321" transform="matrix(-1 -1.224647e-16 1.224647e-16 -1 429.6722 471.1401)" style="fill:#E0E0E0;" width="4.478" height="18.498"/>
					</g>
					<g>
						<rect x="217.075" y="246.61" style="fill:#EBEBEB;" width="91.861" height="18.498"/>
						<g>
							<path style="fill:#FFFFFF;" d="M303.749,251.468c0-0.443,0.359-0.802,0.802-0.802s0.802,0.359,0.802,0.802
								c0,0.443-0.359,0.802-0.802,0.802S303.749,251.911,303.749,251.468z"/>
							<path style="fill:#FFFFFF;" d="M299.89,251.468c0-0.443,0.359-0.802,0.802-0.802c0.443,0,0.802,0.359,0.802,0.802
								c0,0.443-0.359,0.802-0.802,0.802C300.25,252.27,299.89,251.911,299.89,251.468z"/>
							<path style="fill:#FFFFFF;" d="M296.032,251.468c0-0.443,0.359-0.802,0.802-0.802c0.443,0,0.802,0.359,0.802,0.802
								c0,0.443-0.359,0.802-0.802,0.802C296.391,252.27,296.032,251.911,296.032,251.468z"/>
						</g>
						<rect x="217.075" y="254.062" style="fill:#F5F5F5;" width="91.861" height="3.595"/>
						
							<rect x="212.597" y="246.61" transform="matrix(-1 -1.224647e-16 1.224647e-16 -1 429.6722 511.7185)" style="fill:#E0E0E0;" width="4.478" height="18.498"/>
					</g>
					<g>
						<rect x="217.075" y="266.9" style="fill:#EBEBEB;" width="91.861" height="18.498"/>
						<g>
							<path style="fill:#F5F5F5;" d="M303.749,271.757c0-0.443,0.359-0.802,0.802-0.802s0.802,0.359,0.802,0.802
								c0,0.443-0.359,0.803-0.802,0.803S303.749,272.2,303.749,271.757z"/>
							<path style="fill:#FFFFFF;" d="M299.89,271.757c0-0.443,0.359-0.802,0.802-0.802c0.443,0,0.802,0.359,0.802,0.802
								c0,0.443-0.359,0.803-0.802,0.803C300.25,272.56,299.89,272.2,299.89,271.757z"/>
							<path style="fill:#F5F5F5;" d="M296.032,271.757c0-0.443,0.359-0.802,0.802-0.802c0.443,0,0.802,0.359,0.802,0.802
								c0,0.443-0.359,0.803-0.802,0.803C296.391,272.56,296.032,272.2,296.032,271.757z"/>
						</g>
						<rect x="217.075" y="274.351" style="fill:#F5F5F5;" width="91.861" height="3.595"/>
						
							<rect x="212.597" y="266.9" transform="matrix(-1 -1.224647e-16 1.224647e-16 -1 429.6722 552.2969)" style="fill:#E0E0E0;" width="4.478" height="18.498"/>
					</g>
					<g>
						<rect x="217.075" y="287.189" style="fill:#EBEBEB;" width="91.861" height="18.498"/>
						<g>
							<path style="fill:#FFFFFF;" d="M303.749,292.046c0-0.443,0.359-0.802,0.802-0.802s0.802,0.359,0.802,0.802
								c0,0.443-0.359,0.802-0.802,0.802S303.749,292.489,303.749,292.046z"/>
							<path style="fill:#FFFFFF;" d="M299.89,292.046c0-0.443,0.359-0.802,0.802-0.802c0.443,0,0.802,0.359,0.802,0.802
								c0,0.443-0.359,0.802-0.802,0.802C300.25,292.849,299.89,292.489,299.89,292.046z"/>
							<path style="fill:#F5F5F5;" d="M296.032,292.046c0-0.443,0.359-0.802,0.802-0.802c0.443,0,0.802,0.359,0.802,0.802
								c0,0.443-0.359,0.802-0.802,0.802C296.391,292.849,296.032,292.489,296.032,292.046z"/>
						</g>
						<rect x="217.075" y="294.64" style="fill:#F5F5F5;" width="91.861" height="3.595"/>
						
							<rect x="212.597" y="287.189" transform="matrix(-1 -1.224647e-16 1.224647e-16 -1 429.6722 592.8754)" style="fill:#E0E0E0;" width="4.478" height="18.498"/>
					</g>
					<g>
						<rect x="217.075" y="307.478" style="fill:#EBEBEB;" width="91.861" height="18.498"/>
						<g>
							<path style="fill:#FFFFFF;" d="M303.749,312.336c0-0.443,0.359-0.803,0.802-0.803s0.802,0.359,0.802,0.803
								c0,0.443-0.359,0.802-0.802,0.802S303.749,312.779,303.749,312.336z"/>
							<path style="fill:#F5F5F5;" d="M299.89,312.336c0-0.443,0.359-0.803,0.802-0.803c0.443,0,0.802,0.359,0.802,0.803
								c0,0.443-0.359,0.802-0.802,0.802C300.25,313.138,299.89,312.779,299.89,312.336z"/>
							<path style="fill:#FFFFFF;" d="M296.032,312.336c0-0.443,0.359-0.803,0.802-0.803c0.443,0,0.802,0.359,0.802,0.803
								c0,0.443-0.359,0.802-0.802,0.802C296.391,313.138,296.032,312.779,296.032,312.336z"/>
						</g>
						<rect x="217.075" y="314.929" style="fill:#F5F5F5;" width="91.861" height="3.595"/>
						
							<rect x="212.597" y="307.478" transform="matrix(-1 -1.224647e-16 1.224647e-16 -1 429.6722 633.4538)" style="fill:#E0E0E0;" width="4.478" height="18.498"/>
					</g>
					<g>
						<rect x="217.075" y="327.767" style="fill:#EBEBEB;" width="91.861" height="18.498"/>
						<g>
							<path style="fill:#F5F5F5;" d="M303.749,332.625c0-0.443,0.359-0.802,0.802-0.802s0.802,0.359,0.802,0.802
								s-0.359,0.802-0.802,0.802S303.749,333.068,303.749,332.625z"/>
							<path style="fill:#FFFFFF;" d="M299.89,332.625c0-0.443,0.359-0.802,0.802-0.802c0.443,0,0.802,0.359,0.802,0.802
								s-0.359,0.802-0.802,0.802C300.25,333.427,299.89,333.068,299.89,332.625z"/>
							<path style="fill:#F5F5F5;" d="M296.032,332.625c0-0.443,0.359-0.802,0.802-0.802c0.443,0,0.802,0.359,0.802,0.802
								s-0.359,0.802-0.802,0.802C296.391,333.427,296.032,333.068,296.032,332.625z"/>
						</g>
						<rect x="217.075" y="335.219" style="fill:#F5F5F5;" width="91.861" height="3.595"/>
						
							<rect x="212.597" y="327.767" transform="matrix(-1 -1.224647e-16 1.224647e-16 -1 429.6722 674.0323)" style="fill:#E0E0E0;" width="4.478" height="18.498"/>
					</g>
					<g>
						<rect x="217.075" y="348.056" style="fill:#EBEBEB;" width="91.861" height="18.498"/>
						<g>
							<path style="fill:#F5F5F5;" d="M303.749,352.914c0-0.443,0.359-0.803,0.802-0.803s0.802,0.359,0.802,0.803
								c0,0.443-0.359,0.802-0.802,0.802S303.749,353.357,303.749,352.914z"/>
							<path style="fill:#F5F5F5;" d="M299.89,352.914c0-0.443,0.359-0.803,0.802-0.803c0.443,0,0.802,0.359,0.802,0.803
								c0,0.443-0.359,0.802-0.802,0.802C300.25,353.716,299.89,353.357,299.89,352.914z"/>
							<path style="fill:#FFFFFF;" d="M296.032,352.914c0-0.443,0.359-0.803,0.802-0.803c0.443,0,0.802,0.359,0.802,0.803
								c0,0.443-0.359,0.802-0.802,0.802C296.391,353.716,296.032,353.357,296.032,352.914z"/>
						</g>
						<rect x="217.075" y="355.508" style="fill:#F5F5F5;" width="91.861" height="3.595"/>
						
							<rect x="212.597" y="348.056" transform="matrix(-1 -1.224647e-16 1.224647e-16 -1 429.6722 714.6107)" style="fill:#E0E0E0;" width="4.478" height="18.498"/>
					</g>
				</g>
			</g>
			<g>
				<g>
					<path style="fill:#E0E0E0;" d="M149.024,149.609H79.591c-3.745,3.745-5.845,5.845-9.591,9.591v213.607
						c3.745,3.746,5.845,5.845,9.591,9.591h69.434c3.745-3.745,5.845-5.845,9.591-9.591V159.2
						C154.87,155.455,152.77,153.355,149.024,149.609z"/>
					<polygon style="fill:#EBEBEB;" points="70,372.808 79.591,382.398 101.125,382.398 91.534,372.808 					"/>
					<polygon style="fill:#EBEBEB;" points="70,159.2 79.591,149.609 101.125,149.609 91.534,159.2 					"/>
				</g>
				<path style="fill:#EBEBEB;" d="M187.24,149.609h-86.115c-3.746,3.745-5.845,5.845-9.591,9.591v213.607
					c3.745,3.746,5.845,5.845,9.591,9.591h86.115c3.746-3.745,5.845-5.845,9.591-9.591V159.2
					C193.085,155.455,190.985,153.355,187.24,149.609z"/>
				<polygon style="fill:#FFFFFF;" points="102.346,377.92 96.012,371.587 96.012,160.421 102.346,154.087 186.019,154.087 
					192.352,160.421 192.352,371.587 186.018,377.92 				"/>
				<g>
					<g>
						<rect x="100.491" y="165.454" style="fill:#EBEBEB;" width="91.861" height="18.498"/>
						<g>
							<path style="fill:#F5F5F5;" d="M187.164,352.914c0,0.443,0.359,0.802,0.802,0.802c0.443,0,0.803-0.359,0.803-0.802
								c0-0.443-0.359-0.803-0.803-0.803C187.524,352.111,187.164,352.471,187.164,352.914z"/>
							<path style="fill:#FFFFFF;" d="M183.306,352.914c0,0.443,0.359,0.802,0.802,0.802c0.443,0,0.802-0.359,0.802-0.802
								c0-0.443-0.359-0.803-0.802-0.803C183.665,352.111,183.306,352.471,183.306,352.914z"/>
							<path style="fill:#F5F5F5;" d="M179.447,352.914c0,0.443,0.359,0.802,0.803,0.802c0.443,0,0.802-0.359,0.802-0.802
								c0-0.443-0.359-0.803-0.802-0.803C179.806,352.111,179.447,352.471,179.447,352.914z"/>
						</g>
						<rect x="100.491" y="172.905" style="fill:#F5F5F5;" width="91.861" height="3.595"/>
						
							<rect x="96.012" y="165.454" transform="matrix(-1 -1.224647e-16 1.224647e-16 -1 196.5026 349.4048)" style="fill:#E0E0E0;" width="4.478" height="18.498"/>
					</g>
					<g>
						<rect x="100.491" y="185.743" style="fill:#EBEBEB;" width="91.861" height="18.498"/>
						<g>
							<path style="fill:#F5F5F5;" d="M187.164,332.625c0,0.443,0.359,0.802,0.802,0.802c0.443,0,0.803-0.359,0.803-0.802
								s-0.359-0.802-0.803-0.802C187.524,331.822,187.164,332.181,187.164,332.625z"/>
							<path style="fill:#FFFFFF;" d="M183.306,332.625c0,0.443,0.359,0.802,0.802,0.802c0.443,0,0.802-0.359,0.802-0.802
								s-0.359-0.802-0.802-0.802C183.665,331.822,183.306,332.181,183.306,332.625z"/>
							<path style="fill:#FFFFFF;" d="M179.447,332.625c0,0.443,0.359,0.802,0.803,0.802c0.443,0,0.802-0.359,0.802-0.802
								s-0.359-0.802-0.802-0.802C179.806,331.822,179.447,332.181,179.447,332.625z"/>
						</g>
						<rect x="100.491" y="193.194" style="fill:#F5F5F5;" width="91.861" height="3.595"/>
						
							<rect x="96.012" y="185.743" transform="matrix(-1 -1.224647e-16 1.224647e-16 -1 196.5026 389.9832)" style="fill:#E0E0E0;" width="4.478" height="18.498"/>
					</g>
					<g>
						<rect x="100.491" y="206.032" style="fill:#EBEBEB;" width="91.861" height="18.498"/>
						<g>
							<path style="fill:#F5F5F5;" d="M187.164,312.336c0,0.443,0.359,0.802,0.802,0.802c0.443,0,0.803-0.359,0.803-0.802
								c0-0.443-0.359-0.803-0.803-0.803C187.524,311.533,187.164,311.892,187.164,312.336z"/>
							<path style="fill:#F5F5F5;" d="M183.306,312.336c0,0.443,0.359,0.802,0.802,0.802c0.443,0,0.802-0.359,0.802-0.802
								c0-0.443-0.359-0.803-0.802-0.803C183.665,311.533,183.306,311.892,183.306,312.336z"/>
							<path style="fill:#F5F5F5;" d="M179.447,312.336c0,0.443,0.359,0.802,0.803,0.802c0.443,0,0.802-0.359,0.802-0.802
								c0-0.443-0.359-0.803-0.802-0.803C179.806,311.533,179.447,311.892,179.447,312.336z"/>
						</g>
						<rect x="100.491" y="213.483" style="fill:#F5F5F5;" width="91.861" height="3.595"/>
						
							<rect x="96.012" y="206.032" transform="matrix(-1 -1.224647e-16 1.224647e-16 -1 196.5026 430.5617)" style="fill:#E0E0E0;" width="4.478" height="18.498"/>
					</g>
					<g>
						<rect x="100.491" y="226.321" style="fill:#EBEBEB;" width="91.861" height="18.498"/>
						<g>
							<path style="fill:#FFFFFF;" d="M187.164,292.046c0,0.443,0.359,0.802,0.802,0.802c0.443,0,0.803-0.359,0.803-0.802
								c0-0.443-0.359-0.802-0.803-0.802C187.524,291.244,187.164,291.603,187.164,292.046z"/>
							<path style="fill:#FFFFFF;" d="M183.306,292.046c0,0.443,0.359,0.802,0.802,0.802c0.443,0,0.802-0.359,0.802-0.802
								c0-0.443-0.359-0.802-0.802-0.802C183.665,291.244,183.306,291.603,183.306,292.046z"/>
							<path style="fill:#F5F5F5;" d="M179.447,292.046c0,0.443,0.359,0.802,0.803,0.802c0.443,0,0.802-0.359,0.802-0.802
								c0-0.443-0.359-0.802-0.802-0.802C179.806,291.244,179.447,291.603,179.447,292.046z"/>
						</g>
						<rect x="100.491" y="233.772" style="fill:#F5F5F5;" width="91.861" height="3.595"/>
						
							<rect x="96.012" y="226.321" transform="matrix(-1 -1.224647e-16 1.224647e-16 -1 196.5026 471.1401)" style="fill:#E0E0E0;" width="4.478" height="18.498"/>
					</g>
					<g>
						<rect x="100.491" y="246.61" style="fill:#EBEBEB;" width="91.861" height="18.498"/>
						<g>
							<path style="fill:#FFFFFF;" d="M187.164,271.757c0,0.443,0.359,0.803,0.802,0.803c0.443,0,0.803-0.359,0.803-0.803
								c0-0.443-0.359-0.802-0.803-0.802C187.524,270.955,187.164,271.314,187.164,271.757z"/>
							<path style="fill:#FFFFFF;" d="M183.306,271.757c0,0.443,0.359,0.803,0.802,0.803c0.443,0,0.802-0.359,0.802-0.803
								c0-0.443-0.359-0.802-0.802-0.802C183.665,270.955,183.306,271.314,183.306,271.757z"/>
							<path style="fill:#FFFFFF;" d="M179.447,271.757c0,0.443,0.359,0.803,0.803,0.803c0.443,0,0.802-0.359,0.802-0.803
								c0-0.443-0.359-0.802-0.802-0.802C179.806,270.955,179.447,271.314,179.447,271.757z"/>
						</g>
						<rect x="100.491" y="254.062" style="fill:#F5F5F5;" width="91.861" height="3.595"/>
						
							<rect x="96.012" y="246.61" transform="matrix(-1 -1.224647e-16 1.224647e-16 -1 196.5026 511.7185)" style="fill:#E0E0E0;" width="4.478" height="18.498"/>
					</g>
					<g>
						<rect x="100.491" y="266.9" style="fill:#EBEBEB;" width="91.861" height="18.498"/>
						<g>
							<path style="fill:#F5F5F5;" d="M187.164,251.468c0,0.443,0.359,0.802,0.802,0.802c0.443,0,0.803-0.359,0.803-0.802
								c0-0.443-0.359-0.802-0.803-0.802C187.524,250.665,187.164,251.025,187.164,251.468z"/>
							<path style="fill:#FFFFFF;" d="M183.306,251.468c0,0.443,0.359,0.802,0.802,0.802c0.443,0,0.802-0.359,0.802-0.802
								c0-0.443-0.359-0.802-0.802-0.802C183.665,250.665,183.306,251.025,183.306,251.468z"/>
							<path style="fill:#F5F5F5;" d="M179.447,251.468c0,0.443,0.359,0.802,0.803,0.802c0.443,0,0.802-0.359,0.802-0.802
								c0-0.443-0.359-0.802-0.802-0.802C179.806,250.665,179.447,251.025,179.447,251.468z"/>
						</g>
						<rect x="100.491" y="274.351" style="fill:#F5F5F5;" width="91.861" height="3.595"/>
						
							<rect x="96.012" y="266.9" transform="matrix(-1 -1.224647e-16 1.224647e-16 -1 196.5026 552.2969)" style="fill:#E0E0E0;" width="4.478" height="18.498"/>
					</g>
					<g>
						<rect x="100.491" y="287.189" style="fill:#EBEBEB;" width="91.861" height="18.498"/>
						<g>
							<path style="fill:#FFFFFF;" d="M187.164,231.179c0,0.443,0.359,0.802,0.802,0.802c0.443,0,0.803-0.359,0.803-0.802
								c0-0.443-0.359-0.803-0.803-0.803C187.524,230.376,187.164,230.735,187.164,231.179z"/>
							<path style="fill:#FFFFFF;" d="M183.306,231.179c0,0.443,0.359,0.802,0.802,0.802c0.443,0,0.802-0.359,0.802-0.802
								c0-0.443-0.359-0.803-0.802-0.803C183.665,230.376,183.306,230.735,183.306,231.179z"/>
							<path style="fill:#F5F5F5;" d="M179.447,231.179c0,0.443,0.359,0.802,0.803,0.802c0.443,0,0.802-0.359,0.802-0.802
								c0-0.443-0.359-0.803-0.802-0.803C179.806,230.376,179.447,230.735,179.447,231.179z"/>
						</g>
						<rect x="100.491" y="294.64" style="fill:#F5F5F5;" width="91.861" height="3.595"/>
						
							<rect x="96.012" y="287.189" transform="matrix(-1 -1.224647e-16 1.224647e-16 -1 196.5026 592.8754)" style="fill:#E0E0E0;" width="4.478" height="18.498"/>
					</g>
					<g>
						<rect x="100.491" y="307.478" style="fill:#EBEBEB;" width="91.861" height="18.498"/>
						<g>
							<path style="fill:#FFFFFF;" d="M187.164,210.889c0,0.443,0.359,0.802,0.802,0.802c0.443,0,0.803-0.359,0.803-0.802
								c0-0.443-0.359-0.803-0.803-0.803C187.524,210.087,187.164,210.446,187.164,210.889z"/>
							<path style="fill:#F5F5F5;" d="M183.306,210.889c0,0.443,0.359,0.802,0.802,0.802c0.443,0,0.802-0.359,0.802-0.802
								c0-0.443-0.359-0.803-0.802-0.803C183.665,210.087,183.306,210.446,183.306,210.889z"/>
							<path style="fill:#FFFFFF;" d="M179.447,210.889c0,0.443,0.359,0.802,0.803,0.802c0.443,0,0.802-0.359,0.802-0.802
								c0-0.443-0.359-0.803-0.802-0.803C179.806,210.087,179.447,210.446,179.447,210.889z"/>
						</g>
						<rect x="100.491" y="314.929" style="fill:#F5F5F5;" width="91.861" height="3.595"/>
						
							<rect x="96.012" y="307.478" transform="matrix(-1 -1.224647e-16 1.224647e-16 -1 196.5026 633.4538)" style="fill:#E0E0E0;" width="4.478" height="18.498"/>
					</g>
					<g>
						<rect x="100.491" y="327.767" style="fill:#EBEBEB;" width="91.861" height="18.498"/>
						<g>
							<path style="fill:#F5F5F5;" d="M187.164,190.6c0,0.443,0.359,0.802,0.802,0.802c0.443,0,0.803-0.359,0.803-0.802
								c0-0.443-0.359-0.803-0.803-0.803C187.524,189.798,187.164,190.157,187.164,190.6z"/>
							<path style="fill:#FFFFFF;" d="M183.306,190.6c0,0.443,0.359,0.802,0.802,0.802c0.443,0,0.802-0.359,0.802-0.802
								c0-0.443-0.359-0.803-0.802-0.803C183.665,189.798,183.306,190.157,183.306,190.6z"/>
							<path style="fill:#F5F5F5;" d="M179.447,190.6c0,0.443,0.359,0.802,0.803,0.802c0.443,0,0.802-0.359,0.802-0.802
								c0-0.443-0.359-0.803-0.802-0.803C179.806,189.798,179.447,190.157,179.447,190.6z"/>
						</g>
						<rect x="100.491" y="335.219" style="fill:#F5F5F5;" width="91.861" height="3.595"/>
						
							<rect x="96.012" y="327.767" transform="matrix(-1 -1.224647e-16 1.224647e-16 -1 196.5026 674.0323)" style="fill:#E0E0E0;" width="4.478" height="18.498"/>
					</g>
					<g>
						<rect x="100.491" y="348.056" style="fill:#EBEBEB;" width="91.861" height="18.498"/>
						<g>
							<path style="fill:#F5F5F5;" d="M187.164,170.311c0,0.443,0.359,0.803,0.802,0.803c0.443,0,0.803-0.359,0.803-0.803
								c0-0.443-0.359-0.802-0.803-0.802C187.524,169.508,187.164,169.868,187.164,170.311z"/>
							<path style="fill:#F5F5F5;" d="M183.306,170.311c0,0.443,0.359,0.803,0.802,0.803c0.443,0,0.802-0.359,0.802-0.803
								c0-0.443-0.359-0.802-0.802-0.802C183.665,169.508,183.306,169.868,183.306,170.311z"/>
							<path style="fill:#FFFFFF;" d="M179.447,170.311c0,0.443,0.359,0.803,0.803,0.803c0.443,0,0.802-0.359,0.802-0.803
								c0-0.443-0.359-0.802-0.802-0.802C179.806,169.508,179.447,169.868,179.447,170.311z"/>
						</g>
						<rect x="100.491" y="355.508" style="fill:#F5F5F5;" width="91.861" height="3.595"/>
						
							<rect x="96.012" y="348.056" transform="matrix(-1 -1.224647e-16 1.224647e-16 -1 196.5026 714.6107)" style="fill:#E0E0E0;" width="4.478" height="18.498"/>
					</g>
				</g>
			</g>
		</g>
		<path style="fill:#F5F5F5;" d="M182.828,95.18c-0.063-8.142-6.68-14.723-14.836-14.723c-1.965,0-3.838,0.385-5.554,1.078
			c-2.914-5.961-9.035-10.068-16.117-10.068c-8.565,0-15.722,6.006-17.502,14.035c-8.055,0.518-14.429,7.211-14.429,15.397
			c0,8.523,6.91,15.433,15.433,15.433h49.109c6.042,0,10.94-4.898,10.94-10.94C189.872,100.725,186.943,96.751,182.828,95.18z"/>
		<path style="fill:#F5F5F5;" d="M422.271,80.504c-0.083-10.773-8.839-19.482-19.631-19.482c-2.6,0-5.079,0.51-7.349,1.427
			c-3.856-7.888-11.955-13.322-21.326-13.322c-11.333,0-20.803,7.947-23.158,18.571c-10.658,0.686-19.092,9.542-19.092,20.374
			c0,11.278,9.143,20.421,20.421,20.421h64.981c7.995,0,14.476-6.481,14.476-14.476C431.592,87.841,427.717,82.583,422.271,80.504z"
			/>
	</g>
</g>
<g id="Background_Simple" style="display:none;">
	<g style="display:inline;">
		<path style="fill:#407BFF;" d="M297.458,150.687c-26.441-39.534-36.817-75.296-93.7-86.043
			c-38.394-7.254-85.352,1.32-108.674,29.735c-42.189,51.403-46.843,180.057,44.019,200.825
			c44.403,10.149,82.508-1.78,127.454,16.302c44.817,18.03,84.142,31.86,125.867-2.483c26.724-21.997,40.581-63.076,15.684-91.005
			C378.009,184.253,327.17,195.11,297.458,150.687z"/>
		<path style="opacity:0.9;fill:#FFFFFF;" d="M297.458,150.687c-26.441-39.534-36.817-75.296-93.7-86.043
			c-38.394-7.254-85.352,1.32-108.674,29.735c-42.189,51.403-46.843,180.057,44.019,200.825
			c44.403,10.149,82.508-1.78,127.454,16.302c44.817,18.03,84.142,31.86,125.867-2.483c26.724-21.997,40.581-63.076,15.684-91.005
			C378.009,184.253,327.17,195.11,297.458,150.687z"/>
	</g>
</g>
<g id="Shadow_1_">
	<ellipse id="_x3C_Path_x3E__369_" style="fill:#F5F5F5;" cx="250" cy="416.238" rx="193.889" ry="11.323"/>
</g>
<g id="Server">
	<g>
		<g>
			<g>
				<g>
					<path style="fill:#407BFF;" d="M86.523,401.469v-1.517h-8.956c-0.419,0-0.758,0.34-0.758,0.758l0,0
						c0,0.419,0.34,0.758,0.758,0.758H86.523z"/>
					<path style="fill:#407BFF;" d="M86.523,407.97v-1.517h-8.956c-0.419,0-0.758,0.339-0.758,0.758l0,0
						c0,0.419,0.34,0.758,0.758,0.758H86.523z"/>
					<path style="fill:#263238;" d="M83.301,396.242L83.301,396.242c-0.698,0-1.264,0.566-1.264,1.264v13.217
						c0,0.698,0.566,1.264,1.264,1.264l0,0c0.698,0,1.264-0.566,1.264-1.264v-13.217C84.565,396.808,83.999,396.242,83.301,396.242z
						"/>
					<path style="fill:#263238;" d="M86.88,398.087h-3.579v12.055h3.579c3.329,0,6.027-2.699,6.027-6.027l0,0
						C92.907,400.786,90.208,398.087,86.88,398.087z"/>
					<path style="fill:#263238;" d="M115.121,412.358c-2.628,0-5.107-0.296-7.721-0.608l-4.404-0.525
						c-0.7,0.031-1.408,0.08-2.125,0.153c-1.016,0.104-2.05,0.268-3.05,0.426c-1.89,0.298-3.843,0.61-5.807,0.541
						c-0.371-0.013-0.799-0.042-1.195-0.237c-0.502-0.248-0.818-0.725-0.806-1.215c0.01-0.46,0.306-0.898,0.771-1.141
						c0.363-0.192,0.765-0.24,1.113-0.271c2.24-0.193,4.474,0.072,6.635,0.331l4.498,0.537c1.819-0.08,3.578-0.037,5.295,0.005
						c2.184,0.051,4.442,0.105,6.801-0.087c2.002-0.161,3.427-0.835,3.505-1.134c-0.43-0.522-1.538-0.684-3.806-0.971
						c-1.684-0.214-3.823-0.271-6.089-0.332c-1.788-0.049-3.636-0.098-5.527-0.225c-3.773-0.252-8.635-0.852-12.766-3.269
						c-0.208-0.122-0.278-0.39-0.156-0.598c0.122-0.207,0.389-0.279,0.598-0.156c3.974,2.325,8.705,2.905,12.383,3.151
						c1.874,0.125,3.713,0.175,5.492,0.223c2.288,0.061,4.449,0.119,6.176,0.338c1.33,0.169,2.267,0.295,2.951,0.479
						c-0.038-0.05-0.077-0.1-0.116-0.149c-0.326-0.423-0.664-0.859-0.963-1.323c-0.373-0.579-0.787-1.262-0.957-2.04
						c-0.196-0.895-0.011-1.782,0.497-2.373c0.635-0.739,1.656-0.925,2.368-1.001c2.107-0.223,4.206,0.088,6.236,0.388
						c0.238,0.035,0.403,0.257,0.368,0.495c-0.036,0.239-0.255,0.414-0.496,0.368c-1.975-0.292-4.017-0.592-6.017-0.382
						c-0.564,0.06-1.365,0.197-1.797,0.701c-0.33,0.384-0.445,0.988-0.307,1.616c0.14,0.637,0.505,1.239,0.837,1.753
						c0.28,0.434,0.606,0.855,0.921,1.263c0.204,0.264,0.407,0.527,0.602,0.797l0.101,0.139c0.446,0.609,1.057,1.443,0.93,2.326
						c-0.275,1.923-2.992,1.975-4.298,1.999C115.568,412.356,115.343,412.358,115.121,412.358z M111.041,411.275
						c1.557,0.146,3.104,0.232,4.682,0.204c1.118-0.021,3.333-0.064,3.503-1.251c0.018-0.128,0.004-0.263-0.033-0.401
						c-0.748,0.779-2.711,1.207-4,1.312C113.77,411.254,112.392,411.278,111.041,411.275z M93.504,410.289
						c-0.512,0-1.024,0.018-1.534,0.063c-0.275,0.023-0.562,0.057-0.783,0.173c-0.176,0.092-0.3,0.251-0.303,0.388
						c-0.003,0.146,0.131,0.318,0.319,0.411c0.24,0.118,0.546,0.138,0.839,0.148c1.884,0.068,3.792-0.239,5.642-0.531
						c0.42-0.066,0.846-0.134,1.275-0.197l-0.532-0.064C96.812,410.486,95.154,410.289,93.504,410.289z"/>
				</g>
			</g>
			<path d="M220.113,171.014h-89.789c-3.905,3.905-6.095,6.095-10,10v222.721c3.905,3.905,6.095,6.095,10,10h89.789
				c3.905-3.905,6.095-6.095,10-10V181.014C226.208,177.109,224.019,174.92,220.113,171.014z"/>
			<polygon style="fill:#407BFF;" points="104.161,190.404 102.138,193.155 97.003,185.818 100.854,200.203 102.877,197.453 
				108.011,204.79 			"/>
			<polygon style="fill:#407BFF;" points="181.059,142.201 178.022,143.762 176.692,134.906 173.734,149.501 176.77,147.94 
				178.1,156.796 			"/>
			<polygon style="fill:#407BFF;" points="206.645,146.198 202.027,145.124 208.576,134.553 192.331,147.347 196.949,148.421 
				190.401,158.992 			"/>
			<polygon style="opacity:0.7;fill:#263238;" points="120.324,403.736 130.324,413.736 170.17,413.736 160.17,403.736 			"/>
			<polygon style="opacity:0.7;fill:#263238;" points="120.324,181.014 130.324,171.014 170.17,171.014 160.17,181.014 			"/>
		</g>
		<path style="fill:#263238;" d="M259.959,171.014H170.17c-3.905,3.905-6.095,6.095-10,10v222.721c3.905,3.905,6.095,6.095,10,10
			h89.789c3.905-3.905,6.095-6.095,10-10V181.014C266.054,177.109,263.864,174.92,259.959,171.014z"/>
		<polygon style="opacity:0.6;fill:#407BFF;" points="171.443,409.066 164.839,402.463 164.839,182.287 171.443,175.684 
			258.686,175.684 265.29,182.287 265.29,402.463 258.686,409.066 		"/>
		<g>
			<g>
				<rect x="169.509" y="187.535" style="fill:#263238;" width="95.781" height="19.287"/>
				<g>
					<path style="fill:#407BFF;" d="M259.881,192.599c0-0.462,0.375-0.837,0.837-0.837s0.837,0.375,0.837,0.837
						c0,0.462-0.375,0.837-0.837,0.837S259.881,193.061,259.881,192.599z"/>
					<path style="fill:#FFFFFF;" d="M255.857,192.599c0-0.462,0.375-0.837,0.837-0.837s0.837,0.375,0.837,0.837
						c0,0.462-0.375,0.837-0.837,0.837S255.857,193.061,255.857,192.599z"/>
					<path style="fill:#407BFF;" d="M251.834,192.599c0-0.462,0.375-0.837,0.837-0.837s0.837,0.375,0.837,0.837
						c0,0.462-0.375,0.837-0.837,0.837S251.834,193.061,251.834,192.599z"/>
				</g>
				<rect x="169.509" y="195.304" style="fill:#407BFF;" width="95.781" height="3.749"/>
				
					<rect x="164.839" y="187.535" transform="matrix(-1 -1.224647e-16 1.224647e-16 -1 334.3482 394.3561)" width="4.669" height="19.287"/>
			</g>
			<g>
				<rect x="169.509" y="208.689" style="fill:#263238;" width="95.781" height="19.287"/>
				<g>
					<circle style="fill:#407BFF;" cx="260.717" cy="213.754" r="0.837"/>
					<circle style="fill:#FFFFFF;" cx="256.694" cy="213.754" r="0.837"/>
					<circle style="fill:#FFFFFF;" cx="252.671" cy="213.754" r="0.837"/>
				</g>
				<rect x="169.509" y="216.459" style="fill:#407BFF;" width="95.781" height="3.749"/>
				
					<rect x="164.839" y="208.689" transform="matrix(-1 -1.224647e-16 1.224647e-16 -1 334.3482 436.6659)" width="4.669" height="19.287"/>
			</g>
			<g>
				<rect x="169.509" y="229.844" style="fill:#263238;" width="95.781" height="19.287"/>
				<g>
					<circle style="fill:#407BFF;" cx="260.717" cy="234.909" r="0.837"/>
					<circle style="fill:#407BFF;" cx="256.694" cy="234.909" r="0.837"/>
					<circle style="fill:#407BFF;" cx="252.671" cy="234.909" r="0.837"/>
				</g>
				<rect x="169.509" y="237.613" style="fill:#407BFF;" width="95.781" height="3.749"/>
				
					<rect x="164.839" y="229.844" transform="matrix(-1 -1.224647e-16 1.224647e-16 -1 334.3482 478.9757)" width="4.669" height="19.287"/>
			</g>
			<g>
				<rect x="169.509" y="250.999" style="fill:#263238;" width="95.781" height="19.287"/>
				<g>
					<circle style="fill:#FFFFFF;" cx="260.717" cy="256.064" r="0.837"/>
					<circle style="fill:#FFFFFF;" cx="256.694" cy="256.064" r="0.837"/>
					<circle style="fill:#407BFF;" cx="252.671" cy="256.064" r="0.837"/>
				</g>
				<rect x="169.509" y="258.768" style="fill:#407BFF;" width="95.781" height="3.749"/>
				
					<rect x="164.839" y="250.999" transform="matrix(-1 -1.224647e-16 1.224647e-16 -1 334.3482 521.2854)" width="4.669" height="19.287"/>
			</g>
			<g>
				<rect x="169.509" y="272.154" style="fill:#263238;" width="95.781" height="19.287"/>
				<g>
					<path style="fill:#FFFFFF;" d="M259.881,277.219c0-0.462,0.375-0.837,0.837-0.837s0.837,0.375,0.837,0.837
						s-0.375,0.837-0.837,0.837S259.881,277.681,259.881,277.219z"/>
					<path style="fill:#FFFFFF;" d="M255.857,277.219c0-0.462,0.375-0.837,0.837-0.837s0.837,0.375,0.837,0.837
						s-0.375,0.837-0.837,0.837S255.857,277.681,255.857,277.219z"/>
					<path style="fill:#FFFFFF;" d="M251.834,277.219c0-0.462,0.375-0.837,0.837-0.837s0.837,0.375,0.837,0.837
						s-0.375,0.837-0.837,0.837S251.834,277.681,251.834,277.219z"/>
				</g>
				<rect x="169.509" y="279.923" style="fill:#407BFF;" width="95.781" height="3.749"/>
				
					<rect x="164.839" y="272.154" transform="matrix(-1 -1.224647e-16 1.224647e-16 -1 334.3482 563.5951)" width="4.669" height="19.287"/>
			</g>
			<g>
				<rect x="169.509" y="293.309" style="fill:#263238;" width="95.781" height="19.287"/>
				<g>
					<path style="fill:#407BFF;" d="M259.881,298.374c0-0.462,0.375-0.837,0.837-0.837s0.837,0.375,0.837,0.837
						c0,0.462-0.375,0.837-0.837,0.837S259.881,298.836,259.881,298.374z"/>
					<path style="fill:#FFFFFF;" d="M255.857,298.374c0-0.462,0.375-0.837,0.837-0.837s0.837,0.375,0.837,0.837
						c0,0.462-0.375,0.837-0.837,0.837S255.857,298.836,255.857,298.374z"/>
					<path style="fill:#407BFF;" d="M251.834,298.374c0-0.462,0.375-0.837,0.837-0.837s0.837,0.375,0.837,0.837
						c0,0.462-0.375,0.837-0.837,0.837S251.834,298.836,251.834,298.374z"/>
				</g>
				<rect x="169.509" y="301.078" style="fill:#407BFF;" width="95.781" height="3.749"/>
				
					<rect x="164.839" y="293.309" transform="matrix(-1 -1.224647e-16 1.224647e-16 -1 334.3482 605.9049)" width="4.669" height="19.287"/>
			</g>
			<g>
				<rect x="169.509" y="314.464" style="fill:#263238;" width="95.781" height="19.287"/>
				<g>
					<circle style="fill:#FFFFFF;" cx="260.717" cy="319.529" r="0.837"/>
					<circle style="fill:#FFFFFF;" cx="256.694" cy="319.529" r="0.837"/>
					<circle style="fill:#407BFF;" cx="252.671" cy="319.529" r="0.837"/>
				</g>
				<rect x="169.509" y="322.233" style="fill:#407BFF;" width="95.781" height="3.749"/>
				
					<rect x="164.839" y="314.464" transform="matrix(-1 -1.224647e-16 1.224647e-16 -1 334.3482 648.2147)" width="4.669" height="19.287"/>
			</g>
			<g>
				<rect x="169.509" y="335.619" style="fill:#263238;" width="95.781" height="19.287"/>
				<g>
					<circle style="fill:#FFFFFF;" cx="260.717" cy="340.683" r="0.837"/>
					<circle style="fill:#407BFF;" cx="256.694" cy="340.683" r="0.837"/>
					<circle style="fill:#FFFFFF;" cx="252.671" cy="340.683" r="0.837"/>
				</g>
				<rect x="169.509" y="343.388" style="fill:#407BFF;" width="95.781" height="3.749"/>
				
					<rect x="164.839" y="335.619" transform="matrix(-1 -1.224647e-16 1.224647e-16 -1 334.3482 690.5245)" width="4.669" height="19.287"/>
			</g>
			<g>
				<rect x="169.509" y="356.774" style="fill:#263238;" width="95.781" height="19.287"/>
				<g>
					<circle style="fill:#407BFF;" cx="260.717" cy="361.838" r="0.837"/>
					<circle style="fill:#FFFFFF;" cx="256.694" cy="361.838" r="0.837"/>
					<circle style="fill:#407BFF;" cx="252.671" cy="361.838" r="0.837"/>
				</g>
				<rect x="169.509" y="364.543" style="fill:#407BFF;" width="95.781" height="3.749"/>
				
					<rect x="164.839" y="356.774" transform="matrix(-1 -1.224647e-16 1.224647e-16 -1 334.3482 732.8343)" width="4.669" height="19.287"/>
			</g>
			<g>
				<rect x="169.509" y="377.928" style="fill:#263238;" width="95.781" height="19.287"/>
				<g>
					<circle style="fill:#407BFF;" cx="260.717" cy="382.993" r="0.837"/>
					<circle style="fill:#407BFF;" cx="256.694" cy="382.993" r="0.837"/>
					<circle style="fill:#FFFFFF;" cx="252.671" cy="382.993" r="0.837"/>
				</g>
				<rect x="169.509" y="385.698" style="fill:#407BFF;" width="95.781" height="3.749"/>
				
					<rect x="164.839" y="377.928" transform="matrix(-1 -1.224647e-16 1.224647e-16 -1 334.3482 775.1439)" width="4.669" height="19.287"/>
			</g>
		</g>
		<polygon style="opacity:0.7;fill:#407BFF;" points="171.443,409.066 164.839,402.463 164.839,182.287 171.443,175.684 
			223.121,175.684 229.724,182.287 229.724,402.463 223.12,409.066 		"/>
		<polygon style="fill:#407BFF;" points="223.12,409.066 229.724,402.463 229.724,182.287 223.121,175.684 225.706,175.684 
			231.375,181.354 231.375,403.397 225.705,409.066 223.121,409.066 		"/>
	</g>
</g>
<g id="Character_1_">
	<g>
		<path style="fill:#FFB573;" d="M358.177,179.71c2.18,4.258,4.106,8.493,5.879,12.915c0.888,2.199,1.72,4.445,2.483,6.749
			c0.778,2.303,1.47,4.657,1.987,7.319l0.098,0.496l0.049,0.266l0.052,0.374c0.031,0.246,0.066,0.505,0.084,0.74l0.027,0.656
			c0.023,0.867-0.03,1.611-0.106,2.336c-0.167,1.428-0.435,2.706-0.731,3.95c-0.585,2.481-1.384,4.771-2.197,7.034
			c-1.686,4.507-3.652,8.76-5.937,12.958c-0.725,1.331-2.391,1.823-3.722,1.098c-1.111-0.605-1.637-1.866-1.36-3.04l0.016-0.063
			c1.046-4.416,2.109-8.898,3.001-13.261c0.46-2.175,0.828-4.359,1.09-6.419c0.123-1.026,0.204-2.035,0.198-2.911
			c-0.006-0.427-0.016-0.839-0.064-1.124l-0.031-0.208l-0.04-0.116l-0.059-0.21l-0.104-0.347c-0.538-1.834-1.303-3.874-2.13-5.899
			c-0.843-2.025-1.716-4.073-2.645-6.12c-1.84-4.078-3.784-8.234-5.679-12.264l-0.029-0.062c-1.293-2.749-0.113-6.025,2.636-7.318
			C353.63,175.974,356.83,177.085,358.177,179.71z"/>
		<path style="fill:#FFB573;" d="M353.326,234.888l3.419-5.038l3.382-1.024c1.566,1.904,1.108,4.829,0.654,6.512l0.001,0
			l-0.984,6.259c-0.185,1.176-1.111,2.079-2.303,2.247l-2.227,0.314c-1.654,0.233-3.163-0.972-3.304-2.636l-0.092-1.086
			C351.708,238.475,352.22,236.517,353.326,234.888z"/>
		<g>
			<path style="fill:#263238;" d="M347.764,248.4c0.835-0.991,1.222-2.21,1.183-3.411l16.825-7.807
				c0.043,0.038,0.085,0.077,0.129,0.114c2.129,1.793,5.31,1.521,7.105-0.608c0.384-0.454,0.672-0.956,0.869-1.483l-3.658,0.495
				c-0.97,0.132-1.853-0.575-1.937-1.551l-0.108-1.26c-0.083-0.975,0.666-1.823,1.645-1.858l3.689-0.135
				c-0.283-0.486-0.652-0.932-1.108-1.314c-2.131-1.793-5.312-1.521-7.105,0.608c-0.835,0.991-1.222,2.21-1.183,3.411l-16.825,7.807
				c-0.042-0.038-0.085-0.077-0.129-0.114c-2.129-1.793-5.31-1.521-7.105,0.608c-0.384,0.454-0.672,0.956-0.869,1.483l3.658-0.495
				c0.97-0.131,1.853,0.575,1.937,1.551l0.108,1.261c0.083,0.974-0.666,1.823-1.645,1.858l-3.689,0.135
				c0.283,0.486,0.652,0.932,1.108,1.314C342.789,250.801,345.971,250.529,347.764,248.4z"/>
			<path style="opacity:0.1;fill:#FFFFFF;" d="M348.61,242.968L348.61,242.968c-0.236-0.507-0.015-1.11,0.492-1.345l13.461-6.246
				c0.508-0.236,1.11-0.015,1.345,0.492l0,0c0.236,0.508,0.015,1.11-0.492,1.345l-13.461,6.246
				C349.448,243.696,348.846,243.476,348.61,242.968z"/>
		</g>
		<path style="fill:#263238;" d="M346.335,169.276c6.026,1.329,8.967,4.407,14.793,14.102c-3.298,4.889-11.373,9.122-11.373,9.122
			l-3.493-4.024C341.877,180.348,346.335,169.276,346.335,169.276"/>
		<path style="opacity:0.2;" d="M344.341,180.347c0.03,2.71,0.54,5.57,1.92,8.13l3.49,4.02c0,0,1.27-0.67,3.02-1.78
			C349.91,185.018,347.68,182.148,344.341,180.347z"/>
		<path style="fill:#FFB573;" d="M318.553,178.583l-0.109,0.63l-0.099,0.477l-0.215,0.89c-0.155,0.575-0.335,1.131-0.531,1.675
			c-0.388,1.091-0.846,2.144-1.37,3.169c-1.057,2.042-2.406,3.96-4.026,5.643c-1.607,1.695-3.486,3.139-5.5,4.275
			c-2.014,1.139-4.163,1.949-6.311,2.488l-0.353,0.089c-2.594,0.651-5.224-0.924-5.876-3.518c-0.059-0.233-0.101-0.494-0.124-0.726
			c-0.207-2.204-0.008-4.19,0.356-6.033c0.366-1.843,0.884-3.555,1.47-5.197c1.188-3.271,2.707-6.247,4.329-9.103
			c1.646-2.844,3.425-5.555,5.321-8.163c1.931-2.601,3.866-5.101,6.074-7.544c1.012-1.121,2.741-1.209,3.862-0.197
			c0.977,0.883,1.169,2.31,0.532,3.404l-0.042,0.071c-1.507,2.589-3.05,5.295-4.434,7.998c-1.412,2.7-2.747,5.422-3.924,8.161
			c-1.195,2.726-2.207,5.492-2.942,8.176c-0.71,2.648-1.077,5.372-0.743,7.221l-6.353-4.154c1.35-0.518,2.573-1.183,3.689-1.932
			c1.096-0.78,2.077-1.666,2.933-2.673c0.845-1.015,1.592-2.129,2.196-3.343c0.31-0.601,0.585-1.226,0.811-1.856
			c0.119-0.314,0.21-0.631,0.307-0.933l0.131-0.436l0.052-0.191c0.011-0.034,0.035-0.157,0.019-0.044
			c0.463-3.002,3.271-5.061,6.274-4.598C316.957,172.773,319.016,175.581,318.553,178.583z"/>
		<path style="fill:#263238;" d="M321.086,177.835c0.625-3.763-2.02-8.278-2.02-8.278c-5.962,0.297-11.711,1.748-17.236,13.052
			c1.329,6.303,9.676,10.742,9.676,10.742l5.899-7.64C317.404,185.71,320.461,181.598,321.086,177.835z"/>
		<path style="fill:#FFB573;" d="M313.23,154.879l1.663-1.798c0.718-0.776,1.612-1.367,2.607-1.723l1.577-0.564
			c1.775-0.635,3.698,0.465,4.05,2.317l0.395,2.074c0.296,1.554-0.637,3.078-2.155,3.521l-2.427,0.709c0,0-2.897,4.849-8.543,2.654
			C310.387,159.43,311.402,156.854,313.23,154.879z"/>
		<path style="fill:#FFB573;" d="M356.827,398.086h-8.318c0,0,0.406,6.098,0.375,9.708l7.333,0.875
			C355.592,404.669,356.827,398.086,356.827,398.086z"/>
		<path style="fill:#407BFF;" d="M320.171,226.933c0,0,14.932,63.27,19.589,88.983c4.891,27.005,8.222,81.174,8.207,83.149
			c2.683-0.521,7.042-0.646,9.15,0c0,0,10.283-63.695,0.973-87.344c-3.529-44.844,1.043-70.209-7.957-84.789L320.171,226.933z"/>
		<path style="opacity:0.2;" d="M339.18,246.547c-2.44-9.97-10.72-9.01-16.11-7.18c3.36,14.45,8.93,38.78,13,58.08
			C341.85,283.587,342.48,260.007,339.18,246.547z"/>
		<path style="fill:#FFB573;" d="M303.844,397.044c-0.753,9.667-8.604,20.069-8.604,20.069l12.113-3.102l5.095-7.584
			c0.204-2.977,0.213-5.425,1.13-8.55L303.844,397.044z"/>
		<path style="fill:#407BFF;" d="M308.023,226.933c0,0,2.111,67.312,1.555,86.981c-0.77,27.272-6.487,85.151-6.487,85.151
			c4.337-0.443,8.085-0.577,10.487,0c0,0,17.966-46.853,15.889-84.892c4.5-35.253,19.667-67.629,10.293-87.24L308.023,226.933z"/>
		<path style="fill:#FFB573;" d="M340.065,150.96c-1.179,5.103-2.505,14.454,0.946,17.859c0,0-3.852,6.753-12.661,10.387
			c-6.677-4.277-3.199-10.386-3.199-10.386c5.738-1.359,5.739-5.581,4.887-9.546L340.065,150.96z"/>
		<path style="fill:#407BFF;" d="M341.067,163.572c0,0-11.599-1.579-17.302,3.154c-0.132,1.971-1.381,3.156-1.381,3.156
			c6.228,1.374,12.539,1.656,18.927,0.927C342.817,168.221,341.067,163.572,341.067,163.572z"/>
		<path style="fill:#263238;" d="M309.223,180.805c0.617,16.009-2.905,40.323-1.2,46.129c17.161,1.742,30.571,1.444,42.111,0
			c2.023-6.329-2.766-25.134,2.709-47.5c1.216-4.97-2.122-9.727-7.155-10.253c-1.478-0.154-3.056-0.283-4.676-0.362
			c-5.868-0.283-10.677-0.471-15.861,0.001c-2.021,0.184-4.125,0.452-6.086,0.738C313.487,170.371,309.006,175.203,309.223,180.805z
			"/>
		<path style="fill:#263238;" d="M321.237,142.384c-0.065,0.695-0.483,1.236-0.933,1.209c-0.45-0.027-0.762-0.613-0.696-1.309
			c0.065-0.695,0.483-1.236,0.933-1.209C320.99,141.103,321.302,141.689,321.237,142.384z"/>
		<path style="fill:#263238;" d="M320.736,141.126l-1.608-0.582C319.128,140.544,319.853,141.9,320.736,141.126z"/>
		<path style="fill:#263238;" d="M320.345,137.82c-0.097-0.024-0.185-0.084-0.24-0.176c-0.115-0.19-0.051-0.443,0.141-0.565
			c1.929-1.224,3.622-0.472,3.693-0.438c0.201,0.093,0.285,0.334,0.186,0.54c-0.098,0.206-0.341,0.298-0.542,0.207
			c-0.066-0.03-1.387-0.594-2.921,0.379C320.562,137.829,320.448,137.845,320.345,137.82z"/>
		<path style="fill:#ED893E;" d="M321.103,144.298c0,0-1.449,2.922-2.871,4.287c0.828,0.912,2.41,0.615,2.41,0.615L321.103,144.298z
			"/>
		<path style="fill:#FFB573;" d="M344.733,140.948c-1.322,8.506-1.702,12.128-6.383,16.25c-7.041,6.199-17.073,3.06-18.289-5.586
			c-1.094-7.782,1.251-20.385,9.844-23.276C338.371,125.486,346.054,132.442,344.733,140.948z"/>
		<path style="fill:#263238;" d="M323.518,131.381c-1.707,3.369,1.658,9.62,3.925,12.183c-4.029,4.328-8.045,11.796-2.729,16.272
			c4.85,4.083,30.917,4.042,25.847-4.736c4.472-5.5-2.972-6.281,0.581-16.963c2.585-7.771-2.287-9.931-6.656-9.184
			C339.507,122.65,327.071,124.37,323.518,131.381z"/>
		<g>
			<path style="fill:#E0E0E0;" d="M325.434,134.906c0,0,8.053,6.605,17.332,7.682c4.975,0.577,7.505,0.515,7.732-0.245
				c0.227-0.76,0.663-3.327,0.663-3.327L325.434,134.906z"/>
			<path style="fill:#407BFF;" d="M318.589,133.182c2.441,1.927,20.877,7.202,33.311,6.041c0.123-0.741-0.28-0.835-0.28-0.835
				s2.861-9.587-3.709-13.189c-3.103-5.065-12.464-4.764-16.605-3.334l-0.586,0.739c0,0-8.114,1.89-8.23,8.615
				C319.29,131.591,315.901,131.061,318.589,133.182z"/>
			<path style="opacity:0.2;" d="M330.721,122.605l0.586-0.739c0,0,6.498-0.753,12.036,3.961
				C340.195,124.011,335,122.249,330.721,122.605z"/>
		</g>
		<path style="fill:#FFB573;" d="M326.215,140.859c-1.766-0.236-3.448,2.336-4.051,4.185c-0.67,2.054,0.058,3.957,1.894,3.296
			c1.221-0.439,2.567-1.527,3.417-3.145C328.448,143.346,327.956,141.092,326.215,140.859z"/>
		<path style="fill:#263238;" d="M351.411,402.203c5.105-0.899,5.008,1.734,5.343,4.569c0.193,1.63,0.034,3.458-0.841,4.999
			c-1.799,3.165-0.258,7.845-5.987,7.845c-5.729,0-6.25-1.325-4.705-4.156c1.546-2.831,2.329-5.821,3.023-9.093
			C348.592,404.725,349.142,402.603,351.411,402.203z"/>
		<path style="fill:#263238;" d="M356.42,408.25c0.004,3.433,0.057,11.366,0.057,11.366l-0.905-0.026c0,0-0.778-8.451-1.276-10.727
			L356.42,408.25z"/>
		<path style="fill:#263238;" d="M313.103,403.329c0.401,0.896,0.518,1.895,0.462,2.879c-0.208,3.626-0.993,13.239-0.993,13.239
			l-0.829,0.005c0,0,0.237-6.471-0.079-8.856c-0.316-2.385-1.498,1.832-3.154,4.217c-1.657,2.386-4.818,4.557-10.218,4.727
			c-6.322,0.198-8.871-0.068-6.974-1.651c1.897-1.583,6.129-2.615,6.129-2.615s4.835-1.792,7.946-7.151
			c2.017-3.475,4.995-5.062,6.607-5.88C312.516,402.333,312.859,402.783,313.103,403.329z"/>
	</g>
</g>
<g id="_x35_00_Internal_Server_Error">
	<g>
		<g>
			<g>
				<path style="fill:#407BFF;" d="M96.726,69.495h12.981v4.363h-8.793l-0.47,2.953c0.608-0.286,1.21-0.501,1.805-0.645
					c0.595-0.143,1.184-0.215,1.766-0.215c1.969,0,3.566,0.596,4.792,1.786c1.226,1.19,1.839,2.689,1.839,4.497
					c0,1.271-0.316,2.492-0.947,3.665c-0.631,1.172-1.526,2.067-2.685,2.685c-1.159,0.617-2.643,0.927-4.45,0.927
					c-1.298,0-2.41-0.123-3.336-0.369s-1.714-0.613-2.362-1.102c-0.649-0.487-1.175-1.04-1.578-1.657
					c-0.403-0.618-0.738-1.388-1.007-2.31l5.531-0.604c0.134,0.886,0.448,1.56,0.94,2.021c0.492,0.461,1.078,0.69,1.759,0.69
					c0.76,0,1.389-0.288,1.886-0.865c0.497-0.577,0.745-1.438,0.745-2.584c0-1.173-0.25-2.032-0.751-2.578
					c-0.502-0.546-1.168-0.818-2.001-0.818c-0.528,0-1.038,0.13-1.53,0.389c-0.367,0.188-0.77,0.528-1.209,1.021l-4.658-0.671
					L96.726,69.495z"/>
				<path style="fill:#407BFF;" d="M112.849,79.255c0-3.74,0.673-6.358,2.021-7.854c1.347-1.494,3.398-2.241,6.155-2.241
					c1.324,0,2.412,0.163,3.262,0.489c0.85,0.327,1.544,0.752,2.081,1.275c0.537,0.523,0.96,1.074,1.268,1.651
					c0.309,0.577,0.557,1.251,0.745,2.021c0.367,1.468,0.551,2.998,0.551,4.591c0,3.571-0.604,6.185-1.812,7.841
					c-1.208,1.655-3.289,2.483-6.242,2.483c-1.656,0-2.994-0.265-4.014-0.792c-1.021-0.528-1.857-1.303-2.51-2.323
					c-0.475-0.725-0.844-1.716-1.107-2.973C112.981,82.166,112.849,80.776,112.849,79.255z M118.272,79.269
					c0,2.506,0.221,4.218,0.664,5.135c0.443,0.918,1.085,1.376,1.926,1.376c0.555,0,1.036-0.194,1.443-0.584
					c0.407-0.39,0.707-1.005,0.899-1.846c0.192-0.841,0.288-2.152,0.288-3.934c0-2.613-0.222-4.369-0.664-5.269
					c-0.443-0.899-1.107-1.35-1.994-1.35c-0.904,0-1.557,0.459-1.96,1.376C118.474,75.092,118.272,76.79,118.272,79.269z"/>
				<path style="fill:#407BFF;" d="M131.186,79.255c0-3.74,0.673-6.358,2.021-7.854c1.347-1.494,3.398-2.241,6.155-2.241
					c1.324,0,2.412,0.163,3.262,0.489c0.85,0.327,1.544,0.752,2.081,1.275c0.537,0.523,0.96,1.074,1.269,1.651
					c0.309,0.577,0.557,1.251,0.745,2.021c0.367,1.468,0.551,2.998,0.551,4.591c0,3.571-0.605,6.185-1.813,7.841
					c-1.208,1.655-3.289,2.483-6.242,2.483c-1.656,0-2.994-0.265-4.014-0.792c-1.02-0.528-1.857-1.303-2.51-2.323
					c-0.475-0.725-0.844-1.716-1.107-2.973C131.319,82.166,131.186,80.776,131.186,79.255z M136.61,79.269
					c0,2.506,0.221,4.218,0.665,5.135c0.443,0.918,1.085,1.376,1.926,1.376c0.555,0,1.036-0.194,1.443-0.584
					c0.407-0.39,0.707-1.005,0.899-1.846c0.192-0.841,0.289-2.152,0.289-3.934c0-2.613-0.222-4.369-0.665-5.269
					c-0.443-0.899-1.107-1.35-1.994-1.35c-0.904,0-1.557,0.459-1.96,1.376C136.811,75.092,136.61,76.79,136.61,79.269z"/>
				<path style="fill:#263238;" d="M160.13,89.176V69.495h2.605v19.681H160.13z"/>
				<path style="fill:#263238;" d="M167.017,89.176V74.919h2.175v2.027c1.047-1.566,2.559-2.35,4.537-2.35
					c0.859,0,1.649,0.154,2.37,0.463c0.72,0.31,1.26,0.714,1.618,1.215c0.358,0.502,0.608,1.097,0.752,1.786
					c0.089,0.447,0.134,1.23,0.134,2.349v8.767h-2.416v-8.672c0-0.984-0.094-1.721-0.282-2.209c-0.188-0.487-0.521-0.877-1-1.168
					c-0.479-0.29-1.04-0.436-1.685-0.436c-1.029,0-1.918,0.326-2.665,0.979c-0.747,0.653-1.121,1.893-1.121,3.719v7.786H167.017z"/>
				<path style="fill:#263238;" d="M187.583,87.015l0.349,2.135c-0.68,0.143-1.288,0.214-1.826,0.214
					c-0.877,0-1.557-0.139-2.04-0.416c-0.483-0.277-0.823-0.642-1.02-1.094c-0.197-0.452-0.295-1.403-0.295-2.853v-8.202h-1.772
					v-1.88h1.772v-3.53l2.403-1.45v4.98h2.43v1.88h-2.43v8.336c0,0.689,0.042,1.133,0.128,1.329c0.085,0.197,0.224,0.354,0.416,0.47
					c0.192,0.117,0.467,0.175,0.826,0.175C186.791,87.108,187.145,87.077,187.583,87.015z"/>
				<path style="fill:#263238;" d="M199.706,84.585l2.497,0.309c-0.394,1.459-1.123,2.591-2.188,3.396
					c-1.065,0.806-2.426,1.208-4.081,1.208c-2.085,0-3.739-0.643-4.96-1.927c-1.222-1.284-1.833-3.085-1.833-5.403
					c0-2.398,0.618-4.26,1.853-5.584c1.235-1.325,2.837-1.987,4.806-1.987c1.906,0,3.463,0.649,4.671,1.946
					c1.208,1.298,1.813,3.124,1.813,5.478c0,0.144-0.004,0.358-0.013,0.645h-10.632c0.089,1.566,0.532,2.766,1.329,3.598
					c0.796,0.832,1.79,1.248,2.98,1.248c0.886,0,1.642-0.232,2.269-0.697C198.842,86.348,199.339,85.604,199.706,84.585z
					 M191.772,80.678h7.96c-0.107-1.199-0.412-2.099-0.913-2.698c-0.77-0.931-1.768-1.396-2.994-1.396
					c-1.11,0-2.043,0.371-2.799,1.114C192.27,78.44,191.852,79.435,191.772,80.678z"/>
				<path style="fill:#263238;" d="M205.21,89.176V74.919h2.175v2.161c0.555-1.011,1.067-1.678,1.537-2
					c0.47-0.322,0.986-0.483,1.55-0.483c0.814,0,1.642,0.26,2.483,0.778l-0.832,2.242c-0.591-0.349-1.182-0.523-1.772-0.523
					c-0.528,0-1.003,0.159-1.423,0.476c-0.42,0.317-0.72,0.759-0.899,1.322c-0.269,0.859-0.403,1.799-0.403,2.819v7.464H205.21z"/>
				<path style="fill:#263238;" d="M214.392,89.176V74.919h2.175v2.027c1.047-1.566,2.559-2.35,4.537-2.35
					c0.859,0,1.649,0.154,2.37,0.463c0.72,0.31,1.26,0.714,1.618,1.215c0.358,0.502,0.608,1.097,0.752,1.786
					c0.089,0.447,0.134,1.23,0.134,2.349v8.767h-2.416v-8.672c0-0.984-0.094-1.721-0.282-2.209c-0.188-0.487-0.521-0.877-1-1.168
					c-0.479-0.29-1.04-0.436-1.685-0.436c-1.029,0-1.918,0.326-2.665,0.979c-0.747,0.653-1.121,1.893-1.121,3.719v7.786H214.392z"/>
				<path style="fill:#263238;" d="M238.986,87.417c-0.895,0.761-1.757,1.298-2.584,1.611c-0.828,0.313-1.716,0.47-2.665,0.47
					c-1.566,0-2.77-0.383-3.611-1.147c-0.841-0.766-1.262-1.743-1.262-2.934c0-0.698,0.159-1.336,0.477-1.913
					c0.317-0.577,0.733-1.04,1.248-1.39c0.515-0.349,1.094-0.612,1.739-0.792c0.474-0.125,1.19-0.246,2.148-0.362
					c1.951-0.232,3.387-0.51,4.309-0.832c0.009-0.331,0.014-0.542,0.014-0.631c0-0.984-0.229-1.679-0.685-2.081
					c-0.617-0.546-1.535-0.819-2.752-0.819c-1.137,0-1.975,0.199-2.517,0.598c-0.542,0.398-0.942,1.104-1.201,2.114l-2.363-0.322
					c0.215-1.011,0.568-1.827,1.061-2.45c0.492-0.621,1.204-1.101,2.134-1.436c0.931-0.336,2.009-0.504,3.235-0.504
					c1.217,0,2.206,0.143,2.967,0.43c0.761,0.286,1.32,0.646,1.678,1.081c0.358,0.434,0.608,0.981,0.752,1.645
					c0.08,0.411,0.121,1.154,0.121,2.229v3.222c0,2.246,0.051,3.667,0.154,4.262c0.103,0.596,0.307,1.166,0.611,1.712h-2.524
					C239.218,88.675,239.057,88.089,238.986,87.417z M238.784,82.021c-0.877,0.358-2.193,0.662-3.947,0.913
					c-0.993,0.143-1.696,0.304-2.107,0.483c-0.412,0.179-0.729,0.44-0.953,0.785c-0.224,0.345-0.336,0.728-0.336,1.147
					c0,0.645,0.244,1.182,0.732,1.611c0.487,0.43,1.201,0.645,2.141,0.645c0.931,0,1.758-0.204,2.483-0.611
					c0.725-0.407,1.257-0.964,1.598-1.671c0.259-0.546,0.389-1.351,0.389-2.417V82.021z"/>
				<path style="fill:#263238;" d="M244.919,89.176V69.495h2.416v19.681H244.919z"/>
				<path style="fill:#263238;" d="M257.753,84.92l2.39-0.376c0.134,0.958,0.508,1.691,1.121,2.202
					c0.613,0.51,1.47,0.765,2.571,0.765c1.109,0,1.933-0.225,2.47-0.678c0.537-0.451,0.806-0.981,0.806-1.591
					c0-0.546-0.237-0.976-0.711-1.288c-0.331-0.215-1.155-0.488-2.47-0.819c-1.772-0.447-3-0.834-3.685-1.161
					c-0.685-0.327-1.204-0.778-1.557-1.356c-0.354-0.577-0.53-1.215-0.53-1.912c0-0.636,0.146-1.225,0.436-1.766
					c0.291-0.542,0.687-0.991,1.189-1.35c0.375-0.277,0.888-0.512,1.537-0.704c0.648-0.192,1.344-0.289,2.087-0.289
					c1.119,0,2.101,0.161,2.947,0.483c0.846,0.322,1.47,0.759,1.872,1.309c0.403,0.551,0.68,1.287,0.833,2.209l-2.363,0.322
					c-0.107-0.734-0.418-1.307-0.933-1.719c-0.515-0.411-1.242-0.617-2.182-0.617c-1.11,0-1.902,0.184-2.376,0.55
					c-0.475,0.367-0.711,0.797-0.711,1.289c0,0.313,0.098,0.595,0.295,0.846c0.197,0.26,0.505,0.475,0.926,0.645
					c0.242,0.089,0.953,0.295,2.134,0.617c1.709,0.457,2.902,0.83,3.578,1.121c0.676,0.291,1.206,0.714,1.591,1.269
					c0.385,0.555,0.577,1.244,0.577,2.067c0,0.806-0.235,1.565-0.705,2.275c-0.47,0.712-1.148,1.262-2.034,1.651
					c-0.886,0.39-1.889,0.584-3.007,0.584c-1.853,0-3.265-0.385-4.235-1.154C258.641,87.574,258.022,86.433,257.753,84.92z"/>
				<path style="fill:#263238;" d="M282.226,84.585l2.497,0.309c-0.394,1.459-1.123,2.591-2.188,3.396
					c-1.065,0.806-2.426,1.208-4.081,1.208c-2.085,0-3.739-0.643-4.96-1.927c-1.222-1.284-1.833-3.085-1.833-5.403
					c0-2.398,0.618-4.26,1.853-5.584c1.235-1.325,2.837-1.987,4.806-1.987c1.906,0,3.463,0.649,4.671,1.946
					c1.208,1.298,1.813,3.124,1.813,5.478c0,0.144-0.004,0.358-0.013,0.645h-10.632c0.089,1.566,0.532,2.766,1.329,3.598
					c0.796,0.832,1.79,1.248,2.98,1.248c0.886,0,1.642-0.232,2.269-0.697C281.362,86.348,281.859,85.604,282.226,84.585z
					 M274.293,80.678h7.96c-0.107-1.199-0.412-2.099-0.913-2.698c-0.77-0.931-1.767-1.396-2.994-1.396
					c-1.11,0-2.043,0.371-2.799,1.114C274.791,78.44,274.373,79.435,274.293,80.678z"/>
				<path style="fill:#263238;" d="M287.73,89.176V74.919h2.175v2.161c0.555-1.011,1.067-1.678,1.537-2
					c0.47-0.322,0.986-0.483,1.55-0.483c0.814,0,1.642,0.26,2.483,0.778l-0.832,2.242c-0.591-0.349-1.182-0.523-1.772-0.523
					c-0.528,0-1.003,0.159-1.423,0.476c-0.42,0.317-0.72,0.759-0.899,1.322c-0.268,0.859-0.403,1.799-0.403,2.819v7.464H287.73z"/>
				<path style="fill:#263238;" d="M300.873,89.176l-5.423-14.257H298l3.06,8.538c0.331,0.922,0.635,1.879,0.913,2.873
					c0.215-0.752,0.514-1.656,0.899-2.712l3.168-8.699h2.483l-5.397,14.257H300.873z"/>
				<path style="fill:#263238;" d="M320.418,84.585l2.497,0.309c-0.394,1.459-1.123,2.591-2.188,3.396
					c-1.065,0.806-2.426,1.208-4.081,1.208c-2.086,0-3.739-0.643-4.961-1.927c-1.222-1.284-1.833-3.085-1.833-5.403
					c0-2.398,0.618-4.26,1.853-5.584c1.235-1.325,2.837-1.987,4.806-1.987c1.906,0,3.463,0.649,4.671,1.946
					c1.208,1.298,1.813,3.124,1.813,5.478c0,0.144-0.004,0.358-0.013,0.645h-10.632c0.089,1.566,0.532,2.766,1.329,3.598
					c0.796,0.832,1.79,1.248,2.98,1.248c0.886,0,1.642-0.232,2.269-0.697C319.555,86.348,320.052,85.604,320.418,84.585z
					 M312.485,80.678h7.96c-0.107-1.199-0.412-2.099-0.913-2.698c-0.77-0.931-1.768-1.396-2.994-1.396
					c-1.11,0-2.043,0.371-2.799,1.114C312.983,78.44,312.565,79.435,312.485,80.678z"/>
				<path style="fill:#263238;" d="M325.923,89.176V74.919h2.175v2.161c0.555-1.011,1.067-1.678,1.537-2
					c0.47-0.322,0.986-0.483,1.55-0.483c0.814,0,1.642,0.26,2.483,0.778l-0.832,2.242c-0.591-0.349-1.182-0.523-1.772-0.523
					c-0.528,0-1.003,0.159-1.423,0.476c-0.42,0.317-0.72,0.759-0.899,1.322c-0.269,0.859-0.403,1.799-0.403,2.819v7.464H325.923z"/>
				<path style="fill:#263238;" d="M352.503,84.585L355,84.894c-0.394,1.459-1.123,2.591-2.188,3.396
					c-1.065,0.806-2.426,1.208-4.081,1.208c-2.085,0-3.739-0.643-4.96-1.927c-1.222-1.284-1.832-3.085-1.832-5.403
					c0-2.398,0.618-4.26,1.852-5.584c1.235-1.325,2.837-1.987,4.806-1.987c1.906,0,3.463,0.649,4.671,1.946
					c1.209,1.298,1.813,3.124,1.813,5.478c0,0.144-0.004,0.358-0.013,0.645h-10.632c0.089,1.566,0.532,2.766,1.329,3.598
					c0.796,0.832,1.79,1.248,2.98,1.248c0.886,0,1.642-0.232,2.269-0.697C351.64,86.348,352.137,85.604,352.503,84.585z
					 M344.57,80.678h7.961c-0.107-1.199-0.412-2.099-0.913-2.698c-0.77-0.931-1.768-1.396-2.994-1.396
					c-1.11,0-2.043,0.371-2.799,1.114C345.068,78.44,344.65,79.435,344.57,80.678z"/>
				<path style="fill:#263238;" d="M358.007,89.176V74.919h2.175v2.161c0.555-1.011,1.067-1.678,1.537-2
					c0.47-0.322,0.986-0.483,1.55-0.483c0.815,0,1.642,0.26,2.483,0.778l-0.832,2.242c-0.591-0.349-1.182-0.523-1.772-0.523
					c-0.528,0-1.002,0.159-1.423,0.476c-0.42,0.317-0.72,0.759-0.899,1.322c-0.269,0.859-0.403,1.799-0.403,2.819v7.464H358.007z"/>
				<path style="fill:#263238;" d="M367.163,89.176V74.919h2.175v2.161c0.555-1.011,1.067-1.678,1.537-2
					c0.47-0.322,0.986-0.483,1.55-0.483c0.814,0,1.642,0.26,2.483,0.778l-0.832,2.242c-0.591-0.349-1.182-0.523-1.772-0.523
					c-0.528,0-1.003,0.159-1.423,0.476c-0.42,0.317-0.72,0.759-0.899,1.322c-0.268,0.859-0.403,1.799-0.403,2.819v7.464H367.163z"/>
				<path style="fill:#263238;" d="M375.446,82.047c0-2.64,0.733-4.595,2.201-5.866c1.226-1.056,2.721-1.584,4.484-1.584
					c1.96,0,3.562,0.643,4.806,1.927c1.244,1.284,1.866,3.059,1.866,5.322c0,1.835-0.275,3.278-0.826,4.33
					c-0.551,1.052-1.352,1.868-2.403,2.449c-1.052,0.582-2.199,0.873-3.443,0.873c-1.996,0-3.609-0.64-4.839-1.92
					C376.061,86.299,375.446,84.455,375.446,82.047z M377.93,82.047c0,1.826,0.398,3.193,1.195,4.102
					c0.796,0.908,1.799,1.362,3.007,1.362c1.199,0,2.197-0.456,2.994-1.369s1.195-2.304,1.195-4.175c0-1.763-0.4-3.099-1.201-4.007
					c-0.801-0.908-1.797-1.363-2.987-1.363c-1.208,0-2.21,0.452-3.007,1.356C378.328,78.857,377.93,80.222,377.93,82.047z"/>
				<path style="fill:#263238;" d="M391.609,89.176V74.919h2.175v2.161c0.555-1.011,1.067-1.678,1.537-2
					c0.47-0.322,0.986-0.483,1.55-0.483c0.814,0,1.642,0.26,2.483,0.778l-0.832,2.242c-0.591-0.349-1.182-0.523-1.772-0.523
					c-0.528,0-1.003,0.159-1.423,0.476c-0.42,0.317-0.72,0.759-0.899,1.322c-0.268,0.859-0.403,1.799-0.403,2.819v7.464H391.609z"/>
			</g>
		</g>
	</g>
</g>
</svg>
