<svg width="16" height="16" viewBox="0 0 16 16" fill="none" xmlns="http://www.w3.org/2000/svg">
<path fill-rule="evenodd" clip-rule="evenodd" d="M15.2806 14.2194C15.5737 14.5124 15.5737 14.9876 15.2806 15.2806C14.9876 15.5737 14.5124 15.5737 14.2194 15.2806L8 9.06031L1.78062 15.2806C1.48757 15.5737 1.01243 15.5737 0.719375 15.2806C0.426319 14.9876 0.426319 14.5124 0.719375 14.2194L6.93969 8L0.719375 1.78062C0.426319 1.48757 0.426319 1.01243 0.719375 0.719375C1.01243 0.426319 1.48757 0.426319 1.78062 0.719375L8 6.93969L14.2194 0.719375C14.5124 0.426319 14.9876 0.426319 15.2806 0.719375C15.5737 1.01243 15.5737 1.48757 15.2806 1.78062L9.06031 8L15.2806 14.2194Z" fill="#1C1C21"/>
</svg>
