<svg width="104" height="73" viewBox="0 0 104 73" fill="none" xmlns="http://www.w3.org/2000/svg">
<path d="M99.0511 0H4.15054C1.90661 0 0 1.85816 0 4.29617V68.3895C0 70.7122 1.79517 72.6857 4.15054 72.6857H99.1646C101.409 72.6857 103.315 70.8275 103.315 68.3895V4.29617C103.203 1.97443 101.409 0 99.0524 0H99.0511ZM97.0324 4.29617C98.1544 4.29617 99.0519 5.22523 99.0519 6.38659V66.184C99.0519 67.3454 98.1544 68.2744 97.0324 68.2744H6.1686C5.04662 68.2744 4.14904 67.3454 4.14904 66.184V6.38659C4.14904 5.22523 5.04662 4.29617 6.1686 4.29617H97.0324Z" fill="black"/>
<path d="M53.6203 29.9585H94.9008V38.5506H53.6203V29.9585Z" fill="black"/>
<path d="M53.6203 8.59424H94.9008V17.1863H53.6203V8.59424Z" fill="black"/>
<path d="M38.3639 53.4137H36.0086C34.8866 53.4137 33.9891 52.4846 33.9891 51.3233V49.0006C38.3638 48.1877 41.8413 44.5883 42.4021 39.9439L42.8509 36.3446L43.7476 36.3455C45.3184 36.3455 46.664 35.1842 46.7762 33.5592L47.0006 31.4688C47.225 29.6106 45.8786 27.9857 44.0842 27.8695L44.533 24.3864C44.9818 15.7943 38.363 8.59473 30.0622 8.59473H27.4825C19.1816 8.59473 12.5627 15.7932 13.0116 24.3864L13.4604 27.8695C11.6652 27.9857 10.3198 29.6115 10.544 31.4688L10.7684 33.5592C11.2172 35.1842 12.5627 36.3455 14.0212 36.3455H14.6944L15.1432 39.9448C15.8163 44.5892 19.2937 48.1886 23.5562 49.0015V51.3242C23.5562 52.4855 22.6587 53.4146 21.5367 53.4146H19.1814C14.9187 53.4146 11.217 56.0848 9.64638 60.1496L8.07561 64.0973H49.3561L47.7853 60.1496C46.4398 56.0839 42.6259 53.4137 38.3634 53.4137L38.3639 53.4137Z" fill="black"/>
<path d="M53.6203 21.3667H94.9008V25.6629H53.6203V21.3667Z" fill="black"/>
<path d="M53.6203 42.7314H94.9008V64.0957H53.6203V42.7314Z" fill="black"/>
</svg>
