<svg width="135" height="135" viewBox="0 0 135 135" fill="none" xmlns="http://www.w3.org/2000/svg">
<rect width="135" height="135" rx="11" fill="#D9D9D9"/>
<path d="M28.9308 106.998V46.999H58.5012V16.9995H88.0715V62.2501C88.8107 62.2501 89.7966 61.9998 90.5358 61.9998C91.2749 61.9998 92.2608 61.9998 93 62.2501L92.9991 12H54.3099L24 42.7498V112H63.6729C62.687 110.5 61.7011 108.75 60.9619 107L28.9308 106.998ZM53.5732 19.7482V41.9981H31.6416L53.5732 19.7482Z" fill="black"/>
<mask id="mask0_380_1254" style="mask-type:luminance" maskUnits="userSpaceOnUse" x="63" y="66" width="55" height="56">
<path d="M63.3467 66.5186H118V121.509H63.3467V66.5186Z" fill="white"/>
</mask>
<g mask="url(#mask0_380_1254)">
<path d="M90.7912 66.7529C75.7016 66.7529 63.58 78.9486 63.58 94.1321C63.58 109.315 75.7009 121.511 90.7912 121.511C105.881 121.511 118.002 109.316 118.002 94.1321C118.002 78.9493 105.882 66.7529 90.7912 66.7529ZM90.7912 116.531C78.4229 116.531 68.5281 106.576 68.5281 94.1309C68.5281 81.6863 78.4227 71.7303 90.7912 71.7303C103.159 71.7303 113.054 81.686 113.054 94.1309C113.054 106.576 103.16 116.531 90.7912 116.531Z" fill="black"/>
</g>
<path d="M77 93.0005L80.4379 96.4383L88.5433 88.3329V107H93.4557V88.3329L101.561 96.4383L105 93.0005L90.9995 79L77 93.0005Z" fill="black"/>
</svg>
