<svg width="14" height="15" viewBox="0 0 14 15" fill="none" xmlns="http://www.w3.org/2000/svg">
<path d="M0.964897 5.50098H4.94693C5.11607 5.50098 5.25443 5.63934 5.25443 5.80848C5.25443 5.97762 5.11607 6.11598 4.94693 6.11598H0.964897C0.626606 6.11598 0.349896 6.39269 0.349896 6.73098V13.0348C0.349896 13.3731 0.626615 13.6498 0.964897 13.6498H12.035C12.3733 13.6498 12.65 13.3731 12.65 13.0348V6.73098C12.65 6.39269 12.3733 6.11598 12.035 6.11598H8.14527C7.97613 6.11598 7.83777 5.97762 7.83777 5.80848C7.83777 5.63933 7.97613 5.50098 8.14527 5.50098H12.035C12.7115 5.50098 13.265 6.05454 13.265 6.73098V13.0348C13.265 13.7113 12.7114 14.2648 12.035 14.2648H0.964897C0.288432 14.2648 -0.265103 13.7112 -0.265103 13.0348V6.73098C-0.265103 6.05451 0.288344 5.50098 0.964897 5.50098Z" fill="black"/>
<path d="M6.49997 10.2673C6.33083 10.2673 6.19247 10.129 6.19247 9.95984V1.78045L4.50125 3.47167C4.43979 3.53313 4.36289 3.56391 4.28598 3.56391C4.20908 3.56391 4.13229 3.53312 4.07072 3.47167C3.9477 3.34865 3.9477 3.16417 4.07072 3.04115L6.28468 0.827186C6.30002 0.811851 6.31547 0.796401 6.3308 0.781067L6.34614 0.765732C6.36147 0.765732 6.36147 0.750397 6.37692 0.750397C6.39226 0.750397 6.39226 0.750397 6.40771 0.735062C6.42304 0.735062 6.42304 0.735062 6.43849 0.719727H6.49995H6.56141H6.59219C6.60753 0.719727 6.60753 0.719726 6.62298 0.735062C6.63831 0.735062 6.63831 0.750397 6.65376 0.750397C6.6691 0.750397 6.6691 0.765732 6.68455 0.765732C6.69988 0.781067 6.71533 0.796517 6.73067 0.811851L8.92931 3.04117C9.05233 3.16419 9.05233 3.34867 8.92931 3.47169C8.86785 3.53314 8.79095 3.56392 8.71404 3.56392C8.63714 3.56392 8.56035 3.53314 8.49878 3.47169L6.80756 1.78046L6.80744 9.95986C6.80744 10.129 6.66908 10.2674 6.49994 10.2674L6.49997 10.2673Z" fill="black"/>
</svg>
