<svg width="24" height="28" viewBox="0 0 24 28" fill="none" xmlns="http://www.w3.org/2000/svg">
<g opacity="0.3">
<path opacity="0.3" d="M16.7604 5.74467C16.1043 5.74405 15.4753 5.4904 15.0114 5.03938C14.5475 4.58837 14.2866 3.97683 14.286 3.339V0H3.2292C2.37297 -5.74776e-08 1.55179 0.330609 0.946234 0.919127C0.340676 1.50765 0.000318183 2.30589 0 3.13834V22.064C0.000954084 22.896 0.341593 23.6937 0.947082 24.2817C1.55257 24.8697 2.37339 25.2 3.2292 25.2H16.5012C16.9254 25.2002 17.3454 25.1191 17.7373 24.9614C18.1293 24.8036 18.4854 24.5724 18.7854 24.2809C19.0854 23.9893 19.3233 23.6432 19.4857 23.2622C19.648 22.8812 19.7316 22.4729 19.7316 22.0605V5.74467H16.7604Z" fill="#FF3E4C"/>
</g>
<path d="M19.7316 5.74467H16.7604C16.1044 5.74405 15.4754 5.4904 15.0114 5.03938C14.5475 4.58837 14.2866 3.97683 14.286 3.339V0L19.7316 5.74467Z" fill="#FF3E4C"/>
<path d="M22.0726 19.9033H7.06783C6.00346 19.9033 5.14062 20.7422 5.14062 21.777V26.1263C5.14062 27.1611 6.00346 28 7.06783 28H22.0726C23.137 28 23.9998 27.1611 23.9998 26.1263V21.777C23.9998 20.7422 23.137 19.9033 22.0726 19.9033Z" fill="#FF3E4C"/>
<path d="M8.72394 24.8933V25.7415H7.82153V24.8933H8.72394Z" fill="white"/>
<path d="M11.0315 25.7414L10.2503 24.4173H10.0511V25.7414H9.17871V22.2333H10.6691C10.9174 22.2265 11.1639 22.276 11.3891 22.3779C11.5744 22.4631 11.7291 22.6005 11.8331 22.7723C11.9336 22.9472 11.9845 23.1448 11.9807 23.3451C11.9875 23.5794 11.9112 23.8088 11.7647 23.9949C11.6032 24.1834 11.3806 24.3129 11.1335 24.3624L11.9999 25.7414H11.0315ZM10.0511 23.8363H10.5923C10.7306 23.8464 10.8675 23.8046 10.9751 23.7196C11.0178 23.676 11.0505 23.6242 11.0712 23.5675C11.0918 23.5109 11.1 23.4506 11.0951 23.3906C11.0992 23.3309 11.0906 23.271 11.07 23.2146C11.0493 23.1583 11.0171 23.1066 10.9751 23.0628C10.8691 22.9766 10.7324 22.9346 10.5947 22.9461H10.0535L10.0511 23.8363Z" fill="white"/>
<path d="M14.6602 25.102H13.3078L13.0798 25.7413H12.1606L13.4806 22.2588H14.4862L15.8062 25.7413H14.8798L14.6602 25.102ZM14.4358 24.4568L13.987 23.1665L13.5322 24.4568H14.4358Z" fill="white"/>
<path d="M21.0551 22.2332L20.1935 25.7413H19.1135L18.5363 23.3952L17.9543 25.7413H16.8743L16.0115 22.2332H16.9607L17.4251 24.7742L18.0575 22.2332H19.0175L19.6499 24.7742L20.1191 22.2332H21.0551Z" fill="white"/>
<path d="M7.84055 14.4269H4.92695C4.69903 13.8433 4.58272 13.2242 4.58375 12.5999C4.58287 11.9761 4.69918 11.3573 4.92695 10.7741C5.01766 10.5432 5.12554 10.319 5.24975 10.1033L5.65175 10.7741L6.75455 12.6139L7.23455 13.4236L7.84055 14.4269Z" fill="#FF3E4C"/>
<path d="M13.9583 15.8479C13.1492 16.8125 12.0071 17.4585 10.7447 17.6656C10.4784 17.7085 10.2093 17.7319 9.93945 17.7356L10.3643 17.0356L11.4443 15.2436L11.9339 14.4269L12.5339 13.4282L13.1219 14.4269L13.6019 15.2436L13.9583 15.8479Z" fill="#FF3E4C"/>
<path d="M15.1474 12.6C15.1485 13.224 15.0318 13.8429 14.803 14.4259C14.7123 14.6579 14.6044 14.8833 14.4802 15.1002L14.0842 14.4259L13.021 12.621L12.541 11.8044L11.9314 10.7695H14.7994C15.03 11.3538 15.1479 11.9743 15.1474 12.6Z" fill="#FF3E4C"/>
<path d="M14.3999 9.96456H9.27832L9.88912 8.92856L10.3691 8.1119L10.7111 7.52856C12.0067 7.73174 13.1778 8.39732 13.9955 9.39523C14.1434 9.57591 14.2785 9.76612 14.3999 9.96456Z" fill="#FF3E4C"/>
<path d="M9.78827 7.4668L9.40787 8.11197L8.31707 9.96463L7.83707 10.7813L7.23707 11.8091L6.62027 10.7813L6.14027 9.96463L5.78027 9.36029C6.60581 8.37215 7.77999 7.71799 9.07427 7.52513C9.31066 7.49015 9.5492 7.47066 9.78827 7.4668Z" fill="#FF3E4C"/>
<path d="M10.4784 15.239L9.87836 16.226L9.39836 17.0287L9.01316 17.6704C7.75269 17.4699 6.6097 16.832 5.79596 15.8748C5.62561 15.6743 5.47078 15.4618 5.33276 15.239H10.4784Z" fill="#FF3E4C"/>
</svg>
