<svg width="5" height="3" viewBox="0 0 17 13" fill="none" xmlns="http://www.w3.org/2000/svg">
<path fill-rule="evenodd" clip-rule="evenodd" d="M14.9883 3.61085C15.2247 3.38235 15.3623 3.05384 15.3623 2.70412C15.3623 2.36849 15.2188 2.05146 14.9721 1.81302C14.7166 1.56606 14.3898 1.43457 14.0286 1.42087C13.6787 1.42266 13.3537 1.55004 13.0961 1.78562L6.51528 8.14684L3.70297 5.42837C3.44534 5.19279 3.12033 5.06541 2.77046 5.06361C2.41172 5.07723 2.08382 5.20725 1.82702 5.44029C1.57663 5.69779 1.43681 6.01595 1.43681 6.34687C1.43681 6.69659 1.57437 7.0251 1.81077 7.2536L5.57927 10.8963C5.82279 11.1317 6.16514 11.2729 6.51528 11.2729C6.86206 11.2729 7.20728 11.134 7.47131 10.8926L14.9883 3.61085ZM7.77684 11.1934C7.43719 11.5061 6.98432 11.6937 6.51528 11.6937C6.04624 11.6937 5.59337 11.5061 5.2699 11.1934L1.50139 7.55069C1.17791 7.23801 1 6.80026 1 6.34687C1 5.89348 1.19409 5.47136 1.51756 5.14304C1.85721 4.83036 2.29391 4.65838 2.76295 4.64275C3.23199 4.64275 3.66868 4.81472 4.00834 5.12741L6.51528 7.55069L12.7907 1.48466C13.1304 1.17198 13.5671 1 14.0361 1C14.5052 1.01563 14.9419 1.18761 15.2815 1.51593C15.605 1.82861 15.7991 2.25073 15.7991 2.70412C15.7991 3.15751 15.6212 3.59526 15.2977 3.90794L7.77684 11.1934Z" fill="black"/>
<path d="M14.6408 3.25135L14.6404 3.25172L7.12914 10.528C6.95301 10.6868 6.72867 10.7729 6.51528 10.7729C6.29521 10.7729 6.07735 10.6824 5.92678 10.5368L2.15827 6.8941C2.02376 6.76407 1.93681 6.56731 1.93681 6.34687C1.93681 6.16602 2.01084 5.97356 2.17454 5.80027C2.33583 5.65863 2.5418 5.57497 2.77851 5.56372C2.99807 5.56728 3.19822 5.6463 3.36096 5.79319L6.16778 8.50634L6.51528 8.84225L6.86279 8.50634L13.4381 2.15044C13.6009 2.00355 13.801 1.92453 14.0206 1.92097C14.2627 1.93247 14.4662 2.01938 14.6246 2.17252C14.7816 2.32429 14.8623 2.51452 14.8623 2.70412C14.8623 2.92456 14.7753 3.12133 14.6408 3.25135ZM12.4432 1.12516L6.51528 6.85529L4.35584 4.76791L4.35594 4.7678L4.34698 4.75955C3.9151 4.36196 3.35755 4.14275 2.76295 4.14275H2.75462L2.74629 4.14303C2.16369 4.16245 1.61104 4.37738 1.17892 4.77518L1.16995 4.78344L1.16139 4.79212C0.758015 5.20154 0.5 5.74566 0.5 6.34687C0.5 6.92935 0.728398 7.49891 1.15389 7.91019L4.92239 11.5529C5.33877 11.9554 5.9161 12.1937 6.51528 12.1937C7.11653 12.1937 7.68862 11.9543 8.11549 11.5613L8.1156 11.5614L8.12473 11.5526L15.6452 4.26745C15.6452 4.26739 15.6453 4.26733 15.6454 4.26728C16.0707 3.856 16.2991 3.28652 16.2991 2.70412C16.2991 2.10455 16.042 1.55566 15.629 1.15642L15.3311 1.46466L15.629 1.15642C15.1939 0.735798 14.6365 0.519733 14.0528 0.500278L14.0445 0.5H14.0361C13.4415 0.5 12.884 0.71921 12.4521 1.1168L12.452 1.11669L12.4432 1.12516Z" stroke="#828282" stroke-opacity="0.25"/>
</svg>
