<svg width="40" height="40" viewBox="0 0 40 40" fill="none" xmlns="http://www.w3.org/2000/svg">
<rect width="40" height="40" rx="8" fill="#E8EDF2"/>
<g clip-path="url(#clip0_23_895)">
<path fill-rule="evenodd" clip-rule="evenodd" d="M30.5 18.5H29.4875L26.8831 12.6406C26.6423 12.099 26.1052 11.75 25.5125 11.75H14.4875C13.8948 11.75 13.3577 12.099 13.1169 12.6406L10.5125 18.5H9.5C9.08579 18.5 8.75 18.8358 8.75 19.25C8.75 19.6642 9.08579 20 9.5 20H10.25V27.5C10.25 28.3284 10.9216 29 11.75 29H14C14.8284 29 15.5 28.3284 15.5 27.5V26H24.5V27.5C24.5 28.3284 25.1716 29 26 29H28.25C29.0784 29 29.75 28.3284 29.75 27.5V20H30.5C30.9142 20 31.25 19.6642 31.25 19.25C31.25 18.8358 30.9142 18.5 30.5 18.5ZM14.4875 13.25H25.5125L27.8459 18.5H12.1541L14.4875 13.25ZM14 27.5H11.75V26H14V27.5ZM26 27.5V26H28.25V27.5H26ZM28.25 24.5H11.75V20H28.25V24.5ZM13.25 22.25C13.25 21.8358 13.5858 21.5 14 21.5H15.5C15.9142 21.5 16.25 21.8358 16.25 22.25C16.25 22.6642 15.9142 23 15.5 23H14C13.5858 23 13.25 22.6642 13.25 22.25ZM23.75 22.25C23.75 21.8358 24.0858 21.5 24.5 21.5H26C26.4142 21.5 26.75 21.8358 26.75 22.25C26.75 22.6642 26.4142 23 26 23H24.5C24.0858 23 23.75 22.6642 23.75 22.25Z" fill="#0D171C"/>
</g>
<defs>
<clipPath id="clip0_23_895">
<rect width="24" height="24" fill="white" transform="translate(8 8)"/>
</clipPath>
</defs>
</svg>
