<svg width="40" height="40" viewBox="0 0 40 40" fill="none" xmlns="http://www.w3.org/2000/svg">
<rect width="40" height="40" rx="8" fill="#E8EDF2"/>
<g clip-path="url(#clip0_23_881)">
<path fill-rule="evenodd" clip-rule="evenodd" d="M16.25 22.0053C16.6642 22.0053 17 21.6695 17 21.2553V20H23V21.4334C23 21.8477 23.3358 22.1834 23.75 22.1834C24.1642 22.1834 24.5 21.8477 24.5 21.4334V11C24.5 10.5858 24.1642 10.25 23.75 10.25C23.3358 10.25 23 10.5858 23 11V12.5H17V11C17 10.5858 16.6642 10.25 16.25 10.25C15.8358 10.25 15.5 10.5858 15.5 11V21.2553C15.5 21.6695 15.8358 22.0053 16.25 22.0053ZM17 18.5V17H23V18.5H17ZM23 14V15.5H17V14H23ZM10.25 23.75C10.25 23.3358 10.5858 23 11 23C12.3519 23 13.0803 23.4856 13.6663 23.8756C14.1875 24.2244 14.6019 24.5 15.5 24.5C16.3981 24.5 16.8125 24.2244 17.3337 23.8756C17.9187 23.4856 18.6462 23 19.9991 23C21.3519 23 22.0803 23.4856 22.6653 23.8756C23.1884 24.2244 23.6028 24.5 24.5 24.5C25.3972 24.5 25.8125 24.2244 26.3337 23.8756C26.9197 23.4856 27.6462 23 29 23C29.4142 23 29.75 23.3358 29.75 23.75C29.75 24.1642 29.4142 24.5 29 24.5C28.1019 24.5 27.6875 24.7756 27.1663 25.1244C26.5803 25.5144 25.8538 26 24.5 26C23.1462 26 22.4187 25.5144 21.8337 25.1244C21.3125 24.7756 20.8972 24.5 20 24.5C19.1028 24.5 18.6875 24.7756 18.1663 25.1244C17.5813 25.5144 16.8538 26 15.5009 26C14.1481 26 13.4206 25.5144 12.8347 25.1244C12.3125 24.7756 11.8981 24.5 11 24.5C10.5858 24.5 10.25 24.1642 10.25 23.75ZM29.75 27.5C29.75 27.9142 29.4142 28.25 29 28.25C28.1019 28.25 27.6875 28.5256 27.1663 28.8744C26.5803 29.2644 25.8538 29.75 24.5 29.75C23.1462 29.75 22.4187 29.2644 21.8337 28.8744C21.3125 28.5256 20.8972 28.25 20 28.25C19.1028 28.25 18.6875 28.5256 18.1663 28.8744C17.5813 29.2644 16.8538 29.75 15.5009 29.75C14.1481 29.75 13.4206 29.2644 12.8347 28.8744C12.3125 28.5256 11.8981 28.25 11 28.25C10.5858 28.25 10.25 27.9142 10.25 27.5C10.25 27.0858 10.5858 26.75 11 26.75C12.3519 26.75 13.0803 27.2356 13.6663 27.6256C14.1875 27.9744 14.6019 28.25 15.5 28.25C16.3981 28.25 16.8125 27.9744 17.3337 27.6256C17.9187 27.2356 18.6462 26.75 19.9991 26.75C21.3519 26.75 22.0803 27.2356 22.6653 27.6256C23.1884 27.9744 23.6028 28.25 24.5 28.25C25.3972 28.25 25.8125 27.9744 26.3337 27.6256C26.9197 27.2356 27.6462 26.75 29 26.75C29.4142 26.75 29.75 27.0858 29.75 27.5Z" fill="#0D171C"/>
</g>
<defs>
<clipPath id="clip0_23_881">
<rect width="24" height="24" fill="white" transform="translate(8 8)"/>
</clipPath>
</defs>
</svg>
