<svg width="40" height="40" viewBox="0 0 40 40" fill="none" xmlns="http://www.w3.org/2000/svg">
<rect width="40" height="40" rx="8" fill="#E8EDF2"/>
<g clip-path="url(#clip0_23_888)">
<path fill-rule="evenodd" clip-rule="evenodd" d="M21.125 27.125C21.125 27.7463 20.6213 28.25 20 28.25C19.3787 28.25 18.875 27.7463 18.875 27.125C18.875 26.5037 19.3787 26 20 26C20.6213 26 21.125 26.5037 21.125 27.125ZM30.2262 16.1562C24.2808 11.2796 15.7192 11.2796 9.77375 16.1562C9.45351 16.4193 9.40713 16.8921 9.67016 17.2123C9.93318 17.5326 10.406 17.579 10.7262 17.3159C16.1182 12.8943 23.8818 12.8943 29.2738 17.3159C29.594 17.579 30.0668 17.5326 30.3298 17.2123C30.5929 16.8921 30.5465 16.4193 30.2262 16.1562ZM27.2188 19.5097C22.9905 16.1621 17.0151 16.1621 12.7869 19.5097C12.4622 19.767 12.4077 20.2388 12.665 20.5634C12.9223 20.8881 13.3941 20.9426 13.7188 20.6853C17.4011 17.7705 22.6045 17.7705 26.2869 20.6853C26.4428 20.8089 26.6414 20.8655 26.839 20.8426C27.0366 20.8198 27.2171 20.7194 27.3406 20.5634C27.4642 20.4075 27.5208 20.2089 27.498 20.0113C27.4751 19.8137 27.3747 19.6332 27.2188 19.5097ZM24.1944 22.8622C21.6952 21.0458 18.3105 21.0458 15.8113 22.8622C15.4763 23.1061 15.4024 23.5753 15.6462 23.9103C15.8901 24.2453 16.3594 24.3192 16.6944 24.0753C18.6668 22.6409 21.3389 22.6409 23.3112 24.0753C23.6462 24.3192 24.1155 24.2453 24.3594 23.9103C24.6032 23.5753 24.5294 23.1061 24.1944 22.8622Z" fill="#0D171C"/>
</g>
<defs>
<clipPath id="clip0_23_888">
<rect width="24" height="24" fill="white" transform="translate(8 8)"/>
</clipPath>
</defs>
</svg>
