<?xml version="1.0" encoding="iso-8859-1"?>
<!-- Uploaded to: SVG Repo, www.svgrepo.com, Generator: SVG Repo Mixer Tools -->
<svg xmlns="http://www.w3.org/2000/svg" xmlns:xlink="http://www.w3.org/1999/xlink" version="1.1" id="Layer_1"  viewBox="0 0 400.8 400.8" xml:space="preserve" width="512" height="512">
<g id="_x31_2._Lightbulb_1_">
	<g id="XMLID_62_">
		<g>
			<g>
				<path style="fill:#FF7124;" d="M319.4,134.95c0,33.02-12.23,68.43-32.16,96.42c-17,23.86-27.34,51.81-27.34,81.11v6.92h-119      v-6.92c0-29.3-10.34-57.25-27.34-81.11c-19.93-27.99-32.16-63.4-32.16-96.42C81.4,65.94,134.68,10,200.4,10      S319.4,65.94,319.4,134.95z M190.63,247.29l54.77-85.64h-43.09l7.86-58.9L155.4,188.4h43.09L190.63,247.29z"/>
			</g>
			<g>
				<path style="fill:#F2D59F;" d="M259.9,355.1v20.7c0,8.29-6.72,15-15,15h-89c-8.28,0-15-6.71-15-15v-56.4h119V355.1z"/>
			</g>
			<g>
				<polygon style="fill:#8ECAC1;" points="245.4,161.65 190.63,247.29 198.49,188.4 155.4,188.4 210.17,102.75 202.31,161.65           "/>
			</g>
		</g>
		<g>
			<g>
				<path style="fill:#5E2A41;" d="M116.4,144.95c-5.523,0-10-4.477-10-10c0-55.112,42.168-99.95,94-99.95c5.522,0,10,4.477,10,10      c0,5.523-4.478,10-10,10c-40.804,0-74,35.865-74,79.95C126.4,140.473,121.923,144.95,116.4,144.95z"/>
			</g>
			<g>
				<path style="fill:#5E2A41;" d="M190.628,256.291c-1.032,0-2.077-0.178-3.091-0.549c-3.963-1.45-6.386-5.46-5.828-9.642l6.5-48.7      H155.4c-3.289,0-6.315-1.793-7.894-4.678c-1.58-2.884-1.46-6.4,0.311-9.171l54.77-85.65c2.273-3.555,6.716-5.052,10.675-3.603      c3.963,1.45,6.387,5.459,5.828,9.642l-6.5,48.709h32.81c3.288,0,6.315,1.794,7.895,4.678c1.579,2.884,1.459,6.4-0.313,9.171      l-54.77,85.64C196.52,254.785,193.629,256.291,190.628,256.291z M171.838,179.4h26.652c2.595,0,5.063,1.12,6.771,3.072      c1.709,1.952,2.492,4.547,2.149,7.119l-2.489,18.648l24.039-37.588h-26.65c-2.595,0-5.063-1.12-6.772-3.072      c-1.709-1.952-2.492-4.547-2.149-7.119l2.489-18.655L171.838,179.4z"/>
			</g>
			<g>
				<path style="fill:#5E2A41;" d="M259.9,329.4c-5.523,0-10-4.477-10-10v-6.92c0-30.052,10.096-60.105,29.195-86.913      c18.976-26.649,30.305-60.526,30.305-90.618C309.4,71.566,260.502,20,200.4,20c-60.103,0-109,51.566-109,114.95      c0,30.092,11.33,63.969,30.306,90.62c19.098,26.805,29.194,56.858,29.194,86.91v6.92c0,5.523-4.477,10-10,10      c-5.523,0-10-4.477-10-10v-6.92c0-25.867-8.812-51.908-25.484-75.307C83.797,206.812,71.4,169.554,71.4,134.95      C71.4,60.538,129.269,0,200.4,0s129,60.538,129,134.95c0,34.604-12.398,71.861-34.014,102.221      c-16.674,23.402-25.486,49.442-25.486,75.31v6.92C269.9,324.923,265.422,329.4,259.9,329.4z"/>
			</g>
			<g>
				<path style="fill:#5E2A41;" d="M244.9,400.8h-89c-13.785,0-25-11.215-25-25v-56.4c0-5.523,4.477-10,10-10h119      c5.522,0,10,4.477,10,10v56.4C269.9,389.585,258.685,400.8,244.9,400.8z M150.9,329.4v46.4c0,2.757,2.243,5,5,5h89      c2.757,0,5-2.243,5-5v-46.4H150.9z"/>
			</g>
			<g>
				<path style="fill:#5E2A41;" d="M259.9,365.1h-59.5c-5.523,0-10-4.477-10-10c0-5.523,4.477-10,10-10h59.5c5.522,0,10,4.477,10,10      C269.9,360.623,265.422,365.1,259.9,365.1z"/>
			</g>
		</g>
	</g>
</g>















</svg>