<svg width="20" height="21" viewBox="0 0 20 21" fill="none" xmlns="http://www.w3.org/2000/svg">
<path d="M12.66 12.5765C12.69 12.6865 12.7 12.7965 12.7 12.8965C12.73 13.5465 12.44 14.2465 11.97 14.6765C11.75 14.8665 11.39 15.0665 11.11 15.1465C10.23 15.4565 9.35 15.0165 8.83 14.5065C9.77 14.2865 10.32 13.6065 10.5 12.8965C10.62 12.2865 10.37 11.7765 10.27 11.1765C10.17 10.5965 10.19 10.1065 10.4 9.57648C10.55 9.86648 10.71 10.1665 10.9 10.3965C11.5 11.1765 12.45 11.5165 12.66 12.5765ZM20 10.3965C20 15.8965 15.5 20.3965 10 20.3965C4.5 20.3965 0 15.8965 0 10.3965C0 4.89648 4.5 0.396484 10 0.396484C15.5 0.396484 20 4.89648 20 10.3965ZM15.16 10.9565L15.06 10.7565C14.9 10.3965 14.45 9.77648 14.45 9.77648C14.27 9.54648 14.05 9.33648 13.85 9.13648C13.32 8.66648 12.73 8.33648 12.22 7.84648C11.05 6.70648 10.79 4.83648 11.54 3.39648C10.79 3.57648 10.14 3.97648 9.58 4.42648C7.55 6.04648 6.75 8.89648 7.71 11.3465C7.74 11.4265 7.77 11.5065 7.77 11.6065C7.77 11.7765 7.65 11.9265 7.5 11.9965C7.31 12.0665 7.13 12.0265 7 11.8965C6.94413 11.8678 6.89866 11.8224 6.87 11.7665C6 10.6565 5.84 9.05648 6.43 7.78648C5.12 8.84649 4.41 10.6365 4.5 12.3165C4.56 12.7065 4.6 13.0965 4.74 13.4865C4.85 13.9565 5.06 14.3965 5.3 14.8365C6.14 16.1765 7.61 17.1465 9.19 17.3365C10.87 17.5465 12.67 17.2465 13.96 16.0965C15.4 14.7965 15.9 12.7265 15.16 10.9565Z" fill="#FF5C00"/>
</svg>
