<svg width="16" height="20" viewBox="0 0 16 20" fill="none" xmlns="http://www.w3.org/2000/svg">
<path d="M5 12.793L11 6.79297M5.5 7.29297H5.51M10.5 12.293H10.51M15 19.793V3.79297C15 3.26254 14.7893 2.75383 14.4142 2.37876C14.0391 2.00368 13.5304 1.79297 13 1.79297H3C2.46957 1.79297 1.96086 2.00368 1.58579 2.37876C1.21071 2.75383 1 3.26254 1 3.79297V19.793L4.5 17.793L8 19.793L11.5 17.793L15 19.793ZM6 7.29297C6 7.42558 5.94732 7.55275 5.85355 7.64652C5.75979 7.74029 5.63261 7.79297 5.5 7.79297C5.36739 7.79297 5.24021 7.74029 5.14645 7.64652C5.05268 7.55275 5 7.42558 5 7.29297C5 7.16036 5.05268 7.03318 5.14645 6.93941C5.24021 6.84565 5.36739 6.79297 5.5 6.79297C5.63261 6.79297 5.75979 6.84565 5.85355 6.93941C5.94732 7.03318 6 7.16036 6 7.29297ZM11 12.293C11 12.4256 10.9473 12.5528 10.8536 12.6465C10.7598 12.7403 10.6326 12.793 10.5 12.793C10.3674 12.793 10.2402 12.7403 10.1464 12.6465C10.0527 12.5528 10 12.4256 10 12.293C10 12.1604 10.0527 12.0332 10.1464 11.9394C10.2402 11.8456 10.3674 11.793 10.5 11.793C10.6326 11.793 10.7598 11.8456 10.8536 11.9394C10.9473 12.0332 11 12.1604 11 12.293Z" stroke="#0C1660" stroke-width="2" stroke-linecap="round" stroke-linejoin="round"/>
</svg>
