<svg width="16" height="21" viewBox="0 0 16 21" fill="none" xmlns="http://www.w3.org/2000/svg">
<path d="M8.275 17.7988C8.475 17.7822 8.646 17.7028 8.788 17.5608C8.93 17.4188 9.00067 17.2482 9 17.0488C9 16.8155 8.925 16.6282 8.775 16.4868C8.625 16.3455 8.43333 16.2828 8.2 16.2988C7.51667 16.3488 6.79167 16.1615 6.025 15.7368C5.25833 15.3122 4.775 14.5412 4.575 13.4238C4.54167 13.2405 4.45433 13.0905 4.313 12.9738C4.17167 12.8572 4.009 12.7988 3.825 12.7988C3.59167 12.7988 3.4 12.8865 3.25 13.0618C3.1 13.2372 3.05 13.4412 3.1 13.6738C3.38333 15.1905 4.05 16.2738 5.1 16.9238C6.15 17.5738 7.20833 17.8655 8.275 17.7988ZM8 20.7988C5.71667 20.7988 3.81267 20.0155 2.288 18.4488C0.763333 16.8822 0.000666667 14.9322 0 12.5988C0 10.9322 0.662667 9.11983 1.988 7.16183C3.31333 5.20383 5.31733 3.08283 8 0.798828C10.6833 3.08216 12.6877 5.20316 14.013 7.16183C15.3383 9.12049 16.0007 10.9328 16 12.5988C16 14.9322 15.2377 16.8822 13.713 18.4488C12.1883 20.0155 10.284 20.7988 8 20.7988Z" fill="#699BF7"/>
</svg>
