<svg width="20" height="21" viewBox="0 0 20 21" fill="none" xmlns="http://www.w3.org/2000/svg">
<path fill-rule="evenodd" clip-rule="evenodd" d="M13.1945 14.3679C13.0286 14.0377 12.7619 13.7551 12.7023 13.6917C12.5831 13.5651 12.4079 13.4028 12.1714 13.2423C11.6938 12.9181 10.9773 12.6099 9.99995 12.6099C9.02261 12.6099 8.30612 12.9181 7.82847 13.2423C7.59198 13.4028 7.41679 13.5651 7.29765 13.6917C7.24917 13.7431 7.20293 13.7965 7.15905 13.8518C7.14257 13.8727 6.99081 14.0377 6.80542 14.3679L9.99995 17.4609L13.1945 14.3679Z" fill="#0C1660"/>
<path fill-rule="evenodd" clip-rule="evenodd" d="M16.6113 11.105C16.6113 11.105 16.299 10.7054 15.9979 10.3656C15.7642 10.1018 15.2909 9.67384 14.7909 9.33528C13.7845 8.65388 12.2949 7.96509 10 7.96509C7.70512 7.96509 6.21547 8.65388 5.20914 9.33528C4.7091 9.67384 4.39527 9.9397 4.08145 10.2795C3.76762 10.6193 3.38867 11.105 3.38867 11.105L5.60094 13.2375L6.03207 12.7536L6.03938 12.7457C6.04719 12.7375 6.06082 12.7233 6.08016 12.7041C6.13947 12.6456 6.20083 12.5893 6.2641 12.5351C6.43184 12.3909 6.68688 12.194 7.02477 11.9959C7.69934 11.6004 8.69957 11.2024 10 11.2024C11.3004 11.2024 12.3007 11.6004 12.9752 11.9959C13.3131 12.194 13.5682 12.3909 13.7359 12.5351C13.7992 12.5893 13.8605 12.6456 13.9198 12.7041C13.9392 12.7233 13.9528 12.7375 13.9606 12.7457L13.9679 12.7536L13.9683 12.754L14.3991 13.2375L16.6113 11.105Z" fill="#0C1660"/>
<path fill-rule="evenodd" clip-rule="evenodd" d="M20 7.82656C20 7.82656 19.8242 7.5 19.5371 7.18262C19.3656 6.99297 19.2942 6.89332 19.1014 6.69391C18.7159 6.2952 18.1364 5.77016 17.3474 5.24703C15.765 4.19777 13.3507 3.16406 10 3.16406C6.6493 3.16406 4.23504 4.19777 2.65258 5.24703C1.86359 5.77016 1.2841 6.2952 0.898672 6.69391C0.70582 6.89332 0.561211 7.06152 0.462891 7.18262C0.413711 7.24316 0.393203 7.27016 0.349687 7.32715C0.205234 7.51641 0 7.82656 0 7.82656L2.26797 10.0091L2.69781 9.50125L2.69789 9.50109L2.69797 9.50102L2.70109 9.49742C2.70456 9.49341 2.71066 9.48652 2.71941 9.47676C2.74686 9.44625 2.77478 9.41619 2.80316 9.38656C2.8798 9.30625 2.99766 9.18801 3.15551 9.04437C3.4716 8.75684 3.94598 8.36938 4.56914 7.98105C5.81488 7.2048 7.64625 6.42992 10 6.42992C12.3538 6.42992 14.1851 7.2048 15.4309 7.98105C16.054 8.36938 16.5284 8.75684 16.8445 9.04437C17.0023 9.18801 17.1202 9.30625 17.1968 9.38656C17.2252 9.41619 17.2531 9.44625 17.2806 9.47676C17.2893 9.48652 17.2954 9.49341 17.2989 9.49742L17.3003 9.49906L17.302 9.50105L17.3021 9.50109L17.3022 9.50125L17.732 10.0091L20 7.82656Z" fill="#0C1660"/>
</svg>
