<svg width="25" height="24" viewBox="0 0 25 24" fill="none" xmlns="http://www.w3.org/2000/svg">
<g clip-path="url(#clip0_380_3017)">
<path fill-rule="evenodd" clip-rule="evenodd" d="M13.875 12C13.875 12.6213 13.3713 13.125 12.75 13.125C12.1287 13.125 11.625 12.6213 11.625 12C11.625 11.3787 12.1287 10.875 12.75 10.875C13.3713 10.875 13.875 11.3787 13.875 12ZM8.625 10.875C8.00368 10.875 7.5 11.3787 7.5 12C7.5 12.6213 8.00368 13.125 8.625 13.125C9.24632 13.125 9.75 12.6213 9.75 12C9.75 11.3787 9.24632 10.875 8.625 10.875ZM16.875 10.875C16.2537 10.875 15.75 11.3787 15.75 12C15.75 12.6213 16.2537 13.125 16.875 13.125C17.4963 13.125 18 12.6213 18 12C18 11.3787 17.4963 10.875 16.875 10.875ZM22.5 12C22.5007 15.424 20.7053 18.5975 17.77 20.3605C14.8347 22.1234 11.1898 22.2174 8.1675 20.6081L4.97531 21.6722C4.43626 21.852 3.84191 21.7117 3.44011 21.3099C3.03831 20.9081 2.89805 20.3137 3.07781 19.7747L4.14188 16.5825C2.23674 13.0006 2.74874 8.61332 5.42747 5.56638C8.10619 2.51944 12.3918 1.44968 16.1882 2.88032C19.9846 4.31096 22.4983 7.94298 22.5 12ZM21 12C20.999 8.53154 18.8287 5.43408 15.569 4.24891C12.3093 3.06374 8.65643 4.04399 6.42801 6.70188C4.19959 9.35977 3.87157 13.1276 5.60719 16.1306C5.7147 16.3167 5.73723 16.5399 5.66906 16.7437L4.5 20.25L8.00625 19.0809C8.08262 19.0549 8.16275 19.0416 8.24344 19.0416C8.37516 19.0418 8.5045 19.0767 8.61844 19.1428C11.1711 20.6197 14.318 20.6217 16.8725 19.148C19.4271 17.6743 21.0007 14.9491 21 12Z" fill="black"/>
</g>
<defs>
<clipPath id="clip0_380_3017">
<rect width="24" height="24" fill="white" transform="translate(0.75)"/>
</clipPath>
</defs>
</svg>
