<svg width="25" height="32" viewBox="0 0 25 32" fill="none" xmlns="http://www.w3.org/2000/svg">
<g clip-path="url(#clip0_380_2864)">
<path fill-rule="evenodd" clip-rule="evenodd" d="M21.75 14.8328V23.5C21.75 24.3284 21.0784 25 20.25 25H16.5C15.6716 25 15 24.3284 15 23.5V19.75C15 19.3358 14.6642 19 14.25 19H11.25C10.8358 19 10.5 19.3358 10.5 19.75V23.5C10.5 24.3284 9.82843 25 9 25H5.25C4.42157 25 3.75 24.3284 3.75 23.5V14.8328C3.74994 14.4131 3.92573 14.0125 4.23469 13.7284L11.7347 6.65219L11.745 6.64188C12.3172 6.1215 13.1912 6.1215 13.7634 6.64188C13.7666 6.64554 13.7701 6.64899 13.7738 6.65219L21.2738 13.7284C21.5796 14.014 21.7522 14.4144 21.75 14.8328Z" fill="#121417"/>
</g>
<defs>
<clipPath id="clip0_380_2864">
<rect width="24" height="24" fill="white" transform="translate(0.75 4)"/>
</clipPath>
</defs>
</svg>
