<svg width="25" height="24" viewBox="0 0 25 24" fill="none" xmlns="http://www.w3.org/2000/svg">
<g clip-path="url(#clip0_380_3154)">
<path fill-rule="evenodd" clip-rule="evenodd" d="M12.25 2.25C6.86522 2.25 2.5 6.61522 2.5 12C2.5 17.3848 6.86522 21.75 12.25 21.75C17.6348 21.75 22 17.3848 22 12C21.9943 6.61758 17.6324 2.25568 12.25 2.25ZM7.195 18.5156C8.2976 16.7912 10.2032 15.7478 12.25 15.7478C14.2968 15.7478 16.2024 16.7912 17.305 18.5156C14.3317 20.828 10.1683 20.828 7.195 18.5156ZM9.25 11.25C9.25 9.59315 10.5931 8.25 12.25 8.25C13.9069 8.25 15.25 9.59315 15.25 11.25C15.25 12.9069 13.9069 14.25 12.25 14.25C10.5931 14.25 9.25 12.9069 9.25 11.25ZM18.415 17.4759C17.5785 16.2638 16.4024 15.3261 15.0344 14.7806C16.5406 13.5943 17.1297 11.5838 16.5019 9.77207C15.8742 7.96039 14.1674 6.74548 12.25 6.74548C10.3326 6.74548 8.62584 7.96039 7.99805 9.77207C7.37026 11.5838 7.95936 13.5943 9.46562 14.7806C8.09764 15.3261 6.92147 16.2638 6.085 17.4759C3.14046 14.1647 3.33752 9.11881 6.53133 6.0473C9.72513 2.97579 14.7749 2.97579 17.9687 6.0473C21.1625 9.11881 21.3595 14.1647 18.415 17.4759Z" fill="black"/>
</g>
<defs>
<clipPath id="clip0_380_3154">
<rect width="24" height="24" fill="white" transform="translate(0.25)"/>
</clipPath>
</defs>
</svg>
