<svg width="24" height="24" viewBox="0 0 24 24" fill="none" xmlns="http://www.w3.org/2000/svg">
<g clip-path="url(#clip0_759_4009)">
<path fill-rule="evenodd" clip-rule="evenodd" d="M21.5306 10.2806L17.0306 14.7806C16.7376 15.0737 16.2624 15.0737 15.9694 14.7806C15.6763 14.4876 15.6763 14.0124 15.9694 13.7194L19.1897 10.5H15.4688C11.7059 10.499 8.41915 13.0441 7.47844 16.6875C7.37488 17.0888 6.96564 17.3301 6.56437 17.2266C6.16311 17.123 5.92176 16.7138 6.02531 16.3125C7.13533 12.0054 11.021 8.99662 15.4688 9H19.1916L15.9694 5.78062C15.6763 5.48757 15.6763 5.01243 15.9694 4.71938C16.2624 4.42632 16.7376 4.42632 17.0306 4.71938L21.5306 9.21937C21.6715 9.36005 21.7506 9.55094 21.7506 9.75C21.7506 9.94906 21.6715 10.1399 21.5306 10.2806ZM18 19.5H3.75V8.25C3.75 7.83579 3.41421 7.5 3 7.5C2.58579 7.5 2.25 7.83579 2.25 8.25V19.5C2.25 20.3284 2.92157 21 3.75 21H18C18.4142 21 18.75 20.6642 18.75 20.25C18.75 19.8358 18.4142 19.5 18 19.5Z" fill="#0D171C"/>
</g>
<defs>
<clipPath id="clip0_759_4009">
<rect width="24" height="24" fill="white"/>
</clipPath>
</defs>
</svg>
