<svg width="17" height="17" viewBox="0 0 17 17" fill="none" xmlns="http://www.w3.org/2000/svg">
<g clip-path="url(#clip0_193_1715)">
<mask id="mask0_193_1715" style="mask-type:luminance" maskUnits="userSpaceOnUse" x="0" y="0" width="17" height="17">
<path d="M0 0H16.8639V16.8639H0V0Z" fill="white"/>
</mask>
<g mask="url(#mask0_193_1715)">
<path fill-rule="evenodd" clip-rule="evenodd" d="M14.0095 14.1175C15.42 12.6955 16.2917 10.7327 16.2917 8.56438C16.2917 6.394 15.4199 4.43128 14.0095 3.0091C12.599 1.58716 10.652 0.708374 8.50108 0.708374C6.34818 0.708374 4.40127 1.58719 2.99053 3.0091C1.58005 4.43103 0.708336 6.39384 0.708336 8.56438C0.708336 10.7326 1.58008 12.6953 2.99053 14.1175C4.40102 15.5394 6.34802 16.4182 8.50108 16.4182C10.6518 16.4182 12.5987 15.5394 14.0095 14.1175ZM7.7105 6.22422C7.7105 6.58414 7.4192 6.87781 7.06001 6.87781C6.70298 6.87781 6.41168 6.58414 6.41168 6.22422C6.41168 5.06283 7.34902 4.11788 8.50105 4.11788C9.65092 4.11788 10.5882 5.06283 10.5882 6.22422C10.5882 7.36137 10.1042 7.91996 9.64643 8.44321C9.39017 8.73688 9.14926 9.0129 9.14926 9.40812C9.14926 9.77023 8.85796 10.0639 8.50093 10.0639C8.14174 10.0639 7.85043 9.77023 7.85043 9.40812C7.85043 8.52712 8.24903 8.06794 8.67179 7.58438C8.97179 7.23992 9.28944 6.87563 9.28944 6.22434C9.28944 5.78281 8.93689 5.42728 8.50096 5.42728C8.06299 5.42728 7.7105 5.78256 7.7105 6.22422ZM8.50115 11.0464C9.03773 11.0464 9.47354 11.4858 9.47354 12.0267C9.47354 12.5698 9.03773 13.0093 8.50115 13.0093C7.9624 13.0093 7.52647 12.57 7.52647 12.0267C7.52647 11.4858 7.96228 11.0464 8.50115 11.0464Z" fill="#838282"/>
</g>
</g>
<defs>
<clipPath id="clip0_193_1715">
<rect width="17" height="17" fill="white"/>
</clipPath>
</defs>
</svg>
