<svg width="19" height="19" viewBox="0 0 19 19" fill="none" xmlns="http://www.w3.org/2000/svg">
<path d="M9.42296 4.73486C8.95323 4.73486 8.49405 4.87415 8.10348 5.13512C7.71291 5.39609 7.4085 5.76702 7.22875 6.20099C7.04899 6.63496 7.00195 7.1125 7.09359 7.5732C7.18523 8.03391 7.41143 8.45709 7.74358 8.78924C8.07573 9.12139 8.49891 9.34759 8.95962 9.43923C9.42032 9.53087 9.89786 9.48384 10.3318 9.30408C10.7658 9.12432 11.1367 8.81991 11.3977 8.42934C11.6587 8.03878 11.798 7.57959 11.798 7.10986C11.7972 6.48019 11.5468 5.87652 11.1015 5.43128C10.6563 4.98603 10.0526 4.73558 9.42296 4.73486ZM9.42296 8.29736C9.18809 8.29736 8.9585 8.22772 8.76322 8.09723C8.56794 7.96675 8.41573 7.78129 8.32585 7.5643C8.23597 7.34731 8.21246 7.10855 8.25828 6.87819C8.3041 6.64784 8.4172 6.43625 8.58327 6.27017C8.74934 6.1041 8.96094 5.991 9.19129 5.94518C9.42164 5.89936 9.66041 5.92288 9.8774 6.01276C10.0944 6.10264 10.2798 6.25484 10.4103 6.45012C10.5408 6.64541 10.6105 6.875 10.6105 7.10986C10.6101 7.4247 10.4849 7.72653 10.2622 7.94915C10.0396 8.17177 9.73779 8.297 9.42296 8.29736Z" fill="black" fill-opacity="0.7"/>
<path d="M13.9867 2.54251C12.8583 1.4144 11.3521 0.744258 9.75864 0.66142C8.1652 0.578582 6.59756 1.08892 5.35827 2.09394C4.11898 3.09896 3.29589 4.52742 3.04787 6.10361C2.79985 7.67981 3.14448 9.29201 4.01523 10.6291L8.50202 17.517C8.60186 17.6703 8.73838 17.7962 8.8992 17.8834C9.06002 17.9706 9.24006 18.0162 9.42298 18.0162C9.6059 18.0162 9.78593 17.9706 9.94675 17.8834C10.1076 17.7962 10.2441 17.6703 10.3439 17.517L14.8309 10.6291C15.6388 9.38875 15.9959 7.90841 15.8422 6.43615C15.6885 4.9639 15.0334 3.58921 13.9867 2.54251ZM13.8359 9.98086L9.423 16.7552L5.01006 9.98086C3.65928 7.90723 3.94899 5.13219 5.69892 3.38218C6.18797 2.89312 6.76856 2.50518 7.40754 2.2405C8.04652 1.97582 8.73137 1.83959 9.423 1.83959C10.1146 1.83959 10.7995 1.97582 11.4385 2.2405C12.0774 2.50518 12.658 2.89312 13.1471 3.38218C14.897 5.13219 15.1867 7.90723 13.8359 9.98086Z" fill="black" fill-opacity="0.7"/>
</svg>
