<svg width="13" height="13" viewBox="0 0 13 13" fill="none" xmlns="http://www.w3.org/2000/svg">
<path d="M6.754 10.6041C6.58984 10.4992 6.37971 10.4992 6.21555 10.6041L3.48465 12.3491C3.10909 12.5891 2.63094 12.2549 2.72724 11.8198L3.46933 8.46663C3.50788 8.29244 3.4507 8.1109 3.31927 7.99025L0.833737 5.70857C0.5138 5.41487 0.69468 4.88098 1.12725 4.84223L4.35349 4.55321C4.54045 4.53646 4.70228 4.41641 4.77254 4.24234L6.02112 1.14879C6.18948 0.731636 6.78007 0.731636 6.94844 1.14879L8.19695 4.24216C8.26724 4.41632 8.4292 4.5364 8.61628 4.55305L11.8653 4.84222C12.299 4.88082 12.4795 5.41692 12.1575 5.71002L9.65217 7.9902C9.51967 8.1108 9.46182 8.29308 9.50053 8.46802L10.2423 11.8198C10.3386 12.2549 9.86047 12.5891 9.4849 12.3491L6.754 10.6041Z" fill="#4F7A94"/>
</svg>
